<svg fill="none" height="48" viewBox="0 0 48 48" width="48" xmlns="http://www.w3.org/2000/svg" xmlns:xlink="http://www.w3.org/1999/xlink"><linearGradient id="a" gradientUnits="userSpaceOnUse" x1="21.4888" x2="42.0661" y1="46.3782" y2="10.76"><stop offset="0" stop-color="#fcc934"/><stop offset="1" stop-color="#fbbc04"/></linearGradient><linearGradient id="b" gradientUnits="userSpaceOnUse" x1="28.2251" x2="-2.14083" y1="40.3052" y2="22.7848"><stop offset="0" stop-color="#1e8e3e"/><stop offset="1" stop-color="#34a853"/></linearGradient><linearGradient id="c" gradientUnits="userSpaceOnUse" x1="3.70867" x2="44.2889" y1="15.0105" y2="15.0105"><stop offset="0" stop-color="#d93025"/><stop offset="1" stop-color="#ea4335"/></linearGradient><path d="m44.006 36.7639c-.4523.8041-.94 1.565-1.4552 2.2797l5.4118-2.2797z" fill="#202124"/><path d="m23.9881 36.003c6.6257 0 11.9968-5.3746 11.9968-12.0045s-5.3711-12.0045-11.9968-12.0045-11.9969 5.3746-11.9969 12.0045 5.3712 12.0045 11.9969 12.0045z" fill="#fff"/><path d="m34.4012 30.0114-10.3787 17.9878c4.2107.0037 8.348-1.1031 11.995-3.209 3.647-2.1058 6.6749-5.1364 8.7786-8.7862s3.2089-7.7899 3.2043-12.0033c-.0047-4.2133-1.1191-8.351-3.2309-11.9961h-20.758l-.0174.0104c2.1078-.0069 4.18.5427 6.0076 1.5933 1.8276 1.0507 3.3459 2.5652 4.4016 4.3907 1.0556 1.8255 1.6113 3.8974 1.611 6.0065-.0004 2.1091-.5568 4.1807-1.6131 6.0059z" fill="url(#a)"/><path d="m13.5983 30.0114-10.37854-17.9868c-2.10839 3.647-3.21893748 7.7856-3.21975954 11.9989s1.10811954 8.3523 3.21507954 12.0001c2.10697 3.6479 5.13753 6.6756 8.78632 8.7781 3.6488 2.1026 7.787 3.2057 11.9976 3.1983l10.3787-17.9886v-.02c-1.048 1.83-2.5598 3.351-4.383 4.4094-1.8232 1.0585-3.8931 1.6169-6.0009 1.6189s-4.1789-.5524-6.0041-1.6073-3.34-2.573-4.3914-4.401z" fill="url(#b)"/><path d="m23.9878 33.5127c5.2453 0 9.4975-4.2549 9.4975-9.5036s-4.2522-9.5036-9.4975-9.5036c-5.2454 0-9.4976 4.2549-9.4976 9.5036s4.2522 9.5036 9.4976 9.5036z" fill="#1a73e8"/><path d="m23.988 12.0046h20.7572c-2.1021-3.65084-5.1287-6.68276-8.7748-8.79028-3.6461-2.10753-7.783-3.21620433-11.9937-3.2143176-4.2107.00188674-8.3466 1.1142676-11.9908 3.2250576-3.64422 2.1108-6.66809 5.14543-8.76691 8.79814l10.37911 17.9882.0176.0098c-1.0598-1.8231-1.6201-3.8937-1.6246-6.0028-.0044-2.1091.5473-4.182 1.5994-6.0095 1.0522-1.8276 2.5675-3.345 4.393-4.3992 1.8256-1.0543 3.8967-1.6079 6.0045-1.6051z" fill="url(#c)"/><path d="m15.7456 22.5085c0-.4144.3357-.7503.7498-.7503h31.4918v15.0057h-31.4918c-.4141 0-.7498-.3359-.7498-.7503z" fill="#3c4043"/><g fill="#fff"><path d="m24.4227 28.8291c.3319-.1636.6157-.4108.8238-.7175.223-.3364.3383-.7331.3304-1.1371.0052-.4363-.1154-.8649-.3472-1.2341-.2312-.364-.5542-.6602-.9362-.8584-.387-.2048-.818-.3113-1.2554-.3102h-3.1682v8.8158h3.3379c.4584.0023.9104-.1085 1.3161-.3227.3999-.2084.7373-.5199.9777-.9024.2442-.3892.3714-.8408.3664-1.3007.0078-.4647-.1416-.9184-.4237-1.2871-.2628-.3411-.6172-.5998-1.0216-.7456zm-.408 3.2544c-.2248.1411-.4855.214-.7507.2098h-2.2646v-2.8641h2.2208c.2759-.006.5482.0646.7867.2042.2188.1302.3998.3157.5248.5381.12.2078.1843.4433.1866.6836-.0019.2399-.0642.4754-.1809.6847-.1239.2239-.3041.4114-.5227.5437zm.254-4.4468c-.1192.2093-.2898.3844-.4956.5088-.2232.134-.4794.2024-.7395.1974h-2.0342v-2.6701h2.087c.2523-.0052.5006.0634.7148.1974.1993.1265.3636.3015.4777.5087.1079.1899.1659.4042.1685.6227-.0023.2222-.0624.4399-.1742.6317z"/><path d="m31.5957 27.2424c-.4808-.2872-1.0303-.4323-1.5872-.4189-.5633-.009-1.1164.1538-1.5884.4677-.4543.3071-.8193.7334-1.0566 1.2341-.2492.5261-.376 1.1039-.3704 1.6882-.0089.5982.1271 1.1895.396 1.7211.2521.4973.6345.9135 1.1045 1.2023.483.2934 1.0362.4447 1.5983.4371.5874.0161 1.1669-.1416 1.6684-.4541.4624-.3024.839-.7232 1.0923-1.2204l.0267-.0523-.961-.4768-.0256.0465c-.4116.7278-1.0011 1.0968-1.7619 1.0968-.3275-.0007-.6501-.0825-.9398-.2385-.3053-.165-.5606-.4119-.7386-.7141-.1965-.3374-.3077-.7193-.3237-1.1114h4.8129l.0111-.0421c.0271-.1086.0398-.2205.0378-.3326.0104-.5799-.1127-1.1543-.3593-1.6769-.2299-.4783-.5892-.8794-1.0355-1.1557zm-1.5995.6369c.353-.0134.7024.0768 1.0067.26.2483.1546.4509.3752.5861.638.1095.2193.1788.457.2047.7017h-3.5971c.0883-.4369.3052-.8358.6217-1.1433.3191-.3034.742-.4673 1.1779-.4564z"/><path d="m36.5696 32.5025c-.1157.0083-.2317-.0101-.3393-.0537-.1077-.0435-.204-.1112-.2818-.1977-.12-.1545-.1805-.4026-.1805-.7352v-3.3952h1.5012v-1.0486h-1.5012v-1.7501h-1.1391v1.7501h-1.0752v1.0486h1.0752v3.6421c-.0062.2637.036.5263.1245.7747.0835.2128.2116.4051.3755.5638.162.1519.3526.2696.5606.3462.2283.0862.4704.1294.7142.1274.1634.0024.3267-.0105.4877-.0384.1318-.0256.2598-.0676.3812-.1251l.0325-.0158v-1.1456l-.0852.0541c-.1934.1274-.4191.1963-.6503.1984z"/><path d="m43.1276 27.5051c-.4862-.4548-1.1612-.6822-2.0061-.6822-.4944-.0062-.9835.1051-1.4282.3252-.4122.202-.7632.5135-1.0159.9017l-.0279.0443.8605.6572.0324-.0511c.163-.2616.3928-.4731.665-.6118.2867-.1477.604-.2233.9253-.2206.4295-.0157.8496.1301 1.1802.4094.1516.1329.2719.2987.352.4853s.1179.3892.1107.5926v.282c-.2101-.105-.4314-.1851-.6594-.2388-.3416-.0851-.6922-.1267-1.0438-.1239-.7555 0-1.3903.191-1.8876.5685s-.7566.9177-.7566 1.5919c-.0057.3886.0974.7707.2973 1.1019.2047.3292.4963.5932.8415.7618.3829.1885.804.2832 1.2293.2763.4289.0065.8514-.1055 1.2227-.3241.3009-.1742.5601-.4142.7588-.7027v.8324h1.0863v-4.0139c-.0023-.7812-.2493-1.4066-.7365-1.8614zm-2.2352 5.0395c-.3387.0128-.6712-.0954-.9398-.3058-.1178-.0929-.2123-.2128-.2758-.35-.0636-.1371-.0943-.2876-.0897-.4392-.0047-.1682.0297-.3352.1004-.4873.0707-.1522.1757-.2852.3064-.3882.2738-.2274.6896-.3411 1.2361-.3411.2957-.0012.5902.0394.875.1205.2364.0645.4623.1637.6706.2945-.0026.3284-.0909.6502-.256.9324-.1685.2899-.4065.5317-.6918.7027-.2823.1727-.6059.2631-.9354.2615z"/></g></svg>