<?xml version="1.0" encoding="utf-8"?>
<!-- Generator: Adobe Illustrator 19.2.1, SVG Export Plug-In . SVG Version: 6.00 Build 0)  -->
<svg version="1.1" id="レイヤー_2" xmlns="http://www.w3.org/2000/svg" xmlns:xlink="http://www.w3.org/1999/xlink" x="0px"
	 y="0px" viewBox="0 0 170 544.8" style="enable-background:new 0 0 170 544.8;" xml:space="preserve">
<style type="text/css">
	.st0{fill:#FFFFFF;}
	.st1{fill:#040000;}
</style>
<g>
	<g>
		<path class="st0" d="M99.2,5.7l-14.7,6V12l14.7,6v5.7H77.3v-4.5h14.2V19l-14.1-5.7v-3.1l14.2-5.7V4.5H77.3V0h21.8V5.7z"/>
		<path class="st0" d="M85.5,28.2c5.1,0,8.5,3.1,8.5,8.1s-3.4,8.1-8.5,8.1c-5,0-8.4-3.1-8.4-8.1S80.4,28.2,85.5,28.2z M85.5,39.7
			c2.9,0,5-1.2,5-3.4c0-2.3-2.1-3.5-5-3.5c-2.9,0-5,1.2-5,3.5C80.5,38.6,82.6,39.7,85.5,39.7z"/>
		<path class="st0" d="M99.2,48.9v4.5H91v0.1c1.3,0.6,3,1.9,3,4.7c0,3.6-2.8,6.6-8.4,6.6c-5.5,0-8.4-2.9-8.4-6.6
			c0-2.6,1.5-4,2.9-4.7v-0.2h-2.6v-4.5H99.2z M80.7,56.8c0,2.2,2,3.4,4.8,3.4c2.8,0,4.8-1.2,4.8-3.4c0-2.2-1.9-3.4-4.8-3.4
			C82.6,53.4,80.7,54.6,80.7,56.8z"/>
		<path class="st0" d="M93.7,69.4V74H77.3v-4.5H93.7z M98.1,69.3c1.3,0,2.3,1.1,2.3,2.5c0,1.4-1,2.5-2.3,2.5c-1.3,0-2.3-1.1-2.3-2.5
			C95.8,70.4,96.9,69.3,98.1,69.3z"/>
		<path class="st0" d="M77.3,83.6v-4.5h21.8v4.5H77.3z"/>
		<path class="st0" d="M85.5,88.1c5.1,0,8.5,3.1,8.5,7.9c0,4.3-2.8,7.7-8.3,7.7h-1.2V92.6h0c-2.4,0-3.9,1.4-3.9,3.7
			c0,1.5,0.7,2.7,1.9,3.1l-0.3,4.2c-3-0.6-5-3.4-5-7.4C77,91.2,80.3,88.1,85.5,88.1z M87.2,99.5c2,0,3.4-1.4,3.4-3.3
			c0-2-1.5-3.4-3.4-3.5V99.5z"/>
		<path class="st0" d="M95.6,124.9c0-2.3-1-3.5-2.4-3.5c-1.6,0-2.3,1.6-2.7,3.5l-0.5,2c-0.9,3.8-2.8,6.5-6.4,6.5
			c-4,0-6.5-3.1-6.5-8.5c0-5.3,2.4-8.7,7.2-8.8v4.5c-2.2,0.1-3.3,1.9-3.3,4.3c0,2.3,1.1,3.9,2.7,3.9c1.5,0,2.2-1.3,2.7-3.7l0.6-2.4
			c0.9-3.7,2.7-6,6-6c4,0,6.6,3.5,6.6,8.3c0,4.9-2.7,8.1-6.6,8.1v-4.4C94.6,128.5,95.6,127.1,95.6,124.9z"/>
		<path class="st0" d="M93.7,137.9v4.5H77.3v-4.5H93.7z M98.1,137.7c1.3,0,2.3,1.1,2.3,2.5c0,1.4-1,2.5-2.3,2.5
			c-1.3,0-2.3-1.1-2.3-2.5C95.8,138.8,96.9,137.7,98.1,137.7z"/>
		<path class="st0" d="M90.3,156.3v-3.1h-7.9c-1.3,0-1.6,0.6-1.6,1.5c0,0.4,0.1,0.9,0.1,1.1l-3.4,0.7c-0.1-0.5-0.4-1.3-0.4-2.5
			c-0.1-3.3,1.5-5.5,4.7-5.5h8.5v-2.2h3.4v2.2h3.9v4.5h-3.9v3.1H90.3z"/>
		<path class="st0" d="M85.5,160.1c5.1,0,8.5,3.1,8.5,7.9c0,4.3-2.8,7.7-8.3,7.7h-1.2v-11.2h0c-2.4,0-3.9,1.4-3.9,3.7
			c0,1.5,0.7,2.7,1.9,3.1l-0.3,4.2c-3-0.6-5-3.4-5-7.4C77,163.1,80.3,160.1,85.5,160.1z M87.2,171.4c2,0,3.4-1.4,3.4-3.3
			c0-2-1.5-3.4-3.4-3.5V171.4z"/>
		<path class="st0" d="M77.3,193.3v-4.6h21.8v4.6H77.3z"/>
		<path class="st0" d="M88.8,208c1.1-0.2,1.9-1.2,1.9-2.7c0-1.4-0.6-2.5-1.6-2.5c-0.8,0-1.3,0.6-1.6,2.1l-0.6,3
			c-0.7,3.2-2.1,4.7-4.4,4.7c-3.2,0-5.4-3.1-5.4-7.3c0-4.3,1.9-7,5.1-7.4l0.2,4.5c-1.3,0.3-2,1.4-2,3c0,1.6,0.7,2.6,1.7,2.7
			c0.8,0,1.3-0.7,1.6-2.1l0.6-2.8c0.6-3.2,2.2-4.7,4.7-4.7c3.2,0,5.1,2.8,5.1,6.9c0,4.1-1.9,6.6-4.9,7L88.8,208z"/>
		<path class="st0" d="M99.2,225.5v4.6h-9v9.4h9v4.6H77.3v-4.6h9v-9.4h-9v-4.6H99.2z"/>
		<path class="st0" d="M85.5,248.7c5.1,0,8.5,3.1,8.5,7.9c0,4.3-2.8,7.7-8.3,7.7h-1.2v-11.2h0c-2.4,0-3.9,1.4-3.9,3.7
			c0,1.5,0.7,2.7,1.9,3.1l-0.3,4.2c-3-0.6-5-3.4-5-7.4C77,251.8,80.3,248.7,85.5,248.7z M87.2,260c2,0,3.4-1.4,3.4-3.3
			c0-2-1.5-3.4-3.4-3.5V260z"/>
		<path class="st0" d="M93.7,268.8v4.4h-2.9v0.2c2,0.6,3.1,2.1,3.1,3.9c0,0.5-0.1,1-0.2,1.4h-4c0.1-0.4,0.2-1.3,0.2-1.9
			c0-2-1.4-3.5-3.4-3.5h-9.3v-4.5H93.7z"/>
		<path class="st0" d="M85.5,281.9c5.1,0,8.5,3.1,8.5,7.9c0,4.3-2.8,7.7-8.3,7.7h-1.2v-11.2h0c-2.4,0-3.9,1.4-3.9,3.7
			c0,1.5,0.7,2.7,1.9,3.1l-0.3,4.2c-3-0.6-5-3.4-5-7.4C77,285,80.3,281.9,85.5,281.9z M87.2,293.3c2,0,3.4-1.4,3.4-3.3
			c0-2-1.5-3.4-3.4-3.5V293.3z"/>
	</g>
	<path class="st0" d="M83.8,339.2C83.8,339.2,83.8,339.2,83.8,339.2c0.1,0.1,0.2,0.1,0.4,0.2c0,0,0,0,0,0c0.1,0,0.2,0.1,0.4,0.1
		c0,0,0,0,0,0c0.1,0,0.3,0,0.4,0c0,0,0,0,0,0c0.1,0,0.3,0,0.4,0c0,0,0,0,0,0c0.1,0,0.2-0.1,0.4-0.1c0,0,0,0,0,0
		c0.1,0,0.2-0.1,0.3-0.2c0,0,0,0,0,0c0.1-0.1,0.2-0.2,0.3-0.3c0,0,0,0,0,0l10.8-10.8c0.8-0.8,0.8-2.2,0-3c-0.8-0.8-2.2-0.8-3,0
		l-7.2,7.2v-16.9c0-1.2-0.9-2.1-2.1-2.1s-2.1,0.9-2.1,2.1v16.9l-7.2-7.2c-0.8-0.8-2.2-0.8-3,0c-0.4,0.4-0.6,1-0.6,1.5
		c0,0.5,0.2,1.1,0.6,1.5l10.8,10.8C83.6,339,83.7,339.1,83.8,339.2z"/>
	<path class="st0" d="M160,544.8H10c-5.5,0-10-4.5-10-10v-150c0-5.5,4.5-10,10-10h150c5.5,0,10,4.5,10,10v150
		C170,540.3,165.5,544.8,160,544.8z"/>
	<g>
		<polygon class="st1" points="35.6,394.9 30.4,394.9 25.3,394.9 20.1,394.9 20.1,400.1 20.1,405.2 20.1,410.4 20.1,415.6 
			20.1,420.7 20.1,425.9 20.1,431.1 25.3,431.1 30.4,431.1 35.6,431.1 40.8,431.1 45.9,431.1 45.9,425.9 40.8,425.9 35.6,425.9 
			30.4,425.9 25.3,425.9 25.3,420.7 25.3,415.6 25.3,410.4 25.3,405.2 25.3,400.1 30.4,400.1 35.6,400.1 40.8,400.1 45.9,400.1 
			45.9,394.9 40.8,394.9 		"/>
		<rect x="102.7" y="394.9" class="st1" width="5.2" height="5.2"/>
		<path class="st1" d="M144,394.9h-5.2h-5.2h0h-5.2h-5.2h-5.2H113v5.2v5.2v5.2v5.2v5.2v5.2v5.2h5.2h5.2h5.2h5.2h0h5.2h5.2h5.2v-5.2
			v-5.2v-5.2v-5.2v-5.2v-5.2v-5.2H144z M144,405.2v5.2v5.2v5.2v5.2h-5.2h-5.2h0h-5.2h-5.2h-5.2v-5.2v-5.2v-5.2v-5.2v-5.2h5.2h5.2
			h5.2h0h5.2h5.2V405.2z"/>
		<rect x="61.4" y="400.1" class="st1" width="5.2" height="5.2"/>
		<polygon class="st1" points="76.9,400.1 76.9,394.9 71.7,394.9 71.7,400.1 71.7,405.2 76.9,405.2 		"/>
		<polygon class="st1" points="92.4,400.1 92.4,394.9 87.2,394.9 82.1,394.9 82.1,400.1 87.2,400.1 87.2,405.2 92.4,405.2 		"/>
		<rect x="97.5" y="400.1" class="st1" width="5.2" height="5.2"/>
		<polygon class="st1" points="35.6,405.2 30.4,405.2 30.4,410.4 30.4,415.6 30.4,420.7 35.6,420.7 40.8,420.7 45.9,420.7 
			45.9,415.6 45.9,410.4 45.9,405.2 40.8,405.2 		"/>
		<rect x="102.7" y="405.2" class="st1" width="5.2" height="5.2"/>
		<polygon class="st1" points="133.7,405.2 128.5,405.2 123.3,405.2 123.3,410.4 123.3,415.6 123.3,420.7 128.5,420.7 133.7,420.7 
			133.7,420.7 138.8,420.7 138.8,415.6 138.8,410.4 138.8,405.2 133.7,405.2 		"/>
		<polygon class="st1" points="92.4,415.6 92.4,420.7 97.5,420.7 97.5,415.6 97.5,410.4 92.4,410.4 87.2,410.4 87.2,405.2 
			82.1,405.2 82.1,410.4 82.1,415.6 87.2,415.6 		"/>
		<polygon class="st1" points="71.7,425.9 71.7,420.7 71.7,415.6 76.9,415.6 76.9,410.4 71.7,410.4 66.6,410.4 61.4,410.4 
			61.4,415.6 66.6,415.6 66.6,420.7 61.4,420.7 61.4,425.9 61.4,431.1 66.6,431.1 66.6,425.9 		"/>
		<polygon class="st1" points="102.7,425.9 102.7,431.1 102.7,436.2 107.9,436.2 107.9,431.1 107.9,425.9 107.9,420.7 102.7,420.7 
			97.5,420.7 97.5,425.9 		"/>
		<polygon class="st1" points="56.2,431.1 56.2,425.9 56.2,420.7 56.2,415.6 56.2,410.4 56.2,405.2 56.2,400.1 56.2,394.9 
			51.1,394.9 45.9,394.9 45.9,400.1 51.1,400.1 51.1,405.2 51.1,410.4 51.1,415.6 51.1,420.7 51.1,425.9 45.9,425.9 45.9,431.1 
			51.1,431.1 		"/>
		<polygon class="st1" points="82.1,431.1 87.2,431.1 87.2,425.9 87.2,420.7 82.1,420.7 76.9,420.7 76.9,425.9 82.1,425.9 		"/>
		<rect x="92.4" y="425.9" class="st1" width="5.2" height="5.2"/>
		<polygon class="st1" points="35.6,436.2 30.4,436.2 25.3,436.2 20.1,436.2 20.1,441.4 25.3,441.4 30.4,441.4 35.6,441.4 
			40.8,441.4 45.9,441.4 45.9,436.2 40.8,436.2 		"/>
		<polygon class="st1" points="61.4,436.2 56.2,436.2 51.1,436.2 51.1,441.4 56.2,441.4 61.4,441.4 66.6,441.4 71.7,441.4 
			71.7,436.2 76.9,436.2 76.9,441.4 82.1,441.4 82.1,436.2 82.1,431.1 76.9,431.1 76.9,425.9 71.7,425.9 71.7,431.1 66.6,431.1 
			66.6,436.2 		"/>
		<rect x="107.9" y="436.2" class="st1" width="5.2" height="5.2"/>
		<rect x="118.2" y="436.2" class="st1" width="5.2" height="5.2"/>
		<rect x="128.5" y="436.2" class="st1" width="5.2" height="5.2"/>
		<rect x="138.8" y="436.2" class="st1" width="5.2" height="5.2"/>
		<polygon class="st1" points="35.6,441.4 35.6,446.5 35.6,451.7 30.4,451.7 30.4,456.9 30.4,462 25.3,462 20.1,462 20.1,467.2 
			20.1,472.3 25.3,472.3 25.3,467.2 30.4,467.2 30.4,472.3 35.6,472.3 35.6,467.2 35.6,462 35.6,456.9 40.8,456.9 45.9,456.9 
			45.9,451.7 40.8,451.7 40.8,446.5 45.9,446.5 45.9,441.4 40.8,441.4 		"/>
		<polygon class="st1" points="71.7,441.4 71.7,446.5 71.7,451.7 76.9,451.7 76.9,446.5 76.9,441.4 		"/>
		<polygon class="st1" points="97.5,451.7 102.7,451.7 107.9,451.7 107.9,446.5 113,446.5 113,441.4 107.9,441.4 102.7,441.4 
			102.7,446.5 97.5,446.5 92.4,446.5 92.4,441.4 87.2,441.4 82.1,441.4 82.1,446.5 87.2,446.5 87.2,451.7 82.1,451.7 82.1,456.9 
			82.1,462 87.2,462 87.2,456.9 92.4,456.9 92.4,451.7 		"/>
		<polygon class="st1" points="138.8,446.5 138.8,441.4 133.7,441.4 133.7,446.5 128.5,446.5 123.3,446.5 123.3,441.4 118.2,441.4 
			118.2,446.5 113,446.5 113,451.7 118.2,451.7 123.3,451.7 128.5,451.7 133.7,451.7 133.7,451.7 138.8,451.7 138.8,456.9 
			133.7,456.9 133.7,456.9 128.5,456.9 123.3,456.9 123.3,462 128.5,462 133.7,462 133.7,467.2 128.5,467.2 123.3,467.2 
			123.3,472.3 128.5,472.3 133.7,472.3 133.7,472.3 138.8,472.3 144,472.3 149.1,472.3 149.1,467.2 144,467.2 138.8,467.2 
			138.8,462 144,462 144,456.9 144,451.7 149.1,451.7 149.1,446.5 144,446.5 		"/>
		<polygon class="st1" points="25.3,451.7 25.3,446.5 25.3,441.4 20.1,441.4 20.1,446.5 20.1,451.7 20.1,456.9 25.3,456.9 		"/>
		<polygon class="st1" points="97.5,456.9 92.4,456.9 92.4,462 97.5,462 102.7,462 102.7,456.9 		"/>
		<polygon class="st1" points="113,456.9 107.9,456.9 107.9,462 113,462 118.2,462 118.2,456.9 		"/>
		<polygon class="st1" points="61.4,462 66.6,462 66.6,467.2 71.7,467.2 71.7,462 76.9,462 76.9,456.9 71.7,456.9 66.6,456.9 
			66.6,451.7 61.4,451.7 56.2,451.7 56.2,456.9 51.1,456.9 51.1,451.7 56.2,451.7 56.2,446.5 51.1,446.5 45.9,446.5 45.9,451.7 
			45.9,456.9 45.9,462 51.1,462 56.2,462 56.2,467.2 61.4,467.2 		"/>
		<rect x="102.7" y="462" class="st1" width="5.2" height="5.2"/>
		<rect x="118.2" y="462" class="st1" width="5.2" height="5.2"/>
		<rect x="51.1" y="467.2" class="st1" width="5.2" height="5.2"/>
		<polygon class="st1" points="76.9,472.3 82.1,472.3 87.2,472.3 87.2,467.2 82.1,467.2 76.9,467.2 		"/>
		<rect x="97.5" y="467.2" class="st1" width="5.2" height="5.2"/>
		<polygon class="st1" points="35.6,472.3 30.4,472.3 30.4,477.5 35.6,477.5 35.6,482.7 40.8,482.7 45.9,482.7 45.9,477.5 
			45.9,472.3 40.8,472.3 		"/>
		<polygon class="st1" points="51.1,472.3 45.9,472.3 45.9,477.5 45.9,482.7 51.1,482.7 56.2,482.7 56.2,477.5 51.1,477.5 		"/>
		<polygon class="st1" points="82.1,472.3 76.9,472.3 71.7,472.3 66.6,472.3 61.4,472.3 61.4,477.5 61.4,482.7 61.4,487.8 61.4,493 
			66.6,493 71.7,493 71.7,487.8 76.9,487.8 76.9,482.7 71.7,482.7 66.6,482.7 66.6,477.5 71.7,477.5 76.9,477.5 76.9,482.7 
			82.1,482.7 82.1,477.5 		"/>
		<rect x="92.4" y="472.3" class="st1" width="5.2" height="5.2"/>
		<rect x="138.8" y="472.3" class="st1" width="5.2" height="5.2"/>
		<polygon class="st1" points="25.3,477.5 25.3,472.3 20.1,472.3 20.1,477.5 20.1,482.7 25.3,482.7 		"/>
		<path class="st1" d="M133.7,477.5h-5.2v-5.2h-5.2h-5.2H113h-5.2h-5.2v5.2v5.2h-5.2h-5.2h-5.2h-5.2v5.2h5.2v5.2h-5.2v5.2v5.2h5.2
			v-5.2h5.2V493h5.2v-5.2h5.2v5.2h-5.2v5.2h-5.2v5.2h5.2v5.2v5.2h5.2v-5.2v-5.2h5.2v5.2v5.2h5.2v-5.2h5.2v-5.2h5.2v5.2h5.2h5.2v5.2
			h5.2v-5.2h-5.2v-5.2h5.2v-5.2h-5.2h0h-5.2V493v-5.2v-5.2h5.2h0h5.2v-5.2H133.7L133.7,477.5z M123.3,487.8v5.2v5.2h-5.2H113h-5.2
			V493v-5.2v-5.2h5.2h5.2h5.2V487.8z"/>
		<rect x="144" y="477.5" class="st1" width="5.2" height="5.2"/>
		<polygon class="st1" points="35.6,487.8 30.4,487.8 25.3,487.8 20.1,487.8 20.1,493 20.1,498.1 20.1,503.3 20.1,508.5 20.1,513.6 
			20.1,518.8 20.1,524 25.3,524 30.4,524 35.6,524 40.8,524 45.9,524 45.9,518.8 40.8,518.8 35.6,518.8 30.4,518.8 25.3,518.8 
			25.3,513.6 25.3,508.5 25.3,503.3 25.3,498.1 25.3,493 30.4,493 35.6,493 40.8,493 45.9,493 45.9,487.8 40.8,487.8 		"/>
		<polygon class="st1" points="45.9,487.8 45.9,493 51.1,493 51.1,498.1 51.1,503.3 51.1,508.5 51.1,513.6 51.1,518.8 45.9,518.8 
			45.9,524 51.1,524 56.2,524 56.2,518.8 56.2,513.6 56.2,508.5 56.2,503.3 56.2,498.1 56.2,493 56.2,487.8 51.1,487.8 		"/>
		<rect x="113" y="487.8" class="st1" width="5.2" height="5.2"/>
		<polygon class="st1" points="144,493 149.1,493 149.1,487.8 144,487.8 138.8,487.8 138.8,493 138.8,498.1 144,498.1 		"/>
		<polygon class="st1" points="35.6,498.1 30.4,498.1 30.4,503.3 30.4,508.5 30.4,513.6 35.6,513.6 40.8,513.6 45.9,513.6 
			45.9,508.5 45.9,503.3 45.9,498.1 40.8,498.1 		"/>
		<polygon class="st1" points="66.6,498.1 61.4,498.1 61.4,503.3 61.4,508.5 61.4,513.6 61.4,518.8 61.4,524 66.6,524 71.7,524 
			76.9,524 82.1,524 82.1,518.8 82.1,513.6 87.2,513.6 87.2,508.5 82.1,508.5 76.9,508.5 76.9,513.6 71.7,513.6 71.7,518.8 
			66.6,518.8 66.6,513.6 71.7,513.6 71.7,508.5 66.6,508.5 66.6,503.3 71.7,503.3 71.7,508.5 76.9,508.5 76.9,503.3 76.9,498.1 
			76.9,493 71.7,493 71.7,498.1 		"/>
		<polygon class="st1" points="138.8,503.3 138.8,508.5 144,508.5 144,513.6 144,518.8 138.8,518.8 133.7,518.8 133.7,524 
			138.8,524 144,524 149.1,524 149.1,518.8 149.1,513.6 149.1,508.5 149.1,503.3 149.1,498.1 144,498.1 144,503.3 		"/>
		<rect x="92.4" y="513.6" class="st1" width="5.2" height="5.2"/>
		<rect x="102.7" y="513.6" class="st1" width="5.2" height="5.2"/>
		<rect x="113" y="513.6" class="st1" width="5.2" height="5.2"/>
		<rect x="107.9" y="518.8" class="st1" width="5.2" height="5.2"/>
		<rect x="118.2" y="518.8" class="st1" width="5.2" height="5.2"/>
	</g>
</g>
</svg>
