<svg xmlns="http://www.w3.org/2000/svg" width="142.047" height="13.72" viewBox="0 0 284.093 27.44">
  <defs>
    <style>
      .cls-1 {
        fill-rule: evenodd;
      }
    </style>
  </defs>
  <path id="INSTAGRAM_" data-name="INSTAGRAM " class="cls-1" d="M237.264,1071.05V1098h-4.306v-26.95h4.306Zm18.3,6.58L270.025,1098h4.691v-26.95H270.41v20.05l-14.281-20.05h-4.866V1098h4.306v-20.37Zm40.81,20.62c5.215,0,9.031-3.16,9.031-7.92a7.454,7.454,0,0,0-5.041-7.45c-1.785-.77-3.535-1.3-5.11-1.89-1.3-.46-2.836-1.23-2.836-2.87,0-1.82,1.575-3.01,3.641-3.01a4.654,4.654,0,0,1,3.815,2.2l3.71-2.27c-1.61-2.17-3.745-4.24-7.49-4.24-4.446,0-7.981,2.84-7.981,7.35,0,3.29,2.2,5.64,5.11,6.69,1.681,0.63,2.661.91,4.131,1.47,2.87,1.05,3.885,2.55,3.78,4.27-0.21,2.06-2.2,3.32-4.585,3.32a5.638,5.638,0,0,1-5.216-3.39l-3.85,1.99A9.885,9.885,0,0,0,296.379,1098.25Zm27.054-23.18V1098H327.7v-22.93H334.5v-4.02H316.608v4.02h6.825ZM366.449,1098h4.691l-11.131-26.95h-4.481L344.467,1098h4.761l2.24-5.5h12.706Zm-13.336-9.52,4.656-11.45,4.725,11.45h-9.381Zm41.895,9.77a13.688,13.688,0,0,0,11.762-6.69v-8.96H395.113v4.02H402.5v3.61a9.2,9.2,0,0,1-7.491,3.71,9.435,9.435,0,0,1,0-18.87,9.646,9.646,0,0,1,6.721,2.8l3.01-3.04a13.806,13.806,0,0,0-9.731-4.03A13.725,13.725,0,0,0,395.008,1098.25Zm45.606-.25-7.421-11.27a8.1,8.1,0,0,0-2.625-15.68H420.242V1098h4.305v-10.82h3.815L435.5,1098h5.111Zm-16.067-22.93h5.846a4.054,4.054,0,0,1,0,8.09h-5.846v-8.09ZM472.393,1098h4.691l-11.131-26.95h-4.481L450.411,1098h4.761l2.24-5.5h12.706Zm-13.336-9.52,4.656-11.45,4.725,11.45h-9.381Zm53.692-10.5V1098h4.3v-26.95H512.4l-9.556,13.51-9.591-13.51h-4.621V1098h4.306v-20.06l9.906,13.97Z" transform="translate(-232.969 -1070.81)"/>
</svg>
