<svg xmlns="http://www.w3.org/2000/svg" width="101.313" height="13.47" viewBox="0 0 202.625 26.94">
  <defs>
    <style>
      .cls-1 {
        fill-rule: evenodd;
      }
    </style>
  </defs>
  <path id="TWITTER_" data-name="TWITTER " class="cls-1" d="M280.593,1290.07V1313h4.271v-22.93h6.791v-4.02H273.768v4.02h6.825Zm39.586,3.68,5.636,19.25h4.935l7.841-26.95h-4.725l-5.6,20.58-5.706-20.58h-4.9l-5.6,20.58-5.67-20.58h-4.761l7.946,26.95h4.936Zm34.264-7.7V1313h-4.306v-26.95h4.306Zm19.25,4.02V1313h4.27v-22.93h6.791v-4.02H366.867v4.02h6.826Zm28.734,0V1313H406.7v-22.93h6.791v-4.02H395.6v4.02h6.825Zm23.484-4.02V1313h16.837v-4.03H430.217v-7.28H441.1v-4.02H430.217v-7.6h12.531v-4.02H425.911ZM476.418,1313L469,1301.73a8.1,8.1,0,0,0-2.626-15.68H456.046V1313h4.306v-10.82h3.815l7.141,10.82h5.11Zm-16.066-22.93H466.2a4.054,4.054,0,0,1,0,8.09h-5.845v-8.09Z" transform="translate(-273.781 -1286.06)"/>
</svg>
