<svg xmlns="http://www.w3.org/2000/svg" width="84.578" height="13.72" viewBox="0 0 169.157 27.44">
  <defs>
    <style>
      .cls-1 {
        fill-rule: evenodd;
      }
    </style>
  </defs>
  <path id="TIKTOK" class="cls-1" d="M297.6,1179.07V1202h4.271v-22.93h6.791v-4.02H290.778v4.02H297.6Zm27.79-4.02V1202h-4.306v-26.95h4.306Zm29.366,26.99h5.356l-12.567-13.94,10.256-13.05h-5l-9.1,11.58v-11.58h-4.306v26.99H343.7v-12.26Zm22.329-22.97V1202h4.27v-22.93h6.791v-4.02H370.262v4.02h6.826Zm35.8-4.27a13.725,13.725,0,1,0,13.721,13.72A13.7,13.7,0,0,0,412.893,1174.8Zm0,23.14a9.435,9.435,0,1,1,9.451-9.42A9.4,9.4,0,0,1,412.893,1197.94Zm41.685,4.1h5.355l-12.566-13.94,10.256-13.05h-5l-9.1,11.58v-11.58h-4.306v26.99h4.306v-12.26Z" transform="translate(-290.781 -1174.81)"/>
</svg>
