<svg xmlns="http://www.w3.org/2000/svg" width="56.844" height="13.87" viewBox="0 0 56.844 13.87">
  <defs>
    <style>
      .cls-1 {
        fill-rule: evenodd;
      }
    </style>
  </defs>
  <path id="PLAY" class="cls-1" d="M352.32,9625.48h-5.309v13.86h2.213v-5.57h3.1A4.146,4.146,0,0,0,352.32,9625.48Zm-0.09,2.07a2.079,2.079,0,0,1,0,4.15h-3.006v-4.15h3.006Zm10.077-2.07v13.86h8.567v-2.07h-6.353v-11.79h-2.214Zm25.2,13.86h2.412l-5.724-13.86h-2.3l-5.688,13.86h2.448l1.152-2.83h6.533Zm-6.857-4.9,2.394-5.88,2.429,5.88h-4.823Zm16.508-.94v5.84h2.195v-5.84l4.482-8.02h-2.412l-3.15,5.85-3.185-5.85H392.7Z" transform="translate(-347 -9625.47)"/>
</svg>
