<svg xmlns="http://www.w3.org/2000/svg" width="120" height="13.34" viewBox="0 0 120 13.34">
  <defs>
    <style>
      .cls-1 {
        fill: #000;
        fill-rule: evenodd;
      }
    </style>
  </defs>
  <path id="ALL_TAKES" data-name="ALL TAKES" class="cls-1" d="M138.685,2718h2.278l-5.406-13.09h-2.176L128.01,2718h2.312l1.088-2.67h6.17Zm-6.476-4.62,2.26-5.56,2.3,5.56h-4.555Zm13.8-8.47V2718H154.1v-1.95h-6v-11.14h-2.09Zm13.372,0V2718h8.091v-1.95h-6v-11.14h-2.09Zm25.261,1.96V2718h2.074v-11.13h3.3v-1.96h-8.686v1.96h3.315ZM203.627,2718h2.278l-5.405-13.09h-2.176L192.952,2718h2.312l1.088-2.67h6.17Zm-6.476-4.62,2.261-5.56,2.295,5.56h-4.556Zm21.261,4.64h2.6l-6.1-6.77,4.98-6.34H217.46l-4.419,5.63v-5.63H210.95v13.11h2.091v-5.95Zm7.678-13.11V2718h8.176v-1.95h-6.085v-3.54h5.286v-1.96h-5.286v-3.68h6.085v-1.96H226.09Zm17.511,13.21c2.533,0,4.386-1.53,4.386-3.84a3.611,3.611,0,0,0-2.448-3.62c-0.867-.38-1.717-0.63-2.482-0.92a1.662,1.662,0,0,1-1.376-1.4,1.572,1.572,0,0,1,1.767-1.46,2.268,2.268,0,0,1,1.853,1.07l1.8-1.1a4.34,4.34,0,0,0-3.638-2.06,3.587,3.587,0,0,0-3.875,3.57,3.461,3.461,0,0,0,2.482,3.25c0.815,0.3,1.291.44,2,.71,1.394,0.51,1.887,1.24,1.836,2.08a2.024,2.024,0,0,1-2.227,1.61,2.733,2.733,0,0,1-2.532-1.65l-1.87.97A4.8,4.8,0,0,0,243.6,2718.12Z" transform="translate(-128 -2704.78)"/>
</svg>
