<?xml version="1.0" encoding="UTF-8"?><svg id="_レイヤー_2" xmlns="http://www.w3.org/2000/svg" width="199" height="18" viewBox="0 0 199 18"><defs><style>.cls-1{fill:#fff;}</style></defs><g id="_レイヤー_1-2"><g><path class="cls-1" d="M18.56,7.9v2.32H0v-2.32H18.56Z"/><path class="cls-1" d="M31.92,5.22v-1.24h2.06v1.24h3.6v-1.24h2.14v1.24h3.98v1.7h-3.98v3.1h-7.8v-3.1h-3.02c-.04,3.8-.52,7.8-2,11.44l-1.94-1.18c1.42-3.32,1.78-7,1.78-10.68V1.74h7.18V0h2.26V1.74h7.56v1.86h-14.84v1.62h3.02Zm11.9,11.58l-1.18,1.76c-2.4-.38-4.74-1-6.78-1.92-1.82,.88-3.96,1.5-6.28,1.9l-1.24-1.66c2.06-.26,3.92-.7,5.52-1.32-1.02-.64-1.92-1.4-2.66-2.26l1.54-.68h-3.32v-1.72h10.24l1.6,.54c-.7,1.66-1.88,2.98-3.42,4.06,1.82,.64,3.88,1.08,5.98,1.3Zm-8-2.18c.94-.56,1.72-1.24,2.32-2h-5c.7,.78,1.62,1.44,2.68,2Zm-1.84-7.7v1.44h3.6v-1.44h-3.6Z"/><path class="cls-1" d="M51.56,6.92c2.64,0,5.62-.1,8.46-.28-.22-.56-.42-1.16-.62-1.76-2.38,.16-4.82,.28-7,.3l-.12-1.96c2.08,0,4.36-.08,6.58-.22-.2-.74-.36-1.48-.48-2.2l2.42-.26c.08,.76,.22,1.52,.36,2.28,1.82-.16,3.52-.36,4.94-.6l.28,1.98c-1.36,.18-3,.36-4.76,.5,.18,.6,.36,1.2,.58,1.78,1.86-.16,3.6-.36,5.06-.6l.22,2c-1.28,.16-2.8,.32-4.46,.46,.66,1.3,1.48,2.48,2.48,3.4l-1.06,1.7c-2.26-1.06-4.72-1.58-6.88-1.58-1.98,0-2.92,.88-2.92,1.94,0,1.28,1.78,2.1,5.36,2.1,.98,0,2.32-.04,3.68-.16l-.16,2.12c-1.04,.1-2.2,.12-3.06,.12-5.52,0-8.06-1.62-8.06-4.2,0-2.24,1.72-3.76,4.88-3.76,1.5,0,3.32,.22,4.78,.74-.42-.62-.84-1.38-1.26-2.24-3.08,.22-6.38,.36-9.12,.38l-.12-1.98Z"/><path class="cls-1" d="M76.4,6.96c0-2,.28-4.02,.78-5.8l2.3,.48c-.6,1.72-.92,3.62-.92,5.14,0,.88,.1,1.68,.24,2.18,.32-.6,1.06-1.86,1.48-2.54l1.44,1.26c-.7,1.04-1.94,3.28-2.38,4.5l-1.96,.3c-.68-1.48-.98-3.48-.98-5.5v-.02ZM88.53,.88c.46,2.44,.68,4.52,.68,7.12,0,4.62-1.36,8.14-7.56,10.08l-1.3-2.16c5.52-1.52,6.48-3.9,6.48-7.88,0-2.34-.2-4.54-.76-6.76l2.46-.4Z"/><path class="cls-1" d="M98.85,10.16c0-3.26,.44-6.7,1.1-9.46l2.38,.42c-.76,2.64-1.18,5.88-1.18,9.02,0,2.74,.28,5.12,1.1,7.12l-2.34,.68c-.76-2.14-1.06-4.78-1.06-7.76v-.02Zm15.26,6.44c-1.28,.12-2.72,.2-3.9,.2-3.58,0-6.28-.66-6.28-2.72,0-.8,.26-1.8,.86-3.12l2.04,.36c-.44,.94-.66,1.54-.66,2.04,0,1.02,1.36,1.34,4,1.34,1.24,0,2.64-.14,3.94-.36v2.26Zm-3.28-13.2c.98,0,2.02,.02,2.84,.04l-.04,2.14c-1-.08-2.22-.12-3.44-.12-1.96,0-4.16,.12-5.9,.3l-.14-2.12c1.92-.18,4.42-.24,6.66-.24h.02Z"/><path class="cls-1" d="M122.9,13.96c0-1.26,.76-2.82,2.18-4.3l1.76,1.2c-.98,1-1.56,2.02-1.56,2.78,0,1.26,1.72,1.64,5.78,1.64,1.66,0,4.02-.2,5.72-.64l.36,2.36c-1.78,.34-4.24,.54-6.24,.54-5.32,0-8-.88-8-3.56v-.02Zm7.32-11.38c1.84,0,3.76-.06,5.4-.2l.86,1.98c-1.14,.66-3.9,2.66-5.24,3.74l-1.54-1.4c.96-.66,2.2-1.54,2.94-2.06-.9,.06-2.08,.1-3.02,.1-2.04,0-3.98-.22-5.72-.52l.38-2.14c1.7,.34,3.7,.5,5.92,.5h.02Z"/><path class="cls-1" d="M150.52,1.6c0,1.1,.06,2.2,.16,3.28,1.06-.46,2.26-.76,3.56-.88,.08-.96,.12-2,.12-3.14l2.24,.06c-.02,1.1-.06,2.12-.14,3.08,3.72,.4,5.76,3.26,5.76,6.6s-1.56,6.06-6.52,7.2l-1-2c4.22-.88,5.26-2.88,5.26-5.12,0-2.38-1.44-4.24-3.72-4.64-.5,3.54-1.5,5.98-2.68,7.62,.24,.34,.48,.64,.76,.92l-1.64,1.56c-.22-.26-.44-.54-.64-.82-1.28,1.04-2.6,1.42-3.68,1.42-1.84,0-2.98-1.36-2.98-3.7,0-2.96,1.22-5.42,3.34-7.04-.18-1.38-.3-2.84-.34-4.32l2.14-.08Zm-1.38,6.7c-1.1,1.16-1.72,2.68-1.72,4.44,0,1.06,.46,1.7,1.16,1.7,.6,0,1.46-.22,2.34-.98-.76-1.5-1.36-3.24-1.78-5.16Zm3.22,3.32c.72-1.26,1.32-3.04,1.68-5.58-1.14,.14-2.18,.44-3.08,.92,.3,1.7,.76,3.28,1.4,4.66Z"/><path class="cls-1" d="M182.78,1.32l1.12,1.6c-1.68,1.38-4.16,3.52-5.6,4.86,.8-.3,1.6-.44,2.52-.44,3.24,0,5.08,2.38,5.08,5.08,0,3.36-2.46,5.46-7.08,5.46-3.12,0-4.84-1.28-4.84-3.18,0-1.72,1.58-3.04,3.86-3.04s3.62,1.38,4,3.72c1.14-.54,1.76-1.48,1.76-2.9,0-1.76-1.32-3.26-3.42-3.26-.84,0-2.06,.2-3.06,.58-1.58,.62-3.76,2.26-5.44,3.82l-1.5-1.74c3-2.18,7.34-6.02,9.56-8.2-1.74,.14-5.18,.32-7.36,.4l-.14-2.18c2.84,0,7.94-.24,10.54-.58Zm-4.94,12.12c-1.12,0-1.84,.5-1.84,1.22,0,.78,.82,1.3,2.6,1.3,.48,0,.94-.04,1.34-.08-.16-1.5-.84-2.44-2.1-2.44Z"/><path class="cls-1" d="M198.94,15.9c0,1.44-1.18,2.64-2.66,2.64s-2.66-1.2-2.66-2.66,1.2-2.66,2.66-2.66,2.66,1.2,2.66,2.66v.02Zm-4.32,0c0,.9,.74,1.66,1.66,1.66s1.68-.76,1.68-1.68-.76-1.66-1.68-1.66-1.66,.76-1.66,1.66v.02Z"/></g></g></svg>