<?xml version="1.0" encoding="UTF-8"?><svg id="_レイヤー_2" xmlns="http://www.w3.org/2000/svg" width="222" height="18" viewBox="0 0 222 18"><defs><style>.cls-1{fill:#fff;}</style></defs><g id="_レイヤー_1-2"><g><path class="cls-1" d="M12.84,5.92c-.06,.38-.14,.74-.2,1.1,2.56,.76,3.94,2.56,3.94,5.08,0,3.18-1.66,5.4-6.36,6.06l-.86-1.98c3.76-.4,4.98-1.72,4.98-4.06,0-1.46-.8-2.56-2.24-3.14-.9,2.78-2.4,4.92-4.16,6.34,.12,.44,.26,.88,.42,1.28l-2.1,.8c-.08-.28-.16-.56-.24-.86-1.08,.52-2.2,.78-3.3,.78-1.82,0-2.72-1.3-2.72-3.24,0-2.76,2.04-5.34,5.22-6.62,.04-.82,.1-1.7,.16-2.58H.54V2.88H5.6c.1-.8,.2-1.58,.34-2.34l2.22,.22c-.14,.68-.28,1.4-.38,2.12H15.9v2H7.52c-.06,.68-.12,1.34-.16,1.96,.74-.12,1.5-.2,2.3-.2,.3,0,.58,0,.86,.02,.06-.32,.12-.64,.14-.98l2.18,.24ZM2.02,13.92c0,.88,.4,1.26,1.22,1.26,.76,0,1.56-.24,2.36-.68-.24-1.5-.38-3.18-.4-4.96-1.94,1-3.18,2.64-3.18,4.38Zm7.5-5.38c-.78,0-1.52,.08-2.22,.24v.04c0,1.5,.06,2.88,.22,4.16,1.04-1.1,1.94-2.6,2.54-4.42-.18-.02-.36-.02-.54-.02Z"/><path class="cls-1" d="M25.25,6.98c0-2,.28-4.02,.78-5.8l2.3,.48c-.6,1.72-.92,3.62-.92,5.14,0,.88,.1,1.68,.24,2.18,.32-.6,1.06-1.86,1.48-2.54l1.44,1.26c-.7,1.04-1.94,3.28-2.38,4.5l-1.96,.3c-.68-1.48-.98-3.48-.98-5.5v-.02ZM37.38,.9c.46,2.44,.68,4.52,.68,7.12,0,4.62-1.36,8.14-7.56,10.08l-1.3-2.16c5.52-1.52,6.48-3.9,6.48-7.88,0-2.34-.2-4.54-.76-6.76l2.46-.4Z"/><path class="cls-1" d="M46.97,10.88c0-4.56,3.66-8.92,8.88-8.92,5.76,0,8,3.4,8,7.4s-1.72,7.16-7.48,8.42l-1.1-2.18c4.9-.84,6.22-3.22,6.22-6.2s-1.58-5.02-4.96-5.22c-.3,7.5-2.6,12.6-5.76,12.6-2.26,0-3.8-2.86-3.8-5.88v-.02Zm2.18-.04c0,1.92,.76,3.42,1.68,3.42,1.36,0,3.2-3.52,3.4-9.92-3.2,.7-5.08,3.46-5.08,6.5Z"/><path class="cls-1" d="M78.44,7.18c-.02-.78-.04-1.56-.04-2.34h-6.24V2.82h6.18c0-.82-.02-1.58-.02-2.2h2.36V2.82h5.92v2.02h-5.92c.02,.78,.04,1.56,.06,2.34h5.48v2.02h-5.44c.04,1.12,.06,2.14,.08,2.96,2.08,.76,4.1,1.94,5.78,3.24l-1.5,1.78c-1.24-1.14-2.72-2.14-4.26-2.84-.16,2.48-1.32,3.64-4.38,3.64s-4.62-1.54-4.62-3.28c0-1.92,1.68-3.36,4.7-3.36,.66,0,1.32,.06,1.98,.18-.02-.68-.04-1.48-.06-2.32h-5.94v-2.02h5.88Zm-1.98,6.06c-1.64,0-2.5,.58-2.5,1.44,0,.8,.8,1.36,2.38,1.36,1.76,0,2.26-.6,2.26-2.44v-.08c-.74-.18-1.46-.28-2.14-.28Z"/><path class="cls-1" d="M102.13,7.18c-.02-.78-.04-1.56-.04-2.34h-6.24V2.82h6.18c0-.82-.02-1.58-.02-2.2h2.36V2.82h5.92v2.02h-5.92c.02,.78,.04,1.56,.06,2.34h5.48v2.02h-5.44c.04,1.12,.06,2.14,.08,2.96,2.08,.76,4.1,1.94,5.78,3.24l-1.5,1.78c-1.24-1.14-2.72-2.14-4.26-2.84-.16,2.48-1.32,3.64-4.38,3.64s-4.62-1.54-4.62-3.28c0-1.92,1.68-3.36,4.7-3.36,.66,0,1.32,.06,1.98,.18-.02-.68-.04-1.48-.06-2.32h-5.94v-2.02h5.88Zm-1.98,6.06c-1.64,0-2.5,.58-2.5,1.44,0,.8,.8,1.36,2.38,1.36,1.76,0,2.26-.6,2.26-2.44v-.08c-.74-.18-1.46-.28-2.14-.28Z"/><path class="cls-1" d="M118.51,10.88c0-4.56,3.66-8.92,8.88-8.92,5.76,0,8,3.4,8,7.4s-1.72,7.16-7.48,8.42l-1.1-2.18c4.9-.84,6.22-3.22,6.22-6.2s-1.58-5.02-4.96-5.22c-.3,7.5-2.6,12.6-5.76,12.6-2.26,0-3.8-2.86-3.8-5.88v-.02Zm2.18-.04c0,1.92,.76,3.42,1.68,3.42,1.36,0,3.2-3.52,3.4-9.92-3.2,.7-5.08,3.46-5.08,6.5Z"/><path class="cls-1" d="M147.67,6.64c-.22-.88-.6-1.86-1.08-2.7l1.02-.36h-3.82V1.88h6.76V0h2.24V1.88h6.94v1.7h-3.4l.96,.28c-.42,.82-.96,1.82-1.58,2.78h5.32v1.72h-18.56v-1.72h5.2Zm-.06,11.36v.56h-2.16V9.54h12.64v9.02h-2.24v-.56h-8.24Zm8.24-5.1v-1.62h-8.24v1.62h8.24Zm0,3.38v-1.74h-8.24v1.74h8.24Zm-2.46-9.64c.56-1.04,1.1-2.18,1.44-3.06h-6.1c.56,1.04,.96,2.16,1.14,3.06h3.52Z"/><path class="cls-1" d="M186.5,16.32l-1.42,1.88c-2.52-.92-5.12-2.4-7.04-4.3v4.68h-2.26v-4.66c-1.9,1.88-4.48,3.4-6.9,4.38l-1.36-1.78c2.56-.8,5.34-2.26,7.14-4.06h-6.88v-1.84h8v-1.5h-2.52V1.74h2.22c.22-.62,.4-1.26,.5-1.72l2.34,.22c-.2,.46-.44,.98-.72,1.5h3.1v7.38h-2.66v1.5h8.16v1.84h-7.02c1.82,1.76,4.66,3.14,7.32,3.86Zm-14.22-10.9l.5,1.7c-1.26,.78-3.06,1.86-4.12,2.46l-.94-1.82c1.12-.52,3.18-1.56,4.56-2.34Zm-2.5-4.86c1.28,1.06,2.24,2.06,2.9,3.08-.56,.32-1.12,.64-1.8,1.04-.6-1-1.48-2.02-2.64-3.08l1.54-1.04Zm5.5,4.18h3.34v-1.36h-3.34v1.36Zm0,2.76h3.34v-1.42h-3.34v1.42Zm7.1-2.26c1.58,1,2.84,1.92,3.9,2.8l-1.54,1.36c-.98-.92-2.22-1.88-3.72-2.92l1.36-1.24Zm3.44-3.78c-.72,.96-1.8,2.16-2.92,3.28l-1.66-.92c1.06-1.12,2.1-2.38,2.66-3.28l1.92,.92Z"/><path class="cls-1" d="M209.14,8.64c-1.58,.54-3.54,1.22-5.34,1.98,.14,1,.2,2.24,.2,3.7h-2.14c.02-.36,.02-.68,.02-1,0-.68-.02-1.28-.06-1.8-1.8,.92-3.12,1.92-3.12,2.9s1.36,1.54,4.2,1.54c1.44,0,3.74-.16,5.1-.46l.2,2.1c-1.44,.26-3.68,.34-5.28,.34-4.06,0-6.46-1.14-6.46-3.42,0-1.98,2.26-3.6,4.96-4.96-.26-.64-.64-.92-1.08-.92-1.28,0-2.64,.6-3.9,1.74-.46,.4-1.4,1.42-2.02,2.22l-1.78-1.44c1.62-1.5,3.18-3.78,4.34-6.12h-3.72V3.04h4.6c.34-.88,.62-1.74,.78-2.54l2.32,.46c-.2,.72-.42,1.42-.68,2.08h6.06v2h-6.9c-.52,1.12-1.08,2.06-1.56,2.7,.96-.54,1.96-.92,2.94-.92,1.22,0,2.02,.58,2.52,1.86,1.8-.8,3.62-1.48,4.96-2.06l.84,2.02Z"/><path class="cls-1" d="M221.67,15.92c0,1.44-1.18,2.64-2.66,2.64s-2.66-1.2-2.66-2.66,1.2-2.66,2.66-2.66,2.66,1.2,2.66,2.66v.02Zm-4.32,0c0,.9,.74,1.66,1.66,1.66s1.68-.76,1.68-1.68-.76-1.66-1.68-1.66-1.66,.76-1.66,1.66v.02Z"/></g></g></svg>