<?xml version="1.0" encoding="UTF-8"?><svg id="_レイヤー_2" xmlns="http://www.w3.org/2000/svg" width="222" height="18" viewBox="0 0 222 18"><defs><style>.cls-1{fill:#f9f801;}</style></defs><g id="_レイヤー_1-2"><g><path class="cls-1" d="M12.84,5.88c-.06,.38-.14,.74-.2,1.1,2.56,.76,3.94,2.56,3.94,5.08,0,3.18-1.66,5.4-6.36,6.06l-.86-1.98c3.76-.4,4.98-1.72,4.98-4.06,0-1.46-.8-2.56-2.24-3.14-.9,2.78-2.4,4.92-4.16,6.34,.12,.44,.26,.88,.42,1.28l-2.1,.8c-.08-.28-.16-.56-.24-.86-1.08,.52-2.2,.78-3.3,.78-1.82,0-2.72-1.3-2.72-3.24,0-2.76,2.04-5.34,5.22-6.62,.04-.82,.1-1.7,.16-2.58H.54V2.84H5.6c.1-.8,.2-1.58,.34-2.34l2.22,.22c-.14,.68-.28,1.4-.38,2.12H15.9v2H7.52c-.06,.68-.12,1.34-.16,1.96,.74-.12,1.5-.2,2.3-.2,.3,0,.58,0,.86,.02,.06-.32,.12-.64,.14-.98l2.18,.24ZM2.02,13.88c0,.88,.4,1.26,1.22,1.26,.76,0,1.56-.24,2.36-.68-.24-1.5-.38-3.18-.4-4.96-1.94,1-3.18,2.64-3.18,4.38Zm7.5-5.38c-.78,0-1.52,.08-2.22,.24v.04c0,1.5,.06,2.88,.22,4.16,1.04-1.1,1.94-2.6,2.54-4.42-.18-.02-.36-.02-.54-.02Z"/><path class="cls-1" d="M25.25,6.94c0-2,.28-4.02,.78-5.8l2.3,.48c-.6,1.72-.92,3.62-.92,5.14,0,.88,.1,1.68,.24,2.18,.32-.6,1.06-1.86,1.48-2.54l1.44,1.26c-.7,1.04-1.94,3.28-2.38,4.5l-1.96,.3c-.68-1.48-.98-3.48-.98-5.5v-.02ZM37.38,.86c.46,2.44,.68,4.52,.68,7.12,0,4.62-1.36,8.14-7.56,10.08l-1.3-2.16c5.52-1.52,6.48-3.9,6.48-7.88,0-2.34-.2-4.54-.76-6.76l2.46-.4Z"/><path class="cls-1" d="M46.97,10.84c0-4.56,3.66-8.92,8.88-8.92,5.76,0,8,3.4,8,7.4s-1.72,7.16-7.48,8.42l-1.1-2.18c4.9-.84,6.22-3.22,6.22-6.2s-1.58-5.02-4.96-5.22c-.3,7.5-2.6,12.6-5.76,12.6-2.26,0-3.8-2.86-3.8-5.88v-.02Zm2.18-.04c0,1.92,.76,3.42,1.68,3.42,1.36,0,3.2-3.52,3.4-9.92-3.2,.7-5.08,3.46-5.08,6.5Z"/><path class="cls-1" d="M78.44,7.14c-.02-.78-.04-1.56-.04-2.34h-6.24V2.78h6.18c0-.82-.02-1.58-.02-2.2h2.36V2.78h5.92v2.02h-5.92c.02,.78,.04,1.56,.06,2.34h5.48v2.02h-5.44c.04,1.12,.06,2.14,.08,2.96,2.08,.76,4.1,1.94,5.78,3.24l-1.5,1.78c-1.24-1.14-2.72-2.14-4.26-2.84-.16,2.48-1.32,3.64-4.38,3.64s-4.62-1.54-4.62-3.28c0-1.92,1.68-3.36,4.7-3.36,.66,0,1.32,.06,1.98,.18-.02-.68-.04-1.48-.06-2.32h-5.94v-2.02h5.88Zm-1.98,6.06c-1.64,0-2.5,.58-2.5,1.44,0,.8,.8,1.36,2.38,1.36,1.76,0,2.26-.6,2.26-2.44v-.08c-.74-.18-1.46-.28-2.14-.28Z"/><path class="cls-1" d="M102.13,7.14c-.02-.78-.04-1.56-.04-2.34h-6.24V2.78h6.18c0-.82-.02-1.58-.02-2.2h2.36V2.78h5.92v2.02h-5.92c.02,.78,.04,1.56,.06,2.34h5.48v2.02h-5.44c.04,1.12,.06,2.14,.08,2.96,2.08,.76,4.1,1.94,5.78,3.24l-1.5,1.78c-1.24-1.14-2.72-2.14-4.26-2.84-.16,2.48-1.32,3.64-4.38,3.64s-4.62-1.54-4.62-3.28c0-1.92,1.68-3.36,4.7-3.36,.66,0,1.32,.06,1.98,.18-.02-.68-.04-1.48-.06-2.32h-5.94v-2.02h5.88Zm-1.98,6.06c-1.64,0-2.5,.58-2.5,1.44,0,.8,.8,1.36,2.38,1.36,1.76,0,2.26-.6,2.26-2.44v-.08c-.74-.18-1.46-.28-2.14-.28Z"/><path class="cls-1" d="M118.51,10.84c0-4.56,3.66-8.92,8.88-8.92,5.76,0,8,3.4,8,7.4s-1.72,7.16-7.48,8.42l-1.1-2.18c4.9-.84,6.22-3.22,6.22-6.2s-1.58-5.02-4.96-5.22c-.3,7.5-2.6,12.6-5.76,12.6-2.26,0-3.8-2.86-3.8-5.88v-.02Zm2.18-.04c0,1.92,.76,3.42,1.68,3.42,1.36,0,3.2-3.52,3.4-9.92-3.2,.7-5.08,3.46-5.08,6.5Z"/><path class="cls-1" d="M160.5,15.38v2.12h-12.72v1.02h-2.2V6.5h-2.92v-2.1h2.92V.22h2.2V4.4h2.96V0h2.14V4.4h3.14V.02h2.2V4.4h3v2.1h-3v6.44h-7.48V6.5h-2.96V15.38h12.72Zm-7.62-8.88v4.4h3.14V6.5h-3.14Z"/><path class="cls-1" d="M179.68,10.46c-.86-.66-1.62-1.4-2.22-2.26h-.98c-.64,.84-1.42,1.6-2.3,2.28h.6v2.64c0,1.96-.8,3.82-3.28,5.42l-1.82-1.42c2.24-1.18,2.92-2.52,2.92-4.04v-1.56c-1.22,.7-2.56,1.26-3.88,1.68l-1.26-1.66c2.4-.6,4.88-1.76,6.52-3.34h-4.32V.46h14.6v7.74h-4.26c1.58,1.58,4.04,2.66,6.46,3.16l-1.26,1.76c-1.38-.38-2.74-.94-3.98-1.64v7.04h-2.22V10.46h.68Zm-7.88-6.84h3.98v-1.5h-3.98v1.5Zm0,2.92h3.98v-1.54h-3.98v1.54Zm10.24-2.92v-1.5h-4.08v1.5h4.08Zm0,2.92v-1.54h-4.08v1.54h4.08Z"/><path class="cls-1" d="M197.71,5.54c.64-.78,1.34-1.18,2.02-1.18,.78,0,1.58,.48,2.42,1.58,1.68,2.26,5.44,6.22,8.8,8.56l-1.58,1.84c-3.06-2.42-6.6-6-8.18-7.96-.6-.76-1.02-1.1-1.44-1.1-.38,0-.76,.28-1.26,.84-1.02,1.18-3.1,3.66-4.7,5.58l-1.8-1.64c2.04-2,4.54-5.12,5.72-6.52Z"/><path class="cls-1" d="M222.35,15.88c0,1.44-1.18,2.64-2.66,2.64s-2.66-1.2-2.66-2.66,1.2-2.66,2.66-2.66,2.66,1.2,2.66,2.66v.02Zm-4.32,0c0,.9,.74,1.66,1.66,1.66s1.68-.76,1.68-1.68-.76-1.66-1.68-1.66-1.66,.76-1.66,1.66v.02Z"/></g></g></svg>