<?xml version="1.0" encoding="UTF-8"?><svg id="_レイヤー_2" xmlns="http://www.w3.org/2000/svg" width="383" height="23" viewBox="0 0 383 23"><defs><style>.cls-1{fill:#f9f801;}</style></defs><g id="_レイヤー_1-2"><g><path class="cls-1" d="M3.54,.76V16.92H12.2v3.28H0V.76H3.54Z"/><path class="cls-1" d="M18.64,13.96c0-3.61,2.8-6.44,6.41-6.44,4.12,0,6.41,3.08,6.41,7.73h-9.19c.46,1.16,1.39,1.87,2.8,1.89,.98,.03,1.87-.35,2.42-.96l2.35,2.3c-1.36,1.31-3.16,1.89-4.8,1.89-3.56,0-6.41-2.85-6.41-6.41Zm9.32-1.29c-.38-1.19-1.57-1.94-2.98-1.94-1.34,.03-2.45,.78-2.83,1.94h5.81Z"/><path class="cls-1" d="M37.95,17.45l2.75-1.44c.48,.81,1.14,1.11,1.72,1.11,.68,0,1.14-.28,1.14-.76,0-.33-.2-.63-.96-1.01-.76-.38-1.49-.63-2.22-1.01-1.26-.66-2.15-1.64-2.15-3.13,0-2.22,1.57-3.69,4.07-3.69,2.02,0,3.38,1.44,3.81,2.3l-2.68,1.46c-.25-.4-.63-.63-1.11-.63-.43,0-.71,.25-.71,.56,0,.23,.13,.35,.48,.53,.61,.3,1.72,.63,2.45,1.01,1.46,.76,2.4,2,2.4,3.59,0,2.35-1.92,4.04-4.47,4.04-2.17,0-3.59-1.16-4.52-2.93Z"/><path class="cls-1" d="M53.59,17.45l2.75-1.44c.48,.81,1.14,1.11,1.72,1.11,.68,0,1.14-.28,1.14-.76,0-.33-.2-.63-.96-1.01-.76-.38-1.49-.63-2.22-1.01-1.26-.66-2.15-1.64-2.15-3.13,0-2.22,1.57-3.69,4.07-3.69,2.02,0,3.38,1.44,3.81,2.3l-2.68,1.46c-.25-.4-.63-.63-1.11-.63-.43,0-.71,.25-.71,.56,0,.23,.13,.35,.48,.53,.61,.3,1.72,.63,2.45,1.01,1.46,.76,2.4,2,2.4,3.59,0,2.35-1.92,4.04-4.47,4.04-2.17,0-3.59-1.16-4.52-2.93Z"/><path class="cls-1" d="M93.92,.76v3.28h-8.56v4.8h7.42v3.28h-7.42v8.08h-3.59V.76h12.15Z"/><path class="cls-1" d="M105.1,3.26c0,1.16-.96,2.12-2.12,2.12s-2.12-.96-2.12-2.12,.96-2.12,2.12-2.12,2.12,.96,2.12,2.12Zm-.48,4.45v12.5h-3.28V7.7h3.28Z"/><path class="cls-1" d="M116.1,0V20.2h-3.28V0h3.28Z"/><path class="cls-1" d="M125.44,10.86h-2.17v-3.13h2.17V3.18h3.28V7.73h2.17v3.13h-2.17v9.34h-3.28V10.86Z"/><path class="cls-1" d="M137.13,13.96c0-3.61,2.8-6.44,6.41-6.44,4.12,0,6.41,3.08,6.41,7.73h-9.19c.46,1.16,1.39,1.87,2.8,1.89,.98,.03,1.87-.35,2.42-.96l2.35,2.3c-1.36,1.31-3.16,1.89-4.8,1.89-3.56,0-6.41-2.85-6.41-6.41Zm9.32-1.29c-.38-1.19-1.57-1.94-2.98-1.94-1.34,.03-2.45,.78-2.83,1.94h5.81Z"/><path class="cls-1" d="M157.23,7.73h3.28v1.36c.71-1.24,1.92-1.57,2.83-1.57,.96,0,1.67,.25,2.47,.66l-1.24,3.11c-.43-.25-.93-.43-1.46-.43-1.36,0-2.6,.73-2.6,2.53v6.82h-3.28V7.73Z"/><path class="cls-1" d="M170.65,22.78v-1.01c.88-.1,1.59-.66,1.87-1.41-.13,.03-.25,.03-.38,.03-1.14,0-2.07-.96-2.07-2.07s.93-2.07,2.07-2.07,2.07,.93,2.07,2.07c0,2.52-1.54,4.22-3.56,4.47Z"/><path class="cls-1" d="M201.88,16.19l-6.72-9.5v13.51h-3.54V.76h3.61l6.64,9.37,6.62-9.37h3.64V20.2h-3.54V6.77l-6.72,9.42Z"/><path class="cls-1" d="M219.91,13.94c0-3.54,2.85-6.41,6.41-6.41s6.44,2.88,6.44,6.41-2.88,6.44-6.44,6.44-6.41-2.88-6.41-6.44Zm9.57,0c0-1.72-1.41-3.13-3.16-3.13s-3.13,1.41-3.13,3.13,1.39,3.16,3.13,3.16,3.16-1.41,3.16-3.16Z"/><path class="cls-1" d="M240.1,7.73h3.28v1.36c.71-1.24,1.92-1.57,2.83-1.57,.96,0,1.67,.25,2.47,.66l-1.24,3.11c-.43-.25-.93-.43-1.46-.43-1.36,0-2.6,.73-2.6,2.53v6.82h-3.28V7.73Z"/><path class="cls-1" d="M254.04,13.96c0-3.61,2.8-6.44,6.41-6.44,4.12,0,6.41,3.08,6.41,7.73h-9.19c.46,1.16,1.39,1.87,2.8,1.89,.98,.03,1.87-.35,2.42-.96l2.35,2.3c-1.36,1.31-3.16,1.89-4.8,1.89-3.56,0-6.41-2.85-6.41-6.41Zm9.32-1.29c-.38-1.19-1.57-1.94-2.98-1.94-1.34,.03-2.45,.78-2.83,1.94h5.81Z"/><path class="cls-1" d="M296.31,16.19l-6.72-9.5v13.51h-3.54V.76h3.61l6.64,9.37,6.62-9.37h3.64V20.2h-3.54V6.77l-6.72,9.42Z"/><path class="cls-1" d="M314.9,14.72V7.7h3.28v7.02c0,1.39,1.19,2.37,2.58,2.37s2.58-.98,2.58-2.37V7.7h3.28v7.02c0,3.23-2.63,5.66-5.86,5.66s-5.86-2.42-5.86-5.66Z"/><path class="cls-1" d="M333.78,17.45l2.75-1.44c.48,.81,1.14,1.11,1.72,1.11,.68,0,1.14-.28,1.14-.76,0-.33-.2-.63-.96-1.01-.76-.38-1.49-.63-2.22-1.01-1.26-.66-2.15-1.64-2.15-3.13,0-2.22,1.57-3.69,4.07-3.69,2.02,0,3.38,1.44,3.81,2.3l-2.68,1.46c-.25-.4-.63-.63-1.11-.63-.43,0-.71,.25-.71,.56,0,.23,.13,.35,.48,.53,.61,.3,1.72,.63,2.45,1.01,1.46,.76,2.4,2,2.4,3.59,0,2.35-1.92,4.04-4.47,4.04-2.17,0-3.59-1.16-4.52-2.93Z"/><path class="cls-1" d="M353.93,3.26c0,1.16-.96,2.12-2.12,2.12s-2.12-.96-2.12-2.12,.96-2.12,2.12-2.12,2.12,.96,2.12,2.12Zm-.48,4.45v12.5h-3.28V7.7h3.28Z"/><path class="cls-1" d="M360.89,13.94c0-3.54,2.85-6.41,6.46-6.41,1.79,0,3.43,.73,4.6,1.89l-2.27,2.32c-.58-.58-1.41-.93-2.3-.93-1.79,0-3.21,1.41-3.21,3.13s1.41,3.13,3.21,3.13c.88,0,1.72-.35,2.3-.93l2.27,2.32c-1.16,1.16-2.75,1.89-4.55,1.89-3.61,0-6.51-2.88-6.51-6.41Z"/><path class="cls-1" d="M378.91,18.31c0-1.14,.93-2.07,2.07-2.07s2.07,.93,2.07,2.07-.93,2.07-2.07,2.07-2.07-.93-2.07-2.07Z"/></g></g></svg>