<?xml version="1.0" encoding="utf-8"?>
<!-- Generator: Adobe Illustrator 19.2.1, SVG Export Plug-In . SVG Version: 6.00 Build 0)  -->
<svg version="1.1" id="healthy" xmlns="http://www.w3.org/2000/svg" xmlns:xlink="http://www.w3.org/1999/xlink" x="0px" y="0px"
	 viewBox="0 0 64 59" style="enable-background:new 0 0 64 59;" xml:space="preserve">
<style type="text/css">
	.st0{fill:#1A1A1A;}
</style>
<g>
	<path class="st0" d="M59.4,36H5.2c-0.6,0-1.2,0.3-1.6,0.8c-0.4,0.5-0.5,1.1-0.4,1.7C4.9,46.4,8.7,53.5,14,58.5
		c0.4,0.4,0.9,0.6,1.4,0.6h33.8c0.5,0,1-0.2,1.4-0.6c4-3.8,7.2-8.8,9.2-14.5c0.4-1.1-0.2-2.2-1.2-2.6c-1.1-0.4-2.2,0.2-2.6,1.2
		c-1.7,4.8-4.3,9-7.6,12.3H16.3c-3.9-3.9-6.8-9.1-8.4-14.9h51.5c1.1,0,2-0.9,2-2S60.5,36,59.4,36z"/>
	<path class="st0" d="M10.6,20.5c-1.2,0-2.1,0.8-2.2,1.9c-0.1,1.1,0.8,2.1,1.9,2.2c5.1,0.4,9.2,3.5,10.8,8.3
		c0.3,0.8,1.1,1.4,1.9,1.4c0.2,0,0.4,0,0.7-0.1c1.1-0.4,1.6-1.5,1.3-2.6C22.7,25.1,17.4,21,10.6,20.5z"/>
	<path class="st0" d="M7.2,34.7c1.5-0.1,2.7-0.6,3.8-1c1.8-0.7,3-1.2,5-0.1c1,0.5,2.2,0.1,2.7-1c0.5-1,0.1-2.2-1-2.7
		c-3.7-1.8-6.2-0.8-8.3,0c-0.9,0.4-1.7,0.7-2.6,0.8c-0.5,0.1-1.2,0-1.4-0.9c-0.1-0.6,0.1-1.7,1.3-2c0.8-0.2,1.4-0.9,1.5-1.8
		c0.1-0.8-0.4-1.7-1.1-2c-1.9-0.9-3-2.2-3-3.6c0-1,0.6-1.8,1.4-2.3c1-0.5,2.1-0.3,3.2,0.6c0.7,0.5,1.6,0.6,2.4,0.1
		c0.7-0.5,1.1-1.3,0.9-2.2c-0.2-1,0.1-2.2,0.7-2.8c0.2-0.1,0.7-0.6,1.9-0.2c3.2,1.1,7.1,5.5,7.9,11.5c0.2,1.1,1.2,1.9,2.3,1.7
		c1.1-0.2,1.9-1.2,1.7-2.3C25.5,16.9,20.4,11.3,16,9.7c-2.3-0.8-4.4-0.5-6,0.9c-0.9,0.8-1.6,1.9-1.9,3.2c-1.5-0.3-3-0.2-4.4,0.5
		c-2.3,1.1-3.7,3.4-3.7,6c0,2,0.9,3.9,2.6,5.4c-1.1,1.4-1.5,3.2-1.2,4.7C1.9,33,4,34.7,6.6,34.7C6.8,34.7,7,34.7,7.2,34.7z"/>
	<path class="st0" d="M61.2,23.8c1.5-2.4,2.3-5.6,2.2-9.4c0-0.9-0.7-1.7-1.6-1.9c-5.2-1.2-9.5-0.5-12.7,2c-5,3.9-5.2,10.8-5.2,11.1
		c0,1.1,0.9,2.1,2,2.1c0,0,0,0,0,0c1.1,0,2-0.9,2-2c0-0.1,0.2-5.3,3.6-7.9c1.9-1.5,4.4-2,7.7-1.5c-0.1,2.9-0.9,5.1-2.3,6.6
		c-1.9,2-4.7,2.4-6.2,2.4c-1.1,0-2,1-2,2.1c0,1.1,0.9,2,2,2c0,0,0,0,0,0c1.8,0,4.9-0.5,7.6-2.4c0.5,0.5,0.9,1,1.1,1.5
		C53,33.4,46,29.2,45.7,29c-1-0.6-2.2-0.3-2.8,0.7c-0.6,1-0.3,2.2,0.7,2.8c1.9,1.2,5.1,2.4,8.8,2.4c3.5,0,7.5-1.1,11-4.5
		c0.5-0.5,0.8-1.3,0.6-2C63.9,28.3,63.2,25.9,61.2,23.8z"/>
	<path class="st0" d="M39,16.2c0.3,0.1,0.7,0.2,1.1,0.2c0.7,0,1.4-0.3,2-0.8c0.5-0.5,0.8-1.2,0.8-2c0-0.4-0.1-0.7-0.2-1.1
		c-0.2-0.3-0.4-0.6-0.6-0.9c-0.8-0.8-2-1-3-0.6c-0.3,0.2-0.7,0.4-0.9,0.6c-0.2,0.2-0.4,0.6-0.6,0.9c-0.1,0.4-0.2,0.7-0.2,1.1
		c0,0.7,0.3,1.5,0.8,2C38.3,15.9,38.7,16.1,39,16.2z"/>
	<path class="st0" d="M35.4,17.3c-0.2,0.2-0.5,0.5-0.6,0.9c-0.2,0.3-0.2,0.7-0.2,1.1c0,0.4,0.1,0.7,0.2,1.1c0.1,0.3,0.3,0.6,0.6,0.9
		c0.3,0.2,0.6,0.4,0.9,0.6c0.4,0.1,0.7,0.2,1.1,0.2c0.8,0,1.5-0.3,2-0.8c0.5-0.5,0.8-1.2,0.8-2c0-0.4,0-0.7-0.2-1.1
		c-0.1-0.4-0.3-0.7-0.6-0.9c-0.3-0.3-0.6-0.5-0.9-0.6c-0.7-0.3-1.5-0.3-2.2,0C35.9,16.8,35.7,17.1,35.4,17.3z"/>
	<path class="st0" d="M38.6,26.7c0.2,0.2,0.5,0.5,0.9,0.6c0.3,0.1,0.7,0.2,1.1,0.2c0.4,0,0.7-0.1,1.1-0.2c0.3-0.2,0.6-0.4,0.9-0.6
		c0.2-0.3,0.5-0.6,0.6-0.9c0.2-0.4,0.2-0.7,0.2-1.1s-0.1-0.7-0.2-1.1c-0.1-0.4-0.3-0.7-0.6-0.9c-0.3-0.3-0.6-0.5-0.9-0.6
		c-0.7-0.3-1.5-0.3-2.1,0c-0.4,0.1-0.7,0.3-0.9,0.6c-0.3,0.2-0.5,0.5-0.6,0.9c-0.2,0.3-0.2,0.7-0.2,1.1s0,0.7,0.2,1.1
		C38.1,26.1,38.3,26.4,38.6,26.7z"/>
	<path class="st0" d="M21.4,11.1c1.1,0.2,2.2-0.6,2.3-1.7c0,0,0.5-2.9,2.1-5.1c2.3,0.8,4.7,3,5.9,5.3c-0.8,1.1-1.6,2.2-2.1,3.4
		C28.8,11,29,9.2,29,9c0.2-1.1-0.6-2.2-1.7-2.4c-1.1-0.2-2.2,0.6-2.4,1.7c0,0.2-0.8,5.7,3.3,9.9c0,0.1,0,0.2,0,0.3
		c-0.5,6.8,3.3,12.8,9.9,15.6c0.3,0.1,0.5,0.2,0.8,0.2c0.8,0,1.6-0.5,1.9-1.3c0.4-1-0.1-2.2-1.1-2.7c-5-2.1-7.8-6.5-7.4-11.5
		c0.4-5.4,4.3-9.9,10.1-12l1.2,7.7c0.2,1.1,1.3,1.9,2.3,1.7c1.1-0.2,1.9-1.2,1.7-2.3l-1.6-10c-0.1-0.6-0.4-1.1-0.9-1.4
		c-0.5-0.3-1.1-0.4-1.6-0.3c-3.5,0.8-6.5,2.4-8.9,4.4c-2.2-3.3-5.8-6-9.2-6.5c-0.7-0.1-1.3,0.1-1.8,0.6c-3.2,3.1-4,8-4,8.2
		C19.5,9.9,20.3,11,21.4,11.1z"/>
	<path class="st0" d="M29.9,29c-1-0.4-2.2-0.2-3,0.6c-0.3,0.2-0.5,0.6-0.6,0.9c-0.1,0.3-0.2,0.7-0.2,1.1c0,0.4,0.1,0.7,0.2,1.1
		c0.1,0.3,0.3,0.7,0.6,0.9c0.5,0.5,1.2,0.8,2,0.8c0.7,0,1.4-0.3,2-0.8c0.5-0.5,0.8-1.2,0.8-2c0-0.4-0.1-0.7-0.2-1.1
		c-0.2-0.3-0.4-0.7-0.6-0.9C30.5,29.4,30.2,29.1,29.9,29z"/>
</g>
</svg>
