<?xml version="1.0" encoding="utf-8"?>
<!-- Generator: Adobe Illustrator 19.2.1, SVG Export Plug-In . SVG Version: 6.00 Build 0)  -->
<svg version="1.1" id="restaurant" xmlns="http://www.w3.org/2000/svg" xmlns:xlink="http://www.w3.org/1999/xlink" x="0px" y="0px"
	 viewBox="0 0 50 50" style="enable-background:new 0 0 50 50;" xml:space="preserve">
<style type="text/css">
	.st0{fill:#191919;}
</style>
<g>
	<path class="st0" d="M8.5,17.9h33.1c0.8,0,1.4-0.6,1.4-1.4c0-0.8-0.6-1.4-1.4-1.4H8.5C7.7,15,7,15.7,7,16.4
		C7,17.2,7.7,17.9,8.5,17.9z"/>
	<path class="st0" d="M45.9,28.8h-3.7V20c0-0.8-0.6-1.4-1.4-1.4s-1.4,0.6-1.4,1.4v26.1h-8.2v-5.7c0-3.4-2.7-6.1-6.1-6.1
		c-3.4,0-6.1,2.7-6.1,6.1v5.7h-8.2V20c0-0.8-0.6-1.4-1.4-1.4S7.8,19.2,7.8,20v8.8H4.1c-0.8,0-1.4,0.6-1.4,1.4v17.3
		c0,0.8,0.6,1.4,1.4,1.4h1.4C6.3,49,7,48.4,7,47.6c0-0.8-0.6-1.4-1.4-1.4V31.7h2.3v15.9c0,0.8,0.6,1.4,1.4,1.4h16.9
		c0.8,0,1.4-0.6,1.4-1.4s-0.6-1.4-1.4-1.4h-4.3v-5.7c0-1.8,1.4-3.2,3.2-3.2s3.2,1.4,3.2,3.2v7.1c0,0.8,0.6,1.4,1.4,1.4h11.1
		c0.8,0,1.4-0.6,1.4-1.4V31.7h2.3v14.4c-0.8,0-1.4,0.7-1.4,1.4c0,0.8,0.6,1.4,1.4,1.4h1.4c0.8,0,1.4-0.6,1.4-1.4V30.3
		C47.3,29.5,46.7,28.8,45.9,28.8z"/>
	<path class="st0" d="M37.9,25.6c0-3.4-2.7-6.1-6.1-6.1s-6.1,2.7-6.1,6.1v2.9c0,0.8,0.6,1.4,1.4,1.4c0.8,0,1.4-0.6,1.4-1.4v-2.9
		c0-1.8,1.4-3.2,3.2-3.2c1.8,0,3.2,1.4,3.2,3.2v2.9c0,0.8,0.6,1.4,1.4,1.4s1.4-0.6,1.4-1.4V25.6z"/>
	<path class="st0" d="M36.5,30.6h-9.3c-0.8,0-1.4,0.6-1.4,1.4c0,0.8,0.6,1.4,1.4,1.4h9.3c0.8,0,1.4-0.6,1.4-1.4
		C37.9,31.2,37.3,30.6,36.5,30.6z"/>
	<path class="st0" d="M24.3,25.6c0-3.4-2.7-6.1-6.1-6.1c-3.4,0-6.1,2.7-6.1,6.1v2.9c0,0.8,0.6,1.4,1.4,1.4c0.8,0,1.4-0.6,1.4-1.4
		v-2.9c0-1.8,1.4-3.2,3.2-3.2c1.8,0,3.2,1.4,3.2,3.2v2.9c0,0.8,0.6,1.4,1.4,1.4c0.8,0,1.4-0.6,1.4-1.4V25.6z"/>
	<path class="st0" d="M22.8,30.6h-9.3c-0.8,0-1.4,0.6-1.4,1.4c0,0.8,0.6,1.4,1.4,1.4h9.3c0.8,0,1.4-0.6,1.4-1.4
		C24.3,31.2,23.6,30.6,22.8,30.6z"/>
	<path class="st0" d="M25,14.7c0.8,0,1.4-0.6,1.4-1.4v-2.1h2.1c0.8,0,1.4-0.6,1.4-1.4c0-0.8-0.6-1.4-1.4-1.4h-2.1V6.1
		c0-0.8-0.6-1.4-1.4-1.4s-1.4,0.6-1.4,1.4v2.1h-2.1c-0.8,0-1.4,0.6-1.4,1.4c0,0.8,0.6,1.4,1.4,1.4h2.1v2.1
		C23.6,14,24.2,14.7,25,14.7z"/>
	<path class="st0" d="M16,14.7c0.8,0,1.4-0.6,1.4-1.4V3.9h15.1v9.4c0,0.8,0.6,1.4,1.4,1.4s1.4-0.6,1.4-1.4V2.4C35.4,1.6,34.7,1,34,1
		H16c-0.8,0-1.4,0.6-1.4,1.4v10.8C14.6,14,15.3,14.7,16,14.7z"/>
</g>
</svg>
