<?xml version="1.0" encoding="utf-8"?>
<!-- Generator: Adobe Illustrator 19.2.1, SVG Export Plug-In . SVG Version: 6.00 Build 0)  -->
<svg version="1.1" id="Line_17" xmlns="http://www.w3.org/2000/svg" xmlns:xlink="http://www.w3.org/1999/xlink" x="0px" y="0px"
	 viewBox="0 0 34 34" style="enable-background:new 0 0 34 34;" xml:space="preserve">
<style type="text/css">
	.st0{fill:#E62428;}
</style>
<g id="_x35__5_">
	<g>
		<path class="st0" d="M32.8,0h-8.5c-0.7,0-1.2,0.6-1.2,1.2s0.5,1.2,1.2,1.2l5.3,0L11.3,19.9c-0.5,0.5-0.5,1.2,0,1.7
			c0.5,0.5,1.3,0.5,1.8,0L31.5,3.9l0,5.8c0,0.7,0.5,1.2,1.2,1.2S34,10.4,34,9.7V1.2C34,0.5,33.4,0,32.8,0z M31.6,29.1
			c0,1.3-1.1,2.4-2.4,2.4l-24.4,0c-1.3,0-2.4-1.1-2.4-2.4l0-24.4c0-1.3,1.1-2.4,2.4-2.4h13.4V0H4.9C2.2,0,0,2.7,0,5.3v23.9
			C0,31.9,2.1,34,4.8,34h23.9c2.6,0,5.3-2.2,5.3-4.9V15.8h-2.4V29.1z"/>
	</g>
</g>
</svg>
