<?xml version="1.0" encoding="utf-8"?>
<!-- Generator: Adobe Illustrator 19.2.1, SVG Export Plug-In . SVG Version: 6.00 Build 0)  -->
<svg version="1.1" id="レイヤー_1" xmlns="http://www.w3.org/2000/svg" xmlns:xlink="http://www.w3.org/1999/xlink" x="0px"
	 y="0px" viewBox="0 0 50 50" style="enable-background:new 0 0 50 50;" xml:space="preserve">
<style type="text/css">
	.st0{fill:#191919;}
</style>
<g id="restaurant">
</g>
<path class="st0" d="M25,1C11.8,1,1,11.8,1,25s10.8,24,24,24s24-10.8,24-24S38.2,1,25,1z M25,45.9C13.5,45.9,4.1,36.5,4.1,25
	S13.5,4.1,25,4.1S45.9,13.5,45.9,25S36.5,45.9,25,45.9z"/>
<path class="st0" d="M27.7,23.5l6.5-8.2c0.2-0.3,0.2-0.5,0.2-0.7c0-1.1-0.8-1.6-1.5-1.6c-0.5,0-0.7,0.2-1.1,0.7l-6.2,7.7
	c-0.2,0.2-0.5,0.6-0.6,0.7c-0.1-0.1-0.4-0.4-0.5-0.6l-6.3-7.8l-0.1-0.1c-0.2-0.3-0.5-0.6-1.1-0.6c-0.7,0-1.5,0.6-1.5,1.5
	c0,0.2,0.1,0.6,0.2,0.8l6.5,8.3c0.6,0.8,0.9,1,1.2,1.2v1h-6.3c-0.6,0-1.2,0.4-1.2,1.3c0,0.8,0.5,1.3,1.2,1.3h6.3v2.1h-6.3
	c-0.6,0-1.2,0.4-1.2,1.3c0,0.8,0.5,1.3,1.2,1.3h6.3v4.6c0,0.7,0.4,1.4,1.4,1.4c0.7,0,1.4-0.4,1.4-1.4V33h6.3c0.6,0,1.2-0.4,1.2-1.3
	c0-0.8-0.6-1.3-1.2-1.3h-6.3v-2.1h6.3c0.6,0,1.2-0.4,1.2-1.3c0-0.8-0.6-1.3-1.2-1.3h-6.3v-1C26.9,24.5,27.1,24.2,27.7,23.5z"/>
</svg>
