<?xml version="1.0" encoding="utf-8"?>
<!-- Generator: Adobe Illustrator 19.2.1, SVG Export Plug-In . SVG Version: 6.00 Build 0)  -->
<svg version="1.1" id="レイヤー_1" xmlns="http://www.w3.org/2000/svg" xmlns:xlink="http://www.w3.org/1999/xlink" x="0px"
	 y="0px" viewBox="0 0 160 160" style="enable-background:new 0 0 160 160;" xml:space="preserve">
<style type="text/css">
	.st0{fill:#1A1A1A;}
</style>
<g>
	<path class="st0" d="M94.2,46.6c0,7.5-9.1,14.7-14.2,14.7c-5.1,0-14.2-6.6-14.2-14.7c0-10.6,11.9-22,14.2-30.5
		C82.4,24.7,94.2,35.7,94.2,46.6z"/>
	<path class="st0" d="M94.2,121.2c0,9.4-9.5,17.7-14.2,17.7c-4.7,0-14.2-7.2-14.2-17.7c0-12.5,14.2-27.5,14.2-27.5
		S94.2,108.7,94.2,121.2z"/>
	<path class="st0" d="M113.5,79.7c-1.4-2.6-3.3-4.7-5.7-6.3c-2.4-1.6-5-2.3-7.8-2.3c-3.9,0-7.3,1.3-10.2,4c-2.9-2.6-6.2-4-9.8-4
		s-6.8,1.3-9.8,4c-2.9-2.6-6.4-4-10.2-4c-2.8,0-5.4,0.8-7.8,2.3c-2.4,1.5-4.3,3.6-5.7,6.3c-0.2,0.5-0.3,1-0.3,1.5
		c-0.1,0.5,0,1.1,0.3,1.7c0.3,1.2,1.1,2.1,2.3,2.6c0.9,0.3,2,0.3,3.3,0c1.2-0.3,2-1,2.3-2.1c1.2-2.3,3.1-3.5,5.6-3.5
		c2.9,0,4.9,1.2,5.8,3.5C66.6,85.1,68,86,70,86h0.5c0.8,0,1.5-0.2,2.3-0.7c0.8-0.5,1.3-1.1,1.6-1.9c1.2-2.3,3.1-3.5,5.6-3.5
		c2.5,0,4.3,1.2,5.6,3.5c0.3,0.8,0.8,1.4,1.6,1.9c0.8,0.5,1.5,0.7,2.3,0.7H90c2,0,3.4-0.9,4.2-2.6c0.9-2.3,2.9-3.5,5.8-3.5
		c2.5,0,4.3,1.2,5.6,3.5c0.3,1.1,1.1,1.8,2.3,2.1c1.2,0.3,2.3,0.3,3.3,0c1.2-0.5,2-1.3,2.3-2.6c0.3-0.6,0.4-1.2,0.3-1.7
		C113.7,80.7,113.6,80.2,113.5,79.7z"/>
	<path class="st0" d="M80,160c-44.1,0-80-35.9-80-80C0,35.9,35.9,0,80,0c44.1,0,80,35.9,80,80C160,124.1,124.1,160,80,160z M80,8.9
		C40.8,8.9,8.8,40.8,8.8,80c0,39.2,31.9,71.2,71.2,71.2c39.2,0,71.1-31.9,71.1-71.2C151.2,40.8,119.2,8.9,80,8.9z"/>
</g>
</svg>
