<?xml version="1.0" encoding="utf-8"?>
<!-- Generator: Adobe Illustrator 19.2.1, SVG Export Plug-In . SVG Version: 6.00 Build 0)  -->
<svg version="1.1" xmlns="http://www.w3.org/2000/svg" xmlns:xlink="http://www.w3.org/1999/xlink" x="0px" y="0px"
	 viewBox="0 0 980 429.5" style="enable-background:new 0 0 980 429.5;" xml:space="preserve">
<style type="text/css">
	.st0{fill:#1A1A1A;}
	.st1{fill:#E62428;}
</style>
<g id="レイヤー_2">
</g>
<g id="レイヤー_1">
	<path class="st0" d="M98.4,54.9c-1.8-14.6-12.3-23.9-28.3-23.9C48.8,30.9,36,47.1,36,75c0,29,13.1,44,33.9,44
		c15.5,0,26-8.3,28.5-22.4l35.6,0.2c-2.6,25.9-24.8,53.1-64.8,53.1C29.6,149.9,0,123,0,75C0,26.7,30.3,0,69.2,0
		c35.3,0,61.3,20,64.8,54.9H98.4z"/>
	<path class="st0" d="M154.1,2h60.3c32.8,0,53.2,18.6,53.2,48.6c0,20.2-9.3,34.5-25.3,41.8l30.3,55.6h-38.5l-26.7-50h-18.1v50h-35.3
		V2z M206.8,70.2c15.8,0,24.3-6.1,24.3-19.6s-8.5-20.2-24.3-20.2h-17.4v39.8H206.8z"/>
	<path class="st0" d="M322.3,147.9H287V2h35.3V147.9z"/>
	<path class="st0" d="M401,29.1c-13.7,0-20.5,5.8-20.6,13.8c-0.3,8.7,8.1,13.1,21.4,16l12.5,2.9c28.8,6.3,44.5,20.6,44.7,43.9
		c-0.1,27.7-21.7,44.2-58,44.2c-36.7,0-60.4-16.3-60.9-50.5h33.8c0.8,14,11,21.3,26.7,21.3c14.2,0,22.5-6.2,22.7-15.1
		c-0.1-8.2-7.3-12.5-23.4-16.2l-15.3-3.6c-25.2-5.8-40.8-18.2-40.7-40.4C343.7,18.2,367.7,0,401.1,0C435,0,456.7,18.5,457,45.7
		h-33.8C422.3,35.3,414.8,29.1,401,29.1z"/>
	<path class="st0" d="M476.9,2h60.3c32.8,0,53.2,20.5,53.2,50.5c0,30.3-20.9,50.1-54.3,50.1h-23.9v45.3h-35.3V2z M529.6,74.8
		c15.8,0,24.3-8.8,24.3-22.3c0-13.5-8.5-22.1-24.3-22.1h-17.4v44.4H529.6z"/>
	<path class="st1" d="M98.4,235.5c-1.8-14.6-12.3-23.9-28.3-23.9c-21.3,0-34.1,16.2-34.1,44c0,29,13.1,44,33.9,44
		c15.5,0,26-8.3,28.5-22.4l35.6,0.2c-2.6,25.9-24.8,53.1-64.8,53.1c-39.6,0-69.2-26.9-69.2-75c0-48.2,30.3-75,69.2-75
		c35.3,0,61.3,20,64.8,54.9H98.4z"/>
	<path class="st1" d="M218.2,330.5c-39.3,0-69.6-26.9-69.6-75c0-48.2,30.3-75,69.6-75c39.2,0,69.7,26.7,69.7,75
		S257.4,330.5,218.2,330.5z M218.2,211.5c-21,0-33.6,15.5-33.6,44s12.6,44,33.6,44c21.1,0,33.6-15.5,33.6-44
		S239.3,211.5,218.2,211.5z"/>
	<path class="st1" d="M428.6,328.5h-29.9l-58.1-84.2h-0.9v84.2h-35.3V182.6h30.4l57.4,84.1h1.2v-84.1h35.2V328.5z"/>
	<path class="st1" d="M574.9,328.5H545l-58.1-84.2H486v84.2h-35.3V182.6h30.4l57.4,84.1h1.2v-84.1h35.2V328.5z"/>
	<path class="st1" d="M593,182.6h101.8v28.6h-66.5v29.9h61.3v28.7h-61.3v30h66.5v28.6H593V182.6z"/>
	<path class="st1" d="M809.7,235.5c-1.8-14.6-12.3-23.9-28.3-23.9c-21.3,0-34.1,16.2-34.1,44c0,29,13.1,44,33.9,44
		c15.5,0,26-8.3,28.5-22.4l35.6,0.2c-2.6,25.9-24.8,53.1-64.8,53.1c-39.6,0-69.2-26.9-69.2-75c0-48.2,30.3-75,69.2-75
		c35.3,0,61.3,20,64.8,54.9H809.7z"/>
	<path class="st1" d="M856.7,182.6H980v28.6h-44.3v117.3H901V211.3h-44.3V182.6z"/>
	<path class="st0" d="M7.6,384.4H15v13.3h0.2c1-2.2,3.1-4.8,7.5-4.8c5.8,0,10.7,4.5,10.7,13.6c0,8.8-4.7,13.6-10.7,13.6
		c-4.3,0-6.5-2.5-7.5-4.7h-0.3v4.2H7.6V384.4z M20.4,414.3c3.6,0,5.6-3.2,5.6-7.8c0-4.6-1.9-7.7-5.6-7.7c-3.6,0-5.6,3-5.6,7.7
		S16.9,414.3,20.4,414.3z"/>
	<path class="st0" d="M38.2,428.8l1.7-5.5c2.6,0.8,4.4,0.6,5.4-1.8l0.4-1.1l-9.5-27.2h7.7l5.5,19.4h0.3l5.5-19.4l7.8,0l-10.3,29.3
		c-1.5,4.2-4.4,7-9.8,7C41,429.5,39.3,429.2,38.2,428.8z"/>
	<g>
		<path class="st0" d="M112.4,375.9c-7.4,0-13.5,2.8-18.2,8.3c-3.8,4.5-5.7,9.7-5.7,15.4c0,6.4,2.3,12,6.8,16.5
			c4.6,4.5,10.1,6.8,16.6,6.8c4.3,0,8.4-1.1,12.3-3.3l0.5-0.3v-10.8l-1.7,1.5c-1,0.9-2,1.6-2.9,2.2c-0.9,0.6-1.8,1.1-2.7,1.4
			c-1.5,0.7-3.3,1-5.4,1c-4.2,0-7.6-1.4-10.5-4.4c-2.9-2.9-4.3-6.5-4.3-10.7c0-4.4,1.4-7.9,4.3-10.9c2.9-3,6.3-4.5,10.5-4.5
			c3.8,0,7.5,1.5,11,4.5l1.7,1.4v-10.6l-0.5-0.3C120.4,377,116.4,375.9,112.4,375.9z"/>
		<path class="st0" d="M155.4,399c1.9-2.4,2.9-5.3,2.9-8.6c0-4.2-1.5-7.7-4.6-10.3c-2.7-2.3-7.1-3.5-13.1-3.5h-8.7v45.4h8.6V405
			l11.9,17.1h10.6l-13.7-18.9C151.8,402.4,153.8,401,155.4,399z M149.8,390.6c0,2.6-0.9,6-8.2,6h-1V385h1.3
			C149,385,149.8,388.2,149.8,390.6z"/>
		<rect x="166.7" y="376.7" class="st0" width="8.6" height="45.4"/>
		<path class="st0" d="M200.5,394.3l-4.3-1.8c-2.7-1.1-4.1-2.5-4.1-4.1c0-1.2,0.5-2.2,1.4-3c1-0.9,2.3-1.3,3.8-1.3
			c1.3,0,2.3,0.2,3.1,0.8c0.5,0.3,1.3,1,2.4,3l0.5,0.9l7.1-4.2l-0.5-0.9c-3-5.2-7.2-7.8-12.6-7.8c-3.9,0-7.3,1.2-10,3.6
			c-2.7,2.4-4.1,5.4-4.1,8.9c0,5.3,3.2,9.3,9.5,11.9l4.2,1.7c1,0.4,1.9,0.9,2.6,1.4c0.7,0.5,1.3,0.9,1.7,1.4c0.4,0.5,0.7,1,0.9,1.6
			c0.2,0.6,0.3,1.3,0.3,2c0,1.8-0.6,3.3-1.7,4.4c-1.1,1.2-2.6,1.7-4.3,1.7c-2.2,0-3.9-0.8-5.1-2.4c-0.4-0.6-1-1.8-1.4-4.7l-0.1-1.2
			l-8.7,1.9l0.1,1c0.6,4.3,2.3,7.6,4.8,10c2.6,2.4,6,3.6,10,3.6c4.2,0,7.8-1.4,10.7-4.2c2.8-2.8,4.3-6.4,4.3-10.6
			c0-3.2-0.9-6-2.7-8.2C206.8,397.7,204.1,395.8,200.5,394.3z"/>
		<path class="st0" d="M240.1,380.6c-1.5-1.5-3.4-2.6-5.4-3.1c-2-0.5-4.7-0.8-8.5-0.8h-8.4v45.4h8.6v-17.6h2c4.7,0,8.6-1.3,11.4-3.7
			c2.9-2.5,4.3-5.9,4.3-10.2C244.1,386.6,242.7,383.3,240.1,380.6z M235.7,390.5c0,2.5-0.8,5.9-7.9,5.9h-1.4v-11.5h1.1
			C234.9,384.8,235.7,388.1,235.7,390.5z"/>
	</g>
	<path class="st0" d="M259,409.9c0.6,3.3,2,5.9,4,7.8c2.3,2.1,5.1,3.1,8.6,3.1c3.7,0,6.7-1.2,9.2-3.6c2.5-2.4,3.7-5.4,3.7-9.1
		c0-2.7-0.7-5-2.2-6.9c-1.5-1.9-4-3.5-7.3-4.9l-4.3-1.8c-3.6-1.5-5.4-3.5-5.4-6.1c0-1.8,0.7-3.4,2.2-4.6c1.4-1.2,3.1-1.8,5.2-1.8
		c1.7,0,3.1,0.4,4.2,1.1c0.9,0.5,1.7,1.4,2.6,2.8l3.5-2.1c-2.6-3.9-5.9-5.8-10.2-5.8c-3.5,0-6.3,1-8.6,3c-2.3,2-3.4,4.4-3.4,7.4
		c0,4.4,2.7,7.7,8.2,10l4.2,1.7c1.1,0.5,2.1,1,3,1.6c0.9,0.6,1.6,1.2,2.1,1.9c0.6,0.7,1,1.5,1.3,2.3c0.3,0.8,0.4,1.7,0.4,2.6
		c0,2.4-0.8,4.4-2.3,5.9c-1.5,1.6-3.5,2.4-5.8,2.4c-2.9,0-5.2-1.1-6.7-3.2c-0.7-0.9-1.3-2.5-1.6-4.6L259,409.9z"/>
	<polygon class="st0" points="329.2,420 346.3,420 346.3,415.9 333.6,415.9 333.6,378.8 329.2,378.8 	"/>
	<path class="st0" d="M369.5,377.6L349.7,420h4.7l4.8-10.5h19.9l4.5,10.5h4.8L369.5,377.6z M361,405.4l8.4-18.3l8,18.3H361z"/>
	<path class="st0" d="M417.7,384.1c-2.1-1.9-4.4-3.3-7-4.1c-2.4-0.8-5.8-1.2-10-1.2h-8V420h7.9c4.3,0,7.6-0.4,9.8-1.1
		c2.4-0.8,4.8-2.1,7-4.1c4.4-3.9,6.6-9,6.6-15.3C424,393.1,421.9,388,417.7,384.1z M414.4,411.6c-1.7,1.5-3.6,2.6-5.6,3.3
		c-2.1,0.7-4.6,1-7.6,1h-4v-33.1h4c5.8,0,10.3,1.4,13.3,4.2c3.4,3.1,5.1,7.3,5.1,12.3C419.5,404.4,417.8,408.5,414.4,411.6z"/>
	<path class="st0" d="M521.7,384.3c-4.2-4.2-9.3-6.3-15.1-6.3c-5.9,0-11.1,2.1-15.3,6.3c-4.2,4.1-6.4,9.2-6.4,14.9
		c0,6.6,2.3,12,7,16c4.2,3.7,9.1,5.5,14.4,5.5c6,0,11.2-2.1,15.4-6.2c4.2-4.1,6.3-9.2,6.3-15.1C528.1,393.6,525.9,388.5,521.7,384.3
		z M518.6,411.7c-3.3,3.3-7.4,5-12.2,5c-4.4,0-8.4-1.7-11.8-4.9c-3.4-3.3-5.1-7.5-5.1-12.5c0-4.8,1.7-8.9,5-12.2
		c3.3-3.3,7.4-5,12.1-5c4.8,0,8.9,1.7,12.1,5c3.3,3.3,4.9,7.4,4.9,12.3C523.6,404.2,521.9,408.4,518.6,411.7z"/>
	<path class="st0" d="M545.2,401.9l1.6-0.3c2.7-0.6,4.7-1.8,6.3-3.9c1.6-2,2.4-4.4,2.4-7.2c0-3.6-1.3-6.5-3.8-8.7
		c-2.3-2-6.3-3-11.7-3h-6.6V420h4.4v-17.7h2.8l12.4,17.7h5.4L545.2,401.9z M537.8,398.7v-15.8h3.4c8.3,0,10.1,4.2,10.1,7.7
		c0,3.7-1.8,8.1-10.3,8.1H537.8z"/>
	<polygon class="st0" points="586.2,420 592.2,420 573.3,397.3 591.8,378.8 586,378.8 567.7,397.6 567.7,378.8 563.3,378.8 
		563.3,420 567.7,420 567.7,402.7 570.2,400.2 	"/>
	<path class="st0" d="M593.1,409.9c0.6,3.3,2,5.9,4,7.8c2.3,2.1,5.1,3.1,8.6,3.1c3.7,0,6.7-1.2,9.2-3.6c2.5-2.4,3.7-5.4,3.7-9.1
		c0-2.7-0.7-5-2.2-6.9c-1.5-1.9-4-3.5-7.3-4.9l-4.3-1.8c-3.6-1.5-5.4-3.5-5.4-6.1c0-1.8,0.7-3.4,2.2-4.6c1.4-1.2,3.1-1.8,5.2-1.8
		c1.7,0,3.1,0.4,4.2,1.1c0.9,0.5,1.7,1.4,2.6,2.8l3.5-2.1c-2.6-3.9-5.9-5.8-10.2-5.8c-3.5,0-6.3,1-8.6,3c-2.3,2-3.4,4.4-3.4,7.4
		c0,4.4,2.7,7.7,8.2,10l4.2,1.7c1.1,0.5,2.1,1,3,1.6c0.9,0.6,1.6,1.2,2.1,1.9c0.6,0.7,1,1.5,1.3,2.3c0.3,0.8,0.4,1.7,0.4,2.6
		c0,2.4-0.8,4.4-2.3,5.9c-1.5,1.6-3.5,2.4-5.8,2.4c-2.9,0-5.2-1.1-6.7-3.2c-0.7-0.9-1.3-2.5-1.6-4.6L593.1,409.9z"/>
	<path class="st0" d="M468.8,422.6l18.3-43.8h-4.8L469,411.3l-7.4-17.3l6-13.1h-15.7l5.3,13.1l-7.7,17.3l-13.3-32.5h-4.8l18.3,43.8
		l9.6-23.5L468.8,422.6z M461.6,384.8l-2,4.5l-1.9-4.5H461.6z"/>
	<path class="st0" d="M306.1,377.6L286.4,420h4.7l4.8-10.5l0.2-0.5c2.8,2,6.2,3.1,9.8,3.1c3.5,0,6.9-1.1,9.7-3l0.2,0.5l4.5,10.5h4.8
		L306.1,377.6z M297.9,405l8.2-17.9l7.8,17.9C309.2,408.7,302.5,408.7,297.9,405z"/>
</g>
</svg>
