<?xml version="1.0" encoding="utf-8"?>
<!-- Generator: Adobe Illustrator 19.2.1, SVG Export Plug-In . SVG Version: 6.00 Build 0)  -->
<svg version="1.1" id="レイヤー_1" xmlns="http://www.w3.org/2000/svg" xmlns:xlink="http://www.w3.org/1999/xlink" x="0px"
	 y="0px" viewBox="0 0 782 589.5" style="enable-background:new 0 0 782 589.5;" xml:space="preserve">
<style type="text/css">
	.st0{fill:#FFFFFF;}
</style>
<g id="レイヤー_1_1_">
	<path class="st0" d="M78.5,290.5c-1.4-11.7-9.8-19.1-22.6-19.1c-17-0.1-27.2,12.8-27.2,35.1c0,23.1,10.5,35.1,27.1,35.1
		c12.4,0,20.7-6.6,22.7-17.9l28.4,0.2c-2.1,20.7-19.8,42.4-51.7,42.4C23.6,366.4,0,344.9,0,306.6c0-38.5,24.2-59.8,55.2-59.8
		c28.2,0,48.9,16,51.7,43.8H78.5V290.5z"/>
	<path class="st0" d="M123,248.3h48.1c26.2,0,42.5,14.8,42.5,38.8c0,16.1-7.4,27.5-20.2,33.4l24.2,44.4h-30.7L165.6,325h-14.4v39.9
		H123L123,248.3L123,248.3z M165,302.8c12.6,0,19.4-4.9,19.4-15.6c0-10.8-6.8-16.1-19.4-16.1h-13.9v31.8L165,302.8L165,302.8z"/>
	<path class="st0" d="M257.2,364.8H229V248.3h28.2V364.8z"/>
	<path class="st0" d="M320,270c-10.9,0-16.4,4.6-16.4,11c-0.2,6.9,6.5,10.5,17.1,12.8l10,2.3c23,5,35.5,16.4,35.7,35
		c-0.1,22.1-17.3,35.3-46.3,35.3c-29.3,0-48.2-13-48.6-40.3h27c0.6,11.2,8.8,17,21.3,17c11.3,0,18-4.9,18.1-12
		c-0.1-6.5-5.8-10-18.7-12.9l-12.2-2.9c-20.1-4.6-32.6-14.5-32.5-32.2c-0.2-21.7,19-36.2,45.6-36.2c27.1,0,44.4,14.8,44.6,36.5h-27
		C337,274.9,331,270,320,270z"/>
	<path class="st0" d="M380.5,248.3h48.1c26.2,0,42.5,16.4,42.5,40.3c0,24.2-16.7,40-43.3,40h-19.1v36.1h-28.2V248.3L380.5,248.3z
		 M422.6,306.4c12.6,0,19.4-7,19.4-17.8s-6.8-17.6-19.4-17.6h-13.9v35.4H422.6z"/>
	<path class="st0" d="M78.5,434.7c-1.4-11.7-9.8-19.1-22.6-19.1c-17,0-27.2,12.9-27.2,35.1c0,23.1,10.5,35.1,27.1,35.1
		c12.4,0,20.7-6.6,22.7-17.9l28.4,0.2c-2.1,20.7-19.8,42.4-51.7,42.4C23.6,510.5,0,489,0,450.6c0-38.5,24.2-59.8,55.2-59.8
		c28.2,0,48.9,16,51.7,43.8L78.5,434.7L78.5,434.7z"/>
	<path class="st0" d="M174.1,510.5c-31.4,0-55.5-21.5-55.5-59.8c0-38.5,24.2-59.8,55.5-59.8s55.6,21.3,55.6,59.8
		S205.4,510.5,174.1,510.5z M174.1,415.5c-16.8,0-26.8,12.4-26.8,35.1s10.1,35.1,26.8,35.1c16.8,0,26.8-12.4,26.8-35.1
		C200.9,427.9,191,415.5,174.1,415.5z"/>
	<path class="st0" d="M342,508.9h-23.9l-46.4-67.2H271v67.2h-28.2V392.4h24.3l45.8,67.1h1v-67.1H342V508.9L342,508.9z"/>
	<path class="st0" d="M458.7,508.9h-23.9l-46.4-67.2h-0.7v67.2h-28.2V392.4h24.3l45.8,67.1h1v-67.1h28.1L458.7,508.9L458.7,508.9z"
		/>
	<path class="st0" d="M473.2,392.4h81.2v22.8h-53.1v23.9h48.9V462h-48.9v24h53.1v22.8h-81.2V392.4z"/>
	<path class="st0" d="M646.1,434.7c-1.4-11.7-9.8-19.1-22.6-19.1c-17,0-27.2,12.9-27.2,35.1c0,23.1,10.5,35.1,27.1,35.1
		c12.4,0,20.7-6.6,22.7-17.9l28.4,0.2c-2.1,20.7-19.8,42.4-51.7,42.4c-31.6,0-55.2-21.5-55.2-59.8c0-38.5,24.2-59.8,55.2-59.8
		c28.2,0,48.9,16,51.7,43.8L646.1,434.7L646.1,434.7z"/>
	<path class="st0" d="M683.6,392.4H782v22.8h-35.3v93.6H719v-93.5h-35.3v-22.9H683.6z"/>
	<path class="st0" d="M6.1,553.5H12v10.6h0.2c0.8-1.8,2.5-3.8,6-3.8c4.6,0,8.5,3.6,8.5,10.9c0,7-3.8,10.9-8.5,10.9
		c-3.4,0-5.2-2-6-3.8H12v3.4H6.1V553.5z M16.3,577.3c2.9,0,4.5-2.6,4.5-6.2s-1.5-6.1-4.5-6.1c-2.9,0-4.5,2.4-4.5,6.1
		C11.8,574.9,13.5,577.3,16.3,577.3z"/>
	<path class="st0" d="M30.5,588.9l1.4-4.4c2.1,0.6,3.5,0.5,4.3-1.4l0.3-0.9l-7.6-21.7H35l4.4,15.5h0.2l4.4-15.5h6.2L42,583.9
		c-1.2,3.4-3.5,5.6-7.8,5.6C32.7,589.5,31.4,589.2,30.5,588.9z"/>
	<g>
		<path class="st0" d="M89.7,546.7c-5.9,0-10.8,2.2-14.5,6.6c-3,3.6-4.5,7.7-4.5,12.3c0,5.1,1.8,9.6,5.4,13.2
			c3.7,3.6,8.1,5.4,13.2,5.4c3.4,0,6.7-0.9,9.8-2.6l0.4-0.2v-8.6l-1.4,1.2c-0.8,0.7-1.6,1.3-2.3,1.8c-0.7,0.5-1.4,0.9-2.2,1.1
			c-1.2,0.6-2.6,0.8-4.3,0.8c-3.4,0-6.1-1.1-8.4-3.5c-2.3-2.3-3.4-5.2-3.4-8.5c0-3.5,1.1-6.3,3.4-8.7s5-3.6,8.4-3.6
			c3,0,6,1.2,8.8,3.6l1.4,1.1v-8.5l-0.4-0.2C96.1,547.6,92.9,546.7,89.7,546.7z"/>
		<path class="st0" d="M124,565.1c1.5-1.9,2.3-4.2,2.3-6.9c0-3.4-1.2-6.1-3.7-8.2c-2.2-1.8-5.7-2.8-10.5-2.8h-6.9v36.2h6.9v-13.6
			l9.5,13.6h8.5l-10.9-15.1C121.1,567.8,122.7,566.7,124,565.1z M119.5,558.4c0,2.1-0.7,4.8-6.5,4.8h-0.8V554h1
			C118.9,554,119.5,556.5,119.5,558.4z"/>
		<rect x="133" y="547.3" class="st0" width="6.9" height="36.2"/>
		<path class="st0" d="M160,561.4l-3.4-1.4c-2.2-0.9-3.3-2-3.3-3.3c0-1,0.4-1.8,1.1-2.4c0.8-0.7,1.8-1,3-1c1,0,1.8,0.2,2.5,0.6
			c0.4,0.2,1,0.8,1.9,2.4l0.4,0.7l5.7-3.4l-0.4-0.7c-2.4-4.1-5.7-6.2-10.1-6.2c-3.1,0-5.8,1-8,2.9s-3.3,4.3-3.3,7.1
			c0,4.2,2.6,7.4,7.6,9.5l3.4,1.4c0.8,0.3,1.5,0.7,2.1,1.1s1,0.7,1.4,1.1c0.3,0.4,0.6,0.8,0.7,1.3s0.2,1,0.2,1.6
			c0,1.4-0.5,2.6-1.4,3.5c-0.9,1-2.1,1.4-3.4,1.4c-1.8,0-3.1-0.6-4.1-1.9c-0.3-0.5-0.8-1.4-1.1-3.8l-0.1-1l-6.9,1.5l0.1,0.8
			c0.5,3.4,1.8,6.1,3.8,8c2.1,1.9,4.8,2.9,8,2.9c3.4,0,6.2-1.1,8.5-3.4c2.2-2.2,3.4-5.1,3.4-8.5c0-2.6-0.7-4.8-2.2-6.5
			C165,564.1,162.9,562.6,160,561.4z"/>
		<path class="st0" d="M191.6,550.4c-1.2-1.2-2.7-2.1-4.3-2.5s-3.8-0.6-6.8-0.6h-6.7v36.2h6.9v-14h1.6c3.8,0,6.9-1,9.1-3
			c2.3-2,3.4-4.7,3.4-8.1C194.8,555.2,193.7,552.6,191.6,550.4z M188.1,558.3c0,2-0.6,4.7-6.3,4.7h-1.1v-9.2h0.9
			C187.4,553.8,188.1,556.4,188.1,558.3z"/>
	</g>
	<path class="st0" d="M206.7,573.8c0.5,2.6,1.6,4.7,3.2,6.2c1.8,1.7,4.1,2.5,6.9,2.5c3,0,5.3-1,7.3-2.9s3-4.3,3-7.3
		c0-2.2-0.6-4-1.8-5.5s-3.2-2.8-5.8-3.9l-3.4-1.4c-2.9-1.2-4.3-2.8-4.3-4.9c0-1.4,0.6-2.7,1.8-3.7c1.1-1,2.5-1.4,4.1-1.4
		c1.4,0,2.5,0.3,3.4,0.9c0.7,0.4,1.4,1.1,2.1,2.2l2.8-1.7c-2.1-3.1-4.7-4.6-8.1-4.6c-2.8,0-5,0.8-6.9,2.4c-1.8,1.6-2.7,3.5-2.7,5.9
		c0,3.5,2.2,6.1,6.5,8l3.4,1.4c0.9,0.4,1.7,0.8,2.4,1.3s1.3,1,1.7,1.5c0.5,0.6,0.8,1.2,1,1.8s0.3,1.4,0.3,2.1c0,1.9-0.6,3.5-1.8,4.7
		c-1.2,1.3-2.8,1.9-4.6,1.9c-2.3,0-4.1-0.9-5.3-2.6c-0.6-0.7-1-2-1.3-3.7L206.7,573.8z"/>
	<polygon class="st0" points="262.7,581.9 276.3,581.9 276.3,578.6 266.2,578.6 266.2,549 262.7,549 	"/>
	<path class="st0" d="M294.8,548L279,581.9h3.8l3.8-8.4h15.9l3.6,8.4h3.8L294.8,548z M288.1,570.2l6.7-14.6l6.4,14.6H288.1z"/>
	<path class="st0" d="M333.3,553.2c-1.7-1.5-3.5-2.6-5.6-3.3c-1.9-0.6-4.6-1-8-1h-6.4v32.9h6.3c3.4,0,6.1-0.3,7.8-0.9
		c1.9-0.6,3.8-1.7,5.6-3.3c3.5-3.1,5.3-7.2,5.3-12.2C338.3,560.4,336.7,556.3,333.3,553.2z M330.7,575.2c-1.4,1.2-2.9,2.1-4.5,2.6
		c-1.7,0.6-3.7,0.8-6.1,0.8h-3.2v-26.4h3.2c4.6,0,8.2,1.1,10.6,3.4c2.7,2.5,4.1,5.8,4.1,9.8C334.7,569.4,333.4,572.7,330.7,575.2z"
		/>
	<path class="st0" d="M416.3,553.4c-3.4-3.4-7.4-5-12-5c-4.7,0-8.9,1.7-12.2,5c-3.4,3.3-5.1,7.3-5.1,11.9c0,5.3,1.8,9.6,5.6,12.8
		c3.4,3,7.3,4.4,11.5,4.4c4.8,0,8.9-1.7,12.3-4.9c3.4-3.3,5-7.3,5-12C421.4,560.8,419.6,556.7,416.3,553.4z M413.8,575.3
		c-2.6,2.6-5.9,4-9.7,4c-3.5,0-6.7-1.4-9.4-3.9c-2.7-2.6-4.1-6-4.1-10c0-3.8,1.4-7.1,4-9.7c2.6-2.6,5.9-4,9.7-4c3.8,0,7.1,1.4,9.7,4
		s3.9,5.9,3.9,9.8C417.8,569.3,416.5,572.6,413.8,575.3z"/>
	<path class="st0" d="M435,567.4l1.3-0.2c2.2-0.5,3.8-1.4,5-3.1c1.3-1.6,1.9-3.5,1.9-5.7c0-2.9-1-5.2-3-6.9c-1.8-1.6-5-2.4-9.3-2.4
		h-5.3V582h3.5v-14.1h2.2l9.9,14.1h4.3L435,567.4z M429.1,564.9v-12.6h2.7c6.6,0,8.1,3.4,8.1,6.1c0,3-1.4,6.5-8.2,6.5H429.1
		L429.1,564.9z"/>
	<polygon class="st0" points="467.8,581.9 472.6,581.9 457.5,563.8 472.2,549 467.6,549 453,564 453,549 449.5,549 449.5,581.9 
		453,581.9 453,568.1 455,566.1 	"/>
	<path class="st0" d="M473.3,573.8c0.5,2.6,1.6,4.7,3.2,6.2c1.8,1.7,4.1,2.5,6.9,2.5c3,0,5.3-1,7.3-2.9s3-4.3,3-7.3
		c0-2.2-0.6-4-1.8-5.5c-1.2-1.5-3.2-2.8-5.8-3.9l-3.4-1.4c-2.9-1.2-4.3-2.8-4.3-4.9c0-1.4,0.6-2.7,1.8-3.7c1.1-1,2.5-1.4,4.1-1.4
		c1.4,0,2.5,0.3,3.4,0.9c0.7,0.4,1.4,1.1,2.1,2.2l2.8-1.7c-2.1-3.1-4.7-4.6-8.1-4.6c-2.8,0-5,0.8-6.9,2.4c-1.8,1.6-2.7,3.5-2.7,5.9
		c0,3.5,2.2,6.1,6.5,8l3.4,1.4c0.9,0.4,1.7,0.8,2.4,1.3c0.7,0.5,1.3,1,1.7,1.5c0.5,0.6,0.8,1.2,1,1.8s0.3,1.4,0.3,2.1
		c0,1.9-0.6,3.5-1.8,4.7c-1.2,1.3-2.8,1.9-4.6,1.9c-2.3,0-4.1-0.9-5.3-2.6c-0.6-0.7-1-2-1.3-3.7L473.3,573.8z"/>
	<path class="st0" d="M374.1,584l14.6-35h-3.8l-10.6,25.9l-5.9-13.8l4.8-10.5h-12.5l4.2,10.5l-6.1,13.8L348.1,549h-3.8l14.6,35
		l7.7-18.8L374.1,584z M368.3,553.8l-1.6,3.6l-1.5-3.6H368.3z"/>
	<path class="st0" d="M244.3,548l-15.7,33.8h3.8l3.8-8.4l0.2-0.4c2.2,1.6,4.9,2.5,7.8,2.5c2.8,0,5.5-0.9,7.7-2.4l0.2,0.4l3.6,8.4
		h3.8L244.3,548z M237.7,569.9l6.5-14.3l6.2,14.3C246.7,572.9,241.4,572.9,237.7,569.9z"/>
</g>
<g>
	<path class="st0" d="M5.4,20.4c-2,0-3.1,0-4.3,0.2v-5c1.2,0.2,2.2,0.2,4.4,0.2h1.1c-0.7-2.6-1.1-3.9-2.1-5.5l4.1-1H6.5
		c-2.1,0-3.1,0-4.4,0.2v-5c1.2,0.2,2.3,0.2,4.5,0.2h3.6V3.9c0-1.6,0-2.3-0.2-3.4h5.7c-0.2,1.1-0.2,1.7-0.2,3.4v0.7h3.2
		c2.2,0,3.1,0,4.4-0.2v5c-1.3-0.1-2.4-0.2-4.4-0.2h-1.9l4,1.1C20.3,11,20.3,11,19.9,12c-0.3,0.5-0.3,0.5-0.8,1.7
		c-0.3,0.8-0.5,1.1-1,2.1H19c2.1,0,3.1,0,4.3-0.2v5C22,20.5,21,20.4,19,20.4h-3.8v3.3h3.6c2,0,3.1,0,4.3-0.2v4.9
		c-1.2-0.1-2.3-0.2-4.3-0.2H17c1.4,1.6,2.6,2.6,4.8,4.1c-1,1.7-1.6,2.7-2.3,4.5c-2.4-2.1-3.1-2.9-4.6-5.1c0,0.6,0,0.6,0.1,1.8
		c0,0.1,0,1.6,0,1.8v4.7c0,1.6,0.1,2.8,0.3,3.9H10c0.1-1.1,0.2-2.2,0.2-3.7v-4.7c0-0.9,0-2.1,0.1-3.2c-1.9,3.6-4.1,6.1-7.8,8.7
		c-0.7-1.9-1.3-3.2-2.4-4.8c3.6-2.2,6.2-4.8,8.2-8.1H5.4c-2,0-3,0-4.3,0.2v-5c1.2,0.2,2.2,0.2,4.4,0.2h4.7v-2.4c0-0.8,0-0.8,0-0.9
		H5.4z M9,9.3c1,2,1.4,3,2,5.5l-4.2,1.1h6.4c1.3-2.4,1.9-3.9,2.6-6.6H9z M40.4,14.9c2.1,0,3.2-0.1,4.3-0.3v5.2
		c-1.2-0.1-1.9-0.2-3.8-0.2h-1.2v18.9c0,2.8,0,4.1,0.3,5.5h-5.5c0.2-1.5,0.3-2.8,0.3-5.5V19.7h-5c0,6-0.6,10.9-1.7,15.2
		c-0.9,3.7-2.4,7-4.2,9.4c-1.9-1.6-2.7-2.1-4.7-3.1c4.5-5.5,5.6-11.6,5.6-29.4c0-3.9,0-5.5-0.3-7.3c5.3-0.1,13.4-2.2,15.8-4L44.2,5
		c-0.5,0.1-0.7,0.2-1.6,0.5C38.9,7,36,7.7,29.8,8.7v6.2H40.4z"/>
	<path class="st0" d="M53.7,6.8c-2,0-3.1,0-4.3,0.2v-5c1.5,0.1,2.9,0.2,5,0.2h12.6c2.5,0,3.7,0,5-0.2v5c-1.1-0.1-1.9-0.2-4-0.2v4.7
		h0.3c2.3,0,3.3,0,4.6-0.2v5.1c-1.3-0.1-2.4-0.2-4.5-0.2h-0.4v4.5c0,1.7,0,2.4,0.1,3.7h3.9c-0.2,0.8-0.2,1.6-0.2,3v1.5h9.4
		c2.6,0,4.3-0.1,5.5-0.3v5.1c-1.4-0.1-3.1-0.2-5.5-0.2h-9.5v4.3h13.3c2.5,0,4.2-0.1,5.5-0.2v5.3c-1.6-0.2-3.4-0.3-5.9-0.3H54.4
		c-2.4,0-4.2,0.1-5.8,0.3v-5.3c1.3,0.1,3.1,0.2,5.4,0.2h12.6v-4.3h-8.8c-2.2,0-3.9,0.1-5.4,0.2v-5.1c1.3,0.2,2.4,0.2,4.8,0.2h9.4
		v-1.4c0-0.5,0-0.8,0-1.6H63c0.2-1.4,0.3-3.1,0.3-5.1v-4.6h-4.6c-0.3,2.3-0.8,4-1.7,5.9c-1.1,2.3-2.4,3.8-5,6
		c-1.2-1.6-2-2.5-3.8-3.9c3.5-2.5,4.7-4.3,5.4-8h-0.7c-1.9,0-3.2,0-4.5,0.2v-5.2c1.4,0.2,2.6,0.2,4.6,0.2h1c0-0.4,0-1.9,0-4.7H53.7z
		 M59.1,6.8c0,0.3,0,0.8,0,1.5c0,1.2,0,2.3,0,3.2h4.2V6.8H59.1z M74.5,19.8c0.1-1,0.2-2.2,0.2-3.8V6.9c0-1.6-0.1-2.8-0.2-3.9h5.4
		c-0.1,1-0.2,2-0.2,3.6v9.9c0,1.5,0,2.5,0.1,3.4H74.5z M89.3,21.4c0,4-1.3,4.9-6.8,4.9c-1.3,0-2.5,0-3.9-0.2
		c-0.3-2.2-0.6-3.4-1.4-5.1c1.8,0.3,3.7,0.4,5,0.4c1.8,0,1.9-0.1,1.9-1.1V4.9c0-1.8,0-2.8-0.2-4h5.6c-0.1,1-0.2,2.4-0.2,4.4V21.4z"
		/>
	<path class="st0" d="M105.5,37.9c-3.2,0-4.4,0-5.8,0.2V32c1.7,0.3,2.6,0.3,5.9,0.3H127V11.8h-20.6c-3.3,0-4.3,0-6,0.2V6
		c1.7,0.3,2.6,0.3,6.1,0.3H129c2.4,0,2.4,0,4.1-0.1c-0.1,1.3-0.1,1.7-0.1,3.9v25.8c0,2.4,0,3.7,0.2,4.8h-6.3v-2.9H105.5z"/>
	<path class="st0" d="M152.4,37.5v3.3h-6.1c0.1-1.1,0.2-2.3,0.2-4V9.8c0-1.8,0-2.7-0.2-3.9c1.1,0.1,2.1,0.1,4,0.1H177
		c2,0,2.9,0,3.9-0.1c-0.1,1.2-0.1,2.2-0.1,3.9v26.9c0,1.7,0,3,0.2,4.1H175v-3.2H152.4z M175,11.3h-22.6v20.8H175V11.3z"/>
	<path class="st0" d="M224.2,13.4c3.3,0,4.3,0,6.1-0.3V19c-1.7-0.2-2.9-0.2-6-0.2h-9.6c-0.4,6.5-1.2,9.6-3.4,13.3
		c-2.6,4.3-5.9,7.2-12,10.5c-1.6-2.7-2.3-3.5-4.3-5.1c5.6-2.4,9.2-5.4,11.3-9.3c1.4-2.5,1.9-4.7,2.3-9.4H197c-3.1,0-4.3,0-6,0.2
		v-5.9c1.8,0.3,2.9,0.3,6.1,0.3h11.8c0-2,0-2.8,0-3.7V7c0-2,0-3.2-0.2-4.5h6.5C215,4,215,4,215,7l0,2.8c0,3.1,0,3.1,0,3.6H224.2z"/>
	<path class="st0" d="M276.3,11.6c-0.4,0.9-0.5,1.2-0.7,2.6c-0.8,5.4-1.5,8-3,11.4c-2.3,5.4-6.1,9.6-11.6,13
		c-2.8,1.7-5.3,2.8-9.4,4.2c-1.1-2.4-1.6-3.2-3.8-5.6c4.5-1.1,7-2.1,10-3.9c6.8-4.2,10.4-10.2,11.3-18.8h-22.9v6.1
		c0,1.5,0,2.7,0.1,3.8h-6.3c0.1-1.2,0.2-2.6,0.2-3.9v-6.8c0-2,0-3.2-0.2-4.5c1.6,0.2,2.5,0.2,5.1,0.2h9.2v-4c0-1.5,0-2.4-0.2-3.4
		h6.5c-0.1,0.8-0.2,2.1-0.2,3.4v4h8.5c3.5,0,3.5,0,4.6-0.4L276.3,11.6z"/>
	<path class="st0" d="M322.4,5.8c-0.8,0.7-1,0.9-1.7,1.6c-3.5,3.7-7,6.7-11.1,9.7v20.1c0,2.6,0,3.9,0.2,5.2h-6.6
		c0.2-1.4,0.3-2.3,0.3-5.1V20.8c-5.5,3.3-8.1,4.5-16.8,7.6c-1-2.4-1.5-3.2-3.1-5.4c9.3-2.5,17.2-6.4,24.7-12.2
		c4.2-3.2,7.4-6.5,8.7-8.8L322.4,5.8z"/>
	<path class="st0" d="M345.5,3.8c-0.2,1.3-0.2,1.3-0.5,10.5c-0.3,9.2-1.4,14.5-3.8,19.3c-1.6,3.2-3.4,5.6-6.5,8.7
		c-1.8-2.3-2.5-3.1-4.7-4.6c2.3-1.9,3.4-3.1,4.8-5.4c3.4-5.4,4.5-11.5,4.5-24.6c0-2.6,0-3-0.2-4.3L345.5,3.8z M357.9,3.2
		c-0.2,1.4-0.3,2.2-0.3,4.5l-0.2,26.7c3.3-1.6,5.2-3,7.2-5.4c2.2-2.5,3.5-5.1,4.6-8.6c1.6,2.1,2.3,2.7,4.4,4.4
		c-1.9,4.7-4.4,8.2-7.5,11c-2.7,2.3-5.1,3.7-10,5.6c-1,0.4-1.4,0.6-2,0.8l-3-3.2c0.3-1.4,0.4-2.4,0.4-5l0.2-26.5V6.2
		c0-1.2,0-2.2-0.2-3.1L357.9,3.2z"/>
	<path class="st0" d="M414.5,41.7c-3.9-4.8-9.3-10.1-14.4-14c-5.3,5.9-10.7,10.1-17.9,13.6c-1.3-2.4-1.9-3.2-3.8-5.2
		c3.6-1.4,5.9-2.7,9.4-5.2c7.1-5,12.7-11.8,15.8-19.1l0.5-1.2c-0.8,0-0.8,0-15.6,0.3c-2.3,0-3.5,0.1-5.1,0.4l-0.2-6
		c1.3,0.2,2.2,0.3,4.1,0.3c0.2,0,0.6,0,1.1,0L405,5.3c2.6,0,3-0.1,4.2-0.5l3.1,3.2c-0.6,0.7-1,1.4-1.5,2.5c-2.2,5-4.5,9.1-7.3,13
		c3,2,5.5,3.9,8.7,6.8c1.2,1,1.2,1,6.9,6.5L414.5,41.7z"/>
	<path class="st0" d="M440.1,5.7c0.2,2.8,1.4,8.9,2.8,13.1c2.7-1,2.7-1,10.9-3.7c0.8-0.3,1-0.3,1.6-0.6l1.8,5.3
		c-3.7,0.7-9.2,2.3-13.9,4c-6.1,2.3-9.2,5-9.2,8c0,3.1,2.9,4.4,9.6,4.4c5.3,0,10.4-0.6,13.6-1.7l0.5,5.8c-0.9,0-1.1,0-3.4,0.3
		c-4.5,0.5-6.9,0.6-9.8,0.6c-5.8,0-9.5-0.7-12.2-2.3c-2.3-1.4-3.7-4-3.7-7c0-2.8,1.3-5.5,3.7-7.5c1.6-1.4,3-2.2,5.7-3.6
		c-1-3.4-1.8-6.2-2.8-11.4c-0.4-2-0.5-2.1-0.7-2.7L440.1,5.7z"/>
	<path class="st0" d="M483.3,39c-4.5,0.8-4.5,0.8-9.5,1.6c-3.8,0.5-5.4,0.8-6.6,1l-1.1-4.8c0.3,0,0.5,0,0.8,0c0.8,0,2.1-0.1,4-0.2
		V22c-2.1,0-3.2,0-4.7,0.2v-4.6c1.3,0.2,2.5,0.3,4.8,0.3h33.2c2.4,0,3.6,0,4.9-0.3v4.6c-1.5-0.2-2.6-0.2-4.9-0.2H488v17.2
		c2.4-0.9,4.6-2,6.3-3.3c-1.6-1.9-2.6-3.2-4.3-6l4-1.8h-1.2c-1.5,0-2.3,0-3.5,0.2v-4.4c1.1,0.1,2,0.2,3.9,0.2h7.9
		c1.6,0,2.8,0,3.5-0.2l2.4,2.7c-0.3,0.5-0.4,0.7-0.8,1.4c-1.6,3.1-3.4,5.9-5.4,8c2.1,1.4,4.7,2.4,8.3,3.3c-0.9,1.4-1.7,2.9-2.4,4.6
		c-5-1.9-6.3-2.6-9.2-4.9c-2.3,1.9-4.2,3.1-7.3,4.6c-0.6-1.5-1.4-2.9-2.4-3.9c0,1.9,0,3.3,0.2,4.5h-5.2c0.2-1.1,0.3-2.4,0.3-4.7V39z
		 M504.2,12.3c0,1.8,0,3,0.2,4.1c-1.1-0.1-2.8-0.1-4.4-0.1h-23.9c-2.1,0-3.4,0-4.8,0.1c0.1-1.2,0.2-2.4,0.2-4V6c0-1.7,0-2.9-0.2-4.1
		c1.6,0.1,2.8,0.2,5,0.2h23.1c2.2,0,3.4,0,5-0.2c-0.1,1.1-0.2,2.3-0.2,4.1V12.3z M483.3,22h-7.8v2.1h7.8V22z M483.3,27.5h-7.8v2.3
		h7.8V27.5z M483.3,33.2h-7.8v2.9c2.3-0.2,3.4-0.4,7.8-1V33.2z M476.3,7.6h23V5.7h-23V7.6z M476.3,12.8h23v-1.9h-23V12.8z
		 M494.3,28.1c1.3,2.4,1.9,3.4,3.3,4.9c1.5-1.5,2.3-2.7,3.5-4.9H494.3z"/>
	<path class="st0" d="M525.7,6.7c-1.2-2-1.9-3-3.8-5.2L527,0c2.3,3.1,3,4,4.4,6.6h6.3c1.9-2.2,3-3.9,4.1-6.6l5.3,1.5
		c-1.2,1.9-2.6,3.8-3.8,5.1h7.2c2.3,0,3.7-0.1,5-0.3v5.1c-1.4-0.2-2.6-0.3-5-0.3h-31.9c-2.3,0-3.6,0-5,0.3V6.4
		c1.8,0.2,2.6,0.3,5,0.3H525.7z M521.1,38.8c0,2.4,0,3.7,0.3,5H516c0.2-1.6,0.2-2.9,0.2-5.4V18.2c0-2.3,0-3.1-0.1-4.2
		c1.4,0.1,2.5,0.2,4.4,0.2h9.1c2.4,0,3.1,0,4.2-0.2c-0.1,1.1-0.1,2.2-0.1,4.7v20.2c0,3.6-1,4.5-5.4,4.5c-0.7,0-1.3,0-3,0
		c-0.3-2.2-0.5-2.8-1.1-4.6c1.6,0.2,2.4,0.3,3.3,0.3c1.1,0,1.4-0.2,1.4-1v-4h-7.7V38.8z M528.8,21.9v-3.3h-7.7v3.3H528.8z
		 M528.8,29.6v-3.3h-7.7v3.3H528.8z M543.3,14.8c-0.2,1.3-0.2,2.1-0.2,4.5v10.1c0,3,0,3.7,0.2,5.1H538c0.1-1.4,0.2-2.2,0.2-5V19.2
		c0-2.2,0-3-0.2-4.4H543.3z M553.3,13.5c-0.2,1.3-0.3,2.6-0.3,5v19.8c0,2.1-0.3,3.3-1.1,4c-1,0.9-2.3,1.3-5.3,1.3
		c-1.1,0-2.1,0-5.1-0.2c-0.3-1.9-0.6-3.1-1.5-5c2.6,0.4,4.3,0.5,5.7,0.5c1.9,0,2.2-0.2,2.2-1.5V18.4c0-2.6,0-3.5-0.2-4.8H553.3z"/>
	<path class="st0" d="M560.3,20.5c0.8,0.1,1.2,0.1,2.2,0.1c0.3,0,0.3,0,1.5,0c1.2-1.5,1.6-2,2.6-3.5c-2.5-3.2-3.7-4.5-6.3-6.9l2.4-4
		l1.7,1.8c1.9-3.1,3.2-5.9,3.7-7.8l4.6,1.7c-0.3,0.4-0.5,0.9-1,2c-1.2,2.4-2.7,5-4.3,7.4c0.8,1,0.8,1,1.7,2.2
		c2.2-3.3,3.8-6.3,4.4-7.9l4.2,2.3c-0.6,0.9-0.9,1.4-1.6,2.5c-2.8,4.4-4.6,7-7,10.2c2.8-0.2,3.9-0.3,5.2-0.4
		c-0.6-1.9-0.7-2.2-1.4-3.8l3.5-1.4c1.6,3.7,2,5.1,3,8.7l-3.7,1.6c-0.1-0.6-0.1-0.6-0.3-1.4c-2,0.2-2,0.2-3.5,0.4v14.9
		c0,2.4,0,3.5,0.3,4.9H567c0.2-1.6,0.3-2.9,0.3-5V24.7c-0.3,0-0.9,0-1.9,0.1c-3.6,0.2-3.6,0.2-4.6,0.4L560.3,20.5z M566.1,27.4
		c-0.5,8.2-0.8,10.6-1.9,14.3l-3.9-2c1.1-3.5,1.5-5.7,1.8-12.8L566.1,27.4z M576.1,26.6c0.9,4.2,1.2,5.8,1.6,9.4l-3.7,1
		c-0.2-4-0.5-6-1.2-9.5L576.1,26.6z M580.2,29.1c-1.3,0-1.8,0-2.7,0.2v-4.7c0.8,0.1,1.3,0.2,2.9,0.2h3.2c1.1,0,1.6,0,2.2-0.1
		l1.7,2.2c-0.2,0.5-0.2,0.6-0.4,1.3c-1.2,3.7-2.1,5.7-3.9,8.3c-1.6,2.3-2.6,3.5-5.4,6.1c-0.7-1.4-1.6-2.4-3.2-3.8
		c3.8-2.7,6.1-5.6,7.7-9.6H580.2z M592.6,21.6c0.5,2.2,1.1,3.6,2.3,5.8c2-1.6,3.3-3.1,5-5.3l3.3,3c-2.3,2.5-4.1,4.1-6.1,5.8
		c2.3,3.1,4.3,4.9,7.3,6.9c-1.3,1.4-2,2.4-3,4.7c-2.3-1.8-3.4-3-4.9-5c-2-2.6-3.1-4.5-4.7-8.6c0.3,2.9,0.4,4.9,0.4,6.3l0,4.1
		c0,3-1.5,4.2-5.6,4.2c0,0-0.2,0-0.3,0h-1.2c-0.8,0-0.8,0-1.6-0.1c-0.3-2.1-0.6-3.2-1.3-4.7c1.6,0.3,2.7,0.4,3.9,0.4
		c1.2,0,1.5-0.2,1.5-1.1V21.6h-3.9c-1.6,0-3.3,0-4.7,0.2c0.1-1.2,0.2-2.8,0.2-4.6V8.7c0-1.7,0-3.3-0.2-4.6c1.2,0.1,2.3,0.2,4.6,0.2
		h2.7c0.7-1.9,1-2.8,1.3-4.1l5.3,0.8c-0.6,1.5-0.9,2.3-1.4,3.4h5.2c2.3,0,3.4,0,4.6-0.2c-0.1,1.4-0.2,2.4-0.2,4.7v8.5
		c0,2.1,0,3.3,0.2,4.5c-1.3-0.1-2.9-0.2-4.5-0.2H592.6z M583.9,11.1h12.2v-3h-12.2V11.1z M583.9,17.7h12.2v-3h-12.2V17.7z"/>
	<path class="st0" d="M608.2,10.9c0.9,0,1.4,0,1.6,0c0.8,0,0.8,0,6.9-0.4c2.4-0.1,9.3-0.5,21-1.1c3.4-0.2,4.1-0.2,4.8-0.4l0.3,5.3
		c-0.5,0-0.5,0-0.9,0c-2.5,0-5.6,0.8-8.3,2.3c-5.3,2.8-8.5,7-8.5,11.2c0,3.3,2.1,5.8,5.6,6.8c2.1,0.6,4.7,1.1,6.3,1.1
		c0,0,0.4,0,0.8,0l-0.8,5.7c-0.5-0.1-0.7-0.1-1.4-0.3c-4.6-0.6-7.3-1.3-9.8-2.8c-3.9-2.2-6-5.8-6-10.1c0-3.6,1.4-7.1,4-9.9
		c1.6-1.7,3.1-2.9,5.8-4.2c-3.4,0.5-5,0.7-14.2,1.3c-2.8,0.2-5.3,0.5-7,0.8L608.2,10.9z M637,17c1.7,1.9,2.4,3.1,3.7,5.7l-3.2,1.7
		c-1.3-2.5-2.3-4-3.7-5.8L637,17z M642.2,22c-1.2-2.3-2.2-3.9-3.6-5.6l3.1-1.5c1.6,1.8,2.5,3.1,3.7,5.4L642.2,22z"/>
	<path class="st0" d="M655.6,38.4c0,3,0,4.4,0.2,5.5h-5.4c0.2-1.4,0.3-2.9,0.3-5.8v-31c0-2.3-0.1-4.4-0.2-5.4
		c0.7,0.1,2.4,0.2,4.8,0.2h8.8c1.9,0,3.9-0.1,4.8-0.2c-0.1,0.9-0.1,2.3-0.1,4.4v5.7c0,2.2,0,2.9,0.1,4.1c-1.6-0.1-2.7-0.1-4.3-0.1
		h-9V38.4z M655.6,7.4h8.6V5.5h-8.6V7.4z M655.6,12.5h8.6v-2h-8.6V12.5z M656.4,37.8c2.4,0,4-0.2,7.7-0.8c0.8-1.8,1.4-3.3,1.8-5.2
		l3.7,1.1c-1,2.3-1,2.3-1.6,3.3c0.9-0.2,1.5-0.3,3.6-0.8v3.8c-5.5,1.3-7.5,1.7-11.3,2.3c-1.6,0.2-2.4,0.4-3.2,0.6L656.4,37.8z
		 M682.4,36.6c0,0.9,0,1.5-0.2,2.2l0.6,0c0.4,0,0.8,0,1.2,0c1.5,0,1.7-0.2,1.7-1.2V15.9h-9.3c-1.5,0-2.9,0-4.3,0.1
		c0.1-1.2,0.1-2.7,0.1-4.1V6.2c0-1.5,0-3.2-0.1-4.4c0.6,0.1,0.8,0.1,1.4,0.1c0.3,0,0.7,0,1.1,0c1,0,1.8,0,2.3,0h9.1
		c2.4,0,3.8,0,4.8-0.2c-0.2,1.3-0.2,3-0.2,5.4v31.6c0,1.8-0.4,3.1-1.2,3.8c-0.8,0.7-2,0.9-4.6,0.9c-0.9,0-2.6,0-3.5-0.1
		c-0.2-1.4-0.3-1.7-0.6-2.9c-0.9,0.4-1.7,0.5-3.7,0.5c-0.7,0-0.7,0-2.8-0.2c-0.1-2-0.3-2.9-0.9-4.2c1.2,0.2,2.4,0.3,3.3,0.3
		c1.3,0,1.6-0.2,1.6-1.1V24.8h-4.5c-1.1,0-1.9,0-2.6,0.1v-3.5c-0.4,0-0.4,0-2.4-0.1h-8.9c-0.9,0-1.7,0-2.7,0.1v-3.9
		c0.6,0.1,1.4,0.2,3.1,0.2h8.2c1.5,0,2.3,0,3-0.2v3.4c0.6,0,1.2,0.1,1.9,0.1h4.9v-0.5c0-1.6,0-2.5-0.2-3.6h4.7
		c-0.1,1-0.2,1.8-0.2,3.6V21h0.4c0.9,0,1.5,0,2.1-0.1v4c-0.8-0.1-1.5-0.1-2.1-0.1h-0.4V36.6z M670.3,29.4c0,1.4,0,1.8,0.1,2.3
		c-0.5-0.1-1.2-0.1-2.3-0.1H661c-1,0-2,0-3.1,0.1C658,31,658,30,658,29v-3.4c0-1.2,0-2-0.1-2.8c0.8,0.1,1.2,0.1,3,0.1h7.1
		c1.2,0,1.6,0,2.3-0.1c0,0.6,0,0.6-0.1,2.5V29.4z M660.2,37.1c-0.4-1.6-0.8-2.7-1.7-4l3.4-1.3c0.8,1.4,1.1,2,1.7,3.9L660.2,37.1z
		 M661.7,28.6h5v-2.6h-5V28.6z M674.2,34.4c-0.9-2.5-1.8-4.5-3.4-6.8l3.1-1.7c1.7,2.5,2.7,4.2,3.6,6.6L674.2,34.4z M676.8,7.4h8.8
		V5.5h-8.8V7.4z M676.8,12.5h8.8v-2h-8.8V12.5z"/>
	<path class="st0" d="M699.8,19.3c1.1,0,1.1,0,4.9-0.7c6-1.1,9.6-1.4,13.2-1.4c3.4,0,6,0.5,7.9,1.7c2.6,1.6,4.1,4.4,4.1,7.7
		c0,4.8-2.9,9.2-8,12.1c-3.4,2-6.4,2.9-13.2,3.9c-0.4-2.2-0.9-3.3-2.2-5.3c4.9-0.2,9.4-1.4,12.6-3.2c3.3-1.8,5.1-4.5,5.1-7.4
		c0-3.2-2.2-4.7-6.6-4.7c-4.7,0-13.1,1.5-16.6,2.9L699.8,19.3z M706.3,5.9c4.7,1.6,10.9,2.4,17.5,2.4c0.2,0,0.7,0,1.2,0l-0.7,5.2
		c-7.6-0.3-13.4-1.1-19.6-2.6L706.3,5.9z"/>
	<path class="st0" d="M17,85.5c-1.2,1.5-1.8,2.2-3.6,3.9c-1-1.2-2.1-2-3.9-3.1c3.2-2.7,5.2-4.9,6.4-7.6c0.3-0.6,0.4-0.9,0.7-1.8H8.1
		v30.6h30.6c2.4,0,3.9-0.1,5.2-0.3v5.3c-1.5-0.2-2.8-0.3-5.2-0.3H8.1v1.9H2.6c0.2-1.6,0.3-3.1,0.3-5.5V77.1c0-2,0-3.6-0.2-5
		c1.5,0.2,2.7,0.2,5.1,0.2h30.2c2.4,0,3.7-0.1,5.3-0.3v5.2c-1.6-0.2-2.8-0.3-5.1-0.3H17.3l4.1,1.2c-0.2,0.4-0.2,0.5-0.4,0.8
		c-0.4,0.8-0.4,0.8-1.1,2.1h15.5c2.3,0,3.4,0,4.6-0.2v4.9c-1.5-0.2-2.8-0.2-4.6-0.2h-7.2c0,0.4,0,0.4,0,1c0,1.4-0.1,2.3-0.2,3.6
		h10.3c2.1,0,3.2,0,4.5-0.2v4.9c-1.3-0.2-2.5-0.2-4.7-0.2h-8.8c2.4,3.8,6.4,5.9,13.7,7.2c-1.1,1.6-1.6,2.5-2.4,5
		c-7.6-2.1-11.8-4.8-14.9-9.6c-2.5,4.5-6.8,7.5-13.6,9.6c-0.8-1.8-1.7-3.3-2.9-4.5c3.5-0.9,5.1-1.5,7-2.6c2.6-1.5,4.3-3.1,5.4-5.1
		h-6.5c-2.5,0-3.7,0-5.1,0.2v-4.9c1.4,0.2,2.4,0.2,5.2,0.2h7.6c0.2-1.7,0.2-2.1,0.3-4.7H17z"/>
	<path class="st0" d="M86,99.7c0,2.3,0,3,0.1,4.1c-1-0.1-1.6-0.1-2.9-0.1c2.6,2.9,4.6,4.3,8,6c-1,1.2-1.9,2.5-2.7,4.1
		c-4.1-2.4-6.3-4.2-9.4-7.9l3.1-2.2h-5.5v6.7c0,1.4-0.4,2.4-1.2,3c-0.8,0.6-1.9,0.8-4.1,0.8c-1.7,0-3.4,0-5.3-0.2
		c-0.1-1.8-0.4-2.8-1.2-4.7c2,0.3,3.6,0.5,5.1,0.5c1.6,0,1.8-0.1,1.8-1.1v-4.9h-5.1c-0.9,0-1.2,0-2.1,0l3.1,1.7
		c-2.7,3.8-4.7,5.6-8.5,8.2c-1.4-1.8-1.9-2.4-3.2-3.4c3.8-2.2,5.6-3.9,7.3-6.5c-0.4,0-0.4,0-0.7,0c0.1-1.2,0.1-1.9,0.1-4v-4.6
		c-0.9,0.6-1.4,0.8-2.9,1.6c-0.4-1.2-0.6-1.6-1.1-2.7c-0.4,4.8-1,8.4-2.2,11.6c-1,3.1-2.1,5-4.5,8.1c-1.4-1.8-2.1-2.5-3.8-3.8
		c3.1-3.8,4.5-7.1,5.3-13.6c-1.4,0.8-3.2,1.9-4.3,2.4c-0.2,0.1-0.6,0.3-0.9,0.5l-1.5-5c1.7-0.3,4.2-1.4,7-3c0.1-1.6,0.1-2.3,0.1-4.5
		l-3.4,2.3c-1-3.5-1.9-5.8-3.5-8.7l3.6-2.2c1.5,2.7,2.3,4.4,3.3,7.5c0-0.3,0-0.8,0-1.6c0-0.8,0-3.5,0-5c0-3.7,0-4.2-0.2-5.9
		c1.6,0.2,3.2,0.2,5.8,0.2H69v-0.3c0-1.2,0-1.9-0.2-2.8h5.8c-0.1,0.8-0.2,1.6-0.2,2.8v0.3h11.1c2.6,0,4.2,0,5.7-0.3v4.7
		c-1.7-0.1-2.8-0.2-5.2-0.2H75.7c-0.4,1.2-0.5,1.6-0.8,2.4h10.8c2.2,0,3.4,0,4.8-0.2v4.5c-1.4-0.2-2.4-0.2-4.7-0.2h-6.3
		c1.2,1.6,1.8,2.3,3.4,3.6c1.6-1.4,2.3-2,3.2-3.5l3.8,2.4c-1.8,1.8-2.3,2.2-3.6,3.3c2.1,1.1,3.3,1.6,5.7,2.3c-1.1,1.8-1.4,2.4-2,4.4
		c-1.9-0.8-2.5-1.1-4-1.9V99.7z M58.9,84.4c0,2.8,0,5-0.2,7.8c1.6-0.8,2.6-1.4,4-2.3c-1.1-1.2-1.8-1.7-3.3-2.8l2.9-2.4
		c1.7,1.4,2.4,2,3.2,2.9c1.1-1.2,1.7-1.9,2.6-3.3h-3.9c-2.1,0-3.1,0-4.3,0.2V80c1.3,0.1,2.3,0.2,4.5,0.2h5.8
		c0.3-0.8,0.5-1.3,0.8-2.4H58.9V84.4z M67.2,94.6h14.1v-2H67.2V94.6z M67.2,100h14.1v-2H67.2V100z M78.4,88.9
		c-1.5-1.6-2.1-2.3-3.6-4.7h-1.8c-1,1.9-1.9,3.2-3.1,4.7H78.4z"/>
	<path class="st0" d="M99.8,100.4c0-2,0-2.3,0.1-5.4c-1.4,1.6-1.7,1.9-3.6,3.5c-0.6-2.1-1.2-3.5-2.1-5.2c4.5-3.1,8.6-7.8,10.4-12.1
		l4.3,3c-0.4,0.5-0.5,0.6-1.6,2.3c-0.8,1.2-0.9,1.5-2.6,3.6v18.6c0,2.6,0,4.1,0.2,5.5h-5.5c0.2-1.5,0.3-3.3,0.3-5.5V100.4z
		 M108.8,73.5c-0.4,0.4-0.5,0.5-0.8,0.9c-3.6,4.1-7,7.1-10.6,9.4c-1-2-1.3-2.5-2.7-4.4c4.5-2.6,8.3-6,10-9L108.8,73.5z M116.3,80.9
		c-1.6-3.8-2.7-5.6-4.7-7.9l4.4-2.2c2.1,2.6,3.7,5,5.3,8.4l-3.7,1.7h6.2c2.5-4,3.7-6.5,4.8-10.1l5.2,1.6c-1.6,3.6-3,6-4.6,8.5h3.7
		c2.2,0,3.4,0,4.7-0.2v5.1c-1.6-0.2-3.1-0.2-5-0.2h-7.2v7.3h5.9c2,0,3.2,0,4.7-0.2v5c-1.5-0.2-2.9-0.2-4.7-0.2h-5.8v9.5
		c2.2,0.5,4.4,0.8,7.4,0.8c1.6,0,3.1,0,6.1-0.2c-0.8,2.4-1,3.2-1.4,5.5c-2.3,0-3.6,0-3.9,0c-6.5,0-11.6-1.2-15.2-3.5
		c-1.8-1.2-3.2-2.6-4.7-4.8c-1.4,3.9-2.5,6.4-4.4,9.2c-1.5-1.8-2.2-2.4-4-3.8c2.3-3.2,3.6-6.2,4.6-10.4c0.8-3.1,1.2-6.6,1.2-9.3
		c0-0.5,0-0.7,0-1.1l5.3,0.7c-0.1,0.8-0.2,1.3-0.4,2.7c-0.2,2.2-0.5,4.3-0.8,6.3c1.3,2.7,2.9,4.6,5.1,6V85.5h-5.8
		c-2.1,0-3.6,0-5,0.2v-5.1c1.3,0.2,2.6,0.2,4.7,0.2H116.3z"/>
	<path class="st0" d="M160.7,94.3h-11.1c-1.7,0-3.1,0-4.3,0.2v-4.1c1.1,0.1,2.4,0.2,4.4,0.2h11v-1.8h-10c-1.7,0-2.9,0-3.9,0.1
		c0.1-1,0.1-2,0.1-3.1v-3.1c0-1.3,0-2.2-0.1-3.3c1.2,0.1,2.2,0.1,4,0.1h9.9v-1.8h-12.9c-2.3,0-3.9,0.1-5.5,0.3v-4.7
		c1.5,0.2,3.1,0.3,5.8,0.3h12.6c0-1.6-0.1-2.2-0.3-3.2h5.7c-0.2,1-0.3,1.5-0.3,3.2H179c2.7,0,4.3-0.1,5.8-0.3V78
		c-1.6-0.2-3.2-0.3-5.5-0.3h-13.5v1.8h10.6c1.8,0,2.8,0,3.9-0.1c-0.1,1-0.1,1.8-0.1,3.3v3.1c0,1.4,0,2.1,0.1,3.1
		c-1-0.1-2.3-0.1-3.8-0.1h-10.8v1.8h10.5c2.8,0,3.7,0,5-0.1c-0.1,1.2-0.1,1.8-0.1,4.3v1.6c2,0,3.1-0.1,4.1-0.2v4.5
		c-1.1-0.1-2-0.2-4.1-0.2v2.7c0,2.4,0,3.7,0.2,5.1h-5.3v-1.8h-10.4v2.6c0,4.2-1.2,5.1-6.9,5.1c-1.1,0-3-0.1-4.5-0.2
		c-0.3-1.9-0.6-2.8-1.5-4.7c2.5,0.3,4.3,0.4,6,0.4c1.5,0,1.8-0.2,1.8-1.1v-2.3h-11c-2.1,0-3.2,0-4.7,0.2v-4.4
		c1.3,0.1,2.1,0.2,4.5,0.2h11.2v-2h-13.5c-2.7,0-3.9,0-5.2,0.2v-4.5c1.2,0.2,2.4,0.2,5.1,0.2h13.6V94.3z M151.9,83.2v1.9h8.8v-1.9
		H151.9z M165.8,85.1h9.4v-1.9h-9.4V85.1z M176.2,96.4v-2.1h-10.4v2.1H176.2z M165.8,102.4h10.4v-2h-10.4V102.4z"/>
	<path class="st0" d="M195.3,88.7c-2.4,0-4,0.1-5.6,0.3v-5.2c1.3,0.2,3.1,0.3,5.7,0.3h10.7V80h-7c-2.5,0-4,0-5.4,0.2v-4.9
		c1.2,0.2,3.1,0.3,5.5,0.3h6.9v-0.8c0-1.8-0.1-2.9-0.3-4.1h5.7c-0.2,1.2-0.3,2.2-0.3,4.1v0.8h3.4c2.4,0,3.9-0.1,5.3-0.3v4
		c2.5-2.6,4.5-5.2,5.5-7.1l4.7,3.1c-0.3,0.3-1,1.1-2.1,2.4c-1.9,2.2-3.9,4.2-6.4,6.5h4.8c2.4,0,3.9-0.1,5.4-0.3v5.2
		c-1.6-0.2-3.4-0.3-5.8-0.3h-10.1c-1.8,1.3-3,2.1-5.1,3.4c1,0,2.6,0,3.8,0h6.9c2.3,0,3.6,0,4.9-0.1c-0.1,1.4-0.2,2.5-0.2,5.1v11.6
		c0,2.4,0.1,4,0.3,5.3H221v-2H204v2h-5.5c0.2-1.6,0.3-3.2,0.3-5.3v-7.3c0-0.8,0-1.8,0-2.6c-2.9,1.4-3.9,1.8-7.5,3.3
		c-0.8-1.9-1.4-3-2.8-4.7c7.1-2.1,13.2-4.8,19.4-8.6H195.3z M204,99.8h17v-3.5h-17V99.8z M204,107.5h17v-3.6h-17V107.5z M214.6,84.1
		c1.7-1.4,3-2.4,4.5-3.9c-1.3-0.1-2.1-0.1-3.9-0.1h-3.9v4.1H214.6z"/>
	<path class="st0" d="M252.1,75.7c0.2,2.8,1.4,8.9,2.8,13.1c2.7-1,2.7-1,10.9-3.7c0.8-0.3,1-0.3,1.6-0.6l1.8,5.3
		c-3.7,0.7-9.2,2.3-13.9,4c-6.1,2.3-9.2,5-9.2,8c0,3.1,2.9,4.4,9.6,4.4c5.3,0,10.4-0.6,13.6-1.7l0.5,5.8c-0.9,0-1.1,0-3.4,0.3
		c-4.5,0.5-6.9,0.6-9.8,0.6c-5.8,0-9.5-0.7-12.2-2.3c-2.3-1.4-3.7-4-3.7-7c0-2.8,1.3-5.5,3.7-7.5c1.6-1.4,3-2.2,5.7-3.6
		c-1-3.4-1.8-6.2-2.8-11.4c-0.4-2-0.5-2.1-0.7-2.7L252.1,75.7z"/>
	<path class="st0" d="M280.8,78.2c2.3,3.8,3,5.3,4,8.2l-3.6,3c-1.5-4.1-2.6-6.5-4-8.6L280.8,78.2z M300,73.8c0-1.5,0-2.2-0.2-3.2
		h5.7c-0.2,0.9-0.2,1.7-0.2,3.3v0.5h10.3c2.3,0,4.1-0.1,5.6-0.3v5.1c-1.6-0.2-3.4-0.2-5.6-0.2h-25.6c0,16.8-0.5,21-3,27.4
		c-1.1,2.9-2.6,5.3-4.9,7.8c-1.4-2.1-2.3-3.1-3.9-4.2c1.9-1.6,2.8-2.9,4-5.4c0.9-2.1,1.6-4.6,2.1-7.9c-1.5,0.9-3.2,1.8-4.5,2.5
		c-0.2,0.1-0.7,0.4-0.9,0.5l-1.5-5.1c1.8-0.4,4.5-1.6,7.4-3.1c0.1-3,0.2-4.8,0.2-8.8c0-1.2,0-2.3,0-2.9c0-3-0.1-3.8-0.3-5.5
		c1.7,0.2,3.2,0.2,6,0.2h9.4V73.8z M314.1,103.2c-1.1,1.2-1.6,1.8-2.4,3.2c-2.9-2.2-4.5-3.9-6.1-6.4c-0.6,1.3-1.2,2.3-2.2,3.5
		c-1.2,1.5-2,2.2-3.9,3.6c-0.8-1.4-1.6-2.4-2.7-3.4v5c0,2.3,0,3.8,0.2,5.2h-5.4c0.1-1.5,0.2-3,0.2-5.2V93c0-1.5,0-2.1-0.1-3.4
		c1.1,0.1,2.2,0.1,4.2,0.1h7c0-1,0-1.2,0-2.6v-1H296c-1.8,0-3.2,0-4.7,0.2v-4.8c1.3,0.2,2.6,0.2,4.7,0.2h19.2c2.6,0,3.8,0,4.9-0.2
		v4.8c-1.5-0.1-2.7-0.2-4.9-0.2h-7.3l0,2c0,0.4,0,0.6,0,1.6h6.8c2.7,0,3.5,0,4.6-0.2c-0.1,1.4-0.2,2.6-0.2,4.6V109
		c0,2-0.5,3-1.6,3.7c-1.1,0.6-2.5,0.8-5.9,0.8c-0.5,0-1.3,0-2.8,0c-0.2-1.7-0.6-3.3-1.3-4.7c1.5,0.1,3.3,0.3,4.3,0.3
		c2,0,2.3-0.2,2.3-1.4V103.2z M296.8,102.8c1.1-0.8,2-1.5,3-2.6c1.6-1.8,2.4-3.6,2.9-6.3h-5.9V102.8z M307.4,93.8
		c-0.1,0.5-0.1,0.7-0.2,1.2c1.6,3.1,3.3,4.8,6.9,7.3v-8.5H307.4z"/>
	<path class="st0" d="M340.8,77.6c-1.3,3.6-1.3,3.6-3.6,9.1c1.7,2.6,2.4,3.9,2.9,5.5c0.7,1.9,1.1,4.1,1.1,6c0,2.8-1.1,4.6-3.3,5.2
		c-1,0.3-2.6,0.5-4.6,0.5c-0.1-2.5-0.4-3.8-1.2-5c0.9,0.1,1.7,0.2,2.5,0.2c1.6,0,1.9-0.4,1.9-2c0-1.6-0.6-3.7-1.7-5.7
		c-0.6-1.1-1.3-2.2-2.7-4c1.5-3.1,2.9-6.8,3.9-10.5h-4.7v32.1c0,2.4,0,3.8,0.2,5.3h-5.3c0.2-1.5,0.3-3.2,0.3-5.4V76.3
		c0-1.6,0-2.9-0.1-4.4c0.9,0.1,1.9,0.1,3.3,0.1h7.1c1.6,0,2.3,0,3-0.2l2.2,2.5c-0.1,0.3-0.2,0.4-0.3,0.8c0.9,0,1.8,0.1,3.4,0.1h6
		v-1.6c0-1.2-0.1-2.3-0.2-3.1h5.7c-0.2,0.9-0.2,1.8-0.2,3.2v1.5h7.3c1.7,0,3,0,4.2-0.2c-0.1,1-0.2,1.6-0.2,3.4v3.8
		c0,1.5,0,2.3,0.2,3.4h-4.5v2.2c-1.2-0.1-2.3-0.2-3.7-0.2h-11c-1.5,0-2.6,0-3.7,0.2v-2.3h-4.4c0-0.3,0-0.3,0.1-0.8
		c0-0.4,0.1-1.7,0.1-2.7v-3.5V77.6z M346,95.4c-2.3,0-3.1,0-4.4,0.2v-4.8c1.3,0.2,2.6,0.2,4.4,0.2h17.3c2.3,0,3.2,0,4.6-0.2v4.9
		c-1.4-0.2-2.7-0.3-4.6-0.3h-4.2v12.5c0,0.8,0.4,0.9,2.1,0.9c1.6,0,2.2-0.2,2.4-1c0.3-0.8,0.4-2.5,0.6-5.9c1.6,0.8,2.4,1.1,4.5,1.5
		c-0.8,9-1.6,10.1-7.8,10.1c-5.1,0-6.7-0.8-6.7-3.5V95.4h-3c-0.4,5.5-1.1,8-3,11c-2,3.3-4.8,5.5-9.9,7.8c-1.1-1.8-1.8-2.7-3.3-4.1
		c4.2-1.5,6.7-3.1,8.7-5.7c1.6-2.1,2.3-4.6,2.7-9H346z M362.7,79.9h-17.2v3.4c0.8,0,1.5,0.1,3.1,0.1h11c1.6,0,2.2,0,3.1-0.1V79.9z"
		/>
	<path class="st0" d="M377.7,73.7c0-1.2,0-2-0.1-2.7h5.1c-0.1,0.7-0.2,1.3-0.2,2.7v0.6h4.2v-0.5c0-1.4,0-2-0.2-2.7h5
		c-0.1,0.8-0.1,1.3-0.1,2.6v0.6h1.4c1.5,0,2.5,0,3.9-0.2v4.6c-1-0.1-1.8-0.2-3.9-0.2h-1.4v0.4c0,1,0,1.7,0.1,2.3h-5
		c0.1-0.6,0.1-1.1,0.1-2.3v-0.3h-4.2v0.3c0,1.2,0,1.7,0.1,2.3h-5c0.1-0.6,0.1-1.3,0.1-2.3v-0.3H376c-2.1,0-3,0-3.7,0.2V74
		c1,0.2,2,0.2,3.9,0.2h1.5V73.7z M406.2,85.1c-0.2,6.2-1,11.3-2.3,15.7c-1.5,5-3.7,9-7.5,13.4c-0.9-1.6-1.9-2.8-3.3-3.9
		c-4.9,0.9-10.2,1.7-17.3,2.4c-1.2,0.1-1.5,0.2-2.4,0.3l-0.8-5.1c0.6,0,0.8,0,1.2,0c1.6,0,4-0.2,8.6-0.6v-2.8h-4c-1.7,0-2.8,0-4,0.2
		v-4.5c1,0.2,2.2,0.2,4.1,0.2h3.9v-2.1h-4.8c-1.9,0-3,0-4.2,0.2v-4.5c1.1,0.2,2.1,0.2,4.2,0.2h4.7v-2.1h-5c-1.7,0-2.1,0-3.6,0.1
		c0.1-0.9,0.1-1.7,0.1-2.9v-4.8c0-1.4,0-1.8-0.1-2.8c1,0.1,1.6,0.1,3.6,0.1h14.5c2.1,0,2.6,0,3.7-0.1c-0.1,1-0.1,1.5-0.1,3.2v4.2
		c0,1.6,0,2.7,0.1,3.1c-1-0.1-1.6-0.1-3.6-0.1h-5.1v2.1h4.3c2.3,0,3.1,0,4.4-0.2v4.4c-1.4-0.1-2.2-0.2-4.4-0.2h-4.3v2.1h3.5
		c2.2,0,3.1,0,4.2-0.2v4.4c-1.4-0.1-2.1-0.2-4.2-0.2h-3.5v2.4c5.1-0.6,5.1-0.6,8.1-1l0,1.7c3.9-5.2,5.8-12,6.3-22.6h-1
		c-2.3,0-3,0-3.9,0.2v-5c1.1,0.2,2,0.2,3.9,0.2h1c0-2.4,0-2.9,0-5.9c0-1.6-0.1-2.5-0.3-3.6h5.5c-0.3,1.6-0.3,1.6-0.3,9.5h3.8
		c2.2,0,3.2,0,4.6-0.2c-0.1,1.1-0.1,1.1-0.4,10.8c-0.2,8-0.9,15.3-1.6,18.1c-0.8,3.2-2.3,4.2-6.3,4.2c-0.5,0-0.5,0-3.8-0.1
		c-0.2-2.1-0.4-3.2-1.2-5.1c1.6,0.3,3,0.5,4.2,0.5c1.9,0,2.3-0.5,2.8-3.9c0.7-4.1,1-9.9,1.1-19.7H406.2z M378.2,85.7v2.9h4.1v-2.9
		H378.2z M386.8,88.6h4.4v-2.9h-4.4V88.6z"/>
	<path class="st0" d="M440.8,100.6c-1.8,0-2.7,0-3.7,0.2v-4.5c-0.5,1.2-0.7,1.5-1.3,2.8c-1.3-1.3-1.9-1.7-3.4-2.6
		c1.2-1.9,2.1-3.9,2.7-6h-3l0.1,19c0,1.5-0.3,2.4-1,3.1c-0.7,0.6-2.1,0.9-4.4,0.9c-1,0-2.5,0-3.9-0.1c-0.1-1.8-0.3-2.9-1-4.6
		c1.9,0.3,3.3,0.5,4.2,0.5c1.3,0,1.6-0.2,1.5-1.1l0-11.2c-1.8,4.1-3.9,7.2-6.9,10c-0.7-2.2-1.3-3.4-2.3-5.1
		c3.8-3.2,5.9-6.3,7.9-11.3H423c-1.8,0-2.9,0-3.9,0.2v-5c1.2,0.2,2.3,0.2,4.2,0.2h4.7c-2.3-2.2-4.1-3.8-6.3-5.3l2.9-2.8
		c2.6,2,2.9,2.1,4,3.1c1.6-1.2,2.6-2.4,3.8-4.1h-8.2c-1.6,0-2.8,0-4,0.2v-4.8c1.3,0.1,2.4,0.2,4.4,0.2h8c2.4,0,3,0,4-0.1l2.5,2.7
		c-0.2,0.2-0.6,0.7-1,1.4c-2,2.8-4.7,5.9-6.6,7.4c0.4,0.5,0.6,0.6,1,1.1l-1,1.1h2.8c1.6,0,2.5,0,3.4-0.1l2,2.5
		c-0.2,0.4-0.3,0.7-0.6,1.5c3-0.7,5.4-1.6,7.7-2.9c-1.6-1.6-2.9-3.1-3.9-4.8c-1.1,1.5-1.8,2.2-3.6,4.1c-1.1-1.3-2.1-2.2-3.6-3.2
		c3.5-3.1,5.4-5.5,7-9.1c0.7-1.5,0.9-2.1,1.2-3.6l4.9,0.9c-0.1,0.2-0.4,0.9-0.7,1.6c-0.2,0.6-0.4,1-0.8,1.8h9.7c2.2,0,3.8-0.1,5-0.2
		v4.8c-1.1-0.1-1.9-0.2-3.4-0.2c-1.5,3.5-2.4,5-4.7,7.4c2.8,1.3,5,1.9,9,2.6c-1.1,1.8-1.5,2.6-2.2,4.9c-5.1-1.5-7.8-2.6-10.6-4.4
		c-1.3,0.9-2.3,1.5-4.4,2.4l4.8,0c0,0.3,0,0.3,0,0.6c0,0.2-0.1,0.5-0.1,0.8c0,0.2,0,0.3-0.1,0.8c0,0.7-0.1,1-0.2,1.8h6.7
		c2.1,0,2.9,0,3.7-0.2c-0.1,1.1-0.1,1.1-0.2,2.1c-0.4,5.6-1,9.9-1.6,11.8c-0.9,2.9-2.2,3.6-5.8,3.6c-1.3,0-2.8-0.1-5-0.3
		c-0.1-1.9-0.4-2.9-1.1-4.9c2.2,0.4,4,0.7,5.4,0.7c1.5,0,2-0.6,2.5-3c0.3-1.6,0.5-3,0.6-5.3h-6.2c-2,6.4-5.7,10.3-13.2,13.5
		c-0.8-1.6-1.6-2.8-2.9-4.2c6-2.3,9.1-4.9,11-9.4H440.8z M445.6,96.1c0.1-1.3,0.2-2.4,0.2-3.5c0-0.2,0-0.2,0-0.4
		c-1.8,0.8-2.8,1.1-5.4,1.9c-0.6-1.3-0.8-1.6-1.6-2.8c-0.6,2-1,3-1.6,4.7c0.8,0.1,1.7,0.1,3.9,0.1H445.6z M446.5,79.1
		c0.9,1.8,2.2,3.4,4,5.1c1.7-1.7,2.4-2.8,3.3-5.1H446.5z"/>
	<path class="st0" d="M472.3,88.7c-2.3,0-4,0.1-5.6,0.3v-5.2c1.3,0.2,3.1,0.3,5.7,0.3h10.7V80h-7c-2.5,0-4,0-5.4,0.2v-4.9
		c1.2,0.2,3.1,0.3,5.5,0.3h6.9v-0.8c0-1.8-0.1-2.9-0.3-4.1h5.7c-0.2,1.2-0.3,2.2-0.3,4.1v0.8h3.4c2.4,0,3.9-0.1,5.3-0.3v4
		c2.5-2.6,4.5-5.2,5.5-7.1l4.7,3.1c-0.3,0.3-1,1.1-2.1,2.4c-1.9,2.2-3.9,4.2-6.4,6.5h4.8c2.4,0,3.9-0.1,5.4-0.3v5.2
		c-1.6-0.2-3.4-0.3-5.8-0.3h-10.1c-1.8,1.3-3,2.1-5.1,3.4c1,0,2.6,0,3.8,0h6.9c2.3,0,3.6,0,4.9-0.1c-0.1,1.4-0.2,2.5-0.2,5.1v11.6
		c0,2.4,0.1,4,0.3,5.3H498v-2H481v2h-5.5c0.2-1.6,0.3-3.2,0.3-5.3v-7.3c0-0.8,0-1.8,0-2.6c-2.9,1.4-3.9,1.8-7.5,3.3
		c-0.8-1.9-1.4-3-2.8-4.7c7.1-2.1,13.2-4.8,19.4-8.6H472.3z M481,99.8h17v-3.5h-17V99.8z M481,107.5h17v-3.6h-17V107.5z M491.6,84.1
		c1.7-1.4,3-2.4,4.5-3.9c-1.3-0.1-2.1-0.1-3.9-0.1h-3.9v4.1H491.6z"/>
	<path class="st0" d="M517.1,111.5c0-0.8-0.1-1-0.2-2c-0.8-5.1-1.1-8.3-1.1-12.6c0-5.4,0.5-10.2,1.7-16.4c0.5-2.4,0.5-2.8,0.6-3.9
		l5.5,0.6c-1,2.5-2,7.2-2.6,12.6c-0.4,3.2-0.6,5.6-0.6,9.3c0,0.9,0,1.3-0.1,2.3c0.5-1.5,0.5-1.8,2.2-5.5l3.4,1.5
		c-2.3,4.9-3.7,9.7-3.7,12.7c0,0.3,0,0.6,0,1.1L517.1,111.5z M535,94.9c-2.1,2.4-3,4.2-3,6c0,2.4,2.3,3.7,6.7,3.7
		c3.7,0,7.4-0.6,10-1.6l0.4,5.3c-0.6,0-0.8,0.1-1.7,0.3c-3.4,0.5-5.9,0.8-8.7,0.8c-5.2,0-8.6-1.2-10.4-3.7c-0.8-1.1-1.3-2.6-1.3-4.1
		c0-2.7,1.3-5.5,3.9-8.7L535,94.9z M528.1,81c1.9,0.5,4.1,0.7,7.8,0.7c4.7,0,8.7-0.4,11.4-1.1l0.3,5.1c-0.3,0-1,0.1-3,0.4
		c-2.7,0.3-5.9,0.5-9,0.5c-3.1,0-3.1,0-7.6-0.5L528.1,81z"/>
	<path class="st0" d="M582.7,81.2l0-2.1v-1.5c0-3.1,0-4.1-0.2-5.2h6.1c-0.1,1.1-0.2,1.3-0.2,3.1c0,2.9,0,2.9,0,5.7h3
		c3.3,0,4.3,0,6.1-0.3v5.7c-1.6-0.2-2.9-0.2-6-0.2h-3.1c-0.1,5.6-0.1,6-0.3,7.8c-0.7,6-2.7,10-6.8,13.5c-2.5,2.2-4.8,3.4-9.2,4.9
		c-0.9-2-1.5-2.9-3.5-5c4.5-1.4,6.7-2.5,9-4.5c3.2-2.8,4.6-5.9,5-11.3c0.1-1.1,0.1-2.2,0.2-5.5h-12.2v7c0,2,0,2.7,0.2,3.9h-6.1
		c0.1-1,0.2-2.3,0.2-4v-7h-2.9c-3.1,0-4.4,0-6,0.2v-5.7c1.8,0.3,2.8,0.3,6.1,0.3h2.8v-4.7c0-2,0-3-0.2-4.2h6.2
		c-0.2,1.6-0.2,1.6-0.2,4v4.8H582.7z"/>
	<path class="st0" d="M642.1,87.5c-0.5,0.8-0.8,1.5-1.3,3c-2.4,6.9-6,12.1-10.9,15.9c-3.3,2.6-6.4,4.2-12.3,6.4
		c-1-2.4-1.6-3.1-3.7-5.5c5.7-1.5,9.4-3.2,13.1-6.2c3.5-2.9,5.5-5.8,7.6-11h-22.9c-3.1,0-4.3,0-6,0.2v-5.7c1.8,0.3,2.8,0.3,6.1,0.3
		h22.4c2.9,0,3.9-0.1,5.3-0.4L642.1,87.5z M609.6,73.2c1.6,0.3,2.5,0.3,5.5,0.3h16.4c3,0,3.9,0,5.5-0.3V79c-1.5-0.2-2.3-0.2-5.4-0.2
		H615c-3.1,0-3.9,0-5.4,0.2V73.2z"/>
	<path class="st0" d="M687.7,79.7c-0.6,0.8-0.7,1-1.5,3.1c-1.5,4.3-4.1,9.8-6,12.9c-4.8,7.8-11.4,13.4-21.4,18
		c-1.5-2.5-2.1-3.3-3.9-4.9c4-1.6,6.3-2.8,9.2-4.7c3.3-2.2,5.3-3.9,7.7-6.6c-3.3-2.8-6.1-4.7-9.6-6.7l3.6-4.2
		c3.9,2.2,5.9,3.5,9.4,6.3c2.2-3.4,3.8-6.7,5.3-11.1l-14.6,0.1c-3,4.8-6.3,8.7-11,12.6c-1.6-1.8-2.3-2.3-4.7-3.8
		c5.2-3.9,8.9-8.1,11.7-13.4c1.6-2.8,2.3-4.6,2.8-6.5l6.1,1.4c-0.5,0.8-0.5,0.8-1.4,2.7c-0.6,1.3-0.9,1.8-1.1,2.3
		c0.8-0.1,0.8-0.1,12.2-0.2c1.4,0,2.5-0.1,3.3-0.3c-1.1-2.1-1.8-3.2-3-4.7l3.8-1.3c1.7,2.2,2.5,3.5,3.6,6.1l-2.4,0.9L687.7,79.7z
		 M690.1,76.4c-1-2.2-2.1-4.1-3.5-6l3.7-1.4c1.6,2,2.6,3.6,3.6,5.8L690.1,76.4z"/>
	<path class="st0" d="M698.8,80c1.7,0.4,4.4,0.5,9.7,0.5c1.1-2.5,1.5-3.8,1.7-5.2l5.5,0.6c-0.3,0.4-0.3,0.4-1.7,3.8
		c-0.2,0.5-0.3,0.6-0.4,0.8c0.3,0,0.3,0,2.6-0.2c4.9-0.3,8.7-0.8,11-1.4l0.3,4.8c-1.2,0.1-1.2,0.1-3.3,0.3
		c-3.1,0.4-8.4,0.7-12.6,0.8c-1.2,2.4-2.4,4.1-3.9,5.6l0,0.1c0.3-0.2,0.3-0.2,0.8-0.6c1.6-1.2,3.8-1.9,5.9-1.9c3.3,0,5.3,1.6,6,4.5
		c3.2-1.2,5.4-1.9,6.4-2.3c2.3-0.8,2.4-0.8,3.1-1.3l2,4.8c-1.2,0.2-2.4,0.5-4.7,1.1c-0.6,0.2-2.7,0.9-6.3,2.1v0.5c0,1.1,0,1.1,0,1.7
		c0,0.4,0,1.1,0,1.7c0,0.7,0,1.1,0,1.4c0,0.9,0,1.5,0.1,2.2l-4.9,0.1c0.2-0.8,0.3-2.9,0.3-4.9c0-0.6,0-0.6,0-1c-2.1,1-3.2,1.6-4,2.2
		c-1.5,1.1-2.2,2.2-2.2,3.4c0,2.2,2,3.1,7.1,3.1c5,0,9.4-0.6,12.3-1.8l0.4,5.4c-0.7,0-0.9,0-1.9,0.2c-3,0.5-7.1,0.8-10.8,0.8
		c-4.5,0-7.2-0.5-9.4-1.8c-1.9-1.1-3.1-3.1-3.1-5.4c0-1.7,0.5-3.1,1.8-4.7c1.9-2.4,4.3-3.9,9-5.9c-0.2-1.6-1-2.3-2.6-2.3
		c-2.4,0-5.4,1.5-8.6,4.3c-1.8,1.5-2.7,2.5-3.7,3.8l-3.8-3.8c1.1-0.8,2.3-2,3.8-3.7c1.6-1.9,4.2-5.6,5-7.2c0.2-0.3,0.2-0.3,0.3-0.5
		c-0.2,0-0.7,0-0.7,0c-0.7,0-4.4-0.1-5.3-0.1c-0.8,0-0.8,0-1.2,0c-0.1,0-0.4,0-0.7,0L698.8,80z"/>
	<path class="st0" d="M8.1,151.3c-1.3,1.3-2,1.8-3.9,3.3c-1.5-1.8-2.1-2.4-3.4-3.6c4.4-3.2,7-5.8,8.7-9.1c0.4-0.8,0.8-1.6,1-2.3
		l5.5,1c-0.4,0.6-0.4,0.6-1,1.7c-0.5,0.8-0.8,1.4-1.5,2.4h22.8c2.9,0,4.5-0.1,5.9-0.3v5.2c-1.6-0.1-2.2-0.2-4.6-0.2v6.3h1.8
		c2.2,0,3.2,0,4.6-0.3v5.3c-1.4-0.2-2.4-0.3-4.6-0.3h-1.8v6.3h0.9c2.2,0,3.2,0,4.5-0.2v5.2c-1.2-0.2-2.3-0.3-4.4-0.3H6.6
		c-1.8,0-2.9,0-4.2,0.3v-5.2c1.3,0.2,2.5,0.2,4.6,0.2h1.1v-6.3H6c-2.1,0-3.2,0-4.6,0.3v-5.3c1.4,0.2,2.4,0.3,4.6,0.3h2V151.3z
		 M1.4,180.7c2.9-2.8,4.2-4.8,5.8-8.8l4.3,2.2c-1.9,4.6-3.1,6.5-6.1,9.9L1.4,180.7z M12.7,155.7h3.8v-6.3h-3.8V155.7z M12.7,166.7
		h3.8v-6.3h-3.8V166.7z M14.9,183.7c0-0.8,0-1.4,0-1.9c0-1.8-0.4-6-0.7-8.3l4.6-0.5c0.8,4.3,1.1,6.3,1.3,10.3L14.9,183.7z
		 M24.7,155.7v-6.3h-3.9v6.3H24.7z M24.7,166.7v-6.3h-3.9v6.3H24.7z M25.8,183.6c-0.7-4.6-1-5.9-2.2-9.9l4.6-1
		c1.3,3.7,1.9,5.8,2.8,9.8L25.8,183.6z M32.9,155.7v-6.3h-4v6.3H32.9z M32.9,166.7v-6.3h-4v6.3H32.9z M39.2,183.6
		c-1.7-3.9-2.9-5.9-5.6-9.8l4-2c2.7,3.3,4.1,5.5,6.1,9L39.2,183.6z"/>
	<path class="st0" d="M59.1,149.7c0-1.4,0-2.2-0.1-3c-0.2,0.8-0.4,1.1-0.5,1.6c0,0-0.3,0.7-0.7,1.6c-0.1,0.2-0.2,0.6-0.4,1.1v27.4
		c0,2.1,0.1,3.7,0.3,5.5H52c0.2-1.9,0.3-3.3,0.3-5.5v-13.7c0-2.3,0-3.8,0.1-5.2c-1,1.7-1.7,2.8-3.2,4.8c-0.6-2.3-1.2-3.9-2.2-5.7
		c3.1-3.6,5.2-7.4,6.8-12.2c0.8-2.4,1.3-4,1.6-6.1l5.2,1.3c-0.2,0.7-0.3,0.8-0.8,2.4c-0.1,0.3-0.6,2-0.8,2.5
		c1.1,0.1,1.9,0.1,4.1,0.1h1.5c-0.7-1.2-1.3-2-2.8-3.8l4.4-1.5c2.1,2.9,2.2,3.1,3.2,5.2h2.9v-2.3c0-1.7,0-2.7-0.2-3.6h5.4
		c-0.2,0.9-0.3,1.8-0.3,3.6v2.3H80c1.3-1.7,2.2-3.3,3-5.3l4.5,1.4c-0.8,1.6-1.5,2.6-2.5,3.9h1.2c2.1,0,3.4,0,4.7-0.2
		c-0.1,1-0.1,1.9-0.1,3.2v2.2c0,1.4,0,2.4,0.2,3.2H86v-5H63.7v5h-4.8c0.2-1.1,0.2-2.2,0.2-3.3V149.7z M65.4,177.4c-2,0-2.7,0-4,0.1
		c0.1-1.4,0.2-2.8,0.2-4.2v-8.4c0-1.8,0-3-0.2-4.3c1.2,0.1,2.3,0.1,3.9,0.1h18.9c1.8,0,3,0,4-0.1c-0.1,1.2-0.2,2.3-0.2,4.2v8.5
		c0,2,0,3,0.2,4.2c-1.2,0-1.2,0-3.9-0.1h-2.4c3,1.6,5.5,2.4,10.1,3c-1.1,1.4-1.6,2.4-2.4,4.2c-5.8-1.4-8-2.3-12.2-4.9l2.4-2.3H69.2
		l2.6,2.3c-3.3,2.3-6.1,3.5-11.6,4.7c-0.7-1.5-1.4-2.4-2.7-4.1c4.5-0.6,7.3-1.5,9.7-2.9H65.4z M64.6,154.2c0-1,0-1.7-0.1-2.6
		c0.9,0,1.7,0.1,3.7,0.1h13.4c1.9,0,2.8,0,3.7-0.1c-0.1,0.9-0.1,1.6-0.1,2.6v2.5c0,1,0,1.7,0.1,2.6c-1.2-0.1-2.2-0.1-3.7-0.1H68.2
		c-1.8,0-2.5,0-3.7,0.1c0.1-1.2,0.1-1.5,0.1-2.6V154.2z M66.3,165.5h16.9V164H66.3V165.5z M66.3,169.7h16.9v-1.5H66.3V169.7z
		 M66.3,174h16.9v-1.6H66.3V174z M69.2,156.4h11.3v-1.6H69.2V156.4z"/>
	<path class="st0" d="M125.8,178.3c1.6,0.2,3,0.2,5,0.2c2.9,0,5.3-0.1,7.8-0.3c-0.7,1.9-0.9,3-1.2,5c-1.6,0-3.4,0-4.7,0
		c-6.7,0-10.4-0.6-13.3-2c-1.9-0.9-3.7-2.4-5.3-4.3c-1.6,3.1-2.4,4.3-4.9,7.3c-1.5-1.6-1.6-1.8-3.6-3.2c-0.5,2.2-1.7,2.8-5.5,2.8
		c-1,0-2.2,0-3.9-0.1c-0.1-2-0.4-3.1-1.1-4.8c1.8,0.2,2.9,0.3,4,0.3c1.4,0,1.6-0.2,1.6-1.4v-10.6c-1.1,0.4-1.6,0.6-2.5,0.9
		c-1.1,0.4-1.8,0.7-2.4,0.9l-0.8-5.2c1.3-0.1,3-0.6,5.7-1.5v-8.4h-2c-1.1,0-2.1,0-3.4,0.2v-5c1.2,0.2,2.1,0.3,3.5,0.3h1.9v-3.7
		c0-2.3,0-3.4-0.3-4.8h5.6c-0.2,1.4-0.3,2.4-0.3,4.7v3.8h1.6c1.9,0,1.9,0,2,0c0,0,0.2,0,0.4,0c0.1,0,0.2,0,0.4-0.1v4.9
		c-1-0.1-1.7-0.1-2.8-0.1h-1.6v6.6c1.7-0.7,2.2-0.8,4.1-1.7v2.1c1.1,0.1,2.3,0.2,3.9,0.2h19.6c1.9,0,3.1,0,4.3-0.2v4.8
		c-1.3-0.2-2.5-0.2-4.3-0.2h-7.5v3.9h5.9c1.9,0,3.1,0,4.2-0.2v4.6c-1.3-0.2-2.3-0.2-4.2-0.2h-5.9V178.3z M117.4,168.1
		c-0.1,0.4-0.3,0.9-0.8,2.7c-0.2,0.6-0.3,1-0.6,1.8c1.3,2,2.7,3.2,4.9,4.4v-11.7h-7.6c-1.6,0-2.6,0-3.6,0.2v-1.9
		c-1.6,0.7-2.1,0.9-3.9,1.6v14c0,0.4,0,0.7,0,1.2c1.8-1.7,3-3.1,4.1-5.2c1.4-2.5,2.4-5.5,2.7-8.3L117.4,168.1z M115.8,158.8
		c-1.9,0-2.6,0-3.9,0.1c0-0.7,0.1-2.3,0.1-4.8v-7.4c0-1.8,0-3.2-0.1-4.4c1.4,0.1,2.8,0.2,4.6,0.2h14c1.9,0,3.1,0,4.5-0.2
		c-0.2,1.1-0.2,2.4-0.2,4.2v7.8c0,1.7,0,1.9,0.2,4.7c-1.2-0.1-2.7-0.1-4.7-0.1H115.8z M116.8,148.6h13.1v-2.2h-13.1V148.6z
		 M116.8,154.8h13.1v-2.3h-13.1V154.8z"/>
	<path class="st0" d="M155.8,141.6c-0.2,0.6-0.4,0.9-0.7,1.9c-1.1,3.6-1.9,5.5-3.3,8.4v26.6c0,1.6,0.1,3.9,0.2,5.5h-5.6
		c0.2-1.6,0.3-3.1,0.3-5.5v-13.3c0-2.6,0-3.3,0.1-5.3c-1.3,2.3-2.2,3.5-3.9,5.4c-0.8-2.9-1.1-3.6-2.1-5.7c4.8-5,8.6-12.9,9.5-19.5
		L155.8,141.6z M166.9,172.5c-3.3,5.3-5.8,8-10.6,11.7c-1.6-1.8-2.3-2.6-4.1-4c2.6-1.6,3.9-2.7,5.8-4.7c1.8-1.9,2.7-3.1,4.3-5.9
		L166.9,172.5z M172.7,149.8V145c0-1.6,0-2.8-0.2-3.9h5.6c-0.2,1.3-0.3,2.5-0.3,4v4.7h2.1c2,0,3.2-0.1,4.5-0.3v5.4
		c-1.3-0.2-2.5-0.3-4.5-0.3h-2.1v9.7h3.4c2.1,0,3.1,0,4.5-0.3v5.4c-1.3-0.2-2.5-0.3-4.5-0.3h-23.1c-1.9,0-3.1,0.1-4.5,0.3V164
		c1.2,0.2,2.4,0.3,4.5,0.3h2.7v-9.7h-1.4c-2,0-3.1,0-4.5,0.3v-5.4c1.3,0.2,2.7,0.3,4.5,0.3h1.4v-4.8c0-1.4-0.1-2.5-0.3-3.9h5.6
		c-0.2,1.2-0.2,2.3-0.2,3.9v4.8H172.7z M172.7,164.3v-9.7h-6.9v9.7H172.7z M175.7,169.4c1.7,2.6,2.7,3.9,4.6,5.8c2,2,3.2,3,5.6,4.4
		c-1.3,1.3-1.9,2-3.8,4.5c-2.4-1.8-3.6-2.9-5.6-5c-2.3-2.4-3.4-3.9-5.3-6.9L175.7,169.4z"/>
	<path class="st0" d="M216.2,162.3c0,3.1-2.5,5.6-5.6,5.6s-5.6-2.5-5.6-5.6s2.5-5.6,5.6-5.6S216.2,159.2,216.2,162.3z"/>
	<path class="st0" d="M241.8,146.6c-2,0-3.8,0.1-5.1,0.2v-5c1.5,0.2,3.2,0.3,5.2,0.3h11.5c2,0,3.7-0.1,5.3-0.3v5
		c-1.3-0.1-3.1-0.2-4.8-0.2h-1.5v3.9h0.7c2.4,0,3.5,0,4.8-0.2c-0.1,1.5-0.1,3.2-0.1,5.2V178c0,2.3,0,3.8,0.2,5.2h-4.5v-1.8h-11.1
		v2.6h-4.7c0.2-1.8,0.3-3.6,0.3-6.4v-21.8c0-2.4,0-4-0.2-5.6c1.3,0.1,2.4,0.2,4.8,0.2h1v-3.9H241.8z M242.3,169.4h11.1v-3.7
		c-0.4,0-0.8,0-1.3,0c-3.1,0-3.5-0.3-3.5-2.1v-9.2h-1.3v0.6c0,2.8-0.4,6.5-0.9,8.8c-0.4,1.9-0.8,2.9-2.1,5c-0.5-1.4-1-2.3-2-3.5
		V169.4z M242.3,164.9c1.3-2.7,1.7-5,1.8-10.4h-1.8V164.9z M242.3,177.1h11.1v-3.7h-11.1V177.1z M247.3,150.5h1.3v-3.9h-1.3V150.5z
		 M251.7,161c0,0.8,0,0.8,1.7,0.8v-7.4h-1.7V161z M277.5,157.1c0,1.9,0,3.2,0.2,4.6c-1.5-0.1-2.6-0.2-4.7-0.2h-7.6v15.4
		c0,0.8,0.1,1.1,0.4,1.3c0.4,0.2,1.7,0.4,3.3,0.4c3.5,0,4.4-0.3,4.8-1.5c0.3-1,0.5-3.5,0.5-6.9c2,1.1,3.2,1.6,4.9,1.9
		c-0.3,5.6-0.7,7.9-1.6,9.2c-1.2,1.5-3.5,2-8.9,2c-7.3,0-8.4-0.6-8.4-4.9v-17.2c0-2.3,0-3.1-0.2-4.6c1.4,0.1,2.7,0.2,4.7,0.2h7.6
		l0-9.9H265c-2.4,0-3.8,0-5.2,0.2v-5.3c1.5,0.2,3.1,0.3,5.3,0.3h7.8c2.1,0,3.5,0,4.8-0.2c-0.1,1.6-0.2,2.5-0.2,4.7V157.1z"/>
	<path class="st0" d="M283.1,158.6c1.2,0.2,1.9,0.2,3.7,0.2h3.5c1.4,0,2.4,0,3.6-0.2c-0.1,1.4-0.2,2.6-0.2,5.1v10.1
		c0.9,1.6,1.9,2.5,3.7,3.3c1.9,0.9,5,1.2,11.8,1.2c7.7,0,13-0.2,18-0.8c-0.9,2.7-1.1,3.4-1.4,5.4c-4.5,0.2-11.2,0.3-16,0.3
		c-6.8,0-10.2-0.3-12.5-0.9c-2.3-0.7-4.2-2-6-4.2c-2.4,2.2-3.3,3-5.5,4.5c-0.4,0.3-1,0.8-1.4,1.1l-2.3-5.4c1.8-0.8,4.2-2.5,6.6-4.7
		v-10.1h-2.5c-1.3,0-2,0-3.1,0.2V158.6z M287.2,141.2c3.7,3.2,5.3,5,7.7,8.2l-3.9,3.8c-2.4-3.5-3.9-5.2-7.6-8.5L287.2,141.2z
		 M300.8,148c-2.2,0-3.1,0-4.2,0.1v-4.4c1.2,0.2,2.5,0.2,4.7,0.2h6.2c0-1.6-0.1-2.4-0.2-3.4h5.4c-0.1,0.9-0.2,2-0.2,3.4h6.7
		c1.9,0,3.4-0.1,4.7-0.2v4.5c-1.2-0.1-2.4-0.2-4.2-0.2h-7.2v2.3h8.8c2.4,0,3.4,0,4.6-0.2v4.5c-1.3-0.1-2.3-0.2-4.6-0.2h-1.9
		c-0.6,1.5-0.9,2.2-1.4,3.2h2.6c2.4,0,3.3,0,4.6-0.2v4.4c-1.2-0.1-2.2-0.2-4.6-0.2h-8v2.3h6.8c1.8,0,3.1,0,4.2-0.2v4.1
		c-1.1-0.1-2.5-0.2-4.2-0.2h-6.8v2.3h8.4c2.2,0,3.3,0,4.6-0.2v4.3c-1.2-0.2-2.5-0.2-4.6-0.2h-8.5c0,1.6,0,2.6,0.2,3.7h-5.4
		c0.1-1,0.2-2,0.2-3.7H300c-2.2,0-3.3,0-4.5,0.2v-4.3c1.2,0.2,2.3,0.2,4.5,0.2h7.5v-2.3h-6.2c-1.7,0-3.1,0-4.2,0.2v-4.1
		c1,0.1,2.4,0.2,4.2,0.2h6.2v-2.3h-7c-2.4,0-3.4,0-4.6,0.2v-4.4c1.2,0.1,2.1,0.2,4.6,0.2h1.7c-0.3-1-0.8-2-1.4-3.2h-1.4
		c-2.4,0-3.3,0-4.6,0.2v-4.5c1.1,0.1,2.1,0.2,4.6,0.2h8V148H300.8z M305.6,154.4c0.5,1.1,0.8,1.8,1.3,3.2h6.1
		c0.6-1.2,0.8-1.9,1.3-3.2H305.6z"/>
	<path class="st0" d="M342.6,146.7c-0.3,1.2-0.3,2.4-0.5,5.7c-0.2,3.9-0.4,12.4-0.4,15.4c0,4,0.3,5.5,1.1,6.8c1,1.4,3,2.2,5.6,2.2
		c4.5,0,8.2-2.6,10.2-7.2c0.9-2.2,1.5-4.2,1.9-7.1c2.3,1.8,3,2.3,5.1,3.2c-1.7,5.7-2.9,8.4-5,10.7c-3.2,3.6-7.3,5.3-12.6,5.3
		c-2.9,0-5.6-0.7-7.4-1.8c-2.9-1.9-4.1-5.2-4.1-10.8c0-2.2,0.1-6.4,0.3-16.9c0-1.3,0-2.1,0-2.7c0-1.2,0-1.8-0.2-2.9L342.6,146.7z"/>
	<path class="st0" d="M405,180.6c-1.8-2.1-4.7-4.2-7.8-5.8c-0.9-0.5-1.3-0.6-2.3-1.1c0,0.2,0,0.4,0,0.5c0,2.6-0.8,4.5-2.4,5.7
		c-1.6,1.2-3.9,1.8-6.9,1.8c-6.1,0-9.7-2.4-9.7-6.6c0-4.6,4.2-7.3,11.2-7.3c1,0,1.7,0,2.8,0.2c0-0.5,0-0.5,0-1c0-0.2,0-0.5,0-0.9
		c0-0.6,0-0.6-0.1-2.3c-2,0-3.3,0.1-4.2,0.1c-2.6,0-4.1,0-7.6-0.3c-0.5,0-1,0-1.6,0l0.1-4.5c1.8,0.4,5.8,0.7,9.8,0.7
		c0.8,0,2.3,0,3.4-0.1c0-0.4,0-1.8,0-4.2c-1.3,0-2,0-2.6,0c-2.1,0-7.5-0.2-10.3-0.4c-0.5,0-0.8,0-0.9,0c-0.2,0-0.4,0-0.7,0l0-4.7
		c2.1,0.5,6.5,0.9,11.3,0.9c0.7,0,2.1,0,3.2-0.1c0-4.2,0-4.2-0.2-5.3h5.3c-0.2,1.1-0.3,1.7-0.3,5.1c5.7-0.3,9.4-0.8,12.1-1.6
		l0.2,4.7c-0.9,0-0.9,0-3.3,0.4c-3.7,0.5-5.3,0.6-9,0.8c0,1,0,1.6,0.1,4.2c2.1-0.1,2.1-0.1,6-0.5c2.6-0.3,3.3-0.4,5.2-0.9l0.1,4.6
		c-0.7,0-1.8,0.2-2.7,0.3c-0.6,0.1-2.5,0.3-5.7,0.6c-0.6,0-1.2,0.1-2.9,0.2c0.1,4.1,0.1,4.1,0.2,5.1c3.7,1.1,7,2.7,11.5,5.9
		c0.7,0.5,0.9,0.6,1.5,1L405,180.6z M386.7,172.1c-3.4,0-5.5,1.1-5.5,2.9c0,1.6,1.8,2.5,4.8,2.5c1.8,0,3.1-0.5,3.7-1.3
		c0.3-0.5,0.5-1.4,0.5-2.7c0-0.2,0-1,0-1C388.8,172.2,387.9,172.1,386.7,172.1z"/>
	<path class="st0" d="M439.2,161.4c0,0.2,0,0.5,0,1c0.9,1.9,1.3,3.7,1.3,5.9c0,4.6-2.2,8.5-6.3,11.3c-1.8,1.2-3.7,2.1-7.6,3.4
		c-1.2-2.6-1.6-3.2-3-4.7c3.4-0.7,5.2-1.3,7.1-2.4c2.9-1.6,4.5-3.8,4.9-6.1c-1.2,1.9-3.4,3-6.2,3c-1.9,0-3.4-0.5-4.9-1.5
		c-2-1.4-2.9-3.3-2.9-5.7c0-4.5,3.5-7.6,8.4-7.6c1.8,0,3.4,0.5,4.4,1.3c0-0.2,0-0.2,0-0.5c0-0.1,0-2.4,0-3.6c-6,0.2-10,0.3-11.8,0.4
		c-6.3,0.5-6.3,0.5-7.5,0.6l-0.2-5c0.9,0.1,1.3,0.1,2.1,0.1c1,0,1.7,0,7.1-0.2c2.7-0.1,3.2-0.1,6.6-0.2c1.4,0,1.4,0,3.6-0.1
		c0-4,0-4-0.3-5.1l5.3,0c-0.2,1.3-0.2,1.4-0.2,5c7.3,0,10.6-0.1,12.1-0.3l0,4.8c-1.6-0.1-3.6-0.2-7.1-0.2c-1,0-1.8,0-5.1,0.1v2.7
		L439.2,161.4z M430.6,161.9c-2.1,0-3.9,1.5-3.9,3.4c0,1.9,1.5,3.3,3.6,3.3c2.4,0,4.1-1.6,4.1-3.8
		C434.4,163,432.9,161.9,430.6,161.9z"/>
	<path class="st0" d="M470,176.4c0,3.9-3.2,7.1-7.1,7.1c-3.9,0-7.1-3.2-7.1-7.1c0-3.9,3.2-7.1,7.1-7.1
		C466.9,169.3,470,172.5,470,176.4z M459.1,176.4c0,2.1,1.7,3.9,3.8,3.9s3.8-1.7,3.8-3.9c0-2.1-1.7-3.8-3.8-3.8
		S459.1,174.3,459.1,176.4z"/>
</g>
</svg>
