<svg id="Line_17" data-name="Line 17" xmlns="http://www.w3.org/2000/svg" viewBox="0 0 28 28"><defs><style>.cls-1{fill:#fff;}</style></defs><g id="_5" data-name="5"><path class="cls-1" d="M337,933h-7a1,1,0,0,0,0,2l4.39,0-15.08,14.39a.94.94,0,0,0,0,1.38,1.05,1.05,0,0,0,1.44,0L336,936.22l0,4.78a1,1,0,0,0,2,0v-7A1,1,0,0,0,337,933Zm-1,24a2,2,0,0,1-2,2l-20.07,0a2,2,0,0,1-2-2L312,937a2,2,0,0,1,2-2h11v-2H314c-2.17,0-4,2.22-4,4.39v19.68a3.93,3.93,0,0,0,3.93,3.93h19.68c2.17,0,4.39-1.83,4.39-4V946h-2Z" transform="translate(-310 -933)"/></g></svg>