<svg xmlns="http://www.w3.org/2000/svg" width="173.813" height="13.72" viewBox="0 0 347.625 27.44">
  <defs>
    <style>
      .cls-1 {
        fill-rule: evenodd;
      }
    </style>
  </defs>
  <path id="OFFICIAL_SITE" data-name="OFFICIAL SITE" class="cls-1" d="M214.567,1096.8a13.725,13.725,0,1,0,13.721,13.72A13.7,13.7,0,0,0,214.567,1096.8Zm0,23.14a9.435,9.435,0,1,1,9.451-9.42A9.4,9.4,0,0,1,214.567,1119.94Zm26.318-22.89V1124h4.341v-11.31h10.851v-4.02H245.226v-7.6h12.5v-4.02H240.885Zm29.61,0V1124h4.341v-11.31h10.851v-4.02H274.836v-7.6h12.5v-4.02H270.5Zm33.916,0V1124h-4.306v-26.95h4.306Zm26.5,22.89a9.435,9.435,0,0,1,0-18.87,9.646,9.646,0,0,1,6.721,2.8l3.01-3.04a13.806,13.806,0,0,0-9.731-4.03,13.725,13.725,0,0,0,0,27.45,13.848,13.848,0,0,0,9.731-4.03l-3.01-3.05A9.576,9.576,0,0,1,330.906,1119.94Zm26.284-22.89V1124h-4.305v-26.95h4.305ZM390.722,1124h4.69l-11.131-26.95H379.8L368.739,1124H373.5l2.24-5.5h12.706Zm-13.337-9.52,4.656-11.45,4.725,11.45h-9.381Zm29.574-17.43V1124h16.662v-4.03H411.265v-22.92h-4.306Zm55.826,27.2c5.215,0,9.03-3.16,9.03-7.92a7.453,7.453,0,0,0-5.04-7.45c-1.785-.77-3.535-1.3-5.111-1.89-1.295-.46-2.835-1.23-2.835-2.87,0-1.82,1.575-3.01,3.64-3.01a4.654,4.654,0,0,1,3.816,2.2l3.71-2.27c-1.61-2.17-3.745-4.24-7.491-4.24-4.445,0-7.98,2.84-7.98,7.35,0,3.29,2.2,5.64,5.11,6.69,1.68,0.63,2.66.91,4.131,1.47,2.87,1.05,3.885,2.55,3.78,4.27-0.21,2.06-2.205,3.32-4.585,3.32a5.638,5.638,0,0,1-5.216-3.39l-3.85,1.99A9.885,9.885,0,0,0,462.785,1124.25Zm26.109-27.2V1124h-4.305v-26.95h4.305Zm19.25,4.02V1124h4.271v-22.93h6.79v-4.02H501.318v4.02h6.826Zm23.484-4.02V1124h16.837v-4.03H535.934v-7.28H546.82v-4.02H535.934v-7.6h12.531v-4.02H531.628Z" transform="translate(-200.844 -1096.81)"/>
</svg>
