<svg xmlns="http://www.w3.org/2000/svg" width="210.141" height="13.72" viewBox="0 0 420.281 27.44">
  <defs>
    <style>
      .cls-1 {
        fill-rule: evenodd;
      }
    </style>
  </defs>
  <path id="OFFICIAL_GOODS" data-name="OFFICIAL GOODS" class="cls-1" d="M178.5,1163.8a13.725,13.725,0,1,0,13.721,13.72A13.7,13.7,0,0,0,178.5,1163.8Zm0,23.14a9.435,9.435,0,1,1,9.451-9.42A9.4,9.4,0,0,1,178.5,1186.94Zm26.318-22.89V1191h4.341v-11.31H220.01v-4.02H209.159v-7.6h12.5v-4.02H204.818Zm29.61,0V1191h4.341v-11.31H249.62v-4.02H238.769v-7.6h12.5v-4.02H234.428Zm33.915,0V1191h-4.305v-26.95h4.305Zm26.5,22.89a9.435,9.435,0,0,1,0-18.87,9.646,9.646,0,0,1,6.721,2.8l3.01-3.04a13.806,13.806,0,0,0-9.731-4.03,13.725,13.725,0,0,0,0,27.45,13.848,13.848,0,0,0,9.731-4.03l-3.01-3.05A9.576,9.576,0,0,1,294.839,1186.94Zm26.284-22.89V1191h-4.305v-26.95h4.305ZM354.655,1191h4.69l-11.131-26.95h-4.481L332.672,1191h4.761l2.24-5.5h12.706Zm-13.337-9.52,4.656-11.45,4.725,11.45h-9.381Zm29.574-17.43V1191h16.662v-4.03H375.2v-22.92h-4.306Zm60.481,27.2a13.686,13.686,0,0,0,11.761-6.69v-8.96H431.478v4.02h7.386v3.61a9.205,9.205,0,0,1-7.491,3.71,9.435,9.435,0,0,1,0-18.87,9.65,9.65,0,0,1,6.721,2.8l3.01-3.04a13.808,13.808,0,0,0-9.731-4.03A13.725,13.725,0,0,0,431.373,1191.25Zm37.554-27.45a13.725,13.725,0,1,0,13.722,13.72A13.7,13.7,0,0,0,468.927,1163.8Zm0,23.14a9.435,9.435,0,1,1,9.451-9.42A9.4,9.4,0,0,1,468.927,1186.94Zm38.64-23.14a13.725,13.725,0,1,0,13.722,13.72A13.7,13.7,0,0,0,507.567,1163.8Zm0,23.14a9.435,9.435,0,1,1,9.451-9.42A9.4,9.4,0,0,1,507.567,1186.94Zm26.318,4.06h8.226a13.475,13.475,0,1,0,0-26.95h-8.226V1191Zm4.306-4.03v-18.9h3.815a9.451,9.451,0,0,1,0,18.9h-3.815Zm37.835,4.28c5.215,0,9.031-3.16,9.031-7.92a7.453,7.453,0,0,0-5.041-7.45c-1.785-.77-3.535-1.3-5.11-1.89-1.295-.46-2.836-1.23-2.836-2.87,0-1.82,1.576-3.01,3.641-3.01a4.654,4.654,0,0,1,3.815,2.2l3.711-2.27c-1.611-2.17-3.746-4.24-7.491-4.24-4.446,0-7.981,2.84-7.981,7.35,0,3.29,2.205,5.64,5.111,6.69,1.68,0.63,2.66.91,4.13,1.47,2.87,1.05,3.885,2.55,3.78,4.27-0.21,2.06-2.2,3.32-4.585,3.32a5.639,5.639,0,0,1-5.216-3.39l-3.85,1.99A9.885,9.885,0,0,0,576.026,1191.25Z" transform="translate(-164.781 -1163.81)"/>
</svg>
