<svg width="240" height="25" viewBox="0 0 240 25" fill="none" xmlns="http://www.w3.org/2000/svg">
<path d="M3.86033 22.9873V24H1V5.23681H7.93869C8.58192 3.704 9.11566 2.10277 9.43044 0.939476L12.7698 1.5827C12.3318 2.67756 11.7433 3.93666 11.1001 5.23681H20.5843V24H17.683V22.9873H3.86033ZM17.683 12.6271V7.78236H3.86033V12.6271H17.683ZM17.683 20.4006V15.2137H3.86033V20.4006H17.683Z" fill="white" stroke="white" stroke-width="0.1878" stroke-miterlimit="10"/>
<path d="M33.6538 4.96309C33.4211 6.87909 33.2706 8.65825 33.2706 10.2458C33.2706 15.679 34.9676 18.9773 36.5141 18.9773C37.39 18.9773 38.2385 17.3898 38.7312 15.0495L41.222 16.117C40.2503 20.168 38.7038 22.1798 36.6373 22.1798C33.7085 22.1798 30.3145 18.2383 30.3145 10.3142C30.3145 8.63088 30.3966 6.71487 30.5745 4.67569L33.6538 4.96309ZM46.3405 4.14194C50.1725 7.98764 51.4042 12.0113 51.6095 17.6772L48.3934 17.9509C48.3386 12.3397 47.2301 9.01408 43.836 5.71581L46.3405 4.14194Z" fill="white" stroke="white" stroke-width="0.1878" stroke-miterlimit="10"/>
<path d="M79.5705 21.4134L76.8471 23.2473C75.0405 20.907 72.4539 18.252 69.9768 16.1717C67.2807 19.1552 64.0645 21.5366 60.6431 23.2199L58.686 20.8386C65.5563 17.8414 70.9485 11.6828 72.5223 6.6875H60.4104V4.03245H74.3289L76.4365 5.19575C75.3827 8.4256 73.7814 11.3817 71.8107 13.9546C74.5342 16.2265 77.3671 18.9636 79.5705 21.4134Z" fill="white" stroke="white" stroke-width="0.1878" stroke-miterlimit="10"/>
<path d="M92.0515 23.3841L89.766 21.0712C95.0624 18.8405 96.1709 16.4318 96.3215 11.9839H86.5225V9.35622H107.845V11.9839H99.3871C99.2092 17.075 97.8132 20.4964 92.0515 23.3841ZM104.971 3.34816V5.97584H89.4102V3.34816H104.971Z" fill="white" stroke="white" stroke-width="0.1878" stroke-miterlimit="10"/>
<path d="M137.721 11.0122V14.0094H116.686V11.0122H137.721Z" fill="white" stroke="white" stroke-width="0.1878" stroke-miterlimit="10"/>
<path d="M154.733 11.2175L153.351 13.6262C151.53 12.6271 148.821 11.4912 146.686 10.7659L148.095 8.32979C150.285 9.08251 153.145 10.3416 154.733 11.2175ZM165.339 8.17925L167.324 10.3416C163.752 15.8843 156.526 21.0439 149.601 23.0967L148.027 20.3459C154.842 18.6899 161.863 13.722 165.339 8.17925ZM157.443 5.78424L156.006 8.13819C154.226 7.09807 151.653 5.90741 149.573 5.14101L150.983 2.78706C153.241 3.62189 155.841 4.88098 157.443 5.78424ZM162.712 3.11551C163.916 4.03246 164.737 4.82624 165.722 6.0169L164.34 7.20755C163.437 6.04426 162.561 5.19575 161.411 4.33354L162.712 3.11551ZM165.545 0.980534C166.749 1.87011 167.556 2.69125 168.528 3.85454L167.159 5.04521C166.229 3.90929 165.353 3.06077 164.203 2.14382L165.545 0.980534Z" fill="white" stroke="white" stroke-width="0.1878" stroke-miterlimit="10"/>
<path d="M175.617 14.4473C175.617 8.78142 180.325 3.37554 187.031 3.37554C194.435 3.37554 197.322 7.59076 197.322 12.5587C197.322 17.3213 195.105 21.4408 187.701 23.0146L186.292 20.3048C192.587 19.2647 194.284 16.3086 194.284 12.6134C194.284 8.91828 192.259 6.38641 187.907 6.14007C187.523 15.4464 184.567 21.7829 180.503 21.7829C177.601 21.7829 175.617 18.2383 175.617 14.4884V14.4473V14.4473ZM178.422 14.3926C178.422 16.7739 179.394 18.6352 180.585 18.6352C182.336 18.6352 184.704 14.2694 184.95 6.31799C180.831 7.19388 178.422 10.6153 178.422 14.3926Z" fill="white" stroke="white" stroke-width="0.1878" stroke-miterlimit="10"/>
<path d="M221.259 14.0231C219.275 13.5714 217.318 13.2567 215.552 13.1609C215.087 14.4747 214.622 15.7201 214.184 16.7602C212.802 19.9627 211.406 21.2218 209.353 21.2218C207.013 21.2218 205.699 19.1416 205.699 16.7055C205.699 13.3798 207.943 10.6974 213.513 10.5469C214.074 8.78142 214.594 6.9749 214.978 5.41472C213.253 5.56527 210.119 5.81161 207.779 5.96215L207.546 3.27974C210.42 3.27974 214.389 3.0334 216.552 2.73231L218.604 3.92298C217.961 5.7295 217.195 8.19294 216.387 10.6564C218.03 10.7795 219.809 11.0533 221.615 11.3954C221.725 10.1363 221.766 8.76774 221.766 7.27599L224.695 7.33073C224.667 9.01408 224.571 10.5879 224.38 11.9976C225.557 12.2987 226.747 12.6134 227.897 12.9419L226.898 15.6517C225.926 15.3232 224.914 15.0084 223.914 14.7347C222.984 18.6625 221.04 21.4681 217.017 23.3978L215.169 21.1671C218.947 19.5521 220.534 17.2255 221.259 14.0231ZM208.299 16.5549C208.299 17.5951 208.682 18.3204 209.38 18.3204C210.147 18.3204 210.721 17.7456 211.543 15.9391C211.898 15.1453 212.282 14.201 212.651 13.1609C209.271 13.4483 208.299 14.7074 208.299 16.5549Z" fill="white" stroke="white" stroke-width="0.1878" stroke-miterlimit="10"/>
<path d="M239.652 20.7017C239.652 22.4946 238.133 23.9726 236.231 23.9726C234.356 23.9726 232.81 22.4809 232.81 20.6744C232.81 18.8678 234.356 17.3761 236.231 17.3761C238.133 17.3761 239.652 18.8678 239.652 20.6744V20.7017ZM234.096 20.7017C234.096 21.824 235.054 22.7683 236.231 22.7683C237.408 22.7683 238.393 21.824 238.393 20.688C238.393 19.5658 237.422 18.6215 236.231 18.6215C235.04 18.6215 234.096 19.5658 234.096 20.688V20.7017Z" fill="white" stroke="white" stroke-width="0.1878" stroke-miterlimit="10"/>
</svg>
