<svg width="127" height="24" viewBox="0 0 127 24" fill="none" xmlns="http://www.w3.org/2000/svg">
<path d="M17.5324 7.63768C17.4503 8.10299 17.3545 8.55462 17.2724 9.00625C20.5707 9.95057 22.3361 12.1813 22.3361 15.3154C22.3361 19.2569 20.2011 22.0214 14.152 22.8426L13.0435 20.3791C17.8746 19.8864 19.4484 18.2441 19.4484 15.3428C19.4484 13.5362 18.422 12.1677 16.5744 11.4423C15.4111 14.8911 13.4814 17.5462 11.2233 19.3116C11.3738 19.8591 11.5517 20.4065 11.757 20.8992L9.06093 21.8982C8.95144 21.5561 8.85563 21.2003 8.74615 20.8308C7.36389 21.474 5.91319 21.8024 4.50356 21.8024C2.16329 21.8024 1 20.1875 1 17.7788C1 14.3574 3.62767 11.1549 7.70603 9.56736C7.76077 8.55462 7.8292 7.45976 7.91132 6.3649H1.71166V3.88777H8.2124C8.33558 2.8887 8.47243 1.93071 8.65035 0.986389L11.5107 1.2601C11.3328 2.10862 11.1548 2.99819 11.018 3.88777H21.4602V6.3649H10.6895C10.6074 7.21342 10.539 8.03456 10.4842 8.80096C11.4423 8.65042 12.4139 8.55462 13.4404 8.55462C13.8236 8.55462 14.1931 8.55462 14.5489 8.58199C14.631 8.1851 14.6995 7.78821 14.7268 7.36395L17.5324 7.63768ZM3.61398 17.5599C3.61398 18.6547 4.13404 19.12 5.18785 19.12C6.15954 19.12 7.19966 18.8189 8.22609 18.2715C7.91132 16.4103 7.7334 14.33 7.70603 12.1129C5.21522 13.372 3.61398 15.4112 3.61398 17.5599ZM13.2625 10.8812C12.2634 10.8812 11.3054 10.977 10.4021 11.1823V11.237C10.4021 13.0983 10.4842 14.809 10.6895 16.3966C12.0307 15.028 13.1803 13.1667 13.9604 10.9086C13.7278 10.8812 13.4951 10.8812 13.2625 10.8812Z" fill="white" stroke="white" stroke-width="0.1878" stroke-miterlimit="10"/>
<path d="M47.2162 1.94439L48.6532 3.92882C46.4908 5.63954 43.302 8.29459 41.4544 9.96425C42.4809 9.59474 43.5073 9.41682 44.698 9.41682C48.8585 9.41682 51.2261 12.3729 51.2261 15.726C51.2261 19.9001 48.0647 22.5004 42.125 22.5004C38.1151 22.5004 35.898 20.9129 35.898 18.5589C35.898 16.4239 37.9235 14.7816 40.866 14.7816C43.8221 14.7816 45.5191 16.4924 46.0118 19.3938C47.4762 18.7231 48.27 17.5599 48.27 15.7944C48.27 13.6047 46.5729 11.7434 43.8768 11.7434C42.7956 11.7434 41.2218 11.9898 39.9353 12.4688C37.9098 13.2352 35.1042 15.2743 32.9419 17.204L31.0122 15.0417C34.8716 12.3319 40.4554 7.56924 43.302 4.85946C41.0576 5.03737 36.6371 5.25634 33.8315 5.35214L33.6536 2.64237C37.3077 2.66974 43.8631 2.36865 47.2162 1.94439ZM40.866 16.9987C39.429 16.9987 38.4983 17.6146 38.4983 18.5179C38.4983 19.4896 39.5521 20.1328 41.8376 20.1328C42.4535 20.1328 43.042 20.078 43.5621 20.037C43.3568 18.162 42.4809 16.9987 40.866 16.9987Z" fill="white" stroke="white" stroke-width="0.1878" stroke-miterlimit="10"/>
<path d="M60.2871 13.7963C60.2871 8.13037 64.995 2.72449 71.701 2.72449C79.105 2.72449 81.9927 6.9397 81.9927 11.9076C81.9927 16.6703 79.7756 20.7897 72.3716 22.3636L70.962 19.6538C77.2575 18.6137 78.9545 15.6575 78.9545 11.9624C78.9545 8.26723 76.929 5.73536 72.5769 5.48902C72.1937 14.7953 69.2376 21.1318 65.1729 21.1318C62.2715 21.1318 60.2871 17.5872 60.2871 13.8373V13.7963V13.7963ZM63.0927 13.7415C63.0927 16.1229 64.0644 17.9841 65.255 17.9841C67.0068 17.9841 69.3745 13.6184 69.6208 5.66693C65.5151 6.54282 63.0927 9.96427 63.0927 13.7415Z" fill="white" stroke="white" stroke-width="0.1878" stroke-miterlimit="10"/>
<path d="M95.1989 1.80753C94.4735 4.85946 94.1177 8.67778 94.1177 12.2361C94.1177 15.767 94.5009 19.2843 95.3768 21.8161L92.4754 22.5141C91.5721 19.5853 91.2163 16.1092 91.2163 12.3866C91.2163 8.60935 91.5995 4.61311 92.2427 1.41064L95.1989 1.80753ZM104.642 5.94063C104.587 4.20254 104.56 2.58761 104.56 1.34221H107.598C107.543 2.38233 107.543 3.72354 107.543 4.99632C107.543 5.29741 107.543 5.61217 107.543 5.94063H111.403V8.54093H107.598C107.68 11.1686 107.803 13.7826 107.886 15.4933C109.377 16.1639 110.746 17.0535 112.032 18.0525L110.335 20.2149C109.514 19.4895 108.693 18.8463 107.845 18.3263C107.516 21.0087 106.038 22.3225 102.617 22.3225C99.1677 22.3225 97.1696 20.4065 97.1696 18.2578C97.1696 16.0544 99.332 14.3848 102.521 14.3848C103.369 14.3848 104.19 14.4532 104.971 14.6037C104.916 12.9341 104.82 10.758 104.765 8.54093H97.3886V5.94063H104.642V5.94063ZM102.452 16.6703C100.755 16.6703 99.7836 17.3135 99.7836 18.2852C99.7836 19.1474 100.755 19.9549 102.452 19.9549C104.533 19.9549 104.971 19.1611 104.998 17.0535C104.177 16.7935 103.328 16.6703 102.452 16.6703Z" fill="white" stroke="white" stroke-width="0.1878" stroke-miterlimit="10"/>
<path d="M121.586 16.1776C123.393 17.7651 125.5 19.8728 126.787 21.4466L124.364 23.3626C123.338 21.9256 121.176 19.4895 119.479 17.9567L121.586 16.1776Z" fill="white" stroke="white" stroke-width="0.1878" stroke-miterlimit="10"/>
</svg>
