<svg width="157" height="23" viewBox="0 0 157 23" fill="none" xmlns="http://www.w3.org/2000/svg">
<path d="M9.71784 2.01869V9.95644C9.71784 14.5959 8.22609 18.469 3.36764 21.6988L1 19.5912C5.83108 16.7172 6.65223 13.6379 6.65223 9.83327V2.01869H9.71784V2.01869ZM17.0534 1.6218V16.8678C19.2431 15.6224 22.254 13.0494 23.9237 10.7092L25.2649 13.46C23.0204 16.2382 19.5853 19.0712 16.3418 21.0282L13.9741 19.6323V1.6218H17.0534Z" fill="white" stroke="white" stroke-width="0.1878" stroke-miterlimit="10"/>
<path d="M54.183 9.71011V12.7073H33.1479V9.71011H54.183Z" fill="white" stroke="white" stroke-width="0.1878" stroke-miterlimit="10"/>
<path d="M68.4703 2.01869V9.95644C68.4703 14.5959 66.9785 18.469 62.1201 21.6988L59.7524 19.5912C64.5835 16.7172 65.4047 13.6379 65.4047 9.83327V2.01869H68.4703V2.01869ZM75.7922 1.6218V16.8678C77.9819 15.6224 80.9928 13.0494 82.6624 10.7092L84.0036 13.46C81.7592 16.2382 78.324 19.0712 75.0805 21.0282L72.7129 19.6323V1.6218H75.7922Z" fill="white" stroke="white" stroke-width="0.1878" stroke-miterlimit="10"/>
<path d="M96.3077 3.93472C96.6362 2.66194 96.8688 1.43022 97.0057 0.307983L100.017 0.650128C99.866 1.64919 99.6334 2.75774 99.3186 3.92103H103.096V6.50764H98.5932C97.3341 10.6544 95.5003 15.0749 93.5979 17.7984L90.9292 16.334C92.7494 13.8295 94.4328 10.1344 95.5824 6.50764H91.8051V3.92103H96.3077V3.93472ZM108.091 8.02676C108.036 8.72473 108.009 9.66905 108.009 10.5313C108.009 11.9956 108.064 13.6379 108.091 15.0065C109.898 15.7045 111.513 16.6899 112.826 17.7163L111.129 19.8239C110.226 19.0027 109.2 18.2637 108.119 17.6615C107.968 20.4398 106.422 21.9315 103.123 21.9315C99.8797 21.9315 97.6763 20.1934 97.6763 17.8668C97.6763 15.7318 99.5239 13.9664 103.027 13.9664C103.794 13.9664 104.574 14.0348 105.313 14.1854C105.286 13.0221 105.258 11.7219 105.258 10.5313C105.258 9.66905 105.258 8.69736 105.286 8.02676H108.091V8.02676ZM103 16.1424C101.152 16.1424 100.14 16.7857 100.14 17.8531C100.14 18.8248 101.194 19.5639 102.795 19.5639C104.601 19.5639 105.395 18.8385 105.395 17.2099C105.395 17.0046 105.395 16.7857 105.368 16.5119C104.574 16.2656 103.766 16.1424 103 16.1424ZM111.8 8.66999C110.254 7.57513 107.297 5.98758 105.162 5.1938L106.531 2.99039C108.748 3.87997 111.622 5.39909 113.251 6.41184L111.8 8.66999Z" fill="white" stroke="white" stroke-width="0.1878" stroke-miterlimit="10"/>
<path d="M126.512 0.677492C126.156 5.98757 126.046 10.9555 126.046 13.2821C126.046 17.5247 127.456 19.0712 130.782 19.0712C133.998 19.0712 136.311 17.4836 138.063 12.242L140.841 13.5284C138.35 20.0565 134.997 21.9178 130.713 21.9178C125.444 21.9178 123.104 19.0164 123.104 13.3505C123.104 10.9966 123.227 5.97388 123.309 0.663803H126.512V0.677492Z" fill="white" stroke="white" stroke-width="0.1878" stroke-miterlimit="10"/>
<path d="M156.265 19.3996C156.265 21.1925 154.746 22.6705 152.844 22.6705C150.969 22.6705 149.422 21.1788 149.422 19.3723C149.422 17.5657 150.969 16.074 152.844 16.074C154.746 16.074 156.265 17.5657 156.265 19.3723V19.3996ZM150.709 19.3996C150.709 20.5219 151.667 21.4662 152.844 21.4662C154.021 21.4662 155.006 20.5219 155.006 19.386C155.006 18.2637 154.034 17.3194 152.844 17.3194C151.653 17.3194 150.709 18.2637 150.709 19.386V19.3996Z" fill="white" stroke="white" stroke-width="0.1878" stroke-miterlimit="10"/>
</svg>
