<svg width="268" height="25" viewBox="0 0 268 25" fill="none" xmlns="http://www.w3.org/2000/svg">
<path d="M13.0435 20.5707V21.296C14.4257 19.9274 14.7953 18.0251 14.9184 15.5617L17.3819 15.6301C17.1218 19.6811 16.3007 22.4593 13.1119 24.0742C12.5782 23.6089 12.0581 23.1573 11.4149 22.6098H6.03637V23.8552H3.54555V15.3153C3.2171 15.7122 2.84758 16.1091 2.49175 16.506L1 14.59C2.64229 12.8245 3.90139 10.8948 4.80465 8.75983H1.46532V6.69328H5.55736C5.76265 6.05005 5.91319 5.40682 6.07742 4.73622H4.96888C4.61305 5.40682 4.20247 6.02268 3.73715 6.62485L1.64323 5.72159C2.77915 4.32564 3.57293 2.66966 3.9835 1L6.22797 1.42426C6.11848 1.84852 5.99531 2.27278 5.84476 2.69704H13.194V4.73622H8.56823C8.44506 5.40682 8.25346 6.05005 8.07555 6.69328H13.4541V8.75983H7.37757C7.09017 9.49887 6.76171 10.2242 6.41957 10.9222H8.08923C8.37663 10.1832 8.60929 9.45781 8.75983 8.88301L11.2096 9.43044C11.0043 9.88207 10.7443 10.4021 10.4432 10.9222H13.2214V12.9066H10.4706V14.2478H12.8382V16.0407H10.4706V17.3819H12.8382V19.1747H10.4706V20.5843H13.0435V20.5707ZM8.07555 14.2478V12.9066H6.05005V14.2478H8.07555V14.2478ZM8.07555 17.3682V16.027H6.05005V17.3682H8.07555ZM8.07555 20.5707V19.161H6.05005V20.5707H8.07555ZM21.1865 20.1738C21.1865 21.1728 21.2686 21.3097 21.6518 21.3097C21.9119 21.3371 22.3772 21.3371 22.6783 21.3097C23.0341 21.2823 23.0888 21.1865 23.1162 19.4211L25.5797 19.7906C25.3744 23.3215 24.909 23.7321 22.8836 23.7868C22.4182 23.8142 21.7476 23.7868 21.3644 23.7868C19.0242 23.7184 18.5588 23.1162 18.5588 20.1601V15.0279H13.9741V1.62955H24.389V15.0279H21.1728V20.1738H21.1865ZM16.6428 5.55736H21.6518V3.7919H16.6428V5.55736ZM16.6428 9.19778H21.6518V7.446H16.6428V9.19778ZM16.6428 12.8793H21.6518V11.0864H16.6428V12.8793Z" fill="white" stroke="white" stroke-width="0.1878" stroke-miterlimit="10"/>
<path d="M39.0868 23.3078V24.0332H36.3633V17.204C35.4601 17.4777 34.5431 17.6967 33.5851 17.9293L31.9839 15.8491C35.638 15.1785 38.9226 14.1384 41.605 12.7698C40.6333 12.0992 39.73 11.4012 38.9089 10.6348C37.8003 11.5791 36.596 12.4276 35.2822 13.1667L33.1198 11.6475C36.2812 10.06 38.8541 7.71973 40.1954 5.31104H35.638V8.14399H32.9419V3.02551H42.4261V1.0137H45.3549V3.02551H55.0581V8.14399H52.2525V5.31104H42.4809L43.2473 5.37946C43.042 5.80372 42.8093 6.20061 42.5219 6.57013H48.0784H48.6668H48.8995L50.925 7.43233C49.8712 9.41677 48.27 11.1275 46.2992 12.5919C49.2006 13.9331 52.5947 14.9321 55.9751 15.4933L54.2506 17.8061C53.3474 17.6009 52.4441 17.3819 51.5545 17.1355V24.0058H48.7216V23.3078H39.0868ZM48.7216 21.0634V18.381H39.0731V21.0634H48.7216V21.0634ZM48.4889 16.1502C46.8877 15.5754 45.3823 14.9048 43.9316 14.1384C42.5904 14.8774 41.126 15.548 39.5658 16.1502H48.4889ZM40.7291 8.88302C41.605 9.7726 42.7135 10.6211 43.9453 11.3601C45.0538 10.5664 46.0255 9.69048 46.8056 8.75985H40.8386L40.7291 8.88302Z" fill="white" stroke="white" stroke-width="0.1878" stroke-miterlimit="10"/>
<path d="M68.607 5.28367C68.9355 4.01089 69.1681 2.77917 69.305 1.65694L72.3159 1.99908C72.1653 2.99814 71.9327 4.10669 71.6179 5.26998H75.3952V7.85659H70.8926C69.6335 12.0034 67.7996 16.4239 65.8972 19.1474L63.2285 17.683C65.0487 15.1785 66.7321 11.4833 67.8817 7.85659H64.1044V5.28367H68.607ZM80.3905 9.37571C80.3357 10.0737 80.3084 11.018 80.3084 11.8802C80.3084 13.3446 80.3631 14.9869 80.3905 16.3555C82.197 17.0534 83.8119 18.0388 85.1258 19.0652L83.4287 21.1729C82.5255 20.3517 81.499 19.6127 80.4178 19.0105C80.2673 21.7887 78.7208 23.2805 75.4225 23.2805C72.179 23.2805 69.9756 21.5424 69.9756 19.2158C69.9756 17.0808 71.8232 15.3153 75.3267 15.3153C76.0931 15.3153 76.8732 15.3838 77.6123 15.5343C77.5849 14.371 77.5575 13.0709 77.5575 11.8802C77.5575 11.018 77.5575 10.0463 77.5849 9.37571H80.3905V9.37571ZM75.2994 17.4914C73.4518 17.4914 72.439 18.1346 72.439 19.2021C72.439 20.1738 73.4928 20.9128 75.0941 20.9128C76.9006 20.9128 77.6944 20.1875 77.6944 18.5589C77.6944 18.3536 77.6944 18.1346 77.667 17.8609C76.8595 17.6145 76.0658 17.4914 75.2994 17.4914ZM84.0856 10.0189C82.5391 8.92408 79.583 7.33653 77.448 6.54276L78.8166 4.33935C81.0337 5.22892 83.9077 6.74804 85.5363 7.76079L84.0856 10.0189Z" fill="white" stroke="white" stroke-width="0.1878" stroke-miterlimit="10"/>
<path d="M98.7984 2.02643C98.4425 7.33651 98.3331 12.3044 98.3331 14.631C98.3331 18.8736 99.7427 20.4201 103.068 20.4201C106.285 20.4201 108.597 18.8326 110.349 13.5909L113.127 14.8774C110.637 21.4055 107.284 23.2668 103 23.2668C97.7309 23.2668 95.3906 20.3654 95.3906 14.6995C95.3906 12.3455 95.5138 7.32282 95.5959 2.01274H98.7984V2.02643Z" fill="white" stroke="white" stroke-width="0.1878" stroke-miterlimit="10"/>
<path d="M127.525 20.7486C127.525 22.5414 126.006 24.0195 124.104 24.0195C122.229 24.0195 120.682 22.5277 120.682 20.7212C120.682 18.9147 122.229 17.4229 124.104 17.4229C126.006 17.4229 127.525 18.9147 127.525 20.7212V20.7486ZM121.969 20.7486C121.969 21.8708 122.927 22.8151 124.104 22.8151C125.281 22.8151 126.266 21.8708 126.266 20.7349C126.266 19.6127 125.294 18.6683 124.104 18.6683C122.913 18.6683 121.969 19.6127 121.969 20.7349V20.7486Z" fill="white" stroke="white" stroke-width="0.1878" stroke-miterlimit="10"/>
<path d="M143.291 7.76079C145.302 8.70511 146.863 9.71785 147.999 10.7443L146.096 12.674C145.07 11.5791 143.578 10.539 141.744 9.59468L143.291 7.76079ZM146.178 14.7953L148.259 16.3144C147.287 18.7915 145.686 22.1035 144.55 23.9647L142.1 22.4046C143.318 20.6665 145.152 17.2998 146.178 14.7953ZM144.221 1.23267C146.069 2.12225 147.533 3.02551 148.587 3.96983L146.712 5.89952C145.74 4.92783 144.344 3.98352 142.647 3.09394L144.221 1.23267ZM160.398 19.6264H153.692L156.21 20.6254C154.691 21.9393 152.529 23.1847 150.503 24.0332L147.725 22.7193C149.75 21.9803 151.844 20.8581 153.363 19.64H149.969V10.4021H155.608V8.97882H151.571V7.96608H149.107V3.14868H155.567V1.0137H158.427V3.14868H165.243V7.96608H162.752V8.97882H158.4V10.3885H164.312V19.6264H160.631C162.683 20.7486 164.408 21.8161 165.954 22.8836L163.121 24.0195C161.78 22.9794 160.083 21.8845 158.085 20.7486L160.398 19.6264ZM162.588 6.77541V5.47526H151.612V6.76173H162.588V6.77541ZM152.638 14.1247H155.594V12.455H152.638V14.1247ZM152.638 17.5461H155.594V15.8628H152.638V17.5461ZM161.506 14.1247V12.455H158.372V14.1247H161.506V14.1247ZM161.506 17.5461V15.8628H158.372V17.5461H161.506Z" fill="white" stroke="white" stroke-width="0.1878" stroke-miterlimit="10"/>
<path d="M182.733 19.9548V12.1813H174.987V3.66873H177.766V9.73153H182.733V1.05475H185.662V9.71784H190.89V3.66873H193.764V12.1813H185.662V19.9548H191.835V13.7004H194.709V24.0468H191.835V22.5551H176.835V24.0468H174.002V13.7004H176.835V19.9548H182.733V19.9548Z" fill="white" stroke="white" stroke-width="0.1878" stroke-miterlimit="10"/>
<path d="M208.709 5.28367C209.037 4.01089 209.27 2.77917 209.407 1.65694L212.417 1.99908C212.267 2.99814 212.034 4.10669 211.719 5.26998H215.497V7.85659H210.994C209.735 12.0034 207.901 16.4239 205.999 19.1474L203.33 17.683C205.15 15.1785 206.834 11.4833 207.983 7.85659H204.206V5.28367H208.709ZM220.492 9.37571C220.437 10.0737 220.41 11.018 220.41 11.8802C220.41 13.3446 220.465 14.9869 220.492 16.3555C222.299 17.0534 223.913 18.0388 225.227 19.0652L223.53 21.1729C222.627 20.3517 221.601 19.6127 220.519 19.0105C220.369 21.7887 218.822 23.2805 215.524 23.2805C212.281 23.2805 210.077 21.5424 210.077 19.2158C210.077 17.0808 211.925 15.3153 215.428 15.3153C216.195 15.3153 216.975 15.3838 217.714 15.5343C217.686 14.371 217.659 13.0709 217.659 11.8802C217.659 11.018 217.659 10.0463 217.686 9.37571H220.492V9.37571ZM215.401 17.4914C213.553 17.4914 212.541 18.1346 212.541 19.2021C212.541 20.1738 213.594 20.9128 215.196 20.9128C217.002 20.9128 217.796 20.1875 217.796 18.5589C217.796 18.3536 217.796 18.1346 217.769 17.8609C216.975 17.6145 216.167 17.4914 215.401 17.4914ZM224.201 10.0189C222.654 8.92408 219.698 7.33653 217.563 6.54276L218.932 4.33935C221.149 5.22892 224.023 6.74804 225.652 7.76079L224.201 10.0189Z" fill="white" stroke="white" stroke-width="0.1878" stroke-miterlimit="10"/>
<path d="M238.899 2.02643C238.544 7.33651 238.434 12.3044 238.434 14.631C238.434 18.8736 239.844 20.4201 243.169 20.4201C246.386 20.4201 248.698 18.8326 250.45 13.5909L253.228 14.8774C250.738 21.4055 247.385 23.2668 243.101 23.2668C237.832 23.2668 235.492 20.3654 235.492 14.6995C235.492 12.3455 235.615 7.32282 235.697 2.01274H238.899V2.02643Z" fill="white" stroke="white" stroke-width="0.1878" stroke-miterlimit="10"/>
<path d="M267.64 20.7486C267.64 22.5414 266.121 24.0195 264.219 24.0195C262.344 24.0195 260.797 22.5277 260.797 20.7212C260.797 18.9147 262.344 17.4229 264.219 17.4229C266.121 17.4229 267.64 18.9147 267.64 20.7212V20.7486ZM262.084 20.7486C262.084 21.8708 263.042 22.8151 264.219 22.8151C265.396 22.8151 266.381 21.8708 266.381 20.7349C266.381 19.6127 265.409 18.6683 264.219 18.6683C263.028 18.6683 262.084 19.6127 262.084 20.7349V20.7486Z" fill="white" stroke="white" stroke-width="0.1878" stroke-miterlimit="10"/>
</svg>
