<svg width="440" height="68" viewBox="0 0 440 68" fill="none" xmlns="http://www.w3.org/2000/svg">
<g clip-path="url(#clip0)">
<path d="M0 0.610001H41.57V12.45H12.01V28.87H37.68V40.71H12.01V67.16H0V0.610001Z" fill="white"/>
<path d="M209.22 28.7H234.89V40.54H209.22V55.32H238.86V67.16H197.21V0.610001H238.86V12.36H209.22V28.7V28.7Z" fill="white"/>
<path d="M403.59 48.49C408.52 53.42 414.48 55.58 419.15 55.49C422.17 55.58 424.59 54.63 425.89 53.5C428.22 51.51 429.78 48.06 426.58 44.25C425.72 43.04 424.16 41.74 421.91 40.45C417.59 37.86 411.37 35.87 405.75 31.89C401.6 29.12 397.54 23.42 397.8 17.11C397.71 11.75 400.48 6.91 404.28 4.15C408.08 1.21 412.75 0 417.5 0C424.07 0 431.15 2.51 436.6 7.95L427.96 16.59C425.02 13.57 420.96 12.18 417.5 12.18C414.91 12.18 412.83 12.96 411.62 13.82C409.03 16.15 409.89 19.26 411.71 20.91C412.75 22.03 414.65 23.24 416.98 24.45C421.82 26.96 428.39 29.12 433.83 34.04C437.46 37.41 440.31 42.68 440.23 48.82C440.32 54.61 437.64 59.79 433.58 63.08C429.52 66.28 424.42 67.75 419.15 67.75C410.94 67.75 402.13 64.29 394.95 57.12L403.59 48.49Z" fill="white"/>
</g>
<defs>
<clipPath id="clip0">
<rect width="440" height="68" fill="white"/>
</clipPath>
</defs>
</svg>
