<svg width="440" height="25" viewBox="0 0 440 25" fill="none" xmlns="http://www.w3.org/2000/svg">
<path d="M9.45 5.52V24.79H5.23V5.52H0V1.38H14.65V5.51H9.45V5.52Z" fill="white"/>
<path d="M54.07 24.78H49.85V15.42H38V24.78H33.75V1.38H38V11.29H49.85V1.38H54.07V24.78Z" fill="white"/>
<path d="M80 11.26H89.03V15.42H80V20.62H90.42V24.78H75.78V1.38H90.43V5.51H80V11.26Z" fill="white"/>
<path d="M128.01 1.38H142.63V5.54H132.24V11.31H141.27V15.47H132.24V24.77H128.02V1.38H128.01Z" fill="white"/>
<path d="M212.98 24.78H208L201.95 15.66H199.34V24.78H195.09V1.38H204.24C207.92 1.38 210.9 4.84 210.9 8.52C210.9 11.35 209.11 14.05 206.61 15.15L212.98 24.78ZM204.23 11.5C205.69 11.5 206.9 10.07 206.9 8.52C206.9 6.97 205.68 5.54 204.23 5.54H199.34V11.5H204.23Z" fill="white"/>
<path d="M234.55 18.22C236.28 19.95 238.38 20.71 240.02 20.68C241.08 20.71 241.93 20.38 242.39 19.98C243.21 19.28 243.76 18.07 242.63 16.73C242.33 16.3 241.78 15.85 240.99 15.39C239.47 14.48 237.28 13.78 235.31 12.38C233.85 11.41 232.42 9.4 232.51 7.18C232.48 5.3 233.45 3.59 234.79 2.62C236.13 1.59 237.77 1.16 239.44 1.16C241.75 1.16 244.24 2.04 246.16 3.96L243.13 7C242.1 5.94 240.67 5.45 239.45 5.45C238.54 5.45 237.81 5.72 237.38 6.03C236.47 6.85 236.77 7.94 237.41 8.52C237.77 8.91 238.44 9.34 239.26 9.77C240.96 10.65 243.27 11.41 245.19 13.14C246.47 14.33 247.47 16.18 247.44 18.34C247.47 20.38 246.53 22.2 245.1 23.35C243.67 24.47 241.88 24.99 240.02 24.99C237.13 24.99 234.03 23.77 231.51 21.25L234.55 18.22Z" fill="white"/>
<path d="M275.07 5.52V24.79H270.85V5.52H265.62V1.38H280.27V5.51H275.07V5.52Z" fill="white"/>
<path d="M322.36 5.52V24.79H318.14V5.52H312.91V1.38H327.56V5.51H322.36V5.52Z" fill="white"/>
<path d="M362.31 24.78L360.67 20.86H349.64L348.06 24.78H343.44L353.04 1.38H357.2L366.86 24.78H362.31ZM355.11 7.46L351.31 16.7H358.97L355.11 7.46Z" fill="white"/>
<path d="M403.73 24.78H398.75L389.94 13.99V24.78H385.72V1.38H389.94V11.56L396.99 1.38H401.73L393.92 12.72L403.73 24.78Z" fill="white"/>
<path d="M426.49 11.26H435.52V15.42H426.49V20.62H436.91V24.78H422.26V1.38H436.91V5.51H426.49V11.26Z" fill="white"/>
<path d="M170.32 0V21.17H174.88V24.79H161.66V21.17H166.19V6.23L161.66 8.45V4.44L170.32 0Z" fill="white"/>
</svg>
