<svg width="223" height="19" viewBox="0 0 223 19" fill="none" xmlns="http://www.w3.org/2000/svg">
<path d="M9.17579 14.3665L8.09785 15.7429C7.68326 15.2123 7.08624 14.5157 6.42289 13.8192V18.2471H4.49917V14.4494C3.80265 15.4942 2.99006 16.4395 2.21062 17.1194L1 15.6434C2.21061 14.7977 3.58707 13.3715 4.38309 11.8457H1.36484V10.2371H4.49917V8.74459H1.24876V7.15257H2.95688C2.90713 6.4063 2.7413 5.52738 2.50913 4.73136H1.54727V3.17248H4.4826V1.46436H6.38972V3.17248H9.32505V4.73136H8.54561C8.3466 5.46104 8.08127 6.3068 7.78276 7.15257H9.44113V8.74459H6.37314V10.2371H9.35821V11.8457H6.37314V11.995C7.41792 12.7911 8.5456 13.7529 9.17579 14.3665ZM6.15755 7.13597C6.38972 6.32336 6.58873 5.44444 6.7214 4.71476H4.21725C4.44942 5.56053 4.59868 6.42287 4.63184 7.13597H6.15755ZM16.1576 18.2471H14.1841V9.07629H12.0945V10.4196C12.0945 13.3881 11.4809 16.1078 9.39138 18.2305L7.6335 17.1028C9.64013 15.2123 10.1376 13.0232 10.1376 10.3864V3.43783H10.801C12.7745 3.07298 15.2123 2.24379 16.5058 1.46436L17.6833 2.94028C16.2902 3.71972 14.0182 4.51577 12.0945 4.94695V7.26867H18.0149V9.05969H16.1576V18.2471V18.2471Z" fill="white" stroke="white" stroke-width="0.1878" stroke-miterlimit="10"/>
<path d="M27.3343 2.21057C27.0856 6.07458 27.0027 9.68984 27.0027 11.3814C27.0027 14.466 27.9977 15.5937 30.3194 15.5937C32.5748 15.5937 34.2 14.4328 35.4272 10.6351L37.3841 11.5804C35.6262 16.3234 33.2879 17.6832 30.2697 17.6832C26.5715 17.6832 24.9297 15.5771 24.9297 11.4477C24.9297 9.7396 25.0126 6.09118 25.0789 2.22717H27.3343V2.21057Z" fill="white" stroke="white" stroke-width="0.1878" stroke-miterlimit="10"/>
<path d="M46.1743 4.38306C46.0084 5.7761 45.9089 7.06964 45.9089 8.2305C45.9089 12.1774 47.1029 14.5821 48.1809 14.5821C48.7945 14.5821 49.3915 13.4212 49.7398 11.7297L51.4976 12.5091C50.8177 15.4445 49.7232 16.9204 48.2804 16.9204C46.224 16.9204 43.8359 14.0514 43.8359 8.29685C43.8359 7.06966 43.8857 5.67662 44.0184 4.20067L46.1743 4.38306ZM55.0631 3.78607C57.7497 6.58873 58.6121 9.50745 58.7613 13.6202L56.5059 13.8192C56.4728 9.73962 55.6933 7.3184 53.3053 4.91375L55.0631 3.78607Z" fill="white" stroke="white" stroke-width="0.1878" stroke-miterlimit="10"/>
<path d="M66.1736 8.29684V4.10115H64.6313V2.27693H73.7358V4.10115H72.2266V8.29684H74.0674V10.1211H72.2266V18.2471H70.2698V10.1211H68.0807V10.6517C68.0807 13.5539 67.6164 16.1741 65.8087 18.2471L64.1172 17.1194C65.7756 15.3118 66.1736 13.2222 66.1736 10.6352V10.1045H64.2499V8.28024H66.1736V8.29684ZM70.2698 8.29684V4.10115H68.0807V8.29684H70.2698ZM80.9829 12.6418C79.6396 15.0464 77.3344 16.9536 74.7142 18.2139L72.9397 16.9867C75.56 15.859 77.7656 14.1675 79.0923 11.7628L80.9829 12.6418ZM80.2532 2.32668C79.0757 4.15089 77.2349 5.82586 75.3776 7.00331L73.5368 6.00827C75.4439 4.91374 77.2349 3.35485 78.4124 1.53064L80.2532 2.32668ZM80.5848 7.48425C79.4074 9.30846 77.5003 10.9171 75.5268 12.0282C74.963 11.6965 74.3825 11.398 73.7192 11C75.7092 9.9718 77.55 8.47924 78.7441 6.67161L80.5848 7.48425Z" fill="white" stroke="white" stroke-width="0.1878" stroke-miterlimit="10"/>
<path d="M86.7046 11.2654C86.7046 7.15259 90.0048 3.20563 94.7145 3.20563C99.9218 3.20563 101.928 6.27362 101.928 9.88888C101.928 13.3549 100.37 16.3566 95.1789 17.4843L94.1838 15.5108C98.6117 14.7479 99.8057 12.6086 99.8057 9.90548C99.8057 7.20232 98.3795 5.37812 95.3281 5.1957C95.0628 11.9619 92.9732 16.5721 90.1208 16.5721C88.081 16.5721 86.688 13.9851 86.688 11.2654H86.7046ZM88.6781 11.2322C88.6781 12.9569 89.358 14.3168 90.1872 14.3168C91.4144 14.3168 93.0727 11.1327 93.2552 5.36154C90.3696 6.00831 88.6781 8.49584 88.6781 11.2322Z" fill="white" stroke="white" stroke-width="0.1878" stroke-miterlimit="10"/>
<path d="M120.469 2.97345V4.96347H113.023V9.80595H119.524V11.796H113.023V18.2637H110.934V2.97345H120.469V2.97345Z" fill="white" stroke="white" stroke-width="0.1878" stroke-miterlimit="10"/>
<path d="M137.385 2.97345V4.96347H129.939V9.80595H136.44V11.796H129.939V16.2902H137.385V18.2802H127.85V2.99H137.385V2.97345Z" fill="white" stroke="white" stroke-width="0.1878" stroke-miterlimit="10"/>
<path d="M144.399 15.3449L146.323 14.3333C146.92 15.461 147.998 16.34 149.507 16.34C151.182 16.34 152.293 15.3449 152.293 13.9519C152.293 12.9735 151.962 12.0448 149.789 11.3648C149.126 11.1658 148.612 10.9834 147.915 10.7844C146.124 10.2703 144.698 8.89385 144.698 6.95356C144.698 4.43283 146.688 2.82422 149.209 2.82422C150.933 2.82422 152.227 3.78607 153.222 5.04643L151.414 6.15752C150.917 5.461 150.187 4.88059 149.192 4.88059C147.816 4.88059 146.804 5.74296 146.804 6.97016C146.804 8.21394 148.181 8.69482 148.844 8.89383C149.54 9.10941 150.452 9.37477 151.166 9.64011C153.686 10.6351 154.366 12.2438 154.366 13.9353C154.366 16.6219 152.277 18.3797 149.341 18.3797C147.169 18.4129 145.428 17.136 144.399 15.3449Z" fill="white" stroke="white" stroke-width="0.1878" stroke-miterlimit="10"/>
<path d="M163.57 18.2305V9.67328C163.155 10.3035 162.724 10.9171 162.26 11.5141L161.198 9.80598C163.039 7.38475 164.449 4.41626 165.145 1.46436L167.036 1.8955C166.638 3.28853 166.14 4.71475 165.493 6.10778V13.9022C167.318 12.393 169.225 9.92208 170.369 7.38477H166.173V5.56054H171.032V1.4809H173.006V5.56054H178.246V7.38477H173.736C174.93 9.82258 176.853 12.3101 178.595 13.869L177.085 15.4444C175.676 13.8856 174.167 11.6467 173.022 9.35818V13.4876H175.129V15.2786H173.022V18.2471H171.049V15.2786H168.86V13.4876H171.049V9.60698C169.888 11.9121 168.346 14.068 166.837 15.5108L165.493 14.1178V18.2305H163.57V18.2305Z" fill="white" stroke="white" stroke-width="0.1878" stroke-miterlimit="10"/>
<path d="M185.378 12.3599C185.229 13.869 184.947 15.5937 184.483 16.6219L183.455 16.0912C183.919 15.1294 184.234 13.5041 184.3 12.0945L185.378 12.3599ZM188.695 11.6799C188.944 12.1443 189.159 12.6086 189.325 13.0564C189.342 12.4925 189.358 11.8789 189.375 11.199H184.251V10.718V9.54062V1.94523H191.033V3.57046H188.877V4.61524H190.536V6.02487H188.877V7.06966H190.536V8.47923H188.877V9.54062H189.408H190.304H191.116C190.967 14.665 190.851 17.4345 190.254 17.8822C190.005 18.0647 189.657 18.131 189.176 18.1476C188.844 18.1642 188.081 18.1476 187.634 18.1476L187.435 16.6053C187.8 16.6219 188.38 16.6219 188.645 16.6219C188.795 16.6219 188.877 16.6053 188.96 16.539C189.11 16.4063 189.193 15.66 189.259 14.267L188.861 14.383C188.728 13.6202 188.463 12.8076 188.015 11.9453L188.695 11.6799ZM186.39 12.1774C186.639 13.5373 186.722 14.7148 186.655 15.7761L185.76 15.8259C185.843 14.7977 185.793 13.6036 185.577 12.2935L186.39 12.1774ZM187.219 4.61524V3.57046H185.992V4.61524H187.219ZM187.219 7.06966V6.02487H185.992V7.06966H187.219ZM187.219 9.54062V8.47923H185.992V9.54062H187.219ZM187.567 11.9784C187.982 13.1227 188.181 14.1509 188.264 15.063L187.435 15.1957C187.385 14.3002 187.203 13.3051 186.838 12.1608L187.567 11.9784ZM200.569 16.6219L199.392 18.2305C197.949 17.6169 196.755 16.5887 195.926 15.0132C195.262 16.1907 194.085 17.2521 192.144 18.2139L191.017 16.7214C193.405 15.7097 194.416 14.4992 194.732 13.0232H191.713V8.08124H194.848V6.98671H192.824V6.20727C192.46 6.48919 192.078 6.73797 191.697 6.95356L190.834 5.22883C192.277 4.48256 193.736 3.22218 194.947 1.53064H196.406C197.7 3.25535 199.226 4.41623 200.652 5.22883L199.723 6.98671C199.375 6.77112 199.027 6.53897 198.678 6.29022V7.01991H196.655V8.11439H199.939V13.0564H196.871C197.617 14.9303 198.944 16.0912 200.569 16.6219ZM193.455 11.597H194.881V9.47427H193.455V11.597ZM197.733 5.44443C197.07 4.84742 196.373 4.15092 195.71 3.28856C195.08 4.13433 194.433 4.84742 193.786 5.44443H197.733ZM198.214 11.597V9.47427H196.705V11.597H198.214Z" fill="white" stroke="white" stroke-width="0.1878" stroke-miterlimit="10"/>
<path d="M210.154 6.07462C210.436 4.73134 210.668 3.37147 210.801 1.97843L212.857 2.22718C212.675 3.47096 212.459 4.69818 212.194 5.92537C212.459 5.90879 212.725 5.90877 212.957 5.90877C215.66 5.90877 216.871 7.21889 216.871 10.0547C216.871 12.8905 216.39 15.1957 215.71 16.3234C215.096 17.3516 214.35 17.6998 213.123 17.6832C212.277 17.6832 211.315 17.5672 210.519 17.3681L210.652 15.461C211.332 15.6932 212.144 15.8093 212.708 15.8093C213.338 15.8093 213.604 15.743 213.935 15.3118C214.499 14.5158 214.831 12.6252 214.831 10.1708C214.831 8.3466 214.3 7.76615 212.824 7.76615C212.476 7.76615 212.128 7.78276 211.73 7.79935C210.768 11.4146 209.441 14.7313 207.866 17.0531L206.041 16.0746C207.55 14.0514 208.827 11.1824 209.69 7.98174C208.546 8.11441 207.385 8.31341 206.29 8.54558L205.925 6.65506C207.235 6.42289 208.778 6.22388 210.154 6.07462ZM222.343 12.5257L220.32 13.0564C220.038 10.6849 219.143 8.13099 217.219 6.15752L218.861 5.14594C220.95 7.28524 222.078 10.2371 222.343 12.5257ZM218.778 2.12768C219.541 2.79103 220.005 3.32171 220.618 4.1509L219.673 4.91374C219.109 4.08455 218.595 3.5207 217.882 2.89052L218.778 2.12768ZM220.735 1C221.481 1.64677 221.945 2.194 222.559 3.03977L221.614 3.78606C221.066 2.97345 220.552 2.393 219.822 1.74624L220.735 1Z" fill="white" stroke="white" stroke-width="0.1878" stroke-miterlimit="10"/>
</svg>
