<svg xmlns="http://www.w3.org/2000/svg" width="118.75" height="11.17" viewBox="0 0 237.5 22.34">
  <defs>
    <style>
      .cls-1 {
        fill: #fff;
        fill-rule: evenodd;
      }
    </style>
  </defs>
  <path id="フェス開始まで_あと" data-name="フェス開始まで あと" class="cls-1" d="M256.2,7242.45v2.64h14.233c-1.248,5.69-4.728,10.37-11.737,13.11l1.969,2.3c7.464-3.21,11.4-9.02,13.177-16.87l-2.209-1.18H256.2Zm27.672,14.4v2.31h15.17v-2.31h-6.385v-8.01h4.968v-2.28H285.286v2.28h4.753v8.01H283.87Zm36.553-5.28a28.732,28.732,0,0,0,4.32-8.47l-1.968-1.13H309.79v2.57H321.1c-1.464,4.82-6.5,10.78-12.913,13.68l1.824,2.31a29.6,29.6,0,0,0,8.713-6.82,47.432,47.432,0,0,1,6.409,6.84l2.544-1.78A74.744,74.744,0,0,0,320.423,7251.57Zm15.215-11.93h-1.656v21.63h2.592V7247.9H343.2v-8.26h-7.561Zm5.041,4.92v1.47h-4.1v-1.47h4.1Zm-4.1-1.63v-1.41h4.1v1.41h-4.1Zm15.218-3.29h-6.769v8.26h6.769v10.23a0.559,0.559,0,0,1-.6.67c-0.336.02-1.3,0.02-1.992-.03l0.48,2.48a18.768,18.768,0,0,0,2.929-.08c1.392-.24,1.8-1.1,1.8-2.61v-18.92h-2.616Zm0,4.92v1.47h-4.249v-1.47h4.249Zm-4.249-1.63v-1.41h4.249v1.41h-4.249Zm-4.656,10.63v-2.23h2.64v2.23h-2.64Zm-5.281,0v2.02h2.833a6,6,0,0,1-2.449,3.87l2.041,1.41a7.944,7.944,0,0,0,2.784-5.28h2.712v5.23H347.9v-5.23h2.808v-2.02H347.9v-2.23h2.4v-1.99H338.038v1.99h2.5v2.23h-2.929Zm30.577-5.9c0.24,0.91.408,1.66,0.6,2.42,2.64-.28,7.152-0.84,10.345-1.27,0.216,0.58.384,1.11,0.528,1.63l2.448-1.03a28.091,28.091,0,0,0-4.1-7.73l-2.161.94a32.735,32.735,0,0,1,2.425,4.13c-1.921.21-4.2,0.43-6.241,0.6,1.272-2.69,2.424-5.57,3.216-7.8l-2.64-.58a67.649,67.649,0,0,1-3.192,8.59C368.951,7247.61,368.543,7247.64,368.183,7247.66Zm-1.9,7.01a36.044,36.044,0,0,0,2.3-11.07l-1.7-.16H364.51c0.336-1.54.648-3.03,0.888-4.35l-2.424-.12c-0.24,1.32-.552,2.88-0.888,4.47h-2.64v2.32h2.112c-0.7,2.91-1.416,5.74-1.992,7.64l2.16,1.27,0.216-.77c0.5,0.43,1.008.89,1.464,1.32a11.389,11.389,0,0,1-3.96,4.18c0.048,0.02.072,0.07,1.7,1.92a13.864,13.864,0,0,0,3.984-4.35,23.35,23.35,0,0,1,1.9,2.36l1.944-1.73A26.852,26.852,0,0,0,366.287,7254.67Zm-3.721-3.17c0.456-1.78.96-3.77,1.416-5.74h1.968a29.269,29.269,0,0,1-1.512,7.23C363.838,7252.51,363.238,7252,362.566,7251.5Zm15.6,8.86v0.89h2.568v-9.99H369.383v9.99h2.5v-0.89h6.289Zm-6.289-2.33v-4.44h6.289v4.44h-6.289Zm24.192-2.83v0.09c0,2.21-.6,2.93-2.712,2.93-1.9,0-2.857-.67-2.857-1.63,0-1.03,1.032-1.73,3-1.73A10.75,10.75,0,0,1,396.071,7255.2Zm-7.249-7.61v2.42h7.129c0.024,1.01.048,1.97,0.072,2.79a12.735,12.735,0,0,0-2.376-.22c-3.625,0-5.641,1.73-5.641,4.03,0,2.09,2.016,3.94,5.545,3.94,3.672,0,5.064-1.39,5.256-4.37a19.766,19.766,0,0,1,5.112,3.41l1.8-2.14a26.751,26.751,0,0,0-6.937-3.89c-0.024-.98-0.048-2.2-0.1-3.55h6.529v-2.42h-6.577c-0.024-.94-0.048-1.87-0.072-2.81h7.105v-2.42h-7.105v-2.64h-2.832c0,0.74.024,1.65,0.024,2.64h-7.417v2.42h7.489c0,0.94.024,1.87,0.048,2.81h-7.057Zm24.576-4.78,0.192,2.67c3.024-.15,7.705-0.48,10.225-0.72-2.784,2.11-4.464,4.89-4.464,7.94,0,4.85,4.056,7.39,10.944,7.63l0.337-2.71c-5.905-.26-8.449-2.11-8.449-5.04,0-2.81,1.752-5.26,4.656-7.15a6.137,6.137,0,0,1,1.8-.79,31.013,31.013,0,0,1,3.817-.48l-0.336-2.72c-1.777.22-4.273,0.48-6.289,0.65C423.431,7242.28,416.686,7242.72,413.4,7242.81Zm17.354,3.89a14.2,14.2,0,0,1,1.944,3.19l1.44-.77a16.778,16.778,0,0,0-2.04-3.19Zm-2.833,1.34a15.06,15.06,0,0,1,1.992,3.22l1.417-.79a17.434,17.434,0,0,0-2.017-3.24Zm27,2.38a40.878,40.878,0,0,0,.48,5.95,5.924,5.924,0,0,1-2.832.82,1.3,1.3,0,0,1-1.464-1.51C451.1,7253.59,452.59,7251.62,454.918,7250.42Zm5.833-1.18a14.141,14.141,0,0,1-3.048,5.31,40.491,40.491,0,0,1-.264-4.99v-0.05a12.044,12.044,0,0,1,2.664-.29C460.319,7249.22,460.535,7249.22,460.751,7249.24Zm0.72-3.45a9,9,0,0,1-.168,1.17c-0.336-.02-0.672-0.02-1.032-0.02a17.581,17.581,0,0,0-2.76.24c0.048-.74.12-1.54,0.192-2.35h10.056v-2.4h-9.744c0.12-.87.288-1.73,0.456-2.55l-2.665-.26c-0.168.91-.288,1.85-0.408,2.81h-6.072v2.4h5.808c-0.072,1.05-.144,2.11-0.192,3.09-3.816,1.54-6.264,4.64-6.264,7.95,0,2.33,1.08,3.89,3.264,3.89a9.039,9.039,0,0,0,3.96-.94c0.1,0.36.192,0.7,0.288,1.03l2.521-.96a14.134,14.134,0,0,1-.5-1.53,16.029,16.029,0,0,0,4.992-7.61,3.9,3.9,0,0,1,2.688,3.77c0,2.81-1.464,4.39-5.976,4.87l1.032,2.38c5.64-.8,7.632-3.46,7.632-7.28a6.021,6.021,0,0,0-4.728-6.09c0.072-.44.168-0.87,0.24-1.32Zm29.9-.79c-2.448.81-4.776,1.65-6.864,2.56-0.913-1.72-1.009-4.08-1.009-7.84h-2.856c0,4.12.192,6.76,1.488,9-3.216,1.72-5.352,3.76-5.352,6.38,0,3.6,3.312,5.31,9.769,5.31a51.842,51.842,0,0,0,7.128-.44l-0.264-2.76a42.888,42.888,0,0,1-6.84.56c-5.065,0-6.937-1.01-6.937-2.81,0-3.12,6.337-5.48,12.745-7.35Z" transform="translate(-256.188 -7238.97)"/>
</svg>
