<svg width="442" height="19" viewBox="0 0 442 19" fill="none" xmlns="http://www.w3.org/2000/svg">
<g clip-path="url(#clip0)">
<path d="M0 14.11L2.83 12.66C3.2 13.58 4.1 14.94 6.01 14.94C7.55 14.94 8.8 14.09 8.8 12.94C8.8 11.79 7.99 11.17 6.73 10.59C5.55 10.06 4.88 9.92001 3.45 9.30001C1.73 8.54001 0.48 7.04001 0.48 4.97001C0.48 1.93001 2.83 0.0700073 5.75 0.0700073C8.65 0.0700073 9.99 1.68001 10.93 3.09001L8.17 4.79001C7.67 3.98001 6.84 3.25001 5.71 3.25001C4.58 3.25001 3.71 3.94001 3.71 4.91001C3.71 5.62001 4.12 6.06001 5.05 6.45001C6.32 6.98001 7.28 7.32001 8.8 7.99001C10.69 8.82001 12.02 10.52 12.02 12.69C12.02 16.03 9.42 18.12 5.94 18.12C3.27 18.12 1.17 16.67 0 14.11Z" fill="white"/>
<path d="M23.21 3.22001V0.230011H35.23V3.22001H30.83V17.95H27.6V3.22001H23.21Z" fill="white"/>
<path d="M57.14 14.46H49.22L47.79 17.96H44.29L51.56 0.230011H54.71L62.03 17.96H58.58L57.14 14.46ZM55.89 11.46L53.13 4.83001L50.44 11.46H55.89Z" fill="white"/>
<path d="M83.6699 17.96L79.0899 11.05H77.1599V17.96H73.9399V0.230011H80.6399C83.6299 0.230011 85.9099 2.65001 85.9099 5.64001C85.9099 7.92001 84.5799 9.88001 82.6199 10.66L87.4499 17.96H83.6699ZM77.1499 8.06001H80.4899C81.8199 8.06001 82.6799 6.82001 82.6799 5.64001C82.6799 4.44001 81.8299 3.22001 80.4899 3.22001H77.1499V8.06001Z" fill="white"/>
<path d="M98.04 3.22001V0.230011H110.06V3.22001H105.66V17.95H102.44V3.22001H98.04Z" fill="white"/>
<path d="M138.69 7.60001C139.04 7.14001 139.27 6.56001 139.27 5.92001C139.27 4.19001 138.03 3.13001 136.48 3.13001C134.96 3.13001 133.72 4.17001 133.69 5.87001H130.65C130.65 2.49001 133.25 0.0700073 136.47 0.0700073C139.69 0.0700073 142.32 2.51001 142.32 5.92001C142.32 7.26001 141.86 8.50001 141.1 9.47001L136.84 14.97H142.71V17.96H130.69L138.69 7.60001Z" fill="white"/>
<path d="M154.79 12.27V5.85C154.79 2.58 157.39 0 160.66 0C163.91 0 166.53 2.62 166.53 5.85V12.27C166.53 15.54 163.93 18.12 160.66 18.12C157.42 18.12 154.79 15.49 154.79 12.27ZM163.31 12.32V5.8C163.31 4.1 162.21 2.99 160.66 2.99C159.09 2.99 158.01 4.09 158.01 5.8V12.31C158.01 14.01 159.09 15.12 160.66 15.12C162.21 15.12 163.31 14.02 163.31 12.32Z" fill="white"/>
<path d="M179 5.84001C179 4.80001 179.85 3.95001 180.89 3.95001C181.93 3.95001 182.78 4.80001 182.78 5.84001C182.78 6.88001 181.93 7.73001 180.89 7.73001C179.85 7.73001 179 6.88001 179 5.84001ZM179 13C179 11.96 179.85 11.11 180.89 11.11C181.93 11.11 182.78 11.96 182.78 13C182.78 14.04 181.93 14.89 180.89 14.89C179.85 14.89 179 14.04 179 13Z" fill="white"/>
<path d="M195.2 12.27V5.85C195.2 2.58 197.8 0 201.07 0C204.32 0 206.94 2.62 206.94 5.85V12.27C206.94 15.54 204.34 18.12 201.07 18.12C197.82 18.12 195.2 15.49 195.2 12.27ZM203.72 12.32V5.8C203.72 4.1 202.62 2.99 201.07 2.99C199.5 2.99 198.42 4.09 198.42 5.8V12.31C198.42 14.01 199.5 15.12 201.07 15.12C202.61 15.12 203.72 14.02 203.72 12.32Z" fill="white"/>
<path d="M219.73 12.27V5.85C219.73 2.58 222.33 0 225.6 0C228.85 0 231.47 2.62 231.47 5.85V12.27C231.47 15.54 228.87 18.12 225.6 18.12C222.35 18.12 219.73 15.49 219.73 12.27ZM228.25 12.32V5.8C228.25 4.1 227.15 2.99 225.6 2.99C224.03 2.99 222.95 4.09 222.95 5.8V12.31C222.95 14.01 224.03 15.12 225.6 15.12C227.14 15.12 228.25 14.02 228.25 12.32Z" fill="white"/>
<path d="M257.71 0.230011H258.52L240.84 17.96H239.99L257.71 0.230011Z" fill="white"/>
<path d="M276.64 0.230011V3.22001H268.84V7.60001H275.61V10.59H268.84V17.96H265.57V0.230011H276.64Z" fill="white"/>
<path d="M305.96 9.09C305.96 14.11 301.95 18.11 296.94 18.11C291.92 18.11 287.92 14.08 287.92 9.06C287.92 4.04 291.93 0.0599976 296.94 0.0599976C301.95 0.0699976 305.96 4.07 305.96 9.09ZM302.73 9.07C302.73 5.85 300.13 3.29 296.93 3.29C293.73 3.29 291.13 5.85 291.13 9.07C291.13 12.27 293.73 14.89 296.93 14.89C300.13 14.89 302.73 12.27 302.73 9.07Z" fill="white"/>
<path d="M328.44 17.96L323.86 11.05H321.93V17.96H318.71V0.230011H325.41C328.4 0.230011 330.68 2.65001 330.68 5.64001C330.68 7.92001 329.35 9.88001 327.39 10.66L332.22 17.96H328.44ZM321.93 8.06001H325.27C326.6 8.06001 327.46 6.82001 327.46 5.64001C327.46 4.44001 326.61 3.22001 325.27 3.22001H321.93V8.06001Z" fill="white"/>
<path d="M367.93 0.230011V3.22001H360.13V7.60001H366.9V10.59H360.13V17.96H356.86V0.230011H367.93Z" fill="white"/>
<path d="M389.92 17.96L385.34 11.05H383.41V17.96H380.19V0.230011H386.89C389.88 0.230011 392.16 2.65001 392.16 5.64001C392.16 7.92001 390.83 9.88001 388.87 10.66L393.7 17.96H389.92ZM383.41 8.06001H386.75C388.08 8.06001 388.94 6.82001 388.94 5.64001C388.94 4.44001 388.09 3.22001 386.75 3.22001H383.41V8.06001Z" fill="white"/>
<path d="M416.89 0.230011V3.22001H409.02V7.60001H415.83V10.59H409.02V14.96H416.89V17.95H405.79V0.230011H416.89Z" fill="white"/>
<path d="M441.03 0.230011V3.22001H433.16V7.60001H439.97V10.59H433.16V14.96H441.03V17.95H429.93V0.230011H441.03Z" fill="white"/>
</g>
<defs>
<clipPath id="clip0">
<rect width="441.03" height="18.12" fill="white"/>
</clipPath>
</defs>
</svg>
