<svg width="81" height="11" viewBox="0 0 81 11" fill="none" xmlns="http://www.w3.org/2000/svg">
<path d="M3.28463 8.06995C4.77463 8.06995 5.86463 7.16995 5.86463 5.76995C5.86463 4.86995 5.40463 4.09995 4.36463 3.66995C3.85463 3.44995 3.41463 3.30995 2.96463 3.13995C2.59463 3.00995 2.15463 2.78995 2.15463 2.31995C2.15463 1.79995 2.60463 1.43995 3.19463 1.43995C3.68463 1.43995 4.05463 1.73995 4.28463 2.08995L5.34463 1.43995C4.88463 0.819951 4.27463 0.229951 3.20463 0.229951C1.93463 0.229951 0.924629 1.03995 0.924629 2.32995C0.924629 3.26995 1.55463 3.93995 2.38463 4.23995C2.86463 4.41995 3.14463 4.49995 3.56463 4.65995C4.38463 4.95995 4.64463 5.32995 4.64463 5.81995C4.64463 6.41995 4.09463 6.85995 3.33463 6.85995C2.54463 6.85995 2.07463 6.33995 1.84463 5.85995L0.744629 6.42995C1.26463 7.42995 2.15463 8.06995 3.28463 8.06995Z" fill="black"/>
<path d="M9.75416 8.00995H10.9042V4.13995H11.7842V3.04995H10.9042V1.25995H9.75416V3.04995H8.86416V4.13995H9.75416V8.00995Z" fill="black"/>
<path d="M19.7649 3.04995H18.6149V3.51995C18.6149 3.51995 18.0949 2.97995 17.2149 2.97995C15.8149 2.97995 14.6849 4.09995 14.6849 5.52995C14.6849 6.94995 15.8149 8.06995 17.2149 8.06995C18.0949 8.06995 18.6149 7.52995 18.6149 7.52995V7.99995H19.7649V3.04995ZM17.2249 6.91995C16.4549 6.91995 15.8349 6.31995 15.8349 5.52995C15.8349 4.73995 16.4549 4.12995 17.2249 4.12995C17.9949 4.12995 18.6249 4.73995 18.6249 5.52995C18.6249 6.31995 17.9949 6.91995 17.2249 6.91995Z" fill="black"/>
<path d="M25.7981 10.67C27.1781 10.67 28.3381 9.61995 28.3381 8.12995V3.04995H27.1981V3.51995C27.1981 3.51995 26.6781 2.97995 25.7981 2.97995C24.3681 2.97995 23.2681 4.10995 23.2681 5.51995C23.2681 6.93995 24.3681 8.06995 25.7981 8.06995C26.6781 8.06995 27.1981 7.52995 27.1981 7.52995V8.12995C27.1981 8.93995 26.5581 9.55995 25.8081 9.55995C25.4481 9.55995 25.0881 9.41995 24.8081 9.12995L24.0081 9.92995C24.4881 10.42 25.1281 10.67 25.7981 10.67ZM25.7981 6.91995C25.0381 6.91995 24.4181 6.27995 24.4181 5.51995C24.4181 4.75995 25.0281 4.11995 25.7981 4.11995C26.5681 4.11995 27.2081 4.75995 27.2081 5.51995C27.2081 6.27995 26.5681 6.91995 25.7981 6.91995Z" fill="black"/>
<path d="M34.115 8.06995C34.795 8.06995 35.465 7.80995 35.965 7.31995L35.135 6.50995C34.875 6.77995 34.515 6.92995 34.125 6.92995C33.505 6.91995 33.025 6.55995 32.855 5.98995H36.635C36.635 4.12995 35.635 2.97995 34.115 2.97995C32.705 2.97995 31.595 4.09995 31.595 5.52995C31.595 6.93995 32.715 8.06995 34.115 8.06995ZM32.825 5.00995C33.005 4.47995 33.475 4.11995 34.085 4.10995C34.715 4.10995 35.225 4.48995 35.375 5.00995H32.825Z" fill="black"/>
<path d="M45.0833 7.99995H46.2333V5.20995C46.2333 4.52995 46.7133 4.06995 47.3633 4.06995C48.0233 4.06995 48.5133 4.52995 48.5133 5.21995V7.99995H49.6633V5.22995C49.6633 3.89995 48.8633 2.97995 47.5333 2.97995C46.8233 2.97995 46.3833 3.40995 46.2333 3.54995V3.04995H45.0833V7.99995Z" fill="black"/>
<path d="M56.1038 1.81995C56.1038 0.969951 55.4138 0.299951 54.5838 0.299951C53.7438 0.299951 53.0638 0.959951 53.0638 1.81995C53.0638 2.66995 53.7338 3.33995 54.5738 3.33995C55.4238 3.33995 56.1038 2.64995 56.1038 1.81995ZM53.8738 1.80995C53.8738 1.41995 54.2038 1.10995 54.5838 1.10995C54.9738 1.10995 55.2838 1.41995 55.2838 1.80995C55.2838 2.18995 54.9738 2.51995 54.5838 2.51995C54.1838 2.51995 53.8738 2.19995 53.8738 1.80995Z" fill="black"/>
<path d="M61.8321 8.06995C63.2321 8.06995 64.3621 6.93995 64.3621 5.51995C64.3621 4.10995 63.2321 2.97995 61.8321 2.97995C60.4221 2.97995 59.3021 4.10995 59.3021 5.51995C59.3021 6.93995 60.4221 8.06995 61.8321 8.06995ZM61.8321 6.91995C61.0621 6.91995 60.452 6.25995 60.452 5.51995C60.452 4.75995 61.0821 4.12995 61.8321 4.12995C62.5821 4.12995 63.2121 4.75995 63.2121 5.51995C63.2121 6.27995 62.5721 6.91995 61.8321 6.91995Z" fill="black"/>
<path d="M67.6618 6.92995V7.99995H71.9718V6.92995H70.4118V0.269951L67.6618 1.67995V2.82995L69.2118 2.07995V6.92995H67.6618Z" fill="black"/>
<path d="M77.6896 8.06995C79.0996 8.06995 80.2096 6.96995 80.2096 5.55995V2.70995C80.2096 1.30995 79.0996 0.199951 77.6896 0.199951C76.2796 0.199951 75.1696 1.29995 75.1696 2.70995V5.55995C75.1696 6.95995 76.2896 8.06995 77.6896 8.06995ZM77.6896 6.89995C76.9496 6.89995 76.3896 6.33995 76.3896 5.56995V2.69995C76.3896 1.92995 76.9496 1.36995 77.6896 1.36995C78.4296 1.36995 78.9896 1.92995 78.9896 2.69995V5.56995C78.9896 6.33995 78.4296 6.89995 77.6896 6.89995Z" fill="black"/>
</svg>
