<svg xmlns="http://www.w3.org/2000/svg" width="71" height="10" viewBox="0 0 94 14">
  <defs>
    <style>
      .cls-1 {
        fill-rule: evenodd;
      }
    </style>
  </defs>
  <path id="txt_lineup_stage_02.svg" class="cls-1" d="M330.555,4869.07c1.937,0,3.354-1.17,3.354-2.99a2.843,2.843,0,0,0-1.95-2.73c-0.663-.29-1.235-0.47-1.82-0.69a1.264,1.264,0,0,1-1.053-1.06,1.222,1.222,0,0,1,1.352-1.15,1.707,1.707,0,0,1,1.417.85l1.378-.85a3.321,3.321,0,0,0-2.782-1.57,2.74,2.74,0,0,0-2.964,2.73,2.643,2.643,0,0,0,1.9,2.48c0.624,0.24.988,0.34,1.534,0.55,1.066,0.39,1.4.87,1.4,1.51a1.506,1.506,0,0,1-1.7,1.35,2.132,2.132,0,0,1-1.937-1.3l-1.43.74A3.666,3.666,0,0,0,330.555,4869.07Zm8.606-.08h1.5v-5.03H341.8v-1.42h-1.144v-2.32h-1.5v2.32H338v1.42h1.157v5.03Zm13.273-6.45h-1.5v0.62a2.656,2.656,0,0,0-1.82-.71,3.31,3.31,0,0,0,0,6.62,2.673,2.673,0,0,0,1.82-.7v0.61h1.5v-6.44Zm-3.3,5.04a1.815,1.815,0,0,1,0-3.63A1.815,1.815,0,1,1,349.132,4867.58Zm11.141,4.87a3.246,3.246,0,0,0,3.3-3.3v-6.61h-1.482v0.62a2.656,2.656,0,0,0-1.82-.71,3.31,3.31,0,0,0,0,6.62,2.673,2.673,0,0,0,1.82-.7v0.78a1.834,1.834,0,0,1-1.807,1.86,1.784,1.784,0,0,1-1.3-.56l-1.04,1.04A3.208,3.208,0,0,0,360.273,4872.45Zm0-4.87a1.82,1.82,0,0,1,0-3.64A1.82,1.82,0,1,1,360.273,4867.58Zm11.063,1.49a3.463,3.463,0,0,0,2.4-.97l-1.079-1.06a1.813,1.813,0,0,1-1.313.55,1.678,1.678,0,0,1-1.651-1.22h4.914c0-2.42-1.3-3.92-3.276-3.92A3.31,3.31,0,0,0,371.336,4869.07Zm-1.677-3.98a1.759,1.759,0,0,1,3.315,0h-3.315Zm15.937,3.89h1.5v-3.63a1.417,1.417,0,0,1,1.469-1.48,1.436,1.436,0,0,1,1.5,1.5v3.61h1.5v-3.6a2.674,2.674,0,0,0-2.77-2.93,2.434,2.434,0,0,0-1.69.74v-0.65h-1.5v6.44Zm14.326-8.03a1.976,1.976,0,1,0-3.952,0,1.954,1.954,0,0,0,1.963,1.97A1.987,1.987,0,0,0,399.922,4860.95Zm-2.9-.02a0.929,0.929,0,0,1,.923-0.91,0.909,0.909,0,0,1,.91.91A0.917,0.917,0,1,1,397.023,4860.93Zm10.348,8.14a3.31,3.31,0,1,0-3.289-3.31A3.29,3.29,0,0,0,407.371,4869.07Zm0-1.49a1.815,1.815,0,1,1,1.794-1.82A1.83,1.83,0,0,1,407.371,4867.58Zm7.332,1.4h6.591v-1.47h-3.549l2.639-3.39a3.252,3.252,0,0,0,.676-1.98,3.174,3.174,0,0,0-3.263-3.26,3.131,3.131,0,0,0-3.237,3.11h1.521a1.624,1.624,0,0,1,1.716-1.6,1.646,1.646,0,0,1,1.729,1.75,1.985,1.985,0,0,1-.494,1.22Z" transform="translate(-327.25 -4858.88)"/>
</svg>
