<svg xmlns="http://www.w3.org/2000/svg" width="25" height="33" viewBox="0 0 50 66">
  <defs>
    <style>
      .cls-1 {
        fill: #fff;
        fill-rule: evenodd;
      }
    </style>
  </defs>
  <path id="_3" data-name="3" class="cls-1" d="M297.646,6762.81c11.2,0,20.321-8.4,20.321-20,0-9.84-6.08-17.76-15.92-19.68l12.88-12.96v-9.52H279.806v9.04h22.241l-18.161,18.24,6.72,6.72a11.584,11.584,0,0,1,7.36-2.72c5.841,0,10.241,4.32,10.241,10.8,0,6.4-4.48,10.8-10.561,10.8a10.38,10.38,0,0,1-10.4-9.84h-9.84A20.1,20.1,0,0,0,297.646,6762.81Z" transform="translate(-272.688 -6698.735)"/>
</svg>
