<svg width="73" height="11" viewBox="0 0 73 11" fill="none" xmlns="http://www.w3.org/2000/svg">
<path d="M3.21432 8.06998C4.70432 8.06998 5.79432 7.16998 5.79432 5.76998C5.79432 4.86998 5.33432 4.09998 4.29432 3.66998C3.78432 3.44998 3.34432 3.30998 2.89432 3.13998C2.52432 3.00998 2.08432 2.78998 2.08432 2.31998C2.08432 1.79998 2.53432 1.43998 3.12432 1.43998C3.61432 1.43998 3.98432 1.73998 4.21432 2.08998L5.27432 1.43998C4.81432 0.81998 4.20432 0.22998 3.13432 0.22998C1.86432 0.22998 0.854316 1.03998 0.854316 2.32998C0.854316 3.26998 1.48432 3.93998 2.31432 4.23998C2.79432 4.41998 3.07432 4.49998 3.49432 4.65998C4.31432 4.95998 4.57432 5.32998 4.57432 5.81998C4.57432 6.41998 4.02432 6.85998 3.26432 6.85998C2.47432 6.85998 2.00432 6.33998 1.77432 5.85998L0.674316 6.42998C1.19432 7.42998 2.08432 8.06998 3.21432 8.06998Z" fill="black"/>
<path d="M9.68385 8.00998H10.8338V4.13998H11.7138V3.04998H10.8338V1.25998H9.68385V3.04998H8.79385V4.13998H9.68385V8.00998Z" fill="black"/>
<path d="M19.6946 3.04998H18.5445V3.51998C18.5445 3.51998 18.0246 2.97998 17.1446 2.97998C15.7446 2.97998 14.6146 4.09998 14.6146 5.52998C14.6146 6.94998 15.7446 8.06998 17.1446 8.06998C18.0246 8.06998 18.5445 7.52998 18.5445 7.52998V7.99998H19.6946V3.04998ZM17.1546 6.91998C16.3846 6.91998 15.7646 6.31998 15.7646 5.52998C15.7646 4.73998 16.3846 4.12998 17.1546 4.12998C17.9246 4.12998 18.5546 4.73998 18.5546 5.52998C18.5546 6.31998 17.9246 6.91998 17.1546 6.91998Z" fill="black"/>
<path d="M25.7278 10.67C27.1078 10.67 28.2678 9.61998 28.2678 8.12998V3.04998H27.1278V3.51998C27.1278 3.51998 26.6078 2.97998 25.7278 2.97998C24.2978 2.97998 23.1978 4.10998 23.1978 5.51998C23.1978 6.93998 24.2978 8.06998 25.7278 8.06998C26.6078 8.06998 27.1278 7.52998 27.1278 7.52998V8.12998C27.1278 8.93998 26.4878 9.55998 25.7378 9.55998C25.3778 9.55998 25.0178 9.41998 24.7378 9.12998L23.9378 9.92998C24.4178 10.42 25.0578 10.67 25.7278 10.67ZM25.7278 6.91998C24.9678 6.91998 24.3478 6.27998 24.3478 5.51998C24.3478 4.75998 24.9578 4.11998 25.7278 4.11998C26.4978 4.11998 27.1378 4.75998 27.1378 5.51998C27.1378 6.27998 26.4978 6.91998 25.7278 6.91998Z" fill="black"/>
<path d="M34.0447 8.06998C34.7247 8.06998 35.3947 7.80998 35.8947 7.31998L35.0647 6.50998C34.8047 6.77998 34.4447 6.92998 34.0547 6.92998C33.4347 6.91998 32.9547 6.55998 32.7847 5.98998H36.5647C36.5647 4.12998 35.5647 2.97998 34.0447 2.97998C32.6347 2.97998 31.5247 4.09998 31.5247 5.52998C31.5247 6.93998 32.6447 8.06998 34.0447 8.06998ZM32.7547 5.00998C32.9347 4.47998 33.4047 4.11998 34.0147 4.10998C34.6447 4.10998 35.1547 4.48998 35.3047 5.00998H32.7547Z" fill="black"/>
<path d="M45.013 7.99998H46.163V5.20998C46.163 4.52998 46.643 4.06998 47.293 4.06998C47.953 4.06998 48.443 4.52998 48.443 5.21998V7.99998H49.593V5.22998C49.593 3.89998 48.793 2.97998 47.463 2.97998C46.753 2.97998 46.313 3.40998 46.163 3.54998V3.04998H45.013V7.99998Z" fill="black"/>
<path d="M56.0335 1.81998C56.0335 0.96998 55.3435 0.29998 54.5135 0.29998C53.6735 0.29998 52.9935 0.95998 52.9935 1.81998C52.9935 2.66998 53.6635 3.33998 54.5035 3.33998C55.3535 3.33998 56.0335 2.64998 56.0335 1.81998ZM53.8035 1.80998C53.8035 1.41998 54.1335 1.10998 54.5135 1.10998C54.9035 1.10998 55.2135 1.41998 55.2135 1.80998C55.2135 2.18998 54.9035 2.51998 54.5135 2.51998C54.1135 2.51998 53.8035 2.19998 53.8035 1.80998Z" fill="black"/>
<path d="M61.7617 8.06998C63.1617 8.06998 64.2917 6.93998 64.2917 5.51998C64.2917 4.10998 63.1617 2.97998 61.7617 2.97998C60.3517 2.97998 59.2317 4.10998 59.2317 5.51998C59.2317 6.93998 60.3517 8.06998 61.7617 8.06998ZM61.7617 6.91998C60.9917 6.91998 60.3817 6.25998 60.3817 5.51998C60.3817 4.75998 61.0117 4.12998 61.7617 4.12998C62.5117 4.12998 63.1417 4.75998 63.1417 5.51998C63.1417 6.27998 62.5017 6.91998 61.7617 6.91998Z" fill="black"/>
<path d="M69.9315 8.06998C71.3615 8.06998 72.4715 6.95998 72.4715 5.52998C72.4715 4.72998 72.0915 3.96998 71.4215 3.51998C71.7315 3.14998 71.9515 2.66998 71.9515 2.18998C71.9515 1.04998 71.0915 0.22998 69.9515 0.22998C68.8215 0.22998 67.9515 1.04998 67.9515 2.18998C67.9515 2.65998 68.1715 3.13998 68.4715 3.48998C67.7815 3.97998 67.3915 4.69998 67.3915 5.51998C67.3915 6.94998 68.5115 8.06998 69.9315 8.06998ZM69.9515 2.98998C69.5215 2.98998 69.1815 2.63998 69.1815 2.20998C69.1815 1.78998 69.5215 1.43998 69.9515 1.43998C70.3915 1.43998 70.7215 1.78998 70.7215 2.20998C70.7215 2.63998 70.3815 2.98998 69.9515 2.98998ZM69.9315 6.83998C69.2215 6.83998 68.6215 6.24998 68.6215 5.52998C68.6215 4.80998 69.2115 4.21998 69.9315 4.21998C70.6415 4.21998 71.2415 4.80998 71.2415 5.52998C71.2415 6.24998 70.6415 6.83998 69.9315 6.83998Z" fill="black"/>
</svg>
