<svg xmlns="http://www.w3.org/2000/svg" width="71" height="10" viewBox="0 0 95 14">
  <defs>
    <style>
      .cls-1 {
        fill-rule: evenodd;
      }
    </style>
  </defs>
  <path id="txt_lineup_stage_04.svg" class="cls-1" d="M330.12,6953.07c1.937,0,3.354-1.17,3.354-2.99a2.843,2.843,0,0,0-1.95-2.73c-0.663-.29-1.235-0.47-1.821-0.69a1.264,1.264,0,0,1-1.053-1.06,1.223,1.223,0,0,1,1.353-1.15,1.707,1.707,0,0,1,1.417.85l1.378-.85a3.321,3.321,0,0,0-2.782-1.57,2.741,2.741,0,0,0-2.965,2.73,2.643,2.643,0,0,0,1.9,2.48c0.624,0.24.988,0.34,1.535,0.55,1.066,0.39,1.4.87,1.4,1.51a1.506,1.506,0,0,1-1.7,1.35,2.132,2.132,0,0,1-1.938-1.3l-1.43.74A3.667,3.667,0,0,0,330.12,6953.07Zm8.605-.08h1.5v-5.03h1.144v-1.42H340.22v-2.32h-1.5v2.32h-1.157v1.42h1.157v5.03ZM352,6946.54h-1.5v0.62a2.657,2.657,0,0,0-1.821-.71,3.31,3.31,0,0,0,0,6.62,2.674,2.674,0,0,0,1.821-.7v0.61H352v-6.44Zm-3.3,5.04a1.815,1.815,0,0,1,0-3.63A1.815,1.815,0,1,1,348.7,6951.58Zm11.141,4.87a3.246,3.246,0,0,0,3.3-3.3v-6.61h-1.482v0.62a2.657,2.657,0,0,0-1.821-.71,3.31,3.31,0,0,0,0,6.62,2.674,2.674,0,0,0,1.821-.7v0.78a1.835,1.835,0,0,1-1.808,1.86,1.784,1.784,0,0,1-1.3-.56l-1.04,1.04A3.208,3.208,0,0,0,359.837,6956.45Zm0-4.87a1.82,1.82,0,0,1,0-3.64A1.82,1.82,0,1,1,359.837,6951.58Zm11.063,1.49a3.467,3.467,0,0,0,2.406-.97l-1.08-1.06a1.813,1.813,0,0,1-1.313.55,1.678,1.678,0,0,1-1.651-1.22h4.915c0-2.42-1.3-3.92-3.277-3.92A3.31,3.31,0,0,0,370.9,6953.07Zm-1.677-3.98a1.759,1.759,0,0,1,3.315,0h-3.315Zm15.938,3.89h1.5v-3.63a1.417,1.417,0,0,1,1.469-1.48,1.436,1.436,0,0,1,1.5,1.5v3.61h1.5v-3.6a2.674,2.674,0,0,0-2.769-2.93,2.434,2.434,0,0,0-1.69.74v-0.65h-1.5v6.44Zm14.326-8.03a1.976,1.976,0,1,0-3.952,0,1.954,1.954,0,0,0,1.963,1.97A1.987,1.987,0,0,0,399.487,6944.95Zm-2.9-.02a0.929,0.929,0,0,1,.923-0.91,0.909,0.909,0,0,1,.91.91A0.917,0.917,0,1,1,396.588,6944.93Zm10.348,8.14a3.31,3.31,0,1,0-3.289-3.31A3.29,3.29,0,0,0,406.936,6953.07Zm0-1.49a1.815,1.815,0,1,1,1.794-1.82A1.83,1.83,0,0,1,406.936,6951.58Zm11.9,1.4h1.6v-1.65H421.8v-1.34H420.43v-7.06l-6.695,8.4h5.1v1.65Zm-2.288-2.99,2.3-2.93-0.013,2.93h-2.288Z" transform="translate(-326.812 -6942.88)"/>
</svg>
