<svg width="80" height="11" viewBox="0 0 80 11" fill="none" xmlns="http://www.w3.org/2000/svg">
<path d="M3.2485 8.06998C4.7385 8.06998 5.8285 7.16998 5.8285 5.76998C5.8285 4.86998 5.3685 4.09998 4.3285 3.66998C3.8185 3.44998 3.3785 3.30998 2.9285 3.13998C2.5585 3.00998 2.1185 2.78998 2.1185 2.31998C2.1185 1.79998 2.5685 1.43998 3.1585 1.43998C3.6485 1.43998 4.0185 1.73998 4.2485 2.08998L5.3085 1.43998C4.8485 0.81998 4.2385 0.22998 3.1685 0.22998C1.8985 0.22998 0.888496 1.03998 0.888496 2.32998C0.888496 3.26998 1.5185 3.93998 2.3485 4.23998C2.8285 4.41998 3.1085 4.49998 3.5285 4.65998C4.3485 4.95998 4.6085 5.32998 4.6085 5.81998C4.6085 6.41998 4.0585 6.85998 3.2985 6.85998C2.5085 6.85998 2.0385 6.33998 1.8085 5.85998L0.708496 6.42998C1.2285 7.42998 2.1185 8.06998 3.2485 8.06998Z" fill="black"/>
<path d="M9.71803 8.00998H10.868V4.13998H11.748V3.04998H10.868V1.25998H9.71803V3.04998H8.82803V4.13998H9.71803V8.00998Z" fill="black"/>
<path d="M19.7287 3.04998H18.5787V3.51998C18.5787 3.51998 18.0587 2.97998 17.1787 2.97998C15.7787 2.97998 14.6487 4.09998 14.6487 5.52998C14.6487 6.94998 15.7787 8.06998 17.1787 8.06998C18.0587 8.06998 18.5787 7.52998 18.5787 7.52998V7.99998H19.7287V3.04998ZM17.1887 6.91998C16.4187 6.91998 15.7987 6.31998 15.7987 5.52998C15.7987 4.73998 16.4187 4.12998 17.1887 4.12998C17.9587 4.12998 18.5887 4.73998 18.5887 5.52998C18.5887 6.31998 17.9587 6.91998 17.1887 6.91998Z" fill="black"/>
<path d="M25.7619 10.67C27.1419 10.67 28.3019 9.61998 28.3019 8.12998V3.04998H27.1619V3.51998C27.1619 3.51998 26.6419 2.97998 25.7619 2.97998C24.3319 2.97998 23.2319 4.10998 23.2319 5.51998C23.2319 6.93998 24.3319 8.06998 25.7619 8.06998C26.6419 8.06998 27.1619 7.52998 27.1619 7.52998V8.12998C27.1619 8.93998 26.5219 9.55998 25.7719 9.55998C25.4119 9.55998 25.0519 9.41998 24.7719 9.12998L23.9719 9.92998C24.4519 10.42 25.0919 10.67 25.7619 10.67ZM25.7619 6.91998C25.0019 6.91998 24.3819 6.27998 24.3819 5.51998C24.3819 4.75998 24.9919 4.11998 25.7619 4.11998C26.5319 4.11998 27.1719 4.75998 27.1719 5.51998C27.1719 6.27998 26.5319 6.91998 25.7619 6.91998Z" fill="black"/>
<path d="M34.0789 8.06998C34.7589 8.06998 35.4289 7.80998 35.9289 7.31998L35.0989 6.50998C34.8389 6.77998 34.4789 6.92998 34.0889 6.92998C33.4689 6.91998 32.9889 6.55998 32.8189 5.98998H36.5989C36.5989 4.12998 35.5989 2.97998 34.0789 2.97998C32.6689 2.97998 31.5589 4.09998 31.5589 5.52998C31.5589 6.93998 32.6789 8.06998 34.0789 8.06998ZM32.7889 5.00998C32.9689 4.47998 33.4389 4.11998 34.0489 4.10998C34.6789 4.10998 35.1889 4.48998 35.3389 5.00998H32.7889Z" fill="black"/>
<path d="M45.0472 7.99998H46.1972V5.20998C46.1972 4.52998 46.6772 4.06998 47.3272 4.06998C47.9872 4.06998 48.4772 4.52998 48.4772 5.21998V7.99998H49.6272V5.22998C49.6272 3.89998 48.8272 2.97998 47.4972 2.97998C46.7872 2.97998 46.3472 3.40998 46.1972 3.54998V3.04998H45.0472V7.99998Z" fill="black"/>
<path d="M56.0676 1.81998C56.0676 0.96998 55.3776 0.29998 54.5476 0.29998C53.7076 0.29998 53.0276 0.95998 53.0276 1.81998C53.0276 2.66998 53.6976 3.33998 54.5376 3.33998C55.3876 3.33998 56.0676 2.64998 56.0676 1.81998ZM53.8376 1.80998C53.8376 1.41998 54.1676 1.10998 54.5476 1.10998C54.9376 1.10998 55.2476 1.41998 55.2476 1.80998C55.2476 2.18998 54.9376 2.51998 54.5476 2.51998C54.1476 2.51998 53.8376 2.19998 53.8376 1.80998Z" fill="black"/>
<path d="M61.7959 8.06998C63.1959 8.06998 64.3259 6.93998 64.3259 5.51998C64.3259 4.10998 63.1959 2.97998 61.7959 2.97998C60.3859 2.97998 59.2659 4.10998 59.2659 5.51998C59.2659 6.93998 60.3859 8.06998 61.7959 8.06998ZM61.7959 6.91998C61.0259 6.91998 60.4159 6.25998 60.4159 5.51998C60.4159 4.75998 61.0459 4.12998 61.7959 4.12998C62.5459 4.12998 63.1759 4.75998 63.1759 5.51998C63.1759 6.27998 62.5359 6.91998 61.7959 6.91998Z" fill="black"/>
<path d="M67.6257 6.92998V7.99998H71.9357V6.92998H70.3757V0.26998L67.6257 1.67998V2.82998L69.1757 2.07998V6.92998H67.6257Z" fill="black"/>
<path d="M75.1335 6.92998V7.99998H79.4435V6.92998H77.8835V0.26998L75.1335 1.67998V2.82998L76.6835 2.07998V6.92998H75.1335Z" fill="black"/>
</svg>
