<svg xmlns="http://www.w3.org/2000/svg" width="25" height="33" viewBox="0 0 50 66">
  <defs>
    <style>
      .cls-1 {
        fill: #fff;
        fill-rule: evenodd;
      }
    </style>
  </defs>
  <path id="_5" data-name="5" class="cls-1" d="M402.246,6762.89a20.247,20.247,0,0,0,20.241-20.16c0.08-11.28-8.08-20.08-19.361-20.08a15.8,15.8,0,0,0-8.56,2.24l1.52-15.2h24.721v-9.04h-32.8l-3.36,32.16,9.12,3.36a10.388,10.388,0,0,1,8.48-4.32,10.793,10.793,0,0,1,10.561,10.96,10.486,10.486,0,0,1-10.561,10.72c-6,0-10.4-4.72-10.48-10.72h-9.76A20.077,20.077,0,0,0,402.246,6762.89Z" transform="translate(-377.25 -6698.785)"/>
</svg>
