<svg xmlns="http://www.w3.org/2000/svg" width="446.5px" height="36.5px">
<path fill="rgb(255, 255, 255)" fill-rule="evenodd" d="M438.732,34.719 L438.270,34.455 C442.066,30.923 443.914,25.378 443.914,18.315 C443.914,11.153 442.066,5.609 438.270,2.077 L438.732,1.813 C442.561,5.345 444.574,11.087 444.574,18.315 L444.574,18.348 C444.574,25.444 442.561,31.187 438.732,34.719 ZM416.821,5.740 L421.441,5.740 L421.441,31.154 L416.821,31.154 L416.821,5.740 ZM393.261,31.154 L386.693,21.253 L383.920,21.253 L383.920,31.154 L379.300,31.154 L379.300,5.740 L388.904,5.740 C393.195,5.740 396.462,9.206 396.462,13.496 C396.462,16.764 394.548,19.569 391.742,20.691 L398.673,31.154 L393.261,31.154 ZM391.841,13.496 C391.841,11.780 390.620,10.031 388.706,10.031 L383.920,10.031 L383.920,16.962 L388.706,16.962 C390.620,16.962 391.841,15.180 391.841,13.496 ZM349.468,16.302 L359.172,16.302 L359.172,20.592 L349.468,20.592 L349.468,31.154 L344.782,31.154 L344.782,5.740 L360.657,5.740 L360.657,10.031 L349.468,10.031 L349.468,16.302 ZM326.174,34.719 C322.345,31.187 320.332,25.444 320.332,18.315 L320.332,18.282 C320.332,11.087 322.345,5.345 326.174,1.813 L326.636,2.077 C322.840,5.609 320.992,11.153 320.992,18.315 C320.992,25.378 322.840,30.923 326.636,34.455 L326.174,34.719 ZM288.551,31.385 C283.930,31.385 280.036,27.721 280.036,23.101 L284.657,23.101 C284.657,25.279 286.241,27.094 288.551,27.094 C290.861,27.094 292.479,25.345 292.479,23.035 C292.479,20.724 290.861,18.942 288.551,18.942 C287.462,18.942 286.439,19.404 285.713,20.130 L282.610,17.028 L289.607,10.031 L281.092,10.031 L281.092,5.740 L295.812,5.740 L295.812,10.031 L290.960,14.916 C294.327,15.939 297.099,18.744 297.099,23.035 C297.099,27.655 293.172,31.385 288.551,31.385 ZM250.996,27.226 L255.914,27.226 L255.914,12.407 L250.996,14.817 L250.996,10.460 L260.402,5.641 L260.402,27.226 L265.353,27.226 L265.353,31.154 L250.996,31.154 L250.996,27.226 ZM231.791,31.385 C230.306,31.385 229.085,30.164 229.085,28.679 C229.085,27.193 230.306,25.972 231.791,25.972 C233.276,25.972 234.497,27.193 234.497,28.679 C234.497,30.164 233.276,31.385 231.791,31.385 ZM197.570,27.226 L202.488,27.226 L202.488,12.407 L197.570,14.817 L197.570,10.460 L206.976,5.641 L206.976,27.226 L211.927,27.226 L211.927,31.154 L197.570,31.154 L197.570,27.226 ZM168.035,27.226 L172.953,27.226 L172.953,12.407 L168.035,14.817 L168.035,10.460 L177.441,5.641 L177.441,27.226 L182.392,27.226 L182.392,31.154 L168.035,31.154 L168.035,27.226 ZM147.510,31.385 C146.025,31.385 144.804,30.164 144.804,28.679 C144.804,27.193 146.025,25.972 147.510,25.972 C148.995,25.972 150.216,27.193 150.216,28.679 C150.216,30.164 148.995,31.385 147.510,31.385 ZM118.570,31.385 C113.916,31.385 110.154,27.622 110.154,23.002 L110.154,13.793 C110.154,9.107 113.883,5.410 118.570,5.410 C123.224,5.410 126.986,9.173 126.986,13.793 L126.986,23.002 C126.986,27.688 123.257,31.385 118.570,31.385 ZM122.366,13.727 C122.366,11.285 120.781,9.701 118.570,9.701 C116.326,9.701 114.774,11.285 114.774,13.727 L114.774,23.068 C114.774,25.510 116.326,27.094 118.570,27.094 C120.781,27.094 122.366,25.510 122.366,23.068 L122.366,13.727 ZM85.240,16.302 C85.735,15.642 86.065,14.817 86.065,13.892 C86.065,11.417 84.283,9.899 82.072,9.899 C79.894,9.899 78.111,11.384 78.078,13.826 L73.722,13.826 C73.722,8.975 77.451,5.509 82.072,5.509 C86.693,5.509 90.455,9.008 90.455,13.892 C90.455,15.807 89.795,17.589 88.706,18.975 L82.600,26.863 L91.016,26.863 L91.016,31.154 L73.788,31.154 L85.240,16.302 ZM47.158,31.385 C42.505,31.385 38.742,27.622 38.742,23.002 L38.742,13.793 C38.742,9.107 42.472,5.410 47.158,5.410 C51.812,5.410 55.574,9.173 55.574,13.793 L55.574,23.002 C55.574,27.688 51.845,31.385 47.158,31.385 ZM50.954,13.727 C50.954,11.285 49.370,9.701 47.158,9.701 C44.914,9.701 43.363,11.285 43.363,13.727 L43.363,23.068 C43.363,25.510 44.914,27.094 47.158,27.094 C49.370,27.094 50.954,25.510 50.954,23.068 L50.954,13.727 ZM13.829,16.302 C14.324,15.642 14.654,14.817 14.654,13.892 C14.654,11.417 12.871,9.899 10.660,9.899 C8.482,9.899 6.700,11.384 6.667,13.826 L2.310,13.826 C2.310,8.975 6.039,5.509 10.660,5.509 C15.281,5.509 19.043,9.008 19.043,13.892 C19.043,15.807 18.383,17.589 17.294,18.975 L11.188,26.863 L19.604,26.863 L19.604,31.154 L2.376,31.154 L13.829,16.302 Z"/>
</svg>
