<svg width="169" height="19" viewBox="0 0 169 19" fill="none" xmlns="http://www.w3.org/2000/svg">
<path d="M12.9965 7.18575L14.4725 8.21394C13.1292 12.874 9.96168 16.1244 5.46749 17.8491L4.10762 15.9917C8.23697 14.6153 10.9567 12.0282 11.7361 9.12605H0.658203V7.16915H12.9965V7.18575ZM12.8638 3.07297V4.99669H2.51558V3.07297H12.8638Z" fill="white" stroke="white" stroke-width="0.1878" stroke-miterlimit="10"/>
<path d="M29.8285 17.8325H27.5897V9.39137C25.6328 10.6517 23.593 11.7628 21.7688 12.4759L20.6411 10.5854C24.787 9.20895 30.6909 5.0796 32.9463 2.19403L34.6212 3.53731C33.4438 4.91376 31.7356 6.42289 29.7953 7.84909V17.8325H29.8285Z" fill="white" stroke="white" stroke-width="0.1878" stroke-miterlimit="10"/>
<path d="M53.1286 4.30017L53.8749 4.68159C53.3774 3.83582 52.8799 3.13931 52.2165 2.45938L53.2281 1.77944C53.9578 2.52571 54.4222 3.18907 54.9694 4.10118L53.9744 4.73134L54.8036 5.17911C53.4603 11.0829 50.5084 15.3615 44.8865 17.7828L43.4106 16.058C48.6842 14.0017 51.3044 10.5688 52.2331 6.29022H41.52V4.30017H53.1286V4.30017ZM57.1585 3.35489L56.0971 4.01825C55.6162 3.08956 55.1021 2.40962 54.4056 1.69651L55.4338 1C56.1469 1.74627 56.6112 2.40962 57.1585 3.35489Z" fill="white" stroke="white" stroke-width="0.1878" stroke-miterlimit="10"/>
<path d="M66.0148 4.84744C65.2188 9.25872 63.5936 13.9519 61.3548 17.0697L59.3315 15.9917C61.6201 13.0066 63.2287 8.52903 63.8423 4.43285L66.0148 4.84744ZM75.7826 15.9751L73.5438 16.6716C72.7975 13.2056 71.0231 8.64512 68.7511 4.84744L70.7743 3.96851C72.9966 7.86569 74.8042 12.393 75.7826 15.9751Z" fill="white" stroke="white" stroke-width="0.1878" stroke-miterlimit="10"/>
<path d="M86.7282 5.19569V2.16086H88.9173V5.19569H93.1462L94.9206 5.95855C94.4563 11.5141 92.2672 15.8093 86.5127 17.9154L85.2191 16.058C90.3601 14.3499 92.2009 11.0166 92.4828 7.18576H83.6603V11.0663H81.4878V5.19569H86.7282V5.19569Z" fill="white" stroke="white" stroke-width="0.1878" stroke-miterlimit="10"/>
<path d="M115.517 16.4892L113.61 17.8325C112.349 16.141 110.525 14.2007 108.784 12.6915C106.893 14.864 104.638 16.5887 102.233 17.8159L100.857 16.0912C105.683 13.9022 109.464 9.42454 110.575 5.7927H102.068V3.86901H111.835L113.311 4.71477C112.565 7.06966 111.454 9.20896 110.061 11.0829C111.985 12.7247 113.958 14.6982 115.517 16.4892Z" fill="white" stroke="white" stroke-width="0.1878" stroke-miterlimit="10"/>
<path d="M125.866 6.2239C126.147 4.88061 126.363 3.52073 126.512 2.14428L128.552 2.37645C128.386 3.62024 128.154 4.84743 127.889 6.07462C128.154 6.05804 128.419 6.05805 128.635 6.05805C131.338 6.05805 132.549 7.36816 132.549 10.204C132.549 13.0398 132.068 15.3449 131.388 16.4726C130.808 17.4511 130.094 17.8325 128.867 17.8325C127.988 17.8325 126.993 17.6998 126.214 17.534L126.346 15.6269C127.026 15.859 127.839 15.9751 128.453 15.9751C129.066 15.9751 129.315 15.8922 129.63 15.4776C130.194 14.6816 130.526 12.7911 130.526 10.3367C130.526 8.47928 129.995 7.93202 128.519 7.93202C128.171 7.93202 127.822 7.94859 127.441 7.96517C126.463 11.5804 125.136 14.8972 123.544 17.2189L121.736 16.2405C123.245 14.2173 124.522 11.3483 125.401 8.14759C124.257 8.28026 123.079 8.47929 121.985 8.71146L121.62 6.82091C122.897 6.57216 124.456 6.33998 125.866 6.2239ZM137.972 12.5091L135.932 13.0398C135.667 10.6683 134.638 7.94861 132.698 5.99172L134.373 4.94694C136.479 7.10283 137.69 10.2372 137.972 12.5091Z" fill="white" stroke="white" stroke-width="0.1878" stroke-miterlimit="10"/>
<path d="M146.562 11.1658C148.286 9.9884 150.409 9.22555 152.233 9.22555C155.053 9.22555 156.761 10.6849 156.761 13.0232C156.761 16.0083 154.439 17.8325 148.834 17.8325C148.552 17.8325 148.104 17.8325 147.772 17.8159L147.358 15.8922C147.905 15.9254 148.618 15.942 149.049 15.942C153.112 15.942 154.671 14.7977 154.671 13.0896C154.671 11.7463 153.792 10.9668 151.819 10.9668C150.044 10.9668 148.087 11.9453 146.114 13.7695L144.472 13.0398C144.472 9.02655 144.87 7.16915 146.247 5.14594L148.137 5.77613C146.877 7.48425 146.562 9.07629 146.562 11.1658ZM145.849 3.9685L146.346 2.09453C148.95 2.47596 152.731 3.30514 154.621 3.9519L154.074 5.84245C152.449 5.19568 148.419 4.26701 145.849 3.9685Z" fill="white" stroke="white" stroke-width="0.1878" stroke-miterlimit="10"/>
<path d="M164.373 13.1559C165.633 14.3168 167.109 15.8425 168.021 16.9867L166.33 18.3798C165.6 17.335 164.091 15.5605 162.897 14.4494L164.373 13.1559Z" fill="white" stroke="white" stroke-width="0.1878" stroke-miterlimit="10"/>
</svg>
