<svg xmlns="http://www.w3.org/2000/svg" width="25" height="33" viewBox="0 0 50 66">
  <defs>
    <style>
      .cls-1 {
        fill: #fff;
        fill-rule: evenodd;
      }
    </style>
  </defs>
  <path id=":" class="cls-1" d="M652.606,6737.93a5.975,5.975,0,0,0,5.92-6,5.907,5.907,0,0,0-5.92-5.92,5.975,5.975,0,0,0-6,5.92A6.044,6.044,0,0,0,652.606,6737.93Zm0,24.88a5.975,5.975,0,0,0,5.92-6,5.907,5.907,0,0,0-5.92-5.92,5.975,5.975,0,0,0-6,5.92A6.044,6.044,0,0,0,652.606,6762.81Z" transform="translate(-627.563 -6711.405)"/>
</svg>
