<svg xmlns="http://www.w3.org/2000/svg" width="25" height="33" viewBox="0 0 50 66">
  <defs>
    <style>
      .cls-1 {
        fill: #fff;
        fill-rule: evenodd;
      }
    </style>
  </defs>
  <path id="_8" data-name="8" class="cls-1" d="M557.326,6762.81a20.048,20.048,0,0,0,20.321-20.32,19.276,19.276,0,0,0-8.4-16.08,17.122,17.122,0,0,0,4.24-10.64c0-9.12-6.88-15.68-16-15.68-9.04,0-16,6.56-16,15.68a16.664,16.664,0,0,0,4.16,10.4,19.6,19.6,0,0,0-8.64,16.24A20.164,20.164,0,0,0,557.326,6762.81Zm0.16-40.64a6.2,6.2,0,0,1,0-12.4,6.112,6.112,0,0,1,6.161,6.16A6.181,6.181,0,0,1,557.486,6722.17Zm-0.16,30.8a10.48,10.48,0,1,1,10.481-10.48A10.568,10.568,0,0,1,557.326,6752.97Z" transform="translate(-532.328 -6698.45)"/>
</svg>
