<svg width="125" height="18" viewBox="0 0 125 18" fill="none" xmlns="http://www.w3.org/2000/svg">
<path d="M9.17579 13.5323L8.09784 14.9088C7.68325 14.3781 7.08624 13.6816 6.42289 12.985V17.4129H4.49917V13.6152C3.80265 14.66 2.99005 15.6053 2.21061 16.2852L1 14.8093C2.21061 13.9635 3.58706 12.5373 4.38308 11.0116H1.34826V9.40294H4.48259V7.91041H1.24876V6.31839H2.95688C2.90713 5.57212 2.74129 4.69319 2.50912 3.89717H1.54726V2.3383H4.48259V0.630173H6.4063V2.3383H9.34162V3.89717H8.57877C8.37977 4.62686 8.11443 5.47261 7.81592 6.31839H9.47429V7.91041H6.4063V9.40294H9.39138V11.0116H6.4063V11.1609C7.41791 11.9569 8.54561 12.9187 9.17579 13.5323ZM6.15755 6.30179C6.38972 5.48918 6.58872 4.61026 6.72139 3.88057H4.20066C4.43284 4.72634 4.58209 5.58868 4.61526 6.30179H6.15755ZM16.1575 17.4129H14.1841V8.24211H12.0945V9.58539C12.0945 12.5539 11.4809 15.2736 9.39138 17.3963L7.6335 16.2686C9.64013 14.3781 10.1376 12.1891 10.1376 9.55224V2.60364H10.801C12.7745 2.2388 15.2123 1.40961 16.5058 0.630173L17.6832 2.1061C16.2902 2.88554 14.0182 3.68159 12.0945 4.11277V6.43448H18.0149V8.22551H16.1575V17.4129Z" fill="white" stroke="white" stroke-width="0.1878" stroke-miterlimit="10"/>
<path d="M27.3353 1.37642C27.0866 5.24043 27.0036 8.85569 27.0036 10.5472C27.0036 13.6318 27.9987 14.7595 30.3204 14.7595C32.5758 14.7595 34.201 13.5987 35.4282 9.80099L37.3851 10.7463C35.6272 15.4892 33.2889 16.8491 30.2706 16.8491C26.5725 16.8491 24.9307 14.7429 24.9307 10.6136C24.9307 8.90545 25.0136 5.25703 25.0799 1.39302H27.3353V1.37642Z" fill="white" stroke="white" stroke-width="0.1878" stroke-miterlimit="10"/>
<path d="M46.1742 3.54888C46.0084 4.94191 45.9089 6.23546 45.9089 7.39632C45.9089 11.3433 47.1029 13.7479 48.1809 13.7479C48.7945 13.7479 49.3915 12.5871 49.7398 10.8955L51.4976 11.675C50.8177 14.6103 49.7232 16.0862 48.2804 16.0862C46.224 16.0862 43.8359 13.2172 43.8359 7.46267C43.8359 6.23547 43.8857 4.84244 44.0184 3.36648L46.1742 3.54888ZM55.0631 2.95189C57.7497 5.75454 58.6121 8.67327 58.7613 12.786L56.5059 12.985C56.4728 8.90543 55.6933 6.48422 53.3053 4.07957L55.0631 2.95189Z" fill="white" stroke="white" stroke-width="0.1878" stroke-miterlimit="10"/>
<path d="M66.4561 2.25535H69.8557V14.3947H66.4561V15.5556H64.6318V2.27195H65.5605H66.4561V2.25535ZM68.0149 7.32998V4.06303H66.4561V7.32998H68.0149ZM66.4561 9.0713V12.5539H68.0149V9.0713H66.4561ZM76.7711 9.66829V8.07626H70.3201V6.35154H74.5655V4.36152H71.3648V2.6534H74.5655V0.646729H76.5721V2.6534H79.7396V4.36152H76.5721V6.35154H80.9005V8.07626H78.7778V9.66829H80.8673V11.4262H78.7778V15.539C78.7778 16.5837 78.4793 17.1642 77.534 17.33C77.0697 17.3964 75.9254 17.4129 75.0962 17.3798L74.7313 15.4892C75.3118 15.539 76.141 15.5389 76.3897 15.5224C76.6716 15.5058 76.7711 15.3731 76.7711 15.1078V11.4262H70.3864V9.66829H76.7711V9.66829ZM72.7081 11.6252C73.8524 12.6534 74.7313 13.6484 75.3284 14.5937L73.6866 15.6882C73.1393 14.7098 72.3433 13.6981 71.2985 12.6699L72.7081 11.6252Z" fill="white" stroke="white" stroke-width="0.1878" stroke-miterlimit="10"/>
<path d="M90.9001 17.4129H88.9266V8.82255C88.4623 9.4859 87.9648 10.1327 87.4507 10.7794L86.0742 9.20394C88.1804 6.76613 89.789 3.68158 90.6016 0.630173L92.6248 1.11106C92.1936 2.55385 91.5966 4.02985 90.9001 5.45605V17.4129ZM95.726 6.13599C95.527 4.44445 95.3777 2.60364 95.2948 0.679922H97.4175C97.4673 2.5373 97.5833 4.27859 97.7492 5.85404L102.84 5.1907L103.089 7.09782L97.9648 7.76116C98.5784 12.2222 99.59 15.058 100.817 15.1575C101.232 15.1907 101.398 14.5937 101.497 12.6368L103.222 13.1343C102.89 16.6666 102.011 17.5622 100.386 17.2968C98.0974 16.932 96.721 13.2835 95.9415 8.00991L91.7293 8.57375L91.5137 6.65008L95.726 6.13599ZM99.4905 0.82917C100.734 1.75786 101.696 2.63679 102.359 3.51573L100.9 4.59366C100.27 3.69814 99.3578 2.78604 98.2301 1.85735L99.4905 0.82917Z" fill="white" stroke="white" stroke-width="0.1878" stroke-miterlimit="10"/>
<path d="M108.695 10.4312C108.695 6.3184 111.995 2.37144 116.705 2.37144C121.913 2.37144 123.919 5.43944 123.919 9.05469C123.919 12.5207 122.36 15.5224 117.17 16.6501L116.175 14.6766C120.602 13.9138 121.796 11.7744 121.796 9.07129C121.796 6.36814 120.37 4.54394 117.319 4.36151C117.054 11.1277 114.964 15.7379 112.112 15.7379C110.072 15.7379 108.679 13.1509 108.679 10.4312H108.695ZM110.669 10.398C110.669 12.1227 111.349 13.4826 112.178 13.4826C113.405 13.4826 115.063 10.2985 115.246 4.52736C112.36 5.17413 110.669 7.66165 110.669 10.398Z" fill="white" stroke="white" stroke-width="0.1878" stroke-miterlimit="10"/>
</svg>
