<svg width="153" height="18" viewBox="0 0 153 18" fill="none" xmlns="http://www.w3.org/2000/svg">
<path d="M8.90033 4.84244V12.3549H1.60348V6.56717L0.658203 5.9038C1.93515 4.51077 2.89701 2.78607 3.37794 0.995026L5.00315 1.34327C4.9534 1.55886 4.87047 1.79105 4.80414 2.00664H6.11426H6.44593H6.87711L7.83897 2.55388C7.50729 3.25039 7.07612 4.06302 6.62836 4.85904H8.90033V4.84244ZM3.12918 13.2504C2.96335 14.7927 2.58192 16.6335 2.10099 17.728L0.67479 17.131C1.20547 16.1028 1.55373 14.3449 1.70298 12.9353L3.12918 13.2504ZM3.31161 7.92702H4.48905V6.36814H3.31161V7.92702ZM3.31161 10.8292H4.48905V9.22055H3.31161V10.8292ZM4.93681 4.84244C5.1524 4.42785 5.36799 3.98009 5.58358 3.49916H4.19054C3.97495 3.94692 3.7262 4.39468 3.46086 4.84244H4.93681ZM4.88706 13.0846C5.13582 14.5605 5.23532 15.8541 5.21873 16.9983L3.77595 17.0647C3.8257 15.9204 3.77595 14.6434 3.61011 13.1841L4.88706 13.0846ZM6.86053 12.9519C7.24195 14.3118 7.44096 15.4726 7.54046 16.534L6.16401 16.6998C6.11426 15.6551 5.93184 14.4776 5.61675 13.1675L6.86053 12.9519ZM7.14245 7.92702V6.36814H5.89867V7.92702H7.14245ZM7.14245 10.8292V9.22055H5.89867V10.8292H7.14245ZM8.83399 12.6865C9.26517 13.8474 9.56368 14.8756 9.72951 15.7877L8.4194 16.0531C8.28673 15.1244 8.03797 14.0962 7.65655 12.9519L8.83399 12.6865ZM12.5487 11.1608V9.25372H9.91194V7.57878H12.5487V5.82088H9.44759V4.11275H10.9235C10.708 3.33332 10.3265 2.42122 9.87877 1.60862L11.4542 0.995026C11.9849 1.95688 12.4161 3.00165 12.6317 3.78108L11.7361 4.12935H14.1574C14.6881 3.03483 15.1856 1.85737 15.4509 1.0116L17.2751 1.59204C16.9269 2.33831 16.4625 3.25041 15.965 4.12935H17.5405V5.83748H14.4891V7.59535H17.1425V9.2703H14.4891V11.1774H17.7063V12.9519H14.4891V17.7612H12.5819V12.9519H9.41442V11.1774H12.5487V11.1608Z" fill="white" stroke="white" stroke-width="0.1878" stroke-miterlimit="10"/>
<path d="M25.2358 1.85736H29.7963V13.3002H25.2358V14.66H23.3784V1.85736H24.3237H25.2358ZM27.9224 6.60031V3.59866H25.2524V6.60031H27.9224ZM25.2358 8.34161V11.5423H27.9058V8.34161H25.2358ZM32.8477 11.8408C32.3668 13.9967 31.2723 15.9867 29.1993 17.7446L27.657 16.4677C30.5426 14.2123 31.2889 11.5091 31.2889 8.49086V1.57544H32.1844H33.1794H36.9937H37.9224H38.9506V15.5887C38.9506 16.8159 38.5857 17.4958 37.458 17.6783C36.9771 17.7446 35.8494 17.7446 35.0202 17.7114C34.8875 16.9818 34.7715 16.4179 34.6388 15.8209C35.2855 15.8706 36.1976 15.8872 36.4962 15.854C36.8942 15.8209 36.9937 15.6219 36.9937 15.257V11.8408H32.8477ZM36.9937 10.1161V7.529H33.1794V8.49086C33.1794 9.03812 33.1628 9.56882 33.1131 10.1161H36.9937ZM36.9937 5.78773V3.31674H33.1794V5.78773H36.9937Z" fill="white" stroke="white" stroke-width="0.1878" stroke-miterlimit="10"/>
<path d="M45.9155 10.1492C45.9155 7.21391 46.3135 4.09617 46.9105 1.60861L49.0664 1.99003C48.3865 4.37809 48.0051 7.29684 48.0051 10.1327C48.0051 12.6036 48.2538 14.7595 49.0001 16.5672L46.894 17.1807C46.214 15.257 45.9321 12.869 45.9321 10.1824V10.1492H45.9155ZM59.68 15.9535C58.5192 16.0696 57.2256 16.136 56.1643 16.136C52.9305 16.136 50.4926 15.539 50.4926 13.6816C50.4926 12.9519 50.7248 12.0564 51.2721 10.8623L53.1129 11.194C52.7149 12.0398 52.5159 12.5871 52.5159 13.0348C52.5159 13.9635 53.7431 14.2454 56.1311 14.2454C57.2422 14.2454 58.5192 14.1128 59.68 13.9137V15.9535ZM56.7281 4.04642C57.6071 4.04642 58.5523 4.06302 59.2986 4.0796L59.2654 6.01989C58.3699 5.95356 57.2588 5.9038 56.1643 5.9038C54.3898 5.9038 52.4164 6.01989 50.8409 6.16914L50.7082 4.26202C52.4329 4.09618 54.7049 4.04642 56.7115 4.04642H56.7281Z" fill="white" stroke="white" stroke-width="0.1878" stroke-miterlimit="10"/>
<path d="M67.3582 5.72138V0.978424H69.3316V5.32338C71.7363 4.85904 72.3167 4.72635 72.8806 4.57709L73.2288 6.36814L69.3316 7.16418V10.995C69.3316 12.2222 69.4477 12.388 69.8126 12.388C70.1111 12.388 70.6418 12.388 70.9734 12.388C71.3714 12.3715 71.4046 12.2554 71.4212 10.2156L73.1293 10.4975C72.9635 13.864 72.6318 14.2288 71.0895 14.2952C70.6418 14.3118 70.0116 14.3118 69.6302 14.2952C67.7894 14.262 67.3582 13.6318 67.3582 10.9784V7.57877L65.6832 7.92702L65.335 6.1194L67.3582 5.72138ZM72.1343 17.7446L70.4428 16.4013C74.655 13.9138 75.1194 9.27031 75.2023 3.81426H72.5489V1.94028H79.7462H80.8076H81.786C81.5704 10.9287 81.3714 16.335 80.5754 17.1642C80.2272 17.529 79.7628 17.6949 79.0166 17.7114C78.4859 17.728 77.3914 17.728 76.7446 17.6948L76.4129 15.7048C77.0099 15.7546 77.9884 15.7711 78.403 15.7545C78.6517 15.738 78.8175 15.6882 78.9502 15.539C79.3814 15.0746 79.5804 11.1277 79.7131 3.81426H77.2089C77.0431 9.75124 76.4129 14.9254 72.1343 17.7446Z" fill="white" stroke="white" stroke-width="0.1878" stroke-miterlimit="10"/>
<path d="M88.4858 7.26368C88.4858 5.45605 88.7346 3.63183 89.1823 2.02321L91.2553 2.45437C90.708 4.01325 90.4261 5.72138 90.4261 7.09783C90.4261 7.89385 90.509 8.60695 90.6417 9.0713C90.9236 8.52403 91.6036 7.39633 91.985 6.78273L93.2785 7.92702C92.6483 8.87229 91.5206 10.8955 91.1226 11.99L89.3482 12.2554C88.7346 10.9121 88.4692 9.12104 88.4692 7.29683V7.26368H88.4858ZM99.4311 1.77446C99.8457 3.9801 100.045 5.85404 100.045 8.20894C100.045 12.388 98.8175 15.5555 93.2288 17.3134L92.0513 15.3565C97.0264 13.9801 97.9054 11.8408 97.9054 8.24211C97.9054 6.13598 97.723 4.14591 97.2255 2.13928L99.4311 1.77446Z" fill="white" stroke="white" stroke-width="0.1878" stroke-miterlimit="10"/>
<path d="M107.922 13.0182V3.39966H106.612V1.62518H115.501V3.21723H121.206H121.604H121.819L123.229 3.43283C122.781 7.21392 121.853 10.398 120.393 12.9685C121.322 14.3284 122.416 15.4229 123.66 16.2355L122.217 17.728C121.123 16.9154 120.128 15.9038 119.249 14.6932C118.32 15.8872 117.259 16.9154 116.015 17.728L114.622 16.2189C116.048 15.3731 117.209 14.262 118.138 12.9353C117.043 10.9121 116.214 8.50744 115.667 5.77112L117.458 5.20728C117.856 7.39633 118.453 9.33664 119.266 10.995C120.062 9.32006 120.625 7.32999 120.957 5.04143H115.335V3.39966H114.373V17.7114H112.483V14.1293C110.625 14.4278 108.271 14.8093 106.828 15.0083L106.496 13.1675C106.911 13.1343 107.392 13.0846 107.922 13.0182ZM112.499 5.32338V3.38306H109.813V5.32338H112.499ZM112.499 8.9718V6.96515H109.813V8.9718H112.499ZM112.499 12.4378V10.6136H109.813V12.8026C110.725 12.6866 111.67 12.5705 112.499 12.4378Z" fill="white" stroke="white" stroke-width="0.1878" stroke-miterlimit="10"/>
<path d="M139.498 2.17245L140.51 3.61526C139.001 4.85904 136.762 6.79933 135.452 8.00994C136.181 7.7446 136.894 7.61192 137.724 7.61192C140.642 7.61192 142.301 9.76782 142.301 12.1891C142.301 15.2239 140.078 17.1144 135.916 17.1144C133.097 17.1144 131.554 15.9535 131.554 14.2454C131.554 12.6865 132.981 11.5091 135.037 11.5091C137.11 11.5091 138.304 12.7529 138.652 14.859C139.68 14.3781 140.244 13.5157 140.244 12.2388C140.244 10.6468 139.05 9.30347 137.16 9.30347C136.397 9.30347 135.302 9.4859 134.39 9.83416C132.964 10.398 130.991 11.8739 129.481 13.2836L128.122 11.7081C130.825 9.73464 134.755 6.26865 136.745 4.31177C135.17 4.44444 132.069 4.5937 130.095 4.67662L129.962 2.70315C132.549 2.68656 137.143 2.47096 139.498 2.17245ZM135.037 13.1011C134.025 13.1011 133.379 13.5489 133.379 14.1957C133.379 14.8922 134.125 15.3731 135.734 15.3731C136.165 15.3731 136.579 15.3399 136.944 15.3068C136.778 13.9469 136.165 13.1011 135.037 13.1011Z" fill="white" stroke="white" stroke-width="0.1878" stroke-miterlimit="10"/>
<path d="M152.284 15.3234C152.284 16.6169 151.223 17.7114 149.879 17.7114C148.569 17.7114 147.475 16.6335 147.475 15.3068C147.475 13.9967 148.553 12.9021 149.879 12.9021C151.223 12.9021 152.284 13.9801 152.284 15.3068V15.3234ZM148.387 15.3234C148.387 16.136 149.05 16.8159 149.879 16.8159C150.708 16.8159 151.388 16.136 151.388 15.3068C151.388 14.4942 150.708 13.8143 149.879 13.8143C149.05 13.8143 148.387 14.4942 148.387 15.3068V15.3234Z" fill="white" stroke="white" stroke-width="0.1878" stroke-miterlimit="10"/>
</svg>
