<svg width="72" height="11" viewBox="0 0 72 11" fill="none" xmlns="http://www.w3.org/2000/svg">
<path d="M2.61678 8.07C4.10678 8.07 5.19678 7.17 5.19678 5.77C5.19678 4.87 4.73678 4.1 3.69678 3.67C3.18678 3.45 2.74678 3.31 2.29678 3.14C1.92678 3.01 1.48678 2.79 1.48678 2.32C1.48678 1.8 1.93678 1.44 2.52678 1.44C3.01678 1.44 3.38678 1.74 3.61678 2.09L4.67678 1.44C4.21678 0.82 3.60678 0.23 2.53678 0.23C1.26678 0.23 0.256782 1.04 0.256782 2.33C0.256782 3.27 0.886782 3.94 1.71678 4.24C2.19678 4.42 2.47678 4.5 2.89678 4.66C3.71678 4.96 3.97678 5.33 3.97678 5.82C3.97678 6.42 3.42678 6.86 2.66678 6.86C1.87678 6.86 1.40678 6.34 1.17678 5.86L0.0767822 6.43C0.596782 7.43 1.48678 8.07 2.61678 8.07Z" fill="black"/>
<path d="M9.08631 8.01H10.2363V4.14H11.1163V3.05H10.2363V1.26H9.08631V3.05H8.19631V4.14H9.08631V8.01Z" fill="black"/>
<path d="M19.097 3.05H17.947V3.52C17.947 3.52 17.427 2.98 16.547 2.98C15.147 2.98 14.017 4.1 14.017 5.53C14.017 6.95 15.147 8.07 16.547 8.07C17.427 8.07 17.947 7.53 17.947 7.53V8H19.097V3.05ZM16.557 6.92C15.787 6.92 15.167 6.32 15.167 5.53C15.167 4.74 15.787 4.13 16.557 4.13C17.327 4.13 17.957 4.74 17.957 5.53C17.957 6.32 17.327 6.92 16.557 6.92Z" fill="black"/>
<path d="M25.1302 10.67C26.5102 10.67 27.6702 9.62 27.6702 8.13V3.05H26.5302V3.52C26.5302 3.52 26.0102 2.98 25.1302 2.98C23.7002 2.98 22.6002 4.11 22.6002 5.52C22.6002 6.94 23.7002 8.07 25.1302 8.07C26.0102 8.07 26.5302 7.53 26.5302 7.53V8.13C26.5302 8.94 25.8902 9.56 25.1402 9.56C24.7802 9.56 24.4202 9.42 24.1402 9.13L23.3402 9.93C23.8202 10.42 24.4602 10.67 25.1302 10.67ZM25.1302 6.92C24.3702 6.92 23.7502 6.28 23.7502 5.52C23.7502 4.76 24.3602 4.12 25.1302 4.12C25.9002 4.12 26.5402 4.76 26.5402 5.52C26.5402 6.28 25.9002 6.92 25.1302 6.92Z" fill="black"/>
<path d="M33.4472 8.07C34.1272 8.07 34.7972 7.81 35.2972 7.32L34.4672 6.51C34.2072 6.78 33.8472 6.93 33.4572 6.93C32.8372 6.92 32.3572 6.56 32.1872 5.99H35.9672C35.9672 4.13 34.9672 2.98 33.4472 2.98C32.0372 2.98 30.9272 4.1 30.9272 5.53C30.9272 6.94 32.0472 8.07 33.4472 8.07ZM32.1572 5.01C32.3372 4.48 32.8072 4.12 33.4172 4.11C34.0472 4.11 34.5572 4.49 34.7072 5.01H32.1572Z" fill="black"/>
<path d="M44.4155 8H45.5655V5.21C45.5655 4.53 46.0455 4.07 46.6955 4.07C47.3555 4.07 47.8455 4.53 47.8455 5.22V8H48.9955V5.23C48.9955 3.9 48.1955 2.98 46.8655 2.98C46.1555 2.98 45.7155 3.41 45.5655 3.55V3.05H44.4155V8Z" fill="black"/>
<path d="M55.4359 1.82C55.4359 0.97 54.7459 0.3 53.9159 0.3C53.0759 0.3 52.3959 0.96 52.3959 1.82C52.3959 2.67 53.0659 3.34 53.9059 3.34C54.7559 3.34 55.4359 2.65 55.4359 1.82ZM53.2059 1.81C53.2059 1.42 53.5359 1.11 53.9159 1.11C54.3059 1.11 54.6159 1.42 54.6159 1.81C54.6159 2.19 54.3059 2.52 53.9159 2.52C53.5159 2.52 53.2059 2.2 53.2059 1.81Z" fill="black"/>
<path d="M61.1642 8.07C62.5642 8.07 63.6942 6.94 63.6942 5.52C63.6942 4.11 62.5642 2.98 61.1642 2.98C59.7542 2.98 58.6342 4.11 58.6342 5.52C58.6342 6.94 59.7542 8.07 61.1642 8.07ZM61.1642 6.92C60.3942 6.92 59.7842 6.26 59.7842 5.52C59.7842 4.76 60.4142 4.13 61.1642 4.13C61.9142 4.13 62.5442 4.76 62.5442 5.52C62.5442 6.28 61.9042 6.92 61.1642 6.92Z" fill="black"/>
<path d="M69.434 8.07C70.844 8.07 71.974 6.93 71.974 5.51C71.974 4.17 70.964 3.05 69.444 3.05L71.064 0.63L70.134 0L67.354 4.07C67.054 4.5 66.894 5 66.894 5.52C66.894 6.93 68.024 8.07 69.434 8.07ZM69.434 6.84C68.704 6.84 68.114 6.26 68.114 5.53C68.114 4.79 68.694 4.2 69.434 4.2C70.164 4.2 70.744 4.79 70.744 5.53C70.744 6.24 70.184 6.84 69.434 6.84Z" fill="black"/>
</svg>
