<svg width="223" height="17" viewBox="0 0 223 17" fill="none" xmlns="http://www.w3.org/2000/svg">
<path d="M0.692912 15H9.30591V12.855H5.09841L8.15091 8.9115C8.69541 8.2185 9.02541 7.3275 9.02541 6.3705C9.02541 3.9285 7.14441 2.1795 4.83441 2.1795C2.52441 2.1795 0.659912 3.912 0.659912 6.3375H2.83791C2.85441 5.1165 3.74541 4.374 4.83441 4.374C5.93991 4.374 6.83091 5.133 6.83091 6.3705C6.83091 6.8325 6.66591 7.245 6.41841 7.575L0.692912 15Z" fill="white"/>
<path d="M22.0977 15.1155C24.4407 15.1155 26.3052 13.2675 26.3052 10.9245V6.321C26.3052 4.011 24.4242 2.13 22.0977 2.13C19.7547 2.13 17.8902 3.978 17.8902 6.321V10.9245C17.8902 13.2345 19.7712 15.1155 22.0977 15.1155ZM22.0977 12.9705C20.9757 12.9705 20.2002 12.1785 20.2002 10.9575V6.288C20.2002 5.067 20.9757 4.275 22.0977 4.275C23.2032 4.275 23.9952 5.067 23.9952 6.288V10.9575C23.9952 12.1785 23.2032 12.9705 22.0977 12.9705Z" fill="white"/>
<path d="M34.7596 15H43.3726V12.855H39.1651L42.2176 8.9115C42.7621 8.2185 43.0921 7.3275 43.0921 6.3705C43.0921 3.9285 41.2111 2.1795 38.9011 2.1795C36.5911 2.1795 34.7266 3.912 34.7266 6.3375H36.9046C36.9211 5.1165 37.8121 4.374 38.9011 4.374C40.0066 4.374 40.8976 5.133 40.8976 6.3705C40.8976 6.8325 40.7326 7.245 40.4851 7.575L34.7596 15Z" fill="white"/>
<path d="M51.9569 13.0365V15H59.1344V13.0365H56.6594V2.2455L51.9569 4.6545V6.8325L54.4154 5.628V13.0365H51.9569Z" fill="white"/>
<path d="M69.0622 15.1155C69.8047 15.1155 70.4152 14.505 70.4152 13.7625C70.4152 13.02 69.8047 12.4095 69.0622 12.4095C68.3197 12.4095 67.7092 13.02 67.7092 13.7625C67.7092 14.505 68.3197 15.1155 69.0622 15.1155Z" fill="white"/>
<path d="M83.5279 15.1155C85.8709 15.1155 87.7354 13.2675 87.7354 10.9245V6.321C87.7354 4.011 85.8544 2.13 83.5279 2.13C81.1849 2.13 79.3204 3.978 79.3204 6.321V10.9245C79.3204 13.2345 81.2014 15.1155 83.5279 15.1155ZM83.5279 12.9705C82.4059 12.9705 81.6304 12.1785 81.6304 10.9575V6.288C81.6304 5.067 82.4059 4.275 83.5279 4.275C84.6334 4.275 85.4254 5.067 85.4254 6.288V10.9575C85.4254 12.1785 84.6334 12.9705 83.5279 12.9705Z" fill="white"/>
<path d="M100.529 15.1155C102.922 15.1155 104.72 13.317 104.72 10.9245C104.72 9.7035 104.176 8.466 103.07 7.7235C103.598 7.08 104.011 6.2385 104.011 5.463C104.011 3.483 102.575 2.1795 100.595 2.1795C98.6154 2.1795 97.1799 3.483 97.1799 5.463C97.1799 6.2055 97.5759 7.0305 98.0544 7.641C96.8994 8.4825 96.3219 9.621 96.3219 10.8915C96.3219 13.284 98.1369 15.1155 100.529 15.1155ZM100.595 6.7005C99.9519 6.7005 99.4404 6.189 99.4404 5.5455C99.4404 4.9185 99.9519 4.407 100.595 4.407C101.222 4.407 101.734 4.9185 101.734 5.5455C101.734 6.189 101.222 6.7005 100.595 6.7005ZM100.529 12.855C99.5064 12.855 98.5989 11.9805 98.5989 10.9245C98.5989 9.852 99.5064 8.994 100.529 8.994C101.552 8.994 102.46 9.852 102.46 10.9245C102.46 11.9805 101.552 12.855 100.529 12.855Z" fill="white"/>
<path d="M114.66 15.1155C115.402 15.1155 116.013 14.505 116.013 13.7625C116.013 13.02 115.402 12.4095 114.66 12.4095C113.917 12.4095 113.307 13.02 113.307 13.7625C113.307 14.505 113.917 15.1155 114.66 15.1155Z" fill="white"/>
<path d="M124.918 13.0365V15H132.095V13.0365H129.62V2.2455L124.918 4.6545V6.8325L127.376 5.628V13.0365H124.918Z" fill="white"/>
<path d="M144.68 15.1155C146.99 15.1155 148.953 13.251 148.953 10.941C148.953 8.796 147.567 7.3935 145.884 6.882L148.31 4.44V2.295H140.951V4.44H145.208L141.71 7.938L143.261 9.489C143.624 9.126 144.135 8.895 144.68 8.895C145.835 8.895 146.643 9.786 146.643 10.941C146.643 12.096 145.835 12.9705 144.68 12.9705C143.525 12.9705 142.733 12.063 142.733 10.974H140.423C140.423 13.284 142.37 15.1155 144.68 15.1155Z" fill="white"/>
<path d="M158.922 8.664C158.922 12.228 159.929 15.099 161.843 16.8645L162.074 16.7325C160.176 14.967 159.252 12.195 159.252 8.664C159.252 5.0835 160.176 2.3115 162.074 0.546002L161.843 0.414001C159.929 2.1795 158.922 5.0505 158.922 8.6475V8.664Z" fill="white"/>
<path d="M172.716 2.295V15H174.449V9.621H179.844V7.971H174.449V3.945H180.636V2.295H172.716Z" fill="white"/>
<path d="M199.637 15L196.089 9.621C197.624 9.1755 198.696 7.74 198.696 6.0405C198.696 3.978 197.112 2.295 195.05 2.295H190.116V15H191.849V9.7695H194.06L197.525 15H199.637ZM191.849 3.945H194.967C196.122 3.945 196.964 4.8855 196.964 6.0405C196.964 7.1955 196.122 8.1195 194.967 8.1195H191.849V3.945Z" fill="white"/>
<path d="M210.602 2.295V15H208.869V2.295H210.602Z" fill="white"/>
<path d="M222.988 8.664C222.988 5.0505 221.982 2.1795 220.068 0.414001L219.837 0.546002C221.734 2.3115 222.658 5.0835 222.658 8.664C222.658 12.195 221.734 14.967 219.837 16.7325L220.068 16.8645C221.982 15.099 222.988 12.228 222.988 8.6805V8.664Z" fill="white"/>
</svg>
