<svg xmlns="http://www.w3.org/2000/svg" viewBox="0 0 667.43 27.46"><defs><style>.cls-1{fill:#fff;}</style></defs><g id="レイヤー_2" data-name="レイヤー 2"><g id="レイヤー_1-2" data-name="レイヤー 1"><path class="cls-1" d="M0,21.39l4.29-2.2a5.09,5.09,0,0,0,4.82,3.46c2.34,0,4.22-1.29,4.22-3s-1.22-2.69-3.14-3.56-2.79-1-5-2A7,7,0,0,1,.73,7.54C.73,2.93,4.29.1,8.72.1s6.42,2.45,7.86,4.58L12.39,7.26A4.52,4.52,0,0,0,8.65,4.92c-1.71,0-3,1-3,2.51,0,1.08.63,1.75,2,2.34,1.92.8,3.39,1.33,5.69,2.34a7.76,7.76,0,0,1,4.89,7.12c0,5.06-3.95,8.23-9.22,8.23C5,27.46,1.78,25.27,0,21.39Z"/><path class="cls-1" d="M35.18,4.89V.35H53.4V4.89H46.73V27.22H41.85V4.89Z"/><path class="cls-1" d="M86.62,21.92h-12l-2.16,5.3H67.14L78.17.35H83l11.1,26.87H88.81Zm-1.89-4.54-4.19-10-4.08,10Z"/><path class="cls-1" d="M126.83,27.22l-7-10.47H117V27.22h-4.88V.35h10.15a8,8,0,0,1,8,8.2,8.11,8.11,0,0,1-5,7.61l7.33,11.06Zm-9.88-15H122a3.52,3.52,0,0,0,3.32-3.66A3.5,3.5,0,0,0,122,4.89H117Z"/><path class="cls-1" d="M148.61,4.89V.35h18.22V4.89h-6.67V27.22h-4.88V4.89Z"/><path class="cls-1" d="M210.25,11.52A4.26,4.26,0,0,0,211.12,9a4.23,4.23,0,0,0-8.45-.07h-4.6A8.85,8.85,0,0,1,215.76,9a8.7,8.7,0,0,1-1.85,5.37l-6.45,8.34h8.89v4.54H198.14Z"/><path class="cls-1" d="M245.81,11.52A4.26,4.26,0,0,0,246.68,9a4.22,4.22,0,0,0-8.44-.07h-4.61A8.85,8.85,0,0,1,251.32,9a8.7,8.7,0,0,1-1.85,5.37L243,22.68h8.9v4.54H233.7Z"/><path class="cls-1" d="M270.21,8.86a2.87,2.87,0,1,1,2.87,2.86A2.88,2.88,0,0,1,270.21,8.86Zm0,10.85a2.87,2.87,0,1,1,2.87,2.86A2.87,2.87,0,0,1,270.21,19.71Z"/><path class="cls-1" d="M294.77,18.6V8.86a8.9,8.9,0,0,1,17.8,0V18.6a8.9,8.9,0,0,1-17.8,0Zm12.91.07V8.79a4,4,0,1,0-8,0v9.88a4,4,0,1,0,8,0Z"/><path class="cls-1" d="M332,18.6V8.86a8.9,8.9,0,0,1,17.79,0V18.6a8.9,8.9,0,0,1-17.79,0Zm12.91.07V8.79a4,4,0,1,0-8,0v9.88a4,4,0,1,0,8,0Z"/><path class="cls-1" d="M389.54.35h1.22L364,27.22h-1.29Z"/><path class="cls-1" d="M418.23.35V4.89H406.4v6.63h10.26v4.53H406.4V27.22h-5V.35Z"/><path class="cls-1" d="M462.67,13.78a13.68,13.68,0,1,1-27.36,0,13.68,13.68,0,0,1,27.36,0Zm-4.88,0a8.8,8.8,0,1,0-8.8,8.83A8.75,8.75,0,0,0,457.79,13.75Z"/><path class="cls-1" d="M496.75,27.22l-6.94-10.47h-2.93V27.22H482V.35h10.16a8,8,0,0,1,8,8.2,8.12,8.12,0,0,1-5,7.61l7.33,11.06Zm-9.87-15h5.06a3.52,3.52,0,0,0,3.31-3.66,3.5,3.5,0,0,0-3.31-3.66h-5.06Z"/><path class="cls-1" d="M556.61.35V4.89H544.78v6.63H555v4.53H544.78V27.22h-5V.35Z"/><path class="cls-1" d="M590,27.22l-7-10.47h-2.93V27.22h-4.89V.35h10.16a8,8,0,0,1,8,8.2,8.11,8.11,0,0,1-5,7.61l7.33,11.06Zm-9.88-15h5.06a3.53,3.53,0,0,0,3.32-3.66,3.51,3.51,0,0,0-3.32-3.66h-5.06Z"/><path class="cls-1" d="M630.84.35V4.89H618.9v6.63h10.33v4.53H618.9v6.63h11.94v4.54H614V.35Z"/><path class="cls-1" d="M667.43.35V4.89H655.5v6.63h10.33v4.53H655.5v6.63h11.93v4.54H650.61V.35Z"/></g></g></svg>