<svg width="167" height="18" viewBox="0 0 167 18" fill="none" xmlns="http://www.w3.org/2000/svg">
<path d="M1 13.1128C1 11.9685 1.67993 10.5589 2.97346 9.23218L4.56551 10.3101C3.68657 11.2056 3.15589 12.1343 3.15589 12.8143C3.15589 13.9586 4.71476 14.2902 8.37977 14.2902C9.87231 14.2902 12.0116 14.1078 13.5373 13.7098L13.869 15.8325C12.2604 16.131 10.0381 16.3134 8.23051 16.3134C3.42123 16.3134 1.01658 15.5174 1.01658 13.0962V13.1128H1ZM7.61692 2.83083C9.27529 2.83083 11.0166 2.7811 12.4925 2.64843L13.272 4.43946C12.2438 5.03647 9.75622 6.84411 8.5456 7.82255L7.15257 6.56217C8.01492 5.96516 9.14262 5.16915 9.80597 4.7048C8.99337 4.75455 7.932 4.7877 7.08623 4.7877C5.24544 4.7877 3.48756 4.5887 1.92869 4.32336L2.27695 2.38309C3.81924 2.69818 5.61028 2.83083 7.61692 2.83083V2.83083Z" fill="white" stroke="white" stroke-width="0.1878" stroke-miterlimit="10"/>
<path d="M20.9507 13.1128C20.9507 11.9685 21.6306 10.5589 22.9241 9.23218L24.5162 10.3101C23.6372 11.2056 23.1066 12.1343 23.1066 12.8143C23.1066 13.9586 24.6654 14.2902 28.3304 14.2902C29.823 14.2902 31.9623 14.1078 33.488 13.7098L33.8197 15.8325C32.211 16.131 29.9888 16.3134 28.1812 16.3134C23.3719 16.3134 20.9673 15.5174 20.9673 13.0962V13.1128H20.9507ZM27.5676 2.83083C29.226 2.83083 30.9673 2.7811 32.4432 2.64843L33.2226 4.43946C32.1945 5.03647 29.7069 6.84411 28.4963 7.82255L27.1033 6.56217C27.9656 5.96516 29.0933 5.16915 29.7566 4.7048C28.944 4.75455 27.8827 4.7877 27.0369 4.7877C25.1961 4.7877 23.4382 4.5887 21.8794 4.32336L22.2276 2.38309C23.7699 2.69818 25.561 2.83083 27.5676 2.83083V2.83083Z" fill="white" stroke="white" stroke-width="0.1878" stroke-miterlimit="10"/>
<path d="M44.5491 5.11938C44.8311 3.7761 45.0467 2.41625 45.1959 1.03979L47.2357 1.27194C47.0699 2.51572 46.8377 3.74294 46.5724 4.97013C46.8377 4.95355 47.103 4.95353 47.3186 4.95353C50.0218 4.95353 51.2324 6.26365 51.2324 9.09947C51.2324 11.9353 50.7515 14.2404 50.0715 15.3681C49.4911 16.3466 48.778 16.728 47.5508 16.728C46.6719 16.728 45.6768 16.5953 44.8974 16.4129L45.0301 14.5058C45.71 14.738 46.5226 14.854 47.1362 14.854C47.7498 14.854 47.9986 14.7711 48.3137 14.3565C48.8775 13.5605 49.2092 11.67 49.2092 9.21557C49.2092 7.35819 48.6785 6.81091 47.2025 6.81091C46.8543 6.81091 46.506 6.82752 46.1246 6.84411C45.1462 10.4594 43.8195 13.7761 42.2274 16.0978L40.4198 15.1194C41.9289 13.0962 43.2059 10.2272 44.0848 7.0265C42.9405 7.15917 41.7631 7.35817 40.6686 7.59034L40.3037 5.69982C41.5972 5.45107 43.1395 5.23547 44.5491 5.11938ZM56.6719 11.388L54.6321 11.9187C54.3667 9.54725 53.3385 6.82752 51.3982 4.87064L53.0732 3.82585C55.1627 5.99832 56.3734 9.11606 56.6719 11.388Z" fill="white" stroke="white" stroke-width="0.1878" stroke-miterlimit="10"/>
<path d="M65.2453 10.0614C66.97 8.88392 69.0927 8.13764 70.917 8.13764C73.7362 8.13764 75.4443 9.59703 75.4443 11.9353C75.4443 14.9204 73.1226 16.7446 67.5173 16.7446C67.2354 16.7446 66.7876 16.7446 66.4559 16.728L66.0413 14.8043C66.5886 14.8375 67.3017 14.854 67.7329 14.854C71.7959 14.854 73.3548 13.7098 73.3548 12.0016C73.3548 10.6583 72.4758 9.87892 70.5024 9.87892C68.7279 9.87892 66.771 10.8574 64.7975 12.6816L63.1558 11.9519C63.1558 7.93862 63.5538 6.08127 64.9302 4.05805L66.8208 4.68819C65.5604 6.37974 65.2453 7.97181 65.2453 10.0614ZM64.5322 2.86402L65.0297 0.990051C67.6334 1.37148 71.4145 2.20066 73.305 2.84742L72.7578 4.73794C71.1325 4.09118 67.1027 3.16253 64.5322 2.86402Z" fill="white" stroke="white" stroke-width="0.1878" stroke-miterlimit="10"/>
<path d="M85.4272 1.58704C84.9131 3.80926 84.6643 6.59534 84.6643 9.16582C84.6643 11.7363 84.9297 14.2902 85.5433 16.131L83.5034 16.6285C82.8733 14.5058 82.6245 11.9685 82.6245 9.26532C82.6245 6.529 82.8899 3.61027 83.3542 1.28854L85.4272 1.58704ZM92.0441 4.60529C92.0109 3.34493 91.9943 2.16746 91.9943 1.27194H94.117C94.0839 2.03479 94.0839 2.99666 94.0839 3.92535C94.0839 4.14094 94.0839 4.37312 94.0839 4.60529H96.787V6.49581H94.117C94.1668 8.40294 94.2663 10.3101 94.3161 11.5539C95.3608 12.0348 96.3227 12.6982 97.2182 13.4113L96.0242 14.9867C95.4438 14.4561 94.8633 13.9917 94.2663 13.6103C94.0341 15.5671 93.0059 16.5124 90.6013 16.5124C88.1801 16.5124 86.7704 15.1194 86.7704 13.5439C86.7704 11.9353 88.2796 10.7247 90.5184 10.7247C91.1154 10.7247 91.6958 10.7745 92.2265 10.8905C92.1933 9.67993 92.1104 8.08789 92.0773 6.47926H86.9031V4.58869H92.0441V4.60529ZM90.5184 12.3997C89.3243 12.3997 88.6444 12.864 88.6444 13.5771C88.6444 14.2073 89.3243 14.7877 90.5184 14.7877C91.9777 14.7877 92.2928 14.2073 92.3094 12.6816C91.7124 12.4991 91.132 12.3997 90.5184 12.3997Z" fill="white" stroke="white" stroke-width="0.1878" stroke-miterlimit="10"/>
<path d="M106.556 1.2554C106.307 5.11941 106.224 8.73467 106.224 10.4262C106.224 13.5108 107.219 14.6384 109.541 14.6384C111.796 14.6384 113.422 13.4776 114.649 9.67992L116.606 10.6252C114.848 15.3682 112.51 16.728 109.491 16.728C105.793 16.728 104.151 14.6219 104.151 10.4925C104.151 8.78438 104.234 5.13596 104.301 1.27195H106.556V1.2554ZM111.465 3.72636C112.261 4.47263 112.775 5.08622 113.422 5.99833L112.393 6.81092C111.813 5.91539 111.249 5.23547 110.503 4.53895L111.465 3.72636ZM113.521 2.33334C114.317 3.06302 114.831 3.69318 115.445 4.5887L114.433 5.40134C113.853 4.5224 113.289 3.82584 112.543 3.12932L113.521 2.33334Z" fill="white" stroke="white" stroke-width="0.1878" stroke-miterlimit="10"/>
<path d="M128.745 6.97675C128.729 6.28023 128.712 5.56714 128.712 4.87063H123.073V3.04641H128.646C128.646 2.30014 128.629 1.62018 128.629 1.05634H130.752C130.752 1.62018 130.752 2.28357 130.752 3.01326V3.04641H136.092V4.87063H130.752C130.768 5.58373 130.785 6.28023 130.801 6.97675H135.743V8.80097H130.835C130.868 9.81258 130.884 10.7247 130.901 11.4709C132.775 12.1509 134.599 13.2288 136.125 14.3897L134.765 15.9983C133.654 14.9701 132.311 14.0746 130.918 13.4278C130.768 15.6667 129.724 16.7114 126.971 16.7114C124.317 16.7114 122.808 15.3184 122.808 13.7429C122.808 12.0182 124.317 10.7081 127.054 10.7081C127.651 10.7081 128.248 10.7578 128.845 10.8739C128.828 10.2603 128.811 9.53064 128.795 8.78437H123.438V6.9602H128.745V6.97675ZM126.971 12.4494C125.495 12.4494 124.715 12.9801 124.715 13.7429C124.715 14.456 125.445 14.9701 126.871 14.9701C128.463 14.9701 128.911 14.4229 128.911 12.7645V12.6982C128.231 12.5323 127.584 12.4494 126.971 12.4494Z" fill="white" stroke="white" stroke-width="0.1878" stroke-miterlimit="10"/>
<path d="M153.206 1.70312L154.217 3.1459C152.708 4.38968 150.469 6.32997 149.159 7.54059C149.889 7.27525 150.602 7.14259 151.431 7.14259C154.35 7.14259 156.008 9.2985 156.008 11.7197C156.008 14.7545 153.786 16.6451 149.623 16.6451C146.804 16.6451 145.262 15.4842 145.262 13.7761C145.262 12.2172 146.688 11.0398 148.745 11.0398C150.817 11.0398 152.012 12.2835 152.36 14.3897C153.388 13.9088 153.952 13.0464 153.952 11.7695C153.952 10.1774 152.758 8.83412 150.867 8.83412C150.104 8.83412 149.01 9.01655 148.098 9.36481C146.672 9.92866 144.698 11.4046 143.189 12.8143L141.829 11.2388C144.532 9.26531 148.463 5.79932 150.453 3.84244C148.877 3.97511 145.776 4.12437 143.803 4.20729L143.67 2.23382C146.257 2.21723 150.851 2.00163 153.206 1.70312ZM148.745 12.6484C147.733 12.6484 147.086 13.0962 147.086 13.7429C147.086 14.4395 147.832 14.9204 149.441 14.9204C149.872 14.9204 150.287 14.8872 150.652 14.854C150.486 13.4942 149.872 12.6484 148.745 12.6484Z" fill="white" stroke="white" stroke-width="0.1878" stroke-miterlimit="10"/>
<path d="M165.991 14.854C165.991 16.1476 164.93 17.2421 163.587 17.2421C162.277 17.2421 161.182 16.1642 161.182 14.8375C161.182 13.5274 162.26 12.4328 163.587 12.4328C164.93 12.4328 165.991 13.5108 165.991 14.8375V14.854ZM162.094 14.854C162.094 15.6666 162.758 16.3466 163.587 16.3466C164.416 16.3466 165.096 15.6667 165.096 14.8375C165.096 14.0249 164.416 13.3449 163.587 13.3449C162.758 13.3449 162.094 14.0249 162.094 14.8375V14.854Z" fill="white" stroke="white" stroke-width="0.1878" stroke-miterlimit="10"/>
</svg>
