<svg xmlns="http://www.w3.org/2000/svg" width="469.843" height="38.03" viewBox="0 0 469.843 38.03">
  <defs>
    <style>
      .cls-1 {
        fill: #fff;
        fill-rule: evenodd;
      }
    </style>
  </defs>
  <path id="txt_visual_period_fes01_01.svg" class="cls-1" d="M151.286,1099.57h17.228v-4.29H160.1l6.106-7.89a8.36,8.36,0,1,0-14.984-5.15h4.356a3.994,3.994,0,0,1,7.988.07,4.016,4.016,0,0,1-.825,2.41Zm42.8,0.23a8.334,8.334,0,0,0,8.416-8.38v-9.21a8.416,8.416,0,0,0-16.832,0v9.21A8.4,8.4,0,0,0,194.088,1099.8Zm0-4.29a3.7,3.7,0,0,1-3.795-4.02v-9.34a3.8,3.8,0,1,1,7.591,0v9.34A3.717,3.717,0,0,1,194.088,1095.51Zm25.31,4.06h17.228v-4.29H228.21l6.106-7.89a8.36,8.36,0,1,0-14.984-5.15h4.356a3.994,3.994,0,0,1,7.987.07,4.016,4.016,0,0,1-.825,2.41Zm42.8,0.23a8.334,8.334,0,0,0,8.416-8.38v-9.21a8.416,8.416,0,0,0-16.832,0v9.21A8.4,8.4,0,0,0,262.2,1099.8Zm0-4.29a3.7,3.7,0,0,1-3.8-4.02v-9.34a3.8,3.8,0,1,1,7.591,0v9.34A3.716,3.716,0,0,1,262.2,1095.51Zm28.94,4.29a2.705,2.705,0,1,0-2.707-2.7A2.716,2.716,0,0,0,291.14,1099.8Zm28.941,0a8.334,8.334,0,0,0,8.416-8.38v-9.21a8.416,8.416,0,0,0-16.832,0v9.21A8.4,8.4,0,0,0,320.081,1099.8Zm0-4.29a3.7,3.7,0,0,1-3.8-4.02v-9.34a3.8,3.8,0,1,1,7.591,0v9.34A3.717,3.717,0,0,1,320.081,1095.51Zm34.32-21.58a8.414,8.414,0,0,0-8.416,8.55,7.867,7.867,0,0,0,7.855,8.02l-5.248,7.72,3.466,2.34,9.307-13.53a8.3,8.3,0,0,0,1.419-4.65A8.406,8.406,0,0,0,354.4,1073.93Zm0,4.62a3.754,3.754,0,0,1,3.8,3.79,3.8,3.8,0,1,1-7.592,0A3.734,3.734,0,0,1,354.4,1078.55Zm28.577,21.25a2.705,2.705,0,1,0-2.706-2.7A2.717,2.717,0,0,0,382.978,1099.8Zm28.941,0a8.335,8.335,0,0,0,8.417-8.38v-9.21a8.417,8.417,0,0,0-16.833,0v9.21A8.4,8.4,0,0,0,411.919,1099.8Zm0-4.29a3.7,3.7,0,0,1-3.795-4.02v-9.34a3.8,3.8,0,1,1,7.591,0v9.34A3.717,3.717,0,0,1,411.919,1095.51Zm34.089,4.29a8.542,8.542,0,0,0,8.515-8.35,8.018,8.018,0,0,0-8.053-8.45,6.763,6.763,0,0,0-3.2.73l0.528-5.28h10v-4.29H440l-1.386,13.43,4.093,1.52a3.957,3.957,0,0,1,3.3-1.82,4.057,4.057,0,0,1,3.9,4.2,3.888,3.888,0,0,1-3.9,4.02,3.99,3.99,0,0,1-3.894-4.02h-4.621A8.449,8.449,0,0,0,446.008,1099.8Zm38.248-25.41-2.872-3.7a24.016,24.016,0,0,0-.066,38.02l2.872-3.69A19.347,19.347,0,0,1,484.256,1074.39ZM509.1,1099.8c4.983,0,8.713-3,8.713-7.79a7.327,7.327,0,0,0-4.621-6.73c-2.178-.96-3.564-1.45-5.379-2.21-1.321-.56-1.915-1.19-1.915-2.21,0-1.39,1.254-2.38,2.872-2.38a4.265,4.265,0,0,1,3.531,2.21l3.961-2.44c-1.353-2.01-3.268-4.32-7.426-4.32-4.192,0-7.558,2.67-7.558,7.03a6.654,6.654,0,0,0,4.257,6.2c2.047,0.89,3,1.09,4.687,1.85,1.815,0.83,2.97,1.72,2.97,3.37s-1.782,2.87-3.993,2.87a4.811,4.811,0,0,1-4.555-3.27l-4.059,2.08A9.093,9.093,0,0,0,509.1,1099.8Zm45.541-.23H559.6l-10.5-25.41h-4.521l-10.43,25.41h5.017l2.046-5.02h11.354Zm-11.684-9.31,3.862-9.5,3.961,9.5h-7.823Zm38.94-11.81v21.12h4.621v-21.12h6.3v-4.29H575.6v4.29h6.3Zm26.927-4.06a19.347,19.347,0,0,1,.066,30.63l2.871,3.69a24.016,24.016,0,0,0-.066-38.02Z" transform="translate(-151.219 -1070.69)"/>
</svg>
