<svg width="72" height="11" viewBox="0 0 72 11" fill="none" xmlns="http://www.w3.org/2000/svg">
<path d="M2.61666 8.06998C4.10666 8.06998 5.19666 7.16998 5.19666 5.76998C5.19666 4.86998 4.73666 4.09998 3.69666 3.66998C3.18666 3.44998 2.74666 3.30998 2.29666 3.13998C1.92666 3.00998 1.48666 2.78998 1.48666 2.31998C1.48666 1.79998 1.93666 1.43998 2.52666 1.43998C3.01666 1.43998 3.38666 1.73998 3.61666 2.08998L4.67666 1.43998C4.21666 0.81998 3.60666 0.22998 2.53666 0.22998C1.26666 0.22998 0.25666 1.03998 0.25666 2.32998C0.25666 3.26998 0.88666 3.93998 1.71666 4.23998C2.19666 4.41998 2.47666 4.49998 2.89666 4.65998C3.71666 4.95998 3.97666 5.32998 3.97666 5.81998C3.97666 6.41998 3.42666 6.85998 2.66666 6.85998C1.87666 6.85998 1.40666 6.33998 1.17666 5.85998L0.0766602 6.42998C0.59666 7.42998 1.48666 8.06998 2.61666 8.06998Z" fill="black"/>
<path d="M9.08619 8.00998H10.2362V4.13998H11.1162V3.04998H10.2362V1.25998H9.08619V3.04998H8.19619V4.13998H9.08619V8.00998Z" fill="black"/>
<path d="M19.0969 3.04998H17.9469V3.51998C17.9469 3.51998 17.4269 2.97998 16.5469 2.97998C15.1469 2.97998 14.0169 4.09998 14.0169 5.52998C14.0169 6.94998 15.1469 8.06998 16.5469 8.06998C17.4269 8.06998 17.9469 7.52998 17.9469 7.52998V7.99998H19.0969V3.04998ZM16.5569 6.91998C15.7869 6.91998 15.1669 6.31998 15.1669 5.52998C15.1669 4.73998 15.7869 4.12998 16.5569 4.12998C17.3269 4.12998 17.9569 4.73998 17.9569 5.52998C17.9569 6.31998 17.3269 6.91998 16.5569 6.91998Z" fill="black"/>
<path d="M25.1301 10.67C26.5101 10.67 27.6701 9.61998 27.6701 8.12998V3.04998H26.5301V3.51998C26.5301 3.51998 26.0101 2.97998 25.1301 2.97998C23.7001 2.97998 22.6001 4.10998 22.6001 5.51998C22.6001 6.93998 23.7001 8.06998 25.1301 8.06998C26.0101 8.06998 26.5301 7.52998 26.5301 7.52998V8.12998C26.5301 8.93998 25.8901 9.55998 25.1401 9.55998C24.7801 9.55998 24.4201 9.41998 24.1401 9.12998L23.3401 9.92998C23.8201 10.42 24.4601 10.67 25.1301 10.67ZM25.1301 6.91998C24.3701 6.91998 23.7501 6.27998 23.7501 5.51998C23.7501 4.75998 24.3601 4.11998 25.1301 4.11998C25.9001 4.11998 26.5401 4.75998 26.5401 5.51998C26.5401 6.27998 25.9001 6.91998 25.1301 6.91998Z" fill="black"/>
<path d="M33.4471 8.06998C34.1271 8.06998 34.7971 7.80998 35.2971 7.31998L34.4671 6.50998C34.2071 6.77998 33.8471 6.92998 33.4571 6.92998C32.8371 6.91998 32.357 6.55998 32.187 5.98998H35.9671C35.9671 4.12998 34.9671 2.97998 33.4471 2.97998C32.0371 2.97998 30.9271 4.09998 30.9271 5.52998C30.9271 6.93998 32.0471 8.06998 33.4471 8.06998ZM32.1571 5.00998C32.3371 4.47998 32.807 4.11998 33.417 4.10998C34.047 4.10998 34.5571 4.48998 34.7071 5.00998H32.1571Z" fill="black"/>
<path d="M44.4153 7.99998H45.5653V5.20998C45.5653 4.52998 46.0453 4.06998 46.6953 4.06998C47.3553 4.06998 47.8453 4.52998 47.8453 5.21998V7.99998H48.9953V5.22998C48.9953 3.89998 48.1953 2.97998 46.8653 2.97998C46.1553 2.97998 45.7153 3.40998 45.5653 3.54998V3.04998H44.4153V7.99998Z" fill="black"/>
<path d="M55.4358 1.81998C55.4358 0.96998 54.7458 0.29998 53.9158 0.29998C53.0758 0.29998 52.3958 0.95998 52.3958 1.81998C52.3958 2.66998 53.0658 3.33998 53.9058 3.33998C54.7558 3.33998 55.4358 2.64998 55.4358 1.81998ZM53.2058 1.80998C53.2058 1.41998 53.5358 1.10998 53.9158 1.10998C54.3058 1.10998 54.6158 1.41998 54.6158 1.80998C54.6158 2.18998 54.3058 2.51998 53.9158 2.51998C53.5158 2.51998 53.2058 2.19998 53.2058 1.80998Z" fill="black"/>
<path d="M61.1641 8.06998C62.5641 8.06998 63.6941 6.93998 63.6941 5.51998C63.6941 4.10998 62.5641 2.97998 61.1641 2.97998C59.7541 2.97998 58.6341 4.10998 58.6341 5.51998C58.6341 6.93998 59.7541 8.06998 61.1641 8.06998ZM61.1641 6.91998C60.3941 6.91998 59.7841 6.25998 59.7841 5.51998C59.7841 4.75998 60.4141 4.12998 61.1641 4.12998C61.9141 4.12998 62.5441 4.75998 62.5441 5.51998C62.5441 6.27998 61.9041 6.91998 61.1641 6.91998Z" fill="black"/>
<path d="M69.4338 0.22998C68.0238 0.22998 66.8938 1.36998 66.8938 2.78998C66.8938 4.12998 67.9039 5.24998 69.4239 5.24998L67.8038 7.66998L68.7338 8.29998L71.5138 4.21998C71.8038 3.78998 71.9738 3.29998 71.9738 2.76998C71.9738 1.36998 70.8438 0.22998 69.4338 0.22998ZM69.4338 1.44998C70.1638 1.44998 70.7538 2.02998 70.7538 2.76998C70.7538 3.49998 70.1738 4.08998 69.4338 4.08998C68.7038 4.08998 68.1238 3.49998 68.1238 2.76998C68.1238 2.05998 68.6838 1.44998 69.4338 1.44998Z" fill="black"/>
</svg>
