<svg width="293" height="18" viewBox="0 0 293 18" fill="none" xmlns="http://www.w3.org/2000/svg">
<path d="M13.892 2.62025L15.5007 3.69818C14.2403 5.67164 12.4161 8.02652 10.7909 9.80099L8.98324 8.64013C10.2104 7.4461 11.6532 5.67164 12.3332 4.57712H0.658203V2.60365H13.892V2.62025ZM8.33648 5.8209C8.33648 11.4262 7.93847 14.2123 3.6267 17.0149L1.95174 15.5058C5.98159 13.1841 6.19717 11.0448 6.19717 5.8209H8.33648Z" fill="white" stroke="white" stroke-width="0.1878" stroke-miterlimit="10"/>
<path d="M34.9036 8.10946V10.2985H20.144V8.10946H34.9036Z" fill="white" stroke="white" stroke-width="0.1878" stroke-miterlimit="10"/>
<path d="M45.1526 17.0979L43.5439 15.4229C47.2587 13.7977 48.0381 12.0398 48.1542 8.82255H41.272V6.91543H56.2305V8.82255H50.2935C50.1609 12.5041 49.199 15.0083 45.1526 17.0979ZM54.2073 2.53732V4.44444H43.2786V2.53732H54.2073Z" fill="white" stroke="white" stroke-width="0.1878" stroke-miterlimit="10"/>
<path d="M69.4473 16.9817H67.4904V10.6633C66.0476 11.592 64.5219 12.388 63.162 12.9353L62.167 11.3267C65.4506 10.2654 69.9282 7.131 71.7192 4.82586L73.1786 6.00332C72.2831 7.06468 70.9398 8.24211 69.4473 9.33664V16.9817Z" fill="white" stroke="white" stroke-width="0.1878" stroke-miterlimit="10"/>
<path d="M94.3568 15.6716L92.4497 17.0149C91.1893 15.3234 89.3651 13.3831 87.6238 11.874C85.7333 14.0464 83.4779 15.7712 81.0732 16.9984L79.6968 15.2736C84.5226 13.0846 88.3037 8.60698 89.4149 4.97514H80.9074V3.05141H90.6752L92.1512 3.89718C91.4049 6.25207 90.2938 8.39137 88.9008 10.2653C90.8245 11.8905 92.8145 13.8806 94.3568 15.6716Z" fill="white" stroke="white" stroke-width="0.1878" stroke-miterlimit="10"/>
<path d="M112.847 10.7463L111.454 12.5207C109.614 11.1443 107.093 9.70148 104.804 8.60696V17.0149H102.615V1.34329H104.804V6.28524C107.391 7.46269 110.542 9.1874 112.847 10.7463Z" fill="white" stroke="white" stroke-width="0.1878" stroke-miterlimit="10"/>
<path d="M121.985 3.53233C122.068 2.78607 122.167 2.05639 122.217 1.34329L124.34 1.45937C124.273 2.1393 124.174 2.83582 124.074 3.53233H129.149V5.42288H123.776C122.98 9.70149 121.67 14.1293 120.144 16.9818L118.237 16.0199C119.746 13.4162 121.006 9.33664 121.686 5.42288H118.668V3.53233H121.985ZM127.441 12.0564C127.076 12.7363 126.894 13.2504 126.894 13.6982C126.894 14.4942 128.204 14.743 130.409 14.743C131.272 14.743 132.25 14.6766 133.195 14.5108V16.4511C132.25 16.534 131.338 16.5838 130.426 16.5838C127.142 16.5838 124.953 15.9536 124.953 14.2289C124.953 13.5489 125.185 12.7529 125.683 11.7247L127.441 12.0564ZM132.947 8.72305C132.267 8.65672 131.388 8.64013 130.492 8.64013C129.033 8.65671 127.341 8.72305 126.031 8.92205L125.915 7.08125C127.258 6.932 129.132 6.86567 130.658 6.84908C131.504 6.84908 132.3 6.86566 132.93 6.89883V8.72305H132.947Z" fill="white" stroke="white" stroke-width="0.1878" stroke-miterlimit="10"/>
<path d="M142.731 3.73135C142.814 2.90217 142.864 2.08954 142.897 1.32669L145.02 1.37647C144.97 2.17249 144.904 2.95192 144.821 3.73135H152.814V5.6053H144.522C144.224 7.31343 143.776 8.82256 143.279 9.81759C144.871 8.8889 146.877 8.25871 148.569 8.25871C151.289 8.25871 152.897 10.0166 152.897 12.2056C152.897 14.9254 150.891 16.9818 145.401 16.9818C144.672 16.9818 143.925 16.9486 143.08 16.8657L142.997 14.8922C144.025 15.0415 144.92 15.0746 145.716 15.0746C149.299 15.0746 150.841 13.8806 150.841 12.2388C150.841 10.995 149.796 10.0498 148.32 10.0498C146.313 10.0498 144.29 10.9121 141.886 12.8358L140.277 11.5423C141.372 9.98341 142.051 7.82753 142.449 5.58873H139.05V3.71475H142.731V3.73135Z" fill="white" stroke="white" stroke-width="0.1878" stroke-miterlimit="10"/>
<path d="M159.348 10.597C159.348 6.48426 162.648 2.53732 167.358 2.53732C172.565 2.53732 174.572 5.60531 174.572 9.22057C174.572 12.6866 173.013 15.6882 167.822 16.8159L166.827 14.8425C171.255 14.0796 172.449 11.9403 172.449 9.25375C172.449 6.56718 171.023 4.72636 167.971 4.54394C167.706 11.3101 165.616 15.9204 162.764 15.9204C160.724 15.9204 159.331 13.3333 159.331 10.6136V10.597H159.348ZM161.321 10.5639C161.321 12.3051 162.001 13.6484 162.83 13.6484C164.057 13.6484 165.716 10.4644 165.898 4.69322C163.013 5.3234 161.321 7.81095 161.321 10.5639Z" fill="white" stroke="white" stroke-width="0.1878" stroke-miterlimit="10"/>
<path d="M197.474 7.92704V10.0166H180.725V7.92704H197.474Z" fill="white" stroke="white" stroke-width="0.1878" stroke-miterlimit="10"/>
<path d="M208.153 10.6468V8.57381H206.926V7.97679C206.031 8.67331 205.019 9.27031 203.925 9.75124L202.73 8.37478C204.124 7.8441 205.367 7.131 206.395 6.25207C205.832 5.63847 205.152 5.02488 204.323 4.39469L205.467 3.34991C206.313 3.93034 207.009 4.4942 207.573 5.04146C208.07 4.42786 208.502 3.76451 208.833 3.01824H204.389V1.35987H209.347H209.729H209.861L211.155 1.74128C210.575 3.78109 209.513 5.5224 208.12 6.91543H214.671C213.245 5.47264 212.1 3.61525 211.371 1.35987L213.062 0.779449C213.311 1.60864 213.643 2.38807 214.041 3.08459C214.969 2.3549 215.832 1.60863 216.329 1.0282L217.623 2.17248C216.959 2.81924 215.931 3.63185 214.853 4.37812C215.119 4.74296 215.417 5.07464 215.699 5.38973C216.661 4.69321 217.556 3.93034 218.104 3.34991L219.414 4.56054C218.8 5.14097 217.905 5.8209 216.926 6.46766C217.855 7.1476 218.866 7.69485 219.961 8.09286L218.701 9.66834C217.672 9.22058 216.694 8.65671 215.815 7.96019V8.59038H214.422V10.6633H218.866V12.3217H214.422V14.2454C214.422 15.2239 214.571 15.34 215.102 15.3566C215.566 15.3566 216.346 15.3566 216.86 15.3566C217.407 15.34 217.457 15.2405 217.49 13.7314L219.364 14.063C219.148 16.8823 218.8 17.2139 217.009 17.2637C216.379 17.2803 215.467 17.2803 214.903 17.2637C212.896 17.2139 212.449 16.6998 212.449 14.2454V12.3217H210.011C209.745 14.3284 208.369 16.1028 204.969 17.5788L203.543 16.1857C206.512 15.1078 207.739 13.7977 208.037 12.3217H203.775V10.6633H208.153V10.6468ZM212.498 10.6468V8.57381H210.11V10.6468H212.498Z" fill="white" stroke="white" stroke-width="0.1878" stroke-miterlimit="10"/>
<path d="M226.695 9.50249V5.77114H225.02V4.02985H226.695V0.796021H228.536V4.02985H229.746V5.77114H228.536V8.90547C228.884 8.78939 229.199 8.6733 229.497 8.5738L229.68 10.1327C229.332 10.2819 228.95 10.4312 228.536 10.597V15.6882C228.536 16.733 228.27 17.33 227.325 17.4958C226.927 17.5622 226.131 17.5622 225.501 17.5456L225.169 15.7546C225.584 15.7712 226.131 15.7877 226.33 15.7711C226.612 15.7546 226.695 15.6219 226.695 15.3565V11.3101C226.131 11.5257 225.6 11.7247 225.186 11.8906L224.788 10.0663C225.269 9.93366 225.965 9.73466 226.695 9.50249ZM230.277 14.3947V8.5738H229.547V7.131H241.703V8.5738H235.385V16.2521C236.181 15.8375 236.861 15.3068 237.441 14.6435C236.761 13.7314 236.164 12.6368 235.749 11.4262L237.142 10.8955C237.441 11.791 237.889 12.6037 238.403 13.3168C238.801 12.5871 239.133 11.7579 239.365 10.8623H235.749V9.41956H239.613H239.945H240.111L241.338 9.65174C241.006 11.6086 240.393 13.2504 239.531 14.5771C240.26 15.257 241.073 15.7877 241.919 16.1692L240.841 17.5456C240.028 17.1144 239.249 16.5506 238.552 15.8706C237.939 16.5174 237.275 17.0647 236.512 17.5124L235.418 16.3682V17.529H233.726V15.3234C232.416 15.5887 230.675 15.9038 229.613 16.1028L229.282 14.4942C229.531 14.461 229.895 14.4279 230.277 14.3947ZM240.725 1.17744V6.33499H230.575V1.17744H240.725ZM233.693 9.58541V8.5738H231.985V9.58541H233.693ZM233.693 11.8076V10.8126H231.985V11.8076H233.693ZM233.693 13.9967V13.0348H231.985V14.1957C232.565 14.1294 233.162 14.063 233.693 13.9967ZM232.4 3.23383H238.851V2.40465H232.4V3.23383ZM232.4 5.1078H238.851V4.22884H232.4V5.1078Z" fill="white" stroke="white" stroke-width="0.1878" stroke-miterlimit="10"/>
<path d="M248.27 7.08125C248.27 5.27362 248.519 3.44943 248.967 1.8408L251.039 2.27197C250.492 3.83085 250.21 5.53898 250.21 6.91543C250.21 7.71145 250.293 8.42455 250.426 8.8889C250.708 8.34163 251.388 7.21393 251.769 6.60033L253.063 7.74461C252.433 8.68989 251.305 10.7131 250.907 11.8076L249.132 12.073C248.519 10.7297 248.253 8.93864 248.253 7.11442V7.08125H248.27ZM259.199 1.59203C259.613 3.79767 259.812 5.67164 259.812 8.02654C259.812 12.1891 258.585 15.3731 252.996 17.131L251.819 15.1741C256.794 13.7977 257.673 11.6584 257.673 8.05971C257.673 5.95357 257.491 3.96351 256.993 1.95688L259.199 1.59203Z" fill="white" stroke="white" stroke-width="0.1878" stroke-miterlimit="10"/>
<path d="M281.636 8.57381C280.21 9.05474 278.436 9.66834 276.811 10.3649C276.943 11.2604 276.993 12.3881 276.993 13.6982H275.069C275.086 13.3665 275.086 13.0846 275.086 12.8027C275.086 12.1891 275.069 11.6418 275.036 11.1774C273.411 12.0066 272.217 12.9022 272.217 13.7977C272.217 14.7264 273.444 15.1907 276.014 15.1907C277.308 15.1907 279.398 15.0415 280.625 14.7761L280.807 16.6667C279.514 16.8988 277.49 16.9818 276.048 16.9818C272.383 16.9818 270.21 15.9536 270.21 13.8972C270.21 12.1061 272.25 10.6468 274.688 9.41957C274.456 8.83914 274.107 8.59038 273.709 8.59038C272.548 8.59038 271.321 9.13764 270.194 10.1658C269.779 10.5307 268.933 11.4428 268.369 12.1725L266.761 10.8789C268.22 9.51908 269.63 7.46269 270.675 5.35656H267.308V3.54893H271.454C271.752 2.75291 272.018 1.97347 272.15 1.26037L274.24 1.67496C274.058 2.32173 273.859 2.95192 273.626 3.54893H279.099V5.35656H272.864C272.399 6.36816 271.885 7.21394 271.454 7.79437C272.316 7.31344 273.228 6.96518 274.107 6.96518C275.202 6.96518 275.932 7.49585 276.379 8.64013C278.005 7.91045 279.646 7.29686 280.857 6.78276L281.636 8.57381Z" fill="white" stroke="white" stroke-width="0.1878" stroke-miterlimit="10"/>
<path d="M288.552 12.3383C289.812 13.4992 291.288 15.0249 292.201 16.1692L290.509 17.5622C289.779 16.5174 288.27 14.743 287.076 13.6319L288.552 12.3383Z" fill="white" stroke="white" stroke-width="0.1878" stroke-miterlimit="10"/>
</svg>
