<svg xmlns="http://www.w3.org/2000/svg" width="217.174" height="96.215" viewBox="0 0 217.174 96.215"><g transform="translate(-25.038 -4598.69)"><g transform="translate(979.709 25.415)"><g transform="translate(-921.706 4614.88)"><ellipse cx="37.986" cy="27" rx="37.986" ry="27" transform="translate(0 0.186)" fill="#fff" stroke="#ab2a0f" stroke-miterlimit="10" stroke-width="0.847"/><path d="M292.962,768.877c6.7,7.686,18.666,12.807,32.32,12.807,20.979,0,37.986-12.089,37.986-27s-17.007-27-37.986-27c-13.112,0-24.672,4.722-31.5,11.9" transform="translate(-234.973 -727.684)" fill="#fff" stroke="#ab2a0f" stroke-miterlimit="10" stroke-width="0.847"/><path d="M381.2,768.877c6.7,7.686,18.666,12.807,32.319,12.807,20.979,0,37.986-12.089,37.986-27s-17.007-27-37.986-27c-13.112,0-24.672,4.722-31.5,11.9" transform="translate(-267.722 -727.684)" fill="#fff" stroke="#ab2a0f" stroke-miterlimit="10" stroke-width="0.847"/></g><g transform="translate(-954.248 4573.699)"><ellipse cx="37.986" cy="27" rx="37.986" ry="27" transform="translate(107.813 0.186)" fill="#fff" stroke="#ab2a0f" stroke-miterlimit="10" stroke-width="0.847"/><path d="M307.544,703.391c-6.7,7.687-18.666,12.807-32.32,12.807-20.979,0-37.986-12.089-37.986-27s17.007-27,37.986-27c13.112,0,24.672,4.722,31.5,11.9" transform="translate(-181.749 -662.198)" fill="#fff" stroke="#ab2a0f" stroke-miterlimit="10" stroke-width="0.847"/><path d="M219.305,703.391c-6.7,7.687-18.666,12.807-32.319,12.807-20.979,0-37.986-12.089-37.986-27s17.007-27,37.986-27c13.112,0,24.672,4.722,31.5,11.9" transform="translate(-149 -662.198)" fill="#fff" stroke="#ab2a0f" stroke-miterlimit="10" stroke-width="0.847"/></g></g><g transform="translate(0 -34)"><g transform="translate(849 107)"><path d="M286.748,277.376a10.891,10.891,0,0,0,1.447-1.4,12.978,12.978,0,0,0,1.206-1.668q.2-.3.159-.418t-.313-.245q-.845-.342-1.291-.506t-.85-.276q-.514-.129-.567-.468a.933.933,0,0,1,.345-.752,1.682,1.682,0,0,1,.676-.408,1.437,1.437,0,0,1,.911.176c.247.116.492.225.734.325l.726.3a.427.427,0,0,0,.329.042c.077-.033.136-.125.176-.279a5.559,5.559,0,0,0,.138-.952c.023-.35.036-.657.042-.922a1.012,1.012,0,0,1,.237-.719.7.7,0,0,1,.625-.235,1.39,1.39,0,0,1,.989.469.712.712,0,0,1,.173.723,7.209,7.209,0,0,0-.225.756q-.151.575-.341,1.4-.1.452.3.539a17.708,17.708,0,0,0,3.525.534,18.461,18.461,0,0,0,3.308-.162c.17-.017.276,0,.317.046s.042.149,0,.3a4.6,4.6,0,0,1-.941,2.137,2.687,2.687,0,0,1-1.466.957,2.452,2.452,0,0,1-1.144-.078,10.018,10.018,0,0,1-1.61-.644q-.961-.464-1.517-.726t-1.076-.494q-.37-.174-.579.339-.308.7-.6,1.228a8.275,8.275,0,0,1-.623.958,7.419,7.419,0,0,1-.719.817q-.394.386-.895.806a2.043,2.043,0,0,1-1.412.585,2.422,2.422,0,0,1-1.377-.742.323.323,0,0,1-.132-.341.5.5,0,0,1,.289-.34c.032-.011.035-.029.009-.056a.211.211,0,0,0-.166-.027,3.821,3.821,0,0,1-.6.016q-.243-.016-.52-.062-.4-.088-.845.5-.326.392-.571.745a5.648,5.648,0,0,0-.328.51,3.488,3.488,0,0,1-.874,1.379,3.142,3.142,0,0,1-1.217.617,1.223,1.223,0,0,1-1.224-.461,1.7,1.7,0,0,1-.329-.675,2.5,2.5,0,0,1-.086-.908,7.478,7.478,0,0,0-.153-1.546,24.646,24.646,0,0,0-.7-2.639q-.09-.287-.222-.629t-.3-.682q-.173-.342-.334-.647a5.655,5.655,0,0,0-.308-.523q-.093-.129-.16-.134c-.045,0-.124.039-.237.127a1.148,1.148,0,0,1-1.19.239,2.036,2.036,0,0,1-1.054-1.014.558.558,0,0,1,.287-.854,7.2,7.2,0,0,0,1.256-.787,7.31,7.31,0,0,0,1.12-1.14,6.993,6.993,0,0,0,.848-1.253,4.245,4.245,0,0,0,.4-1.244.824.824,0,0,1,.429-.608,1.24,1.24,0,0,1,.857-.083.73.73,0,0,1,.314.206,1.217,1.217,0,0,1,.256.355.6.6,0,0,0,.163.226.522.522,0,0,0,.173.091q.568.218.9.312l.419.119a4.191,4.191,0,0,1,.452.057c.122.024.229.047.325.07a1.02,1.02,0,0,1,.653.363.469.469,0,0,1,.006.486q-.2.378-1.031.242-.729-.141-1.252-.255t-1.276-.248a.366.366,0,0,0-.385.2q-.49,1.049-.826,1.746t-.527,1.1c-.088.169-.053.28.1.336a1.046,1.046,0,0,0,.524.074q.825-.311,1.386-.5t1.336-.4a1.781,1.781,0,0,0,.751-.55.642.642,0,0,1,.4-.191,1.783,1.783,0,0,1,.683.037.886.886,0,0,1,.578.373,1.346,1.346,0,0,1,.246.661,8.174,8.174,0,0,0,.213,1.316,12.35,12.35,0,0,0,.486,1.6,1.291,1.291,0,0,1,.116.583.7.7,0,0,1-.254.408,1.1,1.1,0,0,1-.494.233,1.629,1.629,0,0,1-.443.059,1.592,1.592,0,0,0-.533.021,5.623,5.623,0,0,0-.647.163q-.481.15-.993.323t-.905.349a.327.327,0,0,0-.2.457q.269.866.4,1.272t.223.8q.1.336.27.4t.552-.132a2.781,2.781,0,0,0,.568-.375,5.784,5.784,0,0,0,.45-.417q.382-.461-.141-.536a1.348,1.348,0,0,1-.849-.315.742.742,0,0,1-.127-.619.91.91,0,0,1,.279-.627,1.171,1.171,0,0,1,.824-.059,7.727,7.727,0,0,1,.859.219q.581.175,1.17.373t1.074.4a1.886,1.886,0,0,1,.571.309.463.463,0,0,0,.188.139C286.571,277.471,286.646,277.443,286.748,277.376Zm-5.28-7.811c.259.042.381.123.365.241s-.2.233-.552.343q-.432.134-.8.211a6.259,6.259,0,0,1-.889.106.457.457,0,0,1-.52-.273.627.627,0,0,1,.124-.658.954.954,0,0,1,1.328-.388A2.513,2.513,0,0,0,281.468,269.565Zm.671,2.32q-.15-.48-.774-.286-.432.134-.933.3t-1.23.449c-.128.04-.142.219-.042.54q.164.528.356.468.336-.106.621-.207c.189-.068.384-.133.585-.2s.41-.133.632-.211.484-.164.788-.259C282.255,272.454,282.253,272.254,282.139,271.885Zm.6,2.1a1.321,1.321,0,0,0-.157-.5.166.166,0,0,0-.182-.075q-.872.245-1.421.43t-1.23.45c-.08.025-.124.065-.134.12a.778.778,0,0,0,.054.3,1.459,1.459,0,0,0,.15.44.156.156,0,0,0,.19.06q.656-.179,1.152-.36t1.267-.5Q282.761,274.22,282.742,273.989Zm12.2-9.626a.626.626,0,0,1-.205.526,2.486,2.486,0,0,1-1.039.469q-2.2.634-4.137,1.264t-3.235,1.114q-.754.287-1.163.494a3.329,3.329,0,0,0-.758.526.786.786,0,0,1-.518.24.535.535,0,0,1-.41-.175.745.745,0,0,1-.169-.5,1.446,1.446,0,0,1,.229-.743,1.851,1.851,0,0,1,.551-.685,1.437,1.437,0,0,1,.691-.149,2.006,2.006,0,0,0,.515-.082,10.349,10.349,0,0,0,1.133-.379.371.371,0,0,0,.264-.5l-.094-.3a2.6,2.6,0,0,1-.083-.435,1.652,1.652,0,0,1,.164-1.079,1.06,1.06,0,0,1,.838-.525,1.74,1.74,0,0,1,1.028.127,1.947,1.947,0,0,1,.7.837,1.827,1.827,0,0,1,.1.18,2.467,2.467,0,0,1,.094.261q.067.216.186.258a.554.554,0,0,0,.335-.025q.984-.307,1.684-.512t1.2-.335q.5-.129.847-.2t.626-.1Q294.863,263.861,294.941,264.363Zm-7.259,3.5a.937.937,0,0,1,.661.6,1.091,1.091,0,0,1-.3.977,17.652,17.652,0,0,1-1.54,1.692,6.485,6.485,0,0,1-1.328,1.021.674.674,0,0,1-.4.1.449.449,0,0,1-.276-.125.322.322,0,0,1-.074-.28.692.692,0,0,1,.178-.358,10.276,10.276,0,0,0,1.061-1.411,9.252,9.252,0,0,0,.843-1.607,1.019,1.019,0,0,1,.5-.539A.857.857,0,0,1,287.682,267.865Zm7.882.44a.681.681,0,0,1-.26.266,1.681,1.681,0,0,1-.636.158,9.665,9.665,0,0,1-1.269.027q-.811-.024-2.137-.137a.971.971,0,0,1-.97-.83.839.839,0,0,1,.047-.568,1.089,1.089,0,0,1,.334-.407,1.019,1.019,0,0,1,.493-.193.986.986,0,0,1,.523.073,10.3,10.3,0,0,0,1.327.455q.839.239,1.828.457a1.025,1.025,0,0,1,.607.3A.381.381,0,0,1,295.564,268.3Z" transform="translate(-1057.714 4284.806)" fill="#fff" stroke="#ae2a0f" stroke-miterlimit="10" stroke-width="1"/><path d="M358.073,258.756a3.4,3.4,0,0,1-.67,1.082,5.268,5.268,0,0,1-1,.863,1.669,1.669,0,0,1-.885.244,4.077,4.077,0,0,1-1.159-.208,13.142,13.142,0,0,0-2.188-.365q-1.328-.126-2.7-.159c-.32,0-.507.032-.559.1s-.047.237.016.517q.1.469.19,1.092t.174,1.423a7.352,7.352,0,0,1-.069,2.486,3.918,3.918,0,0,1-.913,1.663,3.58,3.58,0,0,1-1.753,1.006,7.365,7.365,0,0,1-2.339.244,8.208,8.208,0,0,1-2.39-.483,5.043,5.043,0,0,1-1.933-1.2q-.371-.392-.2-.6t.7.016a7.058,7.058,0,0,0,1.586.415,6.409,6.409,0,0,0,1.572.037,4.926,4.926,0,0,0,1.369-.333,2.73,2.73,0,0,0,.981-.646,3.071,3.071,0,0,0,.566-1,5.8,5.8,0,0,0,.286-1.257,7.5,7.5,0,0,0,.029-1.406,10.585,10.585,0,0,0-.2-1.445q-.1-.469-.234-.545a1.245,1.245,0,0,0-.632,0q-1.07.163-2.325.37t-2.528.493q-1.273.284-2.485.665a15.762,15.762,0,0,0-2.2.863,1.552,1.552,0,0,1-.915.2.852.852,0,0,1-.641-.566,1.058,1.058,0,0,1-.065-.739,2.554,2.554,0,0,1,.558-.829,2.648,2.648,0,0,1,.874-.712,1.063,1.063,0,0,1,.8.005.9.9,0,0,0,.381.023c.2-.012.447-.034.739-.065l.976-.1q.537-.057,1.06-.137,1.571-.214,2.943-.4t2.495-.325q.35-.036.422-.2a.767.767,0,0,0-.095-.546,3.374,3.374,0,0,0-.173-.323,1.093,1.093,0,0,0-.245-.291q-1.107-1.148.385-1.153a.655.655,0,0,0,.214-.01.315.315,0,0,1,.192.018,1.53,1.53,0,0,0,.625.049,2.55,2.55,0,0,0,.554-.147,3.254,3.254,0,0,0,.588-.3,2.334,2.334,0,0,0,.408-.334.517.517,0,0,0,.146-.534q-.1-.229-.736-.265a5.5,5.5,0,0,0-.628.041q-.45.047-1,.117t-1.12.167a8.268,8.268,0,0,0-.964.216q-.565.16-1.138.359t-1.08.429q-.507.23-.926.451a5.8,5.8,0,0,0-.7.428,1.369,1.369,0,0,1-.865.305.637.637,0,0,1-.592-.456,1.384,1.384,0,0,1,.15-1.1,3.843,3.843,0,0,1,1.165-1.311,3.373,3.373,0,0,1,1.2-.644,2.266,2.266,0,0,1,1.137-.005l.465.09a3.117,3.117,0,0,0,.436.056c.153.009.322.013.507.011s.411-.018.678-.046q.325-.034.923-.122t1.232-.193q.634-.1,1.19-.225t.8-.2a6.225,6.225,0,0,1,1.069-.289,2.525,2.525,0,0,1,.821-.01,2.009,2.009,0,0,1,.671.246,3.276,3.276,0,0,1,.649.526,3.075,3.075,0,0,1,.9,1.157.68.68,0,0,1-.25.747,1.3,1.3,0,0,1-.364.266,2.16,2.16,0,0,1-.43.121,7.611,7.611,0,0,0-1.629.5,13.707,13.707,0,0,0-1.623.8,1.1,1.1,0,0,0-.439.4.487.487,0,0,0,.039.375.74.74,0,0,0,.29.349.717.717,0,0,0,.41.058q1.6-.192,3.074-.348t3.057-.269q.35-.037.778-.056c.285-.013.562-.029.829-.049s.519-.033.755-.041.419-.018.552-.033Q358.451,257.782,358.073,258.756Z" transform="translate(-1091.525 4290.614)" fill="#fff" stroke="#ae2a0f" stroke-miterlimit="10" stroke-width="1"/><path d="M402.661,260.442a4.344,4.344,0,0,1-1.715-.029,26.216,26.216,0,0,1-3.566-.778,2.308,2.308,0,0,1-.858-.431,1.718,1.718,0,0,1-.487-.613,1.314,1.314,0,0,1-.116-.667.917.917,0,0,1,.254-.57,1.377,1.377,0,0,1,.8-.433,2.226,2.226,0,0,1,1.093.2l.4.175a3.658,3.658,0,0,1,.386.2q.2.119.465.307t.641.449a6.683,6.683,0,0,0,1.163.687q.809.4,1.611.752c.291.127.441.238.45.331S403.015,260.255,402.661,260.442Zm.633,2.76a3.34,3.34,0,0,1-.813.886,10.24,10.24,0,0,1-2.113,1.3,3.551,3.551,0,0,1-1.28.326,2.307,2.307,0,0,1-1.111-.138,1.212,1.212,0,0,1-.574-.494,1.248,1.248,0,0,1-.1-.679,1.291,1.291,0,0,1,.492-.827,1.89,1.89,0,0,1,1.015-.476q.357-.043.871-.135t1.077-.18q.563-.088,1.091-.192c.351-.069.664-.133.939-.192q.489-.107.625.069T403.295,263.2Zm.905-6.913a.5.5,0,0,1-.207.334,1.268,1.268,0,0,1-.51.055,7.3,7.3,0,0,1-1.173-.156,11.942,11.942,0,0,1-1.282-.344,10.4,10.4,0,0,1-1.17-.46,3.293,3.293,0,0,1-.836-.53,1.315,1.315,0,0,1-.351-.587,1.258,1.258,0,0,1-.016-.659,1.036,1.036,0,0,1,.405-.569,1.9,1.9,0,0,1,.938-.319q.841-.076,2.016,1.167a2.291,2.291,0,0,0,.326.308q.212.17.436.342t.451.319c.151.1.274.176.37.235a1.56,1.56,0,0,1,.54.453A.465.465,0,0,1,404.2,256.288Zm15.257,10.249a4.57,4.57,0,0,1-1.073,1.253,4.336,4.336,0,0,1-1.281.756,2.279,2.279,0,0,1-1.121.113,3.092,3.092,0,0,1-.988-.531q-.473-.346-1.075-.818t-1.19-.941q-.589-.471-1.07-.868t-.716-.594a1.228,1.228,0,0,0-.393-.264c-.09-.025-.2.024-.329.148a12.812,12.812,0,0,1-2.252,1.714,9.157,9.157,0,0,1-2.093.934,3.947,3.947,0,0,1-1.694.163,1.373,1.373,0,0,1-1.009-.571,1.517,1.517,0,0,1-.245-1.058,2.38,2.38,0,0,1,.525-1.189,2.929,2.929,0,0,0,.389-.81,11.138,11.138,0,0,0,.342-1.27q.154-.718.28-1.553a15.462,15.462,0,0,0,.161-1.639q.035-.8,0-1.515a5.9,5.9,0,0,0-.169-1.2,1.552,1.552,0,0,1-.048-.585,1.875,1.875,0,0,1,.171-.629,1.949,1.949,0,0,1,.364-.534.918.918,0,0,1,.556-.279,1.279,1.279,0,0,1,1.341.526.565.565,0,0,0,.5.3l1.7.1q.841.051,1.581.106t1.29.117q.549.063.8.11a1.412,1.412,0,0,0,.616.031,2.012,2.012,0,0,0,.459-.186,1.532,1.532,0,0,1,.887-.171,1.657,1.657,0,0,1,.889.358,5.04,5.04,0,0,1,.407.391.965.965,0,0,1,.208.347.98.98,0,0,1,.04.395,3.224,3.224,0,0,1-.1.509q-.152.568-.274,1.213t-.2,1.522a1.571,1.571,0,0,1-.561,1.173,1.591,1.591,0,0,1-1.515,0,8.533,8.533,0,0,0-1.13-.343,11.972,11.972,0,0,0-1.431-.231q-.813-.086-1.845-.117t-2.372-.026a.392.392,0,0,0-.464.387q-.094.75-.164,1.388t-.089,1.116q-.052.854.122,1.021t.764.069a7.937,7.937,0,0,0,1.166-.323,6.759,6.759,0,0,0,1.186-.549q.239-.13.248-.23t-.2-.271a5.3,5.3,0,0,0-.772-.537q-.4-.226-.735-.383-.554-.3-.364-.715a.634.634,0,0,1,.24-.282.656.656,0,0,1,.421-.049,2.836,2.836,0,0,1,.712.228q.437.192,1.111.556a4.766,4.766,0,0,1,.407.252c.158.106.286.189.381.249a.543.543,0,0,0,.67-.141,2.836,2.836,0,0,0,.365-.409q.144-.2.374-.509a.779.779,0,0,1,.576-.364,1.012,1.012,0,0,1,.76.385c.327.3.484.557.472.775a.571.571,0,0,1-.386.5,2.837,2.837,0,0,1-.705.264c-.208.066-.3.153-.289.264s.176.239.483.385a30.939,30.939,0,0,0,3.419,1.421,14.678,14.678,0,0,0,2.729.677.533.533,0,0,1,.3.141Q419.6,266.3,419.457,266.537Zm-6.062-6.939c.029-.132.024-.217-.015-.254a.682.682,0,0,0-.334-.081q-1.4-.177-2.929-.279t-3.091-.166c-.286-.01-.437.087-.455.287a.387.387,0,0,0,.05.282.52.52,0,0,0,.291.128q.7.088,1.249.151t1.151.117q.6.055,1.392.1t2,.105a1.158,1.158,0,0,0,.5-.056A.529.529,0,0,0,413.395,259.6Zm.248-1.62a.93.93,0,0,0-.031-.5.392.392,0,0,0-.292-.115q-1.2-.16-2.727-.285t-3.237-.231a.759.759,0,0,0-.4.065.316.316,0,0,0-.11.243.586.586,0,0,0,.052.4.487.487,0,0,0,.33.118q1.433.08,3.035.225t2.976.321C413.492,258.243,413.626,258.163,413.643,257.979Zm-.7-3.119a.384.384,0,0,1-.166.3,1.078,1.078,0,0,1-.528.116,10.021,10.021,0,0,1-1.193-.07q-.713-.077-1.446-.207t-1.337-.3a3.621,3.621,0,0,1-.89-.346,1.077,1.077,0,0,1-.481-.826,1.046,1.046,0,0,1,.387-.925,1.472,1.472,0,0,1,.959-.418,2.326,2.326,0,0,1,1.231.49q.62.41,1.051.664t.769.436q.337.183.616.308t.573.229a1.272,1.272,0,0,1,.37.236A.383.383,0,0,1,412.941,254.86Z" transform="translate(-1125.935 4291.102)" fill="#fff" stroke="#ae2a0f" stroke-miterlimit="10" stroke-width="1"/><path d="M463.866,271.47a4.508,4.508,0,0,1-.6.7,3.693,3.693,0,0,1-.781.555,5.556,5.556,0,0,1-1.072.429q-.619.184-1.456.355a2.4,2.4,0,0,1-1.252-.07,1.416,1.416,0,0,1-.873-.639,1.034,1.034,0,0,1-.172-.746.931.931,0,0,1,.375-.558,2.052,2.052,0,0,1,.781-.332,4.246,4.246,0,0,1,1.076-.087q1.011.038,1.933-.016a11.4,11.4,0,0,0,1.648-.206c.242-.051.405-.011.489.119S464.013,271.269,463.866,271.47Zm.084-1.785a4.361,4.361,0,0,1-.913-.193q-.579-.171-1.239-.421t-1.315-.561a11.821,11.821,0,0,1-1.142-.615,4.475,4.475,0,0,1-1.39-1.108.776.776,0,0,1,.081-.934,1.12,1.12,0,0,1,1.141-.487,4.99,4.99,0,0,1,2.178,1.236q.67.568,1.4,1.124t1.265.953q.473.35.385.691A.382.382,0,0,1,463.95,269.685Zm1.655-4.335a.7.7,0,0,1,.233.318.462.462,0,0,1-.01.3.413.413,0,0,1-.2.217.494.494,0,0,1-.317.051,5.732,5.732,0,0,1-1.03-.24c-.384-.122-.769-.268-1.156-.435a10.414,10.414,0,0,1-1.129-.571,7.206,7.206,0,0,1-.948-.649,2.259,2.259,0,0,1-.763-1.053.777.777,0,0,1,.213-.894,1.422,1.422,0,0,1,1.5-.2,5.026,5.026,0,0,1,2.005,1.553l.406.488q.174.208.335.375a4.188,4.188,0,0,0,.361.33Zm12.9,14.245a4.949,4.949,0,0,1-3.025,1.175,2.972,2.972,0,0,1-1.249-.122,2.315,2.315,0,0,1-.9-.674l-1.5-1.626q-.664-.723-1.17-1.318a.7.7,0,0,0-.379-.27,3.083,3.083,0,0,0-.687.059,7.64,7.64,0,0,1-1.05.134,9.623,9.623,0,0,1-1.062,0,19.392,19.392,0,0,1-2.463-.233,10.932,10.932,0,0,1-1.773-.435,4.87,4.87,0,0,1-1.213-.6,3.045,3.045,0,0,1-.752-.734.634.634,0,0,1-.113-.283.391.391,0,0,1,.035-.252.293.293,0,0,1,.222-.131.882.882,0,0,1,.448.081,11.288,11.288,0,0,0,2.458.69,27.662,27.662,0,0,0,3.2.307,4.463,4.463,0,0,0,.906-.045c.295-.052.456-.109.483-.171s-.053-.19-.239-.386a4.025,4.025,0,0,0-.617-.485q-.395-.261-.5-.345a2.47,2.47,0,0,1-.451-.291.92.92,0,0,1-.288-.4.87.87,0,0,0-.119-.219.977.977,0,0,0-.236-.175q-.22-.144-.073-.416a1.1,1.1,0,0,1,.459-.441,1.472,1.472,0,0,1,.719-.167,5.665,5.665,0,0,1,1.119.163q.778.205,1.4.375t1.185.339c.378.112.761.235,1.15.367s.82.287,1.292.462q.612.235.622.644a1.266,1.266,0,0,1-.5.888q-.14.116-.3.252a3.255,3.255,0,0,1-.353.262q-.546.336-.561.476t.383.389q.577.355,1.233.707t1.353.743a14.017,14.017,0,0,0,1.418.658,8.463,8.463,0,0,0,1.379.435q.272.055.279.254A.445.445,0,0,1,478.506,279.6Zm-.211-7.33a6.989,6.989,0,0,1-.725,1.648.952.952,0,0,1-.562.436,1.377,1.377,0,0,1-.68.035,3,3,0,0,1-.6-.191,2.745,2.745,0,0,1-.508-.321,4.646,4.646,0,0,0-.716-.461,6.25,6.25,0,0,0-.752-.342q-1-.349-1.847-.628t-1.675-.5q-.827-.219-1.673-.418t-1.839-.389a1.052,1.052,0,0,0-.223,0,.758.758,0,0,0-.251.1,2.457,2.457,0,0,1-.807.154.593.593,0,0,1-.54-.213.8.8,0,0,1-.135-.7q.073-.423.122-.763a8.636,8.636,0,0,0,.058-.992q0-1.234.75-1.378a1.008,1.008,0,0,1,1.027.253q.157.177.239.254a.474.474,0,0,0,.258.1q1.451.326,2.892.688t2.674.715q1.233.353,2.135.673a8.733,8.733,0,0,1,1.283.538.922.922,0,0,0,.382.127,1.03,1.03,0,0,0,.37-.009.888.888,0,0,1,.525,0,1.5,1.5,0,0,1,.6.442,1.05,1.05,0,0,1,.287.492A1.413,1.413,0,0,1,478.3,272.265Zm-9.435-2.329a1.229,1.229,0,0,0,.051-.261.229.229,0,0,0-.11-.2,1.314,1.314,0,0,0-.4-.17c-.185-.055-.443-.114-.774-.178a1.79,1.79,0,0,0-.73-.059q-.161.057-.213.409a.505.505,0,0,0,.094.435,2.13,2.13,0,0,0,.821.283,2.568,2.568,0,0,0,.926.1A.521.521,0,0,0,468.86,269.937Zm8.836-2.545a14.657,14.657,0,0,1-.94,2.108.776.776,0,0,1-.344.318,1.487,1.487,0,0,1-.476.147,1.511,1.511,0,0,1-.458,0,.464.464,0,0,1-.27-.106,2.335,2.335,0,0,0-.883-.472l-.675-.2q-.483-.143-1.142-.352t-1.419-.435l-1.507-.447a.95.95,0,0,0-.376-.06,1.319,1.319,0,0,0-.26.08,1.246,1.246,0,0,1-.508.033,1.5,1.5,0,0,1-.833-.287.762.762,0,0,1-.2-.57,10.154,10.154,0,0,1,.127-1.222q.1-.6.367-1.675a2.056,2.056,0,0,1,.35-.827.916.916,0,0,1,.672-.233.838.838,0,0,1,.743.326,1.071,1.071,0,0,0,.211.26.878.878,0,0,0,.334.112,25.18,25.18,0,0,1,5.087,1.511,1.8,1.8,0,0,0,.579.171,1.738,1.738,0,0,0,.494.016,1.611,1.611,0,0,1,.8.041.906.906,0,0,1,.5.345,1.2,1.2,0,0,1,.189.647A2.515,2.515,0,0,1,477.7,267.392Zm-5.993,6.931c.151-.095.221-.184.21-.265s-.124-.172-.339-.271c-.108-.05-.264-.113-.468-.191s-.423-.153-.656-.222-.468-.134-.7-.2-.428-.105-.577-.132c-.235-.034-.363-.029-.385.017s.044.162.2.348a6.113,6.113,0,0,0,.5.568,7.74,7.74,0,0,0,.652.587,1.463,1.463,0,0,0,.273.186.506.506,0,0,0,.288.046,1.214,1.214,0,0,0,.393-.132Q471.32,274.551,471.7,274.322Zm3.7-6.194c.033-.112-.014-.188-.143-.225q-1.28-.46-2.7-.894t-2.735-.773a.953.953,0,0,0-.4-.039c-.05.02-.08.107-.091.262-.016.17,0,.281.059.332a.773.773,0,0,0,.354.131q1.044.285,1.771.487t1.269.364l.952.283.82.243a.89.89,0,0,0,.57.025A.491.491,0,0,0,475.4,268.128Zm.43-1.184a.465.465,0,0,0-.013-.4.983.983,0,0,0-.446-.264q-.693-.231-1.267-.415t-1.166-.359q-.591-.176-1.264-.336t-1.588-.353a.828.828,0,0,0-.374-.019c-.069.023-.111.094-.128.211a.336.336,0,0,0,.04.261.9.9,0,0,0,.435.168q1.317.34,2.675.755t2.653.828a.892.892,0,0,0,.324.057C475.772,267.07,475.811,267.025,475.835,266.944Zm-3.458,3.958q.107-.362-.012-.489a2.237,2.237,0,0,0-.77-.321,2.352,2.352,0,0,0-.821-.152c-.13.023-.227.146-.294.372s-.065.378.007.461a2.207,2.207,0,0,0,.783.325,1.842,1.842,0,0,0,.852.134A.456.456,0,0,0,472.377,270.9Zm3.988,1.237a.452.452,0,0,0,0-.382,1.006,1.006,0,0,0-.438-.247q-.33-.125-.632-.214t-.584-.2q-.282-.109-.4-.039a.593.593,0,0,0-.192.337.838.838,0,0,0-.061.428c.025.06.124.124.3.193s.35.131.535.185.371.119.56.192a.908.908,0,0,0,.614.051A.458.458,0,0,0,476.365,272.139Z" transform="translate(-1160.532 4285.56)" fill="#fff" stroke="#ae2a0f" stroke-miterlimit="10" stroke-width="1"/></g></g><g transform="translate(396 74.759)"><g transform="translate(-316 4588)"><path d="M265.153,635.085a12.059,12.059,0,0,1-1.167.49q-.588.211-1.338.419l.826.111a9.545,9.545,0,0,0-.271,1.447,9.661,9.661,0,0,0-.055,1.381,6.826,6.826,0,0,0,.137,1.188,2.979,2.979,0,0,0,.306.867l-1.7.8a7.768,7.768,0,0,1-.164-1.357,13.8,13.8,0,0,1,.024-1.479q.052-.749.165-1.478t.258-1.353a11.585,11.585,0,0,1-1.209.227q-.572.074-1.2.1l.305-1.126a8.971,8.971,0,0,0,2.043-.23,18.392,18.392,0,0,0,2.565-.8,3.016,3.016,0,0,0,.294-.12.578.578,0,0,1,.128-.052l.265-.064Z" transform="translate(-259.768 -629.769)" fill="#2880a2"/><path d="M303.313,640.92a1.951,1.951,0,0,1-.047.919,3.832,3.832,0,0,1-.4.91,5.237,5.237,0,0,1-.632.843,6.433,6.433,0,0,1-.742.7,5.6,5.6,0,0,1-.738.5,2.112,2.112,0,0,1-.6.246,1.315,1.315,0,0,1-.6-.032,2.505,2.505,0,0,1-.6-.248,1.876,1.876,0,0,1-.475-.382.949.949,0,0,1-.238-.448,2.025,2.025,0,0,1,.062-.95,3.882,3.882,0,0,1,.456-1,5.049,5.049,0,0,1,.743-.913,4.3,4.3,0,0,1,.937-.7l.517.235.644-.3q.249-.116.4-.181a2.174,2.174,0,0,1,.247-.089c.062-.016.12-.03.173-.04a.568.568,0,0,1,.566.2A1.512,1.512,0,0,1,303.313,640.92Zm-1.466.765a1.279,1.279,0,0,0-.16-.4,2.67,2.67,0,0,0-.3-.415l-.3.056a3.566,3.566,0,0,0-.641.685,4.275,4.275,0,0,0-.438.764,2.955,2.955,0,0,0-.224.758,2.013,2.013,0,0,0,0,.666,1.427,1.427,0,0,0,.035.146,1.246,1.246,0,0,0,.067.168l.315.051a5.608,5.608,0,0,0,.713-.56,3.707,3.707,0,0,0,.553-.633,2.558,2.558,0,0,0,.327-.653A1.266,1.266,0,0,0,301.848,641.685Z" transform="translate(-291.518 -634.664)" fill="#2880a2"/><path d="M345.541,631.576a.409.409,0,0,1,.132.3,2.154,2.154,0,0,1-.163.644,6.8,6.8,0,0,0-.288,2.812l-1.478.556a5.261,5.261,0,0,1,.013-.781,7.068,7.068,0,0,1,.13-.873,8.141,8.141,0,0,1,.244-.9,6.16,6.16,0,0,1,.354-.85l-.338-.241a1.526,1.526,0,0,0-.68.359,4.391,4.391,0,0,0-.665.7,4.666,4.666,0,0,0-.519.853,2.179,2.179,0,0,0-.227.825,2.293,2.293,0,0,1-.162.892.483.483,0,0,1-.361.272.522.522,0,0,1-.306-.067,1.5,1.5,0,0,1-.329-.229,1.875,1.875,0,0,1-.27-.3.664.664,0,0,1-.129-.278.644.644,0,0,1,.048-.289,2.834,2.834,0,0,1,.326-.564,3.071,3.071,0,0,0,.378-.681,4.531,4.531,0,0,0,.21-.8l-.392-.33a3.688,3.688,0,0,0-1.478,1.086,3.026,3.026,0,0,0-.589,1.621q-.037.419-.071.665a1.449,1.449,0,0,1-.1.386.406.406,0,0,1-.158.2.728.728,0,0,1-.257.078.477.477,0,0,1-.286-.069,2.16,2.16,0,0,1-.327-.215,1.792,1.792,0,0,1-.28-.27.537.537,0,0,1-.132-.25.8.8,0,0,1,.015-.278,1.008,1.008,0,0,1,.195-.372,2.793,2.793,0,0,0,.245-.455,1.638,1.638,0,0,0,.108-.5,3.589,3.589,0,0,0-.031-.7q-.052-.413-.185-1.055l1.278-.513.062.432a4.891,4.891,0,0,1,.051.551q.007.24-.009.518a6.289,6.289,0,0,1,.7-.733,6.585,6.585,0,0,1,.719-.564,4.517,4.517,0,0,1,.67-.378,2.131,2.131,0,0,1,.547-.175.648.648,0,0,1,.237.021,1.422,1.422,0,0,1,.276.1,1.128,1.128,0,0,1,.227.14.261.261,0,0,1,.105.157q.025.176.037.36a1.11,1.11,0,0,1-.032.356,6.892,6.892,0,0,1,.556-.6,6.348,6.348,0,0,1,.584-.5,3.769,3.769,0,0,1,.557-.348,1.66,1.66,0,0,1,.5-.168.533.533,0,0,1,.286.07A1.828,1.828,0,0,1,345.541,631.576Z" transform="translate(-323.869 -627.366)" fill="#2880a2"/><path d="M399.842,627.815a1.951,1.951,0,0,1-.121.912,3.824,3.824,0,0,1-.475.875,5.276,5.276,0,0,1-.7.789,6.436,6.436,0,0,1-.8.635,5.573,5.573,0,0,1-.776.441,2.094,2.094,0,0,1-.617.2,1.313,1.313,0,0,1-.592-.08,2.5,2.5,0,0,1-.574-.295,1.875,1.875,0,0,1-.443-.419.947.947,0,0,1-.2-.465,2.027,2.027,0,0,1,.138-.942,3.874,3.874,0,0,1,.535-.957,5.058,5.058,0,0,1,.814-.85,4.326,4.326,0,0,1,.99-.622l.5.276.666-.251q.257-.1.416-.148a2.173,2.173,0,0,1,.253-.069c.063-.011.121-.02.176-.026a.568.568,0,0,1,.548.243A1.516,1.516,0,0,1,399.842,627.815Zm-1.522.646a1.283,1.283,0,0,0-.127-.412,2.685,2.685,0,0,0-.267-.438l-.3.032a3.583,3.583,0,0,0-.693.631,4.277,4.277,0,0,0-.5.726,2.939,2.939,0,0,0-.284.738,2.015,2.015,0,0,0-.052.664,1.5,1.5,0,0,0,.023.149,1.239,1.239,0,0,0,.053.173l.31.076a5.573,5.573,0,0,0,.756-.5,3.707,3.707,0,0,0,.6-.587,2.565,2.565,0,0,0,.379-.624A1.268,1.268,0,0,0,398.32,628.46Z" transform="translate(-371.064 -623.793)" fill="#2880a2"/><path d="M438.934,622.837q-.09.227-.157.39t-.123.312q-.056.149-.11.3t-.12.353l-1.03-.033a1.23,1.23,0,0,0-.295.307,3,3,0,0,0-.28.484,5.1,5.1,0,0,0-.224.567,2.911,2.911,0,0,0-.129.559q-.066.5-.134.813a2.584,2.584,0,0,1-.149.493.644.644,0,0,1-.17.248.351.351,0,0,1-.185.078.4.4,0,0,1-.236-.109,2.659,2.659,0,0,1-.574-.607.67.67,0,0,1-.129-.3.933.933,0,0,1,.058-.43,3.007,3.007,0,0,1,.322-.549.734.734,0,0,0,.128-.333,2.743,2.743,0,0,0,0-.6q-.051-.584-.116-1.01t-.128-.681l1.357-.462a5.766,5.766,0,0,1,.019,1.779q.27-.516.493-.858a3.844,3.844,0,0,1,.424-.551,1.594,1.594,0,0,1,.384-.308.963.963,0,0,1,.373-.115.894.894,0,0,1,.327.053A1.667,1.667,0,0,1,438.934,622.837Z" transform="translate(-404.381 -620.301)" fill="#2880a2"/><path d="M469.811,620.508q-.093.226-.164.388t-.128.31q-.058.148-.115.3t-.125.351l-1.03-.049a1.222,1.222,0,0,0-.3.3,2.97,2.97,0,0,0-.287.479,5.05,5.05,0,0,0-.233.564,2.921,2.921,0,0,0-.138.557q-.074.5-.147.811a2.6,2.6,0,0,1-.156.49.645.645,0,0,1-.174.245.351.351,0,0,1-.186.075.4.4,0,0,1-.234-.113,2.534,2.534,0,0,1-.3-.279,2.5,2.5,0,0,1-.264-.337.668.668,0,0,1-.124-.3.927.927,0,0,1,.065-.429,2.986,2.986,0,0,1,.33-.544.736.736,0,0,0,.134-.331,2.721,2.721,0,0,0,0-.6q-.042-.585-.1-1.012t-.118-.682l1.364-.441a5.771,5.771,0,0,1-.009,1.779q.278-.513.507-.851a3.857,3.857,0,0,1,.433-.544,1.6,1.6,0,0,1,.389-.3.961.961,0,0,1,.375-.109.891.891,0,0,1,.326.059A1.656,1.656,0,0,1,469.811,620.508Z" transform="translate(-429.832 -618.368)" fill="#2880a2"/><path d="M500.845,620.247a1.954,1.954,0,0,1-.168.9,3.832,3.832,0,0,1-.519.849,5.286,5.286,0,0,1-.737.752,6.444,6.444,0,0,1-.828.593,5.574,5.574,0,0,1-.8.4,2.1,2.1,0,0,1-.626.165,1.316,1.316,0,0,1-.587-.11,2.5,2.5,0,0,1-.558-.324,1.878,1.878,0,0,1-.421-.441.948.948,0,0,1-.177-.475,2.028,2.028,0,0,1,.187-.933,3.869,3.869,0,0,1,.583-.928,5.027,5.027,0,0,1,.857-.807,4.312,4.312,0,0,1,1.021-.57l.481.3.678-.216q.262-.083.423-.126a2.077,2.077,0,0,1,.257-.055c.063-.008.122-.014.177-.017a.569.569,0,0,1,.535.271A1.52,1.52,0,0,1,500.845,620.247Zm-1.554.566a1.285,1.285,0,0,0-.106-.418,2.7,2.7,0,0,0-.244-.451l-.3.017a3.571,3.571,0,0,0-.725.595,4.3,4.3,0,0,0-.535.7,2.955,2.955,0,0,0-.321.722,2.018,2.018,0,0,0-.086.661q0,.082.015.15a1.3,1.3,0,0,0,.044.175l.306.092a5.6,5.6,0,0,0,.78-.461,3.731,3.731,0,0,0,.632-.555,2.558,2.558,0,0,0,.41-.6A1.269,1.269,0,0,0,499.292,620.813Z" transform="translate(-454.374 -617.512)" fill="#2880a2"/><path d="M544.52,610.333a2.921,2.921,0,0,1-.206,1.1,7.5,7.5,0,0,1-.6,1.237,12,12,0,0,1-.844,1.232,12.128,12.128,0,0,1-.931,1.071,6.79,6.79,0,0,1-.833.747,1.114,1.114,0,0,1-.565.245.658.658,0,0,1-.5-.323,4.018,4.018,0,0,1-.522-1.224,5.26,5.26,0,0,1-.533.545q-.324.292-.663.543a4.964,4.964,0,0,1-.648.412,1.251,1.251,0,0,1-.485.168.607.607,0,0,1-.3-.1,1.465,1.465,0,0,1-.352-.288,1.771,1.771,0,0,1-.288-.427,1.264,1.264,0,0,1-.128-.515,4.325,4.325,0,0,1,.047-.78,7.278,7.278,0,0,1,.169-.818,6.688,6.688,0,0,1,.259-.781,5.414,5.414,0,0,1,.317-.667l1.611-.386a6.653,6.653,0,0,0-.461.856,7.92,7.92,0,0,0-.343.907,6.31,6.31,0,0,0-.207.881,4.06,4.06,0,0,0-.054.767l.286.359q.52-.333.847-.556t.633-.439a.7.7,0,0,0,.19-.232.845.845,0,0,0,.036-.336,3.908,3.908,0,0,1,.078-1.068,1.424,1.424,0,0,1,.392-.683,1.616,1.616,0,0,1,.606-.418,2.475,2.475,0,0,1,.726-.122.481.481,0,0,1,.316.07.385.385,0,0,1,.107.3.98.98,0,0,1-.159.518,3.965,3.965,0,0,1-.709.783.688.688,0,0,0-.183.225.552.552,0,0,0-.016.315,4.609,4.609,0,0,0,.138.6,4.52,4.52,0,0,0,.293.74,5.14,5.14,0,0,0,.889-.728,9.28,9.28,0,0,0,1.008-1.21,1.077,1.077,0,0,0,.224-.411.563.563,0,0,0-.1-.331,1.414,1.414,0,0,1-.257-.7.712.712,0,0,1,.268-.515q.264-.241.457-.4t.432-.316q.32-.216.437-.18T544.52,610.333Z" transform="translate(-487.977 -609.9)" fill="#2880a2"/><path d="M620.736,616.594a.965.965,0,0,1-.133.41,8.278,8.278,0,0,0-.616,1.5,7.532,7.532,0,0,0-.287,1.619l-1.471.367a9.653,9.653,0,0,1,.463-1.832,6.421,6.421,0,0,1,.752-1.507l-.33-.339a4.847,4.847,0,0,0-.918.424,5.3,5.3,0,0,0-.753.538,3.608,3.608,0,0,0-.521.543,1.249,1.249,0,0,0-.235.439,8.414,8.414,0,0,1-.238.95,2.9,2.9,0,0,1-.234.554.593.593,0,0,1-.216.241.232.232,0,0,1-.2.008,1.643,1.643,0,0,1-.514-.31,3.048,3.048,0,0,1-.393-.474q-.207-.257.119-.506a2.011,2.011,0,0,0,.3-.282,1.039,1.039,0,0,0,.188-.343,2.107,2.107,0,0,0,.091-.478q.025-.28.022-.689,0-.491-.013-.73a3.83,3.83,0,0,0-.038-.429l1.431-.284a5.73,5.73,0,0,1,.013.737,4.062,4.062,0,0,1-.124.779,4.014,4.014,0,0,1,.7-.579,7.658,7.658,0,0,1,.849-.491,5.747,5.747,0,0,1,.843-.341,2.469,2.469,0,0,1,.681-.128.452.452,0,0,1,.2.073,1.836,1.836,0,0,1,.261.182,2.128,2.128,0,0,1,.227.216A.316.316,0,0,1,620.736,616.594Z" transform="translate(-552.967 -614.828)" fill="#2880a2"/><path d="M662,616.716a1.245,1.245,0,0,1-.161.654,1.22,1.22,0,0,1-.6.44,5.847,5.847,0,0,1-1.21.312q-.772.131-2,.286a1.419,1.419,0,0,0,.221.595,1.526,1.526,0,0,0,.508.516q.4-.079.745-.159t.677-.173q.328-.093.663-.214t.7-.282l-.044.368a.628.628,0,0,1-.049.17.416.416,0,0,1-.172.156,3.519,3.519,0,0,1-.411.195q-.274.114-.766.288a8.26,8.26,0,0,1-1.026.307,3.792,3.792,0,0,1-.833.117,1.517,1.517,0,0,1-.593-.134,2.583,2.583,0,0,1-.557-.325,1.853,1.853,0,0,1-.406-.419.757.757,0,0,1-.154-.431,1.549,1.549,0,0,1,.043-.362,2.077,2.077,0,0,1,.146-.388,4.753,4.753,0,0,1,.3-.516l.483-.747a2.61,2.61,0,0,1,1.173-.859,5.248,5.248,0,0,1,2.056-.334,1.856,1.856,0,0,1,.988.2A.834.834,0,0,1,662,616.716Zm-1.389-.419-1.434.167q-.276.353-.5.672t-.49.754q.779-.062,1.257-.141a2.837,2.837,0,0,0,.731-.2.737.737,0,0,0,.343-.284.82.82,0,0,0,.091-.4Z" transform="translate(-587.429 -614.68)" fill="#2880a2"/><path d="M703.137,611.055a2.415,2.415,0,0,1-.337,1.023,10.426,10.426,0,0,1-.813,1.272,14.558,14.558,0,0,1-1.066,1.28,13.221,13.221,0,0,1-1.082,1.047,7.925,7.925,0,0,1-.7.53.884.884,0,0,1-.448.181.741.741,0,0,1-.378-.165,2.993,2.993,0,0,1-.806-.878.877.877,0,0,1-.147-.447,5.25,5.25,0,0,1,.228-1.346,9.726,9.726,0,0,1,.586-1.5l1.81-.355a6.1,6.1,0,0,0-.859,1.462,7,7,0,0,0-.5,1.8l.372.445q.36-.251.667-.51t.578-.526q.272-.267.532-.568t.54-.664a.682.682,0,0,0,.121-.236.484.484,0,0,0,0-.266,1.89,1.89,0,0,1-.031-1.038,1.041,1.041,0,0,1,.532-.589,2.282,2.282,0,0,1,.839-.3.429.429,0,0,1,.278.081A.333.333,0,0,1,703.137,611.055Z" transform="translate(-621.134 -610.49)" fill="#2880a2"/><path d="M739.824,618.682a1.249,1.249,0,0,1-.181.649,1.221,1.221,0,0,1-.61.422,5.852,5.852,0,0,1-1.219.276q-.775.108-2.009.226a1.421,1.421,0,0,0,.2.6,1.527,1.527,0,0,0,.493.53q.4-.067.749-.136t.682-.152q.331-.083.67-.194t.713-.26l-.054.367a.628.628,0,0,1-.054.169.417.417,0,0,1-.176.15,3.51,3.51,0,0,1-.416.182q-.277.106-.775.265a8.284,8.284,0,0,1-1.035.276,3.816,3.816,0,0,1-.836.092,1.521,1.521,0,0,1-.588-.151,2.591,2.591,0,0,1-.547-.341,1.852,1.852,0,0,1-.394-.431.758.758,0,0,1-.141-.435,1.564,1.564,0,0,1,.054-.36,2.1,2.1,0,0,1,.158-.383,4.694,4.694,0,0,1,.312-.508l.5-.732a2.61,2.61,0,0,1,1.2-.823,5.239,5.239,0,0,1,2.065-.272,1.851,1.851,0,0,1,.981.228A.834.834,0,0,1,739.824,618.682Zm-1.376-.46-1.438.124q-.286.345-.523.657t-.512.739q.78-.039,1.26-.1a2.844,2.844,0,0,0,.737-.178.735.735,0,0,0,.351-.274.823.823,0,0,0,.1-.392Z" transform="translate(-651.638 -616.268)" fill="#2880a2"/><path d="M779.076,618.167q-.12.213-.21.365t-.166.292q-.076.14-.151.286t-.168.333l-1.016-.176a1.221,1.221,0,0,0-.335.263,2.988,2.988,0,0,0-.344.44,5.09,5.09,0,0,0-.3.531,2.915,2.915,0,0,0-.206.536q-.135.484-.246.787a2.6,2.6,0,0,1-.216.467.648.648,0,0,1-.2.222.352.352,0,0,1-.194.051.4.4,0,0,1-.218-.141,2.524,2.524,0,0,1-.264-.314,2.571,2.571,0,0,1-.22-.367.674.674,0,0,1-.086-.312.934.934,0,0,1,.117-.417,2.983,2.983,0,0,1,.4-.5.736.736,0,0,0,.173-.312,2.729,2.729,0,0,0,.079-.59q.031-.586.026-1.016t-.032-.692l1.408-.268a5.76,5.76,0,0,1-.229,1.765q.339-.474.608-.781a3.864,3.864,0,0,1,.5-.486,1.6,1.6,0,0,1,.423-.251.964.964,0,0,1,.386-.062.893.893,0,0,1,.316.1A1.669,1.669,0,0,1,779.076,618.167Z" transform="translate(-684.865 -616.211)" fill="#2880a2"/><path d="M835.481,613.571a4.626,4.626,0,0,0-1.28.164,5.222,5.222,0,0,0-1.229.551,8.912,8.912,0,0,0,1.811,1.817l-1.163.673a11.888,11.888,0,0,1-.9-.84,6.132,6.132,0,0,1-.7-.85,1.4,1.4,0,0,1-.186-.33.406.406,0,0,1,.01-.294.9.9,0,0,1,.238-.316,5.976,5.976,0,0,1,.5-.4l.16.218q.361-.231.662-.4t.571-.3l-.03-.139a3.653,3.653,0,0,0-1.233.092,2.963,2.963,0,0,0-.967.443,2.726,2.726,0,0,0-.695.717,2.9,2.9,0,0,0-.4.919c-.054.215-.1.386-.151.515a1.036,1.036,0,0,1-.154.3.351.351,0,0,1-.188.129.8.8,0,0,1-.255.014.536.536,0,0,1-.28-.173,4.225,4.225,0,0,1-.477-.614.463.463,0,0,1-.112-.31c.015-.072.1-.169.27-.293a2.122,2.122,0,0,0,.457-.49,3.056,3.056,0,0,0,.311-.708q.992-3.137,1.709-3.7a2.287,2.287,0,0,1,.732-.331,6.186,6.186,0,0,1,1.212-.169c.092-.01.15.014.172.076s-.016.138-.115.23q-.478.5-.826.906a9.353,9.353,0,0,0-.628.825,9.831,9.831,0,0,0-.522.868q-.242.453-.508,1.034a6.638,6.638,0,0,1,.847-.575,5.607,5.607,0,0,1,.818-.386,4.322,4.322,0,0,1,.742-.207,2.425,2.425,0,0,1,.606-.04Q834.9,612.251,835.481,613.571Z" transform="translate(-729.865 -609.469)" fill="#2880a2"/><path d="M878.772,627.963a.965.965,0,0,1-.178.393,8.269,8.269,0,0,0-.779,1.421,7.552,7.552,0,0,0-.466,1.578l-1.5.2a9.628,9.628,0,0,1,.665-1.769,6.427,6.427,0,0,1,.915-1.414l-.29-.373a4.847,4.847,0,0,0-.959.318,5.313,5.313,0,0,0-.809.451,3.6,3.6,0,0,0-.578.482,1.242,1.242,0,0,0-.283.41,8.442,8.442,0,0,1-.343.918,2.945,2.945,0,0,1-.295.525.6.6,0,0,1-.242.215.232.232,0,0,1-.2-.014,1.64,1.64,0,0,1-.476-.365,3.076,3.076,0,0,1-.337-.515q-.176-.279.175-.489a2.005,2.005,0,0,0,.328-.247,1.042,1.042,0,0,0,.225-.319,2.11,2.11,0,0,0,.145-.465q.056-.275.1-.683.051-.489.069-.727a3.81,3.81,0,0,0,.01-.431l1.454-.123a5.735,5.735,0,0,1-.07.734,4.072,4.072,0,0,1-.209.76,4.006,4.006,0,0,1,.758-.5,7.66,7.66,0,0,1,.9-.393,5.752,5.752,0,0,1,.876-.245,2.461,2.461,0,0,1,.692-.051.453.453,0,0,1,.189.095,1.842,1.842,0,0,1,.239.21,2.073,2.073,0,0,1,.2.241A.316.316,0,0,1,878.772,627.963Z" transform="translate(-765.815 -623.895)" fill="#2880a2"/><path d="M920.052,633.629a1.954,1.954,0,0,1-.332.858,3.843,3.843,0,0,1-.668.738,5.262,5.262,0,0,1-.863.6,6.449,6.449,0,0,1-.924.43,5.586,5.586,0,0,1-.858.246,2.106,2.106,0,0,1-.646.046,1.313,1.313,0,0,1-.556-.217,2.5,2.5,0,0,1-.489-.422,1.88,1.88,0,0,1-.332-.511.949.949,0,0,1-.086-.5,2.027,2.027,0,0,1,.356-.882,3.874,3.874,0,0,1,.745-.8,5.021,5.021,0,0,1,.991-.634,4.313,4.313,0,0,1,1.108-.371l.418.385.706-.087c.182-.022.328-.037.44-.046a2.112,2.112,0,0,1,.262-.007c.064,0,.123.009.177.016a.569.569,0,0,1,.475.365A1.517,1.517,0,0,1,920.052,633.629Zm-1.631.268a1.281,1.281,0,0,0-.026-.43,2.671,2.671,0,0,0-.156-.488l-.3-.039a3.568,3.568,0,0,0-.823.45,4.278,4.278,0,0,0-.655.589,2.933,2.933,0,0,0-.45.65,2.016,2.016,0,0,0-.207.633,1.464,1.464,0,0,0-.012.15,1.236,1.236,0,0,0,.011.18l.283.147a5.565,5.565,0,0,0,.852-.308,3.706,3.706,0,0,0,.724-.428,2.556,2.556,0,0,0,.515-.517A1.265,1.265,0,0,0,918.42,633.9Z" transform="translate(-800.279 -628.246)" fill="#2880a2"/><path d="M963.468,637.359a2.907,2.907,0,0,1-.428,1.034,7.477,7.477,0,0,1-.839,1.088,12.646,12.646,0,0,1-2.211,1.888,6.8,6.8,0,0,1-.97.559,1.114,1.114,0,0,1-.6.124q-.242-.042-.426-.42a4.012,4.012,0,0,1-.259-1.305,5.262,5.262,0,0,1-.634.423q-.377.219-.761.394a4.941,4.941,0,0,1-.719.27,1.245,1.245,0,0,1-.51.064.6.6,0,0,1-.277-.159,1.466,1.466,0,0,1-.285-.354,1.765,1.765,0,0,1-.194-.477,1.259,1.259,0,0,1-.019-.529,4.339,4.339,0,0,1,.207-.754,7.265,7.265,0,0,1,.334-.766,6.718,6.718,0,0,1,.414-.711,5.423,5.423,0,0,1,.448-.587l1.656-.045a6.647,6.647,0,0,0-.627.743,7.934,7.934,0,0,0-.522.816,6.3,6.3,0,0,0-.384.82,4.051,4.051,0,0,0-.211.739l.206.41q.578-.218.943-.37t.71-.3a.7.7,0,0,0,.233-.188.846.846,0,0,0,.1-.321,3.922,3.922,0,0,1,.3-1.029,1.43,1.43,0,0,1,.524-.588,1.619,1.619,0,0,1,.679-.284,2.48,2.48,0,0,1,.736.031.482.482,0,0,1,.3.134.384.384,0,0,1,.043.312.977.977,0,0,1-.262.474,3.974,3.974,0,0,1-.855.62.683.683,0,0,0-.225.182.553.553,0,0,0-.081.3,4.7,4.7,0,0,0,.012.611,4.533,4.533,0,0,0,.134.785,5.176,5.176,0,0,0,1.02-.53,9.294,9.294,0,0,0,1.236-.977,1.078,1.078,0,0,0,.3-.356.565.565,0,0,0-.03-.345,1.417,1.417,0,0,1-.108-.739.713.713,0,0,1,.369-.449q.309-.182.529-.3a5.28,5.28,0,0,1,.488-.22q.357-.146.465-.086C963.483,637.043,963.5,637.162,963.468,637.359Z" transform="translate(-833.33 -632.193)" fill="#2880a2"/><path d="M1010.643,649.414a6.877,6.877,0,0,0-1.057-.757,3.338,3.338,0,0,0-.845-.344.98.98,0,0,0-.8.318q.229.221.485.442t.633.533a5.532,5.532,0,0,1,.607.555,1.4,1.4,0,0,1,.29.439.574.574,0,0,1,.018.375,1.094,1.094,0,0,1-.211.364,3.423,3.423,0,0,1-.5.515,1.532,1.532,0,0,1-.513.28,1.668,1.668,0,0,1-.583.068,4.16,4.16,0,0,1-.71-.109,4.583,4.583,0,0,1-1.089-.408,6.808,6.808,0,0,1-1.131-.768l.746-.737a6.584,6.584,0,0,0,1.091.731,4.421,4.421,0,0,0,1.063.429,1.369,1.369,0,0,0,.478.055.439.439,0,0,0,.255-.193.246.246,0,0,0,.048-.115.261.261,0,0,0-.044-.143,1.109,1.109,0,0,0-.174-.216q-.125-.127-.359-.322a10.063,10.063,0,0,1-.784-.666,3.613,3.613,0,0,1-.455-.512,1.365,1.365,0,0,1-.2-.391.582.582,0,0,1-.018-.284.85.85,0,0,1,.247-.37,2.15,2.15,0,0,1,.537-.379,2.711,2.711,0,0,1,.737-.249,2.015,2.015,0,0,1,.85.023,4.173,4.173,0,0,1,.942.38,8.53,8.53,0,0,1,1.266.848Z" transform="translate(-875.381 -640.891)" fill="#2880a2"/></g></g></g></svg>