<svg xmlns="http://www.w3.org/2000/svg" width="274.893" height="24.762" viewBox="0 0 274.893 24.762"><g transform="translate(-559.667 -136.473)"><path d="M568.334,161.236V160H564.62v-1.238h-1.238v-1.238h-1.238v-1.238h-1.238v-2.476h-1.238V143.9h1.238v-2.476h1.238v-1.238h1.238v-1.238h1.238v-1.238h3.714v-1.238h6.191v1.238h3.715v1.238h1.238v2.476h1.238v1.238h1.238V143.9H577v-1.238h-1.238v-1.238h-2.476v-1.238h-3.715v1.238H567.1v1.238h-1.238V143.9H564.62v2.476h-1.238v4.952h1.238v2.477h1.238v1.238H567.1v1.238h2.476v1.238h3.715v-1.238h2.476v-1.238H577v-1.238h1.238V151.33h-7.429v-3.714h11.143v7.429h-1.238v1.238h-1.238v2.476h-1.238V160h-3.715v1.238Zm0-3.715h-2.476v-1.238H564.62v-1.238h-1.238v-2.476h-1.238V145.14h-1.238v7.429h1.238v2.476h1.238v1.238h1.238v1.238h1.238v1.238h2.476Zm-4.952-12.381v-2.477h-1.238v2.477Zm1.238-2.477v-1.238h-1.238v1.238Zm1.238-1.238v-1.238H564.62v1.238Zm2.476-1.238v-1.238h-2.476v1.238Zm4.953-2.476h-3.715v1.238h3.715Zm0,22.286v-1.238h-3.715V160Zm7.429-6.19v-4.953h-8.667v1.238h7.429v3.715Zm-6.191-13.62H577v1.238h1.238v-1.238H577v-1.238h-2.476ZM577,158.759v-1.238h-2.476v1.238Zm1.238-1.238v-1.238H577v1.238Z" fill="#258059"/><path d="M619.952,161.236V160h-3.715v-1.238H615v-1.238h-1.238v-1.238h-1.238v-2.476h-1.238V143.9h1.238v-2.476h1.238v-1.238H615v-1.238h1.238v-1.238h3.715v-1.238h6.191v1.238h3.715v1.238H631.1v1.238h1.238v1.238h1.238V143.9h1.238v9.905h-1.238v2.476h-1.238v1.238H631.1v1.238h-1.238V160h-3.715v1.238Zm0-2.476v-1.238h-2.476v-1.238h-1.238v-1.238H615v-2.476h-1.238V145.14h-1.238v7.429h1.238v2.476H615v1.238h1.238v1.238h1.238v1.238Zm-6.19-16.1v2.477H615v-2.477ZM624.9,157.521v-1.238h2.476v-1.238h1.238v-1.238h1.238V151.33H631.1v-4.952h-1.238V143.9h-1.238v-1.238h-1.238v-1.238H624.9v-1.238h-3.714v1.238h-2.476v1.238h-1.238V143.9h-1.238v2.476H615v4.952h1.238v2.477h1.238v1.238h1.238v1.238h2.476v1.238Zm-9.9-16.1v1.238h1.238v-1.238Zm1.238-1.238v1.238h1.238v-1.238Zm1.238,0h2.476v-1.238h-2.476Zm7.429-2.476h-3.714v1.238H624.9Zm0,22.286v-1.238h-3.714V160Zm8.667-7.429V145.14h-1.238v-2.477H631.1v-1.238h-1.238v-1.238h-1.238v-1.238h-2.476v1.238h2.476v1.238h1.238v1.238H631.1v2.477h1.238v7.429Zm-4.952,6.191v-1.238h-2.476v1.238Zm1.238-1.238v-1.238h-1.238v1.238Zm1.238-1.238v-1.238h-1.238v1.238Zm1.238-1.238v-2.476H631.1v2.476Z" transform="translate(-25.813)" fill="#258059"/><path d="M673.97,161.236V160h-3.715v-1.238h-1.238v-1.238h-1.238v-1.238h-1.238v-2.476H665.3V143.9h1.238v-2.476h1.238v-1.238h1.238v-1.238h1.238v-1.238h3.715v-1.238h6.19v1.238h3.715v1.238h1.238v1.238h1.238v1.238h1.238V143.9h1.238v9.905h-1.238v2.476h-1.238v1.238h-1.238v1.238h-1.238V160H680.16v1.238Zm0-2.476v-1.238h-2.476v-1.238h-1.238v-1.238h-1.238v-2.476h-1.238V145.14h-1.238v7.429h1.238v2.476h1.238v1.238h1.238v1.238h1.238v1.238Zm-6.191-16.1v2.477h1.238v-2.477Zm11.143,14.858v-1.238H681.4v-1.238h1.238v-1.238h1.238V151.33h1.238v-4.952h-1.238V143.9h-1.238v-1.238H681.4v-1.238h-2.476v-1.238h-3.715v1.238h-2.476v1.238h-1.238V143.9h-1.238v2.476h-1.238v4.952h1.238v2.477h1.238v1.238h1.238v1.238h2.476v1.238Zm-9.905-16.1v1.238h1.238v-1.238Zm1.238-1.238v1.238h1.238v-1.238Zm1.238,0h2.476v-1.238h-2.476Zm7.429-2.476h-3.715v1.238h3.715Zm0,22.286v-1.238h-3.715V160Zm8.667-7.429V145.14h-1.238v-2.477h-1.238v-1.238h-1.238v-1.238h-1.238v-1.238H680.16v1.238h2.477v1.238h1.238v1.238h1.238v2.477h1.238v7.429Zm-4.952,6.191v-1.238H680.16v1.238Zm1.238-1.238v-1.238h-1.238v1.238Zm1.238-1.238v-1.238h-1.238v1.238Zm1.238-1.238v-2.476h-1.238v2.476Z" transform="translate(-52.824)" fill="#258059"/><path d="M720.327,161.236V136.473H731.47v1.238h3.715v1.238h1.238v1.238h1.238v1.238H738.9V143.9h1.238v9.905H738.9v2.476h-1.238v1.238h-1.238v1.238h-1.238V160H731.47v1.238Zm2.476-2.476v-19.81h7.429v-1.238h-8.667V160h8.667v-1.238Zm7.429-1.238v-1.238h2.476v-1.238h1.238v-1.238h1.238V151.33h1.238v-4.952h-1.238V143.9h-1.238v-1.238h-1.238v-1.238h-2.476v-1.238h-6.191v17.334Zm8.667-4.952V145.14h-1.238v-2.477h-1.238v-1.238h-1.238v-1.238h-1.238v-1.238H731.47v1.238h2.476v1.238h1.238v1.238h1.238v2.477h1.238v7.429Zm-4.953,6.191v-1.238H731.47v1.238Zm1.238-1.238v-1.238h-1.238v1.238Zm1.238-1.238v-1.238h-1.238v1.238Zm1.238-1.238v-2.476h-1.238v2.476Z" transform="translate(-80.339)" fill="#258059"/><path d="M772.485,161.236V160h-2.476v-1.238h-1.238v-1.238h-1.238v-2.476h3.715v1.238h1.238v1.238h6.191v-1.238h1.238v-3.715h-1.238V151.33h-1.238v-1.238h-3.715v-1.238h-3.715v-1.238h-1.238v-1.238h-1.238v-6.191h1.238v-1.238h1.238v-1.238h1.238v-1.238h8.667v1.238h1.238v1.238h1.238v2.476h-3.714v-1.238h-6.191v1.238h-1.238v3.715h2.476v1.238h3.715v1.238h2.476v1.238h2.476v2.476h1.238v6.191h-1.238v1.238h-1.238V160h-2.476v1.238Zm-3.714-19.81v3.715h1.238v-3.715Zm3.714,4.952h-1.238v1.238h1.238Zm6.191-8.667h-6.191v1.238h6.191ZM777.438,160v-1.238h-3.715V160ZM776.2,147.616h-1.238v1.238H776.2Zm4.952,2.476h-1.238v1.238h1.238Zm1.238,6.191v-3.715h-1.238v3.715Z" transform="translate(-103.945)" fill="#258059"/><path d="M834.242,161.236V160h-2.476v-1.238h-1.238v-2.476H829.29V151.33h1.238v-2.476h1.238v-1.238H833v-1.238h-1.238V145.14h-1.238v-3.715h1.238v-2.476H833v-1.238h2.476v-1.238h4.952v1.238h2.476v1.238h1.238v1.238h1.238V143.9h-1.238v1.238h-3.714V143.9h1.238v-2.476h-1.238v-1.238h-4.952v1.238h-1.238v3.715h1.238v1.238h2.476v2.476h-2.476v1.238h-1.238v1.238H833v4.953h1.238v1.238h7.429v-1.238h1.238v-3.715h-1.238v-2.476H849.1v2.476h-2.476v4.952h-1.238v1.238h-1.238V160h-1.238v1.238Zm-3.714-8.667v2.476h1.238v-2.476Zm1.238-9.905V143.9H833v-1.238ZM841.672,160v-1.238h-6.191V160ZM839.2,137.711h-2.477v1.238H839.2Zm4.952,4.952v-1.238h-1.238v1.238Zm1.238,13.62V151.33h-1.238v4.953Z" transform="translate(-134.827)" fill="#258059"/><path d="M898.011,161.236V136.473h14.857v3.714H901.725v6.191h11.143v3.715H901.725v7.429h11.143v3.715ZM911.63,160v-1.238H900.487v-9.905H911.63v-1.238H900.487v-8.667H911.63v-1.238H899.249V160Z" transform="translate(-169.192)" fill="#258059"/><path d="M942.122,161.236v-2.476h-1.238v-3.715h-1.238v-2.476h-1.238v-3.715h-1.238V145.14h-1.238v-2.477h-1.238v-3.714h-1.238v-2.476h3.715v2.476h1.238v3.714h1.238v2.477h1.238v3.714h1.238v3.715h1.238v2.476H944.6v-2.476h1.238v-3.715h1.238V145.14h1.238v-2.477h1.238v-3.714h1.238v-2.476H954.5v2.476h-1.238v3.714h-1.238v2.477h-1.238v3.714h-1.238v3.715h-1.238v2.476h-1.238v3.715h-1.238v2.476Zm-4.952-21.049h-1.238v1.238h1.238Zm2.476,6.191h-1.238v1.238h1.238Zm1.238,3.715h-1.238v1.238h1.238ZM944.6,160v-2.476h1.238v-1.238h-3.715v1.238h1.238V160Zm3.714-8.667v-1.238h-1.238v1.238Zm1.238-3.714v-1.238h-1.238v1.238Zm2.477-6.191v-1.238h-1.238v1.238Z" transform="translate(-186.916)" fill="#258059"/><path d="M984.532,161.236V136.473H999.39v3.714H988.247v6.191H999.39v3.715H988.247v7.429H999.39v3.715ZM998.151,160v-1.238H987.008v-9.905h11.143v-1.238H987.008v-8.667h11.143v-1.238H985.77V160Z" transform="translate(-212.457)" fill="#258059"/><path d="M1023.228,161.236V136.473h6.19v2.476h1.238v2.476h1.238V143.9h1.238v2.476h1.238v2.476h1.238v2.476h1.238v2.477h1.238v2.476h1.238v-19.81h3.715v24.763h-6.191v-2.476h-1.238v-2.476h-1.238v-2.476h-1.238V151.33h-1.238v-2.476h-1.238v-2.476h-1.238V143.9h-1.238v-2.476h-1.238v19.81ZM1025.7,160v-19.81h2.476v-2.476h-3.715V160Zm12.381,0h3.715V137.711h-1.238v19.81h-2.476Z" transform="translate(-231.808)" fill="#258059"/><path d="M1076.083,161.236V140.187h-8.667v-3.714h21.048v3.714H1079.8v21.049Zm2.476-1.238V138.949h8.667v-1.238h-18.572v1.238h8.667V160Z" transform="translate(-253.904)" fill="#258059"/></g></svg>