<svg xmlns="http://www.w3.org/2000/svg" width="172.451" height="12.917" viewBox="0 0 172.451 12.917"><g transform="translate(-356.108 -590.974)"><path d="M364.486,601.742a8.9,8.9,0,0,0,1.454-.732,10.506,10.506,0,0,0,1.333-1c.149-.122.224-.217.224-.285s-.061-.156-.183-.265q-.57-.468-.875-.7t-.59-.417q-.366-.224-.326-.5t.448-.5a1.364,1.364,0,0,1,.621-.153,1.164,1.164,0,0,1,.661.356q.244.224.488.427l.488.407a.352.352,0,0,0,.244.112q.1-.01.2-.173a4.511,4.511,0,0,0,.336-.7q.152-.4.254-.7a.821.821,0,0,1,.356-.5.564.564,0,0,1,.539-.03,1.126,1.126,0,0,1,.651.6.578.578,0,0,1-.04.6,5.648,5.648,0,0,0-.356.529q-.255.407-.6,1-.184.326.1.488a14.387,14.387,0,0,0,2.594,1.261,14.954,14.954,0,0,0,2.593.671c.136.028.214.065.234.112s0,.126-.071.234a3.709,3.709,0,0,1-1.241,1.424,2.17,2.17,0,0,1-1.363.387,1.984,1.984,0,0,1-.865-.335,8.052,8.052,0,0,1-1.088-.885q-.631-.59-1-.926t-.712-.641q-.244-.224-.529.122-.407.469-.763.8a6.781,6.781,0,0,1-.712.59,5.868,5.868,0,0,1-.753.458q-.4.2-.885.407a1.651,1.651,0,0,1-1.23.112,1.951,1.951,0,0,1-.885-.905.26.26,0,0,1-.02-.295.4.4,0,0,1,.305-.193c.027,0,.033-.013.02-.04s-.054-.047-.122-.061a3.073,3.073,0,0,1-.468-.132q-.183-.071-.386-.173-.285-.163-.773.183-.346.224-.62.437a4.433,4.433,0,0,0-.376.315,2.82,2.82,0,0,1-1.007.854,2.535,2.535,0,0,1-1.088.183.987.987,0,0,1-.834-.651,1.372,1.372,0,0,1-.092-.6,2.024,2.024,0,0,1,.153-.722,6.067,6.067,0,0,0,.254-1.231,19.937,19.937,0,0,0,.092-2.207c0-.163-.007-.342-.021-.539s-.037-.4-.071-.6-.068-.4-.1-.58a4.583,4.583,0,0,0-.112-.478c-.027-.081-.058-.129-.092-.142a.377.377,0,0,0-.214.04.93.93,0,0,1-.976-.1,1.646,1.646,0,0,1-.569-1.037q-.1-.489.427-.59a5.8,5.8,0,0,0,1.159-.305,5.892,5.892,0,0,0,1.139-.61,5.628,5.628,0,0,0,.956-.763,3.436,3.436,0,0,0,.61-.864.666.666,0,0,1,.478-.366,1,1,0,0,1,.682.142.583.583,0,0,1,.194.234.978.978,0,0,1,.112.335.487.487,0,0,0,.071.214.428.428,0,0,0,.112.112q.386.3.62.457l.3.194a3.441,3.441,0,0,1,.336.152q.132.072.234.132c.244.15.383.295.417.437a.381.381,0,0,1-.112.376q-.244.244-.854-.061-.529-.285-.905-.5t-.925-.5a.3.3,0,0,0-.346.061q-.63.692-1.058,1.149t-.671.722q-.163.164,0,.285a.835.835,0,0,0,.387.183q.712-.04,1.19-.051t1.129.01a1.436,1.436,0,0,0,.712-.244.519.519,0,0,1,.356-.051,1.453,1.453,0,0,1,.519.193.721.721,0,0,1,.356.427,1.085,1.085,0,0,1,.03.569,6.6,6.6,0,0,0-.153,1.068,9.832,9.832,0,0,0-.01,1.353,1.05,1.05,0,0,1-.051.478.563.563,0,0,1-.295.255.9.9,0,0,1-.437.061,1.388,1.388,0,0,1-.356-.061,1.289,1.289,0,0,0-.417-.112,4.5,4.5,0,0,0-.539-.031q-.407,0-.844.01t-.784.051a.265.265,0,0,0-.264.3v1.078q0,.346-.02.671a.478.478,0,0,0,.112.376.613.613,0,0,0,.457.031,2.228,2.228,0,0,0,.529-.153,4.638,4.638,0,0,0,.448-.214q.407-.264.02-.448a1.085,1.085,0,0,1-.58-.448.6.6,0,0,1,.051-.509.735.735,0,0,1,.366-.417.946.946,0,0,1,.651.153,6.137,6.137,0,0,1,.61.376q.407.274.814.569t.732.57a1.526,1.526,0,0,1,.366.376.379.379,0,0,0,.112.153A.276.276,0,0,0,364.486,601.742Zm-2.278-3.58a1.068,1.068,0,0,0,0-.427c-.027-.068-.068-.1-.122-.1q-.732-.021-1.2-.01t-1.058.051a.133.133,0,0,0-.132.061.629.629,0,0,0-.031.244,1.2,1.2,0,0,0,.01.376.126.126,0,0,0,.132.092q.549.02.977,0t1.1-.081C362.071,598.352,362.18,598.283,362.207,598.161Zm.04-1.77q0-.407-.529-.407c-.244,0-.509,0-.793.01s-.638.024-1.058.051q-.162,0-.162.407,0,.448.162.448c.19,0,.366,0,.529-.01s.329-.01.5-.01.349,0,.539-.01.413-.01.671-.01Q362.247,596.86,362.248,596.392Zm.041-1.953c.19.1.264.187.223.275s-.21.132-.509.132q-.366,0-.671-.031a4.956,4.956,0,0,1-.712-.132.369.369,0,0,1-.335-.335.507.507,0,0,1,.254-.478.772.772,0,0,1,1.119.02A2.017,2.017,0,0,0,362.289,594.438Zm11.656-.773a.5.5,0,0,1-.285.356,2.008,2.008,0,0,1-.915.112q-1.852-.041-3.5-.02t-2.767.081q-.651.041-1.017.1a2.735,2.735,0,0,0-.712.224.636.636,0,0,1-.458.061.431.431,0,0,1-.275-.234.6.6,0,0,1-.01-.427,1.167,1.167,0,0,1,.356-.519,1.494,1.494,0,0,1,.59-.4,1.164,1.164,0,0,1,.569.051,1.635,1.635,0,0,0,.417.061,8.359,8.359,0,0,0,.966-.02q.325-.02.326-.325v-.255a2.081,2.081,0,0,1,.04-.356,1.335,1.335,0,0,1,.387-.793.856.856,0,0,1,.773-.2,1.409,1.409,0,0,1,.763.346,1.576,1.576,0,0,1,.336.814,1.471,1.471,0,0,1,.03.163,1.885,1.885,0,0,1,.01.223.291.291,0,0,0,.081.244.444.444,0,0,0,.264.061q.834,0,1.424.01t1.007.031q.417.02.7.051c.19.02.359.044.509.071Q374.005,593.259,373.945,593.666Zm-6.449.956a.76.76,0,0,1,.366.621.882.882,0,0,1-.468.681,14.383,14.383,0,0,1-1.6.936,5.23,5.23,0,0,1-1.271.468.539.539,0,0,1-.335-.02.36.36,0,0,1-.183-.162.261.261,0,0,1,.01-.234.56.56,0,0,1,.224-.234,8.269,8.269,0,0,0,1.159-.834,7.452,7.452,0,0,0,1.038-1.038.825.825,0,0,1,.519-.295A.7.7,0,0,1,367.5,594.622Zm5.981,2.238a.555.555,0,0,1-.264.142,1.353,1.353,0,0,1-.529-.031,7.772,7.772,0,0,1-.987-.285q-.621-.214-1.617-.621a.785.785,0,0,1-.549-.875.679.679,0,0,1,.173-.427.888.888,0,0,1,.356-.234.826.826,0,0,1,.428-.03.8.8,0,0,1,.386.183,8.42,8.42,0,0,0,.916.671q.59.387,1.3.793a.827.827,0,0,1,.4.376A.308.308,0,0,1,373.476,596.86Z" transform="translate(0 -0.088)" fill="#a42a0f"/><path d="M416.483,597.281a2.751,2.751,0,0,1-.63.814,4.232,4.232,0,0,1-.875.61,1.352,1.352,0,0,1-.732.122,3.3,3.3,0,0,1-.915-.265,10.546,10.546,0,0,0-1.729-.478q-1.058-.214-2.156-.356-.387-.041-.458.03t-.031.417q.041.387.061.895t.02,1.16a5.943,5.943,0,0,1-.264,1.993,3.173,3.173,0,0,1-.875,1.261,2.9,2.9,0,0,1-1.5.661,5.956,5.956,0,0,1-1.9,0,6.671,6.671,0,0,1-1.882-.59,4.089,4.089,0,0,1-1.454-1.129q-.265-.345-.112-.5c.1-.1.288-.078.56.071a5.679,5.679,0,0,0,1.241.468,5.177,5.177,0,0,0,1.261.163,4,4,0,0,0,1.129-.153,2.21,2.21,0,0,0,.844-.437,2.5,2.5,0,0,0,.539-.753,4.678,4.678,0,0,0,.335-.986,6.012,6.012,0,0,0,.142-1.129,8.6,8.6,0,0,0-.04-1.18q-.041-.386-.142-.458a1.011,1.011,0,0,0-.509-.051q-.875.041-1.9.1t-2.075.183q-1.047.122-2.055.326a12.66,12.66,0,0,0-1.841.509,1.257,1.257,0,0,1-.753.081.686.686,0,0,1-.468-.509.858.858,0,0,1,.01-.6,2.07,2.07,0,0,1,.519-.621,2.132,2.132,0,0,1,.763-.5.858.858,0,0,1,.641.071.729.729,0,0,0,.305.051c.162.007.363.01.6.01h.794q.437,0,.865-.021,1.281-.04,2.4-.071t2.034-.051q.285,0,.356-.122a.618.618,0,0,0-.03-.448,2.553,2.553,0,0,0-.112-.274.886.886,0,0,0-.173-.255q-.794-1.017.407-.9a.506.506,0,0,0,.173.01.261.261,0,0,1,.153.031,1.219,1.219,0,0,0,.5.091,2.042,2.042,0,0,0,.458-.071,2.6,2.6,0,0,0,.5-.193,1.884,1.884,0,0,0,.356-.234.418.418,0,0,0,.163-.417q-.061-.193-.57-.274a4.283,4.283,0,0,0-.509-.021q-.366,0-.814.01t-.915.041a6.775,6.775,0,0,0-.793.091q-.468.082-.946.193t-.905.255q-.427.143-.783.285a4.643,4.643,0,0,0-.6.285,1.1,1.1,0,0,1-.722.173.517.517,0,0,1-.437-.417,1.12,1.12,0,0,1,.214-.874,3.1,3.1,0,0,1,1.048-.956,2.709,2.709,0,0,1,1.017-.417,1.832,1.832,0,0,1,.916.091l.366.112a2.607,2.607,0,0,0,.346.081q.183.03.407.051c.149.014.332.02.549.02q.264,0,.752-.02t1.007-.051q.519-.031.977-.081t.661-.092a5.035,5.035,0,0,1,.885-.142,2.017,2.017,0,0,1,.661.061,1.613,1.613,0,0,1,.519.254,2.644,2.644,0,0,1,.478.478,2.492,2.492,0,0,1,.63,1.007.55.55,0,0,1-.264.58,1.066,1.066,0,0,1-.315.183,1.785,1.785,0,0,1-.356.061,6.188,6.188,0,0,0-1.353.264,11.263,11.263,0,0,0-1.373.509.894.894,0,0,0-.387.285.4.4,0,0,0,0,.305.6.6,0,0,0,.2.305.576.576,0,0,0,.326.081q1.3-.021,2.5-.02t2.482.041q.285,0,.63.02c.231.014.454.024.671.031s.42.017.61.031.339.02.447.02Q416.87,596.529,416.483,597.281Z" transform="translate(-21.093 -0.53)" fill="#a42a0f"/><path d="M447.813,593.032a5.36,5.36,0,0,0-.122.854q-.021.387,0,.9a1.727,1.727,0,0,1-.132.865.877.877,0,0,1-.519.4,1.825,1.825,0,0,1-1.22-.122,3.04,3.04,0,0,0-.855-.112q-.671-.031-1.546.01-.162,0-.162.224-.02.916-.112,1.841t-.244,1.739q-.153.814-.335,1.454a4.428,4.428,0,0,1-.387.987,3.675,3.675,0,0,1-.743.9,2.6,2.6,0,0,1-.793.478,1.619,1.619,0,0,1-.773.092,1.6,1.6,0,0,1-.7-.275,1.325,1.325,0,0,1-.569-.752.509.509,0,0,1,.03-.336.412.412,0,0,1,.275-.214,2.616,2.616,0,0,0,.926-.57,5.155,5.155,0,0,0,.966-1.281,6.18,6.18,0,0,0,.539-1.393,9.542,9.542,0,0,0,.285-1.648,9.23,9.23,0,0,0,0-1.617,3.993,3.993,0,0,0-.315-1.3q-.835-1.749.509-2.218a.92.92,0,0,1,.976.081.362.362,0,0,0,.163.1.825.825,0,0,0,.264,0q.3-.021.631-.051c.216-.02.424-.034.62-.041s.37-.007.519,0a3.077,3.077,0,0,1,.346.031,3.908,3.908,0,0,0,.56.03.684.684,0,0,0,.295-.091,1.109,1.109,0,0,1,.549-.173.783.783,0,0,1,.489.132,1.782,1.782,0,0,1,.539.519A.872.872,0,0,1,447.813,593.032Zm-4.72,6.9a1.743,1.743,0,0,1,.478-.346.6.6,0,0,1,.4-.081,3.3,3.3,0,0,0,.417.051,2.781,2.781,0,0,0,.5-.03q.366-.041,1.79-.061c.108,0,.163-.034.163-.1a2.834,2.834,0,0,0,0-.488c0-.109-.048-.163-.142-.163q-.224-.021-.458-.021h-.5a4.273,4.273,0,0,0-.58.031,1.121,1.121,0,0,0-.336.091.827.827,0,0,1-.366.1.449.449,0,0,1-.264-.071.321.321,0,0,1-.132-.173.262.262,0,0,1,.051-.224.975.975,0,0,1,.539-.437,1.068,1.068,0,0,1,.6-.01,2.77,2.77,0,0,0,.651.041,1.13,1.13,0,0,1,.224-.021h.285c.054,0,.081-.01.081-.03s-.027-.037-.081-.051q-.652-.2-.905-.315a.972.972,0,0,1-.356-.234.8.8,0,0,1-.1-.6.594.594,0,0,1,.326-.478,1.122,1.122,0,0,1,.651-.01.591.591,0,0,1,.427.417,3.764,3.764,0,0,0,.732,1.18.247.247,0,0,0,.153.051q.112.01.56.01a3.087,3.087,0,0,0,.468-.021.209.209,0,0,0,.142-.081,3.94,3.94,0,0,0,.428-.63,2.221,2.221,0,0,0,.183-.529.568.568,0,0,1,.387-.478.968.968,0,0,1,.712.112q.569.285.447.631t-.834.691c-.109.055-.2.1-.275.132s-.166.078-.275.133c-.028.014-.038.03-.031.051s.044.03.112.03q.467.021.946.051t.945.092q.325.061.265.285-.061.285-.59.285h-.376q-.274,0-.641.01c-.244.007-.5.01-.753.01h-.691a.167.167,0,0,0-.153.081.755.755,0,0,0-.071.305.585.585,0,0,0,.01.265.133.133,0,0,0,.132.061q.427.021.966.03t1.088.01q.549,0,1.088-.01t.986-.03q.549-.041.326.264a3.869,3.869,0,0,1-.326.427,1.536,1.536,0,0,1-.325.285,1.693,1.693,0,0,1-1.4.142c-.149-.041-.292-.078-.427-.112s-.3-.064-.478-.092-.4-.051-.641-.071-.549-.044-.915-.071c-.1,0-.15.027-.163.081a3.742,3.742,0,0,1-.763,1.495,3.468,3.468,0,0,1-1.271.885,4.758,4.758,0,0,1-1.577.376,2.635,2.635,0,0,1-1.393-.335c-.136-.068-.186-.156-.153-.265a.279.279,0,0,1,.275-.183,5.49,5.49,0,0,0,1.912-.488,3.345,3.345,0,0,0,1.18-.875,1.126,1.126,0,0,0,.142-.234q.061-.132.163-.376c.014-.081-.027-.122-.122-.122q-.854.041-1.587.142a4.755,4.755,0,0,0-1.078.244,1.659,1.659,0,0,1-.356.071,1.567,1.567,0,0,1-.376-.031c-.081-.027-.132-.122-.153-.285A.477.477,0,0,1,443.094,599.928Zm3.113-6.713a.329.329,0,0,0-.112-.285,1.25,1.25,0,0,0-.519-.122,6.957,6.957,0,0,0-.925-.031q-.6.01-1.251.071a.168.168,0,0,0-.153.081.661.661,0,0,0-.031.346.333.333,0,0,0,.081.214.36.36,0,0,0,.224.051q.59-.02,1.251-.021t1.231.021C446.138,593.54,446.206,593.432,446.206,593.215Zm-.021,1.363c.027-.135.021-.224-.02-.264a.351.351,0,0,0-.244-.061q-.529,0-1.19.01t-1.251.031a.187.187,0,0,0-.153.061.675.675,0,0,0-.051.346.625.625,0,0,0,.051.305c.034.055.1.075.214.061q.549-.04,1.058-.04t.814.02Q446.125,595.087,446.186,594.578Zm6.326,8.524q-.162.285-.671.142a10.939,10.939,0,0,1-1.637-.6,9.305,9.305,0,0,1-1.353-.8q-.733-.508-.326-.977a.8.8,0,0,1,.6-.285.542.542,0,0,1,.458.163,2.492,2.492,0,0,0,.407.4q.285.235.651.5t.783.519q.417.255.783.437a.807.807,0,0,1,.356.244A.274.274,0,0,1,452.512,603.1Zm2.747-.753a6.462,6.462,0,0,1,0,.732,1.153,1.153,0,0,1-.112.458.668.668,0,0,1-.274.274,2.174,2.174,0,0,1-.488.183,2.59,2.59,0,0,1-.641.133.5.5,0,0,1-.387-.122.8.8,0,0,1-.183-.437,5.142,5.142,0,0,1-.051-.814q.04-1.526.061-3.316t.041-3.438c0-.163-.075-.244-.224-.244a8.4,8.4,0,0,0-2.5.1,1.962,1.962,0,0,1-.753.173,1.4,1.4,0,0,1-.61-.092.791.791,0,0,1-.458-.4,1.665,1.665,0,0,1-.051-.8,6.231,6.231,0,0,0,.04-.966,2.926,2.926,0,0,0-.163-.823.881.881,0,0,1-.03-.539.946.946,0,0,1,.458-.437,1.418,1.418,0,0,1,.641-.194,1.5,1.5,0,0,1,.682.092,2.856,2.856,0,0,0,1.017.244h1.506a1.976,1.976,0,0,0,.773-.163,1.219,1.219,0,0,1,.8-.092,1.414,1.414,0,0,1,.784.56,1.348,1.348,0,0,1,.295.7,1.956,1.956,0,0,1-.173.865,3.325,3.325,0,0,0-.092.376,5.716,5.716,0,0,0-.081.57c-.02.211-.037.427-.051.651s-.021.437-.021.641q.021,1.037.081,2.512T455.259,602.349Zm-2.034-9.073a.3.3,0,0,0-.153-.285.83.83,0,0,0-.417-.142c-.162-.014-.437-.021-.823-.021s-.743.007-1.068.021a1.052,1.052,0,0,0-.427.092.3.3,0,0,0-.142.234q-.041.285.031.355a.339.339,0,0,0,.274.051q.651-.04,1.22-.051t1.261.01C453.129,593.54,453.21,593.453,453.225,593.276Zm.02,1.3a.486.486,0,0,0-.061-.3.318.318,0,0,0-.244-.071q-.611.021-1.241.031t-1.2.03c-.136,0-.221.02-.254.061a.259.259,0,0,0-.031.2.509.509,0,0,0,.153.315.88.88,0,0,0,.5.092h2.055a.35.35,0,0,0,.264-.071A.483.483,0,0,0,453.245,594.578Z" transform="translate(-42.262 -0.41)" fill="#a42a0f"/><path d="M498.769,601.206a4.423,4.423,0,0,1-.814.9,8.029,8.029,0,0,1-1.343.885,2.923,2.923,0,0,1-.661.275,2.515,2.515,0,0,1-.814.061,6.649,6.649,0,0,1-1.139-.194q-.66-.162-1.617-.468-1.1-.346-2.034-.6t-1.892-.448q-.956-.193-2.034-.346t-2.461-.315a3.693,3.693,0,0,0-1.119.051,5.4,5.4,0,0,0-1.159.376,7.143,7.143,0,0,1-.773.295,1.166,1.166,0,0,1-.5.061.508.508,0,0,1-.325-.193,1.489,1.489,0,0,1-.234-.468.9.9,0,0,1,.437-1.068,3.333,3.333,0,0,1,2.146-.335.855.855,0,0,0,.264,0,.8.8,0,0,0,.285-.1,3.76,3.76,0,0,0,.326-.193,1.515,1.515,0,0,0,.2-.173.406.406,0,0,0,.092-.529,1.183,1.183,0,0,0-.763-.489.5.5,0,0,1-.427-.488.843.843,0,0,1,.427-.712q.427-.325.458-.58a.241.241,0,0,0-.234-.295,2.61,2.61,0,0,0-1.729.428,1.092,1.092,0,0,1-.671.193.608.608,0,0,1-.468-.275.523.523,0,0,1-.092-.417,2.607,2.607,0,0,1,.417-.681,1.462,1.462,0,0,1,.824-.58.912.912,0,0,1,.8.091.316.316,0,0,0,.142.051q.081.01.366.03.407.021.7.031a3.816,3.816,0,0,1,.417.03,1.4,1.4,0,0,0,.336.031.354.354,0,0,0,.173-.071.58.58,0,0,1,.488-.081.731.731,0,0,1,.468.285.649.649,0,0,1,.142.407,1.053,1.053,0,0,1-.162.508,3.422,3.422,0,0,1-.773.915q-.285.224-.254.387c.021.109.186.285.5.529a1.16,1.16,0,0,1,.315.387.89.89,0,0,1-.02.865.84.84,0,0,1-.335.315q-.306.163-.326.285c-.014.081.034.129.142.142q.529.061,1.21.132t1.414.153l1.465.163q.732.081,1.363.162.184.021.183-.2c.013-.176.02-.335.02-.478s.006-.288.02-.437c0-.109-.047-.163-.142-.163h-.854q-.875.041-1.638.1a6.945,6.945,0,0,0-1.068.142,1.511,1.511,0,0,1-.763.041.429.429,0,0,1-.335-.387.5.5,0,0,1,.132-.417,1.263,1.263,0,0,1,.559-.356,2.113,2.113,0,0,1,.7-.153,3.829,3.829,0,0,1,.844.092,5.507,5.507,0,0,0,.722.1,5.331,5.331,0,0,0,.661,0c.2-.013.37-.021.5-.021h.457a.32.32,0,0,0,.2-.051q.061-.051.061-.275.02-.407-.112-.519a.8.8,0,0,0-.5-.112c-.109,0-.224,0-.346.01s-.278.017-.468.031a2.984,2.984,0,0,0-.417.051.4.4,0,0,0-.194.092.73.73,0,0,1-.325.193,1.506,1.506,0,0,1-.407.051q-1.037,0-.976-1.058a7.179,7.179,0,0,0-.02-1.2,7.084,7.084,0,0,0-.183-1.078q-.121-.467.529-.651a1.336,1.336,0,0,1,1.058.061,1.015,1.015,0,0,0,.295.122,1.812,1.812,0,0,0,.315.02h.559c.2,0,.431-.006.7-.02.2-.013.329-.051.376-.112a1.02,1.02,0,0,0,.071-.5q0-.224-.2-.224-1.281.041-2.085.091a6.134,6.134,0,0,0-1.007.112,2.647,2.647,0,0,1-.8.183q-.173-.02-.214-.244a.453.453,0,0,1,.051-.346,3.482,3.482,0,0,1,.458-.488,1.653,1.653,0,0,1,1.628-.2,5.113,5.113,0,0,0,1.892.061.279.279,0,0,0,.214-.1.816.816,0,0,0,.051-.366,1.088,1.088,0,0,1,.162-.712.849.849,0,0,1,.712-.244,1.113,1.113,0,0,1,.865.285,1.186,1.186,0,0,1,.234.854c0,.15.061.224.183.224h1.1q.468,0,.834.01t.661.031l.58.04a2.3,2.3,0,0,1,.671.112.266.266,0,0,1,.162.173.4.4,0,0,1-.2.366,1.18,1.18,0,0,1-.691.163h-3.153a.166.166,0,0,0-.183.162,1.172,1.172,0,0,0,.021.529c.041.081.156.122.346.122a8.114,8.114,0,0,0,1.485-.122,4.005,4.005,0,0,1,.773-.091,1.778,1.778,0,0,1,.509.112q.814.325.631,1.017c-.041.163-.075.3-.1.417s-.051.231-.071.346a2.977,2.977,0,0,0-.04.387c-.007.142-.01.315-.01.518a1.13,1.13,0,0,1-.387.834,1.342,1.342,0,0,1-.977.305q-.468-.021-.865-.071a4.745,4.745,0,0,1-.742-.153.737.737,0,0,0-.529-.01q-.163.091-.163.56a.48.48,0,0,0,.031.214c.02.034.064.051.132.051h1.708q.651,0,1.048.01t.651.03q.254.021.539.061a2.194,2.194,0,0,1,.641.142.3.3,0,0,1,.173.183.35.35,0,0,1-.163.346,1.357,1.357,0,0,1-.692.122H492.1c-.1,0-.142.034-.142.1q.04.387.051.712c.007.217.017.4.031.549,0,.081.054.122.162.122q.448.042.987.061l1.047.041q.508.021.936.03c.285.007.509.01.671.01q.651,0,1.393-.051t1.333-.132Q499.156,600.636,498.769,601.206Zm-13.548-8.32a.488.488,0,0,1,.3.193.313.313,0,0,1,.041.264.432.432,0,0,1-.224.234,1.2,1.2,0,0,1-.509.122,9.751,9.751,0,0,1-1.862-.051,3.782,3.782,0,0,1-1.434-.458.705.705,0,0,1-.315-.315.715.715,0,0,1-.071-.387.834.834,0,0,1,.142-.376.918.918,0,0,1,.366-.3,1.442,1.442,0,0,1,.651-.194,1.18,1.18,0,0,1,.59.255,5.182,5.182,0,0,0,1.038.6A9.817,9.817,0,0,0,485.221,592.886Zm4.984,2.3a.374.374,0,0,0-.194-.376,2.032,2.032,0,0,0-.824-.051,1.593,1.593,0,0,0-.722.122.438.438,0,0,0-.132.366c0,.068.047.119.142.153a2.845,2.845,0,0,0,.753.031q.345,0,.539-.021a1.711,1.711,0,0,0,.294-.051c.068-.021.109-.044.122-.071A.233.233,0,0,0,490.205,595.185Zm0,1.363a.433.433,0,0,0-.153-.387,1.507,1.507,0,0,0-.7-.1,1.79,1.79,0,0,0-.783.112.439.439,0,0,0-.194.417.125.125,0,0,0,.021.071c.014.02.054.034.122.041l.3.03q.2.021.549.021a2.473,2.473,0,0,0,.7-.031A.178.178,0,0,0,490.205,596.548Zm3.58-.1a.4.4,0,0,0-.091-.305.478.478,0,0,0-.315-.081c-.081,0-.234,0-.458-.01s-.39-.01-.5-.01a.586.586,0,0,0-.427.112.483.483,0,0,0-.1.335.212.212,0,0,0,.03.112.2.2,0,0,0,.142.071,2.7,2.7,0,0,0,.336.031q.223.01.61.01a2.377,2.377,0,0,0,.62-.051A.205.205,0,0,0,493.785,596.446Zm.163-1.424a.3.3,0,0,0-.092-.254.816.816,0,0,0-.4-.092c-.081,0-.217,0-.407-.01s-.353-.01-.488-.01a.987.987,0,0,0-.539.092c-.075.061-.112.207-.112.437a.173.173,0,0,0,.112.183,1.96,1.96,0,0,0,.519.04h.752a1.428,1.428,0,0,0,.539-.061C493.91,595.307,493.948,595.2,493.948,595.022Z" transform="translate(-63.383)" fill="#a42a0f"/><path d="M527.448,595.585c-.068.109-.129.2-.183.285s-.112.163-.173.244-.136.177-.224.285-.2.244-.335.407a2.81,2.81,0,0,0-.224.285.751.751,0,0,0-.1.346q-.02.407-.03.956t-.01,1.119q0,.57.01,1.129t.01,1.006q0,.713-.01,1.119a1.861,1.861,0,0,1-.1.631.6.6,0,0,1-.305.325,2.747,2.747,0,0,1-.62.183.627.627,0,0,1-.793-.326,3.7,3.7,0,0,1-.122-1.607q.061-.916.091-1.617t.031-1.353c0-.149-.024-.234-.071-.255s-.126,0-.234.071a7.55,7.55,0,0,1-1.007.458,3.009,3.009,0,0,1-.824.193,1.348,1.348,0,0,1-.529-.122,2.331,2.331,0,0,1-.539-.325,2.773,2.773,0,0,1-.447-.448,1.7,1.7,0,0,1-.275-.468q-.061-.162-.02-.224c.027-.04.108-.075.244-.1a7.452,7.452,0,0,0,1.333-.386q.824-.306,1.719-.732t1.719-.905a8.486,8.486,0,0,0,1.312-.905.876.876,0,0,1,.448-.224.357.357,0,0,1,.315.1.512.512,0,0,1,.112.356A.959.959,0,0,1,527.448,595.585Zm-.162-2.868a2.353,2.353,0,0,1-.7.945,8.877,8.877,0,0,1-1.17.875,8.489,8.489,0,0,1-1.21.641,1.756,1.756,0,0,1-.824.2,1.164,1.164,0,0,1-.732-.346,2.074,2.074,0,0,1-.427-.814c-.055-.135-.061-.234-.02-.295a.58.58,0,0,1,.346-.153,6.4,6.4,0,0,0,.651-.183q.366-.122.864-.305t1.179-.468q.682-.285,1.6-.691.284-.122.427.03T527.286,592.717Zm12.51,3.357a2.621,2.621,0,0,1-1.169,1.159,1.991,1.991,0,0,1-1.374.081q-.427-.122-.9-.214l-.905-.173q-.244-.02-.244.2,0,.692-.01,1.241t0,1.068q.01.519.02,1.078t.031,1.271a1.916,1.916,0,0,1-.631,1.617,3.161,3.161,0,0,1-2.014.621,1.949,1.949,0,0,1-.875-.173,3.888,3.888,0,0,1-.834-.488,4.487,4.487,0,0,1-.692-.651,2.767,2.767,0,0,1-.448-.682c-.068-.149-.078-.257-.031-.325s.166-.047.356.061a2.912,2.912,0,0,0,.671.254,4.61,4.61,0,0,0,.722.122,2.469,2.469,0,0,0,.641-.02,1.258,1.258,0,0,0,.447-.153,1.1,1.1,0,0,0,.407-.57,5.05,5.05,0,0,0,.163-1.22q.04-.835.061-1.678t-.02-1.658q0-.183-.2-.183a7.955,7.955,0,0,0-1.729.061q-.712.1-1.292.214a7.074,7.074,0,0,0-1.21.356,1.219,1.219,0,0,1-.549.1.662.662,0,0,1-.386-.142.462.462,0,0,1-.163-.315.652.652,0,0,1,.122-.417,5.408,5.408,0,0,1,.448-.682,2.169,2.169,0,0,1,.366-.376.683.683,0,0,1,.315-.142.654.654,0,0,1,.315.041,2.16,2.16,0,0,0,.427.071c.2.021.338.031.407.031h2.085q.723,0,1.516.01t1.495.01h1.963q.671,0,1.322.02l1.22.041c.162,0,.261.038.3.112S539.918,595.87,539.8,596.073Zm-3.01-2.827a.722.722,0,0,1-.326.488,1.888,1.888,0,0,1-1.038.2h-.895q-.489,0-.966-.01t-.905-.01h-.691c-.136,0-.295.007-.478.02s-.366.034-.549.061l-.529.081a2.833,2.833,0,0,0-.437.1.722.722,0,0,1-.844-.2.638.638,0,0,1-.143-.386.659.659,0,0,1,.173-.448,1.054,1.054,0,0,1,.244-.2,3.353,3.353,0,0,1,.417-.234,4.41,4.41,0,0,1,.437-.183.644.644,0,0,1,.305-.051c.068.014.2.044.407.092a1.509,1.509,0,0,0,.489.051,5.88,5.88,0,0,1,.6-.02q.437,0,1.068.02t1.414.061q.783.041,1.638.1a1.239,1.239,0,0,1,.519.132C536.782,592.971,536.812,593.083,536.786,593.246Z" transform="translate(-84.184 -0.563)" fill="#a42a0f"/><path d="M582.747,593.275a1.886,1.886,0,0,1-.437.753,2.068,2.068,0,0,1-.671.468,2.268,2.268,0,0,1-.8.183,2.3,2.3,0,0,1-.813-.1q-.549-.162-1-.275t-.865-.2q-.417-.091-.844-.153t-.935-.122a6.57,6.57,0,0,0-.743-.051c-.305-.007-.608-.023-.905-.051a.509.509,0,0,0-.346.051.522.522,0,0,0-.1.335q-.041.326.051.4a.76.76,0,0,0,.376.092q.468.041,1.007.061t1.007.061a1.686,1.686,0,0,0,.671-.1,1.661,1.661,0,0,1,.722-.122.832.832,0,0,1,.458.285.973.973,0,0,1,.244.4,1.728,1.728,0,0,1,0,.539c-.027.231-.051.424-.071.58s-.051.329-.092.519a.538.538,0,0,1-.122.285.77.77,0,0,1-.651.183q-.652-.081-1.556-.142t-1.8-.1a.4.4,0,0,0-.265.031.278.278,0,0,0-.061.214.4.4,0,0,0,.061.255.408.408,0,0,0,.265.091q.549.041,1.18.061c.42.014.793.034,1.118.061a1.592,1.592,0,0,0,.417-.01,2.655,2.655,0,0,0,.376-.112,1.414,1.414,0,0,1,.366-.071,1.557,1.557,0,0,1,.508.092.807.807,0,0,1,.437.264,1,1,0,0,1,.071.61q-.041.427.346.427.325.021.651.021h.671a.387.387,0,0,1,.315.112.264.264,0,0,1,.051.254.525.525,0,0,1-.234.295.9.9,0,0,1-.559.112h-.468q-.224,0-.448-.021-.265-.021-.335.051a.355.355,0,0,0-.072.254c0,.108,0,.21-.01.305s-.017.2-.031.3a1.27,1.27,0,0,1-.2.712q-.184.244-.753.163-.834-.122-1.708-.214t-1.627-.153c-.149-.013-.248.01-.3.071a.953.953,0,0,0-.071.478,2.385,2.385,0,0,1-.132.773,1.964,1.964,0,0,1-.437.712,2.369,2.369,0,0,1-.794.539,3.493,3.493,0,0,1-1.2.254,7.883,7.883,0,0,1-1.139,0,3.437,3.437,0,0,1-.905-.193,3.562,3.562,0,0,1-.824-.437,10.677,10.677,0,0,1-.9-.712c-.081-.068-.088-.163-.02-.285s.183-.156.346-.1a7.5,7.5,0,0,0,1.627.366,3.1,3.1,0,0,0,1.16-.081,1.406,1.406,0,0,0,.7-.427,1.217,1.217,0,0,0,.275-.651c.027-.19.017-.312-.03-.366s-.166-.081-.356-.081q-.59,0-1.15.03t-1.129.071q-.407.042-.732.081t-.936.183c-.366.081-.607.061-.722-.061a.38.38,0,0,1-.031-.468q.325-.691,1.526-.549a2.105,2.105,0,0,0,.468.031,5.3,5.3,0,0,0,.529-.051q1.017-.1,2.278-.122a.765.765,0,0,0,.326-.04c.04-.027.061-.1.061-.2a.2.2,0,0,0-.071-.173.684.684,0,0,0-.336-.051l-1.576.041q-.743.021-1.576.061t-1.434.112a4.168,4.168,0,0,0-.925.194.961.961,0,0,1-.407.071.639.639,0,0,1-.325-.092.351.351,0,0,1-.153-.234.474.474,0,0,1,.112-.356,1.915,1.915,0,0,1,.224-.285.651.651,0,0,1,.244-.153,1.043,1.043,0,0,1,.346-.051q.2,0,.509.02.284.02.509.041c.149.014.295.021.437.021h.457q.244,0,.59-.021.834-.041,1.567-.061t1.444-.061a.745.745,0,0,0,.346-.081.294.294,0,0,0,.081-.244.356.356,0,0,0-.061-.244.485.485,0,0,0-.305-.061h-1.027q-.5,0-.966.021a8.432,8.432,0,0,0-.915.081q-.407.061-.9.163-.57.121-.752-.041a.383.383,0,0,1-.061-.468.574.574,0,0,1,.305-.285.8.8,0,0,1,.509-.04,5.513,5.513,0,0,0,.631.051,4.342,4.342,0,0,0,.671-.03q.59-.041,1.18-.071t1.2-.071a.853.853,0,0,0,.427-.092.393.393,0,0,0,.081-.295.264.264,0,0,0-.081-.224.539.539,0,0,0-.305-.061q-.488-.021-.986-.01t-.966.03a.863.863,0,0,0-.315.081c-.129.055-.349.163-.661.326a.724.724,0,0,1-.325.092.9.9,0,0,1-.356-.051.677.677,0,0,1-.295-.2.755.755,0,0,1-.163-.366q-.082-.407-.153-.793a8.812,8.812,0,0,1-.112-.875.909.909,0,0,1,.488-.956.739.739,0,0,1,.5-.1.851.851,0,0,1,.437.2.781.781,0,0,0,.234.163,1.315,1.315,0,0,0,.294.021q1.2-.04,2.3,0a.613.613,0,0,0,.366-.071q.081-.071.061-.336a.588.588,0,0,0-.091-.335.519.519,0,0,0-.336-.071q-1.037,0-2.126.031t-2.227.112a15.048,15.048,0,0,0-1.739.183,7.055,7.055,0,0,0-1.272.346,1.061,1.061,0,0,1-.7.071.6.6,0,0,1-.417-.793.841.841,0,0,1,.346-.458,4.51,4.51,0,0,1,1.17-.651.974.974,0,0,1,.763.021,2.233,2.233,0,0,0,1.139.264q2.582-.081,5-.122c.2,0,.326-.031.366-.092a1,1,0,0,0,.041-.478.818.818,0,0,1,.265-.784,1.164,1.164,0,0,1,.854-.132,1.483,1.483,0,0,1,.966.4,1.108,1.108,0,0,1,.214.763.4.4,0,0,0,.061.265.355.355,0,0,0,.244.061q2.034-.02,4.018.02t3.774.1q.284.021.335.112A.528.528,0,0,1,582.747,593.275Zm-10.6,2.441c0-.19-.034-.305-.1-.346a.834.834,0,0,0-.386-.061h-.987q-.5,0-.986.021a.679.679,0,0,0-.376.091c-.048.048-.058.159-.031.336a.531.531,0,0,0,.122.325.7.7,0,0,0,.366.061q.489,0,.956.01c.312.007.617.01.916.01.231,0,.373-.03.427-.092A.558.558,0,0,0,572.149,595.716Zm5.187,3.011a.405.405,0,0,0-.092-.295.59.59,0,0,0-.4-.091q-.549-.021-1.18-.031t-1.159-.01a.4.4,0,0,0-.255.051.318.318,0,0,0-.051.214.394.394,0,0,0,.061.264.535.535,0,0,0,.326.061h1.2q.671,0,1.281.021a.374.374,0,0,0,.214-.041A.173.173,0,0,0,577.336,598.727Zm-.061,1.221q.041-.163-.031-.2a.493.493,0,0,0-.234-.041q-.631-.02-1.282-.02H574.59a.618.618,0,0,0-.326.051.244.244,0,0,0-.061.193.316.316,0,0,0,.061.224.439.439,0,0,0,.285.061q.448.021,1.038.031t1.119.051a.748.748,0,0,0,.407-.051A.4.4,0,0,0,577.275,599.948Zm.04-4.191q0-.407-.528-.407c-.313-.013-.665-.023-1.058-.03s-.76-.01-1.1-.01a.482.482,0,0,0-.3.061.64.64,0,0,0-.081.346q-.041.306.051.387a.473.473,0,0,0,.315.081h1.047q.58,0,1.048.021a.755.755,0,0,0,.478-.112A.414.414,0,0,0,577.315,595.757Z" transform="translate(-106.11 -0.105)" fill="#a42a0f"/><path d="M617.626,601.011a2.095,2.095,0,1,1-2.1-2.095A2.092,2.092,0,0,1,617.626,601.011Z" transform="translate(-131.861 -4.07)" fill="#a42a0f"/><path d="M651.822,593.626a4.151,4.151,0,0,1-.57.641,5.037,5.037,0,0,1-.631.478,2.321,2.321,0,0,1-1.2.376,4.49,4.49,0,0,1-1.464-.275,9.461,9.461,0,0,0-1.79-.387.263.263,0,0,0-.275.081,2.034,2.034,0,0,0-.274.468q-.183.407-.1.559c.054.1.244.166.569.194a3.234,3.234,0,0,0,.977-.081,2.924,2.924,0,0,1,.691-.1,3.163,3.163,0,0,1,.752.122,1.177,1.177,0,0,1,.59.3.979.979,0,0,1,.122.641q-.021.549-.01,1.271t.041,1.506q.03.783.081,1.526t.112,1.312a2.986,2.986,0,0,1,.051.6.691.691,0,0,1-.122.386.753.753,0,0,1-.356.244,4.212,4.212,0,0,1-.691.173q-.448.061-.712.071a.608.608,0,0,1-.4-.092.469.469,0,0,1-.163-.326,5.026,5.026,0,0,1-.03-.63q.02-.508.021-1.18t-.01-1.393q-.011-.723-.041-1.424t-.051-1.251a1.716,1.716,0,0,0-.071-.376.525.525,0,0,0-.183-.255.928.928,0,0,0-.376-.152,4.394,4.394,0,0,0-.651-.071q-.489-.021-1.322-.041t-1.851-.01q-1.017.01-2.116.031t-2.116.081q-.325,0-.285.285.062.488.081.864t0,.925a7.146,7.146,0,0,1-.6,2.777,3.847,3.847,0,0,1-1.821,1.8,1.915,1.915,0,0,1-1.241.244,1.446,1.446,0,0,1-.936-.549.63.63,0,0,1-.183-.4q.021-.132.305-.214a3.234,3.234,0,0,0,1.017-.509,3.554,3.554,0,0,0,.9-.956,3.18,3.18,0,0,0,.448-1.027,5.627,5.627,0,0,0,.183-1.251,5.5,5.5,0,0,0-.081-1.18,1.915,1.915,0,0,0-.326-.834.881.881,0,0,1-.254-.59.552.552,0,0,1,.315-.387,1.938,1.938,0,0,1,.926-.315,1.136,1.136,0,0,1,.824.254.6.6,0,0,0,.447.163c.15-.014.3-.021.448-.021a4.13,4.13,0,0,0,.428-.021q.3,0,.325-.325a2.646,2.646,0,0,0,0-.458c-.014-.169-.034-.329-.061-.478a.451.451,0,0,0-.061-.163c-.028-.041-.095-.061-.2-.061q-.916.041-1.536.081t-1.048.081q-.427.042-.7.081c-.183.028-.336.055-.458.081a2.689,2.689,0,0,1-1.617.041q-.417-.224.132-.732.407-.346.691-.549a2.637,2.637,0,0,1,.509-.294.939.939,0,0,1,.407-.081,1.394,1.394,0,0,1,.366.071,2.489,2.489,0,0,0,.539.132,2.969,2.969,0,0,0,.641.03q.692-.02,1.729-.03t2.218-.031c.216,0,.333-.095.346-.285.013-.135.024-.268.031-.4s.023-.288.051-.478a.668.668,0,0,1,.234-.458,1.5,1.5,0,0,1,.8-.173,1.437,1.437,0,0,1,1.068.366,1.511,1.511,0,0,1,.478,1,.594.594,0,0,0,.132.346.368.368,0,0,0,.255.081q2.237-.04,4.272,0,.956,0,1.78.01t1.333.031a.5.5,0,0,1,.376.142Q651.965,593.4,651.822,593.626Zm-10.029,3.967a3.5,3.5,0,0,1-1.179.743,8.689,8.689,0,0,1-1.75.519c-.19.04-.315-.01-.376-.153s-.01-.254.152-.336a6.672,6.672,0,0,0,.936-.559,4.169,4.169,0,0,0,.773-.743.568.568,0,0,1,.457-.224,2.617,2.617,0,0,1,.763.163q.345.122.376.254T641.793,597.593Zm3.825,2.2q0,.122-.01.366c-.007.163-.017.336-.03.519s-.024.355-.031.518a2.637,2.637,0,0,1-.03.346c-.028.244-.1.4-.224.457a1.787,1.787,0,0,1-.773.051q-.631-.041-1.526-.041t-1.81.041a.985.985,0,0,0-.224.02.435.435,0,0,0-.183.122q-.061.1-.366.122a1.732,1.732,0,0,1-.671-.04.561.561,0,0,1-.366-.407,3.906,3.906,0,0,1-.224-.9q-.081-.549-.1-.956a1.071,1.071,0,0,1,.041-.549.786.786,0,0,1,.387-.305,1.742,1.742,0,0,1,.539-.153.531.531,0,0,1,.417.092.413.413,0,0,0,.193.122,1.27,1.27,0,0,0,.255.02q.529-.04,1.1-.04h1.1a5.411,5.411,0,0,0,.6-.031,2.645,2.645,0,0,0,.417-.071,1.584,1.584,0,0,1,.356-.051,2.659,2.659,0,0,1,.56.051.722.722,0,0,1,.488.234A.777.777,0,0,1,645.618,599.79Zm-1.769,1.057a3.661,3.661,0,0,0,.01-.457,2.267,2.267,0,0,0-.03-.3q-.062-.346-.61-.346-.244,0-.905.01t-1.332.051a.4.4,0,0,0-.285.1.221.221,0,0,0-.04.183q.041.224.071.457t.072.458a.36.36,0,0,0,.122.234.341.341,0,0,0,.183.051h1.119q.589,0,1.038-.041C643.624,601.241,643.82,601.105,643.848,600.847Zm.04-6.327q0-.366-.346-.366a3.462,3.462,0,0,0-.519-.04h-1.251a5.984,5.984,0,0,0-.692.04c-.2,0-.305.089-.305.265a3.137,3.137,0,0,0,0,.5,3.214,3.214,0,0,0,.061.458.45.45,0,0,0,.143.254.416.416,0,0,0,.223.051q.652,0,1.261-.01t1.16.01c.176,0,.264-.108.264-.326Zm2.258,3.8q.244.122.112.315t-.722.092q-.326-.061-.58-.132a3.684,3.684,0,0,1-.488-.173,4.987,4.987,0,0,1-.468-.234q-.234-.132-.539-.316-.347-.224-.356-.458a.38.38,0,0,1,.173-.356,1.452,1.452,0,0,1,.692-.275.826.826,0,0,1,.509.315,2.143,2.143,0,0,0,.376.366c.156.122.316.241.478.356s.318.217.468.3S646.065,598.284,646.147,598.325Z" transform="translate(-142.023 -0.17)" fill="#a42a0f"/><path d="M682.923,599.119q-.062.3-.1.691t-.071.773c-.02.257-.034.509-.041.752s-.01.455-.01.63a1.785,1.785,0,0,1-.193.875.959.959,0,0,1-.438.447,1.249,1.249,0,0,1-.62.122,1.116,1.116,0,0,1-.539-.163.987.987,0,0,0-.407-.163q-.183-.02-.589-.041-.631-.02-1.139-.02t-1.22.02a.47.47,0,0,0-.244.051,2.056,2.056,0,0,0-.223.173.96.96,0,0,1-.478.264.894.894,0,0,1-.559-.061.793.793,0,0,1-.4-.407,2.434,2.434,0,0,1-.132-.813,10.013,10.013,0,0,0-.112-1.2q-.091-.59-.274-1.322a2.6,2.6,0,0,1-.1-1.109,1.087,1.087,0,0,1,.427-.661.992.992,0,0,1,.661-.244.9.9,0,0,1,.56.244.512.512,0,0,0,.193.133,1.481,1.481,0,0,0,.376.03q1.017-.02,1.7-.03t1.21.03a1.959,1.959,0,0,0,.478-.02.8.8,0,0,0,.4-.142,1.358,1.358,0,0,1,.641-.264,1.233,1.233,0,0,1,.783.244,1.1,1.1,0,0,1,.417.478A1.151,1.151,0,0,1,682.923,599.119Zm-1.933.834a.836.836,0,0,0-.091-.468.62.62,0,0,0-.417-.163,12.728,12.728,0,0,0-1.373-.051q-.722.01-1.577.071a.617.617,0,0,0-.366.1c-.054.054-.075.19-.061.407q.04.427.061.823t.061.8a.461.461,0,0,0,.081.264.529.529,0,0,0,.326.061q.875,0,1.526.01t1.3.01a.416.416,0,0,0,.336-.112.837.837,0,0,0,.132-.4,6.738,6.738,0,0,0,.051-.7Q680.991,600.217,680.991,599.953Zm7.4-6.327a5.879,5.879,0,0,0-.224,1.068c-.04.359-.068.7-.081,1.027q-.02,1.078-.57,1.383a1.462,1.462,0,0,1-.732.264,2.033,2.033,0,0,1-.773-.2,3.068,3.068,0,0,0-.58-.173q-.275-.051-.763-.092-.916-.04-1.76-.041t-1.964.081a1.959,1.959,0,0,0-.294.051.765.765,0,0,0-.275.173,2.381,2.381,0,0,1-.335.234.443.443,0,0,1-.316.031.939.939,0,0,1-.407-.2,1.193,1.193,0,0,1-.224-.509q-.184-.772-.356-1.505t-.356-1.526a1.9,1.9,0,0,1,.021-1.159.8.8,0,0,1,.59-.468,2.828,2.828,0,0,1,.773-.071.66.66,0,0,1,.387.193.614.614,0,0,0,.427.244q1.608-.02,2.9-.01t2.431.031a1.087,1.087,0,0,0,.4-.061,1.023,1.023,0,0,0,.275-.163,1.133,1.133,0,0,1,1.281-.041A1.091,1.091,0,0,1,688.4,593.626Zm-2.116.407a.685.685,0,0,0-.142-.458.847.847,0,0,0-.529-.112c-.353,0-.705,0-1.058.01s-.719.01-1.1.01-.782,0-1.21.01-.9.018-1.414.031c-.19,0-.309.027-.356.081s-.058.162-.031.325q.041.387.072.773t.071.732a.525.525,0,0,0,.122.3.553.553,0,0,0,.366.051q1.343-.08,2.431-.1t2.085.02a.776.776,0,0,0,.509-.092.645.645,0,0,0,.163-.478c.013-.163.024-.346.03-.549A4.836,4.836,0,0,0,686.28,594.033Zm5.534,5.716a4.082,4.082,0,0,0-.224,1.027q-.082.682-.122,1.454-.021.325-.051.519a1.393,1.393,0,0,1-.092.335.7.7,0,0,1-.173.244q-.112.1-.294.244a.859.859,0,0,1-1.2-.041,2.281,2.281,0,0,0-.407-.274,2.226,2.226,0,0,0-.712-.132,6.915,6.915,0,0,0-.824-.031q-.4.011-1.007.051a.979.979,0,0,0-.63.244,4.3,4.3,0,0,1-.407.264q-.61.306-.864.031a1.45,1.45,0,0,1-.274-.946q-.042-1.078-.1-1.78t-.163-1.393a3.783,3.783,0,0,1-.041-1.079,1.44,1.44,0,0,1,.366-.712.731.731,0,0,1,.468-.224,1.37,1.37,0,0,1,.773.2,1.114,1.114,0,0,0,.234.122.637.637,0,0,0,.173.02q.611,0,1.068.01t.824.01h1.363a1.719,1.719,0,0,0,.4-.031.692.692,0,0,0,.255-.153.864.864,0,0,1,.722-.2,1.08,1.08,0,0,1,.723.489,1.951,1.951,0,0,1,.366.814A1.814,1.814,0,0,1,691.813,599.749Zm-1.953,0a.449.449,0,0,0-.508-.57q-.549-.041-.915-.061t-.671-.031c-.2-.007-.411-.007-.621,0s-.465.017-.763.031a.437.437,0,0,0-.285.061c-.04.04-.054.156-.04.346q.041.468.071.956t.071,1.017a.593.593,0,0,0,.122.336.566.566,0,0,0,.346.071h1.414c.183,0,.363,0,.539-.01s.366-.017.57-.03a.552.552,0,0,0,.387-.122.851.851,0,0,0,.122-.386q.061-.407.1-.854T689.86,599.749Z" transform="translate(-163.41 -0.516)" fill="#a42a0f"/></g></svg>