<svg xmlns="http://www.w3.org/2000/svg" width="196.663" height="87.258" viewBox="0 0 196.663 87.258"><g transform="translate(-649.854 -1086.5)"><ellipse cx="34.357" cy="24.421" rx="34.357" ry="24.421" transform="translate(679.787 1124.416)" fill="#fff" stroke="#a62a0f" stroke-miterlimit="10" stroke-width="1"/><path d="M732.238,1161.506c6.056,6.952,16.883,11.583,29.233,11.583,18.975,0,34.357-10.933,34.357-24.421s-15.382-24.42-34.357-24.42c-11.86,0-22.316,4.271-28.49,10.767" fill="#fff" stroke="#a62a0f" stroke-miterlimit="10" stroke-width="1"/><path d="M782.427,1161.506c6.056,6.952,16.883,11.583,29.232,11.583,18.976,0,34.358-10.933,34.358-24.421s-15.382-24.42-34.358-24.42c-11.859,0-22.315,4.271-28.489,10.767" fill="#fff" stroke="#a62a0f" stroke-miterlimit="10" stroke-width="1"/><ellipse cx="34.357" cy="24.421" rx="34.357" ry="24.421" transform="translate(747.868 1087.168)" fill="#fff" stroke="#a62a0f" stroke-miterlimit="10" stroke-width="1"/><path d="M764.133,1124.258c-6.056,6.952-16.883,11.583-29.233,11.583-18.975,0-34.357-10.933-34.357-24.42S715.925,1087,734.9,1087c11.86,0,22.316,4.271,28.49,10.767" fill="#fff" stroke="#a62a0f" stroke-miterlimit="10" stroke-width="1"/><path d="M713.944,1124.258c-6.056,6.952-16.883,11.583-29.233,11.583-18.975,0-34.357-10.933-34.357-24.42S665.736,1087,684.711,1087c11.86,0,22.316,4.271,28.49,10.767" fill="#fff" stroke="#a62a0f" stroke-miterlimit="10" stroke-width="1"/><path d="M673.6,1118.43c-2.01,0-3.36-1.622-3.36-4.035v-6.7c0-2.512,1.446-4.074,3.776-4.074s3.776,1.562,3.776,4.074v.768h-1.571v-.768c0-1.64-.825-2.619-2.2-2.619s-2.205.979-2.205,2.619v6.7c0,1.9,1.129,2.58,2.185,2.58,1.4,0,2.265-.989,2.265-2.58v-1.762l-.286-.285h-1.557V1110.9h3.374v7.277h-1.155v-1.066l-.6-.156-.1.221A2.434,2.434,0,0,1,673.6,1118.43Z" fill="#a72a0f"/><path d="M686.317,1118.172v-4.15l-5.893-10.139,2.03,0,4.4,8.178h.5l4.443-8.18h1.988l-5.893,10.139v4.15Z" fill="#a72a0f"/><path d="M703.024,1118.43c-4.475,0-7.6-3.044-7.6-7.4s3.124-7.4,7.6-7.4h9.507c4.474,0,7.6,3.044,7.6,7.4s-3.125,7.4-7.6,7.4Zm0-13.35a5.948,5.948,0,1,0,0,11.9h9.507a5.948,5.948,0,1,0,0-11.9Z" fill="#a72a0f"/><path d="M722.634,1118.172v-1.357l5.192-11.2-.278-.392h-4.914v-1.336h6.88v1.357l-5.193,11.2.28.392h4.913v1.336Z" fill="#a72a0f"/><path d="M739.694,1118.172l-.588-2.96-.275-.23H735l-.275.231-.569,2.959h-1.639l3.133-14.328h2.55l3.132,14.328Zm-4.578-4.968.271.325h3.058l.27-.324-1.476-7.611h-.625Z" fill="#a72a0f"/><path d="M751.665,1118.172v-14.289h10.147v1.455h-8.29l-.287.281v4.5l.286.285h5.755v1.453h-5.755l-.286.285v6.033Z" fill="#a72a0f"/><path d="M764.874,1118.172v-14.289H785.1v1.455H766.732l-.287.281v4.3l.286.285H781.5v1.453H766.731l-.286.285v4.5l.287.281H785.1v1.455Z" fill="#a72a0f"/><path d="M790.394,1118.43a3.551,3.551,0,0,1-3.836-3.819v-.33h1.572v.33a2.148,2.148,0,0,0,2.264,2.364,2.055,2.055,0,0,0,2.185-2.323v-.277c0-1.453-.665-2.21-2.3-2.613-2.341-.548-3.527-1.934-3.527-4.121v-.5a3.313,3.313,0,0,1,3.479-3.52c2.275,0,3.579,1.342,3.579,3.68v.349h-1.572v-.349c0-1.5-.657-2.225-2.007-2.225a1.8,1.8,0,0,0-1.908,2.045v.357a2.539,2.539,0,0,0,2.275,2.692c2.355.589,3.549,1.923,3.549,3.963v.515A3.5,3.5,0,0,1,790.394,1118.43Z" fill="#a72a0f"/><path d="M700.234,1154.994v-7.924l-.274-.273h-2.232v-1.26h.325a2.133,2.133,0,0,0,2.288-2.394v-1.006H701.6v12.857Z" fill="#a72a0f"/><path d="M709,1154.994v-7.924l-.274-.273H704.1v-1.26h2.4a2.333,2.333,0,0,0,2.61-2.609v-.791h1.258v12.857Z" fill="#a72a0f"/><rect width="1.759" height="1.762" transform="translate(714.327 1153.232)" fill="#a72a0f"/><path d="M719.218,1154.994v-1.412l.03-.071,3.383-3.571a5.624,5.624,0,0,0,1.563-4.059v-.645c0-1.715-.982-2.074-1.806-2.074s-1.822.369-1.822,2.127v.971h-1.348v-.989c0-2.139,1.181-3.367,3.242-3.367,1.941,0,3.1,1.226,3.1,3.278v.752a6.6,6.6,0,0,1-1.962,4.871l-2.33,2.462.2.467h4.216v1.26Z" fill="#a72a0f"/><path d="M734.826,1155.227c-4.08,0-5.981-2.118-5.981-6.663,0-3.92,2.607-6.66,6.339-6.66h7.876c2.61,0,4.677,1.322,5.345,3.389h-1.478a4,4,0,0,0-3.867-2.131h-7.876a4.832,4.832,0,0,0-5.1,4.842l-.005.227.556.136.111-.164c.319-.474,1.319-1.574,3.721-1.574h8.645c3.425,0,5.39,1.56,5.39,4.281,0,2.662-2.107,4.317-5.5,4.317Zm-.537-7.375c-2.329,0-3.72,1.109-3.72,2.968,0,1.436.739,3.147,4.257,3.147h8.18c3.415,0,4.132-1.662,4.132-3.057s-.72-3.058-4.15-3.058Z" fill="#a72a0f"/><path d="M754.526,1152.078v-.849l10.529.009v.84Z" fill="#a72a0f"/><path d="M774.283,1154.994v-7.924l-.273-.273h-4.631v-1.26h2.4a2.333,2.333,0,0,0,2.611-2.609v-.791h1.258v12.857Z" fill="#a72a0f"/><path d="M779.477,1154.994v-1.412l.031-.071,3.382-3.571a5.62,5.62,0,0,0,1.563-4.059v-.645c0-1.715-.982-2.074-1.8-2.074s-1.823.369-1.823,2.127v.971h-1.348v-.989c0-2.139,1.182-3.367,3.243-3.367,1.941,0,3.1,1.226,3.1,3.278v.752a6.6,6.6,0,0,1-1.962,4.871l-2.33,2.462.2.467h4.216v1.26Z" fill="#a72a0f"/><rect width="1.759" height="1.762" transform="translate(789.064 1153.232)" fill="#a72a0f"/><path d="M794.458,1154.994v-1.109l14.962-4.728c2.333-.72,3.33-1.668,3.33-3.169,0-1.8-1.323-2.826-3.631-2.826h-9.164c-2.184,0-3.975,1.374-4.09,3.1h-1.4c.1-2.495,2.432-4.356,5.494-4.356h9.164c3.082,0,5,1.566,5,4.084,0,2.157-1.263,3.416-4.361,4.346l-9.18,2.772.08.628h13.461v1.26Z" fill="#a72a0f"/><path d="M820.982,1155.227c-2.073,0-3.261-1.254-3.261-3.44v-6.1c0-2.4,1.221-3.78,3.35-3.78a2.964,2.964,0,0,1,3.171,3.278v.111h-1.366c-.006-1.854-1.143-2.131-1.823-2.131-.9,0-1.966.438-1.966,2.522v1.654l.543.133.112-.153a2.062,2.062,0,0,1,1.651-.689c1.784,0,2.849,1.319,2.849,3.529v1.629C824.242,1153.973,823.054,1155.227,820.982,1155.227Zm0-7.375c-1.169,0-1.9.883-1.9,2.306v1.629c0,1.8,1.03,2.18,1.9,2.18s1.894-.378,1.894-2.18v-1.629C822.876,1148.252,821.846,1147.852,820.982,1147.852Z" fill="#a72a0f"/></g></svg>