<svg xmlns="http://www.w3.org/2000/svg" width="110.595" height="27.973" viewBox="0 0 110.595 27.973"><g transform="translate(-111.763 -7648.687)"><path d="M611.977,639.349c2.858-.988,2.946-3.166,2.92-5.558-.067-6.56-.023-13.124-.023-19.994-3.673.381-5.262,2.856-6.723,5.5l-.691-.2,1.353-7.275h20.766l1.389,7.2c-2.237-2.1-3.616-4.91-7.408-5.218v5.861c0,4.578-.01,9.156,0,13.734.006,2.41-.395,5.049,2.985,5.961Z" transform="translate(-408.609 7037.07)" fill="#ae2a0f"/><path d="M563.4,612.014h14.369c-3.311,1.074-2.742,3.787-2.75,6.206-.018,5.073-.047,10.146.018,15.217.053,4.044,2.276,5.474,5.849,3.474,1.881-1.053,3.341-2.889,4.92-4.443a11.95,11.95,0,0,0,1.341-1.96l.813.31c-1.006,2.769-2,5.542-3.048,8.292-.071.185-.585.279-.894.281-6.872.014-13.744.012-20.9-.24,4.24-1.463,3.07-4.849,3.119-7.713.079-4.488.039-8.98.018-13.469C566.246,615.6,566.709,612.967,563.4,612.014Z" transform="translate(-451.356 7037.262)" fill="#ae2a0f"/><path d="M608.116,631.014c-.858,2.5-1.675,5.008-2.616,7.473a1.711,1.711,0,0,1-1.3.854c-6.735.027-13.471-.018-20.206-.061-.1,0-.206-.206-.587-.615,3.726-.7,3.078-3.52,3.088-6.022.02-4.993.012-9.983.008-14.976,0-3.651-.008-3.651-3.192-5.633h14.73c-3.588,1.194-2.846,4.189-2.864,6.819-.031,4.741-.049,9.484.006,14.225.051,4.445,2.449,5.926,6.279,3.632,1.789-1.07,3.152-2.871,4.655-4.4a13.16,13.16,0,0,0,1.286-1.819Z" transform="translate(-431.887 7037.283)" fill="#ae2a0f"/><path d="M620.886,630.894c-.88,2.557-1.717,5.13-2.679,7.654a1.708,1.708,0,0,1-1.316.811c-6.741.018-13.483-.029-20.224-.078-.094,0-.189-.226-.538-.672,3.633-.438,3.089-3.117,3.1-5.5.016-5.079.008-10.158,0-15.237,0-3.732,0-3.732-3.072-5.847h15.5c-4.755,1.6-3.641,4.965-3.692,7.844-.081,4.494-.092,8.993.012,13.487.1,4.166,2.451,5.629,6.037,3.449,2.041-1.241,3.533-3.39,5.26-5.142a13.691,13.691,0,0,0,.87-1.082Z" transform="translate(-419.533 7037.27)" fill="#ae2a0f"/><path d="M576.866,635.521c3.62-2.015,1.948-5.336,2.149-8.005.212-2.832.78-5.963-3.237-7.839l5.405-1.972c1.624-.6,3.246-1.19,5.293-1.938,0,3.694-.216,7.08.063,10.427.259,3.082-1.628,6.766,2.63,9.327Z" transform="translate(-439.152 7040.88)" fill="#ae2a0f"/><path d="M581.2,611.716a3.766,3.766,0,0,1,3.7,3.9,3.846,3.846,0,1,1-3.7-3.9Z" transform="translate(-437.77 7036.973)" fill="#ae2a0f"/></g></svg>