<svg xmlns="http://www.w3.org/2000/svg" width="82.483" height="63.78" viewBox="0 0 82.483 63.78"><g transform="translate(-567 -1103.364)"><g transform="translate(567 1103.364)"><path d="M590.567,1131.936l-.5-.571a2.527,2.527,0,0,1-1.765.654c-1.508,0-2.251-.785-2.251-2.085a2.279,2.279,0,0,1,1.195-1.849,2.2,2.2,0,0,1-.694-1.446,1.618,1.618,0,0,1,1.626-1.612,1.552,1.552,0,0,1,.2.014,1.6,1.6,0,0,1,1.738,1.446,1.663,1.663,0,0,1,.006.167,1.437,1.437,0,0,1-.694,1.195s-.314.237-.487.355l1.147,1.39a2.148,2.148,0,0,0,.348-1.2h1.181a3.3,3.3,0,0,1-.73,2.085l1.23,1.453Zm-2.627-3.08a1.232,1.232,0,0,0-.7,1.043.973.973,0,0,0,.986.961l.051,0a1.424,1.424,0,0,0,1.049-.4Zm.473-2.745a.521.521,0,0,0-.568.469.536.536,0,0,0,0,.087c0,.25.216.487.452.764.1-.056.285-.187.285-.187a.748.748,0,0,0,.4-.577.528.528,0,0,0-.5-.556h-.064Z" transform="translate(-567.784 -1104.256)" fill="#258a59"/><path d="M588.3,1132.058c-1.5,0-2.321-.758-2.321-2.14a2.308,2.308,0,0,1,1.189-1.849,2.2,2.2,0,0,1-.618-1.432,1.673,1.673,0,0,1,1.9-1.661,1.654,1.654,0,0,1,1.807,1.486,1.567,1.567,0,0,1,.007.189,1.473,1.473,0,0,1-.694,1.25l-.431.313,1.042,1.23a2.164,2.164,0,0,0,.286-1.084v-.07h1.32v.077a3.4,3.4,0,0,1-.7,2.085l1.286,1.522h-1.842l-.473-.57A2.56,2.56,0,0,1,588.3,1132.058Zm.118-6.951a1.547,1.547,0,0,0-1.758,1.523,2.147,2.147,0,0,0,.694,1.39l.049.056-.062.041a2.231,2.231,0,0,0-1.2,1.78c0,1.293.772,2,2.182,2a2.442,2.442,0,0,0,1.7-.591l.09-.069.515.625h1.389l-1.167-1.39.041-.041a3.216,3.216,0,0,0,.7-2.009h-1.05a2.154,2.154,0,0,1-.362,1.175l-.048.07-1.258-1.488.062-.048c.167-.111.486-.348.486-.348a1.39,1.39,0,0,0,.7-1.14,1.522,1.522,0,0,0-1.5-1.545A1.688,1.688,0,0,0,588.416,1125.107Zm-.125,5.811a1.043,1.043,0,0,1-1.1-.978c0-.016,0-.033,0-.05a1.328,1.328,0,0,1,.7-1.105h.056v.049l1.39,1.654-.049.049a1.515,1.515,0,0,1-.987.389Zm-.355-1.973a1.131,1.131,0,0,0-.6.952.9.9,0,0,0,.915.892l.051,0a1.331,1.331,0,0,0,.918-.341Zm.355-1.425-.056-.063c-.243-.285-.452-.52-.452-.792a.59.59,0,0,1,.552-.626.535.535,0,0,1,.087,0,.6.6,0,0,1,.632.575.426.426,0,0,1,0,.05.826.826,0,0,1-.424.633l-.291.195Zm.132-1.341a.45.45,0,0,0-.5.486,1.243,1.243,0,0,0,.4.7l.236-.16c.244-.167.362-.334.362-.514a.458.458,0,0,0-.4-.507.449.449,0,0,0-.1,0Z" transform="translate(-567.781 -1104.253)" fill="#258a59"/><path d="M597.786,1126.3v1.682h2.7v1.188h-2.7v2.781h-1.334v-6.833h4.5v1.182Z" transform="translate(-568.212 -1104.259)" fill="#258a59"/><path d="M597.853,1132.006h-1.474v-6.951h4.643v1.307h-3.169v1.529h2.7v1.327h-2.7Zm-1.335-.139h1.2v-2.78h2.7v-1.043h-2.7v-1.821h3.162v-1.049h-4.358Z" transform="translate(-568.209 -1104.257)" fill="#258a59"/><path d="M607.4,1131.241a2.641,2.641,0,0,1-3.69,0c-.7-.7-.7-1.543-.7-2.725s0-2.029.7-2.724a2.641,2.641,0,0,1,3.69.013c.7.7.7,1.543.7,2.725S608.1,1130.553,607.4,1131.241Zm-.987-4.643a1.1,1.1,0,0,0-.855-.361,1.116,1.116,0,0,0-.862.361c-.257.292-.327.6-.327,1.918s.07,1.634.327,1.919a1.12,1.12,0,0,0,.862.368,1.106,1.106,0,0,0,.855-.368c.257-.285.334-.605.334-1.919S606.71,1126.89,606.418,1126.6Z" transform="translate(-568.483 -1104.256)" fill="#258a59"/><path d="M605.56,1132.058a2.557,2.557,0,0,1-1.9-.771c-.7-.7-.7-1.523-.7-2.676v-.188c0-1.154,0-1.988.7-2.683a2.576,2.576,0,0,1,1.9-.764,2.545,2.545,0,0,1,1.891.764c.7.7.7,1.55.7,2.725v.118c0,1.175,0,2.022-.7,2.724h0A2.525,2.525,0,0,1,605.56,1132.058Zm0-6.951a2.425,2.425,0,0,0-1.8.7c-.654.654-.654,1.467-.654,2.586v.195c0,1.119,0,1.925.654,2.578a2.577,2.577,0,0,0,3.593,0h0c.7-.7.7-1.48.7-2.627v-.1c0-1.14,0-1.967-.7-2.627A2.418,2.418,0,0,0,605.56,1125.107Zm0,5.755a1.2,1.2,0,0,1-.939-.381c-.278-.314-.34-.661-.34-1.968s.062-1.647.34-1.96a1.2,1.2,0,0,1,.918-.389,1.142,1.142,0,0,1,.9.389c.27.3.354.605.354,1.96s-.083,1.668-.354,1.968a1.175,1.175,0,0,1-.883.389Zm0-4.566a1.056,1.056,0,0,0-.813.34c-.237.265-.306.543-.306,1.87s.069,1.613.306,1.876a1.085,1.085,0,0,0,.813.34,1.042,1.042,0,0,0,.8-.34c.243-.271.319-.563.319-1.876s-.077-1.6-.313-1.87h0a1.023,1.023,0,0,0-.806-.334Z" transform="translate(-568.48 -1104.254)" fill="#258a59"/><path d="M614.972,1131.241a2.47,2.47,0,0,1-1.842.751,2.506,2.506,0,0,1-1.856-.751c-.7-.7-.7-1.543-.7-2.725s0-2.029.7-2.724a2.5,2.5,0,0,1,1.856-.751,2.47,2.47,0,0,1,1.842.764c.694.7.694,1.543.694,2.725S615.66,1130.552,614.972,1131.241Zm-1-4.643a1.2,1.2,0,0,0-1.7-.016l-.016.016c-.264.292-.326.6-.326,1.918s.062,1.634.326,1.919a1.182,1.182,0,0,0,1.67.046c.016-.014.032-.031.047-.046.257-.285.334-.605.334-1.919S614.242,1126.89,613.971,1126.6Z" transform="translate(-568.794 -1104.256)" fill="#258a59"/><path d="M613.128,1132.058a2.555,2.555,0,0,1-1.9-.771c-.7-.7-.7-1.523-.7-2.676v-.188c0-1.154,0-1.988.7-2.683a2.576,2.576,0,0,1,1.9-.764,2.543,2.543,0,0,1,1.89.764c.7.7.7,1.55.7,2.725v.118c0,1.175,0,2.022-.7,2.724A2.522,2.522,0,0,1,613.128,1132.058Zm0-6.951a2.457,2.457,0,0,0-1.807.7c-.646.654-.646,1.467-.646,2.586v.195c0,1.119,0,1.925.646,2.578a2.585,2.585,0,0,0,3.6,0c.66-.7.66-1.48.66-2.627v-.1c0-1.14,0-1.967-.66-2.627A2.435,2.435,0,0,0,613.128,1125.107Zm0,5.755a1.19,1.19,0,0,1-.918-.389c-.285-.312-.34-.66-.34-1.966s.056-1.647.34-1.96a1.2,1.2,0,0,1,.918-.389,1.155,1.155,0,0,1,.9.389c.271.3.355.6.355,1.96s-.083,1.668-.355,1.966a1.168,1.168,0,0,1-.9.4Zm0-4.566a1.047,1.047,0,0,0-.813.34c-.237.265-.306.543-.306,1.87s.069,1.613.306,1.876a1.068,1.068,0,0,0,.813.34,1.04,1.04,0,0,0,.8-.34c.244-.271.32-.563.32-1.876s-.077-1.6-.32-1.87h0a1.021,1.021,0,0,0-.8-.334Z" transform="translate(-568.792 -1104.254)" fill="#258a59"/><path d="M622.683,1131.285a2.489,2.489,0,0,1-1.807.654h-2.46v-6.826h2.46a2.488,2.488,0,0,1,1.807.654c.764.764.7,1.7.7,2.732S623.447,1130.514,622.683,1131.285Zm-.931-4.566a1.187,1.187,0,0,0-.994-.424H619.75v4.455h1.008a1.189,1.189,0,0,0,.994-.424c.25-.306.292-.8.292-1.835S622,1127.025,621.752,1126.719Z" transform="translate(-569.116 -1104.259)" fill="#258a59"/><path d="M620.872,1132.005h-2.529v-6.95h2.529a2.529,2.529,0,0,1,1.856.7,3.26,3.26,0,0,1,.7,2.524v.514a3.4,3.4,0,0,1-.7,2.586h0A2.568,2.568,0,0,1,620.872,1132.005Zm-2.412-.139h2.391a2.439,2.439,0,0,0,1.779-.632h0a3.174,3.174,0,0,0,.7-2.489v-.514a3.024,3.024,0,0,0-.7-2.426,2.392,2.392,0,0,0-1.758-.632h-2.412Zm2.273-1.049h-1.056v-4.595h1.077a1.268,1.268,0,0,1,1.05.445h0c.257.32.306.736.306,1.821s-.049,1.557-.306,1.876a1.274,1.274,0,0,1-1.05.452Zm-.882-.147h.9a1.1,1.1,0,0,0,.939-.4c.243-.292.243-.751.243-1.78s-.035-1.445-.27-1.731a1.117,1.117,0,0,0-.939-.4h-.875Z" transform="translate(-569.113 -1104.257)" fill="#258a59"/><path d="M629.776,1131.939v-2.864h-2.314v2.864h-1.335v-6.826h1.335v2.781h2.314v-2.781h1.335v6.833Z" transform="translate(-569.434 -1104.259)" fill="#258a59"/><path d="M631.178,1132.006H629.7v-2.863h-2.176v2.863h-1.474v-6.951h1.474v2.781H629.7v-2.781h1.474Zm-1.335-.139h1.2v-6.693h-1.2v2.78H627.39v-2.78h-1.2v6.693h1.2V1129h2.454Z" transform="translate(-569.431 -1104.257)" fill="#258a59"/><path d="M637.759,1131.939l-.4-1.21H634.93l-.417,1.21h-1.39l2.488-6.826h1.042l2.5,6.833Zm-1.592-4.817-.862,2.481H637Z" transform="translate(-569.722 -1104.259)" fill="#258a59"/><path d="M639.221,1132h-1.515l-.4-1.209h-2.329l-.417,1.209h-1.536v-.1l2.5-6.874h1.14v.041Zm-1.39-.139h1.244l-2.446-6.693h-.973l-2.44,6.693h1.245l.417-1.209H637.4Zm-.7-2.2H635.2v-.091l.931-2.675Zm-1.7-.139h1.5l-.779-2.2Z" transform="translate(-569.717 -1104.256)" fill="#258a59"/><path d="M641.213,1131.939v-6.826h1.334v5.644h3.1v1.189Z" transform="translate(-570.055 -1104.259)" fill="#258a59"/><path d="M645.714,1132.006H641.14v-6.951h1.474v5.616h3.1Zm-4.435-.139h4.3v-1.049h-3.1v-5.644h-1.2Z" transform="translate(-570.052 -1104.257)" fill="#258a59"/><path d="M648.084,1131.939v-6.826h1.335v5.644h3.1v1.189Z" transform="translate(-570.337 -1104.259)" fill="#258a59"/><path d="M652.585,1132.006h-4.573v-6.951h1.474v5.616h3.1Zm-4.434-.139h4.3v-1.049h-3.1v-5.644h-1.168Z" transform="translate(-570.334 -1104.257)" fill="#258a59"/><rect width="30.422" height="0.973" transform="translate(51.871 1.289)" fill="#258a59"/><rect width="30.422" height="0.973" transform="translate(0 1.289)" fill="#258a59"/><path d="M602.655,1105.577h-.7v1.313h-.7v-3.523h1.39a1.077,1.077,0,0,1,1.151,1c0,.031,0,.063,0,.093a1.078,1.078,0,0,1-1.06,1.094.732.732,0,0,1-.093,0m-.036-1.543h-.64v.952h.64a.459.459,0,0,0,.535-.367.491.491,0,0,0,.008-.105.466.466,0,0,0-.445-.485A.424.424,0,0,0,602.62,1104.006Z" transform="translate(-568.41 -1103.364)" fill="#258a59"/><path d="M606.709,1106.893l-.2-.619h-1.245l-.208.619h-.7l1.271-3.475h.536l1.278,3.475h-.694m-.855-2.467-.438,1.272h.862Z" transform="translate(-568.538 -1103.366)" fill="#258a59"/><path d="M610.346,1106.89l-.7-1.389h-.493v1.389h-.7v-3.523h1.389a1.056,1.056,0,0,1,1.13.977.776.776,0,0,1,0,.094.937.937,0,0,1-.64.917l.785,1.508h-.785m-.528-2.856h-.646v.918h.646a.453.453,0,0,0,.492-.409.445.445,0,0,0,0-.051.451.451,0,0,0-.443-.46A.505.505,0,0,0,609.818,1104.006Z" transform="translate(-568.707 -1103.364)" fill="#258a59"/><path d="M613.424,1106.918a1.285,1.285,0,0,1-.939-.382c-.354-.355-.347-.793-.347-1.39a1.786,1.786,0,0,1,.347-1.39,1.287,1.287,0,0,1,.939-.389,1.231,1.231,0,0,1,1.307,1.106h-.7a.57.57,0,0,0-.591-.494.55.55,0,0,0-.438.181c-.132.146-.167.313-.167.987s.035.834.167.98a.553.553,0,0,0,.438.188.586.586,0,0,0,.591-.5h.7a1.23,1.23,0,0,1-1.286,1.1" transform="translate(-568.858 -1103.364)" fill="#258a59"/><path d="M618.057,1106.537a1.259,1.259,0,0,1-.938.382,1.308,1.308,0,0,1-.952-.382,3,3,0,0,1,0-2.781,1.307,1.307,0,0,1,.952-.389,1.259,1.259,0,0,1,.938.383c.355.355.348.792.348,1.39a1.787,1.787,0,0,1-.348,1.389m-.507-2.377a.558.558,0,0,0-.43-.18.583.583,0,0,0-.445.18c-.132.153-.167.313-.167.988s0,.833.167.98a.591.591,0,0,0,.445.187.557.557,0,0,0,.43-.159c.139-.147.174-.314.174-.98s-.062-.855-.174-1.008Z" transform="translate(-569.009 -1103.364)" fill="#258a59"/><path d="M571.045,1116.876l-1.487-3.044h-1.071v3.044H567v-7.646h2.989a2.307,2.307,0,0,1,2.468,2.135,2,2,0,0,1,.007.2,2.086,2.086,0,0,1-1.39,2l1.7,3.308h-1.723m-1.154-6.318H568.5v2.009h1.389a1.008,1.008,0,0,0,.168-2.009A.987.987,0,0,0,569.891,1110.559Z" transform="translate(-567 -1103.605)" fill="#258a59"/><path d="M575.285,1116.878v-7.625h5.025v1.327h-3.538v1.786h3.009v1.328h-3.009v1.856h3.538v1.328h-5.025" transform="translate(-567.341 -1103.606)" fill="#258a59"/><path d="M585.517,1116.936a3.579,3.579,0,0,1-2.78-1.008l.967-.966a2.474,2.474,0,0,0,1.841.646c.876,0,1.349-.333,1.349-.945a.856.856,0,0,0-.237-.64,1.135,1.135,0,0,0-.7-.271l-.917-.125a2.583,2.583,0,0,1-1.48-.633,2.022,2.022,0,0,1-.549-1.5,2.394,2.394,0,0,1,2.7-2.329,3.3,3.3,0,0,1,2.432.9l-.945.938a2.09,2.09,0,0,0-1.564-.529c-.792,0-1.175.438-1.175.967a.694.694,0,0,0,.222.542,1.317,1.317,0,0,0,.7.3l.9.132a2.471,2.471,0,0,1,1.459.591,2.132,2.132,0,0,1,.584,1.612c0,1.48-1.23,2.315-2.822,2.315" transform="translate(-567.648 -1103.603)" fill="#258a59"/><path d="M593.874,1110.581v6.3h-1.487v-6.3h-1.995v-1.327h5.47v1.327h-1.988" transform="translate(-567.963 -1103.606)" fill="#258a59"/><path d="M602.246,1116.877l-.452-1.348h-2.711l-.459,1.348h-1.549l2.78-7.646h1.168l2.781,7.646h-1.557m-1.78-5.379-.966,2.78h1.9Z" transform="translate(-568.238 -1103.606)" fill="#258a59"/><path d="M608.677,1116.94a2.654,2.654,0,0,1-2.777-2.527c0-.05,0-.1,0-.149v-5.012h1.487v4.956a1.328,1.328,0,0,0,2.648.192,1.256,1.256,0,0,0,0-.192v-4.956h1.473v5.012a2.648,2.648,0,0,1-2.617,2.679c-.055,0-.108,0-.163,0" transform="translate(-568.601 -1103.606)" fill="#258a59"/><path d="M618.546,1116.876l-1.488-3.044h-1.07v3.044H614.5v-7.646h2.989a2.308,2.308,0,0,1,2.468,2.135c0,.067.007.134.006.2a2.085,2.085,0,0,1-1.389,2l1.7,3.287h-1.731m-1.154-6.3H616v2.009h1.389a1.008,1.008,0,0,0,.168-2.009A.989.989,0,0,0,617.392,1110.559Z" transform="translate(-568.955 -1103.605)" fill="#258a59"/><path d="M627.312,1116.877l-.452-1.348h-2.683l-.458,1.348h-1.585l2.78-7.646h1.161l2.78,7.646h-1.543m-1.744-5.379-.967,2.78h1.9Z" transform="translate(-569.269 -1103.606)" fill="#258a59"/><path d="M635.677,1116.878l-3.016-4.678v4.678h-1.487v-7.625H632.5l3.016,4.671v-4.671H637v7.625h-1.328" transform="translate(-569.641 -1103.606)" fill="#258a59"/><path d="M643.122,1110.581v6.3h-1.487v-6.3H639.64v-1.327h5.47v1.327h-1.988" transform="translate(-569.99 -1103.606)" fill="#258a59"/><path d="M649.756,1116.937a3.569,3.569,0,0,1-2.781-1l.96-.965a2.505,2.505,0,0,0,1.841.64c.876,0,1.349-.327,1.349-.939a.862.862,0,0,0-.209-.64,1.137,1.137,0,0,0-.7-.264l-.917-.132a2.627,2.627,0,0,1-1.481-.625,2.038,2.038,0,0,1-.543-1.5c0-1.39,1-2.315,2.655-2.315a3.262,3.262,0,0,1,2.46.89l-.938.931a2.134,2.134,0,0,0-1.564-.521c-.793,0-1.182.437-1.182.959a.747.747,0,0,0,.222.549,1.316,1.316,0,0,0,.7.3l.9.126a2.521,2.521,0,0,1,1.46.591,2.13,2.13,0,0,1,.591,1.619c0,1.474-1.23,2.308-2.829,2.308" transform="translate(-570.292 -1103.604)" fill="#258a59"/><rect width="82.292" height="0.973" transform="translate(0 16.316)" fill="#258a59"/></g><g transform="translate(597.18 1130.935)"><g transform="translate(1.121 0.64)"><path d="M649.252,1134.4a2.182,2.182,0,0,1-.505.726,3,3,0,0,1-.718.506,2.752,2.752,0,0,1-.785.264,2.023,2.023,0,0,1-.73,0l-.852-.2c-.254-.058-.508-.114-.762-.165s-.517-.1-.785-.154-.576-.105-.92-.165a6.209,6.209,0,0,0-.762-.065q-.516-.023-1.234-.023a.211.211,0,0,0-.224.175c-.045.25-.082.484-.112.7s-.06.454-.09.7q-.045.242.224.242,1.458.023,2.648.132a3.168,3.168,0,0,0,.5-.056,1.2,1.2,0,0,0,.505-.186.426.426,0,0,1,.246-.088,1.69,1.69,0,0,1,.382,0,3.016,3.016,0,0,1,.381.065.589.589,0,0,1,.269.132,2.5,2.5,0,0,1,.4.44,1.14,1.14,0,0,1,.179.407,1.257,1.257,0,0,1,.012.451,5.491,5.491,0,0,1-.123.593c-.076.279-.131.529-.169.749s-.067.5-.09.836-.034.787-.034,1.353v2.275a1.725,1.725,0,0,1-.426,1.253,1.89,1.89,0,0,1-1.077.55,1.307,1.307,0,0,1-1.033-.461,2.836,2.836,0,0,0-1.1-.221q-.942-.086-2.333-.11t-3.063.022q-1.671.046-3.264.176c-.076,0-.12.03-.135.087a1.074,1.074,0,0,1-.494.363,1.39,1.39,0,0,1-.606.1,1.151,1.151,0,0,1-.526-.1.689.689,0,0,1-.3-.363,2.463,2.463,0,0,1-.157-.714q-.045-.45-.067-1.133-.023-.988-.045-1.649t-.057-1.154c-.022-.329-.053-.638-.089-.923s-.086-.6-.146-.957a2.2,2.2,0,0,1,.1-1.386,1.24,1.24,0,0,1,.774-.659,1.206,1.206,0,0,1,1.19.2.241.241,0,0,0,.179.066c.418-.029.859-.052,1.323-.066s.935-.022,1.413-.022a.2.2,0,0,0,.224-.22v-.627c0-.212-.008-.444-.022-.693,0-.131-.075-.2-.224-.2q-1.145.044-2.132.11t-1.594.131q-.381.045-.829.121t-.864.165c-.277.059-.535.124-.774.2a4.046,4.046,0,0,0-.584.221.929.929,0,0,1-.516.1.584.584,0,0,1-.516-.341.879.879,0,0,1-.045-.725,1.719,1.719,0,0,1,.516-.7,5.506,5.506,0,0,1,.561-.44,3.172,3.172,0,0,1,.595-.318,2.335,2.335,0,0,1,.561-.154,1.055,1.055,0,0,1,.46.033,4.1,4.1,0,0,0,1.211.265,13.933,13.933,0,0,0,1.975.044q.538-.022,1.7-.055t2.659-.056q1.492-.021,3.13-.034t3.119-.01c.344,0,.717,0,1.122-.011s.8-.019,1.2-.034.774-.029,1.132-.043.673-.03.943-.044c.179-.015.277.021.292.11A1.73,1.73,0,0,1,649.252,1134.4Zm-15.526,7.412a2.665,2.665,0,0,0,1.817-1.056,3.534,3.534,0,0,0,.472-.89,6.641,6.641,0,0,0,.291-1.31q.045-.242-.247-.242-.538.045-1.144.077c-.4.023-.838.048-1.3.078-.12,0-.188.066-.2.2a13.321,13.321,0,0,0-.045,1.583q.023.882.09,1.783A.275.275,0,0,1,633.725,1141.813Zm10.231.639a.224.224,0,0,0-.089-.243.243.243,0,0,0-.271.044,3.282,3.282,0,0,1-2,.737,2.784,2.784,0,0,1-1.772-.649,2.094,2.094,0,0,1-.4-.418,1.724,1.724,0,0,1-.247-.627,6.655,6.655,0,0,1-.124-1.077q-.033-.67-.034-1.771a.2.2,0,0,0-.224-.221h-.247a1.238,1.238,0,0,0-.247.023c-.134.029-.2.095-.2.2a8.18,8.18,0,0,1-.45,2.254,3.707,3.707,0,0,1-.807,1.331,3.775,3.775,0,0,1-.9.638,3.125,3.125,0,0,1-.842.287,2.056,2.056,0,0,1-.7.01.965.965,0,0,1-.459-.188,1.183,1.183,0,0,1-.472-.616l.09.749q.045.374.09.7c.014.1.082.154.2.154q1.212-.066,2.041-.1t1.515-.032q.683,0,1.368.032t1.627.1c.359.03.665.051.919.066s.486.022.7.022h1.256a.689.689,0,0,0,.4-.11,1.272,1.272,0,0,0,.18-.528,2.045,2.045,0,0,0,.056-.362C643.93,1142.733,643.941,1142.6,643.956,1142.452Zm-4.846-7.1c0-.176-.082-.248-.247-.22a1.583,1.583,0,0,1-.246.023h-.224a.353.353,0,0,0-.169.032c-.037.023-.056.084-.056.188q.022.352.022.682v.66a.2.2,0,0,0,.224.219h.4c.1,0,.168-.013.19-.043a.258.258,0,0,0,.035-.154c.014-.22.026-.443.033-.671S639.095,1135.6,639.11,1135.347Zm5.115,3.586a.444.444,0,0,0-.124-.362,1.022,1.022,0,0,0-.482-.144q-.853-.066-1.458-.1c-.4-.022-.816-.048-1.234-.077-.165,0-.246.074-.246.22,0,.293.01.557.034.792a1.794,1.794,0,0,0,.123.55,1.51,1.51,0,0,0,1.167.944,3.407,3.407,0,0,0,2.019-.329.142.142,0,0,0,.134-.154c.031-.322.049-.6.057-.847S644.226,1139.021,644.226,1138.933Z" transform="translate(-600.823 -1132.818)" fill="#258a59"/><path d="M638.529,1164.212q.493.352.359.637c-.089.191-.344.242-.762.155-.344-.074-.6-.135-.775-.188a5.786,5.786,0,0,1-.572-.208.6.6,0,0,0-.393-.044,1.982,1.982,0,0,0-.55.242,5.479,5.479,0,0,0-.606.406,3.091,3.091,0,0,0-.4.407,3.341,3.341,0,0,1-1.257.923,3.628,3.628,0,0,1-1.346.2,1.1,1.1,0,0,1-.684-.243,1.392,1.392,0,0,1-.37-.461,1.739,1.739,0,0,1,.089-1.43q.089-.263.169-.572a6.49,6.49,0,0,0,.134-.736c.037-.287.068-.627.09-1.023s.034-.857.034-1.385a6.115,6.115,0,0,0-.079-.914,8.676,8.676,0,0,0-.213-1,1.623,1.623,0,0,1-.09-.528c0-.1-.128-.117-.381-.044a1.418,1.418,0,0,1-1.1-.043,2.2,2.2,0,0,1-.9-1.1q-.292-.616.359-.615a7.2,7.2,0,0,0,3.1-1.1,6.7,6.7,0,0,0,1.223-.815,4.284,4.284,0,0,0,.751-.813,1.035,1.035,0,0,1,1.436-.418q.313.132.36.66a.451.451,0,0,0,.246.352q.314.2.64.418c.217.146.4.278.549.4a1.973,1.973,0,0,1,.516.539.3.3,0,0,1-.112.34.721.721,0,0,1-.807.044q-.651-.308-1.055-.505c-.269-.132-.547-.278-.83-.44a.377.377,0,0,0-.449.022q-.314.242-.572.483a3.221,3.221,0,0,0-.369.4q-.337.352-.628.639t-.584.527c-.075.074-.112.125-.112.154s.037.074.112.131a1.671,1.671,0,0,0,.292.165.522.522,0,0,0,.179.033q.718-.022,1.313-.033t1.245-.011a2.01,2.01,0,0,0,.875-.265.645.645,0,0,1,.347-.044,2.106,2.106,0,0,1,.594.2.866.866,0,0,1,.438.462,1.034,1.034,0,0,1,.056.615,7.053,7.053,0,0,0-.179,1.3,9.425,9.425,0,0,0,0,1.32.83.83,0,0,1-.056.528.79.79,0,0,1-.393.265,1.223,1.223,0,0,1-.852,0,2.968,2.968,0,0,0-1.167-.154q-.516,0-.965.022c-.3.014-.547.029-.74.044-.21,0-.314.109-.314.33v.945q0,.572-.022.946a.484.484,0,0,0,.134.407.783.783,0,0,0,.539.033,4.8,4.8,0,0,0,.471-.131,1.9,1.9,0,0,0,.516-.265c.165-.117.25-.208.258-.275s-.071-.134-.235-.208a1.36,1.36,0,0,1-.718-.474.6.6,0,0,1,.067-.561.918.918,0,0,1,.494-.472,1.27,1.27,0,0,1,.852.143,4.96,4.96,0,0,1,.762.4q.651.374,1.133.682C637.942,1163.8,638.244,1164.007,638.529,1164.212Zm-2.177-3.32a1.2,1.2,0,0,0,0-.484.161.161,0,0,0-.157-.089q-.921-.02-1.469,0c-.367.015-.744.03-1.133.044a.149.149,0,0,0-.146.066.664.664,0,0,0-.034.265,1,1,0,0,0,.022.407.145.145,0,0,0,.134.1q.561.023,1.066,0t1.29-.088a.916.916,0,0,0,.326-.066A.212.212,0,0,0,636.352,1160.892Zm.067-1.914c0-.309-.224-.455-.672-.44-.314.014-.633.026-.954.033s-.7.018-1.133.034a.165.165,0,0,0-.157.077.9.9,0,0,0-.044.363,1.389,1.389,0,0,0,.034.4.138.138,0,0,0,.146.087c.239,0,.449,0,.628-.012s.362-.01.549-.01.389,0,.606-.01.482-.011.8-.011a.16.16,0,0,0,.157-.1A1.2,1.2,0,0,0,636.419,1158.978Zm.269-2.113q.337.156.258.3c-.052.1-.266.143-.64.143a8.083,8.083,0,0,1-.864-.044c-.276-.029-.565-.072-.864-.131-.254-.044-.392-.161-.414-.353s.1-.365.37-.527a1.031,1.031,0,0,1,1.368.022,4.02,4.02,0,0,0,.427.364A2.644,2.644,0,0,0,636.689,1156.865Zm12.206-.109a10.645,10.645,0,0,0-.157,2.53.738.738,0,0,1-.09.429.714.714,0,0,1-.4.318c-.479.162-.733.053-.763-.33q-.044-.528-.123-1.1t-.191-1.253a.808.808,0,0,0-.808-.7q-.718-.066-1.593-.077t-1.694.022q-.818.033-1.492.088a7.714,7.714,0,0,0-.965.121,1.062,1.062,0,0,0-.583.385,2.069,2.069,0,0,0-.314.693c-.075.323-.13.586-.168.791s-.072.47-.1.792a.815.815,0,0,1-.156.43.474.474,0,0,1-.36.121.39.39,0,0,1-.37-.176,2.1,2.1,0,0,1-.146-.747c-.03-.294-.049-.653-.056-1.079s-.012-.813-.012-1.165a2.313,2.313,0,0,1,.146-.991.9.9,0,0,1,.415-.505.759.759,0,0,1,.672.065,1.5,1.5,0,0,0,.7.154,7.141,7.141,0,0,1,1.616-.044c.09,0,.15-.08.179-.242a3.314,3.314,0,0,0,0-.946.747.747,0,0,1,.224-.737,1.067,1.067,0,0,1,.785-.186,1.937,1.937,0,0,1,.718.175.8.8,0,0,1,.359.373,2.934,2.934,0,0,1,.246,1.254c0,.147.046.221.135.221.314-.015.636-.019.965-.012s.628.026.9.055a1.016,1.016,0,0,0,.763-.11.778.778,0,0,1,.538-.186,1.273,1.273,0,0,1,.673.165,1.007,1.007,0,0,1,.494.594A1.651,1.651,0,0,1,648.895,1156.756Zm-1.033,6.906c-.015.131-.026.29-.034.472s-.019.466-.033.846a1.831,1.831,0,0,1-.1.682,1.293,1.293,0,0,1-.348.463,1.415,1.415,0,0,1-1.436.131,2.5,2.5,0,0,0-.459-.1q-.259-.033-.707-.044t-1.111.022q-.662.033-1.671.1c-.059,0-.15.058-.27.176a1.293,1.293,0,0,1-.785.4.7.7,0,0,1-.539-.144.863.863,0,0,1-.314-.561,6.27,6.27,0,0,1-.112-1.209,5.453,5.453,0,0,1,.09-1.078,4.978,4.978,0,0,0,.067-.737q.022-.538.011-1.188t-.045-1.3q-.035-.649-.1-1.088a2.162,2.162,0,0,1,.1-1.253.926.926,0,0,1,.819-.44,1.211,1.211,0,0,1,.437.032.652.652,0,0,1,.258.122.613.613,0,0,0,.337.065c.179-.015.385-.025.617-.033l.673-.022c.216-.008.411-.011.583-.011h.37a1.136,1.136,0,0,0,.74-.088,1.169,1.169,0,0,1,1.751,1.166c-.045.249-.076.461-.09.638s-.023.388-.023.637a1.154,1.154,0,0,1-.168.595.824.824,0,0,1-.393.374,1.324,1.324,0,0,1-1.01.044c-.074-.014-.224-.029-.448-.044s-.482-.025-.775-.033-.587-.008-.886,0-.561.018-.785.033q-.449.045-.4.549a.847.847,0,0,0,.112.43.338.338,0,0,0,.292.121q.964,0,1.638-.011c.449-.008.819-.022,1.11-.045a5.3,5.3,0,0,0,.7-.087,3.206,3.206,0,0,0,.437-.122,1.6,1.6,0,0,1,.8-.153,1.3,1.3,0,0,1,.729.242.956.956,0,0,1,.371.517A2.861,2.861,0,0,1,647.862,1163.663Zm-2.917-3.981c.015-.411-.089-.623-.314-.638-.4-.03-.861-.036-1.369-.023a11.3,11.3,0,0,0-1.346.11.246.246,0,0,0-.246.243,3.3,3.3,0,0,0-.023.383v.319q.023.265.224.265c.523-.03,1.013-.051,1.47-.066s.841-.029,1.155-.044Q644.922,1160.231,644.945,1159.682Zm1.189,4.2a.808.808,0,0,0-.089-.451.341.341,0,0,0-.292-.121c-.1,0-.294,0-.572.01l-.954.022q-.538.012-1.144.044c-.4.021-.785.048-1.144.077a.231.231,0,0,0-.225.264c0,.131,0,.3.012.5s.011.362.011.495a.216.216,0,0,0,.247.242q.47.021,1.043.021t1.087-.021q.516-.023.921-.056a2.36,2.36,0,0,0,.516-.076.737.737,0,0,0,.471-.331A1.376,1.376,0,0,0,646.134,1163.882Z" transform="translate(-600.847 -1133.632)" fill="#258a59"/><path d="M621.26,1137.5a2.719,2.719,0,0,1-.505.846,5.05,5.05,0,0,1-1.042.868,1.905,1.905,0,0,1-.954.309,2.124,2.124,0,0,1-1.088-.2,4.438,4.438,0,0,0-1.065-.219q-.843-.109-2.525-.242c-.314-.03-.614-.052-.9-.066s-.58-.022-.886-.022-.636,0-.988.011-.759.025-1.223.055a1.132,1.132,0,0,0-.572.143.631.631,0,0,0-.213.451,6.072,6.072,0,0,0-.045.781c0,.286.008.51.023.671a2.038,2.038,0,0,0,.729,1.5,5.91,5.91,0,0,0,2.142,1.034,4.4,4.4,0,0,0,1.279.143,8.931,8.931,0,0,0,1.5-.153,7.466,7.466,0,0,0,1.458-.43,4.827,4.827,0,0,0,1.167-.66,1.868,1.868,0,0,1,.628-.4.649.649,0,0,1,.4.044.513.513,0,0,1,.224.242.689.689,0,0,1,.067.4,5.412,5.412,0,0,1-.111.969,1.845,1.845,0,0,1-.348.726,3.5,3.5,0,0,1-.7.648,10.361,10.361,0,0,1-1.178.715,2.075,2.075,0,0,1-.437.131,5.405,5.405,0,0,1-.708.1c-.268.021-.561.036-.874.044a7.629,7.629,0,0,1-.92-.034,12.378,12.378,0,0,1-3.231-.661,5.379,5.379,0,0,1-1.952-1.165,6.375,6.375,0,0,1-.437-.473,2.664,2.664,0,0,1-.337-.528,3.735,3.735,0,0,1-.246-.67,6.732,6.732,0,0,1-.169-.9c-.031-.278-.056-.582-.079-.912a6.9,6.9,0,0,1-.011-.87c.014-.263-.027-.432-.124-.506a.827.827,0,0,0-.549-.065q-1.1.111-2.2.309a14.792,14.792,0,0,0-1.8.417q-.224.066-.516.165c-.195.066-.392.131-.594.2s-.392.132-.571.2l-.45.165a.672.672,0,0,1-.538,0,.367.367,0,0,1-.157-.418c.03-.177.059-.322.09-.439s.059-.22.089-.309a2.2,2.2,0,0,1,.516-.879,3.265,3.265,0,0,1,.943-.528,1.179,1.179,0,0,1,.494-.1,2.969,2.969,0,0,1,.651.144.507.507,0,0,0,.156.022h.259c.111,0,.265-.007.459-.022s.449-.036.763-.066l.64-.055c.246-.023.5-.044.762-.066s.513-.044.752-.066l.584-.056a1.372,1.372,0,0,0,.28-.065.478.478,0,0,0,.224-.187,1.444,1.444,0,0,0,.179-.4c.053-.169.108-.4.169-.692q.135-.66.258-1.122a7.217,7.217,0,0,1,.258-.8,3.684,3.684,0,0,1,.325-.638,5.136,5.136,0,0,1,.482-.626,1.294,1.294,0,0,1,.685-.4,1.033,1.033,0,0,1,.707.021,1.275,1.275,0,0,1,.359.221,2.127,2.127,0,0,1,.224.264.544.544,0,0,1,.068.287,1.559,1.559,0,0,1-.045.362,2.029,2.029,0,0,1-.124.364,2.563,2.563,0,0,1-.146.286q-.426.7-.617,1.11a7.755,7.755,0,0,0-.347.891q-.18.462-.1.616c.052.1.205.147.459.132q.762-.044,1.785-.088t2.388-.087l1.4-.044q.708-.023,1.5-.045l1.7-.044,2.031-.043C621.252,1137.036,621.365,1137.19,621.26,1137.5Z" transform="translate(-599.646 -1132.786)" fill="#258a59"/><path d="M607.14,1160.782a2.7,2.7,0,0,1-.92,1.8,4.136,4.136,0,0,1-2.2.66,1.322,1.322,0,0,0-.36.077.225.225,0,0,0-.134.231q0,1.166-.034,1.815a4.245,4.245,0,0,1-.146,1,.934.934,0,0,1-.337.505,2.523,2.523,0,0,1-.606.286.932.932,0,0,1-.449.089.364.364,0,0,1-.28-.22,1.662,1.662,0,0,1-.125-.638,11.5,11.5,0,0,1,.023-1.187q.089-1.408.157-2.574t.1-2.189q.035-1.023.034-1.957t-.022-1.859c0-.233-.075-.343-.224-.33a1.543,1.543,0,0,0-.516.154,1.041,1.041,0,0,1-.763.154.454.454,0,0,1-.336-.462,1.448,1.448,0,0,1,.224-.8,2.107,2.107,0,0,1,.852-.758,1.071,1.071,0,0,1,.415-.144.99.99,0,0,1,.482.165,1.667,1.667,0,0,0,.415.088q.325.044.73.077c.269.023.538.034.807.034a3.811,3.811,0,0,0,.651-.044,6.961,6.961,0,0,1,1.39-.1,1.98,1.98,0,0,1,.83.21,1.242,1.242,0,0,1,.382.351,1.309,1.309,0,0,1,.213.462,1.556,1.556,0,0,1,.034.495.93.93,0,0,1-.156.451,6.18,6.18,0,0,1-.483.682,7.347,7.347,0,0,1-.549.595.726.726,0,0,0-.2.308,1.219,1.219,0,0,0-.045.418.257.257,0,0,0,.156.177,2.435,2.435,0,0,1,.741.44.246.246,0,0,0,.157.087c.044,0,.1-.043.179-.132a1.987,1.987,0,0,0,.4-.572,3.925,3.925,0,0,0,.27-.88,8.647,8.647,0,0,0,.146-1.166,3.282,3.282,0,0,0-.011-.769,7.217,7.217,0,0,1-.157-.759,2.752,2.752,0,0,1-.044-.648q.043-.726.7-.726a1.133,1.133,0,0,1,.685.165.939.939,0,0,1,.28.627,3.17,3.17,0,0,0,.134.605c.046.11.1.165.18.165.239.014.445.026.617.033s.325.018.46.033l.392.044c.128.015.273.029.438.043a1.063,1.063,0,0,1,.516.143.6.6,0,0,1,.134.406.466.466,0,0,1-.134.43,1.266,1.266,0,0,1-.651.143c-.179.014-.34.025-.482.034s-.281.018-.415.032-.273.031-.415.044-.31.03-.5.045c-.149.015-.232.19-.246.527a1.657,1.657,0,0,0,.111.825.361.361,0,0,0,.4.187,5.38,5.38,0,0,0,.9-.2q.515-.154,1.144-.374a1.943,1.943,0,0,1,.583-.143c.09.007.15.07.18.187a.458.458,0,0,1,.022.241,1.12,1.12,0,0,1-.2.352.318.318,0,0,0-.089.264.165.165,0,0,0,.134.154.934.934,0,0,1,.561.308.9.9,0,0,1,.27.528,1.232,1.232,0,0,1-.09.45,1.111,1.111,0,0,1-.314.429c-.075.073-.1.125-.078.153a.668.668,0,0,0,.3.089l1.167.109c.3.03.53.047.7.056a1.6,1.6,0,0,0,.359-.013.5.5,0,0,0,.18-.065.777.777,0,0,1,.628-.1,1.224,1.224,0,0,1,.628.318,1.356,1.356,0,0,1,.392.627,1.547,1.547,0,0,1-.011.715,11.4,11.4,0,0,0-.213,1.682,10.278,10.278,0,0,0,.01,1.617,1.4,1.4,0,0,1-.112.682,1.176,1.176,0,0,1-.359.451.865.865,0,0,1-.482.176.693.693,0,0,1-.46-.143,2.1,2.1,0,0,0-.7-.352c-.151-.03-.385-.058-.708-.087s-.7-.048-1.132-.056-.905-.012-1.413-.012-1.033.008-1.571.023c-.06,0-.128.065-.2.2a.756.756,0,0,1-.4.318,1.616,1.616,0,0,1-.561.1,1.259,1.259,0,0,1-.516-.1.363.363,0,0,1-.246-.3c-.031-.235-.053-.487-.068-.759s-.022-.561-.022-.868-.008-.62-.023-.936-.037-.616-.067-.9-.059-.535-.09-.748a3.71,3.71,0,0,0-.089-.473.941.941,0,0,1,.516-1.3,1.406,1.406,0,0,1,.73-.142.818.818,0,0,1,.549.252.452.452,0,0,0,.359.176q.381-.042.606-.077a3.351,3.351,0,0,1,.471-.032.321.321,0,0,0,.314-.243c.075-.205.138-.385.191-.539s.116-.356.191-.605c.089-.352.053-.491-.112-.418q-.988.374-1.874.737t-1.649.736a.842.842,0,0,1-.874,0c-.045-.029-.09-.018-.135.033A.9.9,0,0,0,607.14,1160.782Zm-2.76-2.969a2.534,2.534,0,0,0,.718-.616.988.988,0,0,0,.224-.561.51.51,0,0,0-.214-.418.954.954,0,0,0-.594-.165h-.674c-.15,0-.243.026-.28.077a.608.608,0,0,0-.056.319c.014.352.022.616.022.792v.615c0,.162.03.253.089.275a.552.552,0,0,0,.337-.077c.045-.03.108-.067.191-.11S604.305,1157.857,604.38,1157.813Zm1.167,2.618a1.629,1.629,0,0,0-.4-.8,1.349,1.349,0,0,0-.943-.319,1.408,1.408,0,0,0-.549.066.249.249,0,0,0-.124.242v1.8q0,.528.516.4a2.535,2.535,0,0,0,1.2-.627A.962.962,0,0,0,605.547,1160.431Zm9.827,1.979a.756.756,0,0,0-.067-.4.42.42,0,0,0-.292-.109q-1.1-.088-2.321-.1t-2.5.034a.1.1,0,0,0-.079.044.446.446,0,0,0-.033.22v.23a1.02,1.02,0,0,0,.022.209c.014.206.083.308.2.308h1.189q.627,0,1.268.011t1.256.033l1.156.043a.165.165,0,0,0,.146-.109A1.04,1.04,0,0,0,615.374,1162.41Zm-.112,2.112a1.167,1.167,0,0,0,0-.474c-.031-.066-.105-.1-.224-.1q-1.145-.043-2.412-.066t-2.344,0c-.1,0-.157.081-.157.243v.506c0,.19.067.286.2.286q.606.022,1.088.033l.976.022c.329.007.685.01,1.065.01h1.358a.406.406,0,0,0,.325-.1A.849.849,0,0,0,615.262,1164.522Zm5.9-6.049a3.328,3.328,0,0,1-.437,1.045,3.458,3.458,0,0,1-.864.891,3.007,3.007,0,0,1-.527.33,1.149,1.149,0,0,1-.494.109,1.908,1.908,0,0,1-.572-.1,7.916,7.916,0,0,1-.762-.3,7.357,7.357,0,0,0-.853-.318q-.4-.121-.92-.232a5.859,5.859,0,0,1-1.077-.318,3.538,3.538,0,0,1-.807-.43,6.356,6.356,0,0,1-.517-.44,1.156,1.156,0,0,1-.268-.4,1.452,1.452,0,0,1-.1-.495q-.012-.274.012-.737c.014-.248.026-.479.034-.692s.015-.418.022-.617.015-.4.023-.616.018-.443.033-.692a1.435,1.435,0,0,1,.27-.9.519.519,0,0,1,.583-.088,1.532,1.532,0,0,1,.819.54,1.11,1.11,0,0,1,.033.825c-.03.131-.053.238-.067.318s-.03.173-.045.275a.518.518,0,0,0,.011.34c.037.053.138.063.3.033a3,3,0,0,0,.415-.11,2.394,2.394,0,0,0,.4-.187,4.777,4.777,0,0,0,.494-.329q.281-.21.707-.54a1.15,1.15,0,0,1,.8-.264.6.6,0,0,1,.572.308,1.069,1.069,0,0,1-.472,1.495,3.55,3.55,0,0,1-1.222.44,6.591,6.591,0,0,1-1.83.066c-.209-.013-.313.044-.313.176-.031.557.112.888.427.99a9.719,9.719,0,0,0,1.39.319,11.864,11.864,0,0,0,1.515.143,13.3,13.3,0,0,0,1.435-.033,5.039,5.039,0,0,0,1.155-.209c.344-.1.561-.125.651-.066S621.222,1158.223,621.163,1158.473Z" transform="translate(-599.66 -1133.635)" fill="#258a59"/></g><path d="M633.169,1168.327H616.086a17.628,17.628,0,0,1-17.61-17.609v-.991a17.628,17.628,0,0,1,17.61-17.609h17.083a17.629,17.629,0,0,1,17.61,17.609v.991A17.628,17.628,0,0,1,633.169,1168.327Zm-17.083-35.2a16.624,16.624,0,0,0-16.605,16.6v.991a16.624,16.624,0,0,0,16.605,16.6h17.083a16.624,16.624,0,0,0,16.605-16.6v-.991a16.624,16.624,0,0,0-16.605-16.6Z" transform="translate(-598.476 -1132.118)" fill="#258a59"/></g></g></svg>