<svg xmlns="http://www.w3.org/2000/svg" width="53.305" height="41.218" viewBox="0 0 53.305 41.218"><g transform="translate(-567 -1103.364)"><g transform="translate(567 1103.364)"><path d="M588.969,1129.492l-.323-.369a1.633,1.633,0,0,1-1.141.423c-.975,0-1.455-.507-1.455-1.348a1.472,1.472,0,0,1,.772-1.195,1.424,1.424,0,0,1-.449-.934,1.046,1.046,0,0,1,1.051-1.042.993.993,0,0,1,.13.009,1.034,1.034,0,0,1,1.123.934,1.065,1.065,0,0,1,0,.108.929.929,0,0,1-.449.772s-.2.153-.315.229l.741.9a1.389,1.389,0,0,0,.225-.777h.763a2.134,2.134,0,0,1-.472,1.347l.8.939Zm-1.7-1.99a.8.8,0,0,0-.449.674.629.629,0,0,0,.637.621h.033a.921.921,0,0,0,.678-.26Zm.305-1.774a.337.337,0,0,0-.367.3.343.343,0,0,0,0,.057c0,.162.139.315.292.494.063-.036.184-.121.184-.121a.484.484,0,0,0,.256-.373.341.341,0,0,0-.322-.359h-.042Z" transform="translate(-574.246 -1111.604)" fill="#fff"/><path d="M587.477,1129.55c-.97,0-1.5-.49-1.5-1.383a1.491,1.491,0,0,1,.768-1.2,1.423,1.423,0,0,1-.4-.925,1.081,1.081,0,0,1,1.226-1.073,1.069,1.069,0,0,1,1.168.96,1.029,1.029,0,0,1,0,.122.952.952,0,0,1-.449.808l-.279.2.674.8a1.4,1.4,0,0,0,.185-.7v-.045h.853v.049a2.2,2.2,0,0,1-.449,1.348l.831.983h-1.19l-.305-.368A1.654,1.654,0,0,1,587.477,1129.55Zm.076-4.492a1,1,0,0,0-1.136.984,1.388,1.388,0,0,0,.449.9l.032.036-.04.027a1.442,1.442,0,0,0-.773,1.15c0,.835.5,1.293,1.41,1.293a1.579,1.579,0,0,0,1.1-.382l.058-.045.333.4h.9l-.754-.9.027-.027a2.079,2.079,0,0,0,.449-1.3h-.679a1.392,1.392,0,0,1-.234.759l-.031.045-.813-.962.04-.031c.108-.072.314-.225.314-.225a.9.9,0,0,0,.449-.737.984.984,0,0,0-.968-1A1.1,1.1,0,0,0,587.553,1125.058Zm-.081,3.755a.674.674,0,0,1-.713-.632c0-.01,0-.022,0-.032a.858.858,0,0,1,.449-.714h.036v.032l.9,1.069-.032.032a.979.979,0,0,1-.638.252Zm-.229-1.275a.731.731,0,0,0-.39.615.583.583,0,0,0,.591.576h.033a.86.86,0,0,0,.593-.221Zm.229-.921-.036-.041c-.157-.184-.292-.336-.292-.512a.381.381,0,0,1,.357-.4.336.336,0,0,1,.057,0,.39.39,0,0,1,.408.372.284.284,0,0,1,0,.032.534.534,0,0,1-.274.409l-.188.126Zm.086-.867a.291.291,0,0,0-.323.314.8.8,0,0,0,.256.449l.152-.1c.157-.108.234-.216.234-.332a.3.3,0,0,0-.262-.328.284.284,0,0,0-.062,0Z" transform="translate(-574.218 -1111.581)" fill="#fff"/><path d="M597.314,1125.877v1.087h1.743v.768h-1.743v1.8h-.862v-4.416h2.91v.764Z" transform="translate(-578.202 -1111.636)" fill="#fff"/><path d="M597.331,1129.547h-.952v-4.492h3v.845h-2.048v.988h1.742v.858h-1.742Zm-.862-.09h.773v-1.8h1.742v-.674h-1.742v-1.177h2.044v-.678h-2.816Z" transform="translate(-578.174 -1111.614)" fill="#fff"/><path d="M605.853,1129.05a1.707,1.707,0,0,1-2.385,0,3.675,3.675,0,0,1,0-3.521,1.707,1.707,0,0,1,2.385.009,2.23,2.23,0,0,1,.449,1.761C606.3,1128.062,606.3,1128.605,605.853,1129.05Zm-.638-3a.708.708,0,0,0-.553-.233.721.721,0,0,0-.557.233c-.166.188-.211.391-.211,1.24s.045,1.056.211,1.24a.724.724,0,0,0,.557.238.715.715,0,0,0,.553-.238c.166-.184.216-.391.216-1.24S605.4,1126.238,605.216,1126.05Z" transform="translate(-580.7 -1111.611)" fill="#fff"/><path d="M604.641,1129.552a1.652,1.652,0,0,1-1.231-.5,2.175,2.175,0,0,1-.449-1.729v-.121a2.185,2.185,0,0,1,.449-1.734,1.664,1.664,0,0,1,1.231-.494,1.644,1.644,0,0,1,1.222.494,2.234,2.234,0,0,1,.449,1.761v.076a2.238,2.238,0,0,1-.449,1.76h0A1.632,1.632,0,0,1,604.641,1129.552Zm0-4.492a1.567,1.567,0,0,0-1.163.449,2.127,2.127,0,0,0-.423,1.671v.126a2.115,2.115,0,0,0,.423,1.666,1.665,1.665,0,0,0,2.322,0h0a2.106,2.106,0,0,0,.449-1.7v-.063c0-.737,0-1.271-.449-1.7A1.562,1.562,0,0,0,604.641,1125.061Zm0,3.719a.773.773,0,0,1-.607-.246c-.18-.2-.22-.427-.22-1.272s.04-1.065.22-1.267a.774.774,0,0,1,.593-.252.738.738,0,0,1,.584.252c.175.193.229.391.229,1.267s-.054,1.078-.229,1.272a.759.759,0,0,1-.571.252Zm0-2.951a.682.682,0,0,0-.525.22c-.153.171-.2.351-.2,1.208s.045,1.042.2,1.213a.7.7,0,0,0,.525.22.674.674,0,0,0,.517-.22c.157-.175.206-.364.206-1.213s-.05-1.033-.2-1.208h0a.661.661,0,0,0-.521-.216Z" transform="translate(-580.678 -1111.584)" fill="#fff"/><path d="M613.418,1129.047a1.6,1.6,0,0,1-1.19.485,1.619,1.619,0,0,1-1.2-.485,3.675,3.675,0,0,1,0-3.521,1.617,1.617,0,0,1,1.2-.485,1.6,1.6,0,0,1,1.19.494,3.662,3.662,0,0,1,0,3.513Zm-.647-3a.777.777,0,0,0-1.1-.01l-.011.01c-.17.188-.211.39-.211,1.239s.04,1.056.211,1.24a.764.764,0,0,0,1.079.03c.011-.009.02-.02.03-.03.166-.184.216-.391.216-1.24S612.946,1126.235,612.771,1126.047Z" transform="translate(-583.575 -1111.608)" fill="#fff"/><path d="M612.209,1129.552a1.651,1.651,0,0,1-1.231-.5,2.175,2.175,0,0,1-.449-1.729v-.121a2.185,2.185,0,0,1,.449-1.734,1.664,1.664,0,0,1,1.231-.494,1.643,1.643,0,0,1,1.221.494,2.234,2.234,0,0,1,.449,1.761v.076a2.238,2.238,0,0,1-.449,1.76A1.63,1.63,0,0,1,612.209,1129.552Zm0-4.492a1.588,1.588,0,0,0-1.168.449,2.146,2.146,0,0,0-.418,1.671v.126a2.133,2.133,0,0,0,.418,1.666,1.67,1.67,0,0,0,2.327,0,2.187,2.187,0,0,0,.426-1.7v-.063a2.167,2.167,0,0,0-.426-1.7A1.573,1.573,0,0,0,612.209,1125.061Zm0,3.719a.769.769,0,0,1-.593-.252c-.184-.2-.22-.426-.22-1.271s.036-1.065.22-1.267a.774.774,0,0,1,.593-.251.747.747,0,0,1,.584.251c.175.193.229.391.229,1.267s-.054,1.078-.229,1.271a.755.755,0,0,1-.584.257Zm0-2.951a.677.677,0,0,0-.526.22c-.153.171-.2.351-.2,1.208s.045,1.042.2,1.213a.69.69,0,0,0,.526.22.672.672,0,0,0,.516-.22c.157-.175.207-.364.207-1.213s-.049-1.033-.207-1.208h0a.66.66,0,0,0-.516-.216Z" transform="translate(-583.556 -1111.584)" fill="#fff"/><path d="M621.173,1129.1a1.609,1.609,0,0,1-1.168.423h-1.59v-4.411h1.59a1.608,1.608,0,0,1,1.168.422,2.221,2.221,0,0,1,.449,1.765A2.307,2.307,0,0,1,621.173,1129.1Zm-.6-2.951a.767.767,0,0,0-.643-.274h-.651v2.879h.651a.769.769,0,0,0,.643-.274c.162-.2.188-.517.188-1.186S620.733,1126.347,620.571,1126.15Z" transform="translate(-586.556 -1111.635)" fill="#fff"/><path d="M619.978,1129.546h-1.635v-4.492h1.635a1.634,1.634,0,0,1,1.2.449,2.107,2.107,0,0,1,.449,1.631v.332a2.2,2.2,0,0,1-.449,1.671h0A1.659,1.659,0,0,1,619.978,1129.546Zm-1.558-.09h1.545a1.576,1.576,0,0,0,1.149-.408h0a2.051,2.051,0,0,0,.449-1.609v-.332a1.954,1.954,0,0,0-.449-1.568,1.545,1.545,0,0,0-1.136-.408h-1.558Zm1.469-.678h-.682v-2.969h.7a.819.819,0,0,1,.679.288h0c.166.207.2.476.2,1.177s-.031,1.006-.2,1.213a.823.823,0,0,1-.679.292Zm-.57-.095h.584a.71.71,0,0,0,.607-.26c.157-.188.157-.485.157-1.15s-.022-.934-.175-1.119a.722.722,0,0,0-.607-.256h-.566Z" transform="translate(-586.528 -1111.613)" fill="#fff"/><path d="M628.486,1129.524v-1.851h-1.5v1.851h-.863v-4.411h.863v1.8h1.5v-1.8h.863v4.416Z" transform="translate(-589.489 -1111.636)" fill="#fff"/><path d="M629.366,1129.547h-.952v-1.85h-1.406v1.85h-.952v-4.492h.952v1.8h1.406v-1.8h.952Zm-.863-.09h.773v-4.325H628.5v1.8h-1.586v-1.8h-.773v4.325h.773v-1.85H628.5Z" transform="translate(-589.462 -1111.614)" fill="#fff"/><path d="M636.119,1129.524l-.261-.782h-1.567l-.27.782h-.9l1.608-4.411h.674l1.613,4.416Zm-1.029-3.113-.557,1.6h1.1Z" transform="translate(-592.15 -1111.636)" fill="#fff"/><path d="M637.028,1129.539h-.979l-.26-.781h-1.505l-.27.781h-.993v-.063l1.617-4.442h.737v.027Zm-.9-.09h.8l-1.581-4.325h-.629l-1.577,4.325h.8l.27-.781h1.63Zm-.449-1.419h-1.249v-.059l.6-1.729Zm-1.1-.09h.97l-.5-1.424Z" transform="translate(-592.111 -1111.606)" fill="#fff"/><path d="M641.213,1129.524v-4.411h.862v3.647h2v.769Z" transform="translate(-595.227 -1111.636)" fill="#fff"/><path d="M644.1,1129.547H641.14v-4.492h.952v3.629h2Zm-2.866-.09h2.776v-.678h-2v-3.647h-.773Z" transform="translate(-595.199 -1111.614)" fill="#fff"/><path d="M648.084,1129.524v-4.411h.863v3.647h2v.769Z" transform="translate(-597.84 -1111.636)" fill="#fff"/><path d="M650.967,1129.547h-2.955v-4.492h.952v3.629h2Zm-2.865-.09h2.776v-.678h-2v-3.647h-.755Z" transform="translate(-597.813 -1111.614)" fill="#fff"/><rect width="19.66" height="0.629" transform="translate(33.521 0.833)" fill="#fff"/><rect width="19.66" height="0.629" transform="translate(0 0.833)" fill="#fff"/><path d="M602.164,1104.794h-.449v.849h-.449v-2.277h.9a.7.7,0,0,1,.744.645c0,.02,0,.04,0,.06a.7.7,0,0,1-.685.707.466.466,0,0,1-.06,0m-.023-1h-.413v.615h.413a.3.3,0,0,0,.346-.237.318.318,0,0,0,.005-.068.3.3,0,0,0-.288-.314A.275.275,0,0,0,602.141,1103.779Z" transform="translate(-580.033 -1103.364)" fill="#fff"/><path d="M605.878,1105.664l-.13-.4h-.8l-.134.4h-.449l.822-2.246h.346l.826,2.246h-.449m-.553-1.594-.283.822h.557Z" transform="translate(-581.21 -1103.385)" fill="#fff"/><path d="M609.68,1105.643l-.449-.9h-.319v.9h-.449v-2.277h.9a.683.683,0,0,1,.731.631.5.5,0,0,1,0,.061.605.605,0,0,1-.413.592l.507.975h-.507m-.341-1.846h-.418v.593h.418a.3.3,0,1,0,.033-.594Z" transform="translate(-582.771 -1103.364)" fill="#fff"/><path d="M612.969,1105.661a.831.831,0,0,1-.607-.247c-.229-.229-.224-.512-.224-.9a1.154,1.154,0,0,1,.224-.9.832.832,0,0,1,.607-.251.8.8,0,0,1,.845.714h-.449a.369.369,0,0,0-.382-.319.356.356,0,0,0-.283.117c-.086.094-.108.2-.108.638s.022.539.108.633a.357.357,0,0,0,.283.121.379.379,0,0,0,.382-.324h.449a.8.8,0,0,1-.831.714" transform="translate(-584.168 -1103.364)" fill="#fff"/><path d="M617.259,1105.415a.813.813,0,0,1-.606.247.845.845,0,0,1-.615-.247,1.94,1.94,0,0,1,0-1.8.845.845,0,0,1,.615-.252.814.814,0,0,1,.606.247c.229.229.225.512.225.9a1.156,1.156,0,0,1-.225.9m-.328-1.536a.36.36,0,0,0-.278-.117.376.376,0,0,0-.288.117c-.086.1-.108.2-.108.638s0,.538.108.633a.381.381,0,0,0,.288.121.36.36,0,0,0,.278-.1c.09-.095.112-.2.112-.633s-.04-.553-.112-.651Z" transform="translate(-585.561 -1103.365)" fill="#fff"/><path d="M569.614,1114.17l-.961-1.967h-.692v1.967H567v-4.941h1.931a1.491,1.491,0,0,1,1.595,1.379c0,.043,0,.087,0,.13a1.348,1.348,0,0,1-.9,1.294l1.1,2.138h-1.114m-.746-4.083h-.9v1.3h.9a.651.651,0,0,0,.108-1.3A.67.67,0,0,0,568.868,1110.087Z" transform="translate(-567 -1105.593)" fill="#fff"/><path d="M575.285,1114.181v-4.927h3.247v.858h-2.286v1.154h1.945v.858h-1.945v1.2h2.286v.858h-3.247" transform="translate(-570.151 -1105.604)" fill="#fff"/><path d="M584.533,1114.186a2.313,2.313,0,0,1-1.8-.651l.625-.624a1.6,1.6,0,0,0,1.19.418c.566,0,.872-.215.872-.611a.553.553,0,0,0-.153-.413.735.735,0,0,0-.449-.175l-.592-.081a1.67,1.67,0,0,1-.957-.409,1.307,1.307,0,0,1-.355-.97,1.547,1.547,0,0,1,1.747-1.505,2.129,2.129,0,0,1,1.572.584l-.611.606a1.351,1.351,0,0,0-1.011-.342c-.512,0-.759.283-.759.625a.448.448,0,0,0,.144.35.852.852,0,0,0,.449.193l.579.085a1.6,1.6,0,0,1,.943.382,1.378,1.378,0,0,1,.377,1.042c0,.957-.8,1.5-1.824,1.5" transform="translate(-572.986 -1105.569)" fill="#fff"/><path d="M592.642,1110.111v4.07h-.961v-4.07h-1.289v-.858h3.535v.858h-1.285" transform="translate(-575.897 -1105.604)" fill="#fff"/><path d="M600.417,1114.172l-.292-.871h-1.752l-.3.871h-1l1.8-4.941h.755l1.8,4.941h-1.006m-1.15-3.476-.624,1.8h1.226Z" transform="translate(-578.439 -1105.596)" fill="#fff"/><path d="M607.693,1114.221a1.715,1.715,0,0,1-1.795-1.633c0-.032,0-.064,0-.1v-3.239h.961v3.2a.858.858,0,1,0,1.711.124.807.807,0,0,0,0-.124v-3.2h.952v3.239a1.712,1.712,0,0,1-1.691,1.731c-.035,0-.07,0-.105,0" transform="translate(-581.794 -1105.604)" fill="#fff"/><path d="M617.115,1114.17l-.962-1.967h-.692v1.967H614.5v-4.941h1.931a1.491,1.491,0,0,1,1.595,1.379c0,.043,0,.087,0,.13a1.347,1.347,0,0,1-.9,1.294l1.1,2.124h-1.118m-.746-4.069h-.9v1.3h.9a.651.651,0,0,0,.109-1.3A.671.671,0,0,0,616.369,1110.087Z" transform="translate(-585.067 -1105.593)" fill="#fff"/><path d="M625.48,1114.172l-.292-.871h-1.734l-.3.871h-1.024l1.8-4.941h.75l1.8,4.941h-1m-1.127-3.476-.625,1.8h1.226Z" transform="translate(-587.97 -1105.596)" fill="#fff"/><path d="M634.084,1114.181l-1.949-3.023v3.023h-.961v-4.927h.858l1.949,3.018v-3.018h.961v4.927h-.858" transform="translate(-591.408 -1105.604)" fill="#fff"/><path d="M641.89,1110.111v4.07h-.961v-4.07H639.64v-.858h3.535v.858H641.89" transform="translate(-594.629 -1105.604)" fill="#fff"/><path d="M648.772,1114.2a2.307,2.307,0,0,1-1.8-.647l.62-.624a1.619,1.619,0,0,0,1.19.413c.566,0,.872-.211.872-.607a.557.557,0,0,0-.135-.413.735.735,0,0,0-.449-.17l-.592-.085a1.7,1.7,0,0,1-.957-.4,1.317,1.317,0,0,1-.351-.97,1.506,1.506,0,0,1,1.716-1.5,2.107,2.107,0,0,1,1.59.575l-.606.6a1.379,1.379,0,0,0-1.011-.337c-.512,0-.764.283-.764.62a.483.483,0,0,0,.144.355.849.849,0,0,0,.449.193l.579.081a1.63,1.63,0,0,1,.944.382,1.376,1.376,0,0,1,.382,1.047c0,.953-.795,1.492-1.828,1.492" transform="translate(-597.419 -1105.579)" fill="#fff"/><rect width="53.181" height="0.629" transform="translate(0 10.544)" fill="#fff"/></g><g transform="translate(586.504 1121.181)"><g transform="translate(0.725 0.414)"><path d="M641.818,1134.106a1.41,1.41,0,0,1-.327.469,1.941,1.941,0,0,1-.464.327,1.778,1.778,0,0,1-.507.17,1.307,1.307,0,0,1-.472,0l-.551-.128c-.164-.038-.328-.074-.493-.107s-.334-.066-.508-.1-.372-.068-.595-.107a4.007,4.007,0,0,0-.493-.042q-.334-.015-.8-.015a.136.136,0,0,0-.145.113c-.029.162-.053.313-.073.455s-.039.294-.058.455q-.029.156.145.156.943.015,1.711.085a2.04,2.04,0,0,0,.326-.036.775.775,0,0,0,.327-.12.275.275,0,0,1,.159-.057,1.1,1.1,0,0,1,.247,0,1.943,1.943,0,0,1,.246.042.381.381,0,0,1,.174.086,1.62,1.62,0,0,1,.261.284.737.737,0,0,1,.116.263.814.814,0,0,1,.008.291,3.57,3.57,0,0,1-.079.383c-.049.18-.085.342-.109.484s-.043.322-.058.54-.022.509-.022.874v1.47a1.114,1.114,0,0,1-.275.81,1.221,1.221,0,0,1-.7.356.845.845,0,0,1-.667-.3,1.834,1.834,0,0,0-.711-.142q-.609-.056-1.508-.071t-1.979.014q-1.08.03-2.109.114c-.049,0-.078.019-.087.056a.7.7,0,0,1-.319.235.9.9,0,0,1-.392.064.744.744,0,0,1-.34-.064.445.445,0,0,1-.2-.235,1.59,1.59,0,0,1-.1-.462c-.019-.194-.034-.438-.043-.732q-.015-.638-.029-1.066c-.01-.284-.022-.533-.036-.746s-.034-.412-.058-.6-.056-.391-.094-.618a1.424,1.424,0,0,1,.065-.9.8.8,0,0,1,.5-.426.779.779,0,0,1,.769.128.156.156,0,0,0,.116.043c.27-.019.555-.033.855-.043s.6-.014.913-.014a.127.127,0,0,0,.145-.142v-.405c0-.137,0-.287-.014-.448,0-.085-.048-.128-.145-.128q-.74.029-1.378.071c-.426.029-.768.056-1.03.085q-.246.029-.536.078t-.558.107c-.179.038-.346.08-.5.128a2.617,2.617,0,0,0-.377.143.6.6,0,0,1-.333.063.377.377,0,0,1-.333-.22.568.568,0,0,1-.029-.468,1.111,1.111,0,0,1,.333-.455,3.567,3.567,0,0,1,.362-.285,2.058,2.058,0,0,1,.384-.206,1.51,1.51,0,0,1,.363-.1.682.682,0,0,1,.3.021,2.647,2.647,0,0,0,.783.171,9.008,9.008,0,0,0,1.276.029c.232-.009.6-.022,1.1-.035s1.075-.026,1.718-.036,1.317-.016,2.023-.022,1.377-.007,2.016-.007c.223,0,.464,0,.725-.007s.519-.012.776-.022.5-.018.732-.028.435-.019.609-.028c.116-.01.179.014.188.071A1.12,1.12,0,0,1,641.818,1134.106Zm-10.034,4.79a1.723,1.723,0,0,0,1.174-.682,2.286,2.286,0,0,0,.3-.575,4.287,4.287,0,0,0,.188-.846q.029-.156-.16-.156-.348.029-.739.05c-.261.015-.542.031-.841.05-.077,0-.121.043-.131.128a8.605,8.605,0,0,0-.029,1.023q.015.57.058,1.152A.177.177,0,0,1,631.784,1138.9Zm6.612.413a.145.145,0,0,0-.058-.157.157.157,0,0,0-.175.029,2.121,2.121,0,0,1-1.29.476,1.8,1.8,0,0,1-1.145-.419,1.353,1.353,0,0,1-.261-.27,1.114,1.114,0,0,1-.159-.405,4.294,4.294,0,0,1-.08-.7q-.021-.433-.022-1.145a.127.127,0,0,0-.145-.143H634.9a.8.8,0,0,0-.16.015c-.087.019-.13.061-.13.128a5.287,5.287,0,0,1-.291,1.457,2.4,2.4,0,0,1-.522.86,2.436,2.436,0,0,1-.579.412,2.018,2.018,0,0,1-.544.185,1.329,1.329,0,0,1-.45.007.623.623,0,0,1-.3-.121.764.764,0,0,1-.3-.4l.058.484q.029.242.058.454c.009.067.053.1.13.1q.783-.043,1.319-.064t.979-.021q.441,0,.884.021t1.052.064c.232.019.43.033.594.043s.314.014.45.014h.812a.445.445,0,0,0,.261-.071.821.821,0,0,0,.117-.341,1.318,1.318,0,0,0,.036-.234C638.379,1139.49,638.386,1139.4,638.4,1139.308Zm-3.132-4.592c0-.114-.053-.161-.16-.142a1.017,1.017,0,0,1-.159.015H634.8a.228.228,0,0,0-.109.021c-.024.015-.036.055-.036.121q.014.228.014.441v.426a.127.127,0,0,0,.145.142h.261c.068,0,.108-.009.123-.028a.167.167,0,0,0,.022-.1c.009-.143.017-.286.021-.434S635.254,1134.878,635.264,1134.717Zm3.306,2.317a.287.287,0,0,0-.08-.234.659.659,0,0,0-.312-.093q-.551-.043-.943-.064c-.261-.014-.527-.031-.8-.05-.107,0-.159.048-.159.142,0,.19.007.36.022.512a1.159,1.159,0,0,0,.079.356.976.976,0,0,0,.754.61,2.2,2.2,0,0,0,1.3-.213.092.092,0,0,0,.087-.1c.02-.208.032-.391.037-.547S638.57,1137.091,638.57,1137.034Z" transform="translate(-610.521 -1133.082)" fill="#fff"/><path d="M635.1,1160.374q.319.228.232.412c-.058.123-.222.156-.493.1-.222-.048-.389-.087-.5-.121a3.737,3.737,0,0,1-.369-.134.385.385,0,0,0-.254-.029,1.282,1.282,0,0,0-.355.156,3.532,3.532,0,0,0-.392.263,1.993,1.993,0,0,0-.261.263,2.16,2.16,0,0,1-.812.6,2.345,2.345,0,0,1-.87.128.712.712,0,0,1-.442-.157.9.9,0,0,1-.239-.3,1.124,1.124,0,0,1,.058-.924q.058-.17.109-.37a4.187,4.187,0,0,0,.087-.476c.024-.185.044-.405.058-.661s.022-.554.022-.895a3.947,3.947,0,0,0-.051-.591,5.6,5.6,0,0,0-.138-.646,1.049,1.049,0,0,1-.058-.341c0-.066-.082-.076-.246-.029a.917.917,0,0,1-.711-.028,1.424,1.424,0,0,1-.58-.712q-.189-.4.232-.4a4.652,4.652,0,0,0,2-.71,4.325,4.325,0,0,0,.791-.527,2.771,2.771,0,0,0,.485-.526.669.669,0,0,1,.928-.27q.2.085.232.426a.292.292,0,0,0,.159.228c.135.085.273.176.413.27s.258.179.355.256a1.276,1.276,0,0,1,.333.348.2.2,0,0,1-.072.22.466.466,0,0,1-.522.028q-.421-.2-.682-.327c-.174-.085-.353-.18-.537-.285a.243.243,0,0,0-.29.014q-.2.156-.37.312a2.07,2.07,0,0,0-.239.256q-.218.228-.406.413t-.377.341c-.048.048-.073.08-.073.1s.024.048.073.085a1.075,1.075,0,0,0,.188.107.338.338,0,0,0,.116.022q.464-.014.848-.022t.8-.007a1.3,1.3,0,0,0,.566-.171.417.417,0,0,1,.224-.029,1.359,1.359,0,0,1,.384.128.56.56,0,0,1,.283.3.668.668,0,0,1,.036.4,4.551,4.551,0,0,0-.116.838,6.08,6.08,0,0,0,0,.853.536.536,0,0,1-.036.341.511.511,0,0,1-.254.171.792.792,0,0,1-.551,0,1.917,1.917,0,0,0-.754-.1q-.334,0-.623.014c-.193.009-.353.019-.478.028s-.2.071-.2.213v.611q0,.37-.014.612a.313.313,0,0,0,.087.263.506.506,0,0,0,.348.021,3.108,3.108,0,0,0,.3-.085,1.227,1.227,0,0,0,.333-.171c.107-.076.162-.135.167-.178s-.046-.087-.152-.135a.879.879,0,0,1-.464-.306.387.387,0,0,1,.043-.362.594.594,0,0,1,.319-.3.821.821,0,0,1,.551.092,3.213,3.213,0,0,1,.493.256q.421.242.732.441C634.721,1160.109,634.916,1160.241,635.1,1160.374Zm-1.407-2.146a.771.771,0,0,0,0-.313.1.1,0,0,0-.1-.058q-.6-.013-.949,0l-.732.029a.1.1,0,0,0-.094.043.429.429,0,0,0-.022.171.645.645,0,0,0,.014.263.094.094,0,0,0,.087.064q.362.015.689,0t.833-.057a.59.59,0,0,0,.211-.043A.137.137,0,0,0,633.693,1158.228Zm.043-1.237c0-.2-.145-.294-.434-.285-.2.009-.409.017-.617.021s-.452.012-.732.022a.107.107,0,0,0-.1.05.583.583,0,0,0-.029.235.9.9,0,0,0,.022.256.089.089,0,0,0,.094.056c.154,0,.29,0,.406-.008s.234-.007.355-.007.252,0,.392-.007.312-.007.515-.007a.1.1,0,0,0,.1-.064A.775.775,0,0,0,633.737,1156.991Zm.174-1.365q.218.1.167.192c-.033.062-.172.092-.413.092a5.213,5.213,0,0,1-.558-.028c-.178-.019-.365-.047-.558-.085-.164-.029-.253-.1-.268-.228s.065-.236.239-.341a.666.666,0,0,1,.884.014,2.593,2.593,0,0,0,.276.235A1.711,1.711,0,0,0,633.911,1155.626Zm7.888-.071a6.878,6.878,0,0,0-.1,1.635.477.477,0,0,1-.058.277.461.461,0,0,1-.261.206c-.31.1-.473.034-.493-.213q-.029-.341-.079-.71t-.123-.81a.522.522,0,0,0-.522-.455q-.464-.043-1.029-.05t-1.095.014q-.529.021-.964.057a4.977,4.977,0,0,0-.623.078.687.687,0,0,0-.377.248,1.338,1.338,0,0,0-.2.448c-.048.209-.084.379-.108.511s-.047.3-.066.512a.527.527,0,0,1-.1.278.307.307,0,0,1-.232.078.252.252,0,0,1-.239-.114,1.356,1.356,0,0,1-.094-.483c-.019-.19-.032-.422-.036-.7s-.008-.526-.008-.753a1.494,1.494,0,0,1,.094-.64.582.582,0,0,1,.268-.327.491.491,0,0,1,.434.042.967.967,0,0,0,.45.1,4.615,4.615,0,0,1,1.044-.029c.058,0,.1-.052.116-.156a2.142,2.142,0,0,0,0-.611.483.483,0,0,1,.145-.476.69.69,0,0,1,.508-.12,1.253,1.253,0,0,1,.464.113.513.513,0,0,1,.232.241,1.9,1.9,0,0,1,.159.81c0,.095.03.143.087.143.2-.009.411-.013.623-.008s.406.017.58.035a.656.656,0,0,0,.493-.071.5.5,0,0,1,.348-.12.824.824,0,0,1,.435.107.651.651,0,0,1,.319.384A1.067,1.067,0,0,1,641.8,1155.556Zm-.667,4.463c-.01.085-.017.187-.022.305s-.012.3-.022.547a1.184,1.184,0,0,1-.065.441.835.835,0,0,1-.225.3.914.914,0,0,1-.928.085,1.614,1.614,0,0,0-.3-.064q-.167-.021-.457-.029t-.718.014q-.428.021-1.08.064c-.038,0-.1.037-.174.113a.836.836,0,0,1-.507.256.451.451,0,0,1-.348-.093.558.558,0,0,1-.2-.362,4.052,4.052,0,0,1-.072-.781,3.53,3.53,0,0,1,.058-.7,3.218,3.218,0,0,0,.043-.476q.014-.348.007-.768t-.029-.838q-.022-.419-.066-.7a1.4,1.4,0,0,1,.066-.81.6.6,0,0,1,.529-.284.782.782,0,0,1,.283.021.422.422,0,0,1,.167.079.4.4,0,0,0,.217.042c.116-.009.249-.016.4-.021l.435-.014c.139-.005.266-.007.377-.007h.239a.734.734,0,0,0,.478-.057.755.755,0,0,1,1.131.753c-.029.161-.049.3-.058.412s-.015.251-.015.411a.745.745,0,0,1-.108.384.532.532,0,0,1-.254.242.856.856,0,0,1-.652.029c-.048-.009-.144-.019-.289-.029s-.312-.016-.5-.021-.379-.005-.573,0-.363.012-.507.021q-.29.029-.261.355a.547.547,0,0,0,.072.278.219.219,0,0,0,.188.078q.623,0,1.058-.007c.29-.005.529-.014.717-.029a3.429,3.429,0,0,0,.45-.056,2.084,2.084,0,0,0,.283-.078,1.033,1.033,0,0,1,.515-.1.838.838,0,0,1,.471.156.618.618,0,0,1,.24.334A1.848,1.848,0,0,1,641.132,1160.019Zm-1.885-2.573c.01-.266-.058-.4-.2-.412-.261-.019-.556-.024-.885-.015a7.31,7.31,0,0,0-.87.071.159.159,0,0,0-.159.157,2.134,2.134,0,0,0-.015.248v.206q.015.171.145.171c.338-.019.655-.033.95-.043s.543-.019.747-.029Q639.232,1157.8,639.247,1157.446Zm.768,2.715a.522.522,0,0,0-.058-.291.22.22,0,0,0-.189-.078c-.068,0-.19,0-.369.007l-.617.014q-.348.007-.739.028c-.261.014-.508.031-.739.05a.149.149,0,0,0-.146.171c0,.085,0,.192.008.32s.007.234.007.32a.14.14,0,0,0,.16.156q.3.014.674.013t.7-.013q.334-.015.595-.036a1.522,1.522,0,0,0,.333-.049.476.476,0,0,0,.3-.214A.889.889,0,0,0,640.015,1160.161Z" transform="translate(-610.748 -1140.612)" fill="#fff"/><path d="M613.614,1135.831a1.757,1.757,0,0,1-.327.547,3.264,3.264,0,0,1-.674.561,1.231,1.231,0,0,1-.617.2,1.373,1.373,0,0,1-.7-.128,2.875,2.875,0,0,0-.688-.142q-.545-.071-1.631-.156c-.2-.019-.4-.034-.58-.043s-.375-.014-.573-.014-.411,0-.638.007-.491.016-.79.035a.731.731,0,0,0-.37.092.407.407,0,0,0-.138.291,3.918,3.918,0,0,0-.029.5c0,.185.005.33.015.434a1.317,1.317,0,0,0,.471.967,3.815,3.815,0,0,0,1.384.668,2.841,2.841,0,0,0,.827.092,5.761,5.761,0,0,0,.972-.1,4.826,4.826,0,0,0,.943-.278,3.124,3.124,0,0,0,.754-.426,1.207,1.207,0,0,1,.406-.256.42.42,0,0,1,.261.029.331.331,0,0,1,.145.156.445.445,0,0,1,.043.256,3.486,3.486,0,0,1-.072.626,1.192,1.192,0,0,1-.225.469,2.262,2.262,0,0,1-.449.419,6.7,6.7,0,0,1-.762.462,1.342,1.342,0,0,1-.283.085,3.514,3.514,0,0,1-.457.064c-.174.014-.362.023-.565.029a4.911,4.911,0,0,1-.594-.022,8,8,0,0,1-2.088-.427,3.475,3.475,0,0,1-1.262-.753,4.111,4.111,0,0,1-.283-.305,1.722,1.722,0,0,1-.218-.341,2.418,2.418,0,0,1-.159-.433,4.356,4.356,0,0,1-.109-.583c-.02-.18-.036-.376-.051-.589a4.468,4.468,0,0,1-.007-.562c.009-.17-.017-.279-.08-.327a.535.535,0,0,0-.355-.042q-.711.071-1.421.2a9.575,9.575,0,0,0-1.161.27c-.1.028-.208.064-.333.107l-.384.128c-.13.043-.254.085-.369.128l-.291.107a.434.434,0,0,1-.348,0,.237.237,0,0,1-.1-.27c.019-.114.038-.208.058-.284s.038-.142.058-.2a1.422,1.422,0,0,1,.333-.568,2.114,2.114,0,0,1,.609-.341.76.76,0,0,1,.319-.064,1.919,1.919,0,0,1,.421.093.328.328,0,0,0,.1.014h.167c.072,0,.171,0,.3-.014s.29-.023.493-.043l.413-.035c.159-.015.323-.029.493-.043l.486-.043.378-.036a.879.879,0,0,0,.181-.042.308.308,0,0,0,.145-.121.929.929,0,0,0,.116-.256c.034-.109.07-.259.109-.447q.087-.427.167-.725a4.665,4.665,0,0,1,.167-.519,2.379,2.379,0,0,1,.21-.412,3.323,3.323,0,0,1,.312-.4.837.837,0,0,1,.443-.256.668.668,0,0,1,.457.014.824.824,0,0,1,.232.142,1.389,1.389,0,0,1,.145.17.353.353,0,0,1,.044.185,1,1,0,0,1-.029.234,1.305,1.305,0,0,1-.08.235,1.671,1.671,0,0,1-.094.185q-.275.454-.4.717a5.013,5.013,0,0,0-.224.576q-.116.3-.065.4c.033.066.133.095.3.086q.493-.029,1.153-.057t1.543-.056l.907-.028.972-.029,1.1-.029,1.312-.028C613.609,1135.533,613.682,1135.632,613.614,1135.831Z" transform="translate(-599.646 -1132.786)" fill="#fff"/><path d="M604.615,1158.182a1.745,1.745,0,0,1-.594,1.165,2.673,2.673,0,0,1-1.421.427.856.856,0,0,0-.232.049.145.145,0,0,0-.087.149q0,.754-.022,1.173a2.742,2.742,0,0,1-.094.646.6.6,0,0,1-.218.327,1.632,1.632,0,0,1-.392.185.6.6,0,0,1-.29.057.235.235,0,0,1-.181-.142,1.074,1.074,0,0,1-.081-.412,7.429,7.429,0,0,1,.015-.767q.058-.91.1-1.663t.065-1.415q.022-.661.022-1.265t-.014-1.2c0-.151-.048-.222-.145-.213a1,1,0,0,0-.333.1.673.673,0,0,1-.493.1.293.293,0,0,1-.217-.3.936.936,0,0,1,.145-.519,1.361,1.361,0,0,1,.551-.49.693.693,0,0,1,.268-.093.639.639,0,0,1,.312.106,1.073,1.073,0,0,0,.268.057q.21.029.471.05c.174.015.348.022.522.022a2.472,2.472,0,0,0,.421-.029,4.49,4.49,0,0,1,.9-.064,1.28,1.28,0,0,1,.536.136.8.8,0,0,1,.247.227.846.846,0,0,1,.138.3,1.006,1.006,0,0,1,.022.32.6.6,0,0,1-.1.291,4.007,4.007,0,0,1-.312.441,4.741,4.741,0,0,1-.355.384.469.469,0,0,0-.13.2.789.789,0,0,0-.029.27.166.166,0,0,0,.1.114,1.572,1.572,0,0,1,.479.284.159.159,0,0,0,.1.056c.028,0,.067-.028.116-.085a1.284,1.284,0,0,0,.261-.37,2.534,2.534,0,0,0,.174-.569,5.588,5.588,0,0,0,.094-.753,2.121,2.121,0,0,0-.007-.5,4.66,4.66,0,0,1-.1-.491,1.777,1.777,0,0,1-.029-.419q.028-.469.449-.469a.732.732,0,0,1,.442.107.607.607,0,0,1,.181.405,2.045,2.045,0,0,0,.087.391c.03.071.068.106.117.106.154.009.287.017.4.021s.21.012.3.022l.253.028c.082.009.177.019.283.028a.686.686,0,0,1,.333.092.389.389,0,0,1,.087.263.3.3,0,0,1-.087.278.82.82,0,0,1-.421.092c-.116.009-.22.016-.312.022s-.182.012-.268.02-.177.02-.268.029-.2.019-.326.029c-.1.009-.15.123-.159.341a1.07,1.07,0,0,0,.072.533.234.234,0,0,0,.261.121,3.478,3.478,0,0,0,.58-.128q.333-.1.739-.242a1.254,1.254,0,0,1,.377-.092c.058,0,.1.045.117.121a.3.3,0,0,1,.014.156.722.722,0,0,1-.131.228.205.205,0,0,0-.058.17.107.107,0,0,0,.087.1.6.6,0,0,1,.362.2.581.581,0,0,1,.174.342.8.8,0,0,1-.058.291.717.717,0,0,1-.2.277c-.048.047-.066.081-.051.1a.432.432,0,0,0,.2.057l.754.071c.193.019.343.03.449.036a1.037,1.037,0,0,0,.232-.008.328.328,0,0,0,.116-.042.5.5,0,0,1,.406-.064.791.791,0,0,1,.406.206.877.877,0,0,1,.253.405,1,1,0,0,1-.007.462,7.362,7.362,0,0,0-.138,1.087,6.64,6.64,0,0,0,.007,1.045.908.908,0,0,1-.073.441.76.76,0,0,1-.232.291.559.559,0,0,1-.312.114.448.448,0,0,1-.3-.092,1.357,1.357,0,0,0-.449-.227c-.1-.019-.249-.038-.457-.056s-.452-.031-.732-.036-.585-.008-.913-.008-.667.005-1.015.015c-.039,0-.082.042-.131.128a.489.489,0,0,1-.261.206,1.042,1.042,0,0,1-.362.064.812.812,0,0,1-.333-.064.235.235,0,0,1-.159-.191c-.02-.152-.034-.315-.044-.491s-.014-.363-.014-.561,0-.4-.015-.6-.024-.4-.043-.583-.038-.346-.058-.483a2.4,2.4,0,0,0-.058-.306.608.608,0,0,1,.333-.839.908.908,0,0,1,.472-.092.529.529,0,0,1,.355.163.292.292,0,0,0,.232.114q.246-.027.392-.05a2.155,2.155,0,0,1,.3-.021.207.207,0,0,0,.2-.157c.048-.133.089-.249.123-.348s.075-.23.123-.391c.058-.227.034-.317-.073-.27q-.638.242-1.211.476t-1.066.476a.544.544,0,0,1-.565,0c-.029-.019-.058-.012-.087.021A.58.58,0,0,0,604.615,1158.182Zm-1.783-1.919a1.638,1.638,0,0,0,.464-.4.638.638,0,0,0,.145-.362.33.33,0,0,0-.138-.27.617.617,0,0,0-.384-.106h-.436c-.1,0-.157.017-.181.049a.393.393,0,0,0-.036.206q.014.341.014.512v.4c0,.1.019.164.058.178a.356.356,0,0,0,.218-.049c.029-.019.07-.043.123-.071S602.783,1156.291,602.832,1156.263Zm.754,1.692a1.053,1.053,0,0,0-.261-.519.871.871,0,0,0-.609-.206.911.911,0,0,0-.355.043.161.161,0,0,0-.08.156v1.166q0,.341.333.256a1.638,1.638,0,0,0,.776-.405A.621.621,0,0,0,603.586,1157.954Zm6.351,1.279a.488.488,0,0,0-.043-.256.271.271,0,0,0-.189-.071q-.71-.057-1.5-.065t-1.617.022a.063.063,0,0,0-.051.028.289.289,0,0,0-.021.143v.149a.658.658,0,0,0,.014.135c.009.133.053.2.131.2h.768q.405,0,.819.007t.812.021l.747.028a.107.107,0,0,0,.094-.071A.673.673,0,0,0,609.937,1159.233Zm-.073,1.365a.754.754,0,0,0,0-.306c-.02-.043-.068-.064-.145-.064q-.74-.028-1.559-.043t-1.515,0c-.068,0-.1.052-.1.157v.327c0,.123.043.185.131.185q.391.014.7.021l.631.014c.213,0,.442.007.688.007h.877a.262.262,0,0,0,.21-.064A.549.549,0,0,0,609.864,1160.6Zm3.813-3.909a2.151,2.151,0,0,1-.282.675,2.234,2.234,0,0,1-.558.576,1.948,1.948,0,0,1-.341.213.743.743,0,0,1-.319.071,1.233,1.233,0,0,1-.37-.063,5.123,5.123,0,0,1-.493-.192,4.752,4.752,0,0,0-.551-.206q-.261-.078-.595-.15a3.789,3.789,0,0,1-.7-.206,2.287,2.287,0,0,1-.522-.278,4.121,4.121,0,0,1-.334-.284.747.747,0,0,1-.173-.255.94.94,0,0,1-.066-.32q-.007-.177.008-.476c.009-.161.017-.31.022-.447s.01-.27.014-.4.01-.26.015-.4.012-.286.022-.447a.927.927,0,0,1,.174-.583.335.335,0,0,1,.377-.057.99.99,0,0,1,.529.349.718.718,0,0,1,.022.533c-.019.085-.034.154-.043.206s-.019.112-.029.178a.334.334,0,0,0,.007.22c.024.034.089.041.2.022a1.945,1.945,0,0,0,.268-.071,1.549,1.549,0,0,0,.261-.121,3.09,3.09,0,0,0,.319-.213q.181-.136.457-.349a.744.744,0,0,1,.515-.17.391.391,0,0,1,.37.2.691.691,0,0,1-.3.966,2.3,2.3,0,0,1-.79.284,4.262,4.262,0,0,1-1.182.043c-.135-.009-.2.028-.2.114-.02.36.073.574.276.64a6.274,6.274,0,0,0,.9.206,7.66,7.66,0,0,0,.979.092,8.605,8.605,0,0,0,.928-.021,3.258,3.258,0,0,0,.747-.135c.222-.066.362-.081.421-.043S613.716,1156.528,613.677,1156.689Z" transform="translate(-599.782 -1140.638)" fill="#fff"/></g><path d="M620.9,1155.518h-11.04a11.392,11.392,0,0,1-11.38-11.38v-.641a11.392,11.392,0,0,1,11.38-11.38H620.9a11.393,11.393,0,0,1,11.38,11.38v.641A11.392,11.392,0,0,1,620.9,1155.518Zm-11.04-22.75a10.743,10.743,0,0,0-10.731,10.73v.641a10.743,10.743,0,0,0,10.731,10.73H620.9a10.743,10.743,0,0,0,10.731-10.73v-.641a10.743,10.743,0,0,0-10.731-10.73Z" transform="translate(-598.476 -1132.118)" fill="#fff"/></g></g></svg>