<svg xmlns="http://www.w3.org/2000/svg" width="94.647" height="80.995" viewBox="0 0 94.647 80.995"><g transform="translate(-145.303 -614)"><g transform="translate(145.303 614)"><g transform="translate(0 0)"><path d="M416.884,5.267c-.061.121-.115.231-.161.328a1.292,1.292,0,0,0-.1.293c-.032.147-.069.289-.107.428s-.08.271-.124.4a.388.388,0,0,0-.024.2.2.2,0,0,0,.086.112c.107.072.227.15.36.236s.278.171.433.256a.264.264,0,0,1,.153.208.348.348,0,0,1-.057.215.281.281,0,0,1-.165.136.25.25,0,0,1-.208-.028c-.146-.072-.282-.139-.406-.2l-.355-.18c-.078-.038-.134-.046-.167-.024a.639.639,0,0,0-.135.143,3.813,3.813,0,0,1-1.571,1.508,2.234,2.234,0,0,1-.944.279,1.553,1.553,0,0,1-.759-.139.325.325,0,0,1-.189-.219c-.012-.082.031-.146.131-.189a9.989,9.989,0,0,0,1.493-.818,6.633,6.633,0,0,0,1.035-.844c.057-.066.08-.117.068-.154s-.055-.074-.132-.112c-.128-.061-.232-.107-.313-.142s-.146-.062-.2-.084a.511.511,0,0,0-.112-.035.346.346,0,0,1-.061-.012.422.422,0,0,1-.274-.1.491.491,0,0,1-.155-.229.518.518,0,0,1-.011-.283.418.418,0,0,1,.167-.243.866.866,0,0,1,.339-.165.468.468,0,0,1,.323.1l.763.51a.486.486,0,0,0,.166.073c.031,0,.072-.046.123-.142a1.421,1.421,0,0,0,.09-.336,1.235,1.235,0,0,0,0-.3.617.617,0,0,0-.185-.439.6.6,0,0,0-.414-.069,2.7,2.7,0,0,0-.7.167,2.323,2.323,0,0,0-.629.34c-.5.386-.734.316-.693-.212a.659.659,0,0,1,.09-.331,1.471,1.471,0,0,1,.207-.279.817.817,0,0,1,.238-.181.282.282,0,0,1,.209-.03.955.955,0,0,0,.283.031,1.917,1.917,0,0,0,.319-.034c.112-.023.217-.047.317-.076s.189-.049.271-.065a1.273,1.273,0,0,0,.242-.072,1.146,1.146,0,0,0,.248-.154.992.992,0,0,1,.487-.236.622.622,0,0,1,.444.192,1.193,1.193,0,0,1,.3.486A.652.652,0,0,1,416.884,5.267ZM423.6,7.839a1.835,1.835,0,0,1-.269.46,2.274,2.274,0,0,1-.477.409,1.046,1.046,0,0,1-.591.181.9.9,0,0,1-.547-.177c-.266-.211-.579-.439-.937-.686s-.771-.544-1.235-.894a.148.148,0,0,0-.163.022.375.375,0,0,0-.113.162,3.717,3.717,0,0,1-.788,1.295A5.881,5.881,0,0,1,417,9.753a1.642,1.642,0,0,1-.782.247.659.659,0,0,1-.517-.234.226.226,0,0,1-.073-.189c.012-.061.068-.108.169-.144A5.275,5.275,0,0,0,416.619,9a4.97,4.97,0,0,0,.717-.549,4.248,4.248,0,0,0,.556-.621,2.439,2.439,0,0,0,.347-.649,3.015,3.015,0,0,0,.093-1.818c-.031-.157-.084-.166-.157-.027a4.282,4.282,0,0,1-.5.725,2.131,2.131,0,0,1-.535.466c-.159.094-.279.112-.36.054s-.085-.135-.012-.235a7.111,7.111,0,0,0,.385-.606,2.43,2.43,0,0,0,.323-1.068,5.937,5.937,0,0,0,0-.663,1.675,1.675,0,0,1,.112-.927.55.55,0,0,1,.531-.223.508.508,0,0,1,.366.207.858.858,0,0,1,.144.61,1.044,1.044,0,0,1-.013.224c-.013.127-.008.2.016.229s.074.035.151.028c.243-.026.471-.051.687-.078s.424-.062.625-.1a.551.551,0,0,0,.182-.077c.061-.039.13-.086.2-.139a.922.922,0,0,1,.506-.2.875.875,0,0,1,.529.2.6.6,0,0,1,.166.221.9.9,0,0,1,.076.352,1.316,1.316,0,0,1-.076.439,1.961,1.961,0,0,1-.263.493,1.9,1.9,0,0,1-.6.532,3.881,3.881,0,0,1-.956.335c-.119.031-.186.02-.205-.035s.018-.109.107-.166c.061-.043.13-.1.205-.162s.151-.138.225-.213a2,2,0,0,0,.2-.238.989.989,0,0,0,.124-.221c.113-.286.039-.425-.223-.42a7.35,7.35,0,0,0-1.187.165c-.127.026-.143.063-.047.115a.616.616,0,0,1,.2.2,1.453,1.453,0,0,1,.1.293,2.734,2.734,0,0,1,.063.3,2.223,2.223,0,0,1,.027.279.3.3,0,0,0,.042.178.321.321,0,0,0,.1.084q1.067.462,1.979.752a17.266,17.266,0,0,0,1.747.46.382.382,0,0,1,.256.123A.235.235,0,0,1,423.6,7.839Z" transform="translate(-412.444 1.001)"/><path d="M432.437,6.338a2.453,2.453,0,0,1-.381.667,2.07,2.07,0,0,1-.563.52,1.782,1.782,0,0,1-.517.213,2.561,2.561,0,0,1-.634.063,6.617,6.617,0,0,1-.832-.065q-.468-.063-1.093-.174-.824-.152-1.475-.242c-.433-.061-.829-.108-1.187-.144a6.4,6.4,0,0,0-.989-.049,4.466,4.466,0,0,0-.871.112,4.059,4.059,0,0,0-.822.289,7.492,7.492,0,0,0-.849.483.578.578,0,0,1-.317.119.484.484,0,0,1-.274-.067.414.414,0,0,1-.166-.212.524.524,0,0,1,.011-.347,1.237,1.237,0,0,1,.112-.267.549.549,0,0,1,.2-.194,1.47,1.47,0,0,1,.364-.147c.155-.045.356-.09.6-.139.082-.019.194-.04.338-.063a2.228,2.228,0,0,1,.305-.035.5.5,0,0,0,.244-.067.989.989,0,0,0,.173-.162.546.546,0,0,0,.2-.332.453.453,0,0,0-.136-.286.6.6,0,0,1-.17-.316.934.934,0,0,1,.09-.432q.113-.36-.328-.3a2.423,2.423,0,0,0-.8.259.642.642,0,0,1-.3.076.281.281,0,0,1-.234-.119.393.393,0,0,1-.069-.248.562.562,0,0,1,.086-.294.879.879,0,0,1,.266-.283.574.574,0,0,1,.285-.067c.2.012.408.016.622.013s.428-.007.643-.012a1.353,1.353,0,0,1,.336.018.527.527,0,0,1,.211.115.313.313,0,0,1,.112.278.531.531,0,0,1-.159.3.718.718,0,0,0-.225.456q0,.194.335.437a.238.238,0,0,1,.105.181.887.887,0,0,1-.107.4c-.04.1-.05.165-.03.2s.08.051.178.045l1.438-.08q.719-.04,1.35-.057a.429.429,0,0,0,.235-.043c.027-.027.034-.093.019-.2l-.148-1.095c-.013-.105-.038-.162-.069-.169s-.1.026-.193.1a3.7,3.7,0,0,1-.472.329,6.233,6.233,0,0,1-.571.285,4.505,4.505,0,0,1-.425.173,1.858,1.858,0,0,1-.306.076.517.517,0,0,1-.219-.011.747.747,0,0,1-.18-.085.554.554,0,0,1-.23-.3.594.594,0,0,1,.09-.477,1.507,1.507,0,0,0,.092-.853,4.8,4.8,0,0,0-.325-1.208.82.82,0,0,1-.051-.551c.049-.148.182-.231.4-.244a.609.609,0,0,1,.362.042.264.264,0,0,0,.146.055.621.621,0,0,0,.2-.066,2.264,2.264,0,0,0,.332-.184,2.689,2.689,0,0,0,.331-.275.934.934,0,0,1,.418-.224.506.506,0,0,1,.4.136.344.344,0,0,1,.119.319.644.644,0,0,1-.3.385,2.982,2.982,0,0,1-1.191.379.263.263,0,0,0-.185.077.4.4,0,0,0-.027.228c.009.121.022.256.038.4s.03.293.04.432.026.269.042.386l.038.277c.027.148.076.24.146.273a.68.68,0,0,0,.374,0c.171-.031.317-.062.436-.093a2.029,2.029,0,0,0,.391-.158.63.63,0,0,0,.166-.1.357.357,0,0,0,.084-.27c-.02-.15-.036-.3-.049-.447s-.026-.294-.038-.439a.308.308,0,0,0-.042-.143.194.194,0,0,0-.109-.043c-.18-.02-.286-.085-.319-.192a.349.349,0,0,1,.12-.344,1.37,1.37,0,0,1,.447-.348,1.085,1.085,0,0,1,.44-.059,3.052,3.052,0,0,0,.321-.009q.182-.012.369-.032c.126-.013.246-.027.362-.043s.22-.034.309-.054a.856.856,0,0,1,.459,0,.743.743,0,0,1,.312.256.851.851,0,0,1,.081.219,2.763,2.763,0,0,1,.059.313c.015.113.027.227.035.34a2.538,2.538,0,0,1,.005.3,2.248,2.248,0,0,1-.113.683,2.077,2.077,0,0,1-.4.652A1.266,1.266,0,0,1,429.4,5a2.712,2.712,0,0,1-.636.19.4.4,0,0,0-.19.072.241.241,0,0,0-.03.165,1.82,1.82,0,0,0,.039.374c.028.158.05.286.063.383s.032.134.066.151a.515.515,0,0,0,.211.03c.267-.013.572-.034.918-.061s.682-.061,1.01-.1.621-.074.876-.112a2.968,2.968,0,0,0,.525-.112c.13-.055.212-.061.244-.016S432.509,6.137,432.437,6.338Zm-7.923-3.052a.386.386,0,0,1-.188.147,1.133,1.133,0,0,1-.331.1,5.1,5.1,0,0,1-.822.049,2.711,2.711,0,0,1-.729-.113.508.508,0,0,1-.342-.317.433.433,0,0,1,.124-.447.585.585,0,0,1,.355-.175.644.644,0,0,1,.433.057,3.985,3.985,0,0,0,.518.217,4.968,4.968,0,0,0,.6.17.663.663,0,0,1,.347.143A.147.147,0,0,1,424.514,3.286Zm4.915-.046a.681.681,0,0,0-.176-.362.5.5,0,0,0-.379-.081c-.076,0-.146.009-.211.018l-.174.024c-.113.015-.181.039-.2.073a.455.455,0,0,0-.019.234c.023.225.046.455.069.686s.054.474.088.73c.015.1.039.169.073.19a.25.25,0,0,0,.184,0,.678.678,0,0,0,.356-.169,1.4,1.4,0,0,0,.267-.41,1.521,1.521,0,0,0,.138-.462A1.258,1.258,0,0,0,429.43,3.24Z" transform="translate(-409.295 0.512)"/><path d="M441.474,5.3a4.563,4.563,0,0,1-.085.5,1.449,1.449,0,0,1-.151.39,1.608,1.608,0,0,1-.248.323,2.846,2.846,0,0,1-.364.3,2.148,2.148,0,0,1-.63.325,1.358,1.358,0,0,1-.551.043c-.385-.045-.7-.088-.937-.13a5.448,5.448,0,0,1-.617-.139,3.759,3.759,0,0,1-.454-.163c-.131-.058-.271-.127-.423-.207a1.983,1.983,0,0,1-.41-.27,1.223,1.223,0,0,1-.259-.316,1.661,1.661,0,0,1-.157-.382,3.17,3.17,0,0,1-.088-.455,4.783,4.783,0,0,1-.058-.648,4.992,4.992,0,0,1,.032-.8q0-.1-.077-.1l-.67.054a.11.11,0,0,0-.107.1,6.522,6.522,0,0,1-.185,1.187,4.081,4.081,0,0,1-.413,1.039,3.249,3.249,0,0,1-.676.832,3,3,0,0,1-.949.562,3.658,3.658,0,0,1-1.45.306.771.771,0,0,1-.671-.387.32.32,0,0,1-.049-.242.137.137,0,0,1,.126-.084,5,5,0,0,0,1.289-.3,4.116,4.116,0,0,0,1.089-.666,2.643,2.643,0,0,0,.707-.873,3.04,3.04,0,0,0,.252-1.261c.008-.1-.023-.147-.09-.142a4.134,4.134,0,0,0-.969.17,3.6,3.6,0,0,0-.753.312,1.653,1.653,0,0,1-.715.263c-.186.007-.292-.053-.317-.18a.6.6,0,0,1,0-.3,1.427,1.427,0,0,1,.184-.358.8.8,0,0,1,.385-.328.738.738,0,0,1,.341-.016,1.554,1.554,0,0,0,.385.02,1.531,1.531,0,0,0,.333-.043,2.139,2.139,0,0,1,.224-.053c.12-.026.265-.051.433-.081s.354-.057.553-.084.4-.054.606-.078c.068-.005.1-.046.1-.121-.007-.175-.023-.36-.05-.556s-.07-.423-.13-.676a1.4,1.4,0,0,1-.04-.579.645.645,0,0,1,.159-.356.808.808,0,0,1,.139-.131.312.312,0,0,1,.15-.053.723.723,0,0,1,.22.028c.089.024.212.059.369.108a.458.458,0,0,1,.329.339,1.644,1.644,0,0,1,.013.525,2.946,2.946,0,0,0-.011.491c.007.236.018.479.03.73q.012.148.126.138l2.323-.17a5.135,5.135,0,0,1,1.011-.018.345.345,0,0,1,.194.07.311.311,0,0,1,.062.138.336.336,0,0,1-.035.208.392.392,0,0,1-.236.121c-.059.013-.169.03-.327.05s-.347.043-.567.069-.462.053-.73.081-.543.055-.822.078a.516.516,0,0,0-.107.019.106.106,0,0,0-.069.074,1.657,1.657,0,0,0-.15.761,3.014,3.014,0,0,0,.2.836q.247.666,1.318.671a8.5,8.5,0,0,0,2.866-.676C441.409,5.067,441.49,5.118,441.474,5.3Zm-7.155-2.968c.089.062.123.117.1.165s-.082.074-.181.082a2.531,2.531,0,0,1-.748-.059,2.027,2.027,0,0,1-.7-.293.589.589,0,0,1-.336-.487.624.624,0,0,1,.266-.524.584.584,0,0,1,.5-.086.614.614,0,0,1,.435.366,1.038,1.038,0,0,0,.108.2c.051.078.109.161.173.243s.13.159.2.229A1.4,1.4,0,0,0,434.319,2.333Zm4-1.486a.513.513,0,0,1,.273.412.674.674,0,0,1-.246.489,1.584,1.584,0,0,1-.329.238,4.515,4.515,0,0,1-.413.205,2.63,2.63,0,0,1-.4.14.8.8,0,0,1-.294.035c-.123-.012-.2-.057-.216-.131s.015-.139.109-.192a1.586,1.586,0,0,0,.714-.79q.18-.46.351-.536T438.315.847Z" transform="translate(-406.014 0.167)"/><path d="M441.3,2.389c-.005.077-.008.173-.008.29s0,.267.009.445.014.394.023.649.023.559.042.915c.019.312.027.558.026.741a1.589,1.589,0,0,1-.047.423.422.422,0,0,1-.158.228,1.525,1.525,0,0,1-.3.153.277.277,0,0,1-.4-.146,2.464,2.464,0,0,1-.1-1.034q.022-.684.023-1.158c0-.315,0-.587-.011-.814s-.02-.42-.036-.575a3.143,3.143,0,0,0-.078-.436,1.889,1.889,0,0,1-.078-.636.367.367,0,0,1,.184-.3.392.392,0,0,1,.192-.058.861.861,0,0,1,.242.065.673.673,0,0,1,.417.374A2.131,2.131,0,0,1,441.3,2.389Zm8.835-1.328a1.542,1.542,0,0,1-.26.385,1.806,1.806,0,0,1-.321.274.893.893,0,0,1-.366.148,2.158,2.158,0,0,1-.518-.005c-.275-.028-.541-.054-.8-.074s-.514-.039-.767-.054-.508-.02-.769-.019-.533.011-.814.027a.322.322,0,0,0-.186.053,1.031,1.031,0,0,0-.149.154,4.284,4.284,0,0,1-.934.875,1.979,1.979,0,0,1-.917.351c-.084,0-.124.031-.123.084q.01.616.036,1.242c.019.417.04.792.067,1.126.015.2.023.37.023.5a1.223,1.223,0,0,1-.03.3.377.377,0,0,1-.108.186,1.674,1.674,0,0,1-.2.155q-.324.2-.5.057t-.151-.741c.008-.205.011-.464.008-.776s-.012-.639-.028-.984-.031-.693-.047-1.042-.034-.671-.055-.967-.042-.545-.061-.751a2.251,2.251,0,0,0-.053-.386.753.753,0,0,1,.005-.52.379.379,0,0,1,.288-.266.571.571,0,0,1,.285-.009.968.968,0,0,1,.2.119,1.414,1.414,0,0,1,.194.17.476.476,0,0,1,.108.178.662.662,0,0,1,.031.221,2.075,2.075,0,0,1-.03.3,1.418,1.418,0,0,0-.018.325c0,.17,0,.378,0,.621a.118.118,0,0,0,.072.1.3.3,0,0,0,.193-.04A2.642,2.642,0,0,0,444.785.548a1.666,1.666,0,0,1,.151-.432A.243.243,0,0,1,445.143,0a.8.8,0,0,1,.344.063.869.869,0,0,1,.256.157.4.4,0,0,1,.162.25.917.917,0,0,1-.084.362c-.015.032-.027.062-.038.093s-.019.058-.026.081a.088.088,0,0,0,0,.08.072.072,0,0,0,.076.031c.417-.028.856-.058,1.319-.085s.9-.053,1.3-.078S449.2.909,449.488.9s.458-.022.518-.023C450.151.867,450.194.93,450.139,1.061Zm-.865,3.049c-.008.184-.012.369-.01.555s0,.393,0,.621a1.878,1.878,0,0,1-.065.589.748.748,0,0,1-.246.333.608.608,0,0,1-.327.115,1.178,1.178,0,0,1-.422-.043,2.208,2.208,0,0,0-.339-.062,1.354,1.354,0,0,0-.37.007q-.535.075-1.085.1t-1.2.012a.234.234,0,0,0-.169.074.318.318,0,0,1-.178.1.7.7,0,0,1-.274.016.263.263,0,0,1-.232-.124,1.313,1.313,0,0,1-.117-.445c-.019-.128-.038-.278-.055-.448s-.034-.343-.051-.517-.031-.342-.041-.5-.016-.292-.019-.4a1.9,1.9,0,0,1,.023-.468.335.335,0,0,1,.159-.211,1.9,1.9,0,0,1,.2-.086.133.133,0,0,1,.132.019.744.744,0,0,0,.1.047.371.371,0,0,0,.126.012q1.069-.093,1.832-.1a8.316,8.316,0,0,1,1.153.047.942.942,0,0,0,.246,0,.626.626,0,0,0,.22-.088.709.709,0,0,1,.693-.047,1.248,1.248,0,0,1,.17.1.354.354,0,0,1,.1.139.717.717,0,0,1,.042.244C449.275,3.81,449.276,3.945,449.274,4.111Zm-3.112,0c0-.09-.047-.135-.131-.131-.143.012-.3.022-.46.027a4.345,4.345,0,0,0-.471.039c-.061,0-.1.045-.109.128A6.706,6.706,0,0,0,445,4.85c.013.266.035.513.065.74.011.076.05.112.119.109a8.408,8.408,0,0,0,.9-.031c.076,0,.116-.045.121-.13.007-.213.008-.448,0-.706S446.185,4.336,446.162,4.115Zm1.373-1.174c.07.058.092.111.062.157s-.088.069-.18.063a4.912,4.912,0,0,1-.79-.086,2.7,2.7,0,0,1-.67-.239.563.563,0,0,1-.182-.154.516.516,0,0,1-.1-.219.349.349,0,0,1,.043-.235.587.587,0,0,1,.243-.215q.516-.279,1.018.387a.645.645,0,0,0,.112.144c.051.051.105.1.159.154s.108.1.159.143S447.5,2.917,447.535,2.94Zm.78,1.158c0-.09-.077-.142-.221-.153s-.265,0-.4,0-.271,0-.393,0c-.076,0-.116.046-.121.128s-.007.185-.007.3,0,.239,0,.364,0,.252.008.382l.012.363c0,.092.046.128.128.111s.182-.018.3-.022.224-.012.331-.023a.434.434,0,0,0,.236-.082.363.363,0,0,0,.107-.215,1.077,1.077,0,0,0,.018-.171c0-.092.008-.2.012-.313s0-.239,0-.36S448.319,4.182,448.315,4.1Z" transform="translate(-402.729 0)"/><path d="M458.108,1.912a2.035,2.035,0,0,1-.324,1.038,3.241,3.241,0,0,1-.8.868,4.11,4.11,0,0,1-1.088.59,3.217,3.217,0,0,1-1.191.2.728.728,0,0,1-.462-.2.562.562,0,0,1-.215-.447c0-.084.058-.146.169-.185a.766.766,0,0,1,.454.024c.092.028.215.058.37.092a5.146,5.146,0,0,0,.571.085,2.856,2.856,0,0,0,.818-.868,2.914,2.914,0,0,0,.356-1.119l-.585-.293a4.089,4.089,0,0,0-1.77,1.34,8.135,8.135,0,0,0-1.334,2.512c-.109.317-.2.568-.278.756a2.927,2.927,0,0,1-.213.436.55.55,0,0,1-.194.2.421.421,0,0,1-.209.045.635.635,0,0,1-.362-.161,2.776,2.776,0,0,1-.466-.517.661.661,0,0,1-.132-.229.464.464,0,0,1,.013-.271,1.544,1.544,0,0,1,.2-.379,6.589,6.589,0,0,1,.437-.556c.13-.148.239-.273.325-.377a3.054,3.054,0,0,0,.216-.283c.057-.088.1-.166.139-.236a1.565,1.565,0,0,0,.095-.244c.09-.258.163-.486.22-.687a5,5,0,0,0,.128-.6,4.9,4.9,0,0,0,.055-.629c.005-.217.008-.47.007-.756l1.6-.336c-.111.342-.2.644-.282.907s-.159.544-.243.844a9.334,9.334,0,0,1,.721-.8,4.861,4.861,0,0,1,.606-.508,2.278,2.278,0,0,1,.512-.27,1.234,1.234,0,0,1,.437-.076,2.231,2.231,0,0,1,.652.111,2.155,2.155,0,0,1,.543.261,1.483,1.483,0,0,1,.369.351A.608.608,0,0,1,458.108,1.912Z" transform="translate(-398.878 0.254)"/><path d="M462.675,7.352a8.525,8.525,0,0,1-.3-1.037,7.139,7.139,0,0,1-.142-1.115,3.774,3.774,0,0,0-.8-.209,8.743,8.743,0,0,0-1.012-.072c-.4.437-.742.8-1.029,1.077s-.535.5-.738.66a2.775,2.775,0,0,1-.494.327.663.663,0,0,1-.29.082c-.269-.018-.386-.273-.355-.768a1.515,1.515,0,0,1,.085-.424.879.879,0,0,1,.262-.35,3,3,0,0,1,.528-.339q.332-.172.877-.391a2.814,2.814,0,0,0,.4-.2,2.079,2.079,0,0,0,.292-.221,11.212,11.212,0,0,0,.822-.792,9,9,0,0,0,.671-.8,5.331,5.331,0,0,0,.471-.745,2.182,2.182,0,0,0,.225-.656c.3-.031.572-.067.829-.111s.536-.1.845-.173a8.743,8.743,0,0,0-.223.991,10.036,10.036,0,0,0-.123,1.021q-.049.755-.042,1.331a8.622,8.622,0,0,0,.072,1.046,5.78,5.78,0,0,0,.184.871,6.074,6.074,0,0,0,.3.79Zm-.19-5.269a12.324,12.324,0,0,1-.743,1.222,8.37,8.37,0,0,1-.979,1.169,6.851,6.851,0,0,1,.7-.018c.219.005.474.026.767.062l.036-.566c.016-.244.043-.543.084-.9S462.432,2.376,462.485,2.083Z" transform="translate(-396.674 0.384)"/><path d="M471.263,3.229a1.5,1.5,0,0,1-.865,1.1,6.026,6.026,0,0,1-2.261.634,1.673,1.673,0,0,0,.221.543,7.193,7.193,0,0,0,.47.71,9.382,9.382,0,0,0,.6.722,5.037,5.037,0,0,0,.629.587l-1.388.524a7.247,7.247,0,0,1-.749-.872,8.333,8.333,0,0,1-.6-.925,6.27,6.27,0,0,1-.389-.815,1.291,1.291,0,0,1-.121-.526c.012-.116.09-.188.238-.215a11.662,11.662,0,0,0,1.311-.279,3.347,3.347,0,0,0,.815-.339,1.152,1.152,0,0,0,.433-.436,1.616,1.616,0,0,0,.162-.572.318.318,0,0,0-.069-.247,1.353,1.353,0,0,0-.386-.244,5.751,5.751,0,0,0-1.832,1.01,4.087,4.087,0,0,0-1.153,1.551c-.123.275-.267.585-.436.93s-.356.722-.57,1.131a1.191,1.191,0,0,1-.254.366.308.308,0,0,1-.236.077.636.636,0,0,1-.308-.147,1.954,1.954,0,0,1-.311-.305,1.9,1.9,0,0,1-.234-.367.634.634,0,0,1-.078-.332.6.6,0,0,1,.058-.2,1.926,1.926,0,0,1,.2-.282q.146-.188.433-.506t.775-.849a1.253,1.253,0,0,0,.186-.259,2.2,2.2,0,0,0,.17-.47c.057-.211.111-.49.166-.838s.109-.8.169-1.365l1.639-.142q-.109.419-.244.81t-.278.769a9.608,9.608,0,0,1,1.49-1.084,1.853,1.853,0,0,1,1.075-.279,1.511,1.511,0,0,1,.583.189,2.33,2.33,0,0,1,.5.37,1.776,1.776,0,0,1,.339.448A.777.777,0,0,1,471.263,3.229Z" transform="translate(-394.436 0.554)"/><path d="M477.253,4.458q-.235-.215-.463-.39a4.638,4.638,0,0,0-.474-.321q-.245-.146-.536-.286t-.649-.3a3.085,3.085,0,0,0-.969.54,6.111,6.111,0,0,0-.884.859,5.958,5.958,0,0,0-.674.981,2.851,2.851,0,0,0-.336.9.638.638,0,0,0,.08.351,1.952,1.952,0,0,0,.286.427,2.131,2.131,0,0,0,.451.387,1.4,1.4,0,0,0,.566.22,3.466,3.466,0,0,0,1.054-.061,10.255,10.255,0,0,0,1.447-.371l.148.367q-.409.166-.877.319c-.315.1-.626.186-.94.256a7.255,7.255,0,0,1-.9.15,3.069,3.069,0,0,1-.752-.007,2.141,2.141,0,0,1-.854-.328,2.97,2.97,0,0,1-.679-.609,2.407,2.407,0,0,1-.42-.753,1.618,1.618,0,0,1-.081-.764,3.358,3.358,0,0,1,.509-1.237,4.788,4.788,0,0,1,1.118-1.219,5.2,5.2,0,0,1,1.642-.844,4.558,4.558,0,0,1,2.091-.127,2.632,2.632,0,0,1,.907.363,6.928,6.928,0,0,1,1.114.853Z" transform="translate(-392.029 0.89)"/><path d="M484.375,6.24a2.7,2.7,0,0,1-.486,1.07,4.661,4.661,0,0,1-.867.883,6.7,6.7,0,0,1-1.083.688,8.375,8.375,0,0,1-1.138.485,5.772,5.772,0,0,1-1.031.256,2.332,2.332,0,0,1-.761.009,1.51,1.51,0,0,1-.594-.336,3.757,3.757,0,0,1-.637-.68,3.888,3.888,0,0,1-.471-.832,1.345,1.345,0,0,1-.105-.794,3.1,3.1,0,0,1,.479-1.1A4.586,4.586,0,0,1,478.6,4.9a6.006,6.006,0,0,1,1.237-.78,5.746,5.746,0,0,1,1.448-.464l.9.586,1.671.012a.461.461,0,0,1,.238.184,1.477,1.477,0,0,1,.221.427,2.5,2.5,0,0,1,.123.617A2.673,2.673,0,0,1,484.375,6.24Zm-1.744.089a2.944,2.944,0,0,0,.059-.413,2.073,2.073,0,0,0-.008-.387A3.319,3.319,0,0,0,482.6,5.1c-.042-.154-.1-.333-.178-.539l-.381-.027a6.593,6.593,0,0,0-1.4.521,3.989,3.989,0,0,0-.985.715,3.306,3.306,0,0,0-.651.933,5.3,5.3,0,0,0-.379,1.177.566.566,0,0,0-.011.171.668.668,0,0,0,.072.215,2.789,2.789,0,0,0,.181.308c.078.12.184.27.319.452q.587-.225,1.164-.491a6.831,6.831,0,0,0,1.052-.6,4.005,4.005,0,0,0,.8-.729A2,2,0,0,0,482.631,6.33Z" transform="translate(-389.791 1.279)"/></g><path d="M457.384,37.167a9.928,9.928,0,0,1-1,1.2,12.157,12.157,0,0,1-1.293,1.158q-.7.545-1.431,1a8.988,8.988,0,0,1-1.408.726c-.7.271-1.188.25-1.476-.069s-.189-.657.3-1.022a5.979,5.979,0,0,0,.976-.907q.478-.545,1.158-1.453a5.614,5.614,0,0,0,.771-1.362,18.025,18.025,0,0,0,.682-1.953,1.668,1.668,0,0,1,1-1.18,1.894,1.894,0,0,1,1.679.317,1.7,1.7,0,0,1,.818,1.408A3.693,3.693,0,0,1,457.384,37.167Zm9.942-8.082q.365,1.089-.068,1.544t-1.339-.273a6.122,6.122,0,0,1-1.045-1.181c-.181-.211-.363-.256-.544-.136a12.507,12.507,0,0,1-1.681.863,11.809,11.809,0,0,1-1.543.545q-1.454.364-2.906.818a18.408,18.408,0,0,0-2.225.817,1.453,1.453,0,0,1-1.339.067,2.2,2.2,0,0,1-.976-1.384,2.139,2.139,0,0,1-.023-1.34,1.429,1.429,0,0,1,.931-.93l.227-.113a2.665,2.665,0,0,0,.431-.319q.3-.249.8-.659t1.316-1.134q.364-.318.227-.613t-.634-.113a12.965,12.965,0,0,1-1.635.544,1.94,1.94,0,0,1-1.521.023,2.748,2.748,0,0,1-.976-1.339,2.088,2.088,0,0,1-.159-1.793,2.985,2.985,0,0,1,1.521-1.25,10.258,10.258,0,0,0,3.314-2.5,18.521,18.521,0,0,0,2.906-4.4,2.522,2.522,0,0,1,1.679-1.453,2.046,2.046,0,0,1,1.952.682q2,1.905-.68,3.768-.954.727-2.044,1.544T458.474,21.5q-1.316,1-1.293,1.679t1.112.59a6.081,6.081,0,0,0,1.475-.34,3.384,3.384,0,0,0,.976-.522,7.113,7.113,0,0,0,.953-.953,8.745,8.745,0,0,0,.59-.818,2.865,2.865,0,0,1,1.885-1.633,1.733,1.733,0,0,1,1.794.863,1.677,1.677,0,0,1,.294,1.27,2.127,2.127,0,0,1-.84,1.272q-1.454,1.181-3.11,2.407a30.315,30.315,0,0,1-3.02,2c-.7.425-1.006.749-.93.977s.506.265,1.295.112q1.089-.227,1.883-.431a16.413,16.413,0,0,0,1.748-.568q.318-.089.409-.68.18-1.452,1.043-1.589a1.736,1.736,0,0,1,1.249.273,1.594,1.594,0,0,1,.659,1.043q.18.818.319,1.431A8.382,8.382,0,0,0,467.326,29.085Zm-4.812,8.9q.091.909-.363,1.089t-1.226-.59a6.53,6.53,0,0,1-1.453-2.088,3.62,3.62,0,0,1-.317-1.952,2.221,2.221,0,0,1,.567-1.318,1.489,1.489,0,0,1,1.066-.408,1.706,1.706,0,0,1,1.295.454,1.312,1.312,0,0,1,.34,1.135,10.584,10.584,0,0,0-.068,1.566Q462.378,36.668,462.514,37.983Zm4.768-2.088q.318.909-.069,1.112t-1.384-.477a8.192,8.192,0,0,1-1.362-1.295,7.474,7.474,0,0,1-1.135-1.793,1.39,1.39,0,0,1,.023-1.226,1.549,1.549,0,0,1,1.157-.772,1.5,1.5,0,0,1,1.181.2,1.524,1.524,0,0,1,.636.977,10.814,10.814,0,0,0,.34,1.293Q466.918,34.716,467.282,35.9ZM492.8,19.777a4.654,4.654,0,0,1-.886,1.385,8.4,8.4,0,0,1-1.521,1.112,3.609,3.609,0,0,1-1.862.409,6.333,6.333,0,0,1-2.405-.5,9.143,9.143,0,0,0-1.727-.409q-1.134-.18-3.178-.317-.454,0-.454.408-.047.638-.069,1.362t-.067,1.091c-.031.332.105.5.409.5.242,0,.477.007.7.022s.506.039.84.069q2,.136,3.156.227t2.065.182a2.444,2.444,0,0,1,1.022.271q.249.182.2.772a1.1,1.1,0,0,1-.363.772,2.083,2.083,0,0,1-1.089.363,7.658,7.658,0,0,1-1.5.067q-1.045-.022-2.951-.113-.545,0-1.725-.023t-2.474-.023H475q-2.181.093-3.179.205a6.684,6.684,0,0,0-1.362.25,3.517,3.517,0,0,1-1.453.363.823.823,0,0,1-.682-.545,1.635,1.635,0,0,1-.135-1,2.423,2.423,0,0,1,.68-1.135A2.165,2.165,0,0,1,471.322,25a2.391,2.391,0,0,0,.8.09q.567,0,1.793-.09c.061,0,.227-.007.5-.023s.6-.022,1-.022q.409,0,.409-.591.045-.725.045-1.272V21.775q0-.454-.5-.454-1.407.047-2.383.136a15.012,15.012,0,0,0-1.725.25,13.886,13.886,0,0,0-1.385.363q-.636.2-1.362.521a1.842,1.842,0,0,1-1.612.069q-.613-.34-.386-1.293a3.613,3.613,0,0,1,.726-1.295,5.246,5.246,0,0,1,1.272-1.112,1.9,1.9,0,0,1,.817-.34,1.605,1.605,0,0,1,.682.113,4.8,4.8,0,0,0,1.043.25,5.815,5.815,0,0,0,1.544.023c.273-.031.506-.053.7-.069l.59-.045c.2-.015.416-.031.659-.046s.529-.038.863-.069a.394.394,0,0,0,.363-.454q0-.771-.023-1.339t-.113-1.566a1.656,1.656,0,0,1,1.226-1.862,2.471,2.471,0,0,1,.636-.023,7.982,7.982,0,0,1,.976.113,8.607,8.607,0,0,1,.977.227,1.536,1.536,0,0,1,.634.319,2.843,2.843,0,0,1,.954,2.678,6.292,6.292,0,0,0-.092,1.316.441.441,0,0,0,.5.5q.863-.045,1.658-.046a10.139,10.139,0,0,1,1.43.092,44.459,44.459,0,0,0,7.719.136c.393-.031.62.023.68.158A1.107,1.107,0,0,1,492.8,19.777Zm-4.449,12.758c0,.153-.008.348-.023.59s-.039.545-.069.908-.053.81-.067,1.339-.039,1.173-.069,1.93a5.749,5.749,0,0,1-.408,2.065,2.926,2.926,0,0,1-.931,1.249,2.054,2.054,0,0,1-1.226.409,2.362,2.362,0,0,1-1.293-.409,3.783,3.783,0,0,0-.772-.319,6.85,6.85,0,0,0-1.5-.181q-1.045-.045-2.974,0t-5.2.181a.95.95,0,0,0-.68.319,1.947,1.947,0,0,1-1.635.5,1.6,1.6,0,0,1-1.089-.682,5.4,5.4,0,0,1-.591-2q-.227-1.588-.431-3.064t-.386-2.384a3.914,3.914,0,0,1,1.135-3.587,1.331,1.331,0,0,1,.953-.271,2.292,2.292,0,0,1,1.362.5,1.076,1.076,0,0,0,.726.227q1-.136,1.93-.227t2.042-.092q1.112,0,2.543.069t3.427.2a2.315,2.315,0,0,0,.657,0,1.819,1.819,0,0,0,.7-.227,2.577,2.577,0,0,1,2.815.136,2.125,2.125,0,0,1,.953,1.089A4.9,4.9,0,0,1,488.349,32.535ZM483.9,34.85a7.038,7.038,0,0,0-.135-1.816.706.706,0,0,0-.545-.454,22.2,22.2,0,0,0-4.04-.227,46.9,46.9,0,0,0-5.448.454q-.318.047-.319.5c.03.516.061,1,.092,1.453s.074,1.15.135,2.088a.733.733,0,0,0,.159.455.492.492,0,0,0,.386.045q3.268-.227,5.358-.227a31.653,31.653,0,0,1,3.314.136.7.7,0,0,0,.84-.363A6.228,6.228,0,0,0,483.9,34.85Z" transform="translate(-399.086 4.665)"/><path d="M489.727,53.489q-.227,1.089-.363,2.088t-.227,2.134a15.079,15.079,0,0,1-.34,2.065,12.206,12.206,0,0,1-.659,2.021,11.715,11.715,0,0,1-.886,1.7,3.666,3.666,0,0,1-1.021,1.112,9.786,9.786,0,0,1-4.359,2.134,9.583,9.583,0,0,1-4.449-.136,11.4,11.4,0,0,1-3.11-1.408,10.882,10.882,0,0,1-2.565-2.406q-.364-.454-.046-.7a.984.984,0,0,1,.953-.022,14.021,14.021,0,0,0,6.607,1.272,5.5,5.5,0,0,0,4.063-2.453,9.145,9.145,0,0,0,1.181-2.882,20.137,20.137,0,0,0,.408-4.518q0-1.407-3.087-1.589-2.314-.136-4.154-.2t-3.45-.092q-1.612-.022-3.064.023t-3,.092q-1.407.091-2.724.2a20.428,20.428,0,0,0-2.225.3q-.818.136-.863.634a11.586,11.586,0,0,1-.409,2.067,29.415,29.415,0,0,1-1.089,2.974,9.171,9.171,0,0,1-.976,1.86,10.214,10.214,0,0,1-1.362,1.635,7.926,7.926,0,0,1-1.635,1.226,5.2,5.2,0,0,1-1.748.636,4.3,4.3,0,0,1-3.427-.59,3.325,3.325,0,0,1-1.385-2.407c-.03-.454.151-.7.545-.726a10.556,10.556,0,0,0,4.131-1.612,7.014,7.014,0,0,0,2.68-2.974,12.759,12.759,0,0,0,.7-2.678,23.544,23.544,0,0,0,.294-3.064,21.81,21.81,0,0,0-.09-2.86,10.38,10.38,0,0,0-.408-2.157,4.814,4.814,0,0,1-.092-2.088,2.073,2.073,0,0,1,.726-1.453,3.449,3.449,0,0,1,1.976-.477,2.068,2.068,0,0,1,1.52.659.825.825,0,0,0,.682.363h6.355q1,0,1.975.022t2.088.046q1.114.022,2.407.046t2.883.023a6.5,6.5,0,0,0,1.2-.115,2.453,2.453,0,0,0,.885-.294,2.678,2.678,0,0,1,1.385-.568,3.033,3.033,0,0,1,1.384.342,2.559,2.559,0,0,1,1.158,1.249,2.728,2.728,0,0,1,.113,1.747,14.949,14.949,0,0,0-.363,3.043,1.421,1.421,0,0,1-.726,1.407,4.3,4.3,0,0,1-1.2.319,3.932,3.932,0,0,1-1.341-.182c-.271-.059-.529-.113-.771-.158s-.5-.084-.772-.115-.59-.051-.953-.068-.833-.023-1.408-.023q-1.454-.045-3.247-.045h-7.468q-1.863,0-3.406.045a.532.532,0,0,0-.453.182,1.446,1.446,0,0,0-.136.772.561.561,0,0,0,.636.634q3.951,0,8.989.046t11.669.136a4.618,4.618,0,0,0,1.022-.09,3.444,3.444,0,0,0,.749-.273,2.362,2.362,0,0,1,1.589-.09,4.587,4.587,0,0,1,1.952,1.362,2.221,2.221,0,0,1,.657,1.2A4.608,4.608,0,0,1,489.727,53.489Zm-9.216-8.716q.045-.818-.227-1.022a2.1,2.1,0,0,0-1.135-.205q-2.361-.043-4.449-.045t-4.019.023q-1.93.022-3.813.067t-3.837.09a.406.406,0,0,0-.386.205,2.01,2.01,0,0,0-.113.84,1.246,1.246,0,0,0,.159.794.708.708,0,0,0,.522.159q1.814-.045,3.836-.067t4.063.023l4.063.09q2.019.047,3.791.136a1.848,1.848,0,0,0,1.2-.205A1.235,1.235,0,0,0,480.511,44.773Zm-.636,11.3q-.091.636-.113,1.045c-.016.273-.023.514-.023.726q0,2.134-1,2.747a2.092,2.092,0,0,1-2.315-.205,8.274,8.274,0,0,0-2.634-.385q-2.134-.113-5.539.022a1.1,1.1,0,0,0-.636.136,2.152,2.152,0,0,1-1.589.545,1.231,1.231,0,0,1-.953-.659,4.481,4.481,0,0,1-.545-2.2q-.045-.771-.068-1.521t-.023-1.612a1.9,1.9,0,0,1,.3-1.021,1.782,1.782,0,0,1,.794-.7,2.778,2.778,0,0,1,1.18-.2,1.558,1.558,0,0,1,1,.34,1.538,1.538,0,0,0,.864.273l1.929-.092c.651-.028,1.263-.045,1.839-.045s1.089.008,1.544.023.8.038,1.044.067a5.884,5.884,0,0,0,1.249.046,2.228,2.228,0,0,0,.7-.136,1.72,1.72,0,0,1,1.022-.34,2.2,2.2,0,0,1,1.112.477,1.873,1.873,0,0,1,.863.953A3.259,3.259,0,0,1,479.875,56.077Zm-3.541.455q.045-.636-.205-.841a2.272,2.272,0,0,0-1.066-.294q-1.454-.091-3.155-.113a31.9,31.9,0,0,0-3.247.113c-.333.061-.5.136-.5.227,0,.333-.008.657-.023.976s-.023.6-.023.84a.4.4,0,0,0,.455.455q3.993-.091,6.265,0a1.779,1.779,0,0,0,1.157-.182A2.046,2.046,0,0,0,476.334,56.532Z" transform="translate(-399.191 14.052)"/><path d="M431.194,37.345a19.846,19.846,0,0,0,3.247-1.633,23.452,23.452,0,0,0,2.974-2.226c.332-.271.5-.483.5-.634s-.136-.348-.409-.59q-1.272-1.045-1.952-1.567c-.454-.347-.894-.659-1.316-.93q-.818-.5-.726-1.112t1-1.112a3.054,3.054,0,0,1,1.385-.342,2.6,2.6,0,0,1,1.475.8q.545.5,1.091.953l1.089.908a.788.788,0,0,0,.544.25q.227-.022.455-.386a10.266,10.266,0,0,0,.749-1.566c.227-.591.414-1.112.567-1.567a1.831,1.831,0,0,1,.794-1.112,1.257,1.257,0,0,1,1.2-.067,2.511,2.511,0,0,1,1.453,1.339,1.285,1.285,0,0,1-.09,1.339,12.758,12.758,0,0,0-.8,1.181q-.567.907-1.339,2.225-.409.727.227,1.089a32.079,32.079,0,0,0,5.788,2.815,33.346,33.346,0,0,0,5.79,1.5c.3.061.477.144.521.25s-.008.281-.158.522a8.3,8.3,0,0,1-2.77,3.178,4.854,4.854,0,0,1-3.041.863,4.418,4.418,0,0,1-1.93-.749,18.062,18.062,0,0,1-2.429-1.975q-1.407-1.316-2.225-2.065t-1.589-1.431q-.545-.5-1.181.273-.907,1.045-1.7,1.794a15.17,15.17,0,0,1-1.589,1.316,13.273,13.273,0,0,1-1.681,1.022q-.885.454-1.975.907a3.685,3.685,0,0,1-2.746.251,4.37,4.37,0,0,1-1.975-2.021.581.581,0,0,1-.046-.659.894.894,0,0,1,.68-.431c.061,0,.076-.031.046-.092s-.122-.105-.273-.136a6.866,6.866,0,0,1-1.043-.294q-.409-.16-.863-.386-.636-.362-1.725.409c-.516.333-.976.657-1.385.976a10,10,0,0,0-.84.7,6.317,6.317,0,0,1-2.248,1.907,5.677,5.677,0,0,1-2.43.408,2.2,2.2,0,0,1-1.86-1.453,3.064,3.064,0,0,1-.205-1.339,4.51,4.51,0,0,1,.34-1.612,13.446,13.446,0,0,0,.568-2.747,44.446,44.446,0,0,0,.2-4.926q0-.545-.045-1.2t-.159-1.339c-.076-.455-.153-.886-.227-1.295a10.634,10.634,0,0,0-.25-1.066c-.061-.182-.13-.288-.205-.319a.846.846,0,0,0-.477.09A2.076,2.076,0,0,1,413.806,24a3.681,3.681,0,0,1-1.272-2.315q-.227-1.089.953-1.316a12.855,12.855,0,0,0,2.588-.682,13.172,13.172,0,0,0,2.543-1.362,12.609,12.609,0,0,0,2.134-1.7,7.678,7.678,0,0,0,1.362-1.929,1.486,1.486,0,0,1,1.066-.818,2.242,2.242,0,0,1,1.521.319,1.3,1.3,0,0,1,.431.521,2.176,2.176,0,0,1,.25.749,1.085,1.085,0,0,0,.159.477.981.981,0,0,0,.25.251q.863.68,1.385,1.021c.347.227.567.371.657.432a7.461,7.461,0,0,1,.749.34c.2.107.371.2.522.294a1.85,1.85,0,0,1,.931.977.85.85,0,0,1-.25.84q-.545.545-1.907-.136-1.181-.636-2.021-1.112t-2.065-1.112a.662.662,0,0,0-.772.136q-1.407,1.543-2.361,2.565t-1.5,1.612c-.243.243-.243.454,0,.636a1.858,1.858,0,0,0,.863.408q1.588-.089,2.655-.112T425.2,23a3.209,3.209,0,0,0,1.589-.544,1.148,1.148,0,0,1,.794-.113,3.221,3.221,0,0,1,1.158.431,1.61,1.61,0,0,1,.8.953A2.43,2.43,0,0,1,429.606,25a14.774,14.774,0,0,0-.34,2.384,22.244,22.244,0,0,0-.023,3.018,2.345,2.345,0,0,1-.113,1.068,1.252,1.252,0,0,1-.659.567,1.975,1.975,0,0,1-.976.136,3.007,3.007,0,0,1-.794-.136,2.9,2.9,0,0,0-.931-.25,10.317,10.317,0,0,0-1.2-.067q-.909,0-1.884.023t-1.748.113a.591.591,0,0,0-.59.68v2.407c0,.514-.016,1.014-.046,1.5a1.069,1.069,0,0,0,.25.84,1.365,1.365,0,0,0,1.022.067,4.949,4.949,0,0,0,1.181-.34,10.4,10.4,0,0,0,1-.477q.909-.589.046-1a2.429,2.429,0,0,1-1.293-1,1.336,1.336,0,0,1,.113-1.135,1.638,1.638,0,0,1,.817-.93,2.114,2.114,0,0,1,1.453.34,14.275,14.275,0,0,1,1.362.84q.909.614,1.817,1.272t1.633,1.272a3.358,3.358,0,0,1,.818.84.827.827,0,0,0,.25.34A.607.607,0,0,0,431.194,37.345Zm-5.085-7.99a2.346,2.346,0,0,0,0-.953c-.061-.151-.151-.228-.273-.228q-1.634-.043-2.678-.022t-2.361.113c-.151,0-.25.045-.294.136a1.4,1.4,0,0,0-.069.544,2.66,2.66,0,0,0,.023.841.283.283,0,0,0,.3.2q1.225.045,2.179,0t2.451-.182Q426.019,29.764,426.109,29.355Zm.092-3.95q0-.907-1.181-.908-.816,0-1.771.023c-.634.016-1.423.053-2.36.113q-.364,0-.364.908,0,1,.364,1c.423,0,.817-.007,1.18-.023s.733-.023,1.112-.023.779-.007,1.2-.023.923-.022,1.5-.022Q426.2,26.45,426.2,25.405Zm.09-4.359c.424.212.59.417.5.613s-.47.3-1.135.3a14.96,14.96,0,0,1-1.5-.069,11.2,11.2,0,0,1-1.589-.294.825.825,0,0,1-.749-.749,1.13,1.13,0,0,1,.568-1.068,1.722,1.722,0,0,1,2.5.046A4.515,4.515,0,0,0,426.292,21.046Zm26.016-1.725a1.135,1.135,0,0,1-.636.8,4.512,4.512,0,0,1-2.044.25q-4.131-.091-7.809-.046t-6.174.182q-1.454.091-2.269.227a6.059,6.059,0,0,0-1.59.5,1.42,1.42,0,0,1-1.021.136.964.964,0,0,1-.613-.522,1.348,1.348,0,0,1-.023-.954,2.609,2.609,0,0,1,.794-1.157,3.331,3.331,0,0,1,1.318-.886,2.6,2.6,0,0,1,1.272.113,3.6,3.6,0,0,0,.93.136,18.562,18.562,0,0,0,2.157-.046c.483-.03.726-.273.726-.726v-.567a4.675,4.675,0,0,1,.09-.8,2.977,2.977,0,0,1,.863-1.77A1.912,1.912,0,0,1,440,13.736a3.145,3.145,0,0,1,1.7.772,3.509,3.509,0,0,1,.749,1.816,3.462,3.462,0,0,1,.069.364,4.329,4.329,0,0,1,.022.5.652.652,0,0,0,.182.545,1,1,0,0,0,.59.136q1.861,0,3.179.023t2.246.067c.621.031,1.142.069,1.567.113s.8.1,1.134.159Q452.441,18.414,452.307,19.321Zm-14.393,2.134a1.692,1.692,0,0,1,.817,1.385,1.968,1.968,0,0,1-1.044,1.52,32.114,32.114,0,0,1-3.565,2.09,11.669,11.669,0,0,1-2.837,1.043,1.209,1.209,0,0,1-.748-.045.808.808,0,0,1-.409-.364.58.58,0,0,1,.023-.522,1.252,1.252,0,0,1,.5-.521,18.772,18.772,0,0,0,2.588-1.862,16.843,16.843,0,0,0,2.315-2.315,1.841,1.841,0,0,1,1.158-.659A1.549,1.549,0,0,1,437.914,21.455Zm13.348,4.995a1.242,1.242,0,0,1-.59.317,3.03,3.03,0,0,1-1.181-.069,17.246,17.246,0,0,1-2.2-.636q-1.385-.476-3.61-1.384a1.755,1.755,0,0,1-1.226-1.953,1.517,1.517,0,0,1,.386-.953,1.974,1.974,0,0,1,.8-.522,1.843,1.843,0,0,1,.953-.067,1.771,1.771,0,0,1,.863.409,18.8,18.8,0,0,0,2.042,1.5q1.316.865,2.906,1.771a1.854,1.854,0,0,1,.885.84A.69.69,0,0,1,451.262,26.45Z" transform="translate(-412.424 4.793)"/><path d="M455.376,51.139a6.1,6.1,0,0,1-1.408,1.816,9.385,9.385,0,0,1-1.952,1.362,3.013,3.013,0,0,1-1.633.273,7.329,7.329,0,0,1-2.044-.59,23.453,23.453,0,0,0-3.859-1.066q-2.361-.478-4.812-.8c-.575-.059-.915-.038-1.022.069s-.128.416-.068.93q.091.863.136,2t.045,2.588a13.279,13.279,0,0,1-.59,4.449,7.059,7.059,0,0,1-1.952,2.815,6.459,6.459,0,0,1-3.337,1.475,13.328,13.328,0,0,1-4.245,0,14.89,14.89,0,0,1-4.2-1.316,9.128,9.128,0,0,1-3.247-2.52q-.589-.771-.248-1.112t1.247.159a12.776,12.776,0,0,0,2.77,1.045,11.614,11.614,0,0,0,2.815.363,8.861,8.861,0,0,0,2.52-.342,4.908,4.908,0,0,0,1.884-.976,5.548,5.548,0,0,0,1.2-1.679,10.526,10.526,0,0,0,.749-2.2,13.385,13.385,0,0,0,.317-2.52,19.313,19.313,0,0,0-.09-2.634c-.061-.574-.166-.915-.317-1.021a2.229,2.229,0,0,0-1.135-.113q-1.954.091-4.245.227t-4.63.409q-2.341.271-4.586.725a28.431,28.431,0,0,0-4.109,1.135,2.8,2.8,0,0,1-1.681.182,1.536,1.536,0,0,1-1.044-1.135,1.915,1.915,0,0,1,.023-1.339,4.642,4.642,0,0,1,1.157-1.385,4.778,4.778,0,0,1,1.7-1.112,1.913,1.913,0,0,1,1.43.159,1.646,1.646,0,0,0,.682.113c.363.015.809.023,1.339.023h1.77q.976,0,1.93-.046,2.859-.091,5.356-.158t4.541-.115c.424,0,.687-.09.794-.273a1.38,1.38,0,0,0-.068-1,6.062,6.062,0,0,0-.25-.612,2,2,0,0,0-.386-.568q-1.77-2.27.909-2a1.119,1.119,0,0,0,.386.023.577.577,0,0,1,.34.069,2.745,2.745,0,0,0,1.112.2,4.658,4.658,0,0,0,1.022-.159,5.765,5.765,0,0,0,1.111-.432,4.18,4.18,0,0,0,.8-.521.935.935,0,0,0,.363-.931q-.136-.429-1.27-.613a9.62,9.62,0,0,0-1.135-.045q-.818,0-1.817.023t-2.042.09a15.367,15.367,0,0,0-1.771.2q-1.045.182-2.111.432t-2.019.567q-.954.318-1.748.636a10.156,10.156,0,0,0-1.339.636,2.468,2.468,0,0,1-1.612.386,1.151,1.151,0,0,1-.976-.931,2.494,2.494,0,0,1,.476-1.952,6.927,6.927,0,0,1,2.338-2.134,6.068,6.068,0,0,1,2.269-.93,4.1,4.1,0,0,1,2.044.2c.3.09.575.175.817.25a5.827,5.827,0,0,0,.772.182c.273.045.575.084.909.113s.741.045,1.226.045q.589,0,1.679-.045c.726-.03,1.475-.069,2.248-.113s1.5-.107,2.179-.182,1.173-.143,1.475-.2a11.263,11.263,0,0,1,1.975-.319,4.55,4.55,0,0,1,1.477.136,3.627,3.627,0,0,1,1.157.568,5.919,5.919,0,0,1,1.068,1.066,5.561,5.561,0,0,1,1.407,2.248,1.228,1.228,0,0,1-.59,1.293,2.374,2.374,0,0,1-.7.409,4.015,4.015,0,0,1-.8.136,13.8,13.8,0,0,0-3.02.59,24.981,24.981,0,0,0-3.064,1.135,1.991,1.991,0,0,0-.863.636.878.878,0,0,0,0,.68,1.342,1.342,0,0,0,.454.682,1.291,1.291,0,0,0,.728.181q2.9-.045,5.583-.045t5.54.09q.636,0,1.407.046t1.5.068c.485.016.938.038,1.362.069s.756.045,1,.045Q456.239,49.461,455.376,51.139Z" transform="translate(-412.424 13.777)"/></g></g></svg>