<svg id="レイヤー_1" data-name="レイヤー 1" xmlns="http://www.w3.org/2000/svg" viewBox="0 0 243.19 36.36"><defs><style>.cls-1{fill:#187038;}</style></defs><path class="cls-1" d="M52.54,3a8.19,8.19,0,0,1-.27,2.2A5.07,5.07,0,0,1,51.39,7a9.46,9.46,0,0,1-1,1.14,17.86,17.86,0,0,1-1.5,1.26,17.42,17.42,0,0,1-1.71,1.13,8.75,8.75,0,0,1-1.69.74,2.57,2.57,0,0,1-.62.08,2.45,2.45,0,0,1-.65-.15l-1-.44c-.34-.15-.73-.35-1.18-.6a18.28,18.28,0,0,0,3.25-.77,12.31,12.31,0,0,0,2.6-1.21,6.63,6.63,0,0,0,1.74-1.51A2.73,2.73,0,0,0,50.17,5a10.86,10.86,0,0,1-2.62,1.74,5.88,5.88,0,0,1-2.4.61,3.49,3.49,0,0,1-1.1-.19,3.83,3.83,0,0,1-.94-.49A2.88,2.88,0,0,1,42.44,6a1.36,1.36,0,0,1-.26-.75,2,2,0,0,1,.41-1.09,7.06,7.06,0,0,1,1.17-1.27,17.41,17.41,0,0,1,1.82-1.38A27.26,27.26,0,0,1,47.92.06l1.43.66C50,.53,50.52.39,50.85.31A3.19,3.19,0,0,1,51.6.18c.22,0,.43.2.63.61A5.42,5.42,0,0,1,52.54,3ZM50,3a3.44,3.44,0,0,0-.08-.78,6.77,6.77,0,0,0-.22-.77l-.94-.33a8.56,8.56,0,0,0-2.46,2,8,8,0,0,0-1.4,2.39l1.5.7a9.06,9.06,0,0,0,2.71-1.48A2.24,2.24,0,0,0,50,3Z"/><path class="cls-1" d="M69.65,7.11a4.63,4.63,0,0,1-1.22,2.7,5.4,5.4,0,0,1-3,1.51,2.28,2.28,0,0,1-.69,0,2.91,2.91,0,0,1-.72-.17,3.44,3.44,0,0,1-.66-.34,3.27,3.27,0,0,1-.55-.5c-.21-.22-.29-.39-.24-.48s.28-.14.69-.14a11.67,11.67,0,0,0,1.87-.12,4.49,4.49,0,0,0,1.31-.38,2.62,2.62,0,0,0,.87-.64,3.12,3.12,0,0,0,.53-.94A2.35,2.35,0,0,0,68,6.4a2.9,2.9,0,0,0-.5-1.22,4.11,4.11,0,0,0-1.09-1.07,6.61,6.61,0,0,0-1.68-.79.79.79,0,0,0-.62,0,.81.81,0,0,0-.31.6A14.76,14.76,0,0,1,62.56,8a6.89,6.89,0,0,1-1.7,2.3,3,3,0,0,1-2,.74,2.87,2.87,0,0,1-1.93-.86A3.29,3.29,0,0,1,56,8.5a5.21,5.21,0,0,1-.1-2.08,4,4,0,0,1,.65-1.7,4.85,4.85,0,0,1,1.33-1.34,9,9,0,0,1,2.46-1.13,9.94,9.94,0,0,1,5.79.23,6.75,6.75,0,0,1,2.06,1.19,4.59,4.59,0,0,1,1.22,1.61A3.48,3.48,0,0,1,69.65,7.11ZM62,3.77c0-.34-.13-.53-.36-.59a2.77,2.77,0,0,0-1.33.28,4.87,4.87,0,0,0-1.49.8,4,4,0,0,0-1,1.11A3.84,3.84,0,0,0,57.3,7a3,3,0,0,0,.34,1.55,1.64,1.64,0,0,0,.6.7,1.66,1.66,0,0,0,.75.27,1.54,1.54,0,0,0,.76-.14,1.62,1.62,0,0,0,.63-.53,9.14,9.14,0,0,0,.77-1.27,7.73,7.73,0,0,0,.5-1.23,6,6,0,0,0,.26-1.26A10,10,0,0,0,62,3.77Z"/><path class="cls-1" d="M79.73,10.07a8.13,8.13,0,0,0,1.38-.7,9.69,9.69,0,0,0,1.27-.94q.21-.18.21-.27c0-.07-.06-.15-.17-.26-.36-.3-.64-.51-.83-.66L81,6.84c-.24-.14-.34-.3-.31-.48s.16-.33.42-.47a1.51,1.51,0,0,1,.59-.15,1.12,1.12,0,0,1,.63.34l.47.41.46.39a.33.33,0,0,0,.23.1c.07,0,.13-.06.2-.16A5.86,5.86,0,0,0,84,6.15c.1-.25.17-.47.24-.67A.77.77,0,0,1,84.62,5a.51.51,0,0,1,.51,0,1.09,1.09,0,0,1,.62.57.56.56,0,0,1,0,.57,5.5,5.5,0,0,0-.34.5l-.57,1c-.12.21-.08.36.1.46a13.33,13.33,0,0,0,2.46,1.2,14,14,0,0,0,2.47.64c.13,0,.2.06.22.11s0,.12-.07.22a3.52,3.52,0,0,1-1.18,1.36,2.06,2.06,0,0,1-1.3.36,1.93,1.93,0,0,1-.82-.32,7.55,7.55,0,0,1-1-.84l-1-.88L84,9.27c-.15-.14-.32-.1-.5.12s-.5.55-.72.76a5.94,5.94,0,0,1-.68.56,5.33,5.33,0,0,1-.72.44q-.37.19-.84.39a1.58,1.58,0,0,1-1.17.1,1.89,1.89,0,0,1-.84-.86.26.26,0,0,1,0-.28.4.4,0,0,1,.29-.18s0,0,0,0,0,0-.11-.06l-.45-.12-.36-.17c-.19-.1-.43,0-.74.17s-.42.28-.59.42-.24.19-.36.3a2.74,2.74,0,0,1-1,.81,2.34,2.34,0,0,1-1,.18,1,1,0,0,1-.79-.62,1.39,1.39,0,0,1-.09-.57,2,2,0,0,1,.15-.69,5.79,5.79,0,0,0,.24-1.17c.06-.7.09-1.4.08-2.1,0-.16,0-.33,0-.51s0-.38-.07-.57-.07-.38-.1-.56-.07-.3-.11-.45a.19.19,0,0,0-.09-.14.51.51,0,0,0-.2,0,.86.86,0,0,1-.92-.1,1.59,1.59,0,0,1-.55-1c-.06-.31.07-.5.41-.56a5.94,5.94,0,0,0,1.1-.29A6.23,6.23,0,0,0,74.37,2a5.39,5.39,0,0,0,.91-.73,3.13,3.13,0,0,0,.58-.82.66.66,0,0,1,.46-.35A.91.91,0,0,1,77,.2a.51.51,0,0,1,.19.22.92.92,0,0,1,.1.32.48.48,0,0,0,.07.2.52.52,0,0,0,.11.1,6.73,6.73,0,0,0,.59.44l.28.18a2.3,2.3,0,0,1,.32.15l.22.12a.82.82,0,0,1,.4.42.37.37,0,0,1-.11.36q-.22.22-.81-.06l-.86-.48-.88-.47a.29.29,0,0,0-.33.06l-1,1.09-.64.69q-.15.15,0,.27A.7.7,0,0,0,75,4c.45,0,.83,0,1.13,0s.66,0,1.07,0a1.39,1.39,0,0,0,.68-.24.49.49,0,0,1,.34,0,1.26,1.26,0,0,1,.49.18.7.7,0,0,1,.34.41,1,1,0,0,1,0,.54,5.73,5.73,0,0,0-.15,1,11.1,11.1,0,0,0,0,1.29.86.86,0,0,1-.05.45.51.51,0,0,1-.28.24.73.73,0,0,1-.41.06,1,1,0,0,1-.34-.06,1.38,1.38,0,0,0-.4-.1,4.36,4.36,0,0,0-.51,0h-.8a5.54,5.54,0,0,0-.75,0,.24.24,0,0,0-.25.25V9c0,.22,0,.43,0,.64a.44.44,0,0,0,.11.36c.07.06.21.07.43,0a2.21,2.21,0,0,0,.5-.15,3.36,3.36,0,0,0,.43-.2c.26-.16.26-.31,0-.42A1,1,0,0,1,76,8.86a.57.57,0,0,1,0-.48.69.69,0,0,1,.35-.4.9.9,0,0,1,.62.14c.2.11.39.23.58.36l.77.54c.26.19.5.37.7.54a1.33,1.33,0,0,1,.35.36.33.33,0,0,0,.11.15A.28.28,0,0,0,79.73,10.07Zm-2.17-3.4a.9.9,0,0,0,0-.4c0-.07-.06-.1-.11-.1-.47,0-.85,0-1.14,0s-.63,0-1,0a.13.13,0,0,0-.12.06.47.47,0,0,0,0,.23.87.87,0,0,0,0,.36.1.1,0,0,0,.12.09h.93c.27,0,.62,0,1-.08.19,0,.29-.07.32-.19ZM77.6,5c0-.26-.16-.39-.5-.39h-.75l-1,0q-.15,0-.15.39t.15.42h2.13c.09,0,.13-.14.13-.44Zm0-1.86c.18.09.25.18.21.26s-.2.13-.48.13a6.4,6.4,0,0,1-.64,0,5.24,5.24,0,0,1-.67-.12.35.35,0,0,1-.32-.32A.48.48,0,0,1,76,2.59a.73.73,0,0,1,1,0l0,0a2,2,0,0,0,.6.52ZM88.72,2.4a.47.47,0,0,1-.27.34,1.85,1.85,0,0,1-.87.1c-1.17,0-2.28,0-3.33,0s-1.92,0-2.63.07c-.41,0-.73.06-1,.1a2.26,2.26,0,0,0-.68.22.66.66,0,0,1-.44.06.45.45,0,0,1-.26-.23.61.61,0,0,1,0-.4,1.17,1.17,0,0,1,.34-.5,1.37,1.37,0,0,1,.56-.37,1.14,1.14,0,0,1,.55,0,1.34,1.34,0,0,0,.4.06,6.91,6.91,0,0,0,.91,0c.21,0,.31-.11.31-.31V1.31c0-.11,0-.23,0-.34a1.34,1.34,0,0,1,.37-.75.82.82,0,0,1,.73-.2,1.4,1.4,0,0,1,.73.33,1.5,1.5,0,0,1,.32.78l0,.15a1.48,1.48,0,0,1,0,.21.27.27,0,0,0,.08.24.42.42,0,0,0,.25.05h1.35l1,0,.67.05.48.07c.28.05.4.2.36.46Zm-6.13.91a.72.72,0,0,1,.35.59.83.83,0,0,1-.45.65A14.24,14.24,0,0,1,81,5.44a4.88,4.88,0,0,1-1.21.44.5.5,0,0,1-.32,0,.34.34,0,0,1-.18-.15.31.31,0,0,1,0-.23.58.58,0,0,1,.22-.22,8.5,8.5,0,0,0,1.1-.79,7.05,7.05,0,0,0,1-1,.81.81,0,0,1,.5-.28.66.66,0,0,1,.51.1Zm5.69,2.13a.6.6,0,0,1-.25.13,1.39,1.39,0,0,1-.5,0,7.26,7.26,0,0,1-.94-.27c-.4-.13-.91-.33-1.54-.59a.74.74,0,0,1-.52-.83.64.64,0,0,1,.16-.41.82.82,0,0,1,.75-.25.82.82,0,0,1,.36.18,8.72,8.72,0,0,0,.87.63c.38.25.79.5,1.24.76a.78.78,0,0,1,.38.36.29.29,0,0,1,0,.31Z"/><path class="cls-1" d="M109.18,5.41a2.55,2.55,0,0,1-.6.78,4.41,4.41,0,0,1-.83.58,1.3,1.3,0,0,1-.7.11,3,3,0,0,1-.87-.25,9.26,9.26,0,0,0-1.64-.45c-.67-.14-1.36-.25-2.05-.34-.25,0-.39,0-.44,0s0,.18,0,.4,0,.53.06.85,0,.69,0,1.1a5.75,5.75,0,0,1-.25,1.89,3,3,0,0,1-.83,1.2,2.73,2.73,0,0,1-1.42.63,5.5,5.5,0,0,1-1.81,0A5.92,5.92,0,0,1,96,11.38a3.81,3.81,0,0,1-1.38-1.07c-.17-.22-.21-.38-.11-.47s.27-.08.53.06a5,5,0,0,0,1.18.45,4.81,4.81,0,0,0,1.2.15,3.54,3.54,0,0,0,1.07-.14,2,2,0,0,0,.8-.42,2.21,2.21,0,0,0,.51-.71,4,4,0,0,0,.32-.94,5.5,5.5,0,0,0,.14-1.07,8.54,8.54,0,0,0,0-1.13c0-.24-.07-.39-.13-.43a.92.92,0,0,0-.49,0c-.55,0-1.15.06-1.81.1s-1.3.1-2,.17-1.32.18-1.95.31a11.64,11.64,0,0,0-1.75.49,1.19,1.19,0,0,1-.72.07A.65.65,0,0,1,91,6.27a.8.8,0,0,1,0-.57,1.86,1.86,0,0,1,.49-.59,2,2,0,0,1,.73-.47.78.78,0,0,1,.6.06.59.59,0,0,0,.29,0h1.33c.28,0,.55,0,.82,0l2.28-.07,1.94,0q.27,0,.33-.12a.54.54,0,0,0,0-.43c0-.08-.06-.17-.1-.26a.81.81,0,0,0-.17-.24c-.5-.64-.37-.93.39-.85a.47.47,0,0,0,.17,0,.32.32,0,0,1,.14,0,1.27,1.27,0,0,0,.47.09,2.13,2.13,0,0,0,.44-.07,3.8,3.8,0,0,0,.47-.18,2,2,0,0,0,.34-.23.39.39,0,0,0,.16-.4c0-.12-.22-.21-.54-.26l-.49,0h-.77l-.87,0c-.25,0-.51.05-.76.09S98,2,97.73,2s-.59.16-.86.25l-.74.27a3,3,0,0,0-.57.27,1,1,0,0,1-.69.16.48.48,0,0,1-.41-.4,1,1,0,0,1,.2-.83,2.82,2.82,0,0,1,1-.91,2.62,2.62,0,0,1,1-.4,1.7,1.7,0,0,1,.87.09l.35.1a2,2,0,0,0,.33.08l.39.05.52,0,.71,0,1-.05c.33,0,.64,0,.93-.08l.63-.08a4.75,4.75,0,0,1,.84-.14,2.25,2.25,0,0,1,.63.06,1.49,1.49,0,0,1,.49.24,2.86,2.86,0,0,1,.46.46,2.37,2.37,0,0,1,.6,1,.53.53,0,0,1-.25.55,1,1,0,0,1-.3.18l-.34.06a5.66,5.66,0,0,0-1.29.25,10.28,10.28,0,0,0-1.31.48.88.88,0,0,0-.36.27.37.37,0,0,0,0,.29.53.53,0,0,0,.19.29.55.55,0,0,0,.31.08l2.38,0c.76,0,1.55,0,2.36,0l.6,0,.64,0a5.35,5.35,0,0,1,.58,0H109C109.35,4.69,109.43,4.94,109.18,5.41Z"/><path class="cls-1" d="M125.11,10.09a.71.71,0,0,1-.51.14A1.41,1.41,0,0,1,124,10c-.5-.34-1.08-.71-1.75-1.13l-2-1.31a.63.63,0,0,0-.4-.14,1,1,0,0,0-.45.25c-.43.38-.89.75-1.4,1.12s-1,.7-1.56,1-1,.59-1.53.82a8.27,8.27,0,0,1-1.35.54,2.79,2.79,0,0,1-1.76,0,2.33,2.33,0,0,1-1.23-1,.35.35,0,0,1-.07-.35.27.27,0,0,1,.28-.13,7.49,7.49,0,0,0,1.64-.27,16.56,16.56,0,0,0,1.92-.63,19,19,0,0,0,1.93-.92,15.76,15.76,0,0,0,1.7-1.08q.27-.23.24-.39c0-.12-.16-.25-.41-.41l-.9-.55L116,5l-.83-.5-1-.61a.9.9,0,0,1-.43-.56.84.84,0,0,1,0-.66.68.68,0,0,1,.5-.38.79.79,0,0,1,.62,0L116,3l1,.65c.33.21.67.43,1,.66l1.07.7a.69.69,0,0,0,.43.18.72.72,0,0,0,.36-.23,14.16,14.16,0,0,0,1.37-1.72A7.85,7.85,0,0,0,122,1.94c.1-.26.19-.47.26-.64s.13-.3.18-.4a2,2,0,0,1,.14-.23,1.09,1.09,0,0,1,.13-.17.91.91,0,0,1,.65-.27.9.9,0,0,1,.67.31,1.52,1.52,0,0,1,.43.66.54.54,0,0,1-.12.46c-.18.22-.34.42-.47.61a7.41,7.41,0,0,0-.4.67,12.33,12.33,0,0,1-.88,1.26c-.39.49-.85,1-1.39,1.6-.15.19-.23.32-.22.4s.09.19.26.3c.54.38,1.12.8,1.73,1.27l2,1.58a.65.65,0,0,1,.26.41A.32.32,0,0,1,125.11,10.09Z"/><path class="cls-1" d="M146.15,8.53a3.55,3.55,0,0,1-.23.43,4.76,4.76,0,0,1-.31.47,3.62,3.62,0,0,1-.36.42,1.46,1.46,0,0,1-.34.26,2.33,2.33,0,0,1-1.26.33A5.14,5.14,0,0,1,142,10l-.57-.21-.7-.18c-.27-.06-.57-.11-.92-.17l-1.24-.17q-.75-.1-1.35-.15c-.4,0-.81,0-1.22,0s-.86,0-1.34,0-1.06.09-1.71.17l-.83.11-.66.13-.68.18-.89.29a1.65,1.65,0,0,1-1.34.06.64.64,0,0,1-.26-.81,1.2,1.2,0,0,1,.29-.47,5.89,5.89,0,0,1,.77-.65,1,1,0,0,1,.43-.16,1.76,1.76,0,0,1,.61,0,1.05,1.05,0,0,0,.24.06.87.87,0,0,0,.28,0,3.08,3.08,0,0,0,.38,0l.57-.09c.17,0,.43,0,.78-.07s.74,0,1.2-.07l1.44,0,1.52,0h1.42c.44,0,.82,0,1.13.06l2,.1,1.9.06,1.57,0c.33,0,.66,0,1,0s.42,0,.49.07S146.25,8.27,146.15,8.53Zm-3-5.36a.7.7,0,0,1-.26.54,2,2,0,0,1-.94.19c-.33,0-.71.05-1.12.06l-1.25,0c-.42,0-.82,0-1.2,0l-1,0c-.42,0-.9,0-1.44,0l-1.62,0L132.91,4a4.49,4.49,0,0,0-.82.11,1.59,1.59,0,0,1-.75.06.58.58,0,0,1-.37-.33.64.64,0,0,1-.07-.54,1.44,1.44,0,0,1,.59-.53,1.76,1.76,0,0,1,.7-.27,1.57,1.57,0,0,1,.68,0,2.36,2.36,0,0,0,.53.1,5.38,5.38,0,0,0,.8,0,25,25,0,0,1,2.74,0,4.76,4.76,0,0,0,.51,0h.8l.9,0,.85,0,.54,0H141l.54,0,.67.06a1.87,1.87,0,0,1,.73.18.32.32,0,0,1,.16.28Z"/><path class="cls-1" d="M163.92,9.38a4.22,4.22,0,0,1-.54.58,5.58,5.58,0,0,1-.82.6.46.46,0,0,1-.19.08,1,1,0,0,1-.34,0l-.57-.12-.89-.27a7.71,7.71,0,0,0-1.42-.26c-.6-.08-1.44-.12-2.52-.15l-1.83-.05c-.63,0-1.23,0-1.81,0-.35,0-.67,0-1,0a6.18,6.18,0,0,0-.85.11q-.4.08-.81.18c-.27.07-.56.16-.87.26-.67.21-1,0-.83-.58a1.64,1.64,0,0,1,.22-.63,1.24,1.24,0,0,1,.39-.4,1.06,1.06,0,0,1,.45-.19.81.81,0,0,1,.41,0,2.18,2.18,0,0,0,.56.19,2.45,2.45,0,0,0,.66-.05c.37-.07.7-.11,1-.14s.5,0,.67,0h2.51a2,2,0,0,0,.54,0,.68.68,0,0,0,.26-.22,7.17,7.17,0,0,0,1-1.89,6.46,6.46,0,0,0,.34-2.13.55.55,0,0,0-.16-.39.81.81,0,0,0-.38-.19l-.47,0-.73,0h-.76l-.57,0-.72.07c-.21,0-.41.07-.62.12a2,2,0,0,1-.91.11.37.37,0,0,1-.32-.34.79.79,0,0,1,.1-.52,1.46,1.46,0,0,1,.58-.52,1.66,1.66,0,0,1,.75-.27.78.78,0,0,1,.52.07.69.69,0,0,0,.33.14,1.7,1.7,0,0,0,.39,0c.55,0,1.07-.06,1.56-.07a10.87,10.87,0,0,1,1.28,0,1.4,1.4,0,0,0,.41,0,.75.75,0,0,0,.27-.13.48.48,0,0,1,.24-.07,1,1,0,0,1,.34,0,2.21,2.21,0,0,1,.35.08,1.16,1.16,0,0,1,.27.14,1.16,1.16,0,0,1,.41.62,2.93,2.93,0,0,1,0,1,10.87,10.87,0,0,1-.5,2.19,8.59,8.59,0,0,1-1.06,2c-.13.17-.1.25.07.25.47,0,.86,0,1.19,0s.6,0,.83.07a10.54,10.54,0,0,0,1.38.06c.51,0,1.14-.07,1.9-.16.32,0,.51,0,.55.08S164.14,9,163.92,9.38Z"/><path class="cls-1" d="M179.4,5.06c.51,0,1,0,1.35,0s.79,0,1.2,0,.42,0,.5.18a.52.52,0,0,1-.08.52,1,1,0,0,1-.64.51,3.94,3.94,0,0,1-1.37,0l-1.1,0-1.76,0-1.84,0h-1.37c-.31,0-.6,0-.88,0l-.91,0-1.11.1c-.41,0-.91.09-1.49.14l-.64.07a3.54,3.54,0,0,0-.45.08,2.64,2.64,0,0,0-.4.12l-.49.19a1.16,1.16,0,0,1-.61.13.57.57,0,0,1-.38-.18.51.51,0,0,1-.1-.41,1,1,0,0,1,.26-.54,3,3,0,0,1,1-.88,1.06,1.06,0,0,1,.82-.07,2.66,2.66,0,0,0,.63.17,2.43,2.43,0,0,0,.66,0c.42,0,1,0,1.7,0l2.36,0c.85,0,1.73,0,2.63,0Z"/><path class="cls-1" d="M199.05,10.06a3.84,3.84,0,0,1-.56.93,2.27,2.27,0,0,1-.72.5,5.69,5.69,0,0,1-1.29.33,17.5,17.5,0,0,1-1.8.19c-.66,0-1.35.05-2.08,0s-1.45-.06-2.15-.13a11,11,0,0,1-2.19-.42,1.71,1.71,0,0,1-1-.64,1,1,0,0,1,0-.71,2,2,0,0,1,.68-.86,8.2,8.2,0,0,1,1.67-1A31.64,31.64,0,0,1,192.48,7c.22-.08.24-.21.06-.4a1.35,1.35,0,0,0-.81-.41,1.79,1.79,0,0,0-1,.12c-.54.21-1,.4-1.43.58s-.78.36-1.1.53-.56.31-.83.48a7.41,7.41,0,0,0-.63.46.88.88,0,0,1-.65.24.77.77,0,0,1-.54-.33.71.71,0,0,1-.16-.64.75.75,0,0,1,.47-.51c.6-.27,1.13-.52,1.58-.75a13.53,13.53,0,0,0,1.23-.69,8.56,8.56,0,0,0,.92-.66,5.86,5.86,0,0,0,.68-.64.12.12,0,0,0,0-.16.25.25,0,0,0-.22,0q-.84.06-1.35.06a5.57,5.57,0,0,1-.82,0,2.9,2.9,0,0,0-1.33.25.56.56,0,0,1-.44,0,.61.61,0,0,1-.28-.46A.35.35,0,0,1,186,3.7a1.5,1.5,0,0,1,.37-.34,2.42,2.42,0,0,1,.58-.29.74.74,0,0,1,.33,0,2.46,2.46,0,0,0,.45.11,4.48,4.48,0,0,0,.63.06c.26,0,.58,0,1,0l1.48-.08c.25,0,.39-.09.43-.24s0-.17,0-.23,0-.15,0-.25a.59.59,0,0,1,.34-.48,1.84,1.84,0,0,1,1-.06,1,1,0,0,1,.61.27.34.34,0,0,1,.08.39.49.49,0,0,0-.07.36.23.23,0,0,0,.24.09l1.66-.13,1.12-.12a7.2,7.2,0,0,0,.73-.1l.49-.09q.56-.15.45.36a.71.71,0,0,1-.57.59l-1,.18-1,.14-1.16.11-1.54.1a1.17,1.17,0,0,0-.37.08.59.59,0,0,0-.24.23c-.29.48-.22.76.19.83a4.2,4.2,0,0,1,.85.27,2.7,2.7,0,0,1,.72.49,2.51,2.51,0,0,0,.44.35.27.27,0,0,0,.23,0c.38-.11.7-.22,1-.31l.68-.26a4.82,4.82,0,0,0,.5-.27,4.59,4.59,0,0,0,.44-.33,1.31,1.31,0,0,1,.58-.34.55.55,0,0,1,.45.08,1.34,1.34,0,0,1,.43.39.64.64,0,0,1,.1.42.76.76,0,0,1-.16.46,1.44,1.44,0,0,1-.68.3l-.63.18-.67.2-.78.24-.95.31a.87.87,0,0,0-.3.16.21.21,0,0,0,0,.2,7.67,7.67,0,0,1,0,.83c0,.2,0,.4,0,.6a1.24,1.24,0,0,1-.29.66.84.84,0,0,1-.59.17.35.35,0,0,1-.28-.18.9.9,0,0,1-.07-.51,4.89,4.89,0,0,0,0-.54c0-.17,0-.36,0-.58S193,8,192.74,8c-.87.31-1.59.59-2.14.84a11.17,11.17,0,0,0-1.24.64,1.09,1.09,0,0,0-.5.58.33.33,0,0,0,.23.39,2.65,2.65,0,0,0,.57.15,5.94,5.94,0,0,0,.84.11c.32,0,.68.05,1.06.06s.79,0,1.22,0a20.88,20.88,0,0,0,3.61-.32,6.94,6.94,0,0,0,2.26-.76C199.12,9.44,199.26,9.55,199.05,10.06Z"/><path class="cls-1" d="M17.28,34.13a3.67,3.67,0,0,1,0,.66,1,1,0,0,1-.1.41.7.7,0,0,1-.26.28,3.29,3.29,0,0,1-.49.26,6.13,6.13,0,0,1-.75.29.46.46,0,0,1-.44-.06.79.79,0,0,1-.18-.48,7.89,7.89,0,0,1,0-1c0-.14,0-.43,0-.85s0-.93,0-1.51a.77.77,0,0,0-.07-.42.5.5,0,0,0-.32-.06h-.93l-1,0a.54.54,0,0,0-.35.06c-.05,0-.09.15-.12.34a4.15,4.15,0,0,1-.2.77c-.08.22-.17.47-.28.74a2.84,2.84,0,0,1-.35.61,4.28,4.28,0,0,1-.49.55,4,4,0,0,1-.55.45,3.5,3.5,0,0,1-.54.29c-1.19.42-2,.28-2.5-.43q-.17-.27-.12-.36s.14-.1.32-.12A4.34,4.34,0,0,0,9.16,34c.16-.1.25-.18.26-.23s-.08-.09-.26-.14a3.74,3.74,0,0,1-1.36-.58,1,1,0,0,1-.44-.53.64.64,0,0,1,.21-.5.65.65,0,0,1,.55-.25,1.48,1.48,0,0,1,.67.37l.43.38.59.49a.35.35,0,0,0,.24.12.5.5,0,0,0,.23-.2,3.42,3.42,0,0,0,.48-.93c.06-.18.08-.29.05-.33s-.12-.07-.26-.07H6.37q-.66,0-1.41.06a8.89,8.89,0,0,0-1.45.21A14.06,14.06,0,0,0,2,32.24a8.68,8.68,0,0,0-1.12.38.8.8,0,0,1-.52.11A.43.43,0,0,1,0,32.41a1,1,0,0,1,0-.62,1.44,1.44,0,0,1,.44-.7,1.16,1.16,0,0,1,.43-.25,1.29,1.29,0,0,1,.48,0,2.67,2.67,0,0,0,.4,0,6,6,0,0,0,.61-.08l.48-.07.62-.06a.61.61,0,0,0,.33-.1A.56.56,0,0,0,4,30.2c0-.54,0-1.08.06-1.63s0-1,0-1.45A.43.43,0,0,0,4,26.81s-.16-.06-.33,0-.48,0-.65.08a2.52,2.52,0,0,0-.47.13,1.3,1.3,0,0,1-.52.1.5.5,0,0,1-.31-.18.52.52,0,0,1-.07-.42,1.2,1.2,0,0,1,.36-.6.76.76,0,0,1,.39-.24,1.07,1.07,0,0,1,.5.07,3.44,3.44,0,0,0,.85.05A.4.4,0,0,0,4,25.71a.58.58,0,0,0,0-.36,1,1,0,0,1,.19-.8.74.74,0,0,1,.52-.25.7.7,0,0,1,.56.25,1.33,1.33,0,0,1,.2.37,2.66,2.66,0,0,1,.1.49.5.5,0,0,0,.08.31.54.54,0,0,0,.28.05h.89l.26,0h.26c.15,0,.24,0,.27-.11a.84.84,0,0,0,0-.47,1,1,0,0,1,.27-.88.76.76,0,0,1,.82,0,1,1,0,0,1,.5.42,1.64,1.64,0,0,1,.21.68.53.53,0,0,0,.08.27.42.42,0,0,0,.27.06H10a.75.75,0,0,1,.21,0,.54.54,0,0,1,.28.08.4.4,0,0,1,.07.28.5.5,0,0,1-.45.54h0l-.21,0-.22,0a.32.32,0,0,0-.25.12.84.84,0,0,0-.06.39c0,.46,0,1,0,1.51s0,1,0,1.39a.44.44,0,0,0,.09.31.79.79,0,0,0,.4.1l.46,0h.43a.37.37,0,0,0,.28-.13.66.66,0,0,0,.13-.45c0-.36,0-.72,0-1.1s0-.73,0-1.07,0-.65-.07-.93a2.8,2.8,0,0,0-.13-.64,2,2,0,0,1-.1-.8.65.65,0,0,1,.26-.42.93.93,0,0,1,.45-.18,1.07,1.07,0,0,1,.61.12.49.49,0,0,1,.18.14l.14.14a.62.62,0,0,0,.23.07l.23,0a1.23,1.23,0,0,1,.27,0,10.75,10.75,0,0,0,1.39,0,1.32,1.32,0,0,0,.64-.16.65.65,0,0,1,.41-.26,1.06,1.06,0,0,1,.67.17,1.51,1.51,0,0,1,.67.58,1.32,1.32,0,0,1,0,.94,4.15,4.15,0,0,0-.1.58c0,.22,0,.5-.05.83s0,.71,0,1.17.05,1,.09,1.6c.06.81.12,1.52.18,2.14S17.25,33.9,17.28,34.13Zm-11.58-2a.65.65,0,0,1,.37.61.94.94,0,0,1-.47.7l-.26.19-.24.2c-.31.27-.58.49-.8.66s-.39.29-.59.42a2.38,2.38,0,0,1-.45.23,1.14,1.14,0,0,1-.36.1c-.38.08-.59,0-.64-.29s.08-.33.35-.5a3.39,3.39,0,0,0,.45-.4,6,6,0,0,0,.57-.63,6.78,6.78,0,0,0,.53-.7,2.59,2.59,0,0,0,.34-.58.44.44,0,0,1,.34-.29,1.75,1.75,0,0,1,.86.28Zm2.09-2.05a.73.73,0,0,0-.08-.38.32.32,0,0,0-.29-.1,6,6,0,0,0-.85,0l-.8.05a.37.37,0,0,0-.27.16.83.83,0,0,0,0,.35c0,.15,0,.25.07.29a.6.6,0,0,0,.35,0l.72,0h.73a.67.67,0,0,0,.37-.08.4.4,0,0,0,.1-.29Zm0-1.65a.48.48,0,0,0-.06-.28.37.37,0,0,0-.27-.06c-.21,0-.43,0-.68,0l-.87.05a.88.88,0,0,0-.32.07.38.38,0,0,0-.09.24q0,.22,0,.27a.62.62,0,0,0,.4,0l.78,0c.27,0,.53,0,.79,0a.27.27,0,0,0,.23,0,.61.61,0,0,0,.06-.33Zm0-1.48c0-.15,0-.23-.1-.26a.49.49,0,0,0-.29,0l-.65,0H6a.46.46,0,0,0-.3.06A.33.33,0,0,0,5.6,27c0,.15,0,.23.07.26a.73.73,0,0,0,.3,0h1.5c.13,0,.21,0,.25-.05a.45.45,0,0,0,0-.28Zm7.44-.22a.48.48,0,0,0-.08-.31.68.68,0,0,0-.35-.17A4.74,4.74,0,0,0,14,26.2c-.32,0-.74,0-1.25,0-.15,0-.23.05-.26.1a1.24,1.24,0,0,0,0,.33c0,.15,0,.31,0,.46s0,.3,0,.45a.58.58,0,0,0,.07.35.67.67,0,0,0,.34.07c.26,0,.54,0,.83,0l1,0a.63.63,0,0,0,.4-.07.61.61,0,0,0,.07-.35c0-.16,0-.3,0-.45s0-.29,0-.43Zm0,2.73a.68.68,0,0,0-.06-.37.46.46,0,0,0-.32-.07c-.3,0-.61,0-.93,0h-.91a.56.56,0,0,0-.34.06.46.46,0,0,0-.07.3c0,.15,0,.29,0,.42a1.79,1.79,0,0,1,0,.4.48.48,0,0,0,0,.29.38.38,0,0,0,.29.08l.9,0c.31,0,.64,0,1,0a.53.53,0,0,0,.33-.07.57.57,0,0,0,.05-.34Z"/><path class="cls-1" d="M28.74,25.77c0,.19,0,.35,0,.5s0,.3,0,.44a3.46,3.46,0,0,0,0,.46v.54a2.12,2.12,0,0,1-.14,1,1,1,0,0,1-.48.45A1.29,1.29,0,0,1,26.85,29a1.89,1.89,0,0,0-.7-.13,10.26,10.26,0,0,0-1.24,0c-.17,0-.25.08-.25.21a21.61,21.61,0,0,1-.3,3,8.48,8.48,0,0,1-.67,2.2,2.76,2.76,0,0,1-1.42,1.47,1.85,1.85,0,0,1-1.65-.16,1.08,1.08,0,0,1-.54-.77.6.6,0,0,1,0-.37.53.53,0,0,1,.24-.23,2.87,2.87,0,0,0,1.05-.62,4.14,4.14,0,0,0,.89-1,4.88,4.88,0,0,0,.56-1.33,9.77,9.77,0,0,0,.29-1.6,8.13,8.13,0,0,0,0-1.56,3.59,3.59,0,0,0-.3-1.21,2.38,2.38,0,0,1-.32-1.43.81.81,0,0,1,.61-.7,1.2,1.2,0,0,1,.93,0,.33.33,0,0,0,.27.06,10.87,10.87,0,0,1,1.28-.11,4.71,4.71,0,0,1,.75,0,1.38,1.38,0,0,0,.45,0,1.18,1.18,0,0,0,.36-.12,1.1,1.1,0,0,1,.56-.16.67.67,0,0,1,.48.14,1,1,0,0,1,.51,1.15Zm-1.52.33a.52.52,0,0,0-.1-.4,1.13,1.13,0,0,0-.5-.16,4,4,0,0,0-.69,0c-.33,0-.7,0-1.11,0-.18,0-.26.08-.24.17a.69.69,0,0,1,0,.2,1.77,1.77,0,0,1,0,.24c0,.12.07.18.2.18.74,0,1.48,0,2.2,0,.12,0,.18-.08.2-.25Zm0,1.4c0-.15,0-.24,0-.28a.37.37,0,0,0-.23,0c-.34,0-.7,0-1,0s-.7,0-1.06,0c-.13,0-.2,0-.2.11a2.45,2.45,0,0,1,0,.27v.25c0,.15.08.2.23.18.32,0,.61,0,.86,0l.69,0c.45,0,.7-.14.74-.48Zm4.95,2.9c0,.43,0,.88-.07,1.34s0,1,0,1.5a3.14,3.14,0,0,1-.09.75.65.65,0,0,1-.28.35,1,1,0,0,1-.42.12.73.73,0,0,1-.41-.06,3.62,3.62,0,0,0-1.13-.15,14.74,14.74,0,0,0-2.1.07l-.21,0a1.12,1.12,0,0,0-.25.11A.78.78,0,0,1,26,33.86c0-.16,0-.43,0-.81s0-.77,0-1.23a12.63,12.63,0,0,0-.14-1.3.87.87,0,0,1,.11-.55.85.85,0,0,1,.51-.4.51.51,0,0,1,.48,0,2.54,2.54,0,0,0,.47.14,2.74,2.74,0,0,0,.5.07h2.42a4.35,4.35,0,0,0,.51,0,1.45,1.45,0,0,0,.42-.12.62.62,0,0,1,.33,0,.94.94,0,0,1,.31.17.89.89,0,0,1,.22.29.61.61,0,0,1,.07.35ZM30.41,31a.49.49,0,0,0-.12-.4.58.58,0,0,0-.33-.14,8.2,8.2,0,0,0-.83,0c-.26,0-.6,0-1,0a.68.68,0,0,0-.45.15.66.66,0,0,0-.12.45.35.35,0,0,0,.11.3.94.94,0,0,0,.47.09l.8,0h.91a.62.62,0,0,0,.46-.11.69.69,0,0,0,.13-.37Zm0,1.88a.69.69,0,0,0-.13-.54.82.82,0,0,0-.59-.11H29l-.7,0a.72.72,0,0,0-.55.15.7.7,0,0,0-.11.54c0,.19.08.3.17.34a1.79,1.79,0,0,0,.57.09h.76l.86,0a.46.46,0,0,0,.32-.09.47.47,0,0,0,.13-.34Zm5.31,1.6a4.21,4.21,0,0,1,0,.71,1.08,1.08,0,0,1-.1.43.65.65,0,0,1-.26.26,2.07,2.07,0,0,1-.47.18,3,3,0,0,1-.61.12.44.44,0,0,1-.36-.12.76.76,0,0,1-.18-.41,6.81,6.81,0,0,1-.05-.78c0-.88.05-1.82.06-2.79s0-1.94,0-2.91a.2.2,0,0,0,0-.15.23.23,0,0,0-.16-.06A11.07,11.07,0,0,0,32,29a2.41,2.41,0,0,0-.65.12,1.68,1.68,0,0,1-.72.22,1.15,1.15,0,0,1-.58-.1.88.88,0,0,1-.43-.46,2.1,2.1,0,0,1-.05-.9,8,8,0,0,0,0-1.09,4.38,4.38,0,0,0-.16-1,.81.81,0,0,1,.41-1.06,1.25,1.25,0,0,1,.56-.19,1.53,1.53,0,0,1,.7.13,2.84,2.84,0,0,0,.56.19,1.39,1.39,0,0,0,.4.06h1.34a1.37,1.37,0,0,0,.4-.05,2,2,0,0,0,.34-.12,1.23,1.23,0,0,1,.8-.12,1.06,1.06,0,0,1,.7.46,1.26,1.26,0,0,1,.28.7,1.91,1.91,0,0,1-.16.88,2.49,2.49,0,0,0-.09.37c0,.18,0,.36-.07.56s0,.4,0,.6a4.81,4.81,0,0,0,0,.5c0,.65,0,1.45.08,2.38s.08,2.08.14,3.44Zm-1.89-8.12a.73.73,0,0,0-.14-.45.77.77,0,0,0-.44-.17c-.16,0-.4,0-.74,0h-1a.65.65,0,0,0-.47.16.89.89,0,0,0-.1.48.17.17,0,0,0,.13.18h.05l.63,0h1.88a.14.14,0,0,0,.16-.11v-.05Zm0,1.07a.15.15,0,0,0-.17-.16H32.36c-.35,0-.71,0-1.08.05-.2,0-.28.09-.26.27a.6.6,0,0,0,.17.38.7.7,0,0,0,.45.1h2a.18.18,0,0,0,.21-.16v-.49Z"/><path class="cls-1" d="M45.12,30.76a1.75,1.75,0,0,1-.81,1.42,4.08,4.08,0,0,1-2,.65.62.62,0,0,0-.23.07.25.25,0,0,0-.06.2c0,.13,0,.26,0,.4s0,.27,0,.42a10.85,10.85,0,0,1,0,1.14,2.54,2.54,0,0,1-.17.71.87.87,0,0,1-.31.4,1.15,1.15,0,0,1-.48.17c-.39.06-.63,0-.74-.2a2.53,2.53,0,0,1-.11-1.22c0-.74.09-1.45.12-2.11s0-1.33,0-2,0-1.31,0-2,0-1.33,0-2c0-.1,0-.16-.06-.17a.62.62,0,0,0-.27,0,.83.83,0,0,1-.6-.06.49.49,0,0,1-.24-.39.85.85,0,0,1,.23-.58,2.69,2.69,0,0,1,.7-.6.6.6,0,0,1,.47-.12,1.9,1.9,0,0,1,.4.14,3,3,0,0,0,.58.17,2.29,2.29,0,0,0,.64,0,1.22,1.22,0,0,1,.33,0H43l.42,0,.27,0a1.8,1.8,0,0,0,.32.06l.3,0a.89.89,0,0,1,.57.17.84.84,0,0,1,.22.64,2.06,2.06,0,0,1-.4,1.17,4.87,4.87,0,0,1-1,1.21c-.29.23-.27.36.06.37a1.34,1.34,0,0,1,1.1.58A2,2,0,0,1,45.12,30.76ZM42.61,26.3a1.07,1.07,0,0,0-.5.07.28.28,0,0,0-.1.24l0,.74c0,.24,0,.47,0,.69s.1.27.29.15a3.06,3.06,0,0,0,1-.74.83.83,0,0,0,.2-.6.63.63,0,0,0-.3-.41A1.07,1.07,0,0,0,42.61,26.3Zm1.18,4a.69.69,0,0,0-.41-.47,2.69,2.69,0,0,0-1.12-.25.31.31,0,0,0-.23,0,.25.25,0,0,0-.06.2c0,.24,0,.5,0,.77s0,.57,0,.89c0,.13,0,.21.07.23a.28.28,0,0,0,.22,0,2.16,2.16,0,0,0,1.18-.58,1,1,0,0,0,.31-.83ZM57,34.42a3.5,3.5,0,0,1-.62.76,3.8,3.8,0,0,1-.57.42,2.88,2.88,0,0,1-1,.39,1.75,1.75,0,0,1-1-.12,4.3,4.3,0,0,1-1.1-.68,15.5,15.5,0,0,1-1.39-1.3l-.61-.64-.49-.52c-.07-.06-.12-.09-.15-.08a0,0,0,0,0,0,0,3.6,3.6,0,0,1-.67.88,8.82,8.82,0,0,1-1,.92,10,10,0,0,1-1.16.8,6.36,6.36,0,0,1-1.08.53,1.73,1.73,0,0,1-.74.13,1.18,1.18,0,0,1-.66-.44A.7.7,0,0,1,44.6,35a1,1,0,0,1,.43-.67,2.11,2.11,0,0,0,.49-1.07,10.51,10.51,0,0,0,.23-1.86c0-.73,0-1.54,0-2.42s-.13-1.79-.26-2.72a1.34,1.34,0,0,1,.13-.72,1.11,1.11,0,0,1,.21-.32.64.64,0,0,1,.3-.19.66.66,0,0,1,.48,0,1.06,1.06,0,0,1,.49.26,1.75,1.75,0,0,0,.22.18.24.24,0,0,0,.22,0,21.6,21.6,0,0,1,2.32-.1c.7,0,1.34,0,1.92.08a.85.85,0,0,0,.42,0,.5.5,0,0,0,.29-.2.59.59,0,0,1,.27-.14,1.2,1.2,0,0,1,.38,0,1.72,1.72,0,0,1,.38.08.72.72,0,0,1,.27.15A1.52,1.52,0,0,1,54,26.72,1.8,1.8,0,0,0,54,27c0,.11,0,.24,0,.4s0,.35,0,.58,0,.53,0,.89a.8.8,0,0,1-.08.4.85.85,0,0,1-.21.32.64.64,0,0,1-.32.18.69.69,0,0,1-.4,0,4.37,4.37,0,0,0-.62-.17,2.59,2.59,0,0,0-.48,0l-1.18,0-1,0-.94,0h-1.1a.52.52,0,0,0-.29.09.5.5,0,0,0-.1.31c0,.55,0,1,0,1.48s0,.86,0,1.25a1,1,0,0,0,.11.6c.09.1.24.11.46,0s.36-.14.56-.22l.56-.25.49-.25.36-.21c.06,0,.1-.09.1-.12s0-.09-.14-.17a3.28,3.28,0,0,0-.64-.53c-.19-.12-.41-.25-.65-.38s-.4-.25-.43-.38a.54.54,0,0,1,.17-.43.45.45,0,0,1,.46-.14,2.26,2.26,0,0,1,.82.41l.61.43c.18.11.33.22.48.33a.79.79,0,0,0,.3.12.56.56,0,0,0,.3-.12A4.74,4.74,0,0,0,51.7,31a2.34,2.34,0,0,0,.44-.45,1.47,1.47,0,0,1,.73-.62.74.74,0,0,1,.64.27c.3.3.43.53.39.7s-.2.31-.48.43l-.85.34-.72.24q-.27.06-.24.15a1.75,1.75,0,0,0,.55.41,7.58,7.58,0,0,0,1.08.51c.42.16.85.3,1.28.43s.86.22,1.26.3a5.17,5.17,0,0,0,1,.11c.38,0,.43.2.18.57Zm-4.71-6.29c0-.19-.11-.28-.31-.29H50.78l-1,0-1,.05L47.69,28a.77.77,0,0,0-.35.12.33.33,0,0,0-.08.29.57.57,0,0,0,.07.34c.05.06.14.08.28.06.45,0,.86,0,1.23,0h1c.32,0,.65,0,1-.05s.64-.06,1-.1a.48.48,0,0,0,.36-.16.62.62,0,0,0,.09-.38Zm0-1.48a.41.41,0,0,0-.37-.45h-.06l-1.19,0h-.93l-.9,0-1.14.07a.35.35,0,0,0-.38.48.88.88,0,0,0,.08.42.37.37,0,0,0,.32,0L49,27.15l1,0h2c.14,0,.23,0,.27-.07a.74.74,0,0,0,0-.39Z"/><path class="cls-1" d="M77.38,34.21a2.84,2.84,0,0,1-.54.71,7.19,7.19,0,0,1-1,.79,4.33,4.33,0,0,1-.86.49,2,2,0,0,1-.94.08,5.26,5.26,0,0,1-1.3-.38,19.93,19.93,0,0,1-1.92-1,24.67,24.67,0,0,0-2.39-1.1c-1-.4-2.1-.81-3.39-1.24a1.07,1.07,0,0,0-.47-.05.9.9,0,0,0-.36.25,9.91,9.91,0,0,1-1.4,1.09,8.06,8.06,0,0,1-1.83.86,3.47,3.47,0,0,1-1.2.19.92.92,0,0,1-.77-.34c-.07-.1-.13-.21-.2-.32a2.1,2.1,0,0,1-.15-.3.49.49,0,0,1,0-.24c0-.05.15-.09.37-.11a6.68,6.68,0,0,0,1.59-.37,9.4,9.4,0,0,0,1.51-.7,5.86,5.86,0,0,0,1.21-.88,2.33,2.33,0,0,0,.66-.92c.13-.37.23-.66.32-.87a2,2,0,0,1,.24-.45.41.41,0,0,1,.22-.17h.26c.25,0,.41.26.49.66a1.94,1.94,0,0,1,0,.48,5.48,5.48,0,0,1,0,.57.56.56,0,0,0,0,.4.84.84,0,0,0,.47.21,1.07,1.07,0,0,0,.61.06c.1,0,.15-.17.17-.4s0-.66,0-1,0-.63,0-1-.06-.42-.18-.49a2,2,0,0,0-.84-.09l-.65.06a1.75,1.75,0,0,0-.55.12,1.54,1.54,0,0,1-.79.16.5.5,0,0,1-.39-.34.56.56,0,0,1,0-.42,1.2,1.2,0,0,1,.53-.47,3.48,3.48,0,0,1,.69-.29,1.15,1.15,0,0,1,.55,0,2.88,2.88,0,0,0,.4.09.87.87,0,0,0,.36,0c.31-.05.62-.09,1-.12s.68,0,1.09,0,.88,0,1.41,0,1.18.09,1.94.17q.38,0,.45.15t-.06.45a.44.44,0,0,1-.25.27,1.54,1.54,0,0,1-.43.06H69.44a1,1,0,0,0-.55.1c-.1.06-.15.21-.15.44a.55.55,0,0,0,.15.46,1.23,1.23,0,0,0,.63.1q.83,0,1.41,0a6.85,6.85,0,0,1,.81.07.39.39,0,0,1,.39.37.51.51,0,0,1,0,.13c0,.23-.21.35-.52.35l-.92,0H69.5a.93.93,0,0,0-.59.14.9.9,0,0,0-.15.64,1.05,1.05,0,0,0,.14.62,1.41,1.41,0,0,0,.66.29c.61.15,1.19.29,1.73.4l1.42.33.55.1.85.12,1,.12,1,.12.75.09.41,0c.18,0,.28,0,.3.1S77.48,34,77.38,34.21Zm-2.72-7.08c0,.22,0,.44,0,.67s0,.46-.07.67a3.39,3.39,0,0,1-.13.57,1,1,0,0,1-.15.35.89.89,0,0,1-.7.39c-.21,0-.34-.21-.41-.56a6.3,6.3,0,0,1,0-.75c0-.33,0-.62-.06-.88a1,1,0,0,0-.17-.59.94.94,0,0,0-.49-.12c-1.48-.08-3-.1-4.49-.07s-3.08.14-4.73.32c-.62.05-1,.32-1,.79a1.71,1.71,0,0,0,0,.31c0,.13,0,.27,0,.42s0,.29,0,.43,0,.27,0,.37a.62.62,0,0,1,0,.33.45.45,0,0,1-.19.22.39.39,0,0,1-.3,0,.81.81,0,0,1-.37-.26,1.67,1.67,0,0,1-.27-.51,6.86,6.86,0,0,1-.2-.78c-.06-.29-.1-.59-.14-.9a5.2,5.2,0,0,1,0-.88,1.37,1.37,0,0,1,.18-.77,1.57,1.57,0,0,1,.51-.41.57.57,0,0,1,.4-.09,1.52,1.52,0,0,1,.46.18,1.65,1.65,0,0,0,.57.22,3.22,3.22,0,0,0,.82,0c.9,0,1.7-.07,2.38-.11a2.31,2.31,0,0,0,.37,0,.33.33,0,0,0,.21-.14.79.79,0,0,0,.12-.3c0-.12,0-.3.07-.54s.12-.44.29-.49a3.29,3.29,0,0,1,1,0,2.21,2.21,0,0,1,.5.15,1.08,1.08,0,0,1,.4.33,2.38,2.38,0,0,1,.37.58.61.61,0,0,0,.22.3,1.77,1.77,0,0,0,.56.09c.3,0,.6,0,.91.06l1,.06a3.86,3.86,0,0,0,.76,0,1.35,1.35,0,0,0,.44-.2.77.77,0,0,1,.38-.17.93.93,0,0,1,.45.15,2.61,2.61,0,0,1,.28.17.48.48,0,0,1,.17.23,1.6,1.6,0,0,1,.11.43,6.83,6.83,0,0,1,.08.71Z"/><path class="cls-1" d="M93,33.31a8.63,8.63,0,0,1-1,1.14,5.43,5.43,0,0,1-1,.75,4.07,4.07,0,0,1-1.1.41,5,5,0,0,1-1.22.13,11.91,11.91,0,0,1-1.34-.06c-.45,0-.87-.09-1.26-.16a7.63,7.63,0,0,1-1-.25,2.76,2.76,0,0,1-.68-.3,6.16,6.16,0,0,1-1-.8,1.79,1.79,0,0,1-.46-.77,1.87,1.87,0,0,1,0-.91,5.9,5.9,0,0,1,.45-1.17,7.5,7.5,0,0,1,1.08-1.6A11.59,11.59,0,0,1,86,28.23c.14-.12.2-.23.18-.31s-.18-.13-.44-.12c-.55,0-1.19.06-1.92.15l-2.1.28c-.67.11-1.27.21-1.77.32a3.81,3.81,0,0,0-.93.27,1,1,0,0,1-.65.16.43.43,0,0,1-.37-.25.52.52,0,0,1,0-.44,2.14,2.14,0,0,1,.46-.57,2,2,0,0,1,.83-.5,1,1,0,0,1,.67,0,2.59,2.59,0,0,0,.78.08c.41,0,1,0,1.63-.07s1.45-.13,2.34-.24,1.86-.26,2.92-.44a1.55,1.55,0,0,1,.88.07.66.66,0,0,1,.43.5,1.24,1.24,0,0,1,0,.33.82.82,0,0,1-.1.26,1.15,1.15,0,0,1-.27.27,3.66,3.66,0,0,1-.49.31A12.24,12.24,0,0,0,85.81,30a4.07,4.07,0,0,0-1.08,1.51,1.58,1.58,0,0,0,0,1.07,2.15,2.15,0,0,0,.75.91,2.58,2.58,0,0,0,1.12.44,7.4,7.4,0,0,0,1.76.07,12.87,12.87,0,0,0,2.14-.33,13.05,13.05,0,0,0,2.27-.81c.27-.13.43-.16.49-.08S93.2,33.05,93,33.31Zm-1.41-5c0,.33,0,.55-.13.64s-.24.07-.34-.09a9,9,0,0,0-.52-.75c-.14-.18-.31-.36-.49-.56a1.52,1.52,0,0,1-.4-.68,1.08,1.08,0,0,1,0-.71.49.49,0,0,1,.32-.29.44.44,0,0,1,.4,0,2.46,2.46,0,0,1,.74,1,5,5,0,0,1,.42,1.42Zm1.9-.55c0,.35,0,.58-.13.66s-.24.05-.34-.11q-.3-.48-.51-.75A6.66,6.66,0,0,0,92,27a1.6,1.6,0,0,1-.38-.67,1.39,1.39,0,0,1,0-.73.43.43,0,0,1,.3-.27.45.45,0,0,1,.42,0,2.29,2.29,0,0,1,.74,1,5,5,0,0,1,.42,1.42Z"/><path class="cls-1" d="M110.63,32.16a3.16,3.16,0,0,1-.28,1.45,3.51,3.51,0,0,1-.85,1.14,3.81,3.81,0,0,1-1.32.73,4.62,4.62,0,0,1-1.69.21,2.05,2.05,0,0,1-.92-.28,3,3,0,0,1-.91-.76c-.29-.33-.41-.55-.36-.64s.22-.1.53,0a5.46,5.46,0,0,0,1.8.12,2.88,2.88,0,0,0,1.31-.44,2,2,0,0,0,.76-.91,2.33,2.33,0,0,0,.12-1.28,1.5,1.5,0,0,0-.76-.93,4.73,4.73,0,0,0-1.6-.58,7.26,7.26,0,0,0-2-.06,5.62,5.62,0,0,0-2,.58,1.36,1.36,0,0,0-.55.46,1.29,1.29,0,0,0-.17.67v2.93a1.49,1.49,0,0,1-.14.63,1.52,1.52,0,0,1-.42.61,1.57,1.57,0,0,1-.54.29,3.45,3.45,0,0,1-.85.16,3.88,3.88,0,0,1-2.59-.58,2.16,2.16,0,0,1-.89-1.78A3.35,3.35,0,0,1,97,31.92a5.82,5.82,0,0,1,2.3-1.77,3.64,3.64,0,0,0,.75-.47.5.5,0,0,0,.21-.35v-.61c0-.13,0-.33,0-.6a.41.41,0,0,0-.11-.32.35.35,0,0,0-.29-.09l-.44,0h-.74a2.55,2.55,0,0,0-.73.07,2.66,2.66,0,0,0-.61.18.4.4,0,0,1-.41,0,.64.64,0,0,1-.3-.48c-.07-.25.08-.51.44-.79a1.24,1.24,0,0,1,.46-.26,1,1,0,0,1,.45,0,7.74,7.74,0,0,0,.83.07,8.41,8.41,0,0,0,1.1,0,.36.36,0,0,0,.3-.15,1.14,1.14,0,0,0,.09-.52,2,2,0,0,1,.13-.92.44.44,0,0,1,.45-.17,2.17,2.17,0,0,1,1.12.45.63.63,0,0,1,.17.75c-.09.25,0,.35.25.31l.69-.1.53-.13a.33.33,0,0,1,.38.06.54.54,0,0,1,.07.46.8.8,0,0,1-.18.37.86.86,0,0,1-.42.25l-.6.17-.54.12a.61.61,0,0,0-.53.43,1.75,1.75,0,0,0,0,.33c0,.1,0,.22,0,.34a.34.34,0,0,0,.16.38.8.8,0,0,0,.57,0,10.26,10.26,0,0,1,3.17-.26,7.94,7.94,0,0,1,2.71.67A4.42,4.42,0,0,1,110,30.51,2.69,2.69,0,0,1,110.63,32.16Zm-10.36.05a4.89,4.89,0,0,0,0-.54c0-.13-.07-.2-.16-.23a.6.6,0,0,0-.35,0,3.64,3.64,0,0,0-.62.32,3.12,3.12,0,0,0-.76.64,3.32,3.32,0,0,0-.47.76,1.89,1.89,0,0,0-.17.7.73.73,0,0,0,.16.53,1.3,1.3,0,0,0,.7.42,1.55,1.55,0,0,0,.77,0,1.2,1.2,0,0,0,.63-.35.85.85,0,0,0,.26-.66v-.74c0-.11,0-.24,0-.39S100.26,32.42,100.27,32.21Zm9.92-4.7a1.38,1.38,0,0,1,.17.52.56.56,0,0,1,0,.34.26.26,0,0,1-.2.14.39.39,0,0,1-.27-.11l-.54-.4-.44-.3-.42-.25a4.67,4.67,0,0,0-.45-.23,2.07,2.07,0,0,1-.8-.67,1.33,1.33,0,0,1-.28-.86.67.67,0,0,1,.25-.52.53.53,0,0,1,.5-.12,2.53,2.53,0,0,1,.64.31,6.36,6.36,0,0,1,.7.56,5.9,5.9,0,0,1,.66.75,8.1,8.1,0,0,1,.53.85Z"/><path class="cls-1" d="M124.94,27.8c0,.21,0,.47,0,.78s0,.59,0,.85a1.09,1.09,0,0,1-.11.64.61.61,0,0,1-.52.29.29.29,0,0,1-.2-.05.61.61,0,0,1-.19-.2.35.35,0,0,0-.19-.12c-.18,0-.26,0-.23,0a1.08,1.08,0,0,1,0,.31.68.68,0,0,0,0,.14v.13c0,.08,0,.13,0,.15a.65.65,0,0,0,.24,0c.23,0,.54,0,.94,0h1.32l1.59,0,1.7,0a.73.73,0,0,1,.43.11.32.32,0,0,1,0,.33.82.82,0,0,1-.32.53,1.45,1.45,0,0,1-.82.11c-1.39-.08-2.71-.12-4-.12-.21,0-.23.05,0,.14a20.3,20.3,0,0,0,3.12,1.2,19.35,19.35,0,0,0,2.72.58c.4.05.63.15.68.31s-.06.42-.35.79a2.34,2.34,0,0,1-1.29.89,2.17,2.17,0,0,1-1.65-.39c-.83-.49-1.58-1-2.26-1.43s-1.34-1-2-1.47c-.14-.1-.21-.07-.21.1,0,.44,0,.79,0,1.07a4.62,4.62,0,0,0,0,.65,2.92,2.92,0,0,1-.07,1.18,1,1,0,0,1-.78.6c-.43.11-.72,0-.88-.22a1.86,1.86,0,0,1-.2-1.11c0-.17,0-.43,0-.79s0-.77,0-1.22c0-.1,0-.16-.06-.17a.47.47,0,0,0-.26.15A20,20,0,0,1,119.35,34a16.46,16.46,0,0,1-2.15,1.15,3.07,3.07,0,0,1-1.9.35,1.85,1.85,0,0,1-1.19-1,.41.41,0,0,1,0-.4.44.44,0,0,1,.36-.28,11.24,11.24,0,0,0,1.43-.25c.51-.11,1-.25,1.51-.41s1-.34,1.47-.54.93-.39,1.36-.6c.11-.06.17-.11.16-.15s-.09-.05-.26,0c-1,0-1.78.1-2.46.18a9.9,9.9,0,0,0-1.43.23,3,3,0,0,1-1.15.14.41.41,0,0,1-.37-.38.66.66,0,0,1,.14-.5,3.35,3.35,0,0,1,.69-.61,1.36,1.36,0,0,1,.59-.25.83.83,0,0,1,.49.05,1.24,1.24,0,0,0,.5.1c.23,0,.67,0,1.31,0l1.54,0,1.5,0q.18,0,.18-.15a1.38,1.38,0,0,1,0-.35,1.26,1.26,0,0,1,0-.27c0-.05,0-.08-.07-.08h-.22l-.17,0a.34.34,0,0,0-.2,0,.28.28,0,0,0-.15.15.34.34,0,0,1-.3.17.42.42,0,0,1-.44-.23,1.21,1.21,0,0,1-.15-.64,12.67,12.67,0,0,0,0-1.35,13.42,13.42,0,0,0-.17-1.42,1.9,1.9,0,0,1,0-1.08q.17-.34.36-.21a.86.86,0,0,0,.65,0,.75.75,0,0,0,.42-.27.71.71,0,0,0,.16-.39.72.72,0,0,1,.42-.61,1.21,1.21,0,0,1,1,.07.72.72,0,0,1,.45.4.25.25,0,0,1-.09.34h0a1.73,1.73,0,0,0-.43.27c-.06.07-.09.12-.07.16s.07.06.17.06h.48a1.82,1.82,0,0,1,.33,0,.87.87,0,0,0,.36,0,.55.55,0,0,0,.18-.06c.17-.12.4-.07.7.13a.72.72,0,0,1,.24.42,1.42,1.42,0,0,1,0,.68,4.42,4.42,0,0,0-.13.61C125,27.4,125,27.6,124.94,27.8Zm-5.9.76-.54.38c-.17.11-.34.21-.53.31l-.64.31-.84.35a2.29,2.29,0,0,1-1.54.22.68.68,0,0,1-.49-.7.93.93,0,0,1,.23-.57,1.69,1.69,0,0,1,.89-.3l1.22-.18c.35-.05.66-.11.93-.17l.75-.2a7.63,7.63,0,0,0,.72-.26,1.17,1.17,0,0,1,.41-.1c.1,0,.16,0,.16.1a.51.51,0,0,1-.15.31,3,3,0,0,1-.57.5Zm-2.24-3.27.4.21c.17.09.32.19.47.28l.45.29.31.23a4.15,4.15,0,0,0,.43.3,5.36,5.36,0,0,0,.53.28c.15.07.18.15.11.26s-.27.14-.59.11a11.44,11.44,0,0,1-2.07-.46,3.87,3.87,0,0,1-1.28-.61.63.63,0,0,1-.26-.43.49.49,0,0,1,.15-.4,1,1,0,0,1,.56-.3,1.59,1.59,0,0,1,.79.24Zm6.92,1.18c0-.18-.07-.27-.23-.27h-2a.21.21,0,0,0-.15.05s-.05.1,0,.2a1.61,1.61,0,0,1,0,.58c0,.11.08.17.25.17l.49,0,.54,0h.77a.22.22,0,0,0,.29-.11.36.36,0,0,0,0-.1Zm-.1,1.82a.37.37,0,0,0,0-.23.14.14,0,0,0-.15-.06h-1l-.86,0a.31.31,0,0,0-.2.07.33.33,0,0,0,0,.22v.56a.18.18,0,0,0,.15.23h.1c.36,0,.69,0,1,0l.7,0a.36.36,0,0,0,.2-.06.21.21,0,0,0,.07-.15l0-.31a2.62,2.62,0,0,0,0-.27ZM130,29.78a.38.38,0,0,1-.21.2,1,1,0,0,1-.48,0c-.38,0-.72-.09-1-.15s-.61-.13-.92-.21a7.42,7.42,0,0,1-.9-.32c-.3-.13-.64-.29-1-.48a.74.74,0,0,1-.35-.37.64.64,0,0,1,0-.54.61.61,0,0,1,.4-.38.89.89,0,0,1,.67.13q.48.28.87.48l.73.36.7.3.79.27a1.31,1.31,0,0,1,.62.34.36.36,0,0,1,.12.34Zm-.67-4.45a.56.56,0,0,1,.22.49.5.5,0,0,1-.28.46,12.32,12.32,0,0,1-1.66.63c-.58.16-1.16.29-1.74.4-.3.05-.46,0-.49-.15s.11-.29.41-.43a10.91,10.91,0,0,0,2-1.16,1.9,1.9,0,0,1,.77-.4.79.79,0,0,1,.72.16Z"/><path class="cls-1" d="M144.19,32.31a4.31,4.31,0,0,1-1,1.82,5.09,5.09,0,0,1-2,1.28,2.5,2.5,0,0,1-1.33,0,3.32,3.32,0,0,1-1.5-.8,4.44,4.44,0,0,1-1-1.24,6.21,6.21,0,0,1-.6-1.76,12.61,12.61,0,0,1-.21-2.45,31,31,0,0,1,.18-3.33,3.55,3.55,0,0,1,.12-.65,4.3,4.3,0,0,1,.27-.62.41.41,0,0,1,.19-.18.87.87,0,0,1,.31-.1,1,1,0,0,1,.35,0,.67.67,0,0,1,.29.12,1.45,1.45,0,0,1,.59.82,1.35,1.35,0,0,1-.13.86,5.7,5.7,0,0,0-.37,1.1,8.27,8.27,0,0,0-.17,1.3,9.08,9.08,0,0,0,0,1.38,8.31,8.31,0,0,0,.21,1.31A2.13,2.13,0,0,0,139,32.3a2.56,2.56,0,0,0,1.22.58,4.12,4.12,0,0,0,1.64,0,6.47,6.47,0,0,0,1.94-.8c.15-.09.25-.1.32-.05S144.24,32.16,144.19,32.31Z"/><path class="cls-1" d="M164.86,35.1c-.06.21-.18.3-.34.29s-.42-.21-.78-.58-.62-.6-.93-.87a11.11,11.11,0,0,0-1-.79c-.29-.21-.54-.09-.77.36a7.45,7.45,0,0,1-.53.91,4.23,4.23,0,0,1-.6.74,3.33,3.33,0,0,1-1.74,1,2.4,2.4,0,0,1-1.6-.23c-.22-.12-.33-.22-.34-.33s.06-.17.2-.19a4.7,4.7,0,0,0,1.21-.37,3,3,0,0,0,.94-.64,5.64,5.64,0,0,0,1.14-1.74.54.54,0,0,0,0-.43.58.58,0,0,0-.37-.3,14,14,0,0,0-3.52-.6.89.89,0,0,0-.53.13,1.35,1.35,0,0,0-.46.49c-.25.45-.5.84-.72,1.19s-.46.68-.71,1a4.46,4.46,0,0,1-1.21,1.24,3.08,3.08,0,0,1-1.3.49,2.26,2.26,0,0,1-1.21-.19,2.42,2.42,0,0,1-1-.84,2.82,2.82,0,0,1-.57-1.79,2.48,2.48,0,0,1,.8-1.67,4.85,4.85,0,0,1,1.85-1.1,8.56,8.56,0,0,1,2.79-.47,1,1,0,0,0,.93-.52c.1-.21.19-.39.26-.55l.2-.47.19-.45c.07-.16.14-.33.21-.52a.59.59,0,0,0,0-.6.88.88,0,0,0-.69-.33,12.46,12.46,0,0,0-1.73-.09,5.58,5.58,0,0,0-1.15.15.69.69,0,0,1-.61-.08.77.77,0,0,1-.28-.58.67.67,0,0,1,.08-.46,1.19,1.19,0,0,1,.54-.37,1.38,1.38,0,0,1,.53-.17,1.6,1.6,0,0,1,.53.09A3.43,3.43,0,0,0,153,25l.6.1.66.07.62,0,.56,0a1.45,1.45,0,0,0,.36,0l.24,0a.76.76,0,0,0,.2-.06,5.5,5.5,0,0,1,.58-.16,1.33,1.33,0,0,1,.4,0,.75.75,0,0,1,.29.09,1.21,1.21,0,0,1,.26.2.86.86,0,0,1,.27.58,1.41,1.41,0,0,1-.31.73l-.13.2a1.73,1.73,0,0,0-.15.27c-.06.11-.13.26-.21.43s-.19.4-.32.69-.15.29-.2.4l-.16.31c0,.1-.1.2-.15.3s-.13.23-.2.37a.41.41,0,0,0-.07.34c0,.1.15.15.36.18q.88.15,1.62.33a14.56,14.56,0,0,1,1.59.48c.37.14.58,0,.62-.31a5.14,5.14,0,0,0,0-1.24,2.21,2.21,0,0,0-.25-.9,1,1,0,0,1-.12-.54.67.67,0,0,1,.18-.4.75.75,0,0,1,.42-.22,1.31,1.31,0,0,1,.59,0,1.64,1.64,0,0,1,.81.5.67.67,0,0,1,.15.62,4.32,4.32,0,0,0-.21,1.34,6.12,6.12,0,0,1-.13,1.35.75.75,0,0,0,.05.49,1.35,1.35,0,0,0,.49.46,6.44,6.44,0,0,1,1.78,1.51,3.76,3.76,0,0,1,.61,1A1,1,0,0,1,164.86,35.1ZM153,31.87c.09-.14.09-.25,0-.34a.64.64,0,0,0-.5-.09,4.79,4.79,0,0,0-1.18.26,4.38,4.38,0,0,0-1,.46,2.53,2.53,0,0,0-.91.87.68.68,0,0,0,0,.66,2,2,0,0,0,.5.61.73.73,0,0,0,.61.13,1.7,1.7,0,0,0,.75-.42,6.79,6.79,0,0,0,.94-1.06c.17-.22.3-.39.38-.52l.38-.56Z"/><path class="cls-1" d="M176.24,35.5a1.76,1.76,0,0,1-1.21.39,1.36,1.36,0,0,1-1-.6,13.15,13.15,0,0,0-1.83-1.9,31.15,31.15,0,0,0-3.06-2.28,1.1,1.1,0,0,1-.59-.74.87.87,0,0,1,.36-.77,26,26,0,0,0,2.51-2.52,9.78,9.78,0,0,0,1.35-1.92,1.36,1.36,0,0,1,.42-.5,1.24,1.24,0,0,1,.58-.24,1.74,1.74,0,0,1,.68.07,1.88,1.88,0,0,1,.7.4.83.83,0,0,1,.34.64.67.67,0,0,1-.26.58c-.81.66-1.61,1.27-2.38,1.84s-1.51,1.1-2.2,1.56a.79.79,0,0,0-.42.67.8.8,0,0,0,.48.63c.59.33,1.17.67,1.72,1l1.54,1c.47.3.88.58,1.24.83s.66.46.87.63a1,1,0,0,1,.39.68A.57.57,0,0,1,176.24,35.5Z"/><path class="cls-1" d="M191.25,28.06a.85.85,0,0,1-.25.4,1.21,1.21,0,0,1-.64.2l-1,.06c-.43,0-.89,0-1.39,0-.19,0-.29.07-.29.21a9.63,9.63,0,0,1-.4,2.56,8.37,8.37,0,0,1-.94,2.12A5.81,5.81,0,0,1,185,35.13a3.69,3.69,0,0,1-1.54.78,1.25,1.25,0,0,1-.51,0,3.58,3.58,0,0,1-.64-.18,5.19,5.19,0,0,1-.66-.35,3.25,3.25,0,0,1-.6-.5c-.27-.31-.16-.49.34-.55a5.12,5.12,0,0,0,1.73-.43A3.8,3.8,0,0,0,184.4,33a4.87,4.87,0,0,0,.88-1.51,9.87,9.87,0,0,0,.51-2.13.65.65,0,0,0-.21-.66,1,1,0,0,0-.77-.2l-.63.07-.67.11-.61.12-.45.13a1.07,1.07,0,0,1-.86-.08.57.57,0,0,1-.25-.26.56.56,0,0,1-.05-.38.92.92,0,0,1,.24-.34,4.21,4.21,0,0,1,.71-.55.65.65,0,0,1,.81,0,1,1,0,0,0,.75.21l1-.06.76,0c.14,0,.21-.1.21-.31a1.89,1.89,0,0,0,0-.53,2.52,2.52,0,0,0-.1-.46c-.15-.54-.11-.91.14-1.13s.64-.22,1.18,0a2.23,2.23,0,0,1,.49.24.61.61,0,0,1,.26.35,1.89,1.89,0,0,1,.08.62c0,.26,0,.6-.06,1,0,.15,0,.23.2.23h1l.72,0,.55,0,.49,0C191.14,27.56,191.32,27.75,191.25,28.06Zm6.9,6.36a3.93,3.93,0,0,1-1.69,1.27,5.27,5.27,0,0,1-2.52.22,8.48,8.48,0,0,1-2.38-.59,3.24,3.24,0,0,1-1.41-1c-.18-.24-.34-.44-.47-.6a5.21,5.21,0,0,0-.56-.59.64.64,0,0,1-.15-.31.81.81,0,0,1,0-.41,1.12,1.12,0,0,1,.18-.42,1.24,1.24,0,0,1,.37-.35,1,1,0,0,1,.88-.13,1.69,1.69,0,0,1,.7.9,2.77,2.77,0,0,0,1,1.27,4.89,4.89,0,0,0,2,.55,7.5,7.5,0,0,0,3.58-.31c.33-.14.53-.15.61,0s0,.32-.19.55Zm-1.18-5a1.69,1.69,0,0,1-.19.41.7.7,0,0,1-.35.23,8.42,8.42,0,0,1-1.84.53,8.93,8.93,0,0,1-1.79.11,2,2,0,0,0-.65,0,1.86,1.86,0,0,0-.55.22.37.37,0,0,1-.38,0,.79.79,0,0,1-.26-.51c-.07-.25.07-.53.41-.84a1.09,1.09,0,0,1,.4-.27,1.34,1.34,0,0,1,.4,0l.42.06a3.77,3.77,0,0,0,.47,0,11.48,11.48,0,0,0,1.66-.12,14.65,14.65,0,0,0,1.86-.4.34.34,0,0,1,.35.07C197,29,197,29.16,197,29.39Zm.88-1.6c0,.35,0,.57-.14.68s-.25.06-.35-.12c-.22-.33-.4-.6-.54-.79a3.78,3.78,0,0,0-.5-.56,1.36,1.36,0,0,1-.37-1.4.49.49,0,0,1,.29-.31.46.46,0,0,1,.41,0,2.51,2.51,0,0,1,.78,1A4.8,4.8,0,0,1,197.85,27.79Zm1.52-.85a.89.89,0,0,1,0,.43.51.51,0,0,1-.12.23.21.21,0,0,1-.2,0,.38.38,0,0,1-.18-.15,6.53,6.53,0,0,0-.52-.74c-.17-.2-.35-.41-.54-.61a1.48,1.48,0,0,1-.4-.72,1.17,1.17,0,0,1,0-.67.54.54,0,0,1,.34-.32.35.35,0,0,1,.38,0,3.36,3.36,0,0,1,.77,1.06,4.61,4.61,0,0,1,.43,1.41Z"/><path class="cls-1" d="M217.43,32.89a.88.88,0,0,1-.61.27,2.29,2.29,0,0,1-.9-.06,29.86,29.86,0,0,0-3.13-.62,21.81,21.81,0,0,0-2.68-.19,10.58,10.58,0,0,0-2.1.18,4.22,4.22,0,0,0-1.39.46c-.26.17-.35.34-.29.51s.34.35.83.51a11.7,11.7,0,0,0,2.33.45,29.06,29.06,0,0,0,3.73.12,4.7,4.7,0,0,1,.75,0,1,1,0,0,1,.39.08.2.2,0,0,1,.11.17.48.48,0,0,1-.07.23,1,1,0,0,1-.52.35,5.72,5.72,0,0,1-1.36.19,36.86,36.86,0,0,1-4.46,0,12.21,12.21,0,0,1-2.75-.43,2.63,2.63,0,0,1-1.36-.82,1.5,1.5,0,0,1-.25-1.09,1.67,1.67,0,0,1,.8-1,5.62,5.62,0,0,1,1.81-.74,12.35,12.35,0,0,1,1.45-.28c.52-.07,1-.12,1.57-.14s1.06,0,1.59,0,1,.08,1.52.16.6,0,.66-.07,0-.26-.23-.44-.48-.37-.58-.46A1.86,1.86,0,0,1,212,30a4.38,4.38,0,0,0-1.2-1.07,1.34,1.34,0,0,0-.85-.17,21,21,0,0,1-2.35.41c-.9.1-1.8.16-2.7.17-.7,0-1.26,0-1.67.08a7.6,7.6,0,0,0-1.08.17q-1,.27-1.23-.36a.66.66,0,0,1,0-.55,1.12,1.12,0,0,1,.46-.48A1.52,1.52,0,0,1,202,28a3.22,3.22,0,0,1,.82,0l.38,0a2.17,2.17,0,0,0,.36,0h.47l.66-.06c.79-.05,1.52-.12,2.2-.2s1.43-.19,2.25-.34c.35-.06.39-.29.12-.7l-.36-.56c-.1-.16-.22-.37-.38-.62-.32-.56-.2-.87.37-.95a2.44,2.44,0,0,1,1.23.05,1,1,0,0,1,.59.61c.15.36.27.62.35.78a3.52,3.52,0,0,0,.3.45.94.94,0,0,0,.53.34,1.64,1.64,0,0,0,.7,0c.55-.08,1.08-.18,1.6-.3a11.47,11.47,0,0,0,1.26-.36l.8-.22a2.53,2.53,0,0,1,.48-.07A.5.5,0,0,1,217,26a.42.42,0,0,1,.11.18.76.76,0,0,1-.1.51.94.94,0,0,1-.45.43l-.68.3-.59.24c-.19.07-.4.14-.62.2l-.76.21c-.28.08-.41.23-.37.46s.32.6.88,1.1a10.36,10.36,0,0,0,1.21,1,12.38,12.38,0,0,0,1.26.78c.45.26.71.52.77.77A.79.79,0,0,1,217.43,32.89Z"/><path class="cls-1" d="M227.37,33.74A3.25,3.25,0,0,1,225.89,36a2.25,2.25,0,0,1-2.14-.48,3.08,3.08,0,0,1-.89-1.24,9.83,9.83,0,0,1-.66-2.14,18.8,18.8,0,0,1-.35-2.8,20.15,20.15,0,0,1,.07-3.2c0-.34.07-.63.11-.85a3.18,3.18,0,0,1,.13-.51.74.74,0,0,1,.16-.27.79.79,0,0,1,.23-.14,1,1,0,0,1,.68,0,.81.81,0,0,1,.48.37,1.49,1.49,0,0,1,.2.49.54.54,0,0,1,0,.33,3,3,0,0,0-.28.91,9.88,9.88,0,0,0-.15,1.32c0,.48,0,1,0,1.51s0,1,.09,1.47a12.32,12.32,0,0,0,.19,1.23,2.61,2.61,0,0,0,.27.77,2,2,0,0,0,1.21,1,2.48,2.48,0,0,0,1.67-.57.36.36,0,0,1,.45,0A.51.51,0,0,1,227.37,33.74Zm6.9-.44c-.17.45-.36.68-.58.7s-.34-.18-.35-.56a40.12,40.12,0,0,0-.27-4.1,19.1,19.1,0,0,0-.64-3.27,1,1,0,0,1,0-.77c.08-.15.31-.26.7-.33a.6.6,0,0,1,.53.12,1.54,1.54,0,0,1,.4.73,14.2,14.2,0,0,1,.48,2.05,17.72,17.72,0,0,1,.19,2.06,13.28,13.28,0,0,1-.08,1.89,5.88,5.88,0,0,1-.34,1.48Z"/><path class="cls-1" d="M242.78,33.37c.26.09.39.23.41.41a1.6,1.6,0,0,1-.43.87,3.07,3.07,0,0,1-2.51,1.1,1.46,1.46,0,0,1-1.2-.53A1.88,1.88,0,0,1,238.6,34a2.22,2.22,0,0,1,.12-.72,2.27,2.27,0,0,1,.33-.66,2.11,2.11,0,0,1,.49-.5,1.51,1.51,0,0,1,.61-.26,1.18,1.18,0,0,1,.74.08,2.1,2.1,0,0,1,.73.66,3.51,3.51,0,0,0,.55.54A1.54,1.54,0,0,0,242.78,33.37Zm-1.16.22a2,2,0,0,1-.32-.18,1.13,1.13,0,0,1-.26-.23c-.22-.31-.45-.44-.7-.39a.85.85,0,0,0-.54.38,1.21,1.21,0,0,0-.21.71,1,1,0,0,0,.21.65.72.72,0,0,0,.58.26,1.5,1.5,0,0,0,1.22-.54.7.7,0,0,0,.21-.45A.24.24,0,0,0,241.62,33.59Z"/></svg>