<svg xmlns="http://www.w3.org/2000/svg" width="67.186" height="168.914" viewBox="0 0 67.186 168.914"><g transform="translate(-485.159 -170.66)"><path d="M552,570.6a3.789,3.789,0,0,0-1.716-3.551,6.175,6.175,0,0,1-1.041-8.575c2.046-2.641,1.033-5.31-2.249-5.931a6.176,6.176,0,0,1-4.907-7.109c.584-3.289-1.553-5.182-4.748-4.206a6.176,6.176,0,0,1-7.649-4.014c-1.012-3.184-3.783-3.867-6.159-1.518a6.175,6.175,0,0,1-8.638,0c-2.376-2.349-5.147-1.666-6.159,1.518a6.176,6.176,0,0,1-7.649,4.014c-3.2-.976-5.332.917-4.748,4.206a6.176,6.176,0,0,1-4.907,7.109c-3.283.621-4.3,3.29-2.25,5.931a6.175,6.175,0,0,1-1.041,8.575,3.789,3.789,0,0,0-1.716,3.551,75.883,75.883,0,0,1,65.578,0Z" transform="translate(-0.457 -231.784)" fill="#fff" stroke="#a62a0f" stroke-miterlimit="10" stroke-width="1"/><path d="M549.591,415.854a6.176,6.176,0,0,1-3.063-8.077c1.354-3.054-.268-5.4-3.6-5.22a6.176,6.176,0,0,1-6.466-5.728c-.221-3.334-2.748-4.66-5.617-2.948a6.176,6.176,0,0,1-8.387-2.067c-1.745-2.849-4.6-2.849-6.344,0a6.176,6.176,0,0,1-8.387,2.067c-2.869-1.712-5.4-.386-5.617,2.948a6.176,6.176,0,0,1-6.466,5.728c-3.335-.183-4.957,2.166-3.6,5.22a6.176,6.176,0,0,1-3.063,8.077,3.93,3.93,0,0,0-2.48,2.746,75.883,75.883,0,0,0,65.578,0A3.93,3.93,0,0,0,549.591,415.854Z" transform="translate(-0.53 -139.474)" fill="#fff" stroke="#a62a0f" stroke-miterlimit="10" stroke-width="1"/><g transform="translate(485.662 171.16)"><path d="M515.555,173.313c1.758-2.871,4.635-2.871,6.393,0A6.224,6.224,0,0,0,530.4,175.4c2.891-1.726,5.438-.388,5.661,2.971a6.224,6.224,0,0,0,6.516,5.773c3.362-.184,5,2.183,3.632,5.261a6.224,6.224,0,0,0,3.087,8.14c3.062,1.4,3.409,4.255.77,6.346a6.224,6.224,0,0,0-1.049,8.643c2.061,2.662,1.041,5.352-2.267,5.977a6.224,6.224,0,0,0-4.946,7.165c.589,3.315-1.565,5.223-4.785,4.239a6.224,6.224,0,0,0-7.709,4.046c-1.02,3.209-3.813,3.9-6.207,1.53a6.224,6.224,0,0,0-8.706,0c-2.394,2.367-5.187,1.679-6.207-1.53a6.224,6.224,0,0,0-7.709-4.046c-3.22.984-5.373-.924-4.785-4.239a6.224,6.224,0,0,0-4.946-7.165c-3.308-.625-4.328-3.316-2.267-5.977a6.224,6.224,0,0,0-1.049-8.643c-2.639-2.091-2.292-4.947.771-6.346a6.224,6.224,0,0,0,3.087-8.14c-1.364-3.078.27-5.446,3.632-5.261a6.224,6.224,0,0,0,6.516-5.773c.222-3.359,2.77-4.7,5.661-2.971A6.224,6.224,0,0,0,515.555,173.313Z" transform="translate(-485.662 -171.16)" fill="#fff" stroke="#a62a0f" stroke-miterlimit="10" stroke-width="1"/><path d="M515.555,173.313c1.758-2.871,4.635-2.871,6.393,0A6.224,6.224,0,0,0,530.4,175.4c2.891-1.726,5.438-.388,5.661,2.971a6.224,6.224,0,0,0,6.516,5.773c3.362-.184,5,2.183,3.632,5.261a6.224,6.224,0,0,0,3.087,8.14c3.062,1.4,3.409,4.255.77,6.346a6.224,6.224,0,0,0-1.049,8.643c2.061,2.662,1.041,5.352-2.267,5.977a6.224,6.224,0,0,0-4.946,7.165c.589,3.315-1.565,5.223-4.785,4.239a6.224,6.224,0,0,0-7.709,4.046c-1.02,3.209-3.813,3.9-6.207,1.53a6.224,6.224,0,0,0-8.706,0c-2.394,2.367-5.187,1.679-6.207-1.53a6.224,6.224,0,0,0-7.709-4.046c-3.22.984-5.373-.924-4.785-4.239a6.224,6.224,0,0,0-4.946-7.165c-3.308-.625-4.328-3.316-2.267-5.977a6.224,6.224,0,0,0-1.049-8.643c-2.639-2.091-2.292-4.947.771-6.346a6.224,6.224,0,0,0,3.087-8.14c-1.364-3.078.27-5.446,3.632-5.261a6.224,6.224,0,0,0,6.516-5.773c.222-3.359,2.77-4.7,5.661-2.971A6.224,6.224,0,0,0,515.555,173.313Z" transform="translate(-485.662 -171.16)" fill="#fff" stroke="#a62a0f" stroke-miterlimit="10" stroke-width="1"/></g></g></svg>