<svg xmlns="http://www.w3.org/2000/svg" width="35.382" height="11.26" viewBox="0 0 35.382 11.26"><g transform="translate(-46.694 -1407.047)"><g transform="translate(-724.783 561.206)"><path d="M788.378,855.5a3.171,3.171,0,0,1-.912.85,2.675,2.675,0,0,1-.964.359,2.164,2.164,0,0,1-.912-.053,1.772,1.772,0,0,1-.754-.421q-.526-.473-.964-.842t-.851-.675q-.412-.307-.842-.6t-.973-.64q-.14-.087-.193-.061c-.035.018-.053.079-.053.184v.386q0,.263.017.982v1.175a1.09,1.09,0,0,1-.21.7,1.152,1.152,0,0,1-.737.351q-.982.157-.982-1v-.684q0-.333.017-.737c0-.116,0-.239.009-.368s.009-.263.009-.4-.07-.169-.21-.053a9.079,9.079,0,0,1-1.543,1.07,15.693,15.693,0,0,1-2.122.982,3.367,3.367,0,0,1-.929.184,6.42,6.42,0,0,1-1.114-.009,4.2,4.2,0,0,1-1-.21,1.006,1.006,0,0,1-.588-.421q-.14-.245-.088-.351c.035-.07.146-.111.333-.123q.491-.035.868-.07a7.016,7.016,0,0,0,.728-.105q.351-.07.728-.175t.9-.263a7.945,7.945,0,0,0,2.823-1.49q.228-.21-.07-.211-.806,0-1.385.053-.649.035-.894.061a1.879,1.879,0,0,0-.351.062.823.823,0,0,1-.342.035.726.726,0,0,1-.324-.105.606.606,0,0,1-.219-.237.553.553,0,0,1-.044-.359.381.381,0,0,1,.167-.237,1.229,1.229,0,0,1,.359-.184,1.829,1.829,0,0,1,.438-.087.9.9,0,0,1,.4.053,1.018,1.018,0,0,0,.263.053c.117.012.257.017.421.017q.772-.035,1.411-.044t1.2-.026a.238.238,0,0,0,.228-.175.735.735,0,0,1,.263-.386q.07-.035.053-.088t-.193-.175q-.439-.3-.21-.684.14-.245-.088-.246-.439.018-.947.017h-1.1c-.059,0-.088.012-.088.035s.018.047.053.07a.714.714,0,0,1,.167.149.479.479,0,0,1,.079.132,1.842,1.842,0,0,0,.4.806q.193.193.123.307t-.333.114a1.911,1.911,0,0,1-.526-.061,3.418,3.418,0,0,1-.579-.255,1.082,1.082,0,0,1-.412-.333.754.754,0,0,1-.114-.421.546.546,0,0,1,.21-.491q.14-.087,0-.175-.351-.175-.351-.368a.339.339,0,0,1,.07-.254.412.412,0,0,1,.263-.062q1.964-.053,3.253-.114t2.06-.114a.861.861,0,0,0,.246-.044c.035-.017.047-.038.035-.061-.023-.058-.044-.117-.061-.175s-.032-.117-.044-.175a.171.171,0,0,0-.07-.105.423.423,0,0,0-.21-.035h-1.149q-.482,0-.885.018a.277.277,0,0,0-.184.052,1.179,1.179,0,0,0-.184.281.646.646,0,0,1-.272.228,1.235,1.235,0,0,1-.439.131,1.181,1.181,0,0,1-.456-.035.4.4,0,0,1-.289-.254.55.55,0,0,0-.175-.246.352.352,0,0,0-.228-.035l-1.692.175q-.5.053-.587.07-.561.193-.772-.053a.572.572,0,0,1-.149-.482.638.638,0,0,1,.324-.43q.28-.158.465-.254a1.618,1.618,0,0,1,.316-.132.568.568,0,0,1,.237-.017,1.389,1.389,0,0,1,.21.053,2.013,2.013,0,0,0,.561.088q.368.018,1,.017a.277.277,0,0,0,.175-.035.171.171,0,0,0,.035-.123,1.606,1.606,0,0,1,.158-.754.788.788,0,0,1,.289-.28.862.862,0,0,1,.395-.114,1.127,1.127,0,0,1,.43.07,1.012,1.012,0,0,1,.377.237,1.333,1.333,0,0,1,.316.719.178.178,0,0,0,.044.132.345.345,0,0,0,.219.044q.912-.017,1.876,0,.246,0,.263-.158.035-.158.07-.325t.07-.359a.46.46,0,0,1,.228-.307.745.745,0,0,1,.394-.088,1.18,1.18,0,0,1,.447.114,1.006,1.006,0,0,1,.386.316,1.721,1.721,0,0,1,.193.342,1.481,1.481,0,0,1,.105.307.2.2,0,0,0,.228.193q.771.017,1.28.017t1.052.035a.394.394,0,0,1,.289.1.435.435,0,0,1,.123.219.4.4,0,0,1-.035.254.441.441,0,0,1-.184.2.77.77,0,0,1-.351.105q-.211.018-.754,0-.3-.017-.692-.017t-.851-.018a.323.323,0,0,0-.281.158q-.088.158.105.158a.461.461,0,0,1,.307.1,1.684,1.684,0,0,1,.254.289q.193.246.088.421t-.649.245q-.316.035-.605.07t-.605.061q-.315.027-.692.044t-.851.035c-.164,0-.2.041-.123.123a3.156,3.156,0,0,0,.324.28,3.487,3.487,0,0,0,.482.3q.14.088.14.184c0,.064-.076.137-.228.219q-.14.07-.149.14a.489.489,0,0,0,.044.211,1.2,1.2,0,0,0,.14.254.174.174,0,0,0,.14.062l1.71.035q.868.018,2.008.053a2.016,2.016,0,0,1,.561.07c.081.035.117.129.105.28q-.036.438-.894.438H782.1c-.059,0-.094.012-.105.035s.012.053.07.088a12.609,12.609,0,0,0,2.867,1.368,15.969,15.969,0,0,0,3.165.719q.4.052.465.175T788.378,855.5Zm-4.349-5.1q.21.263.175.421a.363.363,0,0,1-.21.246,4.813,4.813,0,0,1-.737.289q-.333.1-.789.2-.315.07-.4-.044t.088-.359l.359-.552q.132-.2.272-.447a.577.577,0,0,1,.237-.237.456.456,0,0,1,.394.026,1.77,1.77,0,0,1,.333.2A1.794,1.794,0,0,1,784.029,850.4Z" transform="translate(0 -0.346)" fill="#aa2a0f"/><path d="M870.4,853.893a2.3,2.3,0,0,1-.386.622,2.675,2.675,0,0,1-.684.588,1.728,1.728,0,0,1-1.175.193,6.523,6.523,0,0,1-1.578-.4,3.463,3.463,0,0,0-.447-.1q-.289-.053-.658-.1t-.78-.07q-.412-.026-.815-.026c-.281,0-.5.006-.658.018a.569.569,0,0,0-.351.123.526.526,0,0,0-.149.307,3.525,3.525,0,0,0-.035.57,2.537,2.537,0,0,1-.123.921.968.968,0,0,1-.614.465q-.579.227-.824-.044a2.29,2.29,0,0,1-.245-1.341,4.234,4.234,0,0,0-.027-.535.4.4,0,0,0-.175-.3.885.885,0,0,0-.447-.105q-.3-.009-.824.009-.894.052-1.692.105t-1.412.122q-.614.071-1.017.132a2.218,2.218,0,0,0-.509.114,1.919,1.919,0,0,1-.666.21.7.7,0,0,1-.421-.079.463.463,0,0,1-.211-.263.909.909,0,0,1-.035-.359,1.181,1.181,0,0,1,.245-.509,1.6,1.6,0,0,1,.631-.473,1.063,1.063,0,0,1,.535-.044c.2.03.383.061.535.1a1.893,1.893,0,0,0,.588.1,10.217,10.217,0,0,0,1.166-.079q.772-.07,1.587-.079t1.657-.062a.486.486,0,0,0,.333-.131.933.933,0,0,0,.158-.465q.035-.21-.062-.271a.92.92,0,0,0-.447-.044q-.509.017-.991.017t-.938.017a.7.7,0,0,0-.254.062.623.623,0,0,0-.167.149.985.985,0,0,1-.386.254,1.207,1.207,0,0,1-.491.088.762.762,0,0,1-.456-.175.812.812,0,0,1-.263-.552q-.193-1.175-.272-1.78t-.114-.938a6.293,6.293,0,0,1-.053-.728,1.662,1.662,0,0,1,.053-.465.637.637,0,0,1,.149-.272.652.652,0,0,1,.237-.149.966.966,0,0,1,.894-.017.87.87,0,0,0,.316.149,1.972,1.972,0,0,0,.579.009,3.032,3.032,0,0,0,.517-.062q.184-.044.21-.123t-.1-.228a4.926,4.926,0,0,0-.412-.395.734.734,0,0,1-.193-.333.815.815,0,0,1-.009-.395,1.028,1.028,0,0,1,.167-.377.913.913,0,0,1,.316-.28.806.806,0,0,1,.9-.009,1,1,0,0,1,.412.85,1.693,1.693,0,0,0,.052.351,4.2,4.2,0,0,0,.14.473.677.677,0,0,0,.211.333.938.938,0,0,0,.543.053,5.211,5.211,0,0,1,1.052,0,.986.986,0,0,0,.623-.062.711.711,0,0,0,.254-.324q.123-.3.2-.535a2.286,2.286,0,0,0,.1-.359,1.2,1.2,0,0,1,.482-1.017q.429-.263.956.228a.95.95,0,0,1,.386.719.992.992,0,0,1-.351.666q-.439.4-.395.517t.57.131a3.221,3.221,0,0,0,.57-.009.675.675,0,0,0,.272-.1,1.178,1.178,0,0,1,.552-.193,1.488,1.488,0,0,1,.6.193.828.828,0,0,1,.465.456,1.756,1.756,0,0,1,.026.859q-.035.3-.07.684t-.07.763q-.036.377-.07.71t-.053.526a.633.633,0,0,1-.123.368,1.214,1.214,0,0,1-.316.307,1.118,1.118,0,0,1-.438.175.844.844,0,0,1-.491-.062,2.076,2.076,0,0,0-.333-.114,1.593,1.593,0,0,0-.385-.044q-.141-.017-.623-.044t-1.289.009a.753.753,0,0,0-.359.079.314.314,0,0,0-.079.254.581.581,0,0,0,.088.377.444.444,0,0,0,.333.1h1.955q.482,0,.912.009t.745.026q1.122.035,1.955.017t1.482-.088q.263-.035.342.053T870.4,853.893Zm-9.521-4.261q0-.3-.105-.368a.878.878,0,0,0-.456-.053q-.579.018-1.14.027t-1.017.044q-.333.018-.4.105t.017.385a.728.728,0,0,0,.167.377.607.607,0,0,0,.412.044q.508-.035.956-.044t.868-.026a1.414,1.414,0,0,0,.6-.123Q860.9,849.913,860.883,849.632Zm-.035,1.824q.035-.28-.061-.36a.9.9,0,0,0-.5-.061l-.921.035q-.464.018-.956.053a.529.529,0,0,0-.324.1c-.053.052-.067.161-.044.324a.6.6,0,0,0,.105.316q.07.07.368.053.474-.017.921-.018t.868-.017a.788.788,0,0,0,.456-.105A.443.443,0,0,0,860.848,851.456Zm4.664-1.859a.5.5,0,0,0-.123-.342.455.455,0,0,0-.316-.1h-2.069a.864.864,0,0,0-.421.088q-.088.07-.088.368a.454.454,0,0,0,.114.325.9.9,0,0,0,.482.079H865a.661.661,0,0,0,.421-.062A.506.506,0,0,0,865.512,849.6Zm-.14,1.789a.443.443,0,0,0-.017-.3q-.052-.07-.333-.07-.193,0-.447-.009t-.526-.009h-.535q-.263,0-.456-.017a.618.618,0,0,0-.4.061.379.379,0,0,0-.088.289.742.742,0,0,0,.1.395.441.441,0,0,0,.342.1c.117,0,.26,0,.43-.009l.509-.017.5-.017q.245-.008.438-.009a.691.691,0,0,0,.386-.1A.431.431,0,0,0,865.372,851.385Z" transform="translate(-63.62)" fill="#aa2a0f"/></g></g></svg>