<svg xmlns="http://www.w3.org/2000/svg" width="98.851" height="16.367" viewBox="0 0 98.851 16.367"><g transform="translate(-647.509 -397.363)" style="isolation:isolate"><g transform="translate(647.509 397.363)" style="isolation:isolate"><path d="M676.951,400.657a1.388,1.388,0,0,1,.3,1.066,7.317,7.317,0,0,1-.858,2.086,23.12,23.12,0,0,0-2.319,9.32l-5.239,1.159a17.83,17.83,0,0,1,.417-2.619,23.938,23.938,0,0,1,.858-2.874,27.512,27.512,0,0,1,1.252-2.9,20.9,20.9,0,0,1,1.6-2.689l-1.02-.974a5.178,5.178,0,0,0-2.458.881,14.852,14.852,0,0,0-2.573,2.04,15.8,15.8,0,0,0-2.156,2.62,7.392,7.392,0,0,0-1.159,2.666,7.8,7.8,0,0,1-.974,2.921,1.641,1.641,0,0,1-1.345.742,1.773,1.773,0,0,1-1-.371,5.057,5.057,0,0,1-1-.928,6.317,6.317,0,0,1-.765-1.136,2.242,2.242,0,0,1-.3-1,2.2,2.2,0,0,1,.3-.95,9.635,9.635,0,0,1,1.368-1.739,10.425,10.425,0,0,0,1.6-2.11,15.324,15.324,0,0,0,1.09-2.573l-1.159-1.3a12.532,12.532,0,0,0-5.494,2.944,10.272,10.272,0,0,0-2.759,5.17q-.325,1.391-.556,2.2a4.943,4.943,0,0,1-.51,1.252,1.377,1.377,0,0,1-.626.58,2.468,2.468,0,0,1-.9.139,1.627,1.627,0,0,1-.927-.371,7.4,7.4,0,0,1-1-.881,6.128,6.128,0,0,1-.811-1.043,1.832,1.832,0,0,1-.325-.9,2.739,2.739,0,0,1,.185-.927,3.427,3.427,0,0,1,.835-1.159,9.417,9.417,0,0,0,1.043-1.414,5.559,5.559,0,0,0,.6-1.623,12.247,12.247,0,0,0,.232-2.364q.023-1.414-.116-3.64l4.543-1.113v1.484a16.692,16.692,0,0,1-.093,1.878q-.093.811-.278,1.738a21.47,21.47,0,0,1,2.689-2.133,22.434,22.434,0,0,1,2.69-1.553,15.414,15.414,0,0,1,2.434-.951,7.241,7.241,0,0,1,1.924-.325,2.213,2.213,0,0,1,.789.186,4.865,4.865,0,0,1,.881.464,3.839,3.839,0,0,1,.7.58.879.879,0,0,1,.278.58q0,.6-.046,1.229a3.775,3.775,0,0,1-.278,1.182,23.53,23.53,0,0,1,2.156-1.738,21.54,21.54,0,0,1,2.2-1.391,12.793,12.793,0,0,1,2.04-.9,5.646,5.646,0,0,1,1.762-.325,1.809,1.809,0,0,1,.928.371A6.216,6.216,0,0,1,676.951,400.657Z" transform="translate(-647.509 -398.061)" fill="#ae2a0f"/><path d="M729.044,401.827a4.237,4.237,0,0,1-.534,2.226,4.136,4.136,0,0,1-2.017,1.507,19.829,19.829,0,0,1-4.1,1.09q-2.62.464-6.793,1.02a4.818,4.818,0,0,0,.766,2.017,5.172,5.172,0,0,0,1.738,1.739q1.344-.278,2.527-.556t2.3-.6q1.112-.324,2.249-.742t2.388-.974l-.139,1.252a2.145,2.145,0,0,1-.162.58,1.41,1.41,0,0,1-.58.533,11.914,11.914,0,0,1-1.391.672q-.928.395-2.6,1a28.151,28.151,0,0,1-3.477,1.067,12.961,12.961,0,0,1-2.828.417,5.169,5.169,0,0,1-2.017-.44,8.793,8.793,0,0,1-1.9-1.09,6.284,6.284,0,0,1-1.391-1.414,2.574,2.574,0,0,1-.534-1.46,5.251,5.251,0,0,1,.14-1.229,7.022,7.022,0,0,1,.487-1.322,16.023,16.023,0,0,1,1-1.762l1.623-2.55a8.866,8.866,0,0,1,3.964-2.944,17.8,17.8,0,0,1,6.978-1.183,6.307,6.307,0,0,1,3.362.649A2.84,2.84,0,0,1,729.044,401.827Zm-4.729-1.391-4.869.6q-.928,1.206-1.692,2.295t-1.646,2.574q2.643-.231,4.266-.51a9.641,9.641,0,0,0,2.48-.7,2.5,2.5,0,0,0,1.159-.974,2.788,2.788,0,0,0,.3-1.345Z" transform="translate(-677.114 -397.979)" fill="#ae2a0f"/><path d="M772.558,401.2a3.283,3.283,0,0,1-.464,1.391,28.115,28.115,0,0,0-2.133,5.077,25.594,25.594,0,0,0-1.02,5.494l-5.008,1.205a32.843,32.843,0,0,1,1.623-6.213,21.816,21.816,0,0,1,2.6-5.1l-1.113-1.159a16.435,16.435,0,0,0-3.13,1.414,18.008,18.008,0,0,0-2.573,1.808,12.2,12.2,0,0,0-1.785,1.831,4.229,4.229,0,0,0-.812,1.484,28.419,28.419,0,0,1-.834,3.222,9.9,9.9,0,0,1-.811,1.878,2.027,2.027,0,0,1-.742.811.789.789,0,0,1-.672.023,5.571,5.571,0,0,1-1.738-1.066,10.349,10.349,0,0,1-1.322-1.623q-.7-.881.417-1.716a6.788,6.788,0,0,0,1.02-.95,3.534,3.534,0,0,0,.649-1.159,7.185,7.185,0,0,0,.325-1.623q.093-.95.093-2.341,0-1.67-.023-2.481a13.13,13.13,0,0,0-.116-1.461l4.868-.927a19.528,19.528,0,0,1,.023,2.5,13.88,13.88,0,0,1-.441,2.643,13.561,13.561,0,0,1,2.388-1.947,25.711,25.711,0,0,1,2.9-1.646,19.373,19.373,0,0,1,2.875-1.136,8.364,8.364,0,0,1,2.318-.417,1.537,1.537,0,0,1,.672.255,6.214,6.214,0,0,1,.881.626,7.064,7.064,0,0,1,.765.742A1.073,1.073,0,0,1,772.558,401.2Z" transform="translate(-696.751 -398.143)" fill="#ae2a0f"/><path d="M816.717,401.3a2.575,2.575,0,0,1-.881,1.808,6.6,6.6,0,0,0-1.947,5.471q.093,1.206.232,2.132a12.594,12.594,0,0,0,.464,1.947l-4.822,1.067a18.324,18.324,0,0,1-.3-2.365,16.394,16.394,0,0,1,.116-2.782,24.906,24.906,0,0,1-5.378,3.871,9.848,9.848,0,0,1-4.265,1.229,3.012,3.012,0,0,1-2.087-1.252,1.608,1.608,0,0,1-.533-1.067,3.807,3.807,0,0,1,.395-1.53q.741-1.808,1.275-3.222t.9-2.689a25.621,25.621,0,0,0,.6-2.55q.231-1.274.371-2.759l5.286-1.252a18.162,18.162,0,0,1-.58,2.991q-.441,1.6-1.043,3.2t-1.345,3.107a27.491,27.491,0,0,1-1.483,2.666l1.205,1.53a18.71,18.71,0,0,0,5.935-4.4,10.8,10.8,0,0,0,2.364-5.24,12.445,12.445,0,0,1,.742-3.013,1.22,1.22,0,0,1,1.159-.742,1.909,1.909,0,0,1,.881.417,8.876,8.876,0,0,1,1.206,1.02,9.294,9.294,0,0,1,1.066,1.275A2.152,2.152,0,0,1,816.717,401.3Z" transform="translate(-717.866 -397.363)" fill="#ae2a0f"/></g></g></svg>