<svg xmlns="http://www.w3.org/2000/svg" width="81.654" height="146.061" viewBox="0 0 81.654 146.061"><g transform="translate(-240.609 -236.599)"><g transform="translate(0 -41.885)"><path d="M47.419,70.155l0,47.286c0,.633,0,1.263-.056,1.891a18.789,18.789,0,0,1-.637,3.554,20.684,20.684,0,0,1-5.056,8.751,22.125,22.125,0,0,1-6.954,4.916,21.742,21.742,0,0,1-5.163,1.607,21.229,21.229,0,0,1-3.824.347H21.665a20.03,20.03,0,0,1-3.95-.365,20.976,20.976,0,0,1-7.2-2.758A21.631,21.631,0,0,1,.7,122.264a21.181,21.181,0,0,1-.7-5.608l0-83.185V21.725a20.832,20.832,0,0,1,.348-3.918A21.86,21.86,0,0,1,16.3.688,21.153,21.153,0,0,1,19.976.066C20.62.014,21.259,0,21.9,0H25.88A21.184,21.184,0,0,1,40.5,5.978a21.933,21.933,0,0,1,3.317,4.1A23.711,23.711,0,0,1,47.39,21.659c0,.521.032,1.043.032,1.564Zm-16.4,62.9a.884.884,0,0,0-.069-.5c-.06-.149-.129-.292-.188-.441a4.24,4.24,0,0,1-.111-2.778,3.854,3.854,0,0,1,4.715-2.625,4.072,4.072,0,0,1,2.868,4.757,4.888,4.888,0,0,1-.327,1.043,2.448,2.448,0,0,0-.125.379c0,.055.076.136.132.119a.778.778,0,0,0,.181-.077c.164-.114.348-.229.487-.347a20.38,20.38,0,0,0,6.583-9.711,19.388,19.388,0,0,0,.915-5.292c.021-.629.021-1.259.021-1.888v-8.609a.815.815,0,0,0-.261-.612l-.236-.215q-3.737-3.328-7.474-6.659c-1.391-1.234-2.782-2.435-4.106-3.728a.483.483,0,0,0-.674-.11.5.5,0,0,0-.095.089l-.177.164c-.195.184-.379.378-.585.552q-1.561,1.356-3.129,2.7a1.89,1.89,0,0,1-.3.2.562.562,0,0,1-.577,0,1.5,1.5,0,0,1-.327-.225.473.473,0,0,1-.075-.665.511.511,0,0,1,.044-.049,5.152,5.152,0,0,1,.372-.365l3.056-2.781,3.935-3.56c.386-.348.786-.7,1.172-1.043a2.255,2.255,0,0,0,.7-1.106,1.481,1.481,0,0,0-.588-1.665,1.544,1.544,0,0,0-.779-.3c-.173,0-.348-.021-.525-.021l-4.659.027H29.07a1.413,1.413,0,0,1-.7-.16.745.745,0,0,1-.417-.761.738.738,0,0,1,.577-.7,2.416,2.416,0,0,1,.6-.073q3.477,0,6.954-.017a2.566,2.566,0,0,1,.518.049,3.2,3.2,0,0,1,2.52,3.762,1.858,1.858,0,0,1-.577,1.123l-.254.254-2.527,2.417c-.195.184-.393.365-.571.566a.347.347,0,0,0,0,.563c.135.146.281.289.428.421l9.53,8.641c.139.125.278.25.424.369a.79.79,0,0,0,.2.122.189.189,0,0,0,.249-.095.218.218,0,0,0,.009-.024,1.236,1.236,0,0,0,.038-.316V65.576c0-.292,0-.587-.017-.883s-.139-.421-.452-.448a1.633,1.633,0,0,0-.2,0c-1.179,0-2.358-.032-3.536-.032h-18a4.736,4.736,0,0,0-.6.042.409.409,0,0,0-.414.406v.007a4.378,4.378,0,0,0-.021.522V74.76a2.938,2.938,0,0,1-1.61,2.563,4.353,4.353,0,0,1-2.806.431,3.543,3.543,0,0,1-2.128-1.123c-.083-.087-.167-.173-.246-.264l-3.713-4.232Q10.768,70.352,9.2,68.557a7.246,7.246,0,0,1-1.137-1.738,2.331,2.331,0,0,1-.034-1.874,2.948,2.948,0,0,1,.625-.977,3.8,3.8,0,0,1,2.872-1.193h6.749a1.321,1.321,0,0,1,.236.046.713.713,0,0,1,.48.8.613.613,0,0,1-.595.63h0a4.376,4.376,0,0,1-.6.038H11.207a1.785,1.785,0,0,0-1.575.948,1.26,1.26,0,0,0-.07,1.269,5.349,5.349,0,0,0,.459.751c.2.267.431.514.65.765l6.376,7.188c.2.219.4.43.619.633a2.275,2.275,0,0,0,3.042,0,1.158,1.158,0,0,0,.4-.765c0-.216.031-.428.031-.644l0-15.083v-.525a.8.8,0,0,1,.834-.771l.039,0a.831.831,0,0,1,.834.768V61.91a3.2,3.2,0,0,0,.045.519.38.38,0,0,0,.348.327,2.719,2.719,0,0,0,.348,0H45.361a2.384,2.384,0,0,0,.323,0,.424.424,0,0,0,.4-.424V44.471a.968.968,0,0,0-.268-.7l-.25-.26L40.481,38.3l-6.408-6.554c-.143-.146-.289-.285-.438-.413a.92.92,0,0,0-.7-.206,1.042,1.042,0,0,0-.62.261c-.156.129-.3.267-.441.41L19.393,44.3c-.094.1-.187.191-.285.285l-3.7,3.689a3.451,3.451,0,0,0-.316.348.2.2,0,0,0,0,.29.2.2,0,0,0,.141.057,3.155,3.155,0,0,0,.469.049H31a4.016,4.016,0,0,1,2.138.605,3.072,3.072,0,0,1,1.37,3.72,2.481,2.481,0,0,1-1.391,1.586c-.515.226-1.012.49-1.516.736l-4.961,2.392c-.168.084-.348.14-.515.219a.828.828,0,0,1-.987-.348.5.5,0,0,1,.051-.706.482.482,0,0,1,.084-.059,2.917,2.917,0,0,1,.42-.236l4.868-2.4q.827-.407,1.651-.824a1.606,1.606,0,0,0,.758-1.929,1.5,1.5,0,0,0-1.335-1.113c-.226,0-.452-.031-.7-.031H13.673a2.117,2.117,0,0,1-.963-.24.807.807,0,0,1-.3-1.28,2.983,2.983,0,0,1,.3-.327L19.4,42.112,30.948,30.59c.094-.094.191-.191.275-.292a1.206,1.206,0,0,0,.045-1.585,4.35,4.35,0,0,0-.348-.393c-.887-.95-1.777-1.9-2.66-2.851a3.268,3.268,0,0,1-.348-.432.7.7,0,0,1,.052-.89.6.6,0,0,1,.826-.159.544.544,0,0,1,.061.047,3.625,3.625,0,0,1,.414.386c.925.984,1.846,1.976,2.781,2.962a2.6,2.6,0,0,0,.348.327.985.985,0,0,0,1.261,0,4.215,4.215,0,0,0,.407-.389c.424-.449.841-.9,1.262-1.353.487-.518.97-1.042,1.461-1.55a1.8,1.8,0,0,1,.372-.3.543.543,0,0,1,.671.076A.74.74,0,0,1,38,25.225c-.009.014-.019.026-.029.038a4.472,4.472,0,0,1-.417.487l-2.549,2.736a2.32,2.32,0,0,0-.32.411,1.175,1.175,0,0,0,.06,1.325,1.9,1.9,0,0,0,.208.244c.2.215.407.427.612.636L39.9,35.525c.928.945,1.864,1.888,2.782,2.834.459.47.914.946,1.373,1.415l1.407,1.432a1.955,1.955,0,0,0,.241.212c.18.132.348.062.378-.153a2.331,2.331,0,0,0,0-.323V22.181a23.521,23.521,0,0,0-.16-3.008,20.881,20.881,0,0,0-1.307-5c-.056-.136-.114-.271-.184-.4a.53.53,0,0,0-.484-.306H24.718a1.221,1.221,0,0,1-.611-.174.607.607,0,0,1-.267-.818.6.6,0,0,1,.229-.246,1.042,1.042,0,0,1,.563-.192h6.954a3.212,3.212,0,0,0,.4,0,.38.38,0,0,0,.376-.348A2.725,2.725,0,0,0,32.4,11.2V8.349a3.562,3.562,0,0,1,0-.441.671.671,0,0,1,.663-.678h.032a1.179,1.179,0,0,1,.4.038.7.7,0,0,1,.55.664v3.526a.472.472,0,0,0,.556.533h8.233a1.741,1.741,0,0,0,.279,0,.268.268,0,0,0,.272-.264.28.28,0,0,0-.039-.143,2.645,2.645,0,0,0-.223-.428,20.435,20.435,0,0,0-7.138-7.031A19.935,19.935,0,0,0,29.023,1.61a21.486,21.486,0,0,0-3.4-.281H22.288q-.761,0-1.523.032a19.441,19.441,0,0,0-4.465.72A20.337,20.337,0,0,0,6.844,7.833a20.082,20.082,0,0,0-3.478,5.087,16.168,16.168,0,0,0-.845,2.041,1.9,1.9,0,0,0-.09.389.153.153,0,0,0,.12.18.151.151,0,0,0,.116-.023,1.873,1.873,0,0,0,.195-.139l.348-.292L9.294,9.512a2.324,2.324,0,0,0,.39-.455.946.946,0,0,0,0-1.1c-.059-.087-.133-.17-.192-.257a2.884,2.884,0,0,1-.181-.268.537.537,0,0,1,.021-.571.832.832,0,0,1,1.13-.322l.017.01a1.991,1.991,0,0,1,.289.219,2.618,2.618,0,0,1,.765,1.617,1.71,1.71,0,0,1-.647,1.71c-.219.177-.435.348-.643.546l-3.686,3.4Q4.279,16.125,2,18.211a1.444,1.444,0,0,0-.514.963c-.08.814-.168,1.627-.168,2.434l0,84.7q0,.1,0,.2c.049.3.2.368.445.208a1.8,1.8,0,0,0,.219-.173l.761-.658L18.91,91.836l1.255-1.1A1.945,1.945,0,0,0,20.837,89a1.36,1.36,0,0,0-1.28-1.269c-.23-.017-.455-.024-.7-.024H14.213a1.305,1.305,0,0,1-.748-.257.658.658,0,0,1-.159-.915.81.81,0,0,1,.062-.076.882.882,0,0,1,.574-.347,4.857,4.857,0,0,1,.639-.056h4.339a4.833,4.833,0,0,1,.6.025,4.855,4.855,0,0,1,1.224.208,2.239,2.239,0,0,1,.977.612,3.066,3.066,0,0,1,.789,1.812,6.676,6.676,0,0,1,0,.964,3.062,3.062,0,0,1-.9,1.912,5.3,5.3,0,0,1-.41.382l-4.284,3.71-5.536,4.794-7.5,6.484c-.741.639-1.474,1.286-2.219,1.922a.944.944,0,0,0-.348.741v6.954a20.956,20.956,0,0,0,.479,4.593,20.417,20.417,0,0,0,2.781,6.676,20.68,20.68,0,0,0,3.254,3.877,18.875,18.875,0,0,0,2.242,1.783,1.891,1.891,0,0,0,.348.2.253.253,0,0,0,.365-.2,2.456,2.456,0,0,0,.041-.48v-4.3a6.066,6.066,0,0,0-.115-1.52.465.465,0,0,1,0-.118.244.244,0,0,1,.2-.28l.022,0a3.318,3.318,0,0,1,.56-.041c.375,0,.751.017,1.123.027a6.888,6.888,0,0,1,1.161.1,2.386,2.386,0,0,1,1.978,2.052,2.058,2.058,0,0,1-.963,2.128,2.57,2.57,0,0,1-.727.347,4.76,4.76,0,0,1-1.349.167,5.317,5.317,0,0,0-.563.017.4.4,0,0,0-.42.386V132a2.59,2.59,0,0,0-.031.32,16.521,16.521,0,0,0,.066,1.767.86.86,0,0,0,.553.806c.048.021.094.049.143.073a20.077,20.077,0,0,0,4.464,1.666,19.3,19.3,0,0,0,4.252.567c1.391.021,2.782,0,4.173,0a20.98,20.98,0,0,0,5.1-.566,19.883,19.883,0,0,0,3.745-1.311,5.473,5.473,0,0,0,.591-.348c.045-.027.062-.1.087-.153a.538.538,0,0,0-.435-.115,4.152,4.152,0,0,1-2.657-1.089,2.973,2.973,0,0,0-.275-.237,2.069,2.069,0,0,0-.261-.128,1.516,1.516,0,0,0-.1.236.7.7,0,0,1-.428.546,4.28,4.28,0,0,1-1.878.529,4.637,4.637,0,0,1-1.762-.348,1.681,1.681,0,0,1-.563-.3c-.111-.094-.233-.181-.348-.275a3.9,3.9,0,0,1,.445-6.321,4.3,4.3,0,0,1,3.4-.515,1.04,1.04,0,0,1,.3.119.459.459,0,0,1,.2.487.261.261,0,0,1-.289.229.255.255,0,0,1-.059-.013c-.125-.038-.247-.1-.372-.15a3.076,3.076,0,0,0-.963-.261,2.845,2.845,0,0,0-2.924,2.086,4.1,4.1,0,0,0,.785,3.637,2.409,2.409,0,0,0,1.645.991,2.66,2.66,0,0,0,2.027-.438C30.57,133.354,30.792,133.208,31.018,133.052Zm6.328-2v-.25a4.175,4.175,0,0,0-1.456-3.022,2.5,2.5,0,0,0-2.281-.581,2.663,2.663,0,0,0-2.086,2.013A3.837,3.837,0,0,0,31.428,131a4.026,4.026,0,0,0,1.6,2.6,2.66,2.66,0,0,0,3.72-.564,2.734,2.734,0,0,0,.227-.367A3.231,3.231,0,0,0,37.346,131.049ZM11.69,129.118h0V130.2a3.718,3.718,0,0,0,.046.48.4.4,0,0,0,.348.348,1.078,1.078,0,0,0,.278.028,7.96,7.96,0,0,0,.956-.08,1.618,1.618,0,0,0,1.183-.755,1.971,1.971,0,0,0-.633-2.68,2.735,2.735,0,0,0-1.711-.3.435.435,0,0,0-.4.39,1.934,1.934,0,0,0-.021.24C11.721,128.29,11.7,128.7,11.69,129.118Z" transform="matrix(0.966, 0.259, -0.259, 0.966, 276.457, 278.484)" fill="#a92a0f"/><path d="M6.842,4.834a.43.43,0,0,0,.431.171c.514,0,1.027.02,1.541.02h19.66a4.148,4.148,0,0,1,.589.039.587.587,0,0,1,.544.5.685.685,0,0,1-.342.733,1.729,1.729,0,0,1-.451.127,2.2,2.2,0,0,1-.343,0H17.237a4.949,4.949,0,0,0-.787.055,1.28,1.28,0,0,0-1.13,1.31c0,.66,0,1.321.034,1.978q.04,1.9.089,3.8c0,.5.024,1,.03,1.5A2.882,2.882,0,0,1,14.446,17.3a3.45,3.45,0,0,1-1.91.883,4.627,4.627,0,0,1-2-.12,3.662,3.662,0,0,1-1.26-.647c-.325-.264-.64-.548-.954-.829a1.364,1.364,0,0,1-.209-.236.555.555,0,0,1,.055-.726A.815.815,0,0,1,9.2,15.445a2.927,2.927,0,0,1,.414.3c.25.2.49.4.74.6a2.25,2.25,0,0,0,1.146.489,2.081,2.081,0,0,0,1.711-.492,1.207,1.207,0,0,0,.434-.856V8a2.766,2.766,0,0,0-.065-.63,1.112,1.112,0,0,0-.941-.893,4.733,4.733,0,0,0-.788-.062H.807a1,1,0,0,1-.578-.229A.561.561,0,0,1,.109,5.4a.4.4,0,0,1,.045-.054.981.981,0,0,1,.5-.295l1.065-.3,9.727-2.792c.226-.064.451-.141.685-.219a1.353,1.353,0,0,0,.242-.123.079.079,0,0,0,.031-.069c0-.034-.034-.086-.062-.089a2.137,2.137,0,0,0-.386-.055c-.634-.017-1.266-.024-1.9-.038a3.687,3.687,0,0,1-.434-.02.717.717,0,0,1-.445-.237A.622.622,0,0,1,9.409.087,1.587,1.587,0,0,1,9.792,0a2.566,2.566,0,0,1,.318,0h7.475a2.688,2.688,0,0,1,.548.044.648.648,0,0,1,.572.527.725.725,0,0,1-.367.773,2.3,2.3,0,0,1-.545.219c-.722.216-1.444.421-2.166.626L7.834,4.447c-.243.069-.479.148-.715.233A2.948,2.948,0,0,0,6.842,4.834Z" transform="matrix(0.966, 0.259, -0.259, 0.966, 259.721, 379.805)" fill="#a92a0f"/><path d="M.069,10.929C.069,9.608.1,8.29.1,6.969V3.249A2.925,2.925,0,0,1,1.161.993,3.736,3.736,0,0,1,3.66.018C5.293,0,6.929-.009,8.565.018A3.818,3.818,0,0,1,11.5,1.435a2.653,2.653,0,0,1,.668,1.777v4.87a2.86,2.86,0,0,1-1.074,2.2,3.742,3.742,0,0,1-2.526.954H4.056a1.351,1.351,0,0,1-.582-.1.645.645,0,0,1-.407-.62.638.638,0,0,1,.418-.576,1.81,1.81,0,0,1,.684-.109H6.384c.739,0,1.451,0,2.173-.025a2.054,2.054,0,0,0,1.369-.561,1.713,1.713,0,0,0,.6-1.171c0-.184.031-.366.031-.551v-3.8c0-.172-.02-.342-.027-.514A1.938,1.938,0,0,0,8.976,1.5a4.3,4.3,0,0,0-.784-.079H4.084a4.429,4.429,0,0,0-.705.061,2.024,2.024,0,0,0-1.276.8,1.8,1.8,0,0,0-.37,1.027v8.355q0,1.369-.031,2.738c-.02,1.163-.051,2.324-.078,3.484,0,.421-.024.843-.055,1.263a.686.686,0,0,1-.538.685.785.785,0,0,1-.965-.531A2.067,2.067,0,0,1,0,18.76c0-1.516.044-3.032.055-4.549V10.926Z" transform="matrix(0.966, 0.259, -0.259, 0.966, 275.727, 300.353)" fill="#a92a0f"/><path d="M5.3,0H8.523a2.787,2.787,0,0,1,.784.082,1.681,1.681,0,0,1,1.3,1.674V6.111A1.851,1.851,0,0,1,10,7.56c-.815.767-1.612,1.557-2.423,2.33-.733.7-1.475,1.393-2.218,2.084a2.178,2.178,0,0,1-.438.342.622.622,0,0,1-.736-.085.531.531,0,0,1-.138-.738v0a2.152,2.152,0,0,1,.343-.417c.5-.49,1.006-.969,1.509-1.455L8.762,6.882l.168-.168A.957.957,0,0,0,9.207,6V3.069a1.508,1.508,0,0,0-.03-.343c-.045-.2-.189-.264-.343-.161a2.778,2.778,0,0,0-.407.312L5.541,5.4,3.46,7.231c-.171.147-.342.294-.52.424a1.917,1.917,0,0,1-2.314-.1A1.54,1.54,0,0,1,.038,6.532,6.381,6.381,0,0,1,0,5.847V2.168a4.97,4.97,0,0,1,.028-.633A1.579,1.579,0,0,1,.808.316,1.773,1.773,0,0,1,1.664.032h.514ZM1.4,3.985V5.844a1.987,1.987,0,0,0,.031.434.379.379,0,0,0,.4.358.376.376,0,0,0,.222-.088,3.279,3.279,0,0,0,.4-.318L6.106,3.024c.425-.373.852-.746,1.274-1.126a1.972,1.972,0,0,0,.267-.287.192.192,0,0,0-.032-.269A.2.2,0,0,0,7.527,1.3a1.349,1.349,0,0,0-.236-.02H2.67a7.061,7.061,0,0,0-.708.024.551.551,0,0,0-.551.551v.353Z" transform="matrix(0.966, 0.259, -0.259, 0.966, 286.909, 353.192)" fill="#a92a0f"/><path d="M5.649,6.519a.345.345,0,0,0,.131-.287c.02-.251.047-.5.051-.75V2c0-.342-.031-.712-.062-1.068a2.883,2.883,0,0,0-.1-.462c-.079-.3,0-.411.3-.448A3.59,3.59,0,0,1,6.485,0c.342,0,.684.02,1.026.027A3.367,3.367,0,0,1,8.6.2,2.026,2.026,0,0,1,9.992,2.121a2.076,2.076,0,0,1-.7,1.691l-.229.219a.418.418,0,0,0-.075.51,2.151,2.151,0,0,0,.161.273c.506.723,1.026,1.441,1.532,2.16a3.029,3.029,0,0,0,.206.239,1.025,1.025,0,0,0,.718.37c.185,0,.27.078.27.171,0,.148-.113.206-.222.25a1.034,1.034,0,0,1-.579.075,1.6,1.6,0,0,1-.9-.462,5.763,5.763,0,0,1-.51-.6c-.441-.609-.865-1.232-1.3-1.845a4.871,4.871,0,0,0-.4-.489.973.973,0,0,0-.75-.3.424.424,0,0,0-.478.362.375.375,0,0,0,0,.052,1.423,1.423,0,0,0,0,.236V6.417c0,.2.051.39.069.589.038.4-.069.527-.479.537H5.252a.829.829,0,0,1-.158,0,.462.462,0,0,1-.425-.4,9.409,9.409,0,0,0-.4-1.369c-.058-.188-.127-.372-.192-.561a.639.639,0,0,0-.65-.479H2.165a.7.7,0,0,0-.712.517L.847,6.957c-.034.1-.062.2-.1.3a.391.391,0,0,1-.376.239.325.325,0,0,1-.343-.445c.059-.133.11-.267.168-.4A33.236,33.236,0,0,0,1.388,3.507a3.243,3.243,0,0,1,.14-.37c.38-.814.685-1.66,1-2.5a4.2,4.2,0,0,1,.168-.4c.133-.25.342-.253.472,0A2.308,2.308,0,0,1,3.315.6q.55,1.527,1.095,3.054c.26.722.523,1.437.79,2.156.058.161.127.318.2.472A.342.342,0,0,0,5.649,6.519ZM9.127,2.254V2.07A1.657,1.657,0,0,0,7.149.474a.391.391,0,0,0-.376.343,2.543,2.543,0,0,0-.042.431V2.987a3.176,3.176,0,0,0,0,.394.421.421,0,0,0,.4.436.47.47,0,0,0,.057,0A2.367,2.367,0,0,0,8.22,3.637a1.422,1.422,0,0,0,.852-1.065,2.946,2.946,0,0,0,.055-.318ZM2.777,4.308v.02a3.34,3.34,0,0,0,.551-.03.342.342,0,0,0,.3-.38l0-.018a.914.914,0,0,0-.045-.191c-.153-.448-.3-.9-.465-1.346a1.083,1.083,0,0,0-.15-.277.156.156,0,0,0-.267,0,1.251,1.251,0,0,0-.154.274c-.171.445-.342.89-.5,1.335A1.076,1.076,0,0,0,2,3.845a.342.342,0,0,0,.215.434.328.328,0,0,0,.094.018,3.645,3.645,0,0,0,.472.013Z" transform="matrix(0.966, 0.259, -0.259, 0.966, 257.516, 404.839)" fill="#a92a0f"/><path d="M.874,10.917a.858.858,0,0,1-.736-.342A.5.5,0,0,1,.1,9.928,2.18,2.18,0,0,1,.389,9.6L7.2,3.271Q8.658,1.9,10.13.557A3.575,3.575,0,0,1,10.654.14.845.845,0,0,1,11.79.331a.538.538,0,0,1,.048.661,2.013,2.013,0,0,1-.288.325L4.893,7.549l-3.08,2.844a4.527,4.527,0,0,1-.428.342A.781.781,0,0,1,.874,10.917Z" transform="matrix(0.966, 0.259, -0.259, 0.966, 258.544, 358.378)" fill="#a92a0f"/><path d="M3.169,3.43a.341.341,0,0,0,.342.212H4.737a1.869,1.869,0,0,1,.5.072.578.578,0,0,1,.357.736l-.015.037a.486.486,0,0,1-.291.3,1.487,1.487,0,0,1-.343.079,3.731,3.731,0,0,1-.434.016H1.923a3.055,3.055,0,0,1-.473-.021A1.514,1.514,0,0,1,1,4.729.551.551,0,0,1,.736,4a.458.458,0,0,1,.023-.044A1.86,1.86,0,0,1,1.1,3.518c.458-.438.924-.862,1.39-1.293.181-.171.366-.342.544-.52a.309.309,0,0,0,.123-.312c-.044-.14-.175-.144-.294-.147s-.291,0-.435,0H.968A2.433,2.433,0,0,1,.5,1.191a.654.654,0,0,1-.25-.11A.53.53,0,0,1,.081.35.523.523,0,0,1,.25.181,1.286,1.286,0,0,1,.688.02,1.492,1.492,0,0,1,1.03,0H4.476a3.042,3.042,0,0,1,.473.024.633.633,0,0,1,.606.66.62.62,0,0,1-.028.158.93.93,0,0,1-.247.486,5.059,5.059,0,0,1-.363.362c-.462.431-.931.859-1.39,1.294C3.388,3.118,3.217,3.227,3.169,3.43Z" transform="matrix(0.966, 0.259, -0.259, 0.966, 275.574, 314.937)" fill="#a92a0f"/><path d="M2.624,5.872a1.865,1.865,0,0,1-.342-.117,1.6,1.6,0,0,1-.322-.229C1.433,5.071.91,4.609.386,4.157A1.73,1.73,0,0,1,.14,3.9a.506.506,0,0,1,.018-.717.546.546,0,0,1,.095-.071A1.712,1.712,0,0,1,.79,2.874c.3-.078.62-.126.931-.175.534-.085,1.068-.157,1.6-.236A1.552,1.552,0,0,0,3.594,2.4c.216-.075.263-.216.13-.39a2.176,2.176,0,0,0-.243-.284c-.208-.2-.428-.39-.636-.592A2.181,2.181,0,0,1,2.556.81.448.448,0,0,1,2.629.2.654.654,0,0,1,3.244.016,1.347,1.347,0,0,1,3.675.2a4.251,4.251,0,0,1,.49.415q.822.742,1.632,1.5a2.772,2.772,0,0,1,.322.342.488.488,0,0,1-.054.69.331.331,0,0,1-.052.039,1.209,1.209,0,0,1-.42.2,8.171,8.171,0,0,1-.815.148L2.94,3.8a2.254,2.254,0,0,0-.27.058c-.281.086-.318.233-.117.462a2.636,2.636,0,0,0,.226.219c.085.082.181.154.263.239a1.7,1.7,0,0,1,.226.274.456.456,0,0,1-.075.61A.74.74,0,0,1,2.624,5.872Z" transform="matrix(0.966, 0.259, -0.259, 0.966, 261.396, 366.997)" fill="#a92a0f"/><path d="M.007,2.672V.93A1.888,1.888,0,0,1,.052.54.688.688,0,0,1,.164.29.771.771,0,0,1,.979.03a.685.685,0,0,1,.606.54,2.887,2.887,0,0,1,.048.51V2.823a2.545,2.545,0,0,0,.024.394.291.291,0,0,0,.322.256l.02,0a2.52,2.52,0,0,0,.27-.051,3.866,3.866,0,0,1,.387-.078.726.726,0,0,1,.729.434.747.747,0,0,1-.181.87,1.076,1.076,0,0,1-.343.195c-.575.189-1.154.367-1.732.541a1.153,1.153,0,0,1-.387.045A.729.729,0,0,1,.027,4.8,1.717,1.717,0,0,1,0,4.462V2.682Z" transform="matrix(0.966, 0.259, -0.259, 0.966, 259.215, 389.551)" fill="#a92a0f"/><path d="M6.037,4.581a.8.8,0,0,1-.661.736.737.737,0,0,1-.531-.075A3.194,3.194,0,0,1,4.4,4.9Q2.435,3.161.488,1.4a3.065,3.065,0,0,1-.342-.342A.561.561,0,0,1,.184.27L.2.251a.725.725,0,0,1,1-.092c.106.075.209.161.308.246L5.472,3.8a5.383,5.383,0,0,1,.394.387A.6.6,0,0,1,6.037,4.581Z" transform="matrix(0.966, 0.259, -0.259, 0.966, 287.208, 291.876)" fill="#a92a0f"/><path d="M0,2.538V.994A1.965,1.965,0,0,1,.059.525.736.736,0,0,1,.846,0,.716.716,0,0,1,1.51.689v.319c0,.578.02,1.157.034,1.738a1.1,1.1,0,0,0,.02.237.3.3,0,0,0,.317.27.286.286,0,0,0,.056-.011c.178-.03.342-.1.534-.133a.729.729,0,0,1,.718.222A.753.753,0,0,1,3.156,4.4a.765.765,0,0,1-.127.1,1.523,1.523,0,0,1-.325.144c-.5.164-1,.342-1.51.475a1.353,1.353,0,0,1-.428.055.724.724,0,0,1-.722-.612A2.015,2.015,0,0,1,0,4.123C0,3.592,0,3.065,0,2.538Z" transform="matrix(0.966, 0.259, -0.259, 0.966, 298.175, 300.488)" fill="#a92a0f"/><path d="M2.905,2.663V5.011a.685.685,0,0,1-.462.685.833.833,0,0,1-.859-.1.705.705,0,0,1-.267-.51,2.393,2.393,0,0,1,0-.342V2.54a1.642,1.642,0,0,0-.038-.39A.263.263,0,0,0,1,1.921a2.548,2.548,0,0,1-.314,0,.781.781,0,0,1-.678-.871A.8.8,0,0,1,.054.859.749.749,0,0,1,.51.445C.9.3,1.307.171,1.7.041A.8.8,0,0,1,1.94,0a2.4,2.4,0,0,1,.465.041.684.684,0,0,1,.517.626v2.02Z" transform="matrix(0.966, 0.259, -0.259, 0.966, 279.258, 394.96)" fill="#a92a0f"/><path d="M2.816,2.65V4.19a2.391,2.391,0,0,1,0,.342.737.737,0,0,1-.661.685.824.824,0,0,1-.835-.589,2.467,2.467,0,0,1-.058-.547V2.619a2.538,2.538,0,0,0-.02-.343.3.3,0,0,0-.311-.291h0a2.135,2.135,0,0,1-.424-.075A.757.757,0,0,1,.041.952.618.618,0,0,1,.325.59,2.9,2.9,0,0,1,.719.407c.284-.1.572-.2.859-.294A2.3,2.3,0,0,1,1.841.035.755.755,0,0,1,2.789.53a.743.743,0,0,1,.034.189,2.992,2.992,0,0,1,0,.342C2.816,1.6,2.816,2.123,2.816,2.65Z" transform="matrix(0.966, 0.259, -0.259, 0.966, 307.912, 303.166)" fill="#a92a0f"/><path d="M2.394,2.458A2.835,2.835,0,0,1,1.483,4.7a.93.93,0,0,1-.825.284.758.758,0,0,1-.475-.257A.588.588,0,0,1,.09,4.005a3.344,3.344,0,0,1,.342-.431A1.642,1.642,0,0,0,.857,2.5,1.388,1.388,0,0,0,.57,1.61C.484,1.493.381,1.39.289,1.267A2.105,2.105,0,0,1,.076.983.543.543,0,0,1,.09.4.794.794,0,0,1,1.172.1l.051.032A1.032,1.032,0,0,1,1.38.25a2.832,2.832,0,0,1,1,2.157Z" transform="matrix(0.966, 0.259, -0.259, 0.966, 282.896, 294.665)" fill="#a92a0f"/><path d="M2.546,1.439H1.126a4.332,4.332,0,0,1-.473-.031.782.782,0,0,1-.506-.278A.639.639,0,0,1,.232.23L.281.193A1.058,1.058,0,0,1,.794,0a3.017,3.017,0,0,1,.342,0H4.015A1.958,1.958,0,0,1,4.521.06a.686.686,0,1,1-.086,1.368,3.722,3.722,0,0,1-.472.028Z" transform="matrix(0.966, 0.259, -0.259, 0.966, 278.318, 305.659)" fill="#a92a0f"/><path d="M3.59,2.322a.614.614,0,0,1-.144.462.814.814,0,0,1-.931.226,1.52,1.52,0,0,1-.4-.236C1.543,2.3.986,1.822.428,1.343A1.92,1.92,0,0,1,.113,1,.541.541,0,0,1,.2.251a.818.818,0,0,1,.91-.186,1.414,1.414,0,0,1,.4.247Q2.341,1,3.159,1.719A2.107,2.107,0,0,1,3.5,2.1.711.711,0,0,1,3.59,2.322Z" transform="matrix(0.966, 0.259, -0.259, 0.966, 280.898, 373.27)" fill="#a92a0f"/></g></g></svg>