<svg xmlns="http://www.w3.org/2000/svg" width="127.402" height="34.794" viewBox="0 0 127.402 34.794"><g transform="translate(-163.389 -607.739)"><path d="M422.474,354.666a.332.332,0,0,1,.27.384l0,.013c0,.068-.085,3.06-.085,3.06a.181.181,0,0,1-.2.152.177.177,0,0,1-.1-.049,12.224,12.224,0,0,0-8.68-2.594,12.071,12.071,0,0,0-9.745,7.513,16.762,16.762,0,0,0-.125,10.6c1.32,3.99,3.971,8.14,8.226,9.5,4.178,1.064,7.521.228,8.947-.665a13.353,13.353,0,0,0,3.647-3c.38-.161.342.247.408.532l.275,2.165c0,.361-.587.646-.948.885a18.41,18.41,0,0,1-8.549,2.659c-5.85.057-11.967-3.221-14.653-8.653a16.019,16.019,0,0,1,1.252-16.641,17.1,17.1,0,0,1,17.458-6.478C420.651,354.275,421.564,354.419,422.474,354.666Z" transform="translate(-163.871 254.918)" fill="#ae2a0f"/><path d="M438.748,373.017a12.386,12.386,0,0,1-4.577,9.137,11.2,11.2,0,0,1-12.091,1.054,16.7,16.7,0,0,1-8.216-15.538,12.916,12.916,0,0,1,3.362-8.786,10.941,10.941,0,0,1,9.7-3.419c5.2.562,9.251,5.529,10.894,10.2A18.878,18.878,0,0,1,438.748,373.017Zm2.537-8.966a16.53,16.53,0,0,0-10.533-9.859,15.691,15.691,0,0,0-16.565,4.815,17.3,17.3,0,0,0-2.251,17.741,16.577,16.577,0,0,0,14.039,9.736,15.576,15.576,0,0,0,14.151-7.836,18.358,18.358,0,0,0,2.186-7.534,15.649,15.649,0,0,0-1.026-7.027" transform="translate(-151.575 254.765)" fill="#ae2a0f"/><path d="M412,370.374a19.9,19.9,0,0,1-2.792.171h-1.491c-.323,0-.494-.076-.494-.437v-3.153c0-.152.1-8.681.1-8.681,0-.7,0-1.273.057-1.9,0-.144.2-.209.437-.209,2.537.076,5.641-.19,7.779,1.9a7.688,7.688,0,0,1,1.643,8.235A6.361,6.361,0,0,1,412,370.374Zm-17.162,2.137h-7.227c-.6,0-.75-.122-.684-.5a19.02,19.02,0,0,1,.771-2.27l3.086-8.273c.3-.826.5-.779.76-.084,0,0,2.6,7,3.637,10.6.087.3-.065.543-.342.543M408,385.068a10,10,0,0,1-.788-3.457v-8.235c0-.418-.068-.948.427-1.005a26.19,26.19,0,0,1,2.64.065c2.042.125,3.278,2.089,4.256,3.609l3.639,5.242c1.567,2.034,2.991,4.549,5,5.831a5.336,5.336,0,0,0,6.173-.123c.429-.4.95-.883.95-1.491a.4.4,0,0,0-.465-.247,5.228,5.228,0,0,1-1.578.95,3.8,3.8,0,0,1-3.7-1.586c-2.972-3.8-5.935-8-8.547-12.148-.152-.228-.389-.551-.142-.788a11.032,11.032,0,0,0,3.533-3.069c2.108-2.629,2.04-6.649.53-9.5-1.747-3.257-5.365-4.454-8.833-4.558h-9.118c-.256,0-.237.171-.1.256a3.152,3.152,0,0,1,1.738,2.365,53.721,53.721,0,0,1,.294,5.5v14.341c0,2.023-.15,4.321-.237,5.508a6.75,6.75,0,0,1-.256,1.616c-.087.266-.239.38-.41,0-.475-1.236-1.377-3.8-2.089-5.614l-3.371-9.213L392.1,354.057c-.3-.948-.437-.948-.6-.579l-1.32,3.7L382.3,377.688s-.948,2.46-2.849,6.649a3.4,3.4,0,0,1-.75,1c-.1.095-.161.218,0,.218h3.476c.1,0,.285,0,.285-.161a2.4,2.4,0,0,1-.057-1.595l3.371-9.318c.2-.437.76-.57,1.548-.541h7.922a.862.862,0,0,1,.7.4q1.524,4.274,2.849,8.547a3.016,3.016,0,0,1,0,2.526c0,.114,0,.18.142.19h8.824c.152,0,.37-.209.228-.579" transform="translate(-186.991 254.491)" fill="#ae2a0f"/><path d="M388.908,366.938a6.359,6.359,0,0,1-1.9,2.659c-1.681,1.472-4.294,1.8-6.459,1.844a21.931,21.931,0,0,1-3.609-.125.747.747,0,0,1-.484-.693V361.8c0-1.785,0-3.8.2-5.945,0-.313.247-.4.465-.456,3.5.087,7.306-.38,9.965,2.376A8.543,8.543,0,0,1,388.908,366.938Zm2.365-8.786c-2.849-4.045-8.015-4.292-12.434-4.273h-7.094c-.5,0-.437.161-.247.275.627.467,1.369.9,1.445,1.9.266,3.229.285,6.287.275,9.316v14.911c0,3.126-.8,4.133-.817,4.237s-.123.389.076.408h4.294c.228,0,.258-.15.2-.283a15.663,15.663,0,0,1-.513-4.418v-5.7c0-.722,0-1.271.4-1.339,4.824.144,11.4.541,14.588-4.254a9.359,9.359,0,0,0-.161-10.771" transform="translate(-195.051 255.192)" fill="#ae2a0f"/><path d="M372.914,359.36v1.833h-4.188V359.36Zm-6.97-1.947a6.861,6.861,0,0,0,1.339-.57,15.672,15.672,0,0,1,1.757,1.293,12.672,12.672,0,0,1-3.8,1.157l.351.95a16.641,16.641,0,0,0,2.186-.6v2.687h.948v-.321h4.161v.321h.95v-3.8h-3.7a8.635,8.635,0,0,0,3-2.716v-.847h-3.457a5.49,5.49,0,0,0,.456-.579l-1.122-.2a7.03,7.03,0,0,1-3.5,2.42l.446.809m5.994-1.605a6.886,6.886,0,0,1-2,1.831,12.756,12.756,0,0,0-1.9-1.29c.182-.125.467-.334.714-.541H371.9" transform="translate(-201.852 255.542)" fill="#ae2a0f"/><path d="M365.272,361.441h3.971v1.5h-3v4.473h1.016v-.475h5.054v.475h1.016v-4.473H370.3v-1.5h4v-.9h-4v-1.214h-1.054v1.214h-3.971Zm7.039,2.346V366.1h-5.054v-2.317h5.054" transform="translate(-201.818 261.248)" fill="#ae2a0f"/><path d="M371.679,368a6.423,6.423,0,0,1,.513.454c-.712.076-1.548.076-3.039.076.19-.256.228-.313.57-.826h2.5Zm-1.614,1.9h-2.518v.712h2.518v.817H367.13v.731h7.153v-.731h-3.24v-.817h2.849V369.9h-2.849v-.712c.361,0,1.111-.057,1.747-.114.266.3.3.361.437.522l.771-.522a11.662,11.662,0,0,0-1.483-1.369h1.73v-.731H367.13v-.5h6.649v-1.9h-7.692V368.1a5.7,5.7,0,0,1-.836,3.571l.836.646a6.439,6.439,0,0,0,1.024-4.188v-.41h1.464a3.778,3.778,0,0,1-.475.826h-.75l.133.809h2.564V370m2.763-4.691v.6h-5.7v-.6h5.7" transform="translate(-201.842 267.079)" fill="#ae2a0f"/></g></svg>