<svg xmlns="http://www.w3.org/2000/svg" width="114.453" height="13.72" viewBox="0 0 228.907 27.44">
  <defs>
    <style>
      .cls-1 {
        fill-rule: evenodd;
      }
    </style>
  </defs>
  <path id="BUY_NOW" data-name="BUY NOW" class="cls-1" d="M261.78,1142l10.782,0.04a8.292,8.292,0,0,0,8.19-8.27,8.547,8.547,0,0,0-4.025-6.96,7.964,7.964,0,0,0,1.61-4.45,7.231,7.231,0,0,0-7.351-7.31H261.78V1142Zm4.306-16.35v-6.58h4.725a3.29,3.29,0,0,1,0,6.58h-4.725Zm0,12.32v-8.36h6.195a4.18,4.18,0,0,1,0,8.36h-6.195Zm31.744-22.92h-4.305v15.47a11.709,11.709,0,1,0,23.417,0v-15.47h-4.27v15.33a7.421,7.421,0,0,1-14.842,0v-15.33Zm38.815,15.61V1142h4.271v-11.34l8.716-15.61h-4.691l-6.126,11.37-6.195-11.37h-4.656Zm47.739-9.03L398.841,1142h4.69v-26.95h-4.305v20.05l-14.282-20.05h-4.865V1142h4.305v-20.37Zm45.466-6.83a13.725,13.725,0,1,0,13.721,13.72A13.7,13.7,0,0,0,429.85,1114.8Zm0,23.14a9.435,9.435,0,1,1,9.451-9.42A9.4,9.4,0,0,1,429.85,1137.94Zm42.42-15.19,5.636,19.25h4.935l7.841-26.95h-4.725l-5.6,20.58-5.706-20.58h-4.9l-5.6,20.58-5.67-20.58h-4.761l7.946,26.95H466.6Z" transform="translate(-261.781 -1114.81)"/>
</svg>
