<svg xmlns="http://www.w3.org/2000/svg" width="164.047" height="13.735" viewBox="0 0 328.094 27.47">
  <defs>
    <style>
      .cls-1 {
        fill-rule: evenodd;
      }
    </style>
  </defs>
  <path id="ONLINE_SHOP" data-name="ONLINE SHOP" class="cls-1" d="M225.539,1241.02a13.72,13.72,0,1,0,13.722,13.72A13.694,13.694,0,0,0,225.539,1241.02Zm0,23.13a9.43,9.43,0,1,1,9.451-9.41A9.4,9.4,0,0,1,225.539,1264.15Zm29.924-16.31,14.457,20.37h4.69v-26.95h-4.305v20.06l-14.282-20.06h-4.865v26.95h4.305v-20.37Zm32.444-6.58v26.95h16.662v-4.02H292.213v-22.93h-4.306Zm32.865,0v26.95h-4.305v-26.95h4.305Zm17.605,6.58,14.457,20.37h4.69v-26.95h-4.305v20.06l-14.282-20.06h-4.865v26.95h4.305v-20.37Zm32.445-6.58v26.95h16.836v-4.02H375.127v-7.28h10.886v-4.03H375.127v-7.59h12.531v-4.03H370.822Zm55.3,27.2c5.216,0,9.031-3.15,9.031-7.91a7.465,7.465,0,0,0-5.04-7.46c-1.786-.77-3.536-1.29-5.111-1.89-1.3-.45-2.835-1.22-2.835-2.87,0-1.82,1.575-3.01,3.64-3.01a4.641,4.641,0,0,1,3.816,2.21l3.71-2.28c-1.61-2.17-3.745-4.23-7.491-4.23-4.445,0-7.981,2.83-7.981,7.35,0,3.29,2.206,5.63,5.111,6.68,1.68,0.63,2.66.91,4.13,1.47,2.871,1.05,3.886,2.56,3.781,4.27-0.21,2.07-2.2,3.33-4.586,3.33a5.645,5.645,0,0,1-5.215-3.4l-3.851,2A9.877,9.877,0,0,0,426.122,1268.46Zm40.076-11.55v11.3h4.271v-26.95H466.2v11.62H451.532v-11.62h-4.306v26.95h4.306v-11.3H466.2Zm29.89-15.89a13.72,13.72,0,1,0,13.721,13.72A13.7,13.7,0,0,0,496.088,1241.02Zm0,23.13a9.43,9.43,0,1,1,9.451-9.41A9.395,9.395,0,0,1,496.088,1264.15Zm35.944-22.89H521.706v26.95h4.3V1257.4h6.021A8.072,8.072,0,0,0,532.032,1241.26Zm-0.175,4.03a4.049,4.049,0,0,1,0,8.08h-5.846v-8.08h5.846Z" transform="translate(-211.812 -1241)"/>
</svg>
