<svg xmlns="http://www.w3.org/2000/svg" width="68.344" height="13.715" viewBox="0 0 136.688 27.43">
  <defs>
    <style>
      .cls-1 {
        fill-rule: evenodd;
      }
    </style>
  </defs>
  <path id="SHARE" class="cls-1" d="M315.9,7869.13c5.216,0,9.031-3.15,9.031-7.91a7.465,7.465,0,0,0-5.04-7.46c-1.786-.77-3.536-1.29-5.111-1.89-1.3-.45-2.835-1.22-2.835-2.87,0-1.82,1.575-3.01,3.64-3.01a4.642,4.642,0,0,1,3.816,2.21l3.71-2.28c-1.61-2.17-3.745-4.23-7.491-4.23-4.445,0-7.981,2.83-7.981,7.35,0,3.29,2.206,5.63,5.111,6.68,1.68,0.63,2.66.91,4.13,1.47,2.871,1.05,3.886,2.56,3.781,4.27-0.21,2.07-2.206,3.33-4.586,3.33a5.645,5.645,0,0,1-5.215-3.4l-3.851,2A9.877,9.877,0,0,0,315.9,7869.13Zm36.608-11.55v11.3h4.27v-26.95h-4.27v11.62H337.842v-11.62h-4.305v26.95h4.305v-11.3h14.667Zm33.824,11.3h4.69l-11.131-26.95h-4.48l-11.062,26.95h4.761l2.24-5.49h12.707ZM373,7859.36l4.656-11.44,4.725,11.44H373Zm45.971,9.52-7.421-11.27a8.1,8.1,0,0,0-2.625-15.68H398.594v26.95H402.9v-10.81h3.815l7.141,10.81h5.111ZM402.9,7845.96h5.845a4.049,4.049,0,0,1,0,8.08H402.9v-8.08Zm23.957-4.03v26.95h16.837v-4.02H431.162v-7.28h10.886v-4.03H431.162v-7.59h12.532v-4.03H426.857Z" transform="translate(-307 -7841.69)"/>
</svg>
