<svg xmlns="http://www.w3.org/2000/svg" width="112.75" height="13.719" viewBox="0 0 112.75 13.719">
  <defs>
    <style>
      .cls-1 {
        fill-rule: evenodd;
      }
    </style>
  </defs>
  <path id="_PLAYLISTS" data-name="    PLAYLISTS" class="cls-1" d="M77.256,454.516H72.093v13.476h2.153v-5.408h3.01A4.035,4.035,0,0,0,77.256,454.516Zm-0.087,2.012a2.026,2.026,0,0,1,0,4.043H74.246v-4.043h2.923Zm8.93-2.012v13.476h8.331v-2.013H88.251V454.516H86.1Zm23.637,13.476h2.345l-5.566-13.476h-2.24l-5.531,13.476h2.38l1.12-2.748H108.6Zm-6.669-4.76,2.328-5.723,2.363,5.723h-4.691Zm15.185-.91v5.67h2.135v-5.67l4.358-7.806H122.4l-3.063,5.688-3.1-5.688h-2.327Zm10.764-7.806v13.476h8.331v-2.013h-6.179V454.516h-2.152Zm15.387,0v13.476H142.25V454.516H144.4Zm9.629,13.6c2.608,0,4.516-1.575,4.516-3.956a3.73,3.73,0,0,0-2.521-3.728c-0.892-.385-1.767-0.647-2.555-0.945a1.708,1.708,0,0,1-1.418-1.435,1.619,1.619,0,0,1,1.821-1.5,2.322,2.322,0,0,1,1.907,1.1l1.856-1.138a4.458,4.458,0,0,0-3.746-2.118,3.691,3.691,0,0,0-3.99,3.676,3.559,3.559,0,0,0,2.555,3.342c0.84,0.316,1.33.456,2.065,0.736,1.435,0.525,1.943,1.277,1.89,2.135a2.084,2.084,0,0,1-2.292,1.662,2.82,2.82,0,0,1-2.608-1.7l-1.925,1A4.936,4.936,0,0,0,154.031,468.115Zm12.015-11.587v11.464h2.136V456.528h3.4v-2.012h-8.943v2.012h3.412Zm14.28,11.587c2.608,0,4.516-1.575,4.516-3.956a3.73,3.73,0,0,0-2.52-3.728c-0.893-.385-1.768-0.647-2.556-0.945a1.707,1.707,0,0,1-1.417-1.435,1.618,1.618,0,0,1,1.82-1.5,2.325,2.325,0,0,1,1.908,1.1l1.855-1.138a4.457,4.457,0,0,0-3.746-2.118,3.692,3.692,0,0,0-3.99,3.676,3.561,3.561,0,0,0,2.555,3.342c0.84,0.316,1.33.456,2.065,0.736,1.436,0.525,1.943,1.277,1.891,2.135a2.085,2.085,0,0,1-2.293,1.662,2.821,2.821,0,0,1-2.608-1.7l-1.925,1A4.938,4.938,0,0,0,180.326,468.115Z" transform="translate(-72.094 -454.406)"/>
</svg>
