<svg xmlns="http://www.w3.org/2000/svg" width="61.656" height="13.719" viewBox="0 0 61.656 13.719">
  <defs>
    <style>
      .cls-1 {
        fill-rule: evenodd;
      }
    </style>
  </defs>
  <path id="_NEWS" data-name="  NEWS" class="cls-1" d="M74.246,337.806l7.228,10.186H83.82V334.516H81.667v10.028l-7.141-10.028H72.093v13.476h2.153V337.806Zm15.536-3.29v13.476H98.2v-2.013H91.935v-3.64h5.443v-2.013H91.935v-3.8H98.2v-2.012H89.782Zm21.979,3.85,2.818,9.626h2.468l3.92-13.476H118.6l-2.8,10.291-2.853-10.291H110.5l-2.8,10.291-2.836-10.291h-2.38l3.973,13.476h2.468Zm17.472,9.749c2.608,0,4.515-1.575,4.515-3.956a3.73,3.73,0,0,0-2.52-3.728c-0.893-.385-1.768-0.647-2.555-0.945a1.707,1.707,0,0,1-1.418-1.435,1.618,1.618,0,0,1,1.82-1.5,2.323,2.323,0,0,1,1.908,1.1l1.855-1.138a4.457,4.457,0,0,0-3.745-2.118,3.692,3.692,0,0,0-3.991,3.676,3.56,3.56,0,0,0,2.556,3.342c0.84,0.316,1.33.456,2.065,0.736,1.435,0.525,1.942,1.277,1.89,2.135a2.085,2.085,0,0,1-2.293,1.662,2.822,2.822,0,0,1-2.608-1.7l-1.925,1A4.938,4.938,0,0,0,129.233,348.115Z" transform="translate(-72.094 -334.406)"/>
</svg>
