<svg xmlns="http://www.w3.org/2000/svg" width="40.719" height="13.719" viewBox="0 0 40.719 13.719">
  <defs>
    <style>
      .cls-1 {
        fill-rule: evenodd;
      }
    </style>
  </defs>
  <path id="TOP" class="cls-1" d="M74.719,216.528v11.464h2.135V216.528h3.4v-2.012H71.306v2.012h3.413Zm16.091-2.135a6.861,6.861,0,1,0,6.861,6.861A6.85,6.85,0,0,0,90.81,214.393Zm0,11.569a4.717,4.717,0,1,1,4.725-4.708A4.7,4.7,0,0,1,90.81,225.962Zm17.284-11.446h-5.163v13.476h2.153v-5.408h3.01A4.035,4.035,0,0,0,108.094,214.516Zm-0.087,2.012a2.026,2.026,0,0,1,0,4.043h-2.923v-4.043h2.923Z" transform="translate(-71.313 -214.406)"/>
</svg>
