<svg xmlns="http://www.w3.org/2000/svg" width="246.25" height="23.5" viewBox="0 0 246.25 23.5">
  <defs>
    <style>
      .cls-1 {
        fill-rule: evenodd;
      }
    </style>
  </defs>
  <path id="LIVE_REPORT" data-name="LIVE REPORT" class="cls-1" d="M309.485,234.164v23.1h14.279v-3.45H313.175V234.164h-3.69Zm26.432,0v23.1h-3.69v-23.1h3.69Zm7.5,0,9.57,23.1h3.33l9.509-23.1H361.75l-7.08,17.609-7.2-17.609h-4.05Zm29.973,0v23.1h14.429v-3.45H377.083v-6.24h9.329v-3.449h-9.329v-6.51h10.739v-3.45H373.393Zm55.289,23.1-6.36-9.66a6.943,6.943,0,0,0-2.25-13.439h-8.85v23.1h3.69v-9.27h3.27l6.12,9.27h4.38Zm-13.77-19.649h5.01a3.473,3.473,0,0,1,0,6.93h-5.01v-6.93ZM437,234.164v23.1h14.43v-3.45h-10.74v-6.24h9.33v-3.449h-9.33v-6.51h10.74v-3.45H437Zm32.565,0h-8.85v23.1h3.69v-9.27h5.16A6.917,6.917,0,0,0,469.566,234.164Zm-0.15,3.45a3.473,3.473,0,0,1,0,6.93h-5.01v-6.93h5.01Zm26.325-3.66a11.76,11.76,0,1,0,11.759,11.76A11.741,11.741,0,0,0,495.741,233.954Zm0,19.829a8.085,8.085,0,1,1,8.1-8.069A8.053,8.053,0,0,1,495.741,253.783Zm38.294,3.48-6.36-9.66a6.943,6.943,0,0,0-2.25-13.439h-8.849v23.1h3.69v-9.27h3.269l6.12,9.27h4.38Zm-13.769-19.649h5.009a3.473,3.473,0,0,1,0,6.93h-5.009v-6.93Zm26.018,0v19.649h3.66V237.614h5.82v-3.45H540.435v3.45h5.849Z" transform="translate(-309.5 -233.969)"/>
</svg>
