<svg xmlns="http://www.w3.org/2000/svg" width="261" height="14" viewBox="0 0 523 27">
  <defs>
    <style>
      .cls-1 {
        fill-rule: evenodd;
      }
    </style>
  </defs>
  <path id="nav_stage.svg" class="cls-1" d="M150.153,433.057v22.927h4.271V433.057h6.79v-4.025H143.328v4.025h6.825Zm39.758,11.621v11.306h4.27V429.032h-4.27v11.621H175.244V429.032h-4.305v26.952h4.305V444.678h14.667Zm16.2-15.646v26.952h16.836v-4.025H210.412v-7.281H221.3v-4.025H210.412v-7.6h12.531v-4.025H206.107Zm44.134,0v26.952h4.341V444.678h10.851v-4.025H254.582v-7.6h12.5v-4.025H250.241Zm26.1,23.207v3.745h15.087v-3.745h-5.461V428.927l-9.626,4.935v4.025l5.426-2.625v16.977H276.34Zm45.082,3.745L314,444.713a8.1,8.1,0,0,0-2.626-15.681H301.05v26.952h4.306V445.168h3.815l7.141,10.816h5.11Zm-16.066-22.927H311.2a4.052,4.052,0,0,1,0,8.086h-5.845v-8.086Zm32.809,23.172c5.215,0,9.031-3.15,9.031-8.05,0-3.151-1.61-5.846-5.251-7.351-1.785-.77-3.325-1.26-4.9-1.855-1.3-.455-2.835-1.226-2.835-2.871,0-1.82,1.575-3.08,3.64-3.08a4.614,4.614,0,0,1,3.815,2.275l3.711-2.275c-1.61-2.17-3.746-4.235-7.491-4.235-4.446,0-7.981,2.835-7.981,7.35,0,3.291,2.2,5.636,5.111,6.686,1.68,0.63,2.66.91,4.13,1.47,2.87,1.05,3.78,2.345,3.78,4.061,0,2.1-1.925,3.64-4.585,3.64a5.724,5.724,0,0,1-5.216-3.5l-3.85,1.995A9.877,9.877,0,0,0,338.165,456.229ZM362.2,433.057v22.927h4.27V433.057h6.791v-4.025H355.37v4.025H362.2Zm42.734,0v22.927h4.27V433.057h6.791v-4.025H398.1v4.025h6.826Zm38.025,22.927h4.69l-11.131-26.952h-4.48l-11.062,26.952h4.761l2.24-5.5H440.68Zm-13.337-9.521,4.656-11.446L439,446.463h-9.381Zm42.715,9.556h5.356l-12.567-13.931,10.256-13.056h-5l-9.1,11.586V429.032h-4.306v26.987h4.306V443.768Zm14.744-26.987v26.952h16.836v-4.025H491.382v-7.281h10.886v-4.025H491.382v-7.6h12.531v-4.025H487.077Zm51.8,27.2c5.215,0,9.031-3.15,9.031-8.05,0-3.151-1.61-5.846-5.251-7.351-1.785-.77-3.325-1.26-4.9-1.855-1.295-.455-2.836-1.226-2.836-2.871,0-1.82,1.576-3.08,3.641-3.08a4.614,4.614,0,0,1,3.815,2.275l3.711-2.275c-1.611-2.17-3.746-4.235-7.491-4.235-4.446,0-7.981,2.835-7.981,7.35,0,3.291,2.205,5.636,5.11,6.686,1.681,0.63,2.661.91,4.131,1.47,2.87,1.05,3.78,2.345,3.78,4.061,0,2.1-1.925,3.64-4.585,3.64a5.723,5.723,0,0,1-5.216-3.5l-3.85,1.995A9.876,9.876,0,0,0,538.877,456.229Zm24.03-23.172v22.927h4.271V433.057h6.791v-4.025H556.082v4.025h6.825Zm38.025,22.927h4.691l-11.131-26.952h-4.481L578.95,455.984h4.761l2.24-5.5h12.706ZM587.6,446.463l4.656-11.446,4.725,11.446H587.6Zm38.462,9.766a13.67,13.67,0,0,0,11.761-6.685v-8.961H626.163v4.025h7.386v3.606a9.178,9.178,0,0,1-7.491,3.71,9.434,9.434,0,0,1,0-18.867,9.628,9.628,0,0,1,6.721,2.8l3.01-3.045a13.824,13.824,0,0,0-9.731-4.025A13.721,13.721,0,1,0,626.058,456.229Zm22.965-27.2v26.952H665.86v-4.025H653.329v-7.281h10.886v-4.025H653.329v-7.6H665.86v-4.025H649.023Z" transform="translate(-143.312 -428.781)"/>
</svg>
