<svg xmlns="http://www.w3.org/2000/svg" width="454.907" height="23.531" viewBox="0 0 454.907 23.531">
  <defs>
    <style>
      .cls-1 {
        fill-rule: evenodd;
      }
    </style>
  </defs>
  <path id="INSIDE_THE_F1RST_TAKE" data-name="INSIDE THE F1RST TAKE" class="cls-1" d="M150.487,196.713v23.1H146.8v-23.1h3.689Zm13.9,5.64,12.39,17.459h4.02v-23.1h-3.69V213.9l-12.24-17.189H160.7v23.1h3.689V202.353Zm33.045,17.669c4.47,0,7.74-2.7,7.74-6.9,0-2.7-1.38-5.01-4.5-6.3-1.53-.66-2.85-1.08-4.2-1.59-1.11-.39-2.43-1.05-2.43-2.459,0-1.56,1.35-2.64,3.12-2.64a3.955,3.955,0,0,1,3.27,1.95l3.18-1.95c-1.38-1.86-3.21-3.63-6.42-3.63-3.81,0-6.84,2.43-6.84,6.3a6.1,6.1,0,0,0,4.38,5.729c1.44,0.54,2.28.78,3.54,1.26,2.46,0.9,3.24,2.01,3.24,3.48,0,1.8-1.65,3.12-3.93,3.12a4.905,4.905,0,0,1-4.47-3l-3.3,1.71A8.465,8.465,0,0,0,197.431,220.022Zm20.346-23.309v23.1h-3.69v-23.1h3.69Zm10.209,23.1h7.05a11.55,11.55,0,0,0,0-23.1h-7.05v23.1Zm3.69-3.45v-16.2h3.27a8.1,8.1,0,0,1,0,16.2h-3.27Zm23.994-19.649v23.1H270.1v-3.45H259.36v-6.24h9.329v-3.45H259.36v-6.509H270.1v-3.45H255.67ZM298,200.163v19.649h3.66V200.163h5.82v-3.45h-15.33v3.45H298Zm34.13,9.959v9.69h3.66v-23.1h-3.66v9.959H319.56v-9.959h-3.69v23.1h3.69v-9.69h12.569Zm13.936-13.409v23.1h14.429v-3.45H349.755v-6.24h9.329v-3.45h-9.329v-6.509h10.739v-3.45H346.065Zm37.829,0v23.1h3.72v-9.69h9.3v-3.45h-9.3v-6.509h10.71v-3.45h-14.43ZM406.316,216.6v3.21h12.93V216.6h-4.68V196.623l-8.25,4.23V204.3l4.65-2.249V216.6h-4.65Zm38.693,3.21-6.359-9.66a6.943,6.943,0,0,0-2.25-13.439h-8.85v23.1h3.69v-9.27h3.27l6.12,9.27h4.379ZM431.24,200.163h5.01a3.472,3.472,0,0,1,0,6.929h-5.01v-6.929Zm28.179,19.859c4.47,0,7.739-2.7,7.739-6.9,0-2.7-1.38-5.01-4.5-6.3-1.53-.66-2.85-1.08-4.2-1.59-1.11-.39-2.43-1.05-2.43-2.459,0-1.56,1.35-2.64,3.12-2.64a3.955,3.955,0,0,1,3.27,1.95l3.179-1.95c-1.379-1.86-3.209-3.63-6.419-3.63-3.81,0-6.84,2.43-6.84,6.3a6.1,6.1,0,0,0,4.38,5.729c1.44,0.54,2.28.78,3.54,1.26,2.46,0.9,3.24,2.01,3.24,3.48,0,1.8-1.65,3.12-3.93,3.12a4.905,4.905,0,0,1-4.47-3l-3.3,1.71A8.465,8.465,0,0,0,459.419,220.022Zm20.652-19.859v19.649h3.66V200.163h5.819v-3.45H474.221v3.45h5.85Zm36.629,0v19.649h3.66V200.163h5.82v-3.45H510.85v3.45h5.85Zm32.666,19.649h4.02l-9.54-23.1h-3.839l-9.48,23.1h4.08l1.92-4.71h10.889Zm-11.429-8.16,3.989-9.809,4.05,9.809h-8.039Zm36.662,8.19h4.59l-10.77-11.94,8.79-11.189h-4.29l-7.8,9.929v-9.929H561.43v23.129h3.689v-10.5Zm12.69-23.129v23.1h14.43v-3.45h-10.74v-6.24h9.33v-3.45h-9.33v-6.509h10.74v-3.45h-14.43Z" transform="translate(-146.812 -196.5)"/>
</svg>
