<svg xmlns="http://www.w3.org/2000/svg" width="79.032" height="13.719" viewBox="0 0 79.032 13.719">
  <defs>
    <style>
      .cls-1 {
        fill-rule: evenodd;
      }
    </style>
  </defs>
  <path id="_GOODS" data-name="   GOODS" class="cls-1" d="M78.254,408.115a6.834,6.834,0,0,0,5.881-3.343v-4.481H78.306V402.3H82v1.8a4.591,4.591,0,0,1-3.745,1.855,4.717,4.717,0,0,1,0-9.434,4.812,4.812,0,0,1,3.36,1.4l1.505-1.523a6.91,6.91,0,0,0-4.865-2.013A6.861,6.861,0,0,0,78.254,408.115Zm17.579-13.722a6.861,6.861,0,1,0,6.861,6.861A6.85,6.85,0,0,0,95.832,394.393Zm0,11.569a4.717,4.717,0,1,1,4.726-4.708A4.7,4.7,0,0,1,95.832,405.962Zm18.3-11.569a6.861,6.861,0,1,0,6.861,6.861A6.849,6.849,0,0,0,114.13,394.393Zm0,11.569a4.717,4.717,0,1,1,4.726-4.708A4.7,4.7,0,0,1,114.13,405.962Zm12.122,2.03h4.113a6.738,6.738,0,1,0,0-13.476h-4.113v13.476Zm2.152-2.013v-9.451h1.908a4.726,4.726,0,0,1,0,9.451H128.4Zm17.527,2.136c2.607,0,4.515-1.575,4.515-3.956a3.73,3.73,0,0,0-2.52-3.728c-0.893-.385-1.768-0.647-2.555-0.945a1.707,1.707,0,0,1-1.418-1.435,1.618,1.618,0,0,1,1.82-1.5,2.323,2.323,0,0,1,1.908,1.1l1.855-1.138a4.457,4.457,0,0,0-3.745-2.118,3.692,3.692,0,0,0-3.991,3.676,3.56,3.56,0,0,0,2.556,3.342c0.84,0.316,1.33.456,2.065,0.736,1.435,0.525,1.942,1.277,1.89,2.135a2.085,2.085,0,0,1-2.293,1.662,2.822,2.822,0,0,1-2.608-1.7l-1.925,1A4.938,4.938,0,0,0,145.931,408.115Z" transform="translate(-71.406 -394.406)"/>
</svg>
