<svg xmlns="http://www.w3.org/2000/svg" width="232" height="14" viewBox="0 0 232 14">
  <defs>
    <style>
      .cls-1 {
        fill-rule: evenodd;
      }
    </style>
  </defs>
  <path id="_THE_F1RST_TAKE_FES" data-name=" THE F1RST TAKE FES" class="cls-1" d="M74.719,276.528v11.464h2.135V276.528h3.4v-2.012H71.306v2.012h3.413ZM94.6,282.339v5.653h2.135V274.516H94.6v5.81H87.264v-5.81H85.111v13.476h2.153v-5.653H94.6Zm8.1-7.823v13.476h8.419v-2.013h-6.266v-3.64h5.443v-2.013h-5.443v-3.8h6.266v-2.012H102.7Zm22.768,0v13.476h2.17v-5.653h5.425v-2.013h-5.425v-3.8h6.248v-2.012h-8.418Zm13.049,11.6v1.873h7.544v-1.873h-2.731V274.463l-4.813,2.468v2.013l2.713-1.313v8.488h-2.713Zm22.541,1.873-3.71-5.635a4.051,4.051,0,0,0-1.313-7.841h-5.163v13.476h2.153v-5.408h1.908l3.57,5.408h2.555Zm-8.033-11.464h2.923a2.026,2.026,0,0,1,0,4.043H153.02v-4.043Zm16.405,11.587c2.607,0,4.515-1.575,4.515-3.956a3.73,3.73,0,0,0-2.52-3.728c-0.893-.385-1.768-0.647-2.556-0.945a1.707,1.707,0,0,1-1.417-1.435,1.618,1.618,0,0,1,1.82-1.5,2.323,2.323,0,0,1,1.908,1.1l1.855-1.138a4.457,4.457,0,0,0-3.745-2.118,3.692,3.692,0,0,0-3.991,3.676,3.561,3.561,0,0,0,2.555,3.342c0.84,0.316,1.331.456,2.066,0.736,1.435,0.525,1.942,1.277,1.89,2.135a2.085,2.085,0,0,1-2.293,1.662,2.821,2.821,0,0,1-2.608-1.7l-1.925,1A4.938,4.938,0,0,0,169.425,288.115Zm12.015-11.587v11.464h2.135V276.528h3.4v-2.012h-8.943v2.012h3.413Zm22.067,0v11.464h2.135V276.528h3.4v-2.012h-8.944v2.012h3.413Zm19.013,11.464h2.345L219.3,274.516h-2.24l-5.531,13.476h2.381l1.12-2.748h6.353Zm-6.669-4.76,2.328-5.723,2.363,5.723h-4.691Zm21.358,4.778h2.678l-6.284-6.966,5.128-6.528h-2.5l-4.551,5.793v-5.793h-2.153V288.01h2.153v-6.126Zm7.372-13.494v13.476H253v-2.013h-6.266v-3.64h5.443v-2.013h-5.443v-3.8H253v-2.012h-8.418Zm22.767,0v13.476h2.17v-5.653h5.426v-2.013h-5.426v-3.8h6.248v-2.012h-8.418Zm13.365,0v13.476h8.418v-2.013h-6.266v-3.64h5.443v-2.013h-5.443v-3.8h6.266v-2.012h-8.418Zm17.5,13.6c2.608,0,4.516-1.575,4.516-3.956a3.73,3.73,0,0,0-2.52-3.728c-0.893-.385-1.768-0.647-2.556-0.945a1.707,1.707,0,0,1-1.417-1.435,1.618,1.618,0,0,1,1.82-1.5,2.325,2.325,0,0,1,1.908,1.1l1.855-1.138a4.457,4.457,0,0,0-3.746-2.118,3.692,3.692,0,0,0-3.99,3.676,3.561,3.561,0,0,0,2.555,3.342c0.84,0.316,1.33.456,2.065,0.736,1.436,0.525,1.943,1.277,1.891,2.135a2.085,2.085,0,0,1-2.293,1.662,2.821,2.821,0,0,1-2.608-1.7l-1.925,1A4.938,4.938,0,0,0,298.209,288.115Z" transform="translate(-71.313 -274.406)"/>
</svg>
