<svg xmlns="http://www.w3.org/2000/svg" width="7.437" height="49.5" viewBox="0 0 7.437 49.5">
  <defs>
    <style>
      .cls-1 {
        fill: #fff;
        fill-rule: evenodd;
      }
    </style>
  </defs>
  <path id="SCROLL" class="cls-1" d="M351.617,665.2a2.212,2.212,0,0,0,2.147,2.45,2.024,2.024,0,0,0,2.023-1.367c0.209-.485.351-0.96,0.513-1.387a0.926,0.926,0,0,1,.779-0.77,0.879,0.879,0,0,1,.817.988,1.261,1.261,0,0,1-.6,1.036l0.618,1.007a2.419,2.419,0,0,0,1.149-2.033,2,2,0,0,0-2-2.166,1.933,1.933,0,0,0-1.814,1.387c-0.171.456-.247,0.722-0.4,1.121a1.207,1.207,0,0,1-1.159,1.026,1.132,1.132,0,0,1-.9-1.245,1.53,1.53,0,0,1,.921-1.415l-0.541-1.045A2.68,2.68,0,0,0,351.617,665.2Zm1.168,9.31a2.56,2.56,0,0,1,5.12,0,2.61,2.61,0,0,1-.76,1.823l0.827,0.817a3.753,3.753,0,0,0,1.092-2.64,3.724,3.724,0,1,0-7.447,0,3.753,3.753,0,0,0,1.092,2.64l0.827-.817A2.6,2.6,0,0,1,352.785,674.512Zm-1.1,11.494,3.058-2.014A2.2,2.2,0,0,0,359,683.28v-2.8h-7.313v1.168h2.935v1.036l-2.935,1.937v1.387Zm6.221-4.36v1.587a1.1,1.1,0,0,1-2.194,0v-1.587h2.194Zm1.159,11.029a3.724,3.724,0,1,0-3.723,3.724A3.717,3.717,0,0,0,359.064,692.675Zm-6.279,0a2.56,2.56,0,1,1,2.556,2.565A2.55,2.55,0,0,1,352.785,692.675ZM359,699.82h-7.313v4.521h1.092v-3.353H359V699.82Zm0,7.942h-7.313v4.521h1.092V708.93H359v-1.168Z" transform="translate(-351.625 -662.781)"/>
</svg>
