<svg xmlns="http://www.w3.org/2000/svg" width="127.469" height="13.87" viewBox="0 0 127.469 13.87">
  <defs>
    <style>
      .cls-1 {
        fill-rule: evenodd;
      }
    </style>
  </defs>
  <path id="OKAMOTO_S" data-name="OKAMOTO’S" class="cls-1" d="M317.427,4824.56a6.86,6.86,0,1,0,6.86,6.86A6.851,6.851,0,0,0,317.427,4824.56Zm0,11.57a4.72,4.72,0,1,1,4.725-4.71A4.7,4.7,0,0,1,317.427,4836.13Zm18.93,2.04h2.677l-6.283-6.96,5.128-6.53h-2.5l-4.55,5.79v-5.79h-2.153v13.49h2.153v-6.12Zm16.9-.01H355.6l-5.566-13.48h-2.24l-5.531,13.48h2.381l1.12-2.75h6.353Zm-6.669-4.76,2.328-5.73,2.363,5.73h-4.691Zm24.858-5.25v10.01H373.6v-13.48h-2.328l-4.778,6.76-4.795-6.76h-2.311v13.48h2.153v-10.03l4.953,6.98Zm13.408-3.59a6.86,6.86,0,1,0,6.861,6.86A6.851,6.851,0,0,0,384.852,4824.56Zm0,11.57a4.72,4.72,0,1,1,4.725-4.71A4.7,4.7,0,0,1,384.852,4836.13Zm13.107-9.44v11.47h2.135v-11.47h3.395v-2.01h-8.943v2.01h3.413Zm15.216-2.13a6.86,6.86,0,1,0,6.861,6.86A6.85,6.85,0,0,0,413.175,4824.56Zm0,11.57a4.72,4.72,0,1,1,4.726-4.71A4.7,4.7,0,0,1,413.175,4836.13Zm11.234-7.18a23.663,23.663,0,0,0,1.733-4.55l-1.557.19a26.935,26.935,0,0,1-1.121,4.48Zm9.092,9.33c2.608,0,4.516-1.58,4.516-3.96a3.722,3.722,0,0,0-2.521-3.72c-0.892-.39-1.767-0.65-2.555-0.95a1.708,1.708,0,0,1-1.418-1.43,1.622,1.622,0,0,1,1.821-1.51,2.326,2.326,0,0,1,1.907,1.1l1.855-1.13a4.445,4.445,0,0,0-3.745-2.12,3.691,3.691,0,0,0-3.99,3.67,3.569,3.569,0,0,0,2.555,3.35c0.84,0.31,1.33.45,2.065,0.73,1.435,0.53,1.943,1.28,1.89,2.14a2.084,2.084,0,0,1-2.292,1.66,2.822,2.822,0,0,1-2.608-1.7l-1.925,1A4.937,4.937,0,0,0,433.5,4838.28Z" transform="translate(-310.562 -4824.41)"/>
</svg>
