<svg xmlns="http://www.w3.org/2000/svg" width="136.25" height="14.13" viewBox="0 0 136.25 14.13">
  <defs>
    <style>
      .cls-1 {
        fill-rule: evenodd;
      }
    </style>
  </defs>
  <path id="okazakitaiiku" class="cls-1" d="M311.65,4377.22a4.45,4.45,0,1,0-4.428-4.46A4.424,4.424,0,0,0,311.65,4377.22Zm0-2.01a2.44,2.44,0,1,1,2.415-2.45A2.459,2.459,0,0,1,311.65,4375.21Zm10.624,1.89v-3.95l3.937,3.95h2.853l-4.76-4.76,3.973-3.9h-2.871l-3.132,3.06v-8.4h-2.013v14h2.013Zm18.133-8.66H338.4v0.82a3.6,3.6,0,0,0-2.451-.94,4.45,4.45,0,0,0,0,8.9,3.6,3.6,0,0,0,2.451-.94v0.82h2.012v-8.66Zm-4.445,6.77a2.44,2.44,0,0,1,0-4.88A2.44,2.44,0,1,1,335.962,4375.21Zm8.781,1.89h7.386v-1.92h-3.763l3.728-6.74h-7.648v1.91h4.147Zm19.734-8.66h-2.013v0.82a3.6,3.6,0,0,0-2.45-.94,4.45,4.45,0,0,0,0,8.9,3.6,3.6,0,0,0,2.45-.94v0.82h2.013v-8.66Zm-4.446,6.77a2.44,2.44,0,0,1,0-4.88A2.44,2.44,0,1,1,360.031,4375.21Zm11.146,1.89v-3.95l3.938,3.95h2.853l-4.761-4.76,3.973-3.9h-2.87l-3.133,3.06v-8.4h-2.013v14h2.013Zm11.556-13.07a1.347,1.347,0,0,0-1.312,1.33A1.322,1.322,0,1,0,382.733,4364.03Zm-1,4.39v8.66h2.013v-8.66h-2.013Zm7.5,8.7h2.013v-6.77h1.54v-1.91h-1.54v-3.13H389.24v3.13h-1.558v1.91h1.558v6.77Zm15.777-8.68H403v0.82a3.6,3.6,0,0,0-2.45-.94,4.45,4.45,0,0,0,0,8.9,3.6,3.6,0,0,0,2.45-.94v0.82h2.013v-8.66Zm-4.446,6.77a2.44,2.44,0,0,1,0-4.88A2.44,2.44,0,1,1,400.571,4375.21Zm10.21-11.18a1.348,1.348,0,0,0-1.313,1.33,1.318,1.318,0,0,0,1.313,1.31,1.305,1.305,0,0,0,1.33-1.31A1.326,1.326,0,0,0,410.781,4364.03Zm-1,4.39v8.66H411.8v-8.66h-2.013Zm7.805-4.39a1.348,1.348,0,0,0-1.313,1.33,1.318,1.318,0,0,0,1.313,1.31,1.3,1.3,0,0,0,1.33-1.31A1.326,1.326,0,0,0,417.588,4364.03Zm-1,4.39v8.66H418.6v-8.66H416.59Zm8.765,8.68v-3.95l3.937,3.95h2.853l-4.76-4.76,3.973-3.9h-2.871l-3.132,3.06v-8.4h-2.013v14h2.013Zm14.073,0.12a3.862,3.862,0,0,0,4.043-3.99v-4.79h-2.013v4.86a2.031,2.031,0,0,1-4.06,0v-4.86h-2.013v4.79A3.862,3.862,0,0,0,439.428,4377.22Z" transform="translate(-307.219 -4363.09)"/>
</svg>
