<svg width="121" height="40" viewBox="0 0 121 40" fill="none" xmlns="http://www.w3.org/2000/svg"><path d="M20 28.9921C24.9706 28.9921 29 24.9626 29 19.9921C29 15.0215 24.9706 10.9921 20 10.9921C15.0294 10.9921 11 15.0215 11 19.9921C11 24.9626 15.0294 28.9921 20 28.9921Z" fill="white"/><path d="M27.7943 24.5L20.0082 37.9857C23.1671 37.9886 26.2708 37.1588 29.0068 35.58C31.7428 34.0012 34.0143 31.7291 35.5925 28.9928C37.1707 26.2565 37.9998 23.1525 37.9963 19.9937C37.9928 16.8349 37.1568 13.7328 35.5725 11H20L19.9869 11.0078C21.5682 11.0026 23.1228 11.4147 24.4938 12.2024C25.8649 12.9901 27.0039 14.1255 27.7958 15.4941C28.5878 16.8627 29.0046 18.416 29.0044 19.9973C29.0041 21.5785 28.5867 23.1317 27.7943 24.5V24.5Z" fill="url(#paint0_linear_705_402)"/><path d="M12.2057 24.5L4.41984 11.015C2.83814 13.7492 2.00501 16.852 2.00439 20.0108C2.00378 23.1695 2.8357 26.2727 4.41633 29.0075C5.99697 31.7423 8.27048 34.0123 11.0078 35.5886C13.7451 37.1649 16.8495 37.992 20.0083 37.9864L27.7943 24.5V24.485C27.0082 25.857 25.874 26.9973 24.5063 27.7908C23.1385 28.5844 21.5856 29.003 20.0044 29.0045C18.4231 29.0061 16.8694 28.5904 15.5002 27.7995C14.1309 27.0086 12.9945 25.8705 12.2057 24.5V24.5Z" fill="url(#paint1_linear_705_402)"/><path d="M20 27.125C23.935 27.125 27.125 23.935 27.125 20C27.125 16.065 23.935 12.875 20 12.875C16.065 12.875 12.875 16.065 12.875 20C12.875 23.935 16.065 27.125 20 27.125Z" fill="#1A73E8"/><path d="M20 11H35.5719C33.995 8.26296 31.7244 5.98988 28.9891 4.40983C26.2538 2.82978 23.1504 1.99859 19.9915 2C16.8327 2.00142 13.73 2.83539 10.9961 4.41789C8.2622 6.00038 5.99371 8.2755 4.41919 11.014L12.2055 24.5L12.2187 24.5074C11.4237 23.1406 11.0033 21.5882 11 20.007C10.9967 18.4258 11.4106 16.8717 12.1999 15.5015C12.9892 14.1314 14.126 12.9938 15.4955 12.2034C16.865 11.413 18.4188 10.9979 20 11V11Z" fill="url(#paint2_linear_705_402)"/><path d="M53.544 28.052C51.9453 28.052 50.618 27.5093 49.562 26.424C48.5207 25.3093 48 23.938 48 22.31C48 20.6527 48.5207 19.2813 49.562 18.196C50.618 17.1107 51.9453 16.568 53.544 16.568C54.644 16.568 55.6047 16.8467 56.426 17.404C57.2473 17.9467 57.8633 18.702 58.274 19.67L56.426 20.44C55.854 19.0907 54.8493 18.416 53.412 18.416C52.488 18.416 51.6887 18.79 51.014 19.538C50.354 20.286 50.024 21.21 50.024 22.31C50.024 23.41 50.354 24.334 51.014 25.082C51.6887 25.83 52.488 26.204 53.412 26.204C54.8933 26.204 55.9347 25.5293 56.536 24.18L58.34 24.95C57.944 25.918 57.3207 26.6807 56.47 27.238C55.634 27.7807 54.6587 28.052 53.544 28.052Z" fill="#5F6368"/><path d="M60.1101 11.948H62.1341V16.92L62.0461 18.416H62.1341C62.4421 17.888 62.9115 17.448 63.5421 17.096C64.1875 16.744 64.8548 16.568 65.5441 16.568C66.8641 16.568 67.8761 16.9493 68.5801 17.712C69.2988 18.46 69.6581 19.5307 69.6581 20.924V27.7H67.6341V21.32C67.6341 19.384 66.7761 18.416 65.0601 18.416C64.2388 18.416 63.5421 18.7607 62.9701 19.45C62.4128 20.1247 62.1341 20.9167 62.1341 21.826V27.7H60.1101V11.948Z" fill="#5F6368"/><path d="M74.058 27.7H72.034V16.92H73.97V18.68H74.058C74.2633 18.108 74.6813 17.624 75.312 17.228C75.9573 16.8173 76.588 16.612 77.204 16.612C77.7906 16.612 78.2893 16.7 78.7 16.876L78.084 18.834C77.8346 18.7313 77.4386 18.68 76.896 18.68C76.1333 18.68 75.466 18.988 74.894 19.604C74.3366 20.22 74.058 20.9387 74.058 21.76V27.7Z" fill="#5F6368"/><path d="M78.7441 22.31C78.7441 20.6527 79.2648 19.2813 80.3061 18.196C81.3621 17.1107 82.6895 16.568 84.2881 16.568C85.8868 16.568 87.2068 17.1107 88.2481 18.196C89.3041 19.2813 89.8321 20.6527 89.8321 22.31C89.8321 23.982 89.3041 25.3533 88.2481 26.424C87.2068 27.5093 85.8868 28.052 84.2881 28.052C82.6895 28.052 81.3621 27.5093 80.3061 26.424C79.2648 25.3387 78.7441 23.9673 78.7441 22.31ZM80.7681 22.31C80.7681 23.4687 81.1055 24.4073 81.7801 25.126C82.4548 25.8447 83.2908 26.204 84.2881 26.204C85.2855 26.204 86.1215 25.8447 86.7961 25.126C87.4708 24.4073 87.8081 23.4687 87.8081 22.31C87.8081 21.166 87.4708 20.2347 86.7961 19.516C86.1068 18.7827 85.2708 18.416 84.2881 18.416C83.3055 18.416 82.4695 18.7827 81.7801 19.516C81.1055 20.2347 80.7681 21.166 80.7681 22.31Z" fill="#5F6368"/><path d="M93.4798 27.7H91.4558V16.92H93.3918V18.416H93.4798C93.7878 17.888 94.2572 17.448 94.8878 17.096C95.5332 16.744 96.1712 16.568 96.8018 16.568C97.5938 16.568 98.2905 16.7513 98.8918 17.118C99.4932 17.4847 99.9332 17.9907 100.212 18.636C101.107 17.2573 102.346 16.568 103.93 16.568C105.177 16.568 106.137 16.9493 106.812 17.712C107.487 18.4747 107.824 19.56 107.824 20.968V27.7H105.8V21.276C105.8 20.264 105.617 19.538 105.25 19.098C104.883 18.6433 104.267 18.416 103.402 18.416C102.625 18.416 101.972 18.746 101.444 19.406C100.916 20.066 100.652 20.8433 100.652 21.738V27.7H98.6278V21.276C98.6278 20.264 98.4445 19.538 98.0778 19.098C97.7112 18.6433 97.0952 18.416 96.2298 18.416C95.4525 18.416 94.7998 18.746 94.2718 19.406C93.7438 20.066 93.4798 20.8433 93.4798 21.738V27.7Z" fill="#5F6368"/><path d="M115.03 28.052C113.446 28.052 112.141 27.5093 111.114 26.424C110.088 25.3387 109.574 23.9673 109.574 22.31C109.574 20.6673 110.073 19.3033 111.07 18.218C112.068 17.118 113.344 16.568 114.898 16.568C116.497 16.568 117.766 17.0887 118.704 18.13C119.658 19.1567 120.134 20.6013 120.134 22.464L120.112 22.684H111.642C111.672 23.74 112.024 24.5907 112.698 25.236C113.373 25.8813 114.18 26.204 115.118 26.204C116.409 26.204 117.421 25.5587 118.154 24.268L119.958 25.148C119.474 26.0573 118.8 26.7687 117.934 27.282C117.084 27.7953 116.116 28.052 115.03 28.052ZM111.796 21.012H117.978C117.92 20.264 117.612 19.648 117.054 19.164C116.512 18.6653 115.778 18.416 114.854 18.416C114.092 18.416 113.432 18.6507 112.874 19.12C112.332 19.5893 111.972 20.22 111.796 21.012Z" fill="#5F6368"/><defs><linearGradient id="paint0_linear_705_402" x1="18.1074" y1="36.7705" x2="33.5297" y2="10.0584" gradientUnits="userSpaceOnUse"><stop stop-color="#FCC934"/><stop offset="1" stop-color="#FBBC04"/></linearGradient><linearGradient id="paint1_linear_705_402" x1="23.1787" y1="32.2175" x2="0.405601" y2="19.0695" gradientUnits="userSpaceOnUse"><stop stop-color="#1E8E3E"/><stop offset="1" stop-color="#34A853"/></linearGradient><linearGradient id="paint2_linear_705_402" x1="4.78654" y1="13.2536" x2="35.2296" y2="13.2536" gradientUnits="userSpaceOnUse"><stop stop-color="#D93025"/><stop offset="1" stop-color="#EA4335"/></linearGradient></defs></svg>
