<svg xmlns="http://www.w3.org/2000/svg" viewBox="0 0 807 144.81"><defs><style>.cls-1{fill:#323333;}</style></defs><title>crisp_connect_logo</title><g id="圖層_2" data-name="圖層 2"><g id="text"><g id="圖層_2-2" data-name="圖層 2"><g id="圖層_1-2" data-name="圖層 1-2"><path class="cls-1" d="M48.71,27.35c-.86-7.2-6.06-11.88-14-11.88-10.57-.08-16.9,8-16.9,21.76C17.77,51.62,24.27,59,34.59,59c7.71,0,12.91-4.08,14.12-11.1l17.6.09C65,60.81,54,74.24,34.24,74.24,14.65,74.42,0,61.07,0,37.27S15,0,34.33,0C51.84,0,64.66,9.92,66.4,27.26H48.71Z"/><path class="cls-1" d="M76.37,1.08h29.9c16.21,0,26.35,9.19,26.35,24.1,0,10-4.59,17.08-12.57,20.72l15,27.56H116L102.72,48.67H93.79V73.46H76.28Zm26.09,33.81c7.8,0,12.05-3,12.05-9.71s-4.25-10-12.05-10H93.88V34.89Z"/><path class="cls-1" d="M159.67,73.38H142.16V1.08h17.51Z"/><path class="cls-1" d="M198.67,14.52c-6.76,0-10.14,2.86-10.23,6.85-.17,4.33,4,6.5,10.58,7.88l6.15,1.48c14.31,3.12,22,10.23,22.11,21.76-.09,13.69-10.75,21.93-28.78,21.93-18.2,0-29.91-8.07-30.17-25.06h16.73c.44,6.94,5.46,10.58,13.27,10.58,7,0,11.18-3,11.26-7.45-.08-4.08-3.64-6.16-11.61-8.07l-7.54-1.82c-12.48-2.86-20.2-9-20.2-20C170.15,9.14,182,.13,198.59.13c16.81,0,27.56,9.19,27.73,22.62H209.59C209.25,17.64,205.52,14.52,198.67,14.52Z"/><path class="cls-1" d="M236.29,1.08h29.82c16.21,0,26.35,10.15,26.35,25s-10.31,24.8-26.87,24.8H253.72V73.38H236.21Zm26.09,36.06c7.8,0,12.05-4.33,12.05-11s-4.25-10.92-12.05-10.92H253.8V37.27l8.58-.08Z"/><path class="cls-1" d="M370.13,27.48c-.87-7.2-6.07-11.88-14-11.88-10.58,0-16.91,8.06-16.91,21.76,0,14.39,6.5,21.76,16.82,21.76,7.71,0,12.91-4.08,14.13-11.1l17.59.09c-1.3,12.83-12.3,26.26-32.07,26.26-19.59.18-34.24-13.17-34.24-37S336.42.17,355.75.17c17.51,0,30.34,9.88,32.07,27.22Z"/><path class="cls-1" d="M429.51,74.55C410,74.55,395,61.2,395,37.36S410,.17,429.51.17,464,13.44,464,37.36,448.93,74.55,429.51,74.55Zm0-58.95c-10.4,0-16.64,7.72-16.64,21.76s6.24,21.76,16.64,21.76,16.65-7.72,16.65-21.76S440,15.6,429.51,15.6Z"/><path class="cls-1" d="M533.79,73.51H519l-28.78-41.7h-.44v41.7H472.24V1.21h15.08l28.43,41.7h.61V1.21h17.42Z"/><path class="cls-1" d="M606.26,73.51H591.43l-28.78-41.7h-.43v41.7H544.71V1.21h15.08l28.44,41.7h.6V1.21h17.43Z"/><path class="cls-1" d="M615.18,1.21h50.45V15.34H632.69V30.16H663V44.38H632.69V59.2h32.94V73.33H615.18Z"/><path class="cls-1" d="M722.58,27.48c-.87-7.2-6.07-11.88-14-11.88-10.58,0-16.9,8.06-16.9,21.76,0,14.39,6.5,21.76,16.81,21.76,7.72,0,12.92-4.08,14.13-11.1l17.6.09c-1.3,12.83-12.31,26.26-32.07,26.26-19.59,0-34.33-13.35-34.33-37.18S688.78,0,708.11,0c17.51,0,30.33,9.88,32.07,27.22Z"/><path class="cls-1" d="M745.9,1.21H807V15.34H785.07V73.42H767.82V15.34H745.89Z"/></g></g><g id="圖層_2-3" data-name="圖層 2"><g id="圖層_1-2-2" data-name="圖層 1-2"><path class="cls-1" d="M0,114.12H5v9h.12a5.18,5.18,0,0,1,5.09-3.19c3.91,0,7.23,3.07,7.23,9.23,0,5.92-3.2,9.24-7.23,9.24a5.2,5.2,0,0,1-5.09-3.2H5V138H0Zm8.76,20.25c2.49,0,3.79-2.13,3.79-5.33s-1.3-5.21-3.79-5.21S5,125.85,5,129,6.39,134.37,8.76,134.37Z"/><path class="cls-1" d="M20.72,144.2l1.19-3.67c1.77.59,3,.35,3.67-1.19l.23-.71-6.39-18.35h5.21l3.67,13.14h.24l3.67-13.14h5.33l-7,19.77a6.39,6.39,0,0,1-6.63,4.74A15,15,0,0,1,20.72,144.2Z"/><path class="cls-1" d="M70.93,108.32A16,16,0,0,0,54.7,124.14v.17a14.7,14.7,0,0,0,4.62,11.13,16.18,16.18,0,0,0,19.54,2.36l.35-.23v-7.34L78,131.29a14.06,14.06,0,0,1-3.79,2.49,9.78,9.78,0,0,1-3.67.71,9.46,9.46,0,0,1-7.1-3,10.5,10.5,0,0,1,0-14.56,9.35,9.35,0,0,1,7.1-3.08A11.7,11.7,0,0,1,78,117l1.18.94v-7.22l-.35-.24A19,19,0,0,0,70.93,108.32Z"/><path class="cls-1" d="M100.05,124a9.34,9.34,0,0,0,2-5.8,8.79,8.79,0,0,0-3.08-7c-1.78-1.54-4.86-2.36-8.88-2.36H84.19v30.66H90V128L98,139.58h7.22L96,126.79A7,7,0,0,0,100.05,124Zm-3.79-5.68c0,1.77-.59,4-5.56,4H90v-7.81h.83C95.79,114.48,96.26,116.73,96.26,118.27Z"/><rect class="cls-1" x="107.75" y="108.91" width="5.8" height="30.67"/><path class="cls-1" d="M130.6,120.75l-3-1.18c-1.77-.71-2.72-1.66-2.72-2.72a2.55,2.55,0,0,1,1-2,4,4,0,0,1,2.6-.83,2.83,2.83,0,0,1,2.13.6,5.32,5.32,0,0,1,1.66,2l.36.59,4.85-2.84-.35-.59q-3-5.33-8.53-5.33a9.55,9.55,0,0,0-6.75,2.49,7.81,7.81,0,0,0-2.72,6c0,3.55,2.13,6.27,6.39,8l2.84,1.18a13.2,13.2,0,0,1,1.78,1,4.7,4.7,0,0,1,1.18.95,4.6,4.6,0,0,1,.6,1.06,5.22,5.22,0,0,1,.23,1.3,4,4,0,0,1-3.85,4.15H128a4.4,4.4,0,0,1-3.44-1.66,5.92,5.92,0,0,1-.94-3.2l-.12-.83-5.92,1.31.12.71a11,11,0,0,0,3.19,6.75,9.6,9.6,0,0,0,6.75,2.48,9.91,9.91,0,0,0,10.19-9.59v-.47a9.57,9.57,0,0,0-1.78-5.57A14.62,14.62,0,0,0,130.6,120.75Z"/><path class="cls-1" d="M157.36,111.52a7.17,7.17,0,0,0-3.67-2.13,24.06,24.06,0,0,0-5.8-.59h-5.68v30.66H148v-12h1.3A11.14,11.14,0,0,0,157,125a8.46,8.46,0,0,0,3-6.87A8.75,8.75,0,0,0,157.36,111.52Zm-3,6.75c0,1.66-.59,4-5.33,4h-.94v-7.81h.71C153.93,114.36,154.4,116.61,154.4,118.27Z"/><path class="cls-1" d="M170.15,131.41a8.61,8.61,0,0,0,2.72,5.33,8.05,8.05,0,0,0,5.81,2.13,8.73,8.73,0,0,0,6.27-2.49,8,8,0,0,0,2.49-6.15,6.64,6.64,0,0,0-1.54-4.62,12.77,12.77,0,0,0-5-3.32l-3-1.18c-2.49-1.07-3.67-2.37-3.67-4.14a3.93,3.93,0,0,1,1.53-3.08,4.83,4.83,0,0,1,3.56-1.19,6,6,0,0,1,2.84.71,6.68,6.68,0,0,1,1.77,1.9l2.37-1.42a8,8,0,0,0-6.86-3.91,8.72,8.72,0,0,0-5.81,2,5.9,5.9,0,0,0-2.25,5c0,3,1.78,5.21,5.57,6.74l2.84,1.19c.71.35,1.42.71,2,1.06a4.94,4.94,0,0,1,1.42,1.31,6,6,0,0,1,.83,1.54,4.44,4.44,0,0,1,.24,1.77,5.46,5.46,0,0,1-5.23,5.68h-.22a5.19,5.19,0,0,1-4.5-2.14,7.31,7.31,0,0,1-1.06-3.07Z"/><polygon class="cls-1" points="217.75 138.16 229.24 138.16 229.24 135.44 220.71 135.44 220.71 110.33 217.75 110.33 217.75 138.16"/><path class="cls-1" d="M245,109.51,231.6,138.16h3.2l3.2-7.1h13.5l3.08,7.1h3.19Zm-5.8,18.82,5.69-12.43,5.44,12.43Z"/><path class="cls-1" d="M277.55,113.89a10.64,10.64,0,0,0-4.74-2.73,21.68,21.68,0,0,0-6.75-.83h-5.45v27.83h5.33a20.85,20.85,0,0,0,6.63-.71,14.46,14.46,0,0,0,4.74-2.72,13.22,13.22,0,0,0,4.5-10.31A13.68,13.68,0,0,0,277.55,113.89Zm-2.14,18.59a11.17,11.17,0,0,1-3.78,2.25,18.69,18.69,0,0,1-5.1.71h-2.84V113.06h2.73c3.9,0,7,.94,9,2.84a11.71,11.71,0,0,1,0,16.58Z"/><path class="cls-1" d="M348,114a14.4,14.4,0,0,0-20.36-.12h0l-.12.11a13.7,13.7,0,0,0-4.38,10.07,13,13,0,0,0,4.74,10.77,14.92,14.92,0,0,0,20.13-.47,13.76,13.76,0,0,0,4.26-10.18A14.48,14.48,0,0,0,348,114Zm-2.13,18.59a11.45,11.45,0,0,1-8.29,3.44,11.67,11.67,0,0,1-11.37-12V124a11.85,11.85,0,0,1,3.44-7.93,11.43,11.43,0,0,1,16.17-.17l.17.17a10.92,10.92,0,0,1,3.31,8.29,11.45,11.45,0,0,1-3.43,8.28Z"/><path class="cls-1" d="M363.86,126l1.07-.23a6.53,6.53,0,0,0,4.26-2.61,8,8,0,0,0,1.66-4.85,7.13,7.13,0,0,0-2.6-5.92c-1.54-1.31-4.27-2-7.94-2h-4.5v27.83h3v-12h1.9l8.4,12h3.68Zm-5-2.13V113.18h2.25c5.57,0,6.87,2.84,6.87,5.21s-1.18,5.44-7,5.44Z"/><polygon class="cls-1" points="391.57 138.16 395.72 138.16 382.93 122.89 395.36 110.33 391.45 110.33 379.14 123 379.14 110.33 376.18 110.33 376.18 138.16 379.14 138.16 379.14 126.44 380.8 124.78 391.57 138.16"/><path class="cls-1" d="M396.31,131.41a8.61,8.61,0,0,0,2.72,5.33,8,8,0,0,0,5.8,2.13,8.77,8.77,0,0,0,6.28-2.49,8,8,0,0,0,2.49-6.15,6.64,6.64,0,0,0-1.54-4.62,12.73,12.73,0,0,0-5-3.32l-3-1.18c-2.48-1.07-3.67-2.37-3.67-4.14a3.94,3.94,0,0,1,1.54-3.08,4.82,4.82,0,0,1,3.55-1.19,6,6,0,0,1,2.85.71,6.82,6.82,0,0,1,1.77,1.9l2.37-1.42a8,8,0,0,0-6.87-3.91,8.69,8.69,0,0,0-5.8,2,5.87,5.87,0,0,0-2.25,5c0,3,1.78,5.21,5.57,6.74L406,124.9c.71.35,1.42.71,2,1.06a5.07,5.07,0,0,1,1.42,1.31,6,6,0,0,1,.83,1.54,4.44,4.44,0,0,1,.24,1.77,5.46,5.46,0,0,1-5.23,5.68h-.22a5.19,5.19,0,0,1-4.5-2.14,7.31,7.31,0,0,1-1.06-3.07Z"/><path class="cls-1" d="M312.12,139.94l12.43-29.61h-3.19l-9,22-5-11.72,4-8.88H300.75l3.56,8.88-5.21,11.72-9-22h-3.2l12.43,29.61,6.52-15.87Zm-4.85-25.58L306,117.44l-1.3-3.08Z"/><path class="cls-1" d="M202.12,109.51l-13.38,28.65h3.2l3.19-7.1.12-.36a11.13,11.13,0,0,0,6.63,2.13,11.41,11.41,0,0,0,6.52-2l.11.35,3.08,7.11h3.2Zm-5.56,18.59L202.12,116l5.33,12.08A8.9,8.9,0,0,1,196.56,128.1Z"/></g></g></g></g></svg>