<svg xmlns="http://www.w3.org/2000/svg" viewBox="0 0 221 19.6"><defs><style>.cls-1{fill:#333;}</style></defs><title>crisp_logo</title><g id="圖層_2" data-name="圖層 2"><g id="レイヤー_1" data-name="レイヤー 1"><path class="cls-1" d="M10,0A9.49,9.49,0,0,0,2.4,3.5,9.43,9.43,0,0,0,0,9.9a9.44,9.44,0,0,0,2.9,6.9,9.35,9.35,0,0,0,6.9,2.8,10.3,10.3,0,0,0,5.1-1.4l.2-.1V13.6l-.7.6a4.7,4.7,0,0,1-1.2.9c-.4.2-.7.4-1.1.6a5.27,5.27,0,0,1-2.3.4,6,6,0,0,1-4.4-1.8A6.11,6.11,0,0,1,3.6,9.8,6.5,6.5,0,0,1,5.4,5.2,5.88,5.88,0,0,1,9.8,3.4a6.87,6.87,0,0,1,4.6,1.9l.7.6V1.5l-.2-.1A9.86,9.86,0,0,0,10,0Z"/><path class="cls-1" d="M27.9,9.6A5.58,5.58,0,0,0,29.1,6a5.28,5.28,0,0,0-1.9-4.3C26.1.7,24.2.3,21.8.3H18.2V19.2h3.6V12.1l5,7.1h4.4l-5.7-7.9A4.31,4.31,0,0,0,27.9,9.6ZM25.6,6.1c0,1.1-.4,2.5-3.4,2.5h-.4V3.8h.5C25.2,3.8,25.6,5.1,25.6,6.1Z"/><rect class="cls-1" x="32.6" y="0.4" width="3.6" height="18.9"/><path class="cls-1" d="M46.7,7.7,44.9,7c-1.1-.5-1.7-1-1.7-1.7A1.76,1.76,0,0,1,43.8,4a2.07,2.07,0,0,1,1.6-.5,2.5,2.5,0,0,1,1.3.3,2.55,2.55,0,0,1,1,1.2l.2.4,3-1.8-.2-.4A5.63,5.63,0,0,0,45.5,0a6.36,6.36,0,0,0-4.2,1.5,4.8,4.8,0,0,0-1.7,3.7c0,2.2,1.3,3.9,4,5l1.7.7a10.91,10.91,0,0,1,1.1.6,4.35,4.35,0,0,1,.7.6,1.61,1.61,0,0,1,.4.7,2,2,0,0,1,.1.8,2.49,2.49,0,0,1-.7,1.9,2.69,2.69,0,0,1-3.9-.3,4.53,4.53,0,0,1-.6-2l-.1-.5-3.6.8.1.4a6.94,6.94,0,0,0,2,4.2A6,6,0,0,0,45,19.6a6.11,6.11,0,0,0,4.5-1.8,6,6,0,0,0,1.8-4.4A5.54,5.54,0,0,0,50.2,10,9.27,9.27,0,0,0,46.7,7.7Z"/><path class="cls-1" d="M63.2,2A5,5,0,0,0,61,.7,15.59,15.59,0,0,0,57.5.4H54V19.3h3.6V12h.8a6.8,6.8,0,0,0,4.8-1.6A5.37,5.37,0,0,0,65,6.1,6.19,6.19,0,0,0,63.2,2ZM61.4,6.1c0,1.1-.3,2.4-3.3,2.4h-.6V3.7H58C61,3.7,61.4,5.1,61.4,6.1Z"/><path class="cls-1" d="M71.1,14.2a5.82,5.82,0,0,0,1.7,3.3,4.84,4.84,0,0,0,3.6,1.3,5.2,5.2,0,0,0,3.8-1.5,5,5,0,0,0,1.5-3.8,4.76,4.76,0,0,0-.9-2.9,6.32,6.32,0,0,0-3-2L76,7.8c-1.5-.6-2.2-1.5-2.2-2.5a2.32,2.32,0,0,1,.9-1.9,3.23,3.23,0,0,1,2.2-.7,2.86,2.86,0,0,1,1.7.4,3.26,3.26,0,0,1,1.1,1.2l1.5-.9A5,5,0,0,0,76.9,1a5.15,5.15,0,0,0-3.6,1.3,3.39,3.39,0,0,0-1.5,2.9c0,1.8,1.1,3.2,3.4,4.2l1.7.7a3.46,3.46,0,0,1,1.2.7,2.36,2.36,0,0,1,.9.8,4.05,4.05,0,0,1,.5.9,3.59,3.59,0,0,1,.2,1.1,3.32,3.32,0,0,1-1,2.5,3.1,3.1,0,0,1-2.4,1,3.42,3.42,0,0,1-2.8-1.3,5,5,0,0,1-.7-1.9Z"/><polygon class="cls-1" points="100.4 18.4 107.5 18.4 107.5 16.7 102.2 16.7 102.2 1.2 100.4 1.2 100.4 18.4"/><path class="cls-1" d="M117.1.7l-8.2,17.7h2l2-4.4h8.3l1.9,4.4h2Zm-3.5,11.6,3.5-7.6,3.3,7.6Z"/><path class="cls-1" d="M137.2,3.4a7.17,7.17,0,0,0-2.9-1.7,15,15,0,0,0-4.2-.5h-3.3V18.4h3.3a13.72,13.72,0,0,0,4.1-.5,7.9,7.9,0,0,0,2.9-1.7,8.32,8.32,0,0,0,2.8-6.4A8.24,8.24,0,0,0,137.2,3.4Zm-1.3,11.5a7.22,7.22,0,0,1-2.4,1.4,10,10,0,0,1-3.2.4h-1.7V2.9h1.7a8,8,0,0,1,5.6,1.8A6.64,6.64,0,0,1,138,9.8,6.64,6.64,0,0,1,135.9,14.9Z"/><path class="cls-1" d="M180.6,3.5A8.77,8.77,0,0,0,174.3.9a9,9,0,0,0-6.4,2.6,8.26,8.26,0,0,0-2.7,6.2,8.7,8.7,0,0,0,2.9,6.7,9.2,9.2,0,0,0,6,2.3,8.83,8.83,0,0,0,6.4-2.6,8.23,8.23,0,0,0,2.6-6.3A7.75,7.75,0,0,0,180.6,3.5Zm-1.3,11.4a7.05,7.05,0,0,1-12.1-5.1,6.94,6.94,0,0,1,2.1-5.1,7.24,7.24,0,0,1,10.2,0,6.94,6.94,0,0,1,2.1,5.1A8,8,0,0,1,179.3,14.9Z"/><path class="cls-1" d="M190.4,10.8l.7-.1a4.16,4.16,0,0,0,2.6-1.6,4.36,4.36,0,0,0,1-3,4.38,4.38,0,0,0-1.6-3.6c-1-.8-2.6-1.2-4.9-1.2h-2.8V18.5h1.8V11h1.2l5.1,7.4h2.2Zm-3.1-1.3V2.9h1.4c3.5,0,4.2,1.7,4.2,3.2s-.7,3.4-4.3,3.4Z"/><polygon class="cls-1" points="207.5 18.4 210 18.4 202.1 8.9 209.8 1.2 207.4 1.2 199.8 9.1 199.8 1.2 197.9 1.2 197.9 18.4 199.8 18.4 199.8 11.2 200.8 10.1 207.5 18.4"/><path class="cls-1" d="M210.4,14.2a5.82,5.82,0,0,0,1.7,3.3,4.84,4.84,0,0,0,3.6,1.3,5.2,5.2,0,0,0,3.8-1.5,5,5,0,0,0,1.5-3.8,4.76,4.76,0,0,0-.9-2.9,6.32,6.32,0,0,0-3-2l-1.8-.7c-1.5-.6-2.2-1.5-2.2-2.5a2.32,2.32,0,0,1,.9-1.9,3.23,3.23,0,0,1,2.2-.7,2.86,2.86,0,0,1,1.7.4A3.26,3.26,0,0,1,219,4.4l1.5-.9a5,5,0,0,0-4.3-2.4,5.15,5.15,0,0,0-3.6,1.3,4,4,0,0,0-1.4,3.1c0,1.8,1.1,3.2,3.4,4.2l1.7.7a3.46,3.46,0,0,1,1.2.7,2.36,2.36,0,0,1,.9.8,4.05,4.05,0,0,1,.5.9,3.59,3.59,0,0,1,.2,1.1,3.32,3.32,0,0,1-1,2.5,3.1,3.1,0,0,1-2.4,1,3.42,3.42,0,0,1-2.8-1.3,5,5,0,0,1-.7-1.9Z"/><path class="cls-1" d="M158.6,19.5l7.6-18.3h-2l-5.5,13.5-3.1-7.2L158.1,2h-6.5l2.2,5.5-3.2,7.2L145,1.2h-2l7.6,18.3,4-9.8ZM155.5,3.7l-.8,1.9-.8-1.9Z"/><path class="cls-1" d="M90.7.7,82.5,18.4h2l2-4.4.1-.2a7.39,7.39,0,0,0,4.1,1.3,6.2,6.2,0,0,0,4-1.3l.1.2,1.9,4.4h2ZM87.3,12.1l3.4-7.4L94,12.2A5.41,5.41,0,0,1,87.3,12.1Z"/></g></g></svg>