<svg xmlns="http://www.w3.org/2000/svg" viewBox="0 0 20.5 26.5"><defs><style>.cls-1{fill:none;stroke:#333;stroke-linecap:round;stroke-linejoin:round;stroke-width:2.5px;}</style></defs><title>icon_001</title><g id="圖層_2" data-name="圖層 2"><g id="圖層_1-2" data-name="圖層 1"><g id="圖層_2-2" data-name="圖層 2"><g id="icons"><path class="cls-1" d="M9.94,19c-.39-.34-.77-.67-1.11-1h0a21.06,21.06,0,0,1-2.39-2.24,3.38,3.38,0,0,1-.93-2.25,2.85,2.85,0,0,1,.73-1.95A2.43,2.43,0,0,1,8,10.83a2.31,2.31,0,0,1,1.42.49,3.09,3.09,0,0,1,.73.84,3.31,3.31,0,0,1,.74-.84,2.26,2.26,0,0,1,1.41-.49,2.43,2.43,0,0,1,1.81.79,2.81,2.81,0,0,1,.72,2A3.37,3.37,0,0,1,14,15.82,20.45,20.45,0,0,1,11.56,18h0l-1.12,1-.25.22Z"/><path class="cls-1" d="M19.14,18.8a2,2,0,0,1-.82,1.5L11,25a1.64,1.64,0,0,1-1.63,0L2.06,20.3a2,2,0,0,1-.81-1.5V2.25a1,1,0,0,1,1-1h16a1,1,0,0,1,1,1Z"/><line class="cls-1" x1="1.25" y1="6.29" x2="19.14" y2="6.29"/></g></g></g></g></svg>