<svg xmlns="http://www.w3.org/2000/svg" viewBox="0 0 15.68 14.46"><defs><style>.cls-1,.cls-2{fill:none;stroke:#333;stroke-linecap:round;stroke-linejoin:round;}.cls-1{stroke-width:1px;}.cls-2{stroke-width:1.36px;}</style></defs><title>icon_003</title><g id="圖層_2" data-name="圖層 2"><g id="text"><path class="cls-1" d="M14.18,10.62A8.28,8.28,0,0,1,12.05,14H3.78A8.7,8.7,0,0,1,1.29,9.31H14.55"/><path class="cls-1" d="M5.64,7.89A3.46,3.46,0,0,0,2.55,5.52"/><path class="cls-1" d="M6,6.06A4.1,4.1,0,0,0,3.75,2.85c-1-.35-1.46.6-1.31,1.3C1,3-.59,5.26,1.53,6.29.52,6.56.61,8.1,1.71,8c.85-.07,1.34-.76,2.42-.24"/><path class="cls-1" d="M14.3,5.93a2.13,2.13,0,0,1,.88,1.16,3.53,3.53,0,0,1-4.24.45"/><path class="cls-1" d="M11.25,6.26A2.81,2.81,0,0,1,15,3.55c.1,2.8-1.8,3.12-2.58,3.14"/><path class="cls-1" d="M11.21,3.47,10.81,1c-4,1-4.53,5.5-1.25,6.87"/><line class="cls-2" x1="9.82" y1="3.34" x2="9.82" y2="3.34"/><line class="cls-2" x1="9.15" y1="4.72" x2="9.15" y2="4.72"/><line class="cls-2" x1="9.94" y1="6.05" x2="9.94" y2="6.05"/><path class="cls-1" d="M5.32,2.23A3.53,3.53,0,0,1,6.16.5,3.22,3.22,0,0,1,8.37,2.42"/><path class="cls-1" d="M6.62,2.13a2.42,2.42,0,0,0,.84,2.15"/><line class="cls-2" x1="7.05" y1="7.74" x2="7.05" y2="7.74"/></g></g></svg>