<svg xmlns="http://www.w3.org/2000/svg" viewBox="0 0 190.62 61.5"><defs><style>.cls-1{fill:#333;}</style></defs><title>title_003</title><g id="圖層_2" data-name="圖層 2"><g id="text"><path class="cls-1" d="M0,2.64H14.22q5.52,0,8.28,3.06t2.82,9.06l.12,24.12q.06,7.62-2.64,11.46t-8.94,3.84H0ZM12.18,45.06Q15,45.06,15,42.3V15.72a9.42,9.42,0,0,0-.27-2.61,1.74,1.74,0,0,0-1-1.17,6.13,6.13,0,0,0-2.22-.3H10.38V45.06Z"/><path class="cls-1" d="M32,50.94Q29,47.22,29,39.84V22.2q0-6.06,3.48-9.24t9.72-3.18Q54.9,9.78,54.9,22.2v3.18q0,4.8-.12,7.8H39.54V41.7A10.58,10.58,0,0,0,40,45.27a2.31,2.31,0,0,0,3.75.57,3.36,3.36,0,0,0,.6-1.65q.09-.93.09-2.73V37.2H54.9v2.52q0,7.68-3,11.31T41.7,54.66Q34.92,54.66,32,50.94ZM44.46,28V22.32q0-4.74-2.34-4.74-2.64,0-2.64,4.74V28Z"/><path class="cls-1" d="M58.68,54.18V2.34H69.36V54.18Z"/><path class="cls-1" d="M73.5,7.32V0H84V7.32Zm0,46.86V10.26H84V54.18Z"/><path class="cls-1" d="M93.72,54.18l-7-43.92H97.2l2.16,22.2.36,7.14.42-7.2,2.4-22.14H113L105.9,54.18Z"/><path class="cls-1" d="M118.38,50.94q-2.94-3.72-2.94-11.1V22.2q0-6.06,3.48-9.24t9.72-3.18q12.66,0,12.66,12.42v3.18q0,4.8-.12,7.8H125.94V41.7a10.58,10.58,0,0,0,.48,3.57,2.31,2.31,0,0,0,3.75.57,3.36,3.36,0,0,0,.6-1.65q.09-.93.09-2.73V37.2H141.3v2.52q0,7.68-3,11.31T128.1,54.66Q121.32,54.66,118.38,50.94Zm12.48-23V22.32q0-4.74-2.34-4.74-2.64,0-2.64,4.74V28Z"/><path class="cls-1" d="M145.08,10.26h10.5v4.86a7.38,7.38,0,0,1,2.73-4,8,8,0,0,1,4.83-1.41v8.76a21.43,21.43,0,0,0-4.89.63q-2.67.63-2.67,1.47v33.6h-10.5Z"/><path class="cls-1" d="M164.88,54.84h5q1.08,0,1.08-.9a2.85,2.85,0,0,0-.06-.66l-6.84-43h10l2,21.42,1,10.92,1.14-10.92,2.34-21.42h10.08l-8.16,46.2a6.58,6.58,0,0,1-1.71,3.81,5.71,5.71,0,0,1-4.05,1.23H164.88Z"/></g></g></svg>