<svg xmlns="http://www.w3.org/2000/svg" viewBox="0 0 348.29 60.6"><defs><style>.cls-1{fill:#333;}</style></defs><title>title_004</title><g id="圖層_2" data-name="圖層 2"><g id="text"><path class="cls-1" d="M0,54.18V2.64H15.72L20,34.08,24.36,2.64H40.2V54.18H30.78V17L24.84,54.18H15.6L9.3,17V54.18Z"/><path class="cls-1" d="M45.57,51.27q-1.89-3.39-1.89-9.69A18.51,18.51,0,0,1,45,33.66a8.82,8.82,0,0,1,3.75-4,45.51,45.51,0,0,1,7.32-2.85l2.88-1V21.3a4.42,4.42,0,0,0-.69-2.67,2,2,0,0,0-1.65-.93,1.85,1.85,0,0,0-1.47.78,3.25,3.25,0,0,0-.63,2.1v2.64H44.34V21.78q0-6.48,3-9.24t9.87-2.76a13.41,13.41,0,0,1,8.88,2.85,9.92,9.92,0,0,1,3.42,8.07V54.18H59.1V49a8.59,8.59,0,0,1-2.49,4.2,5.94,5.94,0,0,1-4,1.5Q47.46,54.66,45.57,51.27Zm12.84-5.76a5.26,5.26,0,0,0,.51-2.43V30.84a8,8,0,0,0-3.45,2.28A6,6,0,0,0,54.36,37V42.6q0,3.9,2.34,3.9A1.77,1.77,0,0,0,58.41,45.51Z"/><path class="cls-1" d="M73.56,54.18V2.34H83.94v23l5-15.12H99.84l-6.6,19.08,8.4,24.84H90.48l-6.54-20.7v20.7Z"/><path class="cls-1" d="M103,7.32V0h10.5V7.32Zm0,46.86V10.26h10.5V54.18Z"/><path class="cls-1" d="M117.6,10.26h10.5v5.58a9.36,9.36,0,0,1,2.28-4.38,5.72,5.72,0,0,1,4.32-1.68q4.44,0,6.57,2.73t2.13,7.77v33.9H133.08V21.36a5,5,0,0,0-.57-2.46,1.89,1.89,0,0,0-1.77-1,2,2,0,0,0-2.13,1.47,12.32,12.32,0,0,0-.51,3.93v30.9H117.6Z"/><path class="cls-1" d="M152,59.85A14.64,14.64,0,0,1,146.76,57l3.6-6.06A14.84,14.84,0,0,0,158,53.22a4.5,4.5,0,0,0,3.72-1.56A6.59,6.59,0,0,0,163,47.4V45q-1.26,4.5-6.66,4.5-4.5,0-6.63-3.06a14,14,0,0,1-2.13-8.16V21.78q0-5.82,2-8.91t6.81-3.09a6.65,6.65,0,0,1,4.47,1.41,6.92,6.92,0,0,1,2.19,4V10.26H173.7V46.74q0,7.38-3.42,10.62T159.36,60.6A28.36,28.36,0,0,1,152,59.85Zm11-22.71V21.48a4.82,4.82,0,0,0-.72-2.52,2.09,2.09,0,0,0-1.8-1.2,1.87,1.87,0,0,0-1.86,1,6.36,6.36,0,0,0-.48,2.73V37.14a9,9,0,0,0,.48,3.21,1.87,1.87,0,0,0,1.92,1.23Q163,41.58,163,37.14Z"/><path class="cls-1" d="M190.86,41.46l.06-3.48h10.5l.06,5.16a4,4,0,0,0,.6,2.37,2.3,2.3,0,0,0,2,.81q2.1,0,2.1-3.42a6.9,6.9,0,0,0-1-4A14,14,0,0,0,202,35.88l-5.58-4.32A14.73,14.73,0,0,1,192.3,27,14.47,14.47,0,0,1,191,20.28a9.3,9.3,0,0,1,1.77-5.73A10.86,10.86,0,0,1,197.52,11a17.16,17.16,0,0,1,6.54-1.2q12.78,0,12.78,12.72v.84H206V21.66a6.36,6.36,0,0,0-.51-2.67,1.75,1.75,0,0,0-1.71-1.11,2.11,2.11,0,0,0-1.65.63,2.45,2.45,0,0,0-.57,1.71,4.3,4.3,0,0,0,1.86,3.72l6.48,4.74a20.35,20.35,0,0,1,5.34,5.61,14.4,14.4,0,0,1,1.86,7.65q0,6.12-3.48,9.42t-9.72,3.3Q190.86,54.66,190.86,41.46Z"/><path class="cls-1" d="M221.31,51.27q-1.89-3.39-1.89-9.69a18.51,18.51,0,0,1,1.35-7.92,8.82,8.82,0,0,1,3.75-4,45.51,45.51,0,0,1,7.32-2.85l2.88-1V21.3a4.42,4.42,0,0,0-.69-2.67,2,2,0,0,0-1.65-.93,1.85,1.85,0,0,0-1.47.78,3.25,3.25,0,0,0-.63,2.1v2.64h-10.2V21.78q0-6.48,3-9.24c2-1.84,5.31-2.76,9.87-2.76a13.41,13.41,0,0,1,8.88,2.85,9.92,9.92,0,0,1,3.42,8.07V54.18H234.84V49a8.59,8.59,0,0,1-2.49,4.2,5.94,5.94,0,0,1-4,1.5Q223.2,54.66,221.31,51.27Zm12.84-5.76a5.26,5.26,0,0,0,.51-2.43V30.84a8,8,0,0,0-3.45,2.28A5.91,5.91,0,0,0,230.1,37V42.6q0,3.9,2.34,3.9A1.77,1.77,0,0,0,234.15,45.51Z"/><path class="cls-1" d="M249.29,54.18V2.34H260V54.18Z"/><path class="cls-1" d="M265.16,51.27q-1.89-3.39-1.89-9.69a18.51,18.51,0,0,1,1.35-7.92,8.82,8.82,0,0,1,3.75-4,45.51,45.51,0,0,1,7.32-2.85l2.88-1V21.3a4.42,4.42,0,0,0-.69-2.67,2,2,0,0,0-1.65-.93,1.85,1.85,0,0,0-1.47.78,3.25,3.25,0,0,0-.63,2.1v2.64h-10.2V21.78q0-6.48,3-9.24t9.87-2.76a13.41,13.41,0,0,1,8.88,2.85,9.92,9.92,0,0,1,3.42,8.07V54.18H278.69V49a8.59,8.59,0,0,1-2.49,4.2,5.94,5.94,0,0,1-4.05,1.5Q267.05,54.66,265.16,51.27ZM278,45.51a5.26,5.26,0,0,0,.51-2.43V30.84a8,8,0,0,0-3.45,2.28A6,6,0,0,0,274,37V42.6q0,3.9,2.34,3.9A1.77,1.77,0,0,0,278,45.51Z"/><path class="cls-1" d="M296,52.83A9,9,0,0,1,293.42,48a39.31,39.31,0,0,1-.63-7.77l.12-19.8a11.89,11.89,0,0,1,2.37-7.65,8.07,8.07,0,0,1,6.69-3,7.42,7.42,0,0,1,6.36,2.82V2.34h10.5V54.18h-10.5V49.5a8.66,8.66,0,0,1-2.43,3.87,6.17,6.17,0,0,1-4.11,1.29Q298,54.66,296,52.83Zm11.85-7.92a14.18,14.18,0,0,0,.48-4.11V22.44a8.58,8.58,0,0,0-.54-3.24,1.93,1.93,0,0,0-1.92-1.32,2,2,0,0,0-2.07,1.23,8.89,8.89,0,0,0-.51,3.33V40.92q0,5.52,2.52,5.52A2,2,0,0,0,307.85,44.91Z"/><path class="cls-1" d="M322.07,41.46l.06-3.48h10.5l.06,5.16a4,4,0,0,0,.6,2.37,2.3,2.3,0,0,0,2,.81q2.1,0,2.1-3.42a6.9,6.9,0,0,0-1-4,14,14,0,0,0-3.15-3.06l-5.58-4.32A14.73,14.73,0,0,1,323.51,27a14.47,14.47,0,0,1-1.26-6.69A9.3,9.3,0,0,1,324,14.55,10.86,10.86,0,0,1,328.73,11a17.16,17.16,0,0,1,6.54-1.2q12.78,0,12.78,12.72v.84H337.19V21.66a6.36,6.36,0,0,0-.51-2.67A1.75,1.75,0,0,0,335,17.88a2.11,2.11,0,0,0-1.65.63,2.45,2.45,0,0,0-.57,1.71,4.3,4.3,0,0,0,1.86,3.72l6.48,4.74a20.35,20.35,0,0,1,5.34,5.61,14.4,14.4,0,0,1,1.86,7.65q0,6.12-3.48,9.42t-9.72,3.3Q322.07,54.66,322.07,41.46Z"/></g></g></svg>