<svg xmlns="http://www.w3.org/2000/svg" viewBox="0 0 215.58 57.96"><defs><style>.cls-1{fill:#333;}</style></defs><title>title_001</title><g id="圖層_2" data-name="圖層 2"><g id="text"><path class="cls-1" d="M0,51.54V0H15.72L20,31.44,24.36,0H40.2V51.54H30.78V14.4L24.84,51.54H15.6L9.3,14.4V51.54Z"/><path class="cls-1" d="M47.16,48.3q-2.94-3.72-2.94-11.1V19.56q0-6.06,3.48-9.24t9.72-3.18q12.66,0,12.66,12.42v3.18q0,4.8-.12,7.8H54.72v8.52a10.58,10.58,0,0,0,.48,3.57A2.31,2.31,0,0,0,59,43.2a3.36,3.36,0,0,0,.6-1.65q.09-.93.09-2.73V34.56H70.08v2.52q0,7.68-3,11.31T56.88,52Q50.1,52,47.16,48.3Zm12.48-23V19.68q0-4.74-2.34-4.74-2.64,0-2.64,4.74v5.64Z"/><path class="cls-1" d="M72.9,38.82,73,35.34h10.5l.06,5.16a4,4,0,0,0,.6,2.37,2.3,2.3,0,0,0,2,.81q2.1,0,2.1-3.42a6.9,6.9,0,0,0-1-4,14,14,0,0,0-3.15-3.06l-5.58-4.32a14.73,14.73,0,0,1-4.14-4.59,14.47,14.47,0,0,1-1.26-6.69,9.3,9.3,0,0,1,1.77-5.73,10.86,10.86,0,0,1,4.71-3.57,17.16,17.16,0,0,1,6.54-1.2q12.78,0,12.78,12.72v.84H88V19a6.36,6.36,0,0,0-.51-2.67,1.75,1.75,0,0,0-1.71-1.11,2.11,2.11,0,0,0-1.65.63,2.45,2.45,0,0,0-.57,1.71,4.3,4.3,0,0,0,1.86,3.72L91.92,26a20.35,20.35,0,0,1,5.34,5.61,14.4,14.4,0,0,1,1.86,7.65q0,6.12-3.48,9.42T85.92,52Q72.9,52,72.9,38.82Z"/><path class="cls-1" d="M101.4,38.82l.06-3.48H112L112,40.5a4,4,0,0,0,.6,2.37,2.3,2.3,0,0,0,2,.81q2.1,0,2.1-3.42a6.9,6.9,0,0,0-1-4,14,14,0,0,0-3.15-3.06L107,28.92a14.73,14.73,0,0,1-4.14-4.59,14.47,14.47,0,0,1-1.26-6.69,9.3,9.3,0,0,1,1.77-5.73,10.86,10.86,0,0,1,4.71-3.57,17.16,17.16,0,0,1,6.54-1.2q12.78,0,12.78,12.72v.84H116.52V19a6.36,6.36,0,0,0-.51-2.67,1.75,1.75,0,0,0-1.71-1.11,2.11,2.11,0,0,0-1.65.63,2.45,2.45,0,0,0-.57,1.71,4.3,4.3,0,0,0,1.86,3.72L120.42,26a20.35,20.35,0,0,1,5.34,5.61,14.4,14.4,0,0,1,1.86,7.65q0,6.12-3.48,9.42T114.42,52Q101.4,52,101.4,38.82Z"/><path class="cls-1" d="M131.85,48.63Q130,45.24,130,38.94A18.51,18.51,0,0,1,131.31,31,8.82,8.82,0,0,1,135.06,27a45.51,45.51,0,0,1,7.32-2.85l2.88-1v-4.5a4.42,4.42,0,0,0-.69-2.67,2,2,0,0,0-1.65-.93,1.85,1.85,0,0,0-1.47.78,3.25,3.25,0,0,0-.63,2.1v2.64h-10.2V19.14q0-6.48,3-9.24t9.87-2.76A13.41,13.41,0,0,1,152.4,10a9.92,9.92,0,0,1,3.42,8.07V51.54H145.38V46.32a8.59,8.59,0,0,1-2.49,4.2,5.94,5.94,0,0,1-4,1.5Q133.74,52,131.85,48.63Zm12.84-5.76a5.26,5.26,0,0,0,.51-2.43V28.2a8,8,0,0,0-3.45,2.28,6,6,0,0,0-1.11,3.84V40q0,3.9,2.34,3.9A1.77,1.77,0,0,0,144.69,42.87Z"/><path class="cls-1" d="M164.31,57.21a14.64,14.64,0,0,1-5.25-2.85l3.6-6.06a14.84,14.84,0,0,0,7.62,2.28A4.5,4.5,0,0,0,174,49a6.59,6.59,0,0,0,1.26-4.26v-2.4q-1.26,4.5-6.66,4.5-4.5,0-6.63-3.06a14,14,0,0,1-2.13-8.16V19.14q0-5.82,1.95-8.91t6.81-3.09a6.65,6.65,0,0,1,4.47,1.41,6.92,6.92,0,0,1,2.19,4V7.62H186V44.1q0,7.38-3.42,10.62T171.66,58A28.36,28.36,0,0,1,164.31,57.21ZM175.26,34.5V18.84a4.82,4.82,0,0,0-.72-2.52,2.09,2.09,0,0,0-1.8-1.2,1.87,1.87,0,0,0-1.86,1,6.36,6.36,0,0,0-.48,2.73V34.5a9,9,0,0,0,.48,3.21,1.87,1.87,0,0,0,1.92,1.23Q175.26,38.94,175.26,34.5Z"/><path class="cls-1" d="M192.66,48.3q-2.94-3.72-2.94-11.1V19.56q0-6.06,3.48-9.24t9.72-3.18q12.66,0,12.66,12.42v3.18q0,4.8-.12,7.8H200.22v8.52a10.58,10.58,0,0,0,.48,3.57,2.31,2.31,0,0,0,3.75.57,3.36,3.36,0,0,0,.6-1.65q.09-.93.09-2.73V34.56h10.44v2.52q0,7.68-3,11.31T202.38,52Q195.6,52,192.66,48.3Zm12.48-23V19.68q0-4.74-2.34-4.74-2.64,0-2.64,4.74v5.64Z"/></g></g></svg>