<svg xmlns="http://www.w3.org/2000/svg" viewBox="0 0 206.64 54.66"><defs><style>.cls-1{fill:#333;}</style></defs><title>title_002</title><g id="圖層_2" data-name="圖層 2"><g id="text"><path class="cls-1" d="M0,2.64H14.22q5.52,0,8.28,3.06t2.82,9.06l.12,24.12q.06,7.62-2.64,11.46t-8.94,3.84H0ZM12.18,45.06Q15,45.06,15,42.3V15.72a9.42,9.42,0,0,0-.27-2.61,1.74,1.74,0,0,0-1-1.17,6.13,6.13,0,0,0-2.22-.3H10.38V45.06Z"/><path class="cls-1" d="M29,41V23.4q0-6.24,3.51-9.93t9.63-3.69q6.12,0,9.63,3.69t3.51,9.93V41q0,13.62-13.14,13.62T29,41Zm15,4.62a4.39,4.39,0,0,0,.6-2.46V21.72q0-3.84-2.46-3.84t-2.46,3.84V43.2a4.39,4.39,0,0,0,.6,2.46,2.37,2.37,0,0,0,3.72,0Z"/><path class="cls-1" d="M59.22,10.26h10.5v5.58A9.36,9.36,0,0,1,72,11.46a5.72,5.72,0,0,1,4.32-1.68q4.44,0,6.57,2.73T85,20.28v33.9H74.7V21.36a5,5,0,0,0-.57-2.46,1.89,1.89,0,0,0-1.77-1,2,2,0,0,0-2.13,1.47,12.32,12.32,0,0,0-.51,3.93v30.9H59.22Z"/><path class="cls-1" d="M90.15,51.27q-1.89-3.39-1.89-9.69a18.51,18.51,0,0,1,1.35-7.92,8.82,8.82,0,0,1,3.75-4,45.51,45.51,0,0,1,7.32-2.85l2.88-1V21.3a4.42,4.42,0,0,0-.69-2.67,2,2,0,0,0-1.65-.93,1.85,1.85,0,0,0-1.47.78,3.25,3.25,0,0,0-.63,2.1v2.64H88.92V21.78q0-6.48,3-9.24t9.87-2.76a13.41,13.41,0,0,1,8.88,2.85,9.92,9.92,0,0,1,3.42,8.07V54.18H103.68V49a8.59,8.59,0,0,1-2.49,4.2,5.94,5.94,0,0,1-4,1.5Q92,54.66,90.15,51.27ZM103,45.51a5.26,5.26,0,0,0,.51-2.43V30.84a8,8,0,0,0-3.45,2.28A6,6,0,0,0,98.94,37V42.6q0,3.9,2.34,3.9A1.77,1.77,0,0,0,103,45.51Z"/><path class="cls-1" d="M121.5,52.92q-1.56-1.74-1.56-5.58V19.92H117v-8h2.94V2.64h10.2v9.3h3v8h-3V44.58a5.74,5.74,0,0,0,.18,1.68q.18.54,1,.54a10.33,10.33,0,0,0,1.14-.06l.72-.06v7.2q-.9.24-2.61.51a21.34,21.34,0,0,1-3.33.27Q123.06,54.66,121.5,52.92Z"/><path class="cls-1" d="M136.38,7.32V0h10.5V7.32Zm0,46.86V10.26h10.5V54.18Z"/><path class="cls-1" d="M150.66,41V23.4q0-6.24,3.51-9.93t9.63-3.69q6.12,0,9.63,3.69t3.51,9.93V41q0,13.62-13.14,13.62T150.66,41Zm15,4.62a4.39,4.39,0,0,0,.6-2.46V21.72q0-3.84-2.46-3.84t-2.46,3.84V43.2a4.39,4.39,0,0,0,.6,2.46,2.37,2.37,0,0,0,3.72,0Z"/><path class="cls-1" d="M180.84,10.26h10.5v5.58a9.36,9.36,0,0,1,2.28-4.38,5.72,5.72,0,0,1,4.32-1.68q4.44,0,6.57,2.73t2.13,7.77v33.9H196.32V21.36a5,5,0,0,0-.57-2.46,1.89,1.89,0,0,0-1.77-1,2,2,0,0,0-2.13,1.47,12.32,12.32,0,0,0-.51,3.93v30.9h-10.5Z"/></g></g></svg>