<svg xmlns="http://www.w3.org/2000/svg" viewBox="0 0 2333.07 2639.68"><defs><style>.cls-1{fill:#fff;}.cls-2{fill:#333;}.cls-3{fill:#323333;}</style></defs><title>copy_2</title><g id="圖層_2" data-name="圖層 2"><g id="text"><g id="圖層_2-2" data-name="圖層 2"><g id="text-2" data-name="text"><path class="cls-1" d="M53.55,453.6V89.25H0V2.62H197.4V89.25H143.85V453.6Z"/><path class="cls-1" d="M231.52,0H326V107.1q14.7-42,56.18-42Q421,65.1,441,89.78t20,67.72V453.6H369.07V163.28q0-12.6-5.77-20.48t-16.8-7.87q-9.45,0-15,8.13T326,162.75V453.6H231.5Z"/><path class="cls-1" d="M515.8,428.14q-16.53-29.65-16.53-84.79,0-45.15,11.81-69.3t32.81-35.44q21-11.28,64.05-24.93l25.2-8.4V165.9q0-15.22-6-23.36T612.7,134.4q-7.37,0-12.87,6.83t-5.51,18.37v23.1H505V170.1q0-56.7,26.51-80.85T617.92,65.1q47.76,0,77.7,24.94t29.92,70.61v293H634.19V407.93q-6.83,23.63-21.78,36.75A52,52,0,0,1,577,457.8Q532.33,457.8,515.8,428.14Zm112.36-50.4q4.44-8.67,4.46-21.26V249.38q-20.48,7.86-30.19,19.95t-9.71,33.6v49.35q0,34.13,20.47,34.12,10.5,0,15-8.66Z"/><path class="cls-1" d="M771.21,69.3h91.87v48.82q5.77-23.61,20-38.32t37.79-14.7q38.85,0,57.49,23.89T997,157V453.6H906.7V166.43q0-12.6-5-21.53T886.18,136q-14.16,0-18.63,12.86t-4.47,34.39V453.6H771.21Z"/><path class="cls-1" d="M1043.68,453.6V0h90.83V201.6l44.1-132.3h95l-57.75,167,73.5,217.35h-97.65l-57.22-181.12V453.6Z"/><path class="cls-1" d="M1438,459.38h44.1q9.45,0,9.45-7.88a25.41,25.41,0,0,0-.52-5.77L1431.13,69.3h87.67l17.33,187.43,8.4,95.55,10-95.55L1575,69.3h88.2l-71.4,404.25q-3.69,22.56-15,33.34t-35.43,10.76H1438Z"/><path class="cls-1" d="M1694.68,338.62V184.28q0-54.6,30.71-86.89t84.26-32.29q53.55,0,84.26,32.29t30.72,86.89V338.62q0,119.19-115,119.18T1694.68,338.62Zm131.25,40.43q5.23-7.87,5.25-21.52V169.58q0-33.6-21.53-33.6t-21.52,33.6V357.53q0,13.65,5.25,21.52t16.27,7.88Q1820.68,386.93,1825.93,379.05Z"/><path class="cls-1" d="M1984.21,432.08q-16-25.72-16-76.65V69.3h92.4V356.74q0,16,5,22.57t15.48,6.57q14.17,0,17.85-11.82t3.68-33.86v-3.15l.52-267.75h91.35V453.6H2102.6v-41q-9.45,24.15-22,34.65t-37.28,10.5Q2000.23,457.79,1984.21,432.08Z"/><path class="cls-1" d="M2253.27,514l16.8-60.38h-32.55V377h95.55v74l-25.73,63Z"/><path class="cls-1" d="M28.09,1006.71q-16-25.73-16-76.65V643.93h92.39V931.37q0,16,5,22.57c3.33,4.38,8.48,6.57,15.49,6.57q14.17,0,17.85-11.82t3.67-33.86v-3.15L147,643.93h91.35v384.3H146.47v-41q-9.45,24.15-22,34.65t-37.27,10.5Q44.11,1032.43,28.09,1006.71Z"/><path class="cls-1" d="M285.6,643.93h91.87v48.82q5.77-23.62,19.95-38.32t37.8-14.7q38.85,0,57.49,23.89t18.64,68v296.62h-90.3V741.06q0-12.6-5-21.53t-15.49-8.92q-14.18,0-18.64,12.86t-4.46,34.39v270.37H285.6Z"/><path class="cls-1" d="M549.67,916.93l.52-30.45h91.88l.52,45.15q0,13.67,5.25,20.74t17.33,7.09q18.38,0,18.37-29.93,0-22-8.66-34.65t-27.56-26.77l-48.83-37.8q-25.2-19.42-36.22-40.17t-11-58.53q0-29.4,15.49-50.14T608,650.23q25.72-10.5,57.23-10.5Q777,639.73,777,751v7.35H682v-14.7q0-13.65-4.47-23.36t-15-9.71q-9.45,0-14.44,5.51t-5,15q0,21,16.27,32.55l56.7,41.48q30.45,22.57,46.73,49.08t16.27,66.94q0,53.55-30.45,82.43t-85,28.87Q549.67,1032.43,549.67,916.93Z"/><path class="cls-1" d="M832.9,1006.71q-16-25.73-16-76.65V643.93h92.4V931.37q0,16,5,22.57t15.48,6.57q14.18,0,17.85-11.82t3.68-33.86v-3.15l.52-267.75h91.35v384.3H951.29v-41q-9.45,24.15-22,34.65T892,1032.43Q848.91,1032.43,832.9,1006.71Z"/><path class="cls-1" d="M1090.41,643.93h91.87v48.82q5.78-23.62,20-38.32t37.8-14.7q38.85,0,57.49,23.89t18.64,68v296.62h-90.3V741.06q0-12.6-5-21.53t-15.49-8.92q-14.18,0-18.63,12.86t-4.47,34.39v270.37h-91.87Z"/><path class="cls-1" d="M1402,1077.84q-23.36-6.57-45.94-24.93l31.5-53q33.6,20,66.68,20,21.52,0,32.55-13.65t11-37.27V948q-11,39.38-58.27,39.37-39.37,0-58-26.77t-18.64-71.4V744.73q0-50.91,17.06-78t59.59-27q24.67,0,39.11,12.34T1497.8,687V643.93h94v319.2q0,64.57-29.93,92.93t-95.55,28.35Q1425.36,1084.41,1402,1077.84Zm95.81-198.71v-137a42.12,42.12,0,0,0-6.3-22q-6.3-10.5-15.75-10.5-12.08,0-16.27,8.66t-4.2,23.89v137q0,17.32,4.2,28.09t16.8,10.76q21.53,0,21.51-38.85Z"/><path class="cls-2" d="M25.78,1886.81V1185.27H165.44V1436h66.15V1185.27H371.24v701.54H231.59V1568.3H165.44v318.51Z"/><path class="cls-2" d="M449.64,1886.81V1185.27H730.58v135.57h-138v136.39H724.87v132.3H592.56v160.89h147v136.39Z"/><path class="cls-2" d="M802.44,1185.27h215.61q51.45,0,79.62,23.28t38,65.33q9.8,42.07,9.8,107.4,0,59.63-15.52,93.1t-53.9,46.55q31.85,6.54,46.14,31.85t14.3,68.6l-1.64,265.43H997.63V1612.4q0-29.4-11.44-37.57t-41.65-8.16v320.14H802.44ZM978.84,1445q29.42,0,29.41-63.7,0-27.77-2.46-41.65t-9-19.2q-6.54-5.29-18.78-5.31H945.36V1445Z"/><path class="cls-2" d="M1246.71,1841.48q-44.1-51.86-44.1-145.78v-334q0-90.66,44.1-136.8t129-46.14q84.93,0,129,46.14t44.11,136.8v334q0,94.75-44.11,146.19t-129,51.45Q1290.79,1893.34,1246.71,1841.48ZM1401.06,1748q6.54-16.32,6.54-45.73v-343q0-22.86-6.13-37.16t-24.91-14.3q-35.11,0-35.11,53.09v342.19q0,30.23,7.35,45.74t27,15.51Q1394.54,1764.3,1401.06,1748Z"/><path class="cls-2" d="M1621.56,1886.81V1185.27h281v135.57h-138v136.39h132.3v132.3h-132.3v160.89h147v136.39Z"/><path class="cls-2" d="M2003,1846q-42.48-47.36-42.47-152.72v-68.6h138V1712q0,52.27,33.49,52.26,18.77,0,26.13-11t7.35-37.16q0-34.3-8.17-56.76t-20.82-37.57q-12.68-15.11-45.33-47l-60.43-60.43q-70.26-68.61-70.24-151.91,0-89.82,41.24-136.79t120.47-47q94.72,0,136.38,50.22t41.65,157.22H2157.3l-.81-48.19q0-13.87-7.76-22c-5.18-5.43-12.39-8.17-21.65-8.17q-16.34,0-24.5,9t-8.16,24.5q0,34.3,39.2,71l81.67,78.4q28.58,27.78,47.37,52.68t30.21,58.8q11.43,33.9,11.44,80.45,0,103.73-38,157.21T2141,1893.34Q2045.42,1893.34,2003,1846Z"/></g></g><path class="cls-2" d="M36.09,2057.83c-5.19,0-6.9.12-7.26.12-.53,0-.59-.06-.59-.65v-4.25c0-.59.06-.65.59-.65.36,0,2.07.12,7.26.12H43.7a36.43,36.43,0,0,0,2.24-5.61,9,9,0,0,0,.42-2.59c1.94.35,3.42.82,5.13,1.23.59.18.71.42.71.83a1.06,1.06,0,0,1-.47.89,3.15,3.15,0,0,0-.89,1.35c-.65,1.48-1.12,2.54-1.83,3.9,4.07,0,5.79-.12,6.38-.12s.64.06.64.65v4.25c0,.59-.05.65-.64.65-.36,0-2.13-.12-7.26-.12H45.41a18.1,18.1,0,0,0-.11,3.24v1.07h2c5,0,6.73-.12,7.08-.12.59,0,.65.06.65.65v4.19c0,.59-.06.64-.65.64-.35,0-2.06-.11-7.08-.11h-.41a27.7,27.7,0,0,0,7.55,6.19,16.79,16.79,0,0,0-2.06,3.78c-.24.59-.42.94-.71.94s-.65-.23-1.24-.82a29.15,29.15,0,0,1-5.25-6.14c.06,8.2.29,12.86.29,14.93,0,.59-.06.65-.71.65H40.1c-.59,0-.65-.06-.65-.65,0-1.95.18-6.26.24-13.63A46.47,46.47,0,0,1,32,2082.2c-.59.53-.94.82-1.24.82s-.65-.41-.94-1.18a16.52,16.52,0,0,0-2.31-4A36.06,36.06,0,0,0,38,2067.39H36.5c-5.07,0-6.78.11-7.14.11-.59,0-.64-.05-.64-.64v-4.19c0-.59.05-.65.64-.65.36,0,2.07.12,7.14.12h3.07v-1.07c0-1.35,0-2.36-.06-3.24Zm1-14.16c-4.89,0-6.61.12-7,.12-.59,0-.65-.06-.65-.65v-4.08c0-.59.06-.64.65-.64.35,0,2.07.11,7,.11h2.3v-1.59a16.48,16.48,0,0,0-.35-3.89c2.13,0,4,.11,6.14.29.59.06.94.24.94.53a2.4,2.4,0,0,1-.35,1,4,4,0,0,0-.3,2.12v1.53h2c4.9,0,6.55-.11,6.9-.11.65,0,.71,0,.71.64v4.08c0,.59-.06.65-.71.65-.35,0-2-.12-6.9-.12Zm-.88,8.38c-.77.23-1,.17-1.18-.48a24.59,24.59,0,0,0-1.65-5.19c-.36-.65-.3-.83.53-1l3-.89c.7-.17.82-.06,1.06.42a25.93,25.93,0,0,1,2.18,5.31c.18.59.06.76-.59.94Zm27.5,5.48c-.06,6.85-.42,12.51-1.54,17.06a32.07,32.07,0,0,1-5.07,11.21c-.53.7-.83,1.12-1.24,1.12s-.65-.3-1.3-.83a13.53,13.53,0,0,0-3.84-2.36,27.12,27.12,0,0,0,6.08-12c.89-3.66,1.18-8.55,1.18-17v-6.43c0-3.48-.06-6.61-.35-10.09a29.71,29.71,0,0,1,5.43,1.41,41.83,41.83,0,0,0,10.2-4.07,15.55,15.55,0,0,0,3.13-2.18,23.45,23.45,0,0,1,3.84,4.19,1.91,1.91,0,0,1,.41,1.12c0,.35-.35.65-.88.71a6.5,6.5,0,0,0-2.31.71A64.26,64.26,0,0,1,63.71,2045v7.2H73.8c5.72,0,7.67-.11,8-.11.59,0,.65,0,.65.64V2057c0,.59-.06.65-.65.65-.3,0-1.89-.06-6-.12v20.77c0,5.55.12,7.85.12,8.15,0,.64-.06.7-.59.7H70.55c-.59,0-.65-.06-.65-.7,0-.3.12-2.6.12-8.15v-20.77Z"/><path class="cls-2" d="M96.18,2085c-5.19,0-7,.12-7.38.12-.59,0-.59-.06-.59-.65v-4.31c0-.53,0-.59.59-.59.36,0,2.19.12,7.38.12h15.1v-5.61H103.5c-5.73,0-7.74.12-8.09.12-.65,0-.71-.06-.71-.65v-4.19c0-.64.06-.7.71-.7.35,0,2.36.11,8.09.11h7.78c0-1.47-.06-2.77-.17-4.19h-3.72c-.59,0-.65-.05-.65-.7,0-.36.12-2.3.12-6.61v-4.66h-5.55a24.87,24.87,0,0,1-1.3,5.31,17.63,17.63,0,0,1-5.78,7.85c-.65.59-1,.88-1.3.88s-.65-.35-1.35-1.12a14.14,14.14,0,0,0-3.37-2.71c3.31-2.07,5.55-4.49,6.55-7a19.91,19.91,0,0,0,.83-3.18c-4.43.06-6.14.11-6.43.11-.59,0-.65-.05-.65-.7v-4c0-.59.06-.65.65-.65.29,0,2.12.12,7,.12.06-1.24.12-2.54.12-4v-3c-3.72.06-5.14.12-5.43.12-.59,0-.65-.06-.65-.65v-3.9c0-.59.06-.64.65-.64.35,0,2.06.11,7.2.11h11.44c5.14,0,6.85-.11,7.2-.11.59,0,.65,0,.65.64v3.9c0,.59-.06.65-.65.65-.29,0-1.41-.06-4.25-.12v7c3.72,0,5.14-.12,5.43-.12.59,0,.65.06.65.65v4c0,.65-.06.7-.65.7-.29,0-1.71-.05-5.43-.11v4.66c0,2.83,0,4.6.06,5.6,1.6.06,3.07.18,4.67.36.47.06.82.35.82.71a3,3,0,0,1-.29,1.23,10.21,10.21,0,0,0-.36,3.6H126c5.78,0,7.78-.11,8.14-.11.59,0,.65.06.65.7v4.19c0,.59-.06.65-.65.65-.36,0-2.36-.12-8.14-.12H117.3v5.61h15.64c5.19,0,7-.12,7.32-.12.59,0,.59.06.59.59v4.31c0,.59,0,.65-.59.65-.36,0-2.13-.12-7.32-.12Zm10.68-37.47v-7h-5v3.78c0,1.12,0,2.24-.06,3.24Zm13.92-5.49a33.92,33.92,0,0,0-.41-5.9c2.24.06,3.54.18,5.55.36.59.06.88.35.88.65a2,2,0,0,1-.23,1c-.24.47-.36,1.36-.36,3.89v7.32c0,3.6.12,5.25.12,5.61,0,.65-.06.7-.71.7h-4.31c-.59,0-.64,0-.64-.7,0-.36.11-2,.11-5.61ZM138,2052.16c0,3.07.06,5.73.06,7.79,0,1.83-.29,3-1.71,3.9-1.06.7-3.24,1.18-7.67,1.18-1.77,0-1.83,0-2.12-1.83a14.26,14.26,0,0,0-1.3-4,42.47,42.47,0,0,0,5,.36c1.71,0,2.18-.53,2.18-1.95V2041a39.15,39.15,0,0,0-.47-7.49c2.24.06,3.83.18,5.9.41.59.06.94.36.94.65a3.45,3.45,0,0,1-.35,1.36c-.3.65-.42,1.89-.42,5Z"/><path class="cls-2" d="M185.65,2050.33H165.06a79.82,79.82,0,0,0-8.85.36c-.65,0-.89-.3-.89-1-.18-1.6-.29-4.37-.29-6.32a82.93,82.93,0,0,0,9.85.42h17.53c3.06,0,6.19-.12,9.32-.24.94,0,1.24.24,1.18,1,0,3.13-.12,6.2-.12,9.33V2068c0,4.3.18,9,.24,10.68,0,.59-.24.76-1.07.82a37.46,37.46,0,0,1-5.19,0c-.94-.06-1.12-.11-1.12-1v-2.36h-20.3c-3.71,0-6.84.18-9.67.24-.54,0-.77-.24-.83-.89a55,55,0,0,1-.3-6.14c2.78.18,6.2.3,10.86.3h20.24Z"/><path class="cls-2" d="M222.25,2075.53V2079c0,1-.23,1.12-1.29,1.18-1.48.06-3.19.06-4.67,0-1-.06-1.29-.18-1.23-.88.05-3.07.17-7.26.17-11.75v-14.45c0-3.19.06-6.37-.12-9.8,0-.59.24-.82.65-.82,3.13.17,6.61.17,10.57.17h14c3.83,0,8.32,0,11.09-.11.65,0,.83.29.77,1.18,0,2.89-.06,6.07-.06,9.56v14.1c0,5.13.18,8,.3,11.21,0,.82-.3,1-1.13,1-1.77.06-3.65.06-5.42,0-.71,0-.77-.12-.77-.94v-3.13Zm22.9-26.61h-23v20.36h23Z"/><path class="cls-2" d="M305.89,2050.39c3.3,0,7.19-.06,10.26-.11.83-.06,1.06,0,1.12,1.06a29.43,29.43,0,0,1,0,4.6c0,.94-.23,1.12-1.12,1.12-2.12,0-6.61-.23-9.91-.23h-8.38c-.59,8.55-1.47,11.91-4,16.1a32.89,32.89,0,0,1-12.57,11.63,2.47,2.47,0,0,1-1.36.41,1.79,1.79,0,0,1-1.3-.59,16.22,16.22,0,0,0-4.95-3.24c6.67-3.19,10.56-6.32,13.39-10.68,2.3-3.54,3.31-7.38,3.6-13.63H279.27c-2.89,0-6.25.23-8.49.29-.77.06-.95-.24-1.06-1.12-.18-1.18-.3-3.66-.42-5.84,3.84.29,7.14.29,10,.29H291c0-2.95,0-6.13-.06-8.73a25.49,25.49,0,0,0-.71-6,43.92,43.92,0,0,1,7.85.83c.65.17.88.41.88.82a3.46,3.46,0,0,1-.41,1.3,11,11,0,0,0-.47,3.6c0,2.77,0,4.72-.06,8.08Z"/><path class="cls-2" d="M364,2044.79c2.77,0,3.66-.18,4.42-.65a1.4,1.4,0,0,1,.83-.3,1.93,1.93,0,0,1,1.3.59,28.62,28.62,0,0,1,4,3.66,1.25,1.25,0,0,1,.41.89,2,2,0,0,1-.59,1.3,6.51,6.51,0,0,0-1.3,2.89c-1.82,6.07-3.95,12-7.43,17.34A48.87,48.87,0,0,1,350.34,2085a1.71,1.71,0,0,1-.95.36,2.18,2.18,0,0,1-1.24-.6,20.28,20.28,0,0,0-5.9-2.65c8.32-4.6,12.93-8.67,16.88-14.69a48.83,48.83,0,0,0,6.84-16.47H340.31v5c0,2.36.11,4.78.17,7.14,0,.94-.17,1.12-.94,1.12a41,41,0,0,1-5.43,0c-.77,0-.94-.18-.94-.88.05-3,.11-5,.11-7.32v-4.78c0-1.89,0-4-.11-5.72-.06-.53.29-.77.82-.77,2.77.12,6,.18,9,.18h6v-2.3a31.7,31.7,0,0,0-.59-7.85,67.15,67.15,0,0,1,7.32.88c1.18.24,1.53.89,1.06,1.83a12.1,12.1,0,0,0-.71,4.55v2.83Z"/><path class="cls-2" d="M419.1,2071.4c0,4.07.06,7.55.17,12.27.06.77-.23,1-.88,1a52.78,52.78,0,0,1-5.9,0c-.65,0-.89-.24-.83-.95.06-4.25.24-8.08.24-12.09v-13.75a102.55,102.55,0,0,1-16.23,11.33,1.71,1.71,0,0,1-.88.23,1.62,1.62,0,0,1-1.24-.59,22.28,22.28,0,0,0-5.08-3.48,94.81,94.81,0,0,0,18.59-12.09A96.06,96.06,0,0,0,419.63,2041a17.18,17.18,0,0,0,3.72-6.07,51.54,51.54,0,0,1,6.55,4.13,1,1,0,0,1,.47.88,1.71,1.71,0,0,1-.83,1.3,19.44,19.44,0,0,0-3.54,3.24,91.91,91.91,0,0,1-6.9,7.44Z"/><path class="cls-2" d="M464.85,2045c1,.3,1.12,1,.76,1.83a8.65,8.65,0,0,0-.7,4c-.12,7.37-1.24,13-3.19,17.34a30.36,30.36,0,0,1-8.38,11.1,2.67,2.67,0,0,1-1.53.76,1.94,1.94,0,0,1-1.12-.47,21.35,21.35,0,0,0-5-2.48c4.6-3.48,7.73-7.08,9.8-11.74,1.65-4,2.42-7.26,2.47-16.7a15.6,15.6,0,0,0-.59-4.95A47.86,47.86,0,0,1,464.85,2045Zm13.1,25a60.41,60.41,0,0,0,8.38-5.48,56.71,56.71,0,0,0,10.32-10,17.09,17.09,0,0,0,1.83,6,2.89,2.89,0,0,1,.35,1c0,.41-.23.82-.88,1.47a75,75,0,0,1-8.73,7.73,98.49,98.49,0,0,1-10.51,7.08A20.79,20.79,0,0,0,477,2079a1.82,1.82,0,0,1-1.18.47,2.47,2.47,0,0,1-1.24-.47,17.24,17.24,0,0,1-3.54-3.6,2.36,2.36,0,0,1-.53-1.24,1.77,1.77,0,0,1,.24-.88c.41-.77.35-1.48.35-4.49v-18.46c0-5.14,0-7.56-.59-10.27a55.71,55.71,0,0,1,7.38,1.24c.76.17,1.06.53,1.06,1a3.89,3.89,0,0,1-.47,1.48c-.53,1.12-.53,2.3-.53,6.55Z"/><path class="cls-2" d="M538.62,2041.42c2.13,0,3.19-.05,4.08-.53a1,1,0,0,1,.64-.23,1.93,1.93,0,0,1,1,.47,21.42,21.42,0,0,1,3.83,4.13,1.53,1.53,0,0,1,.3.77,1.66,1.66,0,0,1-.77,1.18,10.77,10.77,0,0,0-2.18,2.59,92.49,92.49,0,0,1-7.56,11,138.29,138.29,0,0,1,16.35,14.28,1.35,1.35,0,0,1,.47.82,1.5,1.5,0,0,1-.41.89,31.71,31.71,0,0,1-4,4,1,1,0,0,1-.71.35,1.2,1.2,0,0,1-.83-.47,107.76,107.76,0,0,0-15.34-14.63,84.89,84.89,0,0,1-19.83,15.58,3.83,3.83,0,0,1-1.35.47,1.34,1.34,0,0,1-1-.53,16,16,0,0,0-4.95-3.84,71.84,71.84,0,0,0,20.77-15,72.61,72.61,0,0,0,11.09-14.81l-15.22,0c-3.07,0-6.14.12-9.33.36-.47.06-.65-.36-.76-1a34,34,0,0,1-.53-6.14c3.18.23,6.13.23,10,.23Z"/><path class="cls-2" d="M587.44,2036.35c.71.18,1.06.47,1.06.94,0,.83-.41,1.66-.41,2.48,0,1.18.18,2.6.3,4a84.36,84.36,0,0,0,1.88,10.15c3-1.6,5.08-2.72,8.38-4.49a14.5,14.5,0,0,0,4.07-3.19,30.26,30.26,0,0,1,4.31,5.55,2.35,2.35,0,0,1,.41,1.24c0,.59-.35,1.06-1.18,1.18a27.81,27.81,0,0,0-5.66,1.77,82.27,82.27,0,0,0-13.87,6.9c-5.13,3.37-7,6.14-7,8.91,0,3.49,2.6,5,9.38,5a102.59,102.59,0,0,0,18-1.36c.65-.11.94,0,1.06.71a51.29,51.29,0,0,1,.59,5.49c.06.65-.35.94-1.06,1a125.69,125.69,0,0,1-17.58.89c-11.16,0-17.06-3.66-17.06-11.33,0-6.55,4.31-10.86,11.21-15.23a90.09,90.09,0,0,1-3.06-14.39,26.58,26.58,0,0,0-1.54-6.85A34.2,34.2,0,0,1,587.44,2036.35Z"/><path class="cls-2" d="M641.69,2034.46c3.89,0,5.72-.06,6.08-.06.53,0,.59.06.59.59,0,.36-.12,1.89-.12,5.14V2046c0,3.24.12,4.78.12,5.13,0,.59-.06.65-.59.65-.36,0-2.19-.12-6.08-.12h-10v22c0,8.38.11,12.45.11,12.86s-.06.59-.65.59h-4.95c-.59,0-.65-.05-.65-.59s.12-4.48.12-12.86V2048c0-8.37-.12-12.62-.12-13,0-.53.06-.59.65-.59.41,0,2.65.06,7.08.06Zm-10,4.07v2.72h10.74v-2.72Zm10.74,6.43H631.72v2.6h10.74Zm8.67,34.17c-.18,1.59-.18,1.59-1.71,2-3.9.94-8.32,1.82-12.28,2.47a5.12,5.12,0,0,0-1.77.48,1.41,1.41,0,0,1-.76.29c-.3,0-.47-.24-.65-.77a25,25,0,0,1-1-4.19,44.67,44.67,0,0,0,4.78-.35c1.48-.18,3.07-.35,4.67-.59A41.76,41.76,0,0,0,644,2074a9.62,9.62,0,0,0,.47-2.6c1.42.29,3.42.77,4.55,1.12a.63.63,0,0,1,.47.59.84.84,0,0,1-.36.71,3.76,3.76,0,0,0-.71,1.12c-.29.77-.59,1.59-1.06,2.6,1.36-.3,2.66-.65,4-1.07A25.88,25.88,0,0,0,651.13,2079.13Zm-6.37-25c3.71,0,4.83-.12,5.19-.12.59,0,.65.06.65.65v3.13c0,.53-.06.59-.65.59-.36,0-1.48-.12-5.19-.12h-5.25c-3.72,0-4.84.12-5.2.12-.59,0-.65-.06-.65-.59v-3.13c0-.59.06-.65.65-.65.36,0,1.48.12,5.2.12Zm-.48,6.43c3.25,0,4.13-.12,4.49-.12.65,0,.71.06.71.65,0,.36-.12,1.12-.12,3.19v2.6c0,2.18.12,2.83.12,3.18,0,.59-.06.65-.71.65-.36,0-1.24-.12-4.49-.12h-4.36c-3.25,0-4.13.12-4.55.12-.59,0-.65-.06-.65-.65,0-.35.06-1,.06-3.18v-2.6c0-2.07-.06-2.77-.06-3.19,0-.59.06-.65.65-.65.42,0,1.3.12,4.55.12Zm-5.54,11.27c.77-.23.82-.18,1.12.41a22.34,22.34,0,0,1,1.59,3.84c.18.59.12.71-.65,1l-2.65,1c-.89.35-.83.23-1.06-.48a24.71,24.71,0,0,0-1.66-4c-.29-.59-.23-.65.53-.88Zm6.19-7.85h-5.54v3.19h5.54Zm8.85,1.83c.77-.41.83-.29,1.18.24a28.1,28.1,0,0,1,3.13,6.31c.24.59.24.65-.53,1.12l-2.36,1.42c-.65.35-.83.35-1-.3a27,27,0,0,0-3-6.55c-.36-.59-.3-.64.47-1.06Zm21.78,1.83c0,4.13.17,8.85.17,11.74s-.41,4.13-1.65,5.43c-1.12,1.07-3,1.6-8.14,1.6-1.77,0-1.77.05-2.18-1.83a23.26,23.26,0,0,0-.59-2.3c-1.07.76-2.84,1.06-6.44,1.12-1.65.06-1.65.06-1.94-1.54a10.42,10.42,0,0,0-1.12-3.3,28.54,28.54,0,0,0,4.07.18c1.59,0,1.83-.42,1.83-1.89v-13.28h-2.42c-3.84,0-5,.06-5.37.06-.59,0-.65-.24-.65-.83v-3.3c0-.59.06-.65.65-.65.35,0,1.53.12,5.37.12h2.42a38.22,38.22,0,0,0-.36-5.9c1.65.12,3.54.23,5.14.47.59.12.88.35.88.65a2.6,2.6,0,0,1-.35,1.06c-.24.47-.3.95-.3,2.95v.77c2,0,2.78-.12,3.07-.12.59,0,.65.06.65.65v3.54c0,.59-.06.59-.65.59-.29,0-1.12,0-3.07-.06V2067c0,6,.06,8.62.06,10.15a13,13,0,0,1-.29,3.42c1,.06,1.94.06,2.77.06,2,0,2.42-.47,2.42-2.3v-26.73h-9.91c-4.67,0-6.2.12-6.55.12-.59,0-.65-.06-.65-.65,0-.35.12-1.59.12-4.78v-6.55c0-3.18-.12-4.42-.12-4.78,0-.53.06-.59.65-.59.35,0,1.88.06,6.55.06h8.79c4.6,0,6.19-.06,6.61-.06.59,0,.65.06.65.59,0,.36-.12,2.78-.12,8Zm-17.29-29.15v2.72h11.27v-2.72Zm11.27,9V2045H658.27v2.6Z"/><path class="cls-2" d="M699.18,2051.34c5-1.65,9-3,13.51-3,7.91,0,12.45,5.37,12.45,14a23.09,23.09,0,0,1-4.78,14.1,33.22,33.22,0,0,1-11.39,9.39,2.77,2.77,0,0,1-1,.29,2,2,0,0,1-1.42-.77,14.38,14.38,0,0,0-4.89-3.12c6.49-3.07,10.5-6.38,13-9.86a17.28,17.28,0,0,0,3.24-10.44c0-4.9-2.06-7.44-5.48-7.44s-5.9.89-9.27,2.54a27.59,27.59,0,0,0-5,2.83,2.15,2.15,0,0,1-1.3.59c-.77,0-1.3-.76-1.65-1.3a39.94,39.94,0,0,1-3-6.19A31.1,31.1,0,0,0,699.18,2051.34Zm21.54-13.57a.84.84,0,0,1,.76,1.06,44.74,44.74,0,0,1-1.3,5.19c-.17.59-.35.89-.82.83a77.71,77.71,0,0,1-17.11-4.55c-.3-.11-.59-.41-.42-1.18a28.83,28.83,0,0,1,1.77-5.54A74.57,74.57,0,0,0,720.72,2037.77Z"/><path class="cls-2" d="M752,2078.83h34.81c5.67,0,7.67-.11,8.09-.11.59,0,.64.06.64.65V2084c0,.59,0,.65-.64.65-.42,0-2.42-.12-8.09-.12H752v1.89c0,.59-.06.64-.71.64h-5c-.59,0-.64-.05-.64-.64,0-.36.11-4.37.11-12.51v-25.55c0-8.09-.11-12.1-.11-12.45,0-.59.05-.65.64-.65.36,0,2.36.12,7.85.12h32.46c5.48,0,7.37-.12,7.73-.12.59,0,.64.06.64.65v4.66c0,.59-.05.65-.64.65-.36,0-2.25-.12-7.73-.12H752Zm11.5-15.93c-5.72,0-7.73.12-8.08.12-.59,0-.65-.06-.65-.65v-3.95c0-.53.06-.59.65-.59.35,0,2.36.12,8.08.12H770a44.94,44.94,0,0,0,.53-6H764a35,35,0,0,1-3.07,3.83c-.59.65-.95.95-1.3.95s-.71-.3-1.48-1a13.07,13.07,0,0,0-3.18-2.12,33.42,33.42,0,0,0,6.67-8.26,15.21,15.21,0,0,0,1.41-3.78,35.38,35.38,0,0,1,5.19,1.36c.48.18.77.35.77.77a1.06,1.06,0,0,1-.53.82,4.49,4.49,0,0,0-1,1.66,3.1,3.1,0,0,1-.42.76h14.52c5.25,0,7.08-.12,7.44-.12.58,0,.64.06.64.65v3.9c0,.65-.06.71-.64.71-.36,0-2.19-.12-7.44-.12h-5.19a48.85,48.85,0,0,1-.53,6h8.43c5.79,0,7.73-.12,8.09-.12.65,0,.71.06.71.59v3.95c0,.59-.06.65-.71.65-.36,0-2.3-.12-8.09-.12h-6.49c3.25,4.37,8.26,7.26,16.29,9.15a20.68,20.68,0,0,0-2.48,4.07c-.35.94-.53,1.3-1.06,1.3a6.19,6.19,0,0,1-1.36-.3c-7.08-2.18-12.09-5.72-15.69-11.21-2.54,5-7,8.62-14.58,11.21a6.2,6.2,0,0,1-1.41.42c-.48,0-.65-.36-1.12-1.3a12.27,12.27,0,0,0-2.78-3.54c8.26-2.36,12.69-5.14,14.87-9.8Z"/><path class="cls-2" d="M842.07,2051.51a20.35,20.35,0,0,0,3.66,3.9,27.63,27.63,0,0,0,2.24-2.07,9.45,9.45,0,0,0,1.36-1.77c1,.59,2.48,1.6,3.48,2.31.47.35.53.58.53.82a.81.81,0,0,1-.59.71,5.78,5.78,0,0,0-1.77,1.24l-1.53,1.3a33.79,33.79,0,0,0,7.55,3.12,13.9,13.9,0,0,0-2,3.19c-.47,1.06-.71,1.48-1.12,1.48a3.88,3.88,0,0,1-1.42-.54,38.33,38.33,0,0,1-4.48-2.3v5.73c0,3,.12,4.42.12,4.78,0,.59-.06.64-.71.64-.35,0-2.83-.11-7.73-.11h-1.89v2.53c0,2.19.06,3.72.06,5.61,0,2.24-.59,3.3-2,4-1.18.65-2.72.95-6.44.89-1.83.06-1.83.06-2.24-1.77a12.59,12.59,0,0,0-1.24-3.48,38.79,38.79,0,0,0,4.07.17c1.77,0,2.13-.47,2.13-1.71v-6.25h-2.42c-4.84,0-7.38.11-7.73.11-.59,0-.65-.05-.65-.64,0-.36.12-2.07.12-5.43v-4.25l-3.07,2a2.44,2.44,0,0,1-1,.47c-.3,0-.48-.24-.83-.83-.53-.77-1-1.36-1.42-1.89a60.77,60.77,0,0,1-1.06,8.2,37.52,37.52,0,0,1-5.9,13.69c-.47.65-.77,1-1.12,1s-.59-.3-1.12-1a15.77,15.77,0,0,0-3.36-3.24,28,28,0,0,0,6.19-12.81,40.11,40.11,0,0,0,.71-4.19c-1.12.65-2.24,1.24-3.36,1.83a7.61,7.61,0,0,0-1.83,1.18,1,1,0,0,1-.89.48c-.35,0-.59-.18-.71-.65a54.87,54.87,0,0,1-1.53-5.31,33.44,33.44,0,0,0,4.72-1.48,41.82,41.82,0,0,0,4-1.89c.06-2.3.12-4.84.12-7.79,0-9-.12-13-.12-13.39,0-.65.06-.71.65-.71.36,0,2.42.12,8.14.12h10.63v-.41a21.6,21.6,0,0,0-.48-4.55c2.25,0,4.19.12,6.32.3.59.06.94.29.94.65a2.92,2.92,0,0,1-.35,1.06,5.76,5.76,0,0,0-.3,2.3v.65h11.33c5.72,0,7.67-.12,8-.12.59,0,.59.06.59.71V2042c0,.59,0,.64-.59.64-.36,0-2.31-.11-8-.11h-15c1.6.23,3.31.53,4.72.82.59.12,1,.36,1,.71a1.33,1.33,0,0,1-.53,1.06,5.08,5.08,0,0,0-1.3,2h10.21c5.78,0,7.79-.12,8.14-.12.59,0,.65.06.65.65V2051c0,.53-.06.59-.65.59-.35,0-2.36-.12-8.14-.12Zm-36.94-8.37c.77-.42,1-.36,1.18.17a58.23,58.23,0,0,1,3.37,8.62c.17.59.12.76-.59,1.18l-2.6,1.53a2.08,2.08,0,0,1-.77.3c-.17,0-.29-.12-.41-.48a61.19,61.19,0,0,0-3.3-9c-.3-.54-.3-.59.47-1Zm22.6,33.33c.47.3.71.59.71,1s-.29.59-.77.88a8.37,8.37,0,0,0-1.29,1.12,33.21,33.21,0,0,1-7.14,5.49,3,3,0,0,1-1.42.59c-.41,0-.71-.35-1.42-1.18a14.76,14.76,0,0,0-2.83-2.65,31.15,31.15,0,0,0,7.85-4.61,10.8,10.8,0,0,0,2.3-2.65C825.14,2075.12,826.73,2075.88,827.73,2076.47Zm-1.65-25c-5.78,0-7.79.12-8.14.12-.59,0-.65-.06-.65-.59v-3.48c0-.59.06-.65.65-.65.35,0,2.36.12,8.14.12h3.84a16.08,16.08,0,0,0,1.35-4.54H815.52v10.09c0,3.36-.06,6.37-.24,9a49.17,49.17,0,0,0,5.19-3.18,29.65,29.65,0,0,0-3.3-3.54c-.47-.47-.29-.65.24-1.06l2-1.72a1.09,1.09,0,0,1,.59-.29.62.62,0,0,1,.53.29,38.08,38.08,0,0,1,3.48,3.37,21.46,21.46,0,0,0,3.43-4Zm.59,9.27v2.65h16v-2.65Zm16,6.61h-16v2.48h16Zm-2.42-10.86a25.83,25.83,0,0,1-3.66-5h-3.24a30.06,30.06,0,0,1-3.6,5Zm3.66,18.71c.65-.42.77-.54,1.24-.12a28.87,28.87,0,0,0,9.68,5.66,16.85,16.85,0,0,0-2.54,3.25c-.59.94-.89,1.35-1.3,1.35a4.33,4.33,0,0,1-1.42-.59,41.06,41.06,0,0,1-8.61-6.6c-.41-.42-.35-.71.3-1.13Z"/><path class="cls-2" d="M868.05,2070.46c0-1.72.06-4.13.12-6.2-1.06,1.06-2.24,2.12-3.36,3.07-.65.47-1.06.76-1.36.76s-.47-.35-.71-1.23a11.37,11.37,0,0,0-2-4.25,49.36,49.36,0,0,0,11.39-12.69,17.33,17.33,0,0,0,1.59-3.13,36.28,36.28,0,0,1,4.36,2.84c.54.41.77.65.77,1.12s-.12.59-.65.88a6.37,6.37,0,0,0-1.65,2,34.88,34.88,0,0,1-2.54,3.89v21.6c0,4.72.12,7,.12,7.32,0,.53-.06.59-.59.59h-4.9c-.59,0-.65-.06-.65-.59s.06-2.6.06-7.32ZM878,2036c.53.35.82.65.82,1.06a.81.81,0,0,1-.59.77,5.1,5.1,0,0,0-1.77,1.59,64,64,0,0,1-10.27,10.09c-.64.47-1.06.77-1.35.77s-.59-.42-1-1.36a14.14,14.14,0,0,0-2.53-3.6,42.76,42.76,0,0,0,10.32-9.38,15.43,15.43,0,0,0,1.83-2.72A36.2,36.2,0,0,1,878,2036Zm10,15.57c-5.61,0-7.62.12-8,.12-.53,0-.59-.06-.59-.59v-4.54c0-.59.06-.65.59-.65.35,0,2.36.12,8,.12h9.5a59.89,59.89,0,0,0,3.89-8.62,17.76,17.76,0,0,0,.94-3.66,56.44,56.44,0,0,1,6,1.66c.48.17.77.47.77.82a1.64,1.64,0,0,1-.47,1,6.16,6.16,0,0,0-1.3,1.88c-.89,1.89-1.89,4.07-3.48,6.91h1.77c5.66,0,7.61-.12,8-.12.59,0,.65.06.65.65v4.54c0,.53-.06.59-.65.59-.41,0-2.36-.12-8-.12h-6.26V2061h6c3.9,0,5.08-.11,5.43-.11.65,0,.71.06.71.7v4.49c0,.59-.06.65-.71.65-.35,0-1.53-.12-5.43-.12h-6v12.27a44.43,44.43,0,0,0,10.27,1c2.3,0,4.25-.06,6.49-.24A14.64,14.64,0,0,0,915,2084c-.23,1.89-.29,1.89-2.12,2-1.42,0-3,0-4.43-.06-12.92-.42-20.06-4.08-23.36-10.68a37.58,37.58,0,0,1-4.84,10.38c-.41.65-.71.94-1,.94s-.59-.29-1.13-.94a14.92,14.92,0,0,0-3.6-3.24c4.84-5.85,6.5-13,7.26-21a20.35,20.35,0,0,0,.12-4.25,52.38,52.38,0,0,1,5.43.65c.88.18,1.24.41,1.24.77a2.2,2.2,0,0,1-.41,1,5.53,5.53,0,0,0-.48,2.07c-.29,2.65-.65,5.25-1.12,7.67a15.87,15.87,0,0,0,6.85,7.43v-25.08Zm-.24-17.52c.59-.24.83-.24,1.18.24a39.41,39.41,0,0,1,4.6,7.61c.24.59.24.7-.47,1.06l-4,1.89c-.77.35-.89.41-1.18-.24a39,39,0,0,0-4.43-7.67c-.41-.53-.29-.71.36-1Z"/><path class="cls-2" d="M929.62,2070.28c-5.14,0-6.91.12-7.26.12-.53,0-.59-.06-.59-.65v-3.54c0-.59.06-.65.59-.65.35,0,2.12.12,7.26.12h15.81v-2.78h-9.74c-5.72,0-7.67.12-8,.12-.59,0-.65-.06-.65-.59v-3.24c0-.59.06-.65.65-.65.35,0,2.3.11,8,.11h9.74v-2.59h-7.61c-5.78,0-7.85.12-8.2.12-.65,0-.71-.06-.71-.71,0-.36.12-1.12.12-3.07v-3.19c0-1.94-.12-2.71-.12-3.06,0-.65.06-.71.71-.71.35,0,2.42.11,8.2.11h7.61V2043H930.56c-5.31,0-7.14.12-7.49.12-.59,0-.65-.06-.65-.65v-3.72c0-.59.06-.65.65-.65.35,0,2.18.12,7.49.12h14.87a28.66,28.66,0,0,0-.41-5.43c2.18.06,4.07.12,6.13.35.53.06,1,.3,1,.65a2.29,2.29,0,0,1-.36,1.13,9.25,9.25,0,0,0-.35,3.3h15c5.31,0,7.14-.12,7.49-.12.59,0,.65.06.65.65v3.72c0,.59-.06.65-.65.65-.35,0-2.18-.12-7.49-.12h-15v2.59h7.85c5.78,0,7.85-.11,8.26-.11.59,0,.65.06.65.71,0,.35-.12,1.12-.12,3.06v3.19c0,1.95.12,2.71.12,3.07,0,.65-.06.71-.65.71-.41,0-2.48-.12-8.26-.12h-7.85v2.59H961c5.78,0,7.85-.11,8.14-.11.59,0,.65.06.65.65,0,.35-.12,1.77-.12,5.13v1.36c3.48,0,4.84-.12,5.14-.12.53,0,.59.06.59.65v3.54c0,.59-.06.65-.59.65-.3,0-1.66-.06-5.14-.12v3c0,3.54.12,5.07.12,5.43,0,.59-.06.65-.65.65h-4.54c-.59,0-.65-.06-.65-.65v-1.3H951.45c.06,1.06.06,2.06.06,2.95,0,2.71-.53,4.31-2.13,5.25s-4.07,1.24-8.32,1.3c-1.77,0-1.77-.06-2.36-1.71a19.11,19.11,0,0,0-2.3-4.49,39.67,39.67,0,0,0,6,.24c2.54-.06,3.07-.47,3.07-2.18v-1.36h-9.68c-5.78,0-7.73.12-8.08.12-.59,0-.65-.06-.65-.71v-3.19c0-.65.06-.71.65-.71.35,0,2.3.12,8.08.12h9.68v-2.77Zm15.81-18v-3H934.75v3Zm16.88-3H951.39v3h10.92Zm-10.92,13.57v2.78H963.9v-2.78Zm12.51,10.15v-2.77H951.39v2.77Z"/><path class="cls-2" d="M994.54,2067.21c-2.89,1.3-5.78,2.6-8.79,3.78a5.19,5.19,0,0,1-1.3.41c-.47,0-.71-.41-1.3-1.48a14.24,14.24,0,0,0-2.59-3.42,121.64,121.64,0,0,0,23.72-10.26H989.64c-5.19,0-7,.11-7.31.11-.59,0-.65-.06-.65-.65v-4.24c0-.54.06-.59.65-.59.35,0,2.12.11,7.31.11h12.51v-5.66h-5.37c-5.31,0-7.14.12-7.49.12-.59,0-.65-.06-.65-.65v-4.19c0-.59.06-.65.65-.65.35,0,2.18.12,7.49.12h5.37v-.83a27.86,27.86,0,0,0-.47-6.08c2.24.06,4.37.18,6.37.42.59.06,1,.23,1,.59a2.9,2.9,0,0,1-.3,1.18c-.35.76-.41,1.89-.41,4.07v.65h1.77c5.31,0,7.08-.12,7.44-.12.64,0,.7.06.7.65v4.48a53.71,53.71,0,0,0,4.25-4.78,17,17,0,0,0,2.66-4.36,32.71,32.71,0,0,1,5.07,3,1.28,1.28,0,0,1,.71,1.06,1,1,0,0,1-.65.83,6.63,6.63,0,0,0-2.42,2.18,86,86,0,0,1-8.08,8h6.67c5.19,0,7-.11,7.37-.11.53,0,.59.05.59.59v4.24c0,.59-.06.65-.59.65-.35,0-2.18-.11-7.37-.11h-12.69c-2.36,1.65-4.72,3.18-7.2,4.66H1018c5,0,7.55-.12,7.9-.12.65,0,.71.06.71.71,0,.35-.12,2.12-.12,8v5.9c0,8.74.12,10.45.12,10.8,0,.53-.06.59-.71.59H1021c-.59,0-.65-.06-.65-.59v-1.89h-19.77v2.13c0,.59-.06.65-.65.65h-4.9c-.59,0-.65-.06-.65-.65,0-.3.12-2.3.12-11.1Zm6.08-1.42v4.31h19.77v-4.31Zm19.77,13.58v-4.49h-19.77v4.49Zm-2.89-33.93c-.36,0-2.13-.12-7.44-.12h-1.77V2051h3.3a56.07,56.07,0,0,0,6.26-5.54Z"/><path class="cls-2" d="M1073.34,2060a5.91,5.91,0,1,1-5.91-5.9A5.92,5.92,0,0,1,1073.34,2060Z"/><path class="cls-2" d="M1114.54,2053.52c0,6.55-.41,13.34-1.71,18.41a37.9,37.9,0,0,1-6.14,13.63c-.47.71-.76,1.06-1.06,1.06s-.65-.29-1.18-1a15.86,15.86,0,0,0-3.42-3.3,27.36,27.36,0,0,0,6.37-12.81,38.13,38.13,0,0,0,.77-4.9c-1.42.83-2.78,1.6-4.13,2.25a6.88,6.88,0,0,0-1.83,1.29,1.33,1.33,0,0,1-1,.48c-.29,0-.59-.24-.76-.71-.47-1.48-1-3.48-1.42-5.43a29.73,29.73,0,0,0,4.54-1.36c1.77-.76,3.49-1.53,5-2.3.06-1.65.06-3.42.06-5.31,0-10-.12-14.34-.12-14.69,0-.59.06-.65.65-.65.36,0,2.42.12,8.14.12h9.74v-.89a23.44,23.44,0,0,0-.41-4.72c2.18.06,4.19.18,6.31.36.59,0,.94.29.94.53a2.4,2.4,0,0,1-.35,1.18,6.4,6.4,0,0,0-.29,2.59v1h11.68c5.78,0,7.67-.12,8-.12.59,0,.65.06.65.65v4.31c0,.65-.06.7-.65.7-.35,0-2.24-.11-8-.11h-30.39Zm-11-10.56c.71-.3.82-.36,1.12.18a51.15,51.15,0,0,1,3.42,8.79c.18.59.18.76-.59,1.18l-3,1.77c-.83.47-.94.41-1.12-.24a74.37,74.37,0,0,0-3.3-9.32c-.24-.47-.3-.71.35-1Zm38.53,34.16c-.59.65-.65.65-1.12.12a71.68,71.68,0,0,0-6.67-6.61,22.63,22.63,0,0,1-5.78,6.91c-.65.53-1,.82-1.24.82s-.65-.41-1.24-1.18a18.94,18.94,0,0,0-2.19-2.06v4.66c0,4.19.12,6.14.12,6.43,0,.59-.06.65-.59.65h-4.66c-.65,0-.71-.06-.71-.65,0-.29.12-2.12.12-6.43v-14.34c0-4.31-.12-6.25-.12-6.61,0-.65.06-.71.71-.71.36,0,2.36.12,7.91.12h4.84c.06-1.71.11-3.36.11-5.07h-5.78c-5.66,0-7.67.12-8,.12-.53,0-.59-.06-.59-.65v-4.19c0-.59.06-.65.59-.65.35,0,2.36.12,8,.12h18.06c5.66,0,7.67-.12,8-.12.59,0,.65.06.65.65v4.19c0,.59-.06.65-.65.65-.35,0-2.36-.12-8-.12h-6.91c-.06,1.71-.06,3.36-.11,5.07h5.48c5.55,0,7.56-.12,7.91-.12.59,0,.65.06.65.71,0,.36-.12,2.6-.12,7.08v7.14c0,3.25.18,5.78.18,7.61,0,2.19-.42,3.43-1.42,4.37s-2.65,1.3-7.9,1.3c-1.77.06-1.77.06-2.19-1.77a9.75,9.75,0,0,0-1.36-3.42c1.83.11,3.6.17,5,.11s2-.41,2-2v-16h-8.56a22.52,22.52,0,0,1-.53,2.77,66.24,66.24,0,0,1,8.61,7.14c.48.47.48.59,0,1.18Zm-18.24-13.86v10.91a16.88,16.88,0,0,0,5.73-6,14.27,14.27,0,0,0,1.53-4.89Z"/><path class="cls-2" d="M1175,2034.93a2.69,2.69,0,0,0,1.18-.17,1.49,1.49,0,0,1,.77-.18c.41,0,.88.24,2.24,1.71s1.42,2,1.42,2.36a1.52,1.52,0,0,1-.53,1.06,4,4,0,0,0-1.12,2.3,74.83,74.83,0,0,1-4.55,11.69c4.61,5.78,5.08,9.2,5.08,13.45,0,4.66-2.25,7.79-7.67,8.26-1.83.12-1.83.12-2-1.71a6.87,6.87,0,0,0-1.24-3.54c3.72.18,5.31-1.06,5.31-4.13,0-2.89-.77-6.2-5.25-11.92a73.14,73.14,0,0,0,5-13.75h-5.91v33.4c0,8.08.12,12.33.12,12.69,0,.53-.06.59-.65.59h-4.66c-.59,0-.65-.06-.65-.59,0-.36.12-4.43.12-12.63v-25.55c0-8.32-.12-12.39-.12-12.81,0-.58.06-.64.65-.64.42,0,1.83.11,4.72.11Zm17.88,29.33c-.29,11.39-3.83,18.41-13.33,22.36a4.61,4.61,0,0,1-1.42.47c-.41,0-.65-.29-1.3-1.17a15.36,15.36,0,0,0-3.42-3.37c9.56-2.48,13.33-7.55,13.51-18.29-4.31.06-6,.12-6.25.12-.59,0-.65-.06-.65-.65v-4.19c0-.65.06-.71.65-.71.35,0,2.24.12,7.84.12h15.7c5.55,0,7.49-.12,7.85-.12.59,0,.65.06.65.71v4.19c0,.59-.06.65-.65.65-.36,0-2.3-.12-7.85-.12h-1.65v14.28c0,1.24,0,1.59.47,1.95s1.06.35,2.3.35c1.59,0,2-.18,2.42-.71.59-.82.65-2.06.77-6.25a12.42,12.42,0,0,0,4,1.47c1.54.3,1.54.42,1.48,2-.3,4.9-1.07,6.61-2.78,7.73s-3.66,1.36-7,1.36c-3,0-5-.24-5.84-.89-1.12-.77-1.71-1.89-1.71-4.84v-16.4Zm-.47-10.09c-4.49,0-6,.12-6.31.12-.59,0-.65-.06-.65-.65v-2.83h-4.37c-.65,0-.71-.06-.71-.65,0-.42.12-1.12.12-5.55V2043c0-1.71-.12-2.54-.12-3s.06-.59.71-.59c.35,0,2.36.12,7.91.12h3.6V2039a26.64,26.64,0,0,0-.42-5.73c2.19.06,4.19.24,6.2.48.59,0,.94.29.94.53a2.25,2.25,0,0,1-.29,1.12c-.3.65-.36,1.41-.36,3.48v.71h5c5.55,0,7.55-.12,7.91-.12.65,0,.7.06.7.59,0,.35-.11,1.24-.11,2.54v2.06c0,4.43.11,5.13.11,5.55,0,.59,0,.65-.7.65h-4.37v2.83c0,.59-.06.65-.65.65-.35,0-1.83-.12-6.25-.12Zm-6.2-5.25c.48,0,2,.12,6.2.12h7.91c4,0,5.54-.06,6.07-.12v-4.31h-20.18Z"/><path class="cls-2" d="M1219.73,2038.65c0-.59.06-.65.65-.65.29,0,2,.12,6.43.12a21.55,21.55,0,0,0-.35-4.48c1.88.06,3.83.17,5.42.35.54.06.77.24.77.53a1.83,1.83,0,0,1-.29.89,6.83,6.83,0,0,0-.3,2.71h5.31a34.75,34.75,0,0,0-.29-4.48c1.83.06,3.77.17,5.43.35.47.06.7.18.7.53a2.35,2.35,0,0,1-.23.83,6.48,6.48,0,0,0-.3,2.77c4.07,0,5.67-.12,6-.12.59,0,.65.06.65.65v3.48c0,.65-.06.71-.65.71-.35,0-2-.06-6-.12,0,1.89.12,2.66.12,3,0,.53-.06.59-.65.59h-4.25c-.59,0-.65-.06-.65-.59,0-.35.06-1.06.12-3h-5.31c0,1.89.12,2.72.12,3,0,.59-.06.65-.65.65h-4.19c-.59,0-.65-.06-.65-.65,0-.29.06-1.12.12-3-4.43.06-6.14.12-6.43.12-.59,0-.65-.06-.65-.71Zm40.83,13.16a89,89,0,0,1-1.65,16.34,45.62,45.62,0,0,1-8,17.82c-.47.59-.76.89-1.06.89s-.65-.36-1.18-1a14.82,14.82,0,0,0-3.72-3.48l1.18-1.24-1,.17c-6.49,1.3-13.63,2.48-20.3,3.42a11,11,0,0,0-2,.48,2.78,2.78,0,0,1-1.12.29c-.36,0-.65-.35-.83-.94-.35-1.54-.65-3.25-.94-4.9,2.3-.06,3.6-.12,5.9-.35,1.71-.18,3.83-.36,6.13-.65v-3.9h-1.89c-4.72,0-6.25.12-6.6.12-.65,0-.71-.06-.71-.71v-3.12c0-.65.06-.71.71-.71.35,0,1.88.12,6.6.12h1.89v-3h-2.42c-5,0-6.55.12-6.9.12-.65,0-.71-.06-.71-.65v-3.48c0-.53.06-.59.71-.59.35,0,2,.12,6.9.12h2.42V2060h-2.53c-5,0-6.73.12-7.14.12-.59,0-.65-.06-.65-.71,0-.35.11-1.36.11-3.72v-3.71c0-2.48-.11-3.48-.11-3.84,0-.59.06-.65.65-.65.41,0,2.12.12,7.14.12h10.5c5,0,6.73-.12,7.08-.12.65,0,.71.06.71.65,0,.36-.12,1.36-.12,3.84v3.71c0,2.36.12,3.37.12,3.72,0,.65-.06.71-.71.71-.35,0-2.07-.12-7.08-.12h-2.6V2063h2.42c5,0,6.55-.12,6.91-.12.59,0,.64.06.64.59V2067c0,.59,0,.65-.64.65-.36,0-2-.12-6.91-.12h-2.42v3h1.89c4.72,0,6.31-.12,6.67-.12.59,0,.65.06.65.71v3.12c0,.65-.06.71-.65.71-.36,0-1.95-.12-6.67-.12h-1.89v3.13c3.37-.47,6.91-1.06,10.21-1.71a25.12,25.12,0,0,0-.47,3,6.69,6.69,0,0,0-.06,1,34.31,34.31,0,0,0,6.25-13.57,80.14,80.14,0,0,0,1.54-14.75c-3.42.06-4.66.12-5,.12-.59,0-.65-.06-.65-.59V2047c0-.59.06-.65.65-.65.3,0,1.59.12,5.08.12v-4.6a68.12,68.12,0,0,0-.36-8.26c2.13.06,3.9.17,6,.41.53.06.89.3.89.59a5,5,0,0,1-.42,1.47,36.25,36.25,0,0,0-.23,6c0,1.48,0,3-.06,4.43h4.19c4.6,0,6.14-.12,6.49-.12.59,0,.71.12.71.71-.06,2.07-.12,3.89-.12,5.78-.06,10-.41,19.89-1.48,26.85-.7,4.6-2.89,6.49-7.37,6.49-1.24,0-2.19-.06-3.19-.12-1.36-.11-1.36-.11-1.65-2a14.63,14.63,0,0,0-1.24-4,33.74,33.74,0,0,0,4.9.48c1.83,0,2.54-.77,3-3.78.88-5.72,1.29-14.81,1.35-24.9Zm-28.62,4.25v-4.49h-5v4.49Zm10.57-4.49h-5.2v4.49h5.2Z"/><path class="cls-2" d="M1316.28,2070.81c-2.12,7.08-6.67,12-13.69,15.46a4.79,4.79,0,0,1-1.41.47c-.48,0-.71-.35-1.3-1.36a12,12,0,0,0-2.78-3.36c6.26-2.06,10.92-5.49,13.16-11.21h-1c-5.25,0-7,.12-7.32.12-.65,0-.7-.06-.7-.65v-3.84c0-.65,0-.7.7-.7.36,0,2.07.11,7.32.11h2.24c.12-.71.18-1.47.24-2.3a26.15,26.15,0,0,0-.06-3,43.3,43.3,0,0,1-4.54,1.54c-1.36.35-1.42.29-2-1.07a18.84,18.84,0,0,0-1.59-2.89,32.73,32.73,0,0,1-2.6,5.9c-.53.89-.71,1.24-1,1.24a2.8,2.8,0,0,1-1.07-.47,15.49,15.49,0,0,0-3.48-1.41,30.59,30.59,0,0,0,3-5.91h-3.36v15.35c0,2.65.18,5.07.18,7.43s-.36,3.78-1.89,5.08c-1.06.82-2.54,1.17-7,1.17-1.78,0-1.78-.05-2.19-1.82a10.42,10.42,0,0,0-1.59-3.78,34.7,34.7,0,0,0,4.84.29c1.65,0,2.06-.47,2.06-1.71V2069.1c0-1.83,0-3.66.06-5.49a40,40,0,0,1-6.9,12.16c-.53.59-.89.94-1.24.94s-.65-.35-1.06-1.12a11.42,11.42,0,0,0-2.42-3.13c4.07-3.83,7.43-9.67,9.5-15h-.65c-5,0-6.61.12-7,.12-.59,0-.65-.06-.65-.71V2053c0-.65.06-.71.65-.71.35,0,2,.12,7,.12h3.24a67.56,67.56,0,0,0-6.66-5.49c-.24-.17-.42-.35-.42-.47s.18-.29.47-.59l2.42-2.06c.59-.54.77-.54,1.3-.18l3.54,2.54a45.42,45.42,0,0,0,4.55-5.37h-7.56c-4.66,0-6.19.11-6.55.11-.59,0-.65-.05-.65-.65V2036c0-.59.06-.65.65-.65.36,0,1.89.11,6.55.11h10.21a2.71,2.71,0,0,0,1.18-.23,2.18,2.18,0,0,1,.83-.24c.47,0,1,.36,2.24,1.66s1.59,1.94,1.59,2.53a1.41,1.41,0,0,1-.82,1.12,10.44,10.44,0,0,0-1.66,1.77,50.77,50.77,0,0,1-6.6,7.44c.47.47.94,1,1.47,1.47s.41.59-.23,1.12l-.36.3h3.72a2,2,0,0,0,1.12-.24,1.74,1.74,0,0,1,.77-.17c.35,0,.94.29,2.06,1.35,1.42,1.3,1.71,1.89,1.71,2.42s-.11.65-.59,1.07a1.34,1.34,0,0,0-.41.41,33.48,33.48,0,0,0,9.91-3.84,30,30,0,0,1-4.6-5.66l-2.48,2.83c-.47.53-.77.77-1.12.77s-.59-.24-1-.77a12.84,12.84,0,0,0-3.37-2.71,33.83,33.83,0,0,0,8.68-11.39,14.89,14.89,0,0,0,1.3-3.84c1.71.3,4,.83,5.42,1.18.54.12.83.36.83.77a1.09,1.09,0,0,1-.59.88,5,5,0,0,0-1.18,1.66c-.29.59-.53,1.18-.82,1.71h10c4.6,0,6.07-.12,6.43-.12.59,0,.65.06.65.65v3.83c0,.6-.06.65-.65.65-.3,0-1.24,0-3.66-.11a27.12,27.12,0,0,1-5.43,9.56,29.37,29.37,0,0,0,11.39,3.89,15.54,15.54,0,0,0-2,4.13c-.71,1.77-.71,1.77-2.48,1.3a37.76,37.76,0,0,1-11.09-5.61,29.94,29.94,0,0,1-5.19,3c1.53.12,3.07.3,4.48.47.71.12,1.07.36,1.07.71a1.85,1.85,0,0,1-.48,1.18,5.25,5.25,0,0,0-.53,2.42l-.17,1.06h4.36c5.31,0,7.14-.11,7.49-.11.6,0,.71.17.71.76l-.23,3.6c-.36,5.78-.65,9.5-1.95,12-1.06,2.42-2.77,4-6.61,4-1,0-2.12,0-3.36-.06-1.65-.12-1.65-.12-2.07-2.06a17,17,0,0,0-1.29-3.72,30.74,30.74,0,0,0,5.07.53c1.47,0,2.24-.24,2.83-1.24.83-1.41,1.18-4.6,1.48-8.79Zm-3.24-27.08a24.34,24.34,0,0,0,4.89,6.37,18.25,18.25,0,0,0,3.84-6.37Z"/><path class="cls-2" d="M1351.88,2067.21c-2.89,1.3-5.78,2.6-8.79,3.78a5.19,5.19,0,0,1-1.3.41c-.47,0-.71-.41-1.3-1.48a14.24,14.24,0,0,0-2.59-3.42,121.64,121.64,0,0,0,23.72-10.26H1347c-5.19,0-7,.11-7.31.11-.59,0-.65-.06-.65-.65v-4.24c0-.54.06-.59.65-.59.35,0,2.12.11,7.31.11h12.51v-5.66h-5.37c-5.31,0-7.14.12-7.49.12-.59,0-.65-.06-.65-.65v-4.19c0-.59.06-.65.65-.65.35,0,2.18.12,7.49.12h5.37v-.83a27.86,27.86,0,0,0-.47-6.08c2.24.06,4.37.18,6.37.42.59.06.95.23.95.59a2.9,2.9,0,0,1-.3,1.18c-.35.76-.41,1.89-.41,4.07v.65h1.77c5.31,0,7.08-.12,7.44-.12.64,0,.7.06.7.65v4.48a53.71,53.71,0,0,0,4.25-4.78,17,17,0,0,0,2.66-4.36,32.71,32.71,0,0,1,5.07,3,1.28,1.28,0,0,1,.71,1.06,1,1,0,0,1-.65.83,6.63,6.63,0,0,0-2.42,2.18,86,86,0,0,1-8.08,8h6.67c5.19,0,7-.11,7.37-.11.53,0,.59.05.59.59v4.24c0,.59-.06.65-.59.65-.35,0-2.18-.11-7.37-.11h-12.69c-2.36,1.65-4.72,3.18-7.2,4.66h11.51c5,0,7.55-.12,7.9-.12.65,0,.71.06.71.71,0,.35-.12,2.12-.12,8v5.9c0,8.74.12,10.45.12,10.8,0,.53-.06.59-.71.59h-4.89c-.59,0-.65-.06-.65-.59v-1.89H1358v2.13c0,.59-.06.65-.65.65h-4.9c-.59,0-.65-.06-.65-.65,0-.3.12-2.3.12-11.1Zm6.08-1.42v4.31h19.77v-4.31Zm19.77,13.58v-4.49H1358v4.49Zm-2.89-33.93c-.36,0-2.13-.12-7.44-.12h-1.77V2051h3.3a56.07,56.07,0,0,0,6.26-5.54Z"/><path class="cls-2" d="M1431.21,2073.94c0,.65-.36.94-1.13,1.06a31.51,31.51,0,0,1-4.18.29c-.54,0-.77-.35-.77-.94,0-2.12,0-5.07.06-7.2-5.25,2.72-7.14,5-7.14,7.85,0,2.48,2,4.07,8.2,4.07a100.62,100.62,0,0,0,14.69-1.18c.53-.06.77.12.83.65a26.86,26.86,0,0,1,.53,4.84c.06.71-.18,1.12-.65,1.12a104.73,104.73,0,0,1-14.63.77c-9.68,0-14.81-2.89-14.81-9.74,0-5.66,3.54-9.79,12.45-14.4-.18-3-.89-4.19-3.54-4.07s-5.43,1.89-8.15,4.25a81.9,81.9,0,0,0-5.9,6.43c-.29.35-.47.53-.71.53a1.19,1.19,0,0,1-.64-.41,28.27,28.27,0,0,1-3.37-3.9,1,1,0,0,1-.23-.53c0-.23.11-.41.41-.64a60.52,60.52,0,0,0,12.33-14.64c-2.77.12-6,.18-9.44.18-.53,0-.71-.3-.83-.95-.17-.94-.41-3.12-.59-4.89a133.73,133.73,0,0,0,13.58-.06,46.89,46.89,0,0,0,1.77-5.08,14.61,14.61,0,0,0,.41-3.6,38.1,38.1,0,0,1,6.73,1.66,1,1,0,0,1,.7,1,1.11,1.11,0,0,1-.41.88,4.66,4.66,0,0,0-1,1.42c-.36.83-.65,1.59-1.36,3.19a97.91,97.91,0,0,0,10.74-1.83c.65-.12.83.06.94.59a19.58,19.58,0,0,1,.59,4.25c.06.59-.17.82-1,.94-4.43.65-9.5,1.3-13.81,1.77a59.82,59.82,0,0,1-4.42,6.55l.06.12a11.69,11.69,0,0,1,5.9-1.83c3.89,0,6.61,1.77,7.2,6.37,2.3-1.06,5.66-2.59,8.67-4.13a17.54,17.54,0,0,0,4.48-3.19,35.29,35.29,0,0,1,4.13,5.2,2.29,2.29,0,0,1,.48,1.29c0,.48-.3.71-.89.83a18.58,18.58,0,0,0-3.6.89c-3.83,1.35-7.67,2.65-12.68,4.72Z"/><path class="cls-2" d="M1466.51,2047.5c-5.31,0-7.14.12-7.49.12-.59,0-.65-.06-.65-.65v-4.66c0-.65.06-.71.65-.71.35,0,2.18.12,7.49.12h14.16v-.94a42.47,42.47,0,0,0-.47-7.56c2.12.06,4.66.18,6.73.42.53.06.94.35.94.65a3,3,0,0,1-.41,1.23,16.79,16.79,0,0,0-.36,4.67v1.53h15.05c5.31,0,7.14-.12,7.49-.12.59,0,.65.06.65.71V2047c0,.59-.06.65-.65.65-.35,0-2.18-.12-7.49-.12H1487.1v7.32h8.62a4.69,4.69,0,0,0,1.71-.24,1.89,1.89,0,0,1,.77-.23c.41,0,.88.35,2.36,1.83,1.35,1.29,1.83,2,1.83,2.53s-.3.65-.83,1.07a4.83,4.83,0,0,0-1.42,1.59,54,54,0,0,1-10.79,12.57c5.9,3.3,13.1,5.31,22,6.66a20.82,20.82,0,0,0-2.54,4.73c-.41,1.17-.59,1.53-1.24,1.53a7.06,7.06,0,0,1-1.3-.18c-9.08-2.06-16.4-4.78-22.36-8.73-5.9,3.72-12.92,6.49-21.36,8.67a4.56,4.56,0,0,1-1.3.24c-.59,0-.77-.41-1.18-1.53a16.06,16.06,0,0,0-2.42-4.19c8.67-1.77,15.64-4,21.3-7.09a41.52,41.52,0,0,1-9.56-13.63c-4,.06-5.54.12-5.84.12-.59,0-.65-.06-.65-.65v-4.54c0-.59.06-.65.65-.65.36,0,2.3.12,8,.12h9.14v-7.32Zm9.62,12.92a33.91,33.91,0,0,0,8.14,10,37,37,0,0,0,8.74-10Z"/><path class="cls-2" d="M1529.55,2067.68c0,5.67.18,8.79.18,11.74,0,3.25-.48,4.84-1.83,5.85s-3.19,1.29-6.79,1.29c-1.83.06-1.95.06-2.24-1.77a14.72,14.72,0,0,0-1.42-4.25,35.37,35.37,0,0,0,5.08.18c.82,0,1.24-.35,1.24-1.65v-11.74l-2.3.71a7.85,7.85,0,0,0-2.07,1,1.58,1.58,0,0,1-1,.35c-.36,0-.59-.23-.77-.7-.35-1.54-.71-3.55-1-5.61a38.16,38.16,0,0,0,5.48-1.12l1.66-.47V2050h-1.07c-3.65,0-4.77.12-5.07.12-.59,0-.65-.06-.65-.65v-4.31c0-.59.06-.65.65-.65.3,0,1.42.12,5.07.12h1.07v-3.13a66.13,66.13,0,0,0-.42-8.38c2.13.06,4,.18,6,.42.59.06,1,.41,1,.65a3,3,0,0,1-.42,1.23c-.35.71-.35,2-.35,6v3.25c3,0,4-.12,4.42-.12.59,0,.65.06.65.65v4.31c0,.59-.06.65-.65.65-.41,0-1.41-.12-4.42-.12v9.44c1.47-.53,3-1.18,4.6-1.83a28.35,28.35,0,0,0-.29,4.25c0,1.53-.18,1.59-1.24,2.06s-2,.89-3.07,1.3Zm31.39-2.18a2.82,2.82,0,0,0,1.24-.24,1.62,1.62,0,0,1,.77-.17c.47,0,1,.35,2.06,1.59s1.48,1.77,1.48,2.24c0,.3-.24.59-.65.83a4.81,4.81,0,0,0-1.54,1.77,45,45,0,0,1-5.72,6.72,49.53,49.53,0,0,0,12.63,3.72,13.13,13.13,0,0,0-1.83,3.66c-.65,1.77-.65,1.77-2.42,1.3a47,47,0,0,1-12.69-5.14,39.14,39.14,0,0,1-11.21,5.31,4.45,4.45,0,0,1-1.36.36c-.53,0-.65-.41-1.12-1.36a12.9,12.9,0,0,0-2.18-3.13,37.64,37.64,0,0,0,11.45-4.42,35.64,35.64,0,0,1-5.08-5.61,37.56,37.56,0,0,1-9.5,12.4c-.65.53-1,.82-1.3.82s-.64-.35-1.12-1a12.64,12.64,0,0,0-2.83-2.83c6.49-4.78,10.74-11.69,12.75-20.07-4.31.06-6,.12-6.32.12-.59,0-.65-.06-.65-.71v-3.83c0-.59.06-.65.65-.65.36,0,2.19.12,7.26.12.12-1,.18-2.13.24-3.19-4.84,0-6.67.12-7,.12-.59,0-.64-.06-.64-.71v-3.36c0-.59.05-.65.64-.65.36,0,2.25.12,7.67.12h12.69a46.82,46.82,0,0,0,3.19-6.44,19.19,19.19,0,0,0,.88-3.18,34.06,34.06,0,0,1,5.25,1.41,1.06,1.06,0,0,1,.77.83,1.23,1.23,0,0,1-.53.89,2.93,2.93,0,0,0-.94,1.12c-1,1.83-1.66,3.36-2.84,5.37,3.84,0,5.37-.12,5.73-.12.59,0,.65.06.65.65v3.36c0,.65-.06.71-.65.71-.42,0-2.3-.12-7.73-.12h-11.45c-.12,1.12-.24,2.18-.41,3.19H1562c5.55,0,7.5-.12,7.85-.12.53,0,.59.06.59.65v3.83c0,.65,0,.71-.59.71-.35,0-2.3-.12-7.85-.12h-13.63c-.23,1.13-.53,2.19-.82,3.25Zm7-29.39c.36.36.65.65.65,1s-.47.71-1.24.71a17.14,17.14,0,0,0-2.59.35,220.62,220.62,0,0,1-25,3c-1.89.12-2.07.18-2.66-1.59a12.86,12.86,0,0,0-1.71-3.25,129.05,129.05,0,0,0,25.31-2.36,14.27,14.27,0,0,0,3.31-1.12A30.78,30.78,0,0,1,1568,2036.11Zm-25.84,5.43c.76-.29.88-.23,1.24.24a27.14,27.14,0,0,1,2.71,5c.24.59.18.7-.59,1l-3.24,1.36c-.77.29-1,.29-1.19-.36a19.86,19.86,0,0,0-2.47-5.07c-.42-.53-.36-.59.41-.89Zm5.9,28.15a25.13,25.13,0,0,0,5.9,5.84,25.83,25.83,0,0,0,4.9-5.84Zm4.31-21c-.83.36-.95.36-1.19-.35a34.63,34.63,0,0,0-2.53-5.67c-.24-.41,0-.59.82-.88l2.66-1c.83-.36,1-.24,1.3.23a27.08,27.08,0,0,1,2.71,5.37c.18.53.12.71-.59,1Z"/><path class="cls-2" d="M1603.21,2038.89a19,19,0,0,0-.71-4.31,59,59,0,0,1,6.9.83c1,.17,1.66.59,1.66,1.12a2.45,2.45,0,0,1-.54,1.35,6.64,6.64,0,0,0-.47,1.72c-.06.76-.06,1.53-.12,3.77,6.38-.23,12.46-.29,18.12-.29.71,0,.83.11.88.88.06,1.48.06,3,0,4.49,0,.65-.29.82-1,.76-6.13-.17-11.86-.17-18-.11,0,3.59,0,7.37.06,11a18.35,18.35,0,0,1,.89,5.84,22,22,0,0,1-10.5,19.06,5.61,5.61,0,0,1-2.31,1.12,3.35,3.35,0,0,1-1.77-.88,13.09,13.09,0,0,0-4.48-2.36c6.9-3.07,11-8,12.1-13-1.18,1.71-3.6,2.36-5.55,2.36-4.66,0-8.2-3.37-8.2-9a8.6,8.6,0,0,1,8.91-8.85,7.18,7.18,0,0,1,4.48,1.18c0-2.07-.06-4.07-.06-6-7.43.41-15.75,1.12-20.41,1.77-1.3.18-2.25.71-2.78.71s-.82-.24-1-.83a41.44,41.44,0,0,1-1.47-6,38.18,38.18,0,0,0,7.19-.24c3.6-.29,11.22-.76,18.3-1.17C1603.27,2042,1603.27,2040.48,1603.21,2038.89Zm-7.55,23.9a3.66,3.66,0,0,0,3.77,4,3.79,3.79,0,0,0,4-4.07,3.54,3.54,0,0,0-3.89-3.78A3.75,3.75,0,0,0,1595.66,2062.79Z"/><path class="cls-2" d="M1659.4,2057.71a17.77,17.77,0,0,1,9.38-2.66c8.62,0,14.64,5.67,14.64,14.17,0,9.85-8,16.16-20.6,16.16-7.43,0-11.92-3.18-11.92-8.67,0-3.95,3.72-7.2,8.32-7.2,5.55,0,9.62,2.95,11.1,8.62,4.13-1.89,6-4.49,6-9,0-5.37-3.78-8.91-9.27-8.91-4.89,0-10.32,2.18-15.1,6.25-1.71,1.54-3.37,3.25-5.14,5-.41.41-.7.65-1,.65a1.48,1.48,0,0,1-.89-.53,27.89,27.89,0,0,1-3.48-3.84c-.35-.47-.17-.88.3-1.36a140.93,140.93,0,0,0,14-13c3.66-3.77,6.44-6.72,9.15-10.09-3.54.65-7.73,1.48-11.39,2.24a19.42,19.42,0,0,0-2.48.71,4.18,4.18,0,0,1-1.18.3,1.35,1.35,0,0,1-1.3-1,28.13,28.13,0,0,1-2.06-6.37,28,28,0,0,0,5.49.12c3.6-.35,8.79-1.12,13.39-2a15.7,15.7,0,0,0,3.25-.88,2.92,2.92,0,0,1,1.12-.47,2.05,2.05,0,0,1,1.35.47,22.72,22.72,0,0,1,4,3.78,2,2,0,0,1,.65,1.41,1.58,1.58,0,0,1-1,1.42,9.36,9.36,0,0,0-2.59,1.89c-4.31,4.19-8.26,8.32-12.75,12.62Zm.06,16.82c-1.71,0-2.83,1-2.83,2.24,0,1.83,1.59,3.07,5.13,3.07a12.81,12.81,0,0,0,2.72-.24C1663.71,2076.36,1661.94,2074.53,1659.46,2074.53Z"/><path class="cls-2" d="M1749.76,2031.75V2035h-15v48.27h-3.54v-51.51Z"/><path class="cls-2" d="M1785.18,2051.75c-1.12-6.37-4.42-9.68-9.62-9.68-6.78,0-11.5,5.9-11.5,17.59s4.84,17.58,11.5,17.58c5.49,0,8.8-3.13,10.09-9.79l7.5,2.3c-2.42,9.44-8.32,13.63-17.64,13.63-11.87,0-19.89-8.56-19.89-23.66s8.08-23.78,19.89-23.78c9.38,0,15.51,5.25,17.4,13.92Z"/><path class="cls-2" d="M1817.54,2036.76c11.15,0,16.22,4.49,16.22,12.45,0,5.67-3.18,9.86-9.08,11.63l10.56,21.71h-8.56l-9.26-20.53c-.65,0-1.3.06-2.07.06h-6.49v20.47h-7.78v-45.79Zm-8.68,19.42h8c6.26,0,9-2.6,9-6.85,0-4.07-2.3-6.61-8.62-6.61h-8.32Z"/><path class="cls-2" d="M1850.9,2082.55h-8v-45.79h8Z"/><path class="cls-2" d="M1884.49,2049.51c-1.18-5-3.89-7.5-8.14-7.5-4.84,0-7.61,2.31-7.61,6,0,4,1.77,5.85,8.38,7.67l2.42.71c10.44,2.84,13.39,6.79,13.39,13.52,0,8-5.54,13.57-16.52,13.57-8.91,0-15.11-3.9-17.29-11.86l7.61-2.42c1.18,5.31,4.66,8.26,9.5,8.26,6,0,8.74-2.6,8.74-6.55s-1.42-5.78-8.91-7.91l-2.36-.71c-9.74-2.89-12.87-6.72-12.87-13.75s5.43-12.5,15.29-12.5c8,0,13.68,3.77,16.1,11.38Z"/><path class="cls-2" d="M1918,2036.76c11.27,0,16.35,4.66,16.35,13.1s-5.85,13.46-16.82,13.46h-7.73v19.23h-8v-45.79Zm-8.2,20.6h7.49c6.08,0,9-2.78,9-7.44s-2.66-7.2-8.73-7.2h-7.79Z"/><path class="cls-2" d="M2000.39,2051.75c-1.12-6.37-4.43-9.68-9.62-9.68-6.79,0-11.51,5.9-11.51,17.59s4.84,17.58,11.51,17.58c5.49,0,8.79-3.13,10.09-9.79l7.49,2.3c-2.42,9.44-8.32,13.63-17.64,13.63-11.86,0-19.88-8.56-19.88-23.66s8.08-23.78,19.88-23.78c9.38,0,15.52,5.25,17.41,13.92Z"/><path class="cls-2" d="M2053,2059.66c0,15.1-7.9,23.78-19.65,23.78s-19.59-8.56-19.59-23.66,8-23.78,19.65-23.78S2053,2044.49,2053,2059.66Zm-30.8.06c0,11.68,4.49,17.58,11.21,17.58s11.15-5.9,11.15-17.58-4.42-17.59-11.15-17.59S2022.18,2048,2022.18,2059.72Z"/><path class="cls-2" d="M2097.08,2082.55h-9.74l-11.09-23.6c-2.65-5.72-4.48-10-6.55-15.11h-.82c.29,5.43.41,10.86.41,16.53v22.18H2062v-45.79h12l9.5,20.3a139.29,139.29,0,0,1,6.08,15.7h.82c-.35-5.61-.59-10.62-.59-16.76v-19.24h7.32Z"/><path class="cls-2" d="M2143.72,2082.55H2134l-11.09-23.6c-2.66-5.72-4.49-10-6.55-15.11h-.83c.3,5.43.41,10.86.41,16.53v22.18h-7.31v-45.79h12l9.5,20.3a141.09,141.09,0,0,1,6.07,15.7h.83c-.35-5.61-.59-10.62-.59-16.76v-19.24h7.32Z"/><path class="cls-2" d="M2185.45,2043.08h-22.24v12.09H2180v6.32h-16.81v14.75h22.72v6.31h-30.69v-45.79h30.21Z"/><path class="cls-2" d="M2221.05,2051.75c-1.12-6.37-4.42-9.68-9.61-9.68-6.79,0-11.51,5.9-11.51,17.59s4.84,17.58,11.51,17.58c5.48,0,8.79-3.13,10.09-9.79l7.49,2.3c-2.42,9.44-8.32,13.63-17.64,13.63-11.86,0-19.89-8.56-19.89-23.66s8.09-23.78,19.89-23.78c9.38,0,15.52,5.25,17.4,13.92Z"/><path class="cls-2" d="M2268.46,2043.19h-13.63v39.36h-8v-39.36h-13.51v-6.43h35.17Z"/><path class="cls-2" d="M2273.2,2088.28V2085h15v-48.27h3.54v51.52Z"/><path class="cls-2" d="M42.88,2129.5c.65.35.88.71.88,1.18a3.14,3.14,0,0,1-.41,1.3,11.51,11.51,0,0,0-1.06,3.24c-1.95,8.91-2.95,17.17-2.95,21.48,0,2.36,0,5.07.17,7.55,1.18-2.71,2.42-5.25,3.66-8.2a15.84,15.84,0,0,0,2.07,3.72,1.29,1.29,0,0,1,.35.82,1.77,1.77,0,0,1-.35.95c-2.07,4.66-2.78,7.26-3,9a10.91,10.91,0,0,0-.06,3.12c.06.42-.18.59-.71.77a24.37,24.37,0,0,1-4.43,1c-.64.18-.88.12-1.18-.7-1.65-4.19-2.53-11.21-2.53-18,0-5.66.47-10.39,2.42-22.36a29.83,29.83,0,0,0,.41-7A46.05,46.05,0,0,1,42.88,2129.5Zm20.29,15.75a117.24,117.24,0,0,1-12.15-.06c-.77,0-1-.17-1.06-.76a35.6,35.6,0,0,1-.42-5.37,85.21,85.21,0,0,0,13.46.17c0-2.12-.06-4-.06-6.19a24.35,24.35,0,0,0-.77-5.78,32.61,32.61,0,0,1,7.14,1.12c.65.17,1.06.47,1.06,1a2.45,2.45,0,0,1-.35,1,6.58,6.58,0,0,0-.47,2.07c-.12,2-.12,3.54-.12,6.25,2.77-.23,5.84-.65,8.38-1.06.71-.18.82.06.94.71a23.19,23.19,0,0,1,.36,4.19c0,.53-.24.82-.65.88a65.85,65.85,0,0,1-9.09,1.24c0,6.61.12,10.74.41,15.82a38.45,38.45,0,0,1,9.8,5.66c.53.35.59.53.29,1.18a31.29,31.29,0,0,1-2.71,4.54.73.73,0,0,1-.53.36.79.79,0,0,1-.53-.3,35.33,35.33,0,0,0-6.38-4.72c-.47,5-3.83,7.67-10.79,7.67-6.79,0-10.57-3.18-10.57-8.26,0-4.84,4.37-8.32,10.33-8.32a25.1,25.1,0,0,1,4.72.47C63.29,2154.22,63.23,2149.91,63.17,2145.25Zm-4.78,18.35c-2.77,0-4.42,1-4.42,2.84s1.3,2.95,4.78,2.95c3,0,4.84-1.72,4.84-3.84a8.18,8.18,0,0,0-.06-1.18A16.46,16.46,0,0,0,58.39,2163.6Z"/><path class="cls-2" d="M90.43,2163.19a1.27,1.27,0,0,1,.88-.47,1.2,1.2,0,0,1,.77.35,44,44,0,0,1,11.74,10.8c.36.47.42.65.42.88s-.12.54-.59.95l-3.6,3.07c-.42.35-.65.53-.83.53s-.53-.12-.83-.59a43.8,43.8,0,0,0-11.15-11.27c-.35-.24-.53-.41-.53-.59s.12-.36.42-.71Z"/><path class="cls-2" d="M177.81,2134.57c.65-.17.89.12.95.59.17,1.3.35,3,.41,4.25.06.77-.12.94-.89,1.12a92.54,92.54,0,0,1-10.26,2.24c-4,13.1-7,22.13-10.8,31.93-.3.82-.65.76-1.3.59s-3.48-1.48-4.72-2.19a.94.94,0,0,1-.47-1.18,221.24,221.24,0,0,0,10.2-28c-3.42.36-7.55.65-10.32.65-.89,0-1.12-.17-1.24-.94-.24-1.24-.53-3.25-.83-5.37a26.84,26.84,0,0,0,4.37.18,80.37,80.37,0,0,0,9.56-.59c.59-2.36,1.06-5,1.47-7.38a39.94,39.94,0,0,0,.36-5.43,34.64,34.64,0,0,1,7.43,1.65,1,1,0,0,1,.65,1,1.43,1.43,0,0,1-.29.94,11.29,11.29,0,0,0-1.24,2.36c-.59,2.13-1,4.13-1.42,5.61C171.73,2136.17,174.92,2135.4,177.81,2134.57Zm-2.3,28.21c.59,0,.83.23.88.82.48,4.31,3.37,5.55,9,5.55a87,87,0,0,0,9.92-.83c.47-.06.64.06.7.53a36.37,36.37,0,0,1,.48,5.14c0,.71,0,.88-1,.94a68.87,68.87,0,0,1-8,.65c-7.73,0-11.75-1.06-14.4-3.83-1.89-1.89-2.54-4.67-2.66-8.09A30.14,30.14,0,0,1,175.51,2162.78Zm-.65-15.64c0-.83.18-1,1.06-1.18a61.48,61.48,0,0,1,11.51-1.36,43.35,43.35,0,0,1,6.9.59c.83.12,1,.18,1,.89a43.38,43.38,0,0,1,0,4.72c0,1-.29,1.24-1.12,1.06a39.66,39.66,0,0,0-7.31-.71,65,65,0,0,0-11.86,1.36C175,2150.44,174.86,2148.32,174.86,2147.14Z"/><path class="cls-2" d="M243.18,2130a1.43,1.43,0,0,1,.48.94,1.18,1.18,0,0,1-.83,1.12,11.37,11.37,0,0,0-2.83,2.07c-5.08,4.54-11.57,10.62-16.11,15.34-.53.65-.77,1-.77,1.3s.24.65.77,1.06a163.71,163.71,0,0,1,22,18.59,1.43,1.43,0,0,1,.41.76c0,.24-.12.42-.41.71-1.36,1.48-3.07,3.19-4.07,4.07-.36.3-.59.48-.83.48s-.41-.18-.71-.53a148.61,148.61,0,0,0-21.47-20c-2.25-1.71-3.13-3-3.13-4.95s1.06-3.25,2.89-5.2c5-5.43,9.91-10.32,15-15.87a17,17,0,0,0,3.18-4.43A46.77,46.77,0,0,1,243.18,2130Z"/><path class="cls-2" d="M285.6,2131.45a19,19,0,0,0-3-4.78,45.47,45.47,0,0,1,7-1c1.54,0,2,.41,2,1.24a7.6,7.6,0,0,0,.06,1.65,25.51,25.51,0,0,0,.94,2.95c.71,1.77,1.24,3.19,2,4.78a90.93,90.93,0,0,0,12.33-3.66c.59-.29.77-.23,1.12.42a26,26,0,0,1,1.48,4.54c.18.59-.06.89-.47,1a93.37,93.37,0,0,1-11.75,3.43,67.68,67.68,0,0,0,9,12.45,14.81,14.81,0,0,0,1.54,1.29c.35.3.59.48.59.77a1.89,1.89,0,0,1-.36,1,23.14,23.14,0,0,1-2.3,3.83c-.47.65-.77.88-1.18.88s-.47-.11-.94-.47a19.92,19.92,0,0,0-2.42-1.53,26.94,26.94,0,0,0-12.51-3c-6.14,0-9.86,1.83-9.86,5.55,0,4.42,5.37,6.25,14.64,6.25a57.41,57.41,0,0,0,9.44-.83,36.64,36.64,0,0,1-1.24,6.32c-.18.59-.41.71-1.12.82a51.77,51.77,0,0,1-6.55.42c-13.93,0-21.42-4.43-21.42-12.22,0-6.72,5.78-11.44,15.52-11.44a30,30,0,0,1,10.5,1.59,37.85,37.85,0,0,1-7.61-10.45c-3.72.65-7.14,1.13-11.39,1.48-1.59.12-4.31.3-5.78.3-.53,0-.77-.36-1-1.07a45.45,45.45,0,0,1-1.35-5.31,72,72,0,0,0,7.37-.06,79.18,79.18,0,0,0,9.33-1.12C287.37,2135.4,286.55,2133.69,285.6,2131.45Z"/><path class="cls-2" d="M340.59,2153.57a11.76,11.76,0,0,1,7.2-3c6.37,0,8,5.49,8.61,11.15.48,4.31,1.18,6.26,3.43,6.26s3.89-1.06,5.54-2.83a29.15,29.15,0,0,0,6-9.62,14.35,14.35,0,0,0,3.43,4.9,1.6,1.6,0,0,1,.64,1.24,2.18,2.18,0,0,1-.23,1,32,32,0,0,1-5.08,7.32,14.74,14.74,0,0,1-10.85,4.95c-6,0-8.5-3.13-9.27-11.44-.53-5.9-1.83-7.62-3.89-7.62-2.54,0-5.08,1.89-7.44,5a68.62,68.62,0,0,0-6.9,13.1c-.35.82-.65.94-1.42.71a19.28,19.28,0,0,1-4.54-2.54,1,1,0,0,1-.53-.77,1.81,1.81,0,0,1,.29-.82c8.62-16.88,14-28.15,17.29-35.53a35.21,35.21,0,0,0,2.95-8.61,33.93,33.93,0,0,1,6.61,3.3,1.56,1.56,0,0,1,.83,1.24,1.84,1.84,0,0,1-.65,1.18,15.15,15.15,0,0,0-1.83,2.54c-3.78,7.26-7,13.45-10.21,18.76Z"/><path class="cls-2" d="M412.81,2137.29c-1.36,10-3.84,19.23-7.38,25.43-2.54,4.42-5.6,6.78-10,6.78-5.19,0-10.44-5.54-10.44-15.16a21.76,21.76,0,0,1,6.66-15.34c5-5,11.22-7.55,19.18-7.55,14.16,0,22.48,8.73,22.48,20.47,0,11-6.19,17.88-18.17,21.48-1.24.35-1.77.12-2.54-1.06a12.5,12.5,0,0,0-4.13-3.72c10-2.36,17.82-6.49,17.82-17.64,0-7-5.31-13.69-13.22-13.69ZM395.87,2143a17,17,0,0,0-4.6,10.92c0,5.42,2.18,8.43,4,8.43,1.54,0,2.84-.76,4.43-3.6,2.59-4.77,5.25-13.27,6.25-21.12A17.82,17.82,0,0,0,395.87,2143Z"/><path class="cls-2" d="M450,2139.88c-5.25,0-7,.12-7.43.12-.59,0-.65-.06-.65-.71v-4.78c0-.65.06-.71.65-.71.41,0,2.18.12,7.43.12h14.46v-3.83a29.76,29.76,0,0,0-.41-5.78c2.12,0,4.42.11,6.43.29.59.06.94.3.94.65a3.54,3.54,0,0,1-.35,1.24c-.24.47-.35,1.24-.35,3.42v4h15.51c5.31,0,7.08-.12,7.44-.12.53,0,.59.06.59.71v4.78c0,.65-.06.71-.59.71-.36,0-2.13-.12-7.44-.12H465.85c-.06,2.6-.24,5-.47,7.26h14.45c5,0,6.61-.12,7-.12.59,0,.7.18.7.83-.11,1.53-.17,3.13-.23,4.6-.47,8.79-1.18,14.28-1.95,17.53-1.3,5.6-3.6,7.31-9.5,7.31-1.06,0-2.71,0-4.66-.12-1.65-.11-1.65-.23-1.89-2.12a13.1,13.1,0,0,0-1.3-4.54,58,58,0,0,0,7.26.53c1.95,0,2.95-.95,3.48-2.95.89-3,1.54-8.38,1.83-15H464.49c-2.24,10.92-7.26,17.82-17.29,23.78a4.23,4.23,0,0,1-1.41.65c-.42,0-.65-.41-1.18-1.3a13.06,13.06,0,0,0-3.54-3.6c13.57-6.67,18-14.81,18.11-32.75Z"/><path class="cls-2" d="M530.81,2137.29c-1.36,10-3.84,19.23-7.38,25.43-2.54,4.42-5.6,6.78-10,6.78-5.19,0-10.44-5.54-10.44-15.16a21.76,21.76,0,0,1,6.66-15.34c5-5,11.22-7.55,19.18-7.55,14.16,0,22.48,8.73,22.48,20.47,0,11-6.19,17.88-18.17,21.48-1.24.35-1.77.12-2.54-1.06a12.5,12.5,0,0,0-4.13-3.72c10-2.36,17.82-6.49,17.82-17.64,0-7-5.31-13.69-13.22-13.69ZM513.87,2143a17,17,0,0,0-4.6,10.92c0,5.42,2.18,8.43,4,8.43,1.54,0,2.84-.76,4.43-3.6,2.59-4.77,5.25-13.27,6.25-21.12A17.82,17.82,0,0,0,513.87,2143Z"/><path class="cls-2" d="M573.4,2156.76c.53.29.59.59.3,1.06a9.66,9.66,0,0,0-1.53,4.48c0,3.72,3.83,5.55,14,5.55a75.24,75.24,0,0,0,16-1.71c.83-.18,1.12,0,1.24.53a48.84,48.84,0,0,1,.94,5.78c.06.54-.29.77-1,.89a94,94,0,0,1-17.29,1.41c-13.63,0-20.3-4.24-20.3-11.91,0-2.42.89-5,3.13-8.44C570.39,2155.17,571.87,2155.93,573.4,2156.76Zm13.34-23.13c4.31,0,8.5-.24,12.27-.53.59-.06.83.17.89.65a35.37,35.37,0,0,1,.53,5c0,.83-.3,1.18-1,1.24-5.61.83-9.68,2.77-14.46,5.84a2.46,2.46,0,0,1-1.48.53,2.4,2.4,0,0,1-1.23-.35,13.93,13.93,0,0,0-4.14-1.89c3.07-2,5.67-3.66,7.73-4.9a35.25,35.25,0,0,1-4.3.18,70.44,70.44,0,0,1-10.86-1c-.53-.12-.77-.36-.77-1.06,0-1.42.12-3.13.24-5.26A73.92,73.92,0,0,0,586.74,2133.63Zm16-6.55c.29-.24.53-.18.88.12a26.9,26.9,0,0,1,5.61,6.31.59.59,0,0,1-.18.94l-2.48,1.83a.61.61,0,0,1-1-.17,29.25,29.25,0,0,0-6-6.85Zm5.25-3.84c.35-.23.53-.17.89.12a24.6,24.6,0,0,1,5.6,6.08.67.67,0,0,1-.18,1.06l-2.36,1.83a.6.6,0,0,1-1-.18,27.82,27.82,0,0,0-5.9-6.78Z"/><path class="cls-2" d="M627.15,2138.53c-5.31,0-7.14.11-7.49.11-.59,0-.65,0-.65-.65v-4.66c0-.65.06-.7.65-.7.35,0,2.18.11,7.49.11h14.16v-.94a41.43,41.43,0,0,0-.47-7.55c2.13.06,4.66.17,6.73.41.53.06.94.35.94.65a3.08,3.08,0,0,1-.41,1.24,16.92,16.92,0,0,0-.35,4.66v1.53h15c5.31,0,7.14-.11,7.5-.11.59,0,.64,0,.64.7V2138c0,.6,0,.65-.64.65-.36,0-2.19-.11-7.5-.11h-15v7.31h8.61a5,5,0,0,0,1.71-.23,1.91,1.91,0,0,1,.77-.24c.41,0,.88.35,2.36,1.83,1.36,1.3,1.83,2,1.83,2.54s-.3.65-.83,1.06a4.81,4.81,0,0,0-1.41,1.59A53.81,53.81,0,0,1,650,2165c5.9,3.3,13.1,5.31,22,6.67a21,21,0,0,0-2.54,4.72c-.41,1.18-.59,1.53-1.24,1.53a7.92,7.92,0,0,1-1.3-.17c-9.08-2.07-16.4-4.78-22.36-8.74-5.9,3.72-12.92,6.49-21.36,8.68a4.83,4.83,0,0,1-1.3.23c-.59,0-.76-.41-1.18-1.53a16.23,16.23,0,0,0-2.42-4.19c8.68-1.77,15.64-3.95,21.3-7.08a41.73,41.73,0,0,1-9.56-13.63c-4,.06-5.54.12-5.84.12-.59,0-.65-.06-.65-.65v-4.55c0-.59.06-.65.65-.65.36,0,2.3.12,8,.12h9.14v-7.31Zm9.62,12.92a33.86,33.86,0,0,0,8.14,10,37,37,0,0,0,8.74-10Z"/><path class="cls-2" d="M689.63,2158.71c0,5.66.18,8.79.18,11.74,0,3.24-.47,4.84-1.83,5.84s-3.18,1.3-6.78,1.3c-1.83.06-2,.06-2.25-1.77a14.65,14.65,0,0,0-1.41-4.25,35.29,35.29,0,0,0,5.07.18c.83,0,1.24-.36,1.24-1.66v-11.74l-2.3.71a8.56,8.56,0,0,0-2.07,1,1.56,1.56,0,0,1-1,.36c-.35,0-.59-.24-.76-.71-.36-1.54-.71-3.54-1-5.61a37.2,37.2,0,0,0,5.49-1.12l1.65-.47v-11.45h-1.06c-3.66,0-4.78.12-5.07.12-.59,0-.65-.06-.65-.65v-4.31c0-.59.06-.64.65-.64.29,0,1.41.11,5.07.11h1.06v-3.12a68.08,68.08,0,0,0-.41-8.38c2.12.06,4,.17,6,.41.59.06,1,.41,1,.65a3,3,0,0,1-.41,1.24c-.36.71-.36,2-.36,6v3.24c3,0,4-.11,4.43-.11.59,0,.65.05.65.64v4.31c0,.59-.06.65-.65.65-.41,0-1.42-.12-4.43-.12v9.44c1.48-.53,3-1.18,4.61-1.83a28.41,28.41,0,0,0-.3,4.25c0,1.54-.18,1.6-1.24,2.07s-2,.88-3.07,1.3Zm31.39-2.19a3,3,0,0,0,1.24-.23,1.65,1.65,0,0,1,.77-.18c.47,0,1,.35,2.07,1.59s1.47,1.77,1.47,2.24a1,1,0,0,1-.65.83,4.91,4.91,0,0,0-1.53,1.77,45.64,45.64,0,0,1-5.72,6.73,50.39,50.39,0,0,0,12.62,3.72,13.06,13.06,0,0,0-1.83,3.65c-.65,1.77-.65,1.77-2.42,1.3a47.15,47.15,0,0,1-12.68-5.13,39.8,39.8,0,0,1-11.21,5.31,4.74,4.74,0,0,1-1.36.35c-.53,0-.65-.41-1.12-1.35a12.78,12.78,0,0,0-2.19-3.13,37.54,37.54,0,0,0,11.45-4.43,35.46,35.46,0,0,1-5.07-5.6,37.42,37.42,0,0,1-9.5,12.39c-.65.53-1,.82-1.3.82s-.65-.35-1.12-1a13.07,13.07,0,0,0-2.83-2.83c6.49-4.78,10.73-11.68,12.74-20.06-4.31.06-6,.12-6.31.12-.59,0-.65-.06-.65-.71v-3.84c0-.59.06-.65.65-.65.35,0,2.18.12,7.26.12.11-1,.17-2.12.23-3.19-4.84,0-6.67.12-7,.12-.59,0-.65-.06-.65-.71v-3.36c0-.59.06-.65.65-.65.35,0,2.24.12,7.67.12h12.69a46.62,46.62,0,0,0,3.18-6.43,19.61,19.61,0,0,0,.89-3.19,34.64,34.64,0,0,1,5.25,1.42c.47.18.77.53.77.82a1.19,1.19,0,0,1-.54.89,3,3,0,0,0-.94,1.12c-.94,1.83-1.65,3.36-2.83,5.37,3.83,0,5.37-.12,5.72-.12.59,0,.65.06.65.65v3.36c0,.65-.06.71-.65.71-.41,0-2.3-.12-7.73-.12H709.76c-.12,1.13-.24,2.19-.42,3.19h12.75c5.54,0,7.49-.12,7.84-.12.54,0,.59.06.59.65v3.84c0,.65,0,.71-.59.71-.35,0-2.3-.12-7.84-.12H708.46c-.24,1.12-.53,2.18-.83,3.24Zm7-29.38c.35.35.65.65.65,1s-.48.71-1.24.71a18.65,18.65,0,0,0-2.6.35,220.34,220.34,0,0,1-25,3c-1.89.12-2.06.18-2.65-1.59a13.19,13.19,0,0,0-1.71-3.25,128.37,128.37,0,0,0,25.31-2.36,13.56,13.56,0,0,0,3.3-1.12A30.94,30.94,0,0,1,728.05,2127.14Zm-25.85,5.43c.77-.3.89-.24,1.24.23a27.53,27.53,0,0,1,2.72,5c.23.59.17.71-.59,1l-3.25,1.36c-.77.29-.94.29-1.18-.36a20.39,20.39,0,0,0-2.48-5.07c-.41-.53-.35-.59.42-.89Zm5.9,28.14a25.13,25.13,0,0,0,5.9,5.84,25.83,25.83,0,0,0,4.9-5.84Zm4.31-21c-.83.35-.94.35-1.18-.36a34.94,34.94,0,0,0-2.54-5.66c-.23-.42,0-.59.83-.89l2.65-1c.83-.35,1-.24,1.3.24a27.06,27.06,0,0,1,2.72,5.36c.17.54.11.71-.59,1Z"/><path class="cls-2" d="M750.7,2130.68c1,.53,1.36.88,1.36,1.41s-.12.59-.89,1.77a14,14,0,0,0-1.41,4.19,95.13,95.13,0,0,0-2.48,19.06,56.37,56.37,0,0,0,.35,6.91c1.24-2.72,2.3-4.67,4-8.8a15.43,15.43,0,0,0,2.07,3.72,2.32,2.32,0,0,1,.41.89,1.66,1.66,0,0,1-.29.94,58.16,58.16,0,0,0-3.37,8.91,6.7,6.7,0,0,0-.17,1.83c0,.71.11,1.18.11,1.65s-.23.65-.76.77a29,29,0,0,1-4.84.94c-.41.06-.65-.23-.77-.65-1.65-4.13-2.71-11.62-2.71-17.58a113.23,113.23,0,0,1,2-19.35,47.61,47.61,0,0,0,1.07-8.79A25.54,25.54,0,0,1,750.7,2130.68Zm12.63,27.79c.47-.06.59.24.59.88.35,4.08,3.18,5.55,9.61,5.55a83.16,83.16,0,0,0,11.27-.77c.59-.05.71,0,.83.77A43.13,43.13,0,0,1,786,2170c0,.7,0,.76-1,.88a79.58,79.58,0,0,1-9.62.65c-8.73,0-12.8-1.42-15.34-4.9-1.47-1.89-2.06-4.9-2.06-7.67ZM760,2136.4c.06-.71.24-.88.83-1a94,94,0,0,1,12.8-1.06c3.54,0,6.26.11,8.74.35,1.23.06,1.35.18,1.35.77,0,1.77,0,3.36-.12,5,0,.53-.23.77-.76.71-3.54-.23-6.61-.35-9.62-.35a72.43,72.43,0,0,0-13.4,1.35C759.9,2138.88,759.9,2137.4,760,2136.4Z"/><path class="cls-2" d="M837.73,2137.29a.49.49,0,0,1,.7.35,39.17,39.17,0,0,1,1.42,5c.12.64-.12.76-.47.88a88.64,88.64,0,0,1-14.93,2.66c.12,4.78.41,8,1,13.63a69.44,69.44,0,0,1,17.12,7.61c.41.23.47.53.23,1a25.88,25.88,0,0,1-3.13,5c-.35.35-.53.53-1,.18a55.21,55.21,0,0,0-13.1-7.44,11.26,11.26,0,0,1-.06,1.36c-.23,5.07-4,8.85-11.92,8.85-7.25,0-12.56-3.25-12.56-8.68s5.6-9,12.92-9a42.62,42.62,0,0,1,4.95.17c-.7-7.73-.88-13.33-1-18.94-.06-2.12-.12-5.13-.18-8.14a17.08,17.08,0,0,0-.82-5.37,54.87,54.87,0,0,1,7.55,1.06c.65.18.94.53.94,1a1.7,1.7,0,0,1-.29.88,7.35,7.35,0,0,0-.71,3.19c-.12,1.77-.12,4.36-.12,7.43A57.56,57.56,0,0,0,837.73,2137.29ZM819,2164.55a27,27,0,0,0-5.43-.59c-4.13,0-6.78,1.35-6.78,3.48s2.36,3,6.08,3c4.42,0,6.37-2.6,6.19-5.08Z"/><path class="cls-2" d="M869.82,2148.2c7.26-2.42,13-3.6,17.23-3.6,8,0,13.45,5.25,13.45,12.63,0,6-2.83,10.21-8.43,13.22a32,32,0,0,1-12.22,3.89c-1.06.18-1.53-.06-2-.82a12.31,12.31,0,0,0-3.6-3.9c6.91-1.06,10.15-2.06,14.23-4.07a9.23,9.23,0,0,0,5.31-8.79c0-4.19-2.6-6.49-7.32-6.49-4.07,0-10.27,2-16.7,4.6a18.91,18.91,0,0,0-3.3,1.83,1.89,1.89,0,0,1-1.18.59c-.54,0-1-.35-1.54-1.06a29.69,29.69,0,0,1-3.18-5.73A63.36,63.36,0,0,0,869.82,2148.2Z"/><path class="cls-2" d="M944.22,2137.76c-7.2,1.36-13.51,2.59-19.83,3.89-2.24.53-2.83.65-3.71.95a3.63,3.63,0,0,1-1.3.47,1.38,1.38,0,0,1-1.12-.89,39.76,39.76,0,0,1-2.18-6.37,81.86,81.86,0,0,0,9.38-1c7.26-1.06,20.24-3,35.46-5,.88-.12,1.18.24,1.24.65a34.51,34.51,0,0,1,.65,5.19c0,.71-.36.89-1.12.89a26.21,26.21,0,0,0-7.2,1.3c-10,3.42-15,10.32-15,17.4,0,7.62,5.43,11.75,15.7,12.4.94,0,1.29.23,1.29.88a21.17,21.17,0,0,1-.64,5.08c-.18.88-.42,1.23-1.12,1.23-10.39,0-21.78-6-21.78-18.23,0-8.38,4.19-14,11.33-18.7Z"/><path class="cls-2" d="M975.31,2140.24c.47-.59.65-.59,1.18-.3a44.16,44.16,0,0,1,8.38,6c.24.24.35.35.35.47s-.11.36-.35.71l-2.65,3.78c-.18.29-.3.41-.48.41s-.29-.12-.53-.35a45.57,45.57,0,0,0-8.32-6.44c-.29-.17-.41-.29-.41-.41a1.34,1.34,0,0,1,.35-.71Zm.59,28.91a144.11,144.11,0,0,0,5.9-13.57,27.26,27.26,0,0,0,3.19,3c.94.71,1.3,1,1.3,1.47a4.82,4.82,0,0,1-.42,1.42c-1.77,4.54-3.77,9.09-5.72,13a9.6,9.6,0,0,0-1,2.24c-.12.47-.36.77-.77.77a2.46,2.46,0,0,1-1.06-.41,33.93,33.93,0,0,1-4.55-3.25A27.42,27.42,0,0,0,975.9,2169.15Zm1.77-43.9c.47-.53.65-.53,1.12-.24a45.59,45.59,0,0,1,8.2,6.08.73.73,0,0,1,.36.53c0,.18-.12.36-.36.71l-2.65,3.72c-.24.35-.41.47-.53.47s-.3-.12-.53-.3a48.42,48.42,0,0,0-8.32-6.66c-.3-.18-.42-.3-.42-.42s.12-.35.42-.7Zm18.35,22.6c-5.84,0-7.85.12-8.2.12-.59,0-.65-.06-.65-.65v-4.66c0-.53.06-.59.65-.59.35,0,2.36.11,8.2.11h6.91v-7.73c-3.37.54-6.79,1-10.21,1.3-1.89.18-2,.12-2.42-1.47a14.58,14.58,0,0,0-1.65-3.9c9.61-.59,20-2.3,26-4.19a17.71,17.71,0,0,0,3.83-1.65,33.64,33.64,0,0,1,3.9,3.78,1.68,1.68,0,0,1,.53,1.18c0,.35-.24.71-.83.76a11.81,11.81,0,0,0-3.18.65,79.28,79.28,0,0,1-9.62,2.42v8.85H1017c5.78,0,7.79-.11,8.14-.11.53,0,.59.06.59.59v4.66c0,.59-.06.65-.59.65-.35,0-2.36-.12-8.14-.12h-7.73v7.61h4.25c5.43,0,7.25-.12,7.67-.12.59,0,.65.06.65.65,0,.36-.12,2-.12,5.9v5.31c0,8.15.12,9.68.12,10,0,.53-.06.59-.65.59h-5c-.59,0-.65-.06-.65-.59v-2H997.14v2.3c0,.53-.06.59-.65.59h-4.83c-.65,0-.71-.06-.71-.59s.12-2,.12-10.15v-4.66c0-4.66-.12-6.32-.12-6.73,0-.59.06-.65.71-.65.35,0,2.3.12,7.67.12h3.6v-7.61Zm1.12,22.07h18.41v-9.15H997.14Z"/><path class="cls-2" d="M1049.24,2168.68c3.19-.36,6.55-.83,10-1.42a24.09,24.09,0,0,0-.53,2.72l-.18,1.06a33.23,33.23,0,0,0,6.73-13.22,81.93,81.93,0,0,0,2-15.05c-3.48.06-4.78.12-5.08.12-.65,0-.71-.06-.71-.65v-4.3c0-.59.06-.65.71-.65.3,0,1.65.11,5.31.11,0-1.53.06-3.06.06-4.72a59.16,59.16,0,0,0-.41-8.32c2.12.06,3.83.18,5.9.42.59.06.88.29.88.65a4.41,4.41,0,0,1-.35,1.41c-.24.59-.35,2.42-.35,6,0,1.59,0,3.07-.06,4.54h3.36c4.54,0,6.08-.11,6.43-.11.59,0,.71.11.71.7-.12,2-.12,3.72-.12,5.61-.06,11.33-.59,20.06-1.71,27-.77,4.42-3,6.49-7.49,6.49-1.24,0-2.25-.06-3.25-.12-1.36-.12-1.36-.12-1.53-2.07a13.61,13.61,0,0,0-1.18-3.95,32.16,32.16,0,0,0,4.9.47c1.76,0,2.77-.94,3.18-3.72,1-5.72,1.42-13.69,1.48-25h-5a104,104,0,0,1-2.18,16.94,37.57,37.57,0,0,1-8.74,16.82c-.59.59-.94.88-1.24.88s-.58-.29-1.12-.83a11,11,0,0,0-3.77-2.83c.65-.59,1.3-1.18,1.89-1.83a4.6,4.6,0,0,1-1.13.24c-6.25,1.24-13.92,2.36-20.59,3.07a9.43,9.43,0,0,0-2.18.41,2.27,2.27,0,0,1-1,.35c-.35,0-.64-.35-.82-1-.35-1.53-.71-3.42-1-5.19a52.86,52.86,0,0,0,6.19-.06c2.07-.12,4.31-.24,6.67-.47v-3.42h-3.48c-5.14,0-6.85.11-7.2.11-.59,0-.65-.06-.65-.59v-3.54c0-.59.06-.65.65-.65.35,0,2.06.12,7.2.12h3.48v-2.54h-2.36c-5,0-6.73.12-7.08.12-.65,0-.71-.06-.71-.65,0-.41.12-1.77.12-4.89V2147c0-3.18-.12-4.54-.12-4.84,0-.59.06-.64.71-.64.35,0,2.06.11,7.08.11h2.36v-2.59h-4.37c-5.31,0-7.14.11-7.49.11-.59,0-.65-.05-.65-.64V2135c0-.59.06-.64.65-.64.35,0,2.18.11,7.49.11h4.37v-2.65c-2.54.23-5.08.47-7.61.59-1.65.12-1.71.06-2.19-1.3a11.85,11.85,0,0,0-1.83-3.19,112.45,112.45,0,0,0,20.89-2.24,21.55,21.55,0,0,0,3.25-1,25.09,25.09,0,0,1,3.36,3.24,1.43,1.43,0,0,1,.47,1.07c0,.35-.47.59-1.24.59a16.91,16.91,0,0,0-2.65.41c-2.36.47-4.72.88-7.14,1.18v3.3h3.42c5.25,0,7.08-.11,7.44-.11.53,0,.59,0,.59.64v3.49c0,.59.06.64-.47.64-.36,0-2.31-.11-7.56-.11h-3.42v2.59h2.54c5,0,6.66-.11,7.08-.11.59,0,.65.05.65.64,0,.3-.12,1.66-.12,4.84v6.32c0,3.12.12,4.54.12,4.89,0,.59-.06.65-.65.65-.42,0-2.13-.12-7.08-.12h-2.54v2.54h2.18c5.08,0,6.85-.12,7.2-.12.59,0,.65.06.65.65v3.54c0,.53-.06.59-.65.59-.35,0-2.12-.11-7.2-.11h-2.18Zm-5.31-20.24v-3.07H1039v3.07Zm0,6.55v-3.13H1039V2155Zm5.31-9.62v3.07h5.13v-3.07Zm5.13,6.49h-5.13V2155h5.13Z"/><path class="cls-2" d="M1116.74,2129.91a19,19,0,0,0-.71-4.31,59.26,59.26,0,0,1,6.9.83c1,.18,1.65.59,1.65,1.12a2.45,2.45,0,0,1-.53,1.36,6.42,6.42,0,0,0-.47,1.71c-.06.77-.06,1.53-.12,3.78,6.38-.24,12.45-.3,18.12-.3.71,0,.82.12.88.89.06,1.47.06,3,0,4.48,0,.65-.29.83-1,.77-6.14-.18-11.86-.18-18-.12,0,3.6,0,7.37.06,11a18.45,18.45,0,0,1,.89,5.85,22,22,0,0,1-10.51,19,5.65,5.65,0,0,1-2.3,1.13,3.37,3.37,0,0,1-1.77-.89,13.09,13.09,0,0,0-4.48-2.36c6.9-3.07,11-8,12.09-13-1.18,1.71-3.6,2.36-5.54,2.36-4.66,0-8.2-3.36-8.2-9a8.6,8.6,0,0,1,8.91-8.85,7.18,7.18,0,0,1,4.48,1.18c0-2.06-.06-4.07-.06-6-7.43.42-15.75,1.12-20.41,1.77-1.3.18-2.25.71-2.78.71s-.82-.24-1-.83a42.59,42.59,0,0,1-1.48-6,39,39,0,0,0,7.2-.23c3.6-.3,11.21-.77,18.29-1.18C1116.8,2133,1116.8,2131.5,1116.74,2129.91Zm-7.56,23.9a3.67,3.67,0,0,0,3.78,4,3.79,3.79,0,0,0,4-4.07,3.54,3.54,0,0,0-3.89-3.78A3.76,3.76,0,0,0,1109.18,2153.81Z"/><path class="cls-2" d="M1172.37,2148.73a17.85,17.85,0,0,1,9.39-2.65c8.61,0,14.63,5.66,14.63,14.16,0,9.85-8,16.17-20.59,16.17-7.44,0-11.92-3.19-11.92-8.68,0-3.95,3.71-7.19,8.32-7.19,5.54,0,9.61,2.95,11.09,8.61,4.13-1.89,6-4.48,6-9,0-5.37-3.78-8.91-9.27-8.91-4.89,0-10.32,2.18-15.1,6.26-1.71,1.53-3.36,3.24-5.14,5-.41.41-.7.65-1,.65a1.46,1.46,0,0,1-.88-.53,26.15,26.15,0,0,1-3.48-3.84c-.36-.47-.18-.88.29-1.35a144.53,144.53,0,0,0,14-13c3.65-3.78,6.43-6.73,9.14-10.09-3.54.65-7.73,1.47-11.39,2.24a18.31,18.31,0,0,0-2.48.71,4.53,4.53,0,0,1-1.18.29,1.32,1.32,0,0,1-1.29-1,28.38,28.38,0,0,1-2.07-6.37,28.79,28.79,0,0,0,5.49.11c3.6-.35,8.79-1.12,13.39-2a15.56,15.56,0,0,0,3.25-.89,3.09,3.09,0,0,1,1.12-.47,2.15,2.15,0,0,1,1.36.47,22.27,22.27,0,0,1,4,3.78,2.05,2.05,0,0,1,.65,1.42,1.57,1.57,0,0,1-1,1.41,9.45,9.45,0,0,0-2.6,1.89c-4.31,4.19-8.26,8.32-12.75,12.63Zm.06,16.82c-1.71,0-2.83,1-2.83,2.24,0,1.83,1.59,3.07,5.13,3.07a13.46,13.46,0,0,0,2.72-.23C1176.68,2167.38,1174.91,2165.55,1172.43,2165.55Z"/><path class="cls-2" d="M1223.64,2155.34c.53.3.59.59.3,1.06a9.68,9.68,0,0,0-1.54,4.49c0,3.72,3.84,5.55,14,5.55a74.58,74.58,0,0,0,16-1.72c.83-.17,1.12,0,1.24.53a51.18,51.18,0,0,1,.94,5.79c.06.53-.29.76-1,.88a88.43,88.43,0,0,1-17.58,1.42c-13.22,0-20-4.25-20-11.92,0-2.42.89-5,3.13-8.44C1220.63,2153.75,1222.11,2154.52,1223.64,2155.34Zm13.34-23.13c4.31,0,8.73-.29,12.51-.53.59-.06.82.18.88.65a38.28,38.28,0,0,1,.3,5c0,.82-.3,1.18-1,1.24-5.61.82-9.68,2.77-14.46,5.84a2.53,2.53,0,0,1-1.48.53,2.48,2.48,0,0,1-1.24-.36,14.38,14.38,0,0,0-4.13-1.89c3.07-2,5.67-3.65,7.73-4.89a42,42,0,0,1-4.83.17,73.49,73.49,0,0,1-10.33-1c-.53-.12-.77-.35-.77-1.06,0-1.42.12-3.13.24-5.25A74.56,74.56,0,0,0,1237,2132.21Z"/><path class="cls-2" d="M1290.43,2127.37c.71.18,1.06.48,1.06,1,0,.82-.41,1.65-.41,2.48,0,1.18.18,2.59.3,3.95a84.36,84.36,0,0,0,1.88,10.15c3-1.6,5.08-2.72,8.38-4.49a14.48,14.48,0,0,0,4.07-3.18,29.91,29.91,0,0,1,4.31,5.54,2.38,2.38,0,0,1,.41,1.24c0,.59-.35,1.07-1.17,1.18a29,29,0,0,0-5.67,1.77,82.66,82.66,0,0,0-13.87,6.91c-5.13,3.36-7,6.13-7,8.91,0,3.48,2.6,4.95,9.38,4.95a103.72,103.72,0,0,0,18-1.35c.65-.12.94,0,1.06.7a51.57,51.57,0,0,1,.59,5.49c.06.65-.35.95-1.06,1a127.42,127.42,0,0,1-17.58.88c-11.16,0-17.06-3.66-17.06-11.33,0-6.55,4.31-10.86,11.21-15.22a90.44,90.44,0,0,1-3.06-14.4,26.48,26.48,0,0,0-1.54-6.84A34.24,34.24,0,0,1,1290.43,2127.37Z"/><path class="cls-2" d="M1344.24,2133a40.72,40.72,0,0,0,.59-6.55,42.72,42.72,0,0,1,7.08,2,1.23,1.23,0,0,1,.94,1.18,1.2,1.2,0,0,1-.41.88,7.68,7.68,0,0,0-1.18,2.24c-.77,2.42-1.36,4.61-2.12,7.08a46.9,46.9,0,0,1,4.72-.23c5.48,0,8.44,3.83,8.44,11.39,0,6.37-1.18,14.22-3.19,18.46-1.71,3.78-4.54,5.55-8,5.55a15.6,15.6,0,0,1-6.13-.88,1.59,1.59,0,0,1-1.07-1.66,16.54,16.54,0,0,0-1.12-5.48,15.7,15.7,0,0,0,6.79,1.53c2,0,2.83-.71,3.78-3.13a45.8,45.8,0,0,0,2.3-14.69c0-4.13-.77-5.43-3.37-5.43a38.43,38.43,0,0,0-5,.42c-3.9,11.32-7.26,19.47-11.86,27.73a1,1,0,0,1-1.54.53,26.87,26.87,0,0,1-4.07-2.6,1.22,1.22,0,0,1-.47-.88,1.09,1.09,0,0,1,.24-.65,124.51,124.51,0,0,0,10.79-23.13c-2.3.35-4.19.71-5.78,1a17.11,17.11,0,0,0-3.24.95c-.83.29-1.54.17-1.89-.77a54.31,54.31,0,0,1-1.83-6.08c2.59,0,5.19-.18,7.79-.41s4.66-.53,7-.89C1343.41,2137.11,1343.83,2135,1344.24,2133Zm23.37,3.95c.41-.23.7-.12,1.12.3a39.37,39.37,0,0,1,9.79,14.34.83.83,0,0,1-.23,1.17,23.55,23.55,0,0,1-4.43,2.95c-.59.3-1.18.24-1.36-.47a40,40,0,0,0-9.67-15.28A50,50,0,0,1,1367.61,2137Zm1.59-8.26c.29-.23.53-.18.88.12a27.1,27.1,0,0,1,5.61,6.31.6.6,0,0,1-.18,1l-2.48,1.83a.62.62,0,0,1-1-.18,29.25,29.25,0,0,0-6-6.85Zm5.25-3.83c.35-.24.53-.18.89.11a25,25,0,0,1,5.6,6.08.67.67,0,0,1-.18,1.06l-2.36,1.83c-.47.36-.76.18-1-.18a28,28,0,0,0-5.9-6.78Z"/><path class="cls-2" d="M1415.63,2138.05c-7.2,1.36-13.51,2.6-19.83,3.9-2.24.53-2.83.65-3.71.94a3.45,3.45,0,0,1-1.3.47,1.37,1.37,0,0,1-1.12-.88,41,41,0,0,1-2.19-6.37,82.19,82.19,0,0,0,9.39-1c7.25-1.06,20.24-3,35.46-5,.88-.12,1.18.23,1.24.65a34.35,34.35,0,0,1,.65,5.19c0,.71-.36.88-1.12.88a26.59,26.59,0,0,0-7.2,1.3c-10,3.43-15.05,10.33-15.05,17.41,0,7.61,5.43,11.74,15.7,12.39.94,0,1.29.24,1.29.89a21.15,21.15,0,0,1-.64,5.07c-.18.88-.42,1.24-1.13,1.24-10.38,0-21.77-6-21.77-18.23,0-8.38,4.19-14.05,11.33-18.71Zm11.68,6.38c.3-.24.53-.18.89.11a27.14,27.14,0,0,1,5.6,6.32.59.59,0,0,1-.17.94l-2.48,1.83a.61.61,0,0,1-1-.18,29.4,29.4,0,0,0-6-6.84Zm5.26-3.84c.35-.24.53-.18.88.12a24.65,24.65,0,0,1,5.61,6.08.69.69,0,0,1-.18,1.06l-2.36,1.83a.61.61,0,0,1-1-.18,28.3,28.3,0,0,0-5.9-6.79Z"/><path class="cls-2" d="M1465,2130.44a14.8,14.8,0,0,0-2.06-3.77,41,41,0,0,1,7.14-.65c.82,0,1.3.47,1.3,1.06,0,.35-.12.77-.12,1.12a11.33,11.33,0,0,0,.23,1.77c.42,1.53.59,2.07,1,3.07a92.52,92.52,0,0,0,12-3.13c.53-.24.82-.18,1,.3.35,1.12.77,2.77,1,3.95a.9.9,0,0,1-.71,1.06c-4,1.24-7.55,2.13-11.56,3,.53,1.48,1.3,3.31,2.06,5a70.22,70.22,0,0,0,10.74-3.07c.59-.3.89-.18,1.06.35a22.09,22.09,0,0,1,1.07,3.9c.12.53.12.82-.47,1.06a72.92,72.92,0,0,1-10,2.89,44.19,44.19,0,0,0,7.73,10.21c.59.53.59.77.3,1.41a17.22,17.22,0,0,1-2.42,3.66c-.36.42-.59.59-1,.59a1.52,1.52,0,0,1-.82-.35A15,15,0,0,0,1479,2162a28.73,28.73,0,0,0-11.1-1.89c-5.54,0-8.79,1.71-8.79,4.49,0,3.83,5,5.07,14.05,5.07,2.18,0,4.36-.23,6.49-.35.59,0,.76.29.7.77a36.28,36.28,0,0,1-1.18,5.36c-.17.59-.41.83-1.24.89-1.35.12-2.77.18-4.24.18-13.57,0-20.77-3.84-20.77-11.1,0-6.31,5.42-10.26,14.63-10.26,4.31,0,7.79.47,10.15,1.47a66.94,66.94,0,0,1-4.9-7,140.77,140.77,0,0,1-16.17,1.77c-.65,0-.88-.24-1.06-.83a30.37,30.37,0,0,1-1.06-4.84,102.51,102.51,0,0,0,15.87-1.47c-.59-1.24-1.47-3.25-2.24-4.9a101.88,101.88,0,0,1-14.34,1.42c-.71,0-1.06-.24-1.18-.83s-.59-2.83-.94-4.72a104.11,104.11,0,0,0,14.69-.94C1465.9,2132.92,1465.54,2131.92,1465,2130.44Z"/><path class="cls-2" d="M1527.32,2153.45a105,105,0,0,1-12.16-.23c-.65,0-.88-.24-.94-1a34.45,34.45,0,0,1-.36-5,82.88,82.88,0,0,0,13.28.47c-.06-2.24-.06-4.54-.12-6.78a98.32,98.32,0,0,1-14.1-.3c-.65,0-.94-.24-1-.83-.18-1.47-.3-2.89-.42-5.31a135,135,0,0,0,15.46.59c0-2.18-.06-3.71-.12-5.72a16.55,16.55,0,0,0-.7-4,33.86,33.86,0,0,1,7.43,1.06,1.2,1.2,0,0,1,.65,1.77,7.5,7.5,0,0,0-.88,2.83c-.06,1.18-.06,2-.12,3.78a98.3,98.3,0,0,0,12.92-1.77c.71-.18.94,0,1,.71a30.92,30.92,0,0,1,.3,4.3c0,.77-.18.89-.65.95a119.56,119.56,0,0,1-13.63,1.53c0,2.36.06,4.55.06,6.67,4.48-.3,7.31-.89,11.56-1.53.71-.18.89-.06,1,.47.06,1.12.17,3.07.17,4.84,0,.59-.23.76-.88.82a108.24,108.24,0,0,1-11.57,1.42c.12,2.71.24,5.6.42,8.32a52.32,52.32,0,0,1,15.63,7.14c.59.53.59.71.42,1.41a18.12,18.12,0,0,1-2.6,4.37.88.88,0,0,1-.77.47.94.94,0,0,1-.65-.29,46.52,46.52,0,0,0-11.74-6.73c-.06,6.37-3.89,9-12,9-7.67,0-12-3.36-12-8.26s4.66-8.38,11.8-8.38a56.21,56.21,0,0,1,5.66.24C1527.49,2157.88,1527.38,2155.46,1527.32,2153.45Zm-5.08,11.92c-4.31,0-6.37,1.24-6.37,3.13,0,1.54,1.77,2.66,5.84,2.66,2.36,0,4.55-.71,5.37-1.77a5.71,5.71,0,0,0,.65-3.31A25.68,25.68,0,0,0,1522.24,2165.37Z"/><path class="cls-2" d="M1582.66,2128c1,.24,1.42.54,1.42,1.13a5.68,5.68,0,0,1-.6,1.94c-.29.83-.53,2.66-.82,7.2-.59,9.09-.89,15.11-.89,22.84,0,6,.71,7.31,5.43,7.31,5.25,0,13.46-3.18,20.65-10.85a20.67,20.67,0,0,0,1.36,5.6,3.76,3.76,0,0,1,.47,1.42c0,.53-.23,1-1.18,1.83a33.71,33.71,0,0,1-22.36,8.85c-7.55,0-11.09-3-11.09-12,0-9.91.53-18.41.82-25.49.12-3.48.3-7.26-.59-10.8A62.44,62.44,0,0,1,1582.66,2128Z"/><path class="cls-2" d="M1652.81,2134.57c.65-.17.89.12,1,.59.17,1.3.35,3,.41,4.25.06.77-.12.94-.89,1.12a92.54,92.54,0,0,1-10.26,2.24c-4,13.1-7,22.13-10.8,31.93-.3.82-.65.76-1.3.59s-3.48-1.48-4.72-2.19a.94.94,0,0,1-.47-1.18,221.24,221.24,0,0,0,10.2-28c-3.42.36-7.55.65-10.32.65-.89,0-1.12-.17-1.24-.94-.24-1.24-.53-3.25-.83-5.37a26.84,26.84,0,0,0,4.37.18,80.37,80.37,0,0,0,9.56-.59c.59-2.36,1.06-5,1.47-7.38a39.94,39.94,0,0,0,.36-5.43,34.64,34.64,0,0,1,7.43,1.65,1,1,0,0,1,.65,1,1.43,1.43,0,0,1-.29.94,11.29,11.29,0,0,0-1.24,2.36c-.59,2.13-1,4.13-1.42,5.61C1646.73,2136.17,1649.92,2135.4,1652.81,2134.57Zm-2.3,28.21c.59,0,.83.23.88.82.48,4.31,3.37,5.55,9,5.55a87,87,0,0,0,9.92-.83c.47-.06.64.06.7.53a36.37,36.37,0,0,1,.48,5.14c0,.71,0,.88-1,.94a68.87,68.87,0,0,1-8,.65c-7.73,0-11.75-1.06-14.4-3.83-1.89-1.89-2.54-4.67-2.66-8.09A30.14,30.14,0,0,1,1650.51,2162.78Zm-.65-15.64c0-.83.18-1,1.06-1.18a61.48,61.48,0,0,1,11.51-1.36,43.35,43.35,0,0,1,6.9.59c.83.12,1,.18,1,.89a43.38,43.38,0,0,1,.05,4.72c0,1-.29,1.24-1.12,1.06a39.66,39.66,0,0,0-7.31-.71,65,65,0,0,0-11.86,1.36C1650,2150.44,1649.86,2148.32,1649.86,2147.14Z"/><path class="cls-2" d="M1697,2170.8a8.56,8.56,0,1,1-8.56-8.5A8.51,8.51,0,0,1,1697,2170.8Zm-13.45,0a4.9,4.9,0,1,0,4.89-4.9A4.81,4.81,0,0,0,1683.55,2170.8Z"/><g id="圖層_2-3" data-name="圖層 2"><g id="text-3" data-name="text"><g id="圖層_2-2-2" data-name="圖層 2-2"><g id="圖層_1-2" data-name="圖層 1-2"><path class="cls-3" d="M110.37,2435.1c-1.5-12.54-10.56-20.69-24.38-20.69-18.42-.14-29.44,13.93-29.44,37.9-.07,25.06,11.25,37.91,29.23,37.91,13.43,0,22.48-7.1,24.59-19.33l30.65.16c-2.28,22.33-21.44,45.72-55.85,45.72-34.12.31-59.64-22.94-59.64-64.39s26.13-64.92,59.79-64.92c30.5,0,52.83,17.28,55.86,47.48H110.37Z"/><path class="cls-3" d="M158.55,2389.34h52.08c28.23,0,45.89,16,45.89,42,0,17.42-8,29.75-21.89,36.09l26.12,48H227.57l-23.13-43.18H188.89v43.18h-30.5ZM204,2448.23c13.59,0,21-5.22,21-16.91s-7.4-17.42-21-17.42H189.05v34.33Z"/><path class="cls-3" d="M303.64,2515.27h-30.5V2389.34h30.5Z"/><path class="cls-3" d="M371.56,2412.75c-11.77,0-17.66,5-17.81,11.93-.3,7.54,7,11.32,18.42,13.73l10.72,2.57c24.92,5.44,38.31,17.82,38.51,37.91-.16,23.84-18.73,38.19-50.13,38.19-31.7,0-52.1-14-52.55-43.65h29.14c.77,12.09,9.51,18.43,23.11,18.43,12.19,0,19.48-5.22,19.61-13-.13-7.11-6.34-10.73-20.22-14.06l-13.13-3.17c-21.74-5-35.18-15.68-35.18-34.84-.16-23.44,20.48-39.13,49.38-39.13,29.27,0,48,16,48.29,39.4H390.58C390,2418.18,383.5,2412.75,371.56,2412.75Z"/><path class="cls-3" d="M437.09,2389.34H489c28.23,0,45.89,17.68,45.89,43.55s-17.95,43.19-46.8,43.19H467.45v39.19H437Zm45.44,62.81c13.59,0,21-7.54,21-19.16s-7.4-19-21-19H467.59v38.41l14.94-.14Z"/><path class="cls-3" d="M670.21,2435.32c-1.52-12.54-10.58-20.69-24.39-20.69-18.43,0-29.45,14-29.45,37.9,0,25.07,11.32,37.9,29.3,37.9,13.42,0,22.48-7.1,24.61-19.33l30.63.16c-2.26,22.34-21.42,45.74-55.85,45.74-34.13.31-59.64-22.94-59.64-64.45s26.07-64.79,59.74-64.79c30.5,0,52.85,17.2,55.86,47.41Z"/><path class="cls-3" d="M773.63,2517.31c-34,0-60.11-23.25-60.11-64.78s26.13-64.77,60.11-64.77,60.08,23.11,60.08,64.77S807.46,2517.31,773.63,2517.31Zm0-102.68c-18.11,0-29,13.45-29,37.9s10.87,37.9,29,37.9,29-13.44,29-37.9S791.9,2414.63,773.63,2414.63Z"/><path class="cls-3" d="M955.26,2515.5H929.5l-50.13-72.63h-.76v72.63H848.06V2389.57h26.26l49.52,72.63h1.06v-72.63h30.35Z"/><path class="cls-3" d="M1081.49,2515.5h-25.83l-50.13-72.63h-.75v72.63h-30.5V2389.57h26.27l49.53,72.63h1.05v-72.63h30.36Z"/><path class="cls-3" d="M1097,2389.57h87.87v24.61h-57.38V2440h52.8v24.77h-52.8v25.81h57.38v24.61H1097Z"/><path class="cls-3" d="M1284.09,2435.32c-1.51-12.54-10.57-20.69-24.38-20.69-18.43,0-29.44,14-29.44,37.9,0,25.07,11.32,37.9,29.28,37.9,13.45,0,22.5-7.1,24.61-19.33l30.66.16c-2.27,22.34-21.45,45.74-55.86,45.74-34.12,0-59.8-23.26-59.8-64.76s26.06-64.78,59.73-64.78c30.5,0,52.82,17.21,55.86,47.41Z"/><path class="cls-3" d="M1324.71,2389.57h106.42v24.61h-38.2v101.16h-30V2414.18h-38.2Z"/></g></g><g id="圖層_2-3-2" data-name="圖層 2-3"><g id="圖層_1-2-2" data-name="圖層 1-2-2"><path class="cls-3" d="M25.53,2586.23h8.71v15.68h.21a9,9,0,0,1,8.86-5.56c6.81,0,12.6,5.35,12.6,16.08,0,10.31-5.58,16.09-12.6,16.09a9,9,0,0,1-8.86-5.57h-.21v4.87H25.53Zm15.26,35.27c4.33,0,6.6-3.71,6.6-9.28s-2.27-9.08-6.6-9.08-6.55,3.52-6.55,9S36.66,2621.5,40.79,2621.5Z"/><path class="cls-3" d="M61.62,2638.62l2.07-6.39c3.08,1,5.23.61,6.39-2.07l.4-1.24-11.13-32h9.08l6.39,22.89h.42L81.63,2597h9.28l-12.19,34.43a11.12,11.12,0,0,1-11.55,8.26A26.23,26.23,0,0,1,61.62,2638.62Z"/><path class="cls-3" d="M149.07,2576.13a27.87,27.87,0,0,0-28.27,27.46v.39a25.6,25.6,0,0,0,8,19.38,28.16,28.16,0,0,0,34,4.11l.61-.4v-12.78l-2.1,1.85a24.6,24.6,0,0,1-6.61,4.33,17.06,17.06,0,0,1-6.39,1.24,16.48,16.48,0,0,1-12.36-5.23,18.27,18.27,0,0,1,0-25.36,16.27,16.27,0,0,1,12.36-5.36,20.36,20.36,0,0,1,13,5.49l2.05,1.63v-12.57l-.61-.42A33.09,33.09,0,0,0,149.07,2576.13Z"/><path class="cls-3" d="M199.79,2603.44a16.31,16.31,0,0,0,3.49-10.1,15.34,15.34,0,0,0-5.37-12.2c-3.1-2.68-8.46-4.11-15.47-4.11H172.17v53.41h10.12v-20l13.93,20.17H208.8l-16.06-22.28A12.2,12.2,0,0,0,199.79,2603.44Zm-6.6-9.89c0,3.08-1,7-9.68,7h-1.22v-13.6h1.44c8.64,0,9.46,3.87,9.46,6.55Z"/><rect class="cls-3" x="213.2" y="2577.16" width="10.1" height="53.42"/><path class="cls-3" d="M253,2597.78l-5.22-2.06c-3.09-1.23-4.74-2.89-4.74-4.73a4.45,4.45,0,0,1,1.74-3.49,6.94,6.94,0,0,1,4.53-1.44,4.91,4.91,0,0,1,3.71,1,9.28,9.28,0,0,1,2.89,3.48l.63,1,8.45-4.94-.61-1q-5.24-9.29-14.86-9.29a16.67,16.67,0,0,0-11.76,4.34,13.66,13.66,0,0,0-4.74,10.45c0,6.19,3.71,10.92,11.13,13.94l4.95,2.05a23,23,0,0,1,3.1,1.74,8.26,8.26,0,0,1,2.06,1.66,7.59,7.59,0,0,1,1,1.84,8.8,8.8,0,0,1,.4,2.27,7,7,0,0,1-6.69,7.23h-.54a7.69,7.69,0,0,1-6-2.89,10.32,10.32,0,0,1-1.63-5.58l-.21-1.44-10.31,2.28.2,1.23a19.17,19.17,0,0,0,5.56,11.76,16.71,16.71,0,0,0,11.76,4.32,17.27,17.27,0,0,0,17.75-16.7V2614a16.69,16.69,0,0,0-3.1-9.7A25.53,25.53,0,0,0,253,2597.78Z"/><path class="cls-3" d="M299.61,2581.7a12.48,12.48,0,0,0-6.39-3.71,42.36,42.36,0,0,0-10.1-1h-9.9v53.41h10.09v-20.9h2.26a19.43,19.43,0,0,0,13.42-4.29,14.73,14.73,0,0,0,5.22-12A15.21,15.21,0,0,0,299.61,2581.7Zm-5.22,11.76c0,2.89-1,7-9.29,7h-1.63v-13.61h1.23c8.94-.17,9.76,3.75,9.76,6.64Z"/><path class="cls-3" d="M321.89,2616.35a15,15,0,0,0,4.74,9.28,14,14,0,0,0,10.12,3.71,15.24,15.24,0,0,0,10.92-4.34,13.89,13.89,0,0,0,4.33-10.71,11.56,11.56,0,0,0-2.68-8.05,22.27,22.27,0,0,0-8.71-5.78l-5.22-2.06c-4.34-1.86-6.39-4.12-6.39-7.21a6.82,6.82,0,0,1,2.66-5.36,8.37,8.37,0,0,1,6.2-2.07,10.4,10.4,0,0,1,4.95,1.23,11.71,11.71,0,0,1,3.08,3.31l4.13-2.47a14,14,0,0,0-11.95-6.81A15.17,15.17,0,0,0,328,2582.5a10.29,10.29,0,0,0-3.92,8.71c0,5.23,3.1,9.08,9.7,11.74l4.95,2.07c1.24.61,2.47,1.24,3.48,1.85a8.71,8.71,0,0,1,2.48,2.28,10.5,10.5,0,0,1,1.44,2.68,7.72,7.72,0,0,1,.42,3.09,9.51,9.51,0,0,1-9.11,9.89H337a9,9,0,0,1-7.84-3.73,12.77,12.77,0,0,1-1.85-5.34Z"/><polygon class="cls-3" points="404.8 2628.1 424.81 2628.1 424.81 2623.36 409.95 2623.36 409.95 2579.63 404.8 2579.63 404.8 2628.1"/><path class="cls-3" d="M452.26,2578.2l-23.34,49.9h5.57l5.58-12.36h23.51L469,2628.1h5.55ZM442.16,2611l9.91-21.65,9.47,21.65Z"/><path class="cls-3" d="M509,2585.83a18.51,18.51,0,0,0-8.25-4.76,38,38,0,0,0-11.76-1.44h-9.49v48.47h9.28a36.59,36.59,0,0,0,11.55-1.23,25.23,25.23,0,0,0,8.26-4.74,23,23,0,0,0,7.83-18A23.78,23.78,0,0,0,509,2585.83Zm-3.72,32.38a19.53,19.53,0,0,1-6.59,3.92,32.54,32.54,0,0,1-8.88,1.23h-4.95v-39h4.76c6.79,0,12.19,1.64,15.67,4.95a20.39,20.39,0,0,1,0,28.84l0,0Z"/><path class="cls-3" d="M631.66,2586a25.08,25.08,0,0,0-35.46-.21h0l-.21.19a23.88,23.88,0,0,0-7.63,17.54,22.64,22.64,0,0,0,8.26,18.76,26,26,0,0,0,35.06-.82,23.94,23.94,0,0,0,7.42-17.73A25.24,25.24,0,0,0,631.66,2586ZM628,2618.4a20,20,0,0,1-14.44,6,20.31,20.31,0,0,1-19.8-20.83v-.12a20.65,20.65,0,0,1,6-13.81,19.9,19.9,0,0,1,28.15-.31h0l.3.3a19,19,0,0,1,5.77,14.44,20,20,0,0,1-6,14.42Z"/><path class="cls-3" d="M659.29,2606.92l1.86-.4a11.38,11.38,0,0,0,7.42-4.54,14,14,0,0,0,2.89-8.45,12.39,12.39,0,0,0-4.53-10.31c-2.68-2.28-7.43-3.49-13.83-3.49h-7.84v48.48h5.23v-20.9h3.31l14.63,20.9h6.41Zm-8.71-3.71v-18.62h3.92c9.7,0,12,4.95,12,9.08s-2.05,9.47-12.19,9.47Z"/><polygon class="cls-3" points="707.55 2628.1 714.78 2628.1 692.5 2601.51 714.15 2579.63 707.34 2579.63 685.9 2601.7 685.9 2579.63 680.74 2579.63 680.74 2628.1 685.9 2628.1 685.9 2607.69 688.79 2604.8 707.55 2628.1"/><path class="cls-3" d="M715.81,2616.35a15,15,0,0,0,4.73,9.28,14,14,0,0,0,10.11,3.71,15.28,15.28,0,0,0,10.93-4.34,13.93,13.93,0,0,0,4.34-10.71,11.56,11.56,0,0,0-2.68-8.05,22.27,22.27,0,0,0-8.71-5.78l-5.23-2.06c-4.31-1.86-6.39-4.12-6.39-7.21a6.9,6.9,0,0,1,2.68-5.36,8.39,8.39,0,0,1,6.19-2.07,10.44,10.44,0,0,1,5,1.23,11.85,11.85,0,0,1,3.08,3.31l4.13-2.47a13.92,13.92,0,0,0-12-6.81,15.15,15.15,0,0,0-10.11,3.48,10.22,10.22,0,0,0-3.91,8.71c0,5.23,3.1,9.08,9.7,11.74l5,2.06c1.24.61,2.48,1.23,3.49,1.84a9,9,0,0,1,2.47,2.28,10.6,10.6,0,0,1,1.45,2.69,7.67,7.67,0,0,1,.41,3.08,9.5,9.5,0,0,1-9.11,9.89H731a9,9,0,0,1-7.84-3.72,12.79,12.79,0,0,1-1.84-5.35Z"/><path class="cls-3" d="M569.17,2631.2l21.65-51.57h-5.56L569.59,2618l-8.71-20.42,7-15.46H549.36l6.2,15.46L546.49,2618l-15.68-38.32h-5.57l21.65,51.57,11.36-27.64Zm-8.45-44.55-2.21,5.36-2.27-5.36Z"/><path class="cls-3" d="M377.57,2578.2l-23.3,49.9h5.57l5.56-12.36.21-.63a19.38,19.38,0,0,0,11.55,3.71,19.83,19.83,0,0,0,11.35-3.49l.19.61,5.37,12.39h5.57Zm-9.68,32.38,9.68-21.08,9.29,21.05A15.52,15.52,0,0,1,367.89,2610.58Z"/></g></g></g></g></g></g></svg>