<svg xmlns="http://www.w3.org/2000/svg" width="157.813" height="13.031" viewBox="0 0 157.813 13.031">
  <defs>
    <style>
      .cls-1 {
        fill: #ff0;
        fill-rule: evenodd;
      }
    </style>
  </defs>
  <path id="_4th-enter" data-name="4th-enter" class="cls-1" d="M567.685,125.545h-1.7l-4.863,7.277v1.231h4.975v2.267h1.593v-2.267h1.4v-1.371h-1.4v-7.137Zm-4.947,7.137,3.354-5.052v5.052h-3.354Zm10.575-6.633a13.96,13.96,0,0,1,2.753,2.253l1.132-1.134a17.054,17.054,0,0,0-2.907-2.155C573.984,125.335,573.676,125.657,573.313,126.049Zm8.679,3.26c0.028-.28.056-0.56,0.07-0.84h2.166a20.273,20.273,0,0,1-.7,2.463l1.5,0.35a28.562,28.562,0,0,0,1.035-4.184l-0.839-.042H579.9a16.971,16.971,0,0,0,.5-2.253l-1.482-.294a13.712,13.712,0,0,1-2.376,6.046l1.468,0.657a14.408,14.408,0,0,0,1.411-2.743h1.132c-0.167,3.625-.81,6.382-4.668,7.837L577,137.5a7.3,7.3,0,0,0,4.319-4.6,7.359,7.359,0,0,0,3.9,4.6l1.048-1.316C583.85,135.271,582.467,133.227,581.992,129.309Zm-8.889,5.6c0.392,0.5.713,0.909,1.034,1.329a30.583,30.583,0,0,0,3.606-3.344c-0.8-1.162-.81-1.19-0.824-1.218A25.642,25.642,0,0,1,573.1,134.907Zm21.86-4.6v-0.8h1.23v0.8h-1.23Zm-2.683-.8H593.5v0.8H592.28v-0.8Zm2.683,2.463v-0.826h1.23v0.826h-1.23Zm-2.683-.826H593.5v0.826H592.28v-0.826Zm-1.887,4.59,0.21,1.26c1.691-.14,4.639-0.406,6.638-0.63q-0.21.273-.419,0.5l1.369,0.658c1.663-1.9,2.194-4.912,2.376-8.537h1.118c-0.1,4.408-.237,6.745-0.489,7.011a0.4,0.4,0,0,1-.293.112c-0.238,0-.741,0-1.063-0.028l0.2,1.4c0.377,0.014,1.006.028,1.3,0.014a1.441,1.441,0,0,0,1.006-.322c0.545-.518.685-3.835,0.839-9.544h-2.572c0.028-1.008.042-2.043,0.042-3.121h-1.425c0,1.078,0,2.113-.028,3.121H598.01v1.357h1.146c-0.14,2.855-.545,5.262-1.663,7.011l-0.014-.713c-0.713.055-1.608,0.125-2.516,0.181V134.7h2.558v-1.064h-2.558v-0.657h2.655V128.5h-2.655v-0.629h2.851V126.8h-2.851v-0.783a19.445,19.445,0,0,0,2.641-.532l-0.7-.98a22.345,22.345,0,0,1-6.3.7l0.447,1.077c0.741,0.014,1.593-.028,2.446-0.1V126.8h-3.033v1.064H593.5V128.5H590.91v4.479H593.5v0.657h-2.684V134.7H593.5v0.867C592.308,135.634,591.176,135.7,590.393,135.732Zm19.96-8.144v6.829H617.5v-6.829H614.6V126.3h5.842v-1.273h-12.97V126.3h5.66v1.288h-2.781ZM614.6,130.4v-1.568h1.453V130.4H614.6Zm-2.865-1.568h1.4V130.4h-1.4v-1.568Zm2.865,4.324v-1.609h1.453v1.609H614.6Zm-2.865-1.609h1.4v1.609h-1.4v-1.609Zm-2.236,3.89v-7.584h-1.44v9.628h1.44v-0.728h8.874v0.728h1.468v-9.628h-1.468v7.584H609.5Zm15.111-9.963a10.912,10.912,0,0,1,1.663,2.533l1.285-.714a10.961,10.961,0,0,0-1.844-2.5Zm3.507,1.189v1.33c0,1.273.252,1.553,1.524,1.581,0.321,0,.922.014,1.3,0,1.118-.014,1.356-0.2,1.468-1.469l-1.188-.2c-0.028.545-.056,0.559-0.377,0.573h-1.063c-0.321-.014-0.391-0.069-0.391-0.489v-0.322h2.558v-2.785h-3.927V125.9h2.641v0.769h-2.544Zm4.752,0v1.33c0,1.259.252,1.553,1.565,1.581,0.364,0.014.993,0.014,1.4,0,1.146-.014,1.4-0.2,1.523-1.469l-1.23-.2c-0.028.532-.056,0.573-0.4,0.587-0.307.014-.852,0.014-1.132,0-0.363-.014-0.419-0.083-0.419-0.517v-0.308H636.9v-2.785h-4.137V125.9H635.6v0.769h-2.725Zm-1.272,5.892v-1.12h1.929v1.12H631.6Zm-0.81,1.133h3.424l-0.993.546a22.838,22.838,0,0,1,2.628,1.679l1.328-.6a27.754,27.754,0,0,0-2.684-1.624h2.851v-1.133h-2.334v-1.12h1.943v-1.119h-1.943v-0.686h-1.481v0.686H631.6v-0.686h-1.467v0.686h-1.887v1.119h1.887v1.12h-2.166v1.133h2.711a8.726,8.726,0,0,1-2.278,1.316l1.2,0.8a9.368,9.368,0,0,0,2.4-1.637Zm-3.3,1.106v-4.59h-2.976v1.343h1.551v3.5a16.538,16.538,0,0,1-1.733,1.133l0.587,1.344c0.6-.448,1.286-0.938,2.012-1.568a4.229,4.229,0,0,0,3.271,1.316c1.719,0.056,5.352.042,7.127,0l0.238-1.26c-1.831.07-5.576,0.084-7.17,0.042A3.651,3.651,0,0,1,627.49,134.795Zm20.811-6.186v-1.287h2.557a13.2,13.2,0,0,1-1.509,1.287H648.3Zm2.865,4.311h-4.542c0.069-.252.153-0.5,0.223-0.742a29.163,29.163,0,0,0,6.065-.686l-0.545-1.133a24.117,24.117,0,0,1-4.15.573,18.528,18.528,0,0,0,1.663-1.077h4.765v-1.246h-3.214a15.812,15.812,0,0,0,2.418-2.7l-1.216-.658a15.342,15.342,0,0,1-1.356,1.651v-0.811H648.3v-1.582h-1.552v1.582h-3.438v1.231h3.438v1.287h-5.073v1.246h5.73a24.585,24.585,0,0,1-5.884,2.3l1.007,1.189c0.894-.266,1.761-0.573,2.585-0.909-0.293.923-.629,1.861-0.88,2.491l1.663,0.084c0.084-.224.181-0.49,0.279-0.784h4.78c-0.224,1.161-.5,1.721-0.783,1.819a0.648,0.648,0,0,1-.349.07c-0.308.014-1.048,0-1.5-.028l0.251,1.4c0.461,0.014,1.3.028,1.649,0.014a2.939,2.939,0,0,0,1.048-.182c0.671-.294,1.132-1.61,1.524-4.394h-1.635Zm12.013,0.811v0.462c0,0.994-.308,1.469-1.272,1.469-1.286,0-2.012-.447-2.012-1.007,0-.644.712-1.078,2.1-1.078A5.23,5.23,0,0,1,663.179,133.731Zm1.369-6.6c0-.336-0.014-0.672-0.014-0.993,0-.42,0-0.812.014-1.2h-1.663c0.028,2.113.154,5.262,0.238,7.333a5.544,5.544,0,0,0-.937-0.084c-2.459,0-3.759.979-3.759,2.491,0,1.4,1.44,2.407,3.55,2.407,1.97,0,2.753-.98,2.781-2.771a13.223,13.223,0,0,1,3.228,2.113l1.076-1.287a16.47,16.47,0,0,0-4.346-2.435c-0.042-1.106-.1-2.589-0.14-4.087H669.1v-1.483h-4.556Zm17.073-1.721a19.046,19.046,0,0,1,.531,4.73c0,2.785-.671,4.45-4.528,5.513l0.908,1.512c4.333-1.358,5.283-3.821,5.283-7.053a25.343,25.343,0,0,0-.475-4.982Zm-6.75,3.988a9.609,9.609,0,0,0,.684,3.848l1.37-.209a19.275,19.275,0,0,1,1.663-3.149L677.582,129c-0.294.476-.811,1.358-1.034,1.777a6.124,6.124,0,0,1-.168-1.525,11.492,11.492,0,0,1,.643-3.6l-1.607-.336a15.274,15.274,0,0,0-.545,4.058v0.014Zm23.5,0.644h3.69v-1.26h-6.625a9.233,9.233,0,0,0,.461-0.923c1.174-.056,2.32-0.126,3.285-0.182a6.163,6.163,0,0,1,.615.783c0.419-.237.838-0.475,1.341-0.755a14.171,14.171,0,0,0-3.172-2.9l-1.146.756q0.712,0.525,1.3,1.049c-1.313.042-2.851,0.084-4.3,0.126a19.208,19.208,0,0,0,1.328-1.889l-1.607-.336a16.76,16.76,0,0,1-1.384,2.253c-0.8.014-1.509,0.028-2.082,0.028l0.251,1.316c1.062-.042,2.488-0.1,3.983-0.182a7.032,7.032,0,0,1-.461.853h-4.584v1.26h3.522A9.734,9.734,0,0,1,689,132.108l0.979,1.077a10.324,10.324,0,0,0,4.612-3.148h2.054a8.7,8.7,0,0,0,4.78,3.106l0.852-1.175A8.1,8.1,0,0,1,698.376,130.037Zm-2.362.434a10.61,10.61,0,0,1-4.4,2.183,9.893,9.893,0,0,0,1.216.839,11.693,11.693,0,0,0,4.444-2.449Zm1.384,1.567a11.749,11.749,0,0,1-5.912,2.421l1.16,0.965a13.09,13.09,0,0,0,5.968-2.742Zm1.565,1.553c-1.985,1.708-4.877,2.519-8.134,2.743l1.188,1.176c3.187-.378,6.247-1.372,8.232-3.149C699.843,134.123,699.452,133.885,698.963,133.591Zm12.579-6.451H709.99c0.042-.91.056-1.805,0.07-2.631l-1.467-.014c-0.014.84-.014,1.735-0.056,2.645h-2.166v1.413h2.1c-0.21,3.023-.783,6.088-2.334,7.963l1.356,0.812c1.593-2.071,2.194-5.486,2.431-8.775h1.594c-0.084,4.409-.224,6.732-0.49,7.011a0.421,0.421,0,0,1-.321.112c-0.266.014-.853,0-1.216-0.028l0.21,1.442c0.419,0.028,1.132.028,1.453,0.028a1.476,1.476,0,0,0,1.034-.336c0.559-.532.713-3.876,0.853-9.642h-1.5Zm5.869,9.264v0.812h1.538V125.671h-5.2v11.6h1.481V136.4h2.18Zm-2.18-1.4V127.1h2.18v7.907h-2.18Z" transform="translate(-561.125 -124.5)"/>
</svg>
