<svg xmlns="http://www.w3.org/2000/svg" width="59.156" height="12.97" viewBox="0 0 59.156 12.97">
  <defs>
    <style>
      .cls-1 {
        fill-rule: evenodd;
      }
    </style>
  </defs>
  <path id="back.svg" class="cls-1" d="M599.723,2450.95l5.175,0.02a3.949,3.949,0,0,0,3.932-3.91,4.054,4.054,0,0,0-1.932-3.3,3.716,3.716,0,0,0,.772-2.1,3.442,3.442,0,0,0-3.528-3.46h-4.419v12.75Zm2.067-7.73v-3.12h2.268a1.56,1.56,0,1,1,0,3.12H601.79Zm0,5.83v-3.96h2.974a1.98,1.98,0,1,1,0,3.96H601.79Zm22.8,1.9h2.251L621.5,2438.2h-2.151l-5.309,12.75h2.285l1.075-2.6h6.1Zm-6.4-4.5,2.235-5.42,2.268,5.42h-4.5Zm20.194,2.58a4.465,4.465,0,1,1,0-8.93,4.664,4.664,0,0,1,3.226,1.33l1.445-1.44a6.669,6.669,0,0,0-4.671-1.91,6.5,6.5,0,1,0,0,12.99,6.669,6.669,0,0,0,4.671-1.91l-1.445-1.44A4.646,4.646,0,0,1,638.381,2449.03Zm17.927,1.94h2.57l-6.032-6.59,4.923-6.18h-2.4L651,2443.68v-5.48h-2.067v12.77H651v-5.8Z" transform="translate(-599.719 -2438.09)"/>
</svg>
