<svg id="281" data-name="281" xmlns="http://www.w3.org/2000/svg" width="206" height="8" viewBox="0 0 206 8">
  <g id="279" data-name="279" transform="translate(28.635)">
    <path id="382" data-name="382" d="M2008.81,1217.2v-.988h4.387v.988h-1.666v5.628h-1.047V1217.2Z" transform="translate(-1921.843 -1215.691)"/>
    <g id="278" data-name="278">
      <path id="383" data-name="383" d="M1391.03,1217.2v-.988h4.386v.988h-1.665v5.628H1392.7V1217.2Z" transform="translate(-1391.03 -1215.691)"/>
      <path id="384" data-name="384" d="M1461.535,1220.05v2.775h-1.056v-6.616h1.056v2.853h3.6v-2.853h1.047v6.616h-1.047v-2.775Z" transform="translate(-1450.702 -1215.691)"/>
      <path id="385" data-name="385" d="M1547.408,1216.209v.988h-3.073v1.865H1547v.988h-2.67v1.787h3.073v.988h-4.129v-6.616Z" transform="translate(-1521.846 -1215.691)"/>
      <path id="386" data-name="386" d="M1650.3,1216.209v.988h-3.065v1.865h2.661v.988h-2.661v2.775h-1.065v-6.616Z" transform="translate(-1610.255 -1215.691)"/>
      <path id="387" data-name="387" d="M1714.319,1218.747v-4.659l-1.331.644v-.988l2.361-1.211v6.214h1.339v.919h-3.7v-.919Z" transform="translate(-1667.665 -1212.533)"/>
      <path id="388" data-name="388" d="M1781.125,1222.825l-1.751-2.655h-.936v2.655h-1.056v-6.616h2.532a1.989,1.989,0,0,1,.644,3.849l1.82,2.767Zm-2.687-3.643h1.433a.995.995,0,0,0,0-1.985h-1.433Z" transform="translate(-1722.994 -1215.691)"/>
      <path id="389" data-name="389" d="M1848.076,1221.11l.944-.49a1.384,1.384,0,0,0,1.279.833,1.022,1.022,0,0,0,1.124-.816c.026-.421-.223-.79-.927-1.048-.36-.137-.6-.206-1.013-.361a1.748,1.748,0,0,1-1.254-1.641,1.811,1.811,0,0,1,1.957-1.8,2.185,2.185,0,0,1,1.837,1.04l-.91.558a1.14,1.14,0,0,0-.936-.541.794.794,0,0,0-.893.739c0,.4.378.593.7.7.387.146.816.275,1.254.464a1.831,1.831,0,0,1,1.236,1.83,2,2,0,0,1-2.215,1.942A2.422,2.422,0,0,1,1848.076,1221.11Z" transform="translate(-1783.736 -1215.325)"/>
      <path id="390" data-name="390" d="M1848.076,1221.11l.944-.49a1.384,1.384,0,0,0,1.279.833,1.022,1.022,0,0,0,1.124-.816c.026-.421-.223-.79-.927-1.048-.36-.137-.6-.206-1.013-.361a1.748,1.748,0,0,1-1.254-1.641,1.811,1.811,0,0,1,1.957-1.8,2.185,2.185,0,0,1,1.837,1.04l-.91.558a1.14,1.14,0,0,0-.936-.541.794.794,0,0,0-.893.739c0,.4.378.593.7.7.387.146.816.275,1.254.464a1.831,1.831,0,0,1,1.236,1.83,2,2,0,0,1-2.215,1.942A2.422,2.422,0,0,1,1848.076,1221.11Z" transform="translate(-1783.736 -1215.325)"/>
      <path id="391" data-name="391" d="M1914.884,1217.2v-.988h4.387v.988h-1.665v5.628h-1.047V1217.2Z" transform="translate(-1841.139 -1215.691)"/>
      <path id="392" data-name="392" d="M2328.681,1221.11l.944-.49a1.384,1.384,0,0,0,1.279.833,1.022,1.022,0,0,0,1.124-.816c.026-.421-.223-.79-.927-1.048-.36-.137-.6-.206-1.013-.361a1.748,1.748,0,0,1-1.254-1.641,1.811,1.811,0,0,1,1.957-1.8,2.184,2.184,0,0,1,1.837,1.04l-.91.558a1.139,1.139,0,0,0-.936-.541.794.794,0,0,0-.893.739c0,.4.378.593.7.7.386.146.815.275,1.253.464a1.832,1.832,0,0,1,1.236,1.83,2,2,0,0,1-2.215,1.942A2.422,2.422,0,0,1,2328.681,1221.11Z" transform="translate(-2196.684 -1215.325)"/>
      <path id="393" data-name="393" d="M2328.681,1221.11l.944-.49a1.384,1.384,0,0,0,1.279.833,1.022,1.022,0,0,0,1.124-.816c.026-.421-.223-.79-.927-1.048-.36-.137-.6-.206-1.013-.361a1.748,1.748,0,0,1-1.254-1.641,1.811,1.811,0,0,1,1.957-1.8,2.184,2.184,0,0,1,1.837,1.04l-.91.558a1.139,1.139,0,0,0-.936-.541.794.794,0,0,0-.893.739c0,.4.378.593.7.7.386.146.815.275,1.253.464a1.832,1.832,0,0,1,1.236,1.83,2,2,0,0,1-2.215,1.942A2.422,2.422,0,0,1,2328.681,1221.11Z" transform="translate(-2196.684 -1215.325)"/>
      <path id="394" data-name="394" d="M2074.836,1221.476h-3.116l-.55,1.349H2070l2.712-6.616h1.1l2.73,6.616h-1.15Zm-.412-.988-1.159-2.81-1.142,2.81Z" transform="translate(-1974.422 -1215.691)"/>
      <g id="277" data-name="277" transform="translate(141.401 0.517)">
        <path id="395" data-name="395" d="M2395.488,1217.2v-.988h4.387v.988h-1.666v5.628h-1.047V1217.2Z" transform="translate(-2395.488 -1216.209)"/>
        <path id="396" data-name="396" d="M2461.515,1221.476H2458.4l-.549,1.349h-1.167l2.712-6.616h1.1l2.73,6.616h-1.15Zm-.412-.988-1.159-2.81-1.142,2.81Z" transform="translate(-2448.067 -1216.209)"/>
      </g>
      <path id="397" data-name="397" d="M2155.113,1219.826v3.007h-1.056v-6.625h1.056v2.844l2.232-2.844h1.228l-2.515,3.205,3.082,3.419h-1.313Z" transform="translate(-2046.643 -1215.691)"/>
      <path id="398" data-name="398" d="M2231.99,1216.209v.988h-3.073v1.865h2.67v.988h-2.67v1.787h3.073v.988h-4.129v-6.616Z" transform="translate(-2110.057 -1215.691)"/>
      <path id="399" data-name="399" d="M2624.642,1216.209v.988h-3.073v1.865h2.67v.988h-2.67v1.787h3.073v.988h-4.129v-6.616Z" transform="translate(-2447.434 -1215.691)"/>
      <path id="400" data-name="400" d="M2535.057,1219.1a3.349,3.349,0,0,1,3.385-3.351,3.4,3.4,0,0,1,2.388,1l-.743.746a2.366,2.366,0,0,0-1.649-.694,2.319,2.319,0,0,0-.018,4.637,2.255,2.255,0,0,0,1.845-.9l0-.886-1.815-.007,0-.989,2.865.011-.009,2.2a3.369,3.369,0,0,1-6.256-1.762Z" transform="translate(-2374.008 -1215.297)"/>
    </g>
  </g>
  <g id="280" data-name="280" transform="translate(0 0.456)">
    <path id="401" data-name="401" d="M1194.362,1219.145a3.373,3.373,0,1,1-3.373-3.373A3.356,3.356,0,0,1,1194.362,1219.145Zm-1.2-.009a2.168,2.168,0,1,0-2.168,2.177A2.157,2.157,0,0,0,1193.158,1219.136Z" transform="translate(-1187.617 -1215.772)"/>
    <path id="402" data-name="402" d="M1281.012,1216.2v1.118H1278.1v1.635h2.53v1.119h-2.53v2.753h-1.222V1216.2Z" transform="translate(-1264.309 -1216.14)"/>
  </g>
</svg>
