<svg id="283" data-name="283" xmlns="http://www.w3.org/2000/svg" width="277" height="21" viewBox="0 0 277 21">
  <path id="403" data-name="403" d="M822.348,897.629h7.1a5.617,5.617,0,0,1,5.614,5.614,5.737,5.737,0,0,1-1.033,3.257,6.279,6.279,0,0,1-3.416,11.546l-8.262-.026Zm6.859,7.839a2.2,2.2,0,0,0,0-4.4h-3.151v4.4Zm1.192,9.109a2.861,2.861,0,0,0,0-5.72h-4.343v5.72Z" transform="translate(-822.348 -897.444)"/>
  <path id="404" data-name="404" d="M1082.389,913.995h-9.11l-1.641,4.025h-4.025l8.368-20.39h3.628l8.421,20.39h-3.972Zm-1.43-3.443-3.178-7.626-3.1,7.626Z" transform="translate(-1037.086 -897.444)"/>
  <path id="405" data-name="405" d="M1364.585,911.406l2.622,2.648a10.454,10.454,0,0,1-7.362,3.019,10.381,10.381,0,0,1,0-20.761,10.453,10.453,0,0,1,7.362,3.019l-2.622,2.648a6.673,6.673,0,1,0,0,9.427Z" transform="translate(-1283.26 -896.312)"/>
  <path id="406" data-name="406" d="M1877.184,912.466l3.257-1.668a3.858,3.858,0,0,0,3.654,2.622c1.775,0,3.2-.98,3.2-2.3s-.927-2.039-2.383-2.7c-1.35-.609-2.118-.768-3.76-1.483a5.343,5.343,0,0,1-3.416-4.978c0-3.5,2.7-5.641,6.064-5.641a6.66,6.66,0,0,1,5.959,3.469l-3.178,1.96a3.415,3.415,0,0,0-2.834-1.774,2.079,2.079,0,0,0-2.3,1.907c0,.821.476,1.324,1.536,1.774,1.456.609,2.569,1.006,4.316,1.774a5.879,5.879,0,0,1,3.707,5.4c0,3.84-2.993,6.25-6.991,6.25A7.294,7.294,0,0,1,1877.184,912.466Z" transform="translate(-1744.691 -896.312)"/>
  <path id="407" data-name="407" d="M2120.492,901.072v-3.443h13.823v3.443h-5.058v16.948h-3.707V901.072Z" transform="translate(-1957.748 -897.444)"/>
  <path id="408" data-name="408" d="M2360.612,913.995H2351.5l-1.642,4.025h-4.025l8.368-20.39h3.628l8.42,20.39h-3.972Zm-1.43-3.443L2356,902.925l-3.1,7.626Z" transform="translate(-2155.369 -897.444)"/>
  <path id="409" data-name="409" d="M2627.164,906.666a10.307,10.307,0,0,1,10.38-10.354,10.452,10.452,0,0,1,7.361,3.019l-2.621,2.648a6.678,6.678,0,1,0-4.74,11.387,6.385,6.385,0,0,0,5.349-2.7v-2.251h-5.4v-3.443h9.109v6.806a10.384,10.384,0,0,1-19.437-5.111Z" transform="translate(-2401.094 -896.312)"/>
  <path id="410" data-name="410" d="M2939.744,897.629v3.443h-9.057V906.1h7.839v3.443h-7.839v5.031h9.057v3.443H2926.98v-20.39Z" transform="translate(-2662.703 -897.444)"/>
  <g id="282" data-name="282" transform="translate(101.606 0.185)">
    <path id="411" data-name="411" d="M1633.069,918.019h-3.707v-20.39h3.707Z" transform="translate(-1629.362 -897.629)"/>
    <path id="412" data-name="412" d="M1657.413,918.019l-9.023-10.191,9.017-10.2h-4.279l-9.008,10.19-.011.01h0l9.022,10.19Z" transform="translate(-1642.032 -897.629)"/>
  </g>
</svg>
