<svg xmlns="http://www.w3.org/2000/svg" width="330.666" height="13.301" viewBox="0 0 330.666 13.301">
  <path id="パス_1071" data-name="パス 1071" d="M-162.407-8.442a22.393,22.393,0,0,0,1.008-3.066l-1.442-.322a19.224,19.224,0,0,1-2.926,6.748,10.278,10.278,0,0,1,.854,1.288,18.627,18.627,0,0,0,1.036-1.61v6.58h1.47Zm4.186,1.582a9.3,9.3,0,0,0-.588-1.386h3.052c-.154.42-.364.91-.588,1.386Zm2.128,4.9h3.57V-3.15h-4.046v-.7h3.136V-4.984h-3.136v-.7h3.738V-6.86h-2.044a13.018,13.018,0,0,0,.644-1.2l-.56-.182h2.268V-9.422h-1.848a15.493,15.493,0,0,0,1.358-1.652l-1.218-.532a13.55,13.55,0,0,1-1.148,1.722l.924.462h-1.134v-2.394h-1.288v2.394h-.91v-2.394h-1.274v2.394h-1.176l.966-.518a8.744,8.744,0,0,0-1.092-1.694l-1.022.56a8.005,8.005,0,0,1,1.036,1.652h-1.344v1.176h2.03l-.49.182a8.3,8.3,0,0,1,.532,1.2h-1.82v1.176h3.388v.7h-2.758V-3.85h2.758v.7h-3.7v1.19h3.332c-.49.742-1.526,1.386-3.4,1.932l.882,1.218a7.445,7.445,0,0,0,3.766-2.408,6.4,6.4,0,0,0,3.878,2.394l.882-1.3A5.4,5.4,0,0,1-156.093-1.96Zm19.8-9.52a8.564,8.564,0,0,1,1.47,1.764l.8-.63a9.221,9.221,0,0,0-1.512-1.764Zm-1.652,1.022a8.127,8.127,0,0,1,1.47,1.75l.784-.63a9.083,9.083,0,0,0-1.5-1.764Zm-8.456.77v1.47h2.338A26.864,26.864,0,0,1-146.741,0l1.484.742a33.956,33.956,0,0,0,2.814-8.96h4.172v-1.47h-3.934c.084-.546.154-1.078.21-1.61l-1.652-.084c-.042.546-.112,1.12-.182,1.694Zm11.074,2.6c-.49-.028-1.106-.042-1.764-.042-1.19.014-2.646.07-3.682.182l.084,1.428a27.082,27.082,0,0,1,3.458-.224c.7,0,1.372.014,1.9.07Zm-5.628,3.738a4.69,4.69,0,0,0-.56,1.946c0,1.33,1.694,1.82,4.242,1.82.7,0,1.414-.028,2.142-.1v-1.5a12.929,12.929,0,0,1-2.156.182c-1.708,0-2.73-.2-2.73-.812a2.851,2.851,0,0,1,.42-1.274Zm13.86-7.924a33.535,33.535,0,0,0-.518,5.922,16.334,16.334,0,0,0,.8,5.488l1.6-.49a14.255,14.255,0,0,1-.826-5.152,26.289,26.289,0,0,1,.56-5.53Zm2.856,3.08v1.484h4.214l.014.182c.238,3.094-.5,4.956-2.52,6.3l1.316,1.078c2.184-1.624,2.744-3.738,2.744-7.336v-.224h1.932V-8.19h-1.96c-.028-.98-.07-2.058-.154-3.22l-1.694.1c.14,1.106.224,2.156.28,3.122Zm24.766.994c-.938.406-2.212.882-3.472,1.442a1.76,1.76,0,0,0-1.764-1.3,4.311,4.311,0,0,0-2.058.644,10.947,10.947,0,0,0,1.092-1.89h4.83V-9.7h-4.242a14.773,14.773,0,0,0,.476-1.456l-1.624-.322a11.092,11.092,0,0,1-.546,1.778H-110v1.4h2.6a15.339,15.339,0,0,1-3.038,4.284l1.246,1.008a13.812,13.812,0,0,1,1.414-1.554,4.17,4.17,0,0,1,2.73-1.218c.308,0,.574.2.756.644-1.89.952-3.472,2.086-3.472,3.472,0,1.6,1.68,2.394,4.522,2.394a24.241,24.241,0,0,0,3.7-.238l-.14-1.47a20.035,20.035,0,0,1-3.57.322c-1.988,0-2.94-.364-2.94-1.078,0-.686.924-1.386,2.184-2.03q.042.546.042,1.26c0,.224,0,.448-.014.7h1.5a19.32,19.32,0,0,0-.14-2.59c1.26-.532,2.632-1.008,3.738-1.386ZM-84.469-5.4V-4h3.584V-5.4Zm17.934-5.376V0H-64.8V-4.522h4.34v-1.61H-64.8V-9.17h5v-1.61ZM-53.571,0h1.61V-3.836a1.574,1.574,0,0,1,1.61-1.61,1.74,1.74,0,0,1,.91.28l.6-1.526a2.982,2.982,0,0,0-1.386-.336,2.075,2.075,0,0,0-1.736.9v-.8h-1.61Zm13.314.1a3.543,3.543,0,0,0,3.542-3.57,3.54,3.54,0,0,0-3.542-3.556A3.531,3.531,0,0,0-43.8-3.472,3.534,3.534,0,0,0-40.257.1Zm0-1.61a1.969,1.969,0,0,1-1.932-1.96,1.957,1.957,0,0,1,1.932-1.946,1.957,1.957,0,0,1,1.932,1.946A1.979,1.979,0,0,1-40.257-1.512ZM-30.905,0h1.61V-3.794a1.52,1.52,0,0,1,1.54-1.582,1.534,1.534,0,0,1,1.568,1.582V0h1.61V-3.794a1.572,1.572,0,0,1,1.54-1.652,1.561,1.561,0,0,1,1.526,1.652V0h1.6V-3.836A3.08,3.08,0,0,0-23-7.028,3.422,3.422,0,0,0-25.417-5.95a2.71,2.71,0,0,0-2.142-1.078,2.454,2.454,0,0,0-1.736.714V-6.93h-1.61Zm28.21-9.17V0H-.987V-9.17H1.729v-1.61H-5.425v1.61ZM15.687-4.522V0H17.4V-10.78H15.687v4.648H9.821V-10.78H8.1V0H9.821V-4.522Zm8.708-6.258V0h6.734V-1.61H26.117V-4.522h4.354v-1.61H26.117V-9.17h5.012v-1.61Zm21.854,0V0h1.736V-4.522h4.34v-1.61h-4.34V-9.17h5v-1.61Zm14.966,0V0H59.493V-10.78ZM76.363,0,73.4-4.508a3.156,3.156,0,0,0,2.1-3.038,3.156,3.156,0,0,0-3.15-3.234h-4.13V0h1.722V-4.326h1.526L74.319,0ZM69.937-9.17h2.338a1.558,1.558,0,0,1,1.512,1.624,1.554,1.554,0,0,1-1.512,1.61H69.937ZM85.169.1c2.086,0,3.612-1.26,3.612-3.22a3.061,3.061,0,0,0-2.1-2.94c-.714-.308-1.33-.5-1.96-.742-.518-.182-1.134-.49-1.134-1.148a1.314,1.314,0,0,1,1.456-1.232,1.846,1.846,0,0,1,1.526.91l1.484-.91a3.564,3.564,0,0,0-3-1.694,2.953,2.953,0,0,0-3.192,2.94,2.849,2.849,0,0,0,2.044,2.674c.672.252,1.064.364,1.652.588,1.148.42,1.512.938,1.512,1.624,0,.84-.77,1.456-1.834,1.456A2.289,2.289,0,0,1,83.153-3l-1.54.8A3.95,3.95,0,0,0,85.169.1ZM97.111-9.17V0h1.708V-9.17h2.716v-1.61H94.381v1.61Zm21.294,0V0h1.708V-9.17h2.716v-1.61h-7.154v1.61ZM135.891,0h1.876l-4.452-10.78h-1.792L127.1,0H129l.9-2.2h5.082Zm-5.334-3.808,1.862-4.578,1.89,4.578ZM149.933.014h2.142l-5.026-5.572,4.1-5.222h-2l-3.64,4.634V-10.78h-1.722V.014h1.722v-4.9Zm8.232-10.794V0H164.9V-1.61h-5.012V-4.522h4.354v-1.61h-4.354V-9.17H164.9v-1.61Z" transform="translate(165.767 12.11)" fill="#ff0098"/>
</svg>
