<svg xmlns="http://www.w3.org/2000/svg" width="294.742" height="10.976" viewBox="0 0 294.742 10.976">
  <path id="comment" d="M-141.638-1.624A3.741,3.741,0,0,1-145.4-5.39a3.744,3.744,0,0,1,3.766-3.78,3.85,3.85,0,0,1,2.688,1.12l1.2-1.218a5.529,5.529,0,0,0-3.892-1.61A5.449,5.449,0,0,0-147.126-5.4,5.464,5.464,0,0,0-141.638.1a5.529,5.529,0,0,0,3.892-1.61l-1.2-1.218A3.837,3.837,0,0,1-141.638-1.624Zm15.12-9.254a5.479,5.479,0,0,0-5.488,5.488A5.479,5.479,0,0,0-126.518.1,5.461,5.461,0,0,0-121.03-5.39,5.488,5.488,0,0,0-126.518-10.878Zm0,9.254a3.758,3.758,0,0,1-3.766-3.766,3.744,3.744,0,0,1,3.766-3.78,3.773,3.773,0,0,1,3.78,3.78A3.761,3.761,0,0,1-126.518-1.624Zm21.574-6.384V0h1.722V-10.78h-1.862l-3.822,5.4-3.836-5.4h-1.848V0h1.722V-8.022l3.962,5.586Zm18.368,0V0h1.722V-10.78h-1.862l-3.822,5.4-3.836-5.4h-1.848V0H-94.5V-8.022l3.962,5.586Zm8.722-2.772V0h6.734V-1.61h-5.012V-4.522h4.354v-1.61h-4.354V-9.17h5.012v-1.61Zm15.176,2.632L-56.9,0h1.876V-10.78h-1.722v8.022l-5.712-8.022H-64.4V0h1.722ZM-45.92-9.17V0h1.708V-9.17H-41.5v-1.61H-48.65v1.61ZM-32.34.1c2.086,0,3.612-1.26,3.612-3.22a3.061,3.061,0,0,0-2.1-2.94c-.714-.308-1.33-.5-1.96-.742-.518-.182-1.134-.49-1.134-1.148a1.314,1.314,0,0,1,1.456-1.232,1.846,1.846,0,0,1,1.526.91l1.484-.91a3.564,3.564,0,0,0-3-1.694,2.953,2.953,0,0,0-3.192,2.94A2.849,2.849,0,0,0-33.6-5.264c.672.252,1.064.364,1.652.588,1.148.42,1.512.938,1.512,1.624,0,.84-.77,1.456-1.834,1.456A2.289,2.289,0,0,1-34.356-3l-1.54.8A3.95,3.95,0,0,0-32.34.1ZM-13.272.014h1.61V-5.4h1.232V-6.93h-1.232V-9.436h-1.61V-6.93h-1.246V-5.4h1.246ZM-1.428.1a3.543,3.543,0,0,0,3.542-3.57A3.54,3.54,0,0,0-1.428-7.028,3.531,3.531,0,0,0-4.97-3.472,3.534,3.534,0,0,0-1.428.1Zm0-1.61A1.969,1.969,0,0,1-3.36-3.472,1.957,1.957,0,0,1-1.428-5.418,1.957,1.957,0,0,1,.5-3.472,1.979,1.979,0,0,1-1.428-1.512ZM21.882.1a5.467,5.467,0,0,0,4.7-2.674V-6.16H21.924v1.61h2.954v1.442a3.67,3.67,0,0,1-3,1.484A3.749,3.749,0,0,1,18.116-5.39a3.744,3.744,0,0,1,3.766-3.78A3.85,3.85,0,0,1,24.57-8.05l1.2-1.218a5.529,5.529,0,0,0-3.892-1.61A5.449,5.449,0,0,0,16.394-5.4,5.447,5.447,0,0,0,21.882.1ZM41.524,0,38.556-4.508a3.156,3.156,0,0,0,2.1-3.038,3.156,3.156,0,0,0-3.15-3.234h-4.13V0H35.1V-4.326h1.526L39.48,0ZM35.1-9.17h2.338a1.558,1.558,0,0,1,1.512,1.624,1.554,1.554,0,0,1-1.512,1.61H35.1ZM55.636,0h1.876L53.06-10.78H51.268L46.844,0h1.9l.9-2.2h5.082ZM50.3-3.808l1.862-4.578,1.89,4.578Zm14.952-4.34L71.036,0h1.876V-10.78H71.19v8.022L65.478-10.78H63.532V0h1.722ZM79.912,0H83.2a5.413,5.413,0,0,0,5.39-5.4A5.407,5.407,0,0,0,83.2-10.78h-3.29Zm1.722-1.61V-9.17H83.16A3.7,3.7,0,0,1,86.884-5.4,3.712,3.712,0,0,1,83.16-1.61Zm26-9.17H103.5V0h1.722V-4.326h2.408a3.153,3.153,0,0,0,3.15-3.22A3.156,3.156,0,0,0,107.632-10.78Zm-.07,1.61a1.558,1.558,0,0,1,1.512,1.624,1.554,1.554,0,0,1-1.512,1.61h-2.338V-9.17ZM125.37,0,122.4-4.508a3.156,3.156,0,0,0,2.1-3.038,3.156,3.156,0,0,0-3.15-3.234h-4.13V0h1.722V-4.326h1.526L123.326,0Zm-6.426-9.17h2.338a1.558,1.558,0,0,1,1.512,1.624,1.554,1.554,0,0,1-1.512,1.61h-2.338Zm14.448-1.61V0H131.67V-10.78Zm10.136,6.958L145.656,0h1.96l-3.094-5.4,3.094-5.376h-1.988L143.528-7l-2.1-3.78h-2.016L142.534-5.4,139.426,0H141.4Z" transform="translate(147.126 10.878)" fill="#ff0098"/>
</svg>
