<svg xmlns="http://www.w3.org/2000/svg" width="67.907" height="20.4" viewBox="0 0 67.907 20.4">
  <defs>
    <style>
      .cls-1 {
        fill-rule: evenodd;
      }
    </style>
  </defs>
  <path id="faq.svg" class="cls-1" d="M605.8,5185.38v20.02h3.225V5197h8.06v-2.99h-8.06v-5.64h9.282v-2.99H605.8Zm36.5,20.02h3.484l-8.268-20.02H634.2l-8.217,20.02h3.536l1.664-4.08h9.439Zm-9.906-7.07,3.458-8.5,3.51,8.5H632.4Zm41.314-2.94a10.12,10.12,0,1,0-5.018,8.81l0.962,1.2h3.77l-2.444-3.04A10.21,10.21,0,0,0,673.715,5195.39Zm-10.193,6.99a6.965,6.965,0,1,1,5.435-2.54l-3.823-4.71-2.314,1.85,3.8,4.68A6.969,6.969,0,0,1,663.522,5202.38Z" transform="translate(-605.812 -5185.19)"/>
</svg>
