<svg xmlns="http://www.w3.org/2000/svg" width="222.874" height="27.4" viewBox="0 0 222.874 27.4">
  <defs>
    <style>
      .cls-1 {
        fill-rule: evenodd;
      }
    </style>
  </defs>
  <path id="faq_contact.svg" class="cls-1" d="M505.907,11779.7a9.45,9.45,0,0,1,0-18.9,9.689,9.689,0,0,1,6.72,2.8l3.011-3a13.741,13.741,0,0,0-9.731-4,13.7,13.7,0,1,0,0,27.4,13.741,13.741,0,0,0,9.731-4l-3.011-3.1A9.689,9.689,0,0,1,505.907,11779.7Zm33.6-23.1a13.7,13.7,0,1,0,13.722,13.7A13.658,13.658,0,0,0,539.506,11756.6Zm0,23.1a9.45,9.45,0,1,1,9.451-9.4A9.374,9.374,0,0,1,539.506,11779.7Zm29.924-16.3,14.457,20.4h4.69v-27h-4.3v20.1l-14.282-20.1h-4.865v27h4.3v-20.4Zm37.7-2.6v23h4.27v-23h6.791v-4H600.3v4h6.826Zm42.316,23h4.691l-11.132-27h-4.48l-11.061,27h4.76l2.24-5.5h12.707Zm-13.336-9.6,4.655-11.4,4.726,11.4h-9.381Zm41.37,5.5a9.45,9.45,0,0,1,0-18.9,9.692,9.692,0,0,1,6.721,2.8l3.01-3a13.739,13.739,0,0,0-9.731-4,13.7,13.7,0,1,0,0,27.4,13.739,13.739,0,0,0,9.731-4l-3.01-3.1A9.692,9.692,0,0,1,677.475,11779.7ZM704,11760.8v23h4.27v-23h6.791v-4H697.178v4H704Z" transform="translate(-492.188 -11756.6)"/>
</svg>
