<svg xmlns="http://www.w3.org/2000/svg" width="156.844" height="32.6" viewBox="0 0 156.844 32.6">
  <defs>
    <style>
      .cls-1 {
        fill-rule: evenodd;
      }
    </style>
  </defs>
  <path id="faq_notes.svg" class="cls-1" d="M168.482,11923.8a25.412,25.412,0,0,1,5.811,4.3l2.555-2.8a27.5,27.5,0,0,0-6.265-4.1Zm-1.575,9.3a23.266,23.266,0,0,1,6.021,4.5l2.59-2.6a25.158,25.158,0,0,0-6.476-4.5Zm0.525,17.8c1.225,0.9,2.241,1.6,3.291,2.4a96.652,96.652,0,0,0,5.775-11.4l-2.8-2.2A68.526,68.526,0,0,1,167.432,11950.9Zm8.331-2v3.5h23.663v-3.5h-9.661v-7.7h7.245v-3.5h-7.245v-6.8h9v-3.5h-9.836l1.68-1.4a36.856,36.856,0,0,0-6.371-5.1l-2.59,2.3a34.254,34.254,0,0,1,4.935,4.2h-9.731v3.5h8.961v6.8h-7.316v3.5h7.316v7.7H175.763Zm45.571-20.4a14.8,14.8,0,0,0-1.05-2.7h8.4c-0.385.9-.84,1.8-1.33,2.7h-6.02Zm-13.092,0v2.8h32.484v-2.8h-9.591c0.63-.9,1.19-1.9,1.645-2.7H238v-2.7H226.374v-2.3h-3.99v2.3H210.973v2.7h5.32a18.411,18.411,0,0,1,1.225,2.7h-9.276Zm8.716,6.8h14.877v1.9H216.958v-1.9Zm0,3.8h14.877v1.9H216.958v-1.9Zm4.971,5.1a27.262,27.262,0,0,1,3.4,4.4l3.01-1.5a20.75,20.75,0,0,0-2.975-3.6H235.72v-10.6H213.178v10.6h9.976Zm10.606,1.9a29.862,29.862,0,0,1,4.55,6l3.466-1.5a30.579,30.579,0,0,0-4.936-6Zm-15.227-1.2v3.5c0,3.6.875,4.4,5.006,4.5h5.635c3.781-.1,4.481-0.6,4.831-4.9l-3.536-.6c-0.07,2.2-.21,2.3-1.61,2.4h-4.9c-1.4,0-1.715-.3-1.715-1.4v-3.5h-3.711Zm-4.48.1a16.533,16.533,0,0,1-4.516,5.8l3.4,1.5a19.761,19.761,0,0,0,4.515-6.2Zm54.811-13.1v-2.2h6.616v2.2h-6.616Zm-10.466-2.2h6.511v2.2h-6.511v-2.2Zm17.572,13.2v1.9h-7.106v-1.9h7.106Zm-7.106-2.7v-1.9h7.106v1.9h-7.106Zm-18.1,0v2.7h14.142v1.9H252.238v2.7h11.446v1.3a1.009,1.009,0,0,1-1.015,1.2c-0.595,0-2.311,0-3.606-.1l0.735,3.4a26.1,26.1,0,0,0,4.971-.1c2.17-.3,2.87-1.6,2.87-4v-1.7H278.63v-4.6h3.4v-2.7h-3.4v-4.4H267.639v-1.6h10.5v-6.8h-10.5v-1.6h14.387v-2.7H267.639v-2.2h-3.955v2.2H249.542v2.7h14.142v1.6H253.428v6.8h10.256v1.6H252.378v2.5h11.306v1.9H249.542Zm59.012-9.4h9.486v2.3h-9.486v-2.3Zm0,5h9.486v2.4h-9.486v-2.4Zm0,5h9.486v2.4h-9.486v-2.4Zm6.056,6.9a43.4,43.4,0,0,1,5.74,5.6l3.4-1.5a43.741,43.741,0,0,0-6.091-5.5h4.271v-18.6h-7.491q0.525-1.35.945-2.7h7.946v-3.2H303.2v3.2h8.26q-0.315,1.35-.735,2.7h-5.915v18.6h3.745a26.51,26.51,0,0,1-7.211,5l3.046,2.1a25.977,25.977,0,0,0,7.525-5.9l-3.22-1.2h8.751Zm-24.013-4.2,0.91,3.8c3.116-.9,8.366-2.7,11.867-4l-0.35-3.2c-1.191.4-2.626,0.8-4.1,1.2v-13.7h3.816v-3.4H290.982v3.4h4.271v14.7C293.468,11942.8,291.822,11943.3,290.6,11943.5Z" transform="translate(-166.906 -11920.8)"/>
</svg>
