<svg xmlns="http://www.w3.org/2000/svg" width="230.04" height="21.168" viewBox="0 0 230.04 21.168">
  <path id="パス_875" data-name="パス 875" d="M-114.548-20.79V0h3.348V-8.721h8.37v-3.1h-8.37v-5.859h9.639v-3.1Zm31.563,0V0h-3.321V-20.79Zm19.521,5.076L-52.312,0h3.618V-20.79h-3.321V-5.319L-63.031-20.79h-3.753V0h3.321ZM-17.428,0h3.618L-22.4-20.79h-3.456L-34.384,0h3.672l1.728-4.239h9.8ZM-27.715-7.344l3.591-8.829,3.645,8.829ZM.5-20.79V0H13.351V-3.105H3.82V-20.79Zm31.293,0V0H28.472V-20.79ZM53.906.189c4.023,0,6.966-2.43,6.966-6.21a5.9,5.9,0,0,0-4.05-5.67c-1.377-.594-2.565-.972-3.78-1.431-1-.351-2.187-.945-2.187-2.214a2.535,2.535,0,0,1,2.808-2.376,3.559,3.559,0,0,1,2.943,1.755l2.862-1.755a6.874,6.874,0,0,0-5.778-3.267c-3.429,0-6.156,2.187-6.156,5.67a5.494,5.494,0,0,0,3.942,5.157c1.3.486,2.052.7,3.186,1.134,2.214.81,2.916,1.809,2.916,3.132,0,1.62-1.485,2.808-3.537,2.808a4.415,4.415,0,0,1-4.023-2.7l-2.97,1.539A7.618,7.618,0,0,0,53.906.189ZM79.637-17.685V0h3.294V-17.685h5.238v-3.1h-13.8v3.1ZM108.526.189c4.023,0,6.966-2.43,6.966-6.21a5.9,5.9,0,0,0-4.05-5.67c-1.377-.594-2.565-.972-3.78-1.431-1-.351-2.187-.945-2.187-2.214a2.535,2.535,0,0,1,2.808-2.376,3.559,3.559,0,0,1,2.943,1.755l2.862-1.755a6.874,6.874,0,0,0-5.778-3.267c-3.429,0-6.156,2.187-6.156,5.67a5.494,5.494,0,0,0,3.942,5.157c1.3.486,2.052.7,3.186,1.134,2.214.81,2.916,1.809,2.916,3.132,0,1.62-1.485,2.808-3.537,2.808a4.415,4.415,0,0,1-4.023-2.7l-2.97,1.539A7.618,7.618,0,0,0,108.526.189Z" transform="translate(114.547 20.979)" fill="#f2f2f2"/>
</svg>
