<svg xmlns="http://www.w3.org/2000/svg" width="107.656" height="22.499" viewBox="0 0 107.656 22.499">
  <defs>
    <style>
      .cls-1 {
        fill: #ff0;
        fill-rule: evenodd;
      }
    </style>
  </defs>
  <path id="gl_examiner-ttl.svg" class="cls-1" d="M586.138,96.923a17.137,17.137,0,0,1,2.784,4.367l2.663-1.463a18.428,18.428,0,0,0-3.119-4.3Zm12.5,11.662V107.1h2.712v1.488H598.64Zm-1.368,2.328h5.351l-1.7.912a41.372,41.372,0,0,1,4.367,2.759l2.736-1.224a45.323,45.323,0,0,0-4.152-2.447h4.367v-2.328H604.4V107.1h3.168v-2.279H604.4v-0.864h1.08c2.112-.024,2.592-0.384,2.831-2.664l-2.519-.384c-0.024.744-.072,0.816-0.528,0.84h-1.512c-0.5-.024-0.6-0.144-0.6-0.888v-0.144h4.44V95.651H600.3v2.04h4.631v0.984h-4.415v2.183c0,2.16.336,2.88,2.111,3.048h-1.271v0.912H598.64v-0.912h-0.912c1.536-.1,1.944-0.6,2.136-2.616l-2.448-.384c-0.024.768-.1,0.816-0.5,0.84H595.5c-0.456-.024-0.552-0.144-0.552-0.888v-0.144h4.1V95.651h-6.863v2.04h4.247v0.984h-4.079v2.183c0,2.5.432,3.024,2.856,3.072h0.432v0.888h-3.024V107.1h3.024v1.488h-3.432v2.328h4.127a15.152,15.152,0,0,1-3.623,1.871l2.472,1.632a15.808,15.808,0,0,0,4.127-2.711Zm-5.831,1.7V104.7h-5.4v2.759h2.448v5.663a31.811,31.811,0,0,1-2.784,1.68l1.176,2.76c1.032-.744,2.184-1.56,3.407-2.592a6.769,6.769,0,0,0,5.256,2.16c3.023,0.1,9.526.072,12.621-.024l0.5-2.592c-3.215.168-9.934,0.192-12.693,0.12A5.633,5.633,0,0,1,591.441,112.616Zm34.535-10.726v-1.823h3.768a26.11,26.11,0,0,1-2.136,1.823h-1.632Zm4.344,7.535h-7.007l0.288-.936a48.953,48.953,0,0,0,10.294-1.128l-1.1-2.351a34.765,34.765,0,0,1-6.287.936q1.152-.72,2.232-1.512h8.014V101.89h-4.919a29.187,29.187,0,0,0,3.648-4.223l-2.52-1.368a25.325,25.325,0,0,1-2.136,2.664v-1.44h-4.847V95.051h-3.215v2.472h-5.615v2.544h5.615v1.823H614.29v2.544h9.287a42.305,42.305,0,0,1-9.527,3.575l2.064,2.424c1.32-.384,2.615-0.84,3.863-1.32-0.48,1.512-1.032,3-1.439,4.031l3.431,0.192c0.144-.36.288-0.792,0.456-1.223h7.439c-0.336,1.535-.744,2.3-1.152,2.447a1.2,1.2,0,0,1-.552.1c-0.528.024-1.752,0-2.472-.048l0.5,2.88c0.816,0.024,2.232.048,2.832,0.024a5.327,5.327,0,0,0,1.991-.336c1.224-.552,2.016-2.88,2.664-7.751H630.32Zm27.672,3.551a8.9,8.9,0,0,0,1.871-3.407h5.207v-2.352h-12c0.168-.288.336-0.552,0.5-0.839h1.8V103.33a24.083,24.083,0,0,0,8.279,3.623l1.679-2.375a23.884,23.884,0,0,1-7.75-2.472H665V99.8h-9.622V98.387a73.439,73.439,0,0,0,7.607-1.1l-1.1-2.232a76.331,76.331,0,0,1-17.541,1.44l0.72,2.328c2.111,0.048,4.583-.024,7.055-0.192V99.8h-9.407v2.3h7.367a24.111,24.111,0,0,1-7.727,2.64l1.608,2.279a25.536,25.536,0,0,0,8.159-3.6v2.424l-1.656-.264a18.418,18.418,0,0,1-.984,1.631H642.61v2.352h5.351c-0.72,1.08-1.463,2.112-2.039,2.855l3.071,0.864,0.192-.24c0.768,0.216,1.536.432,2.28,0.648a41.88,41.88,0,0,1-8.447,1.3l1.584,2.52c4.991-.552,8.422-1.368,10.8-2.616,2.616,0.864,4.967,1.728,7.007,2.592l2.208-2.184C662.575,114.488,660.367,113.72,657.992,112.976Zm-7.295-2.087c0.288-.432.576-0.888,0.864-1.32h4.919a5.324,5.324,0,0,1-1.632,2.448C653.528,111.633,652.137,111.249,650.7,110.889ZM674.77,95.651v5.807H689.5V95.651H674.77Zm3.1,2.16h8.423V99.3h-8.423V97.811Zm-1.392,6.839h11.134v1.032H676.473V104.65Zm0,2.831h11.134v1.008H676.473v-1.008Zm0,2.808h11.134v1.032H676.473v-1.032Zm7.223,4.367a70.088,70.088,0,0,1,6.695,2.808l3-1.488c-1.919-.864-3.911-1.68-6.191-2.5h3.672V102.49H673.33v10.99h3.863a25.073,25.073,0,0,1-6.335,2.328l3.072,1.68a26.525,26.525,0,0,0,6.743-2.928l-2.328-1.08h7.343Z" transform="translate(-585.719 -95.063)"/>
</svg>
