<svg xmlns="http://www.w3.org/2000/svg" width="111.438" height="13.34" viewBox="0 0 111.438 13.34">
  <defs>
    <style>
      .cls-1 {
        fill: #ff0;
        fill-rule: evenodd;
      }
    </style>
  </defs>
  <path id="gl_examiner-guest" class="cls-1" d="M594.8,2961.78a9.264,9.264,0,0,1,1.342,1.77l0.768-.57a9.486,9.486,0,0,0-1.369-1.79Zm-1.733.79a9.076,9.076,0,0,1,1.328,1.79l0.782-.58A8.871,8.871,0,0,0,593.8,2962Zm-0.126,3.74h3.2v-1.53h-7.352a16.79,16.79,0,0,0,.909-2.4l-1.565-.45a15.553,15.553,0,0,1-4.109,6.88l1.355,0.97a15.062,15.062,0,0,0,2.628-3.47h3.27a7.475,7.475,0,0,1-4.57,6.67l1.286,1.21A9.376,9.376,0,0,0,592.937,2966.31Zm14.834,2.53a16.74,16.74,0,0,0,2.516-4.94l-1.146-.66H601.58v1.5h6.582a14.446,14.446,0,0,1-7.519,7.98l1.063,1.34a17.115,17.115,0,0,0,5.073-3.97,27.119,27.119,0,0,1,3.731,3.99l1.482-1.04A43.056,43.056,0,0,0,607.771,2968.84Zm12.453-3.08v-3.83h-1.691v12.15h1.691v-6.53a34.717,34.717,0,0,1,5.143,3.04l1.076-1.37A46.662,46.662,0,0,0,620.224,2965.76Zm10.936-3.29a11.022,11.022,0,0,1,1.663,2.54l1.286-.72a10.879,10.879,0,0,0-1.845-2.5Zm3.508,1.19v1.33c0,1.28.251,1.56,1.523,1.59,0.322,0,.923.01,1.3,0,1.118-.02,1.356-0.2,1.467-1.47l-1.188-.2c-0.027.55-.055,0.56-0.377,0.57h-1.062c-0.321-.01-0.391-0.07-0.391-0.49v-0.32H638.5v-2.78H634.57v1h2.641v0.77h-2.543Zm4.752,0v1.33c0,1.26.251,1.56,1.565,1.59,0.363,0.01.992,0.01,1.4,0,1.146-.02,1.4-0.2,1.524-1.47l-1.23-.2c-0.028.53-.056,0.57-0.405,0.59-0.308.01-.853,0.01-1.132,0-0.364-.02-0.42-0.09-0.42-0.52v-0.31h2.726v-2.78h-4.137v1h2.837v0.77H639.42Zm-1.272,5.9v-1.12h1.928v1.12h-1.928Zm-0.811,1.13h3.424l-0.992.54a23.364,23.364,0,0,1,2.627,1.68l1.328-.6a26.968,26.968,0,0,0-2.683-1.62h2.851v-1.13h-2.334v-1.12H643.5v-1.12h-1.942v-0.69h-1.482v0.69h-1.928v-0.69H636.68v0.69h-1.886v1.12h1.886v1.12h-2.166v1.13h2.711a8.693,8.693,0,0,1-2.278,1.31l1.2,0.8a9.43,9.43,0,0,0,2.4-1.63Zm-3.3,1.1v-4.59h-2.977v1.35h1.551v3.5a15.9,15.9,0,0,1-1.732,1.13l0.586,1.34c0.6-.44,1.286-0.93,2.013-1.56a4.215,4.215,0,0,0,3.27,1.31c1.719,0.06,5.353.04,7.128,0l0.237-1.26c-1.83.07-5.576,0.09-7.169,0.04A3.629,3.629,0,0,1,634.039,2971.79Zm20.81-6.18v-1.29h2.558a13.428,13.428,0,0,1-1.51,1.29h-1.048Zm2.865,4.31h-4.542c0.07-.25.154-0.5,0.224-0.74a29.708,29.708,0,0,0,6.065-.69l-0.545-1.13a24.965,24.965,0,0,1-4.151.57,16.081,16.081,0,0,0,1.663-1.08h4.766v-1.24H657.98a15.882,15.882,0,0,0,2.417-2.7l-1.216-.66a15.441,15.441,0,0,1-1.355,1.65v-0.81h-2.977v-1.58H653.3v1.58H649.86v1.23H653.3v1.29h-5.073v1.24h5.73a24.234,24.234,0,0,1-5.884,2.3l1.006,1.19c0.895-.27,1.761-0.57,2.586-0.91-0.294.92-.629,1.86-0.881,2.49l1.663,0.08c0.084-.22.182-0.49,0.28-0.78H657.5c-0.223,1.16-.5,1.72-0.782,1.82a0.617,0.617,0,0,1-.35.07c-0.307.01-1.048,0-1.5-.03l0.252,1.4c0.461,0.02,1.3.03,1.649,0.02a2.882,2.882,0,0,0,1.048-.19c0.671-.29,1.132-1.61,1.523-4.39h-1.635Zm16.338,2.08a4.965,4.965,0,0,0,1.286-2.22h3.06v-1.13h-7.225c0.126-.21.238-0.41,0.363-0.59h1.118v-2.04a13.883,13.883,0,0,0,5.074,2.3l0.824-1.16a13.505,13.505,0,0,1-4.849-1.72h4.653v-1.13h-5.7v-1.05a39.48,39.48,0,0,0,4.528-.66l-0.545-1.09a45.508,45.508,0,0,1-10.23.89l0.35,1.15c1.272,0.02,2.8-.04,4.318-0.15v0.91h-5.59v1.13h4.6a13.7,13.7,0,0,1-4.808,1.82l0.8,1.11a14.71,14.71,0,0,0,5-2.31v1.7l-1.02-.16c-0.168.32-.391,0.67-0.629,1.05h-4v1.13h3.256c-0.475.7-.95,1.39-1.327,1.86l1.481,0.42,0.168-.21c0.643,0.17,1.258.34,1.859,0.52a23.2,23.2,0,0,1-5.2.91l0.754,1.22a18.1,18.1,0,0,0,6.331-1.57c1.607,0.52,3.047,1.03,4.291,1.55l1.076-1.06C676.875,2972.93,675.519,2972.47,674.052,2972Zm-4.305-1.21c0.224-.32.462-0.66,0.685-1.01H673.7a3.271,3.271,0,0,1-1.216,1.75C671.62,2971.28,670.712,2971.04,669.747,2970.79Zm15.032-8.92v3.24h8.413v-3.24h-8.413Zm1.509,1.07h5.339v1.1h-5.339v-1.1Zm-0.825,3.98h6.96v0.79h-6.96v-0.79Zm0,1.68h6.96v0.79h-6.96v-0.79Zm0,1.68h6.96v0.8h-6.96v-0.8Zm4.57,2.51a38.251,38.251,0,0,1,4,1.69l1.454-.73c-1.188-.54-2.46-1.07-3.941-1.61H694v-6.28H683.94v6.28h2.46a14.41,14.41,0,0,1-3.913,1.52l1.481,0.82a14.993,14.993,0,0,0,4.011-1.75l-1.272-.59h4.4Z" transform="translate(-584.031 -2961.19)"/>
</svg>
