<svg xmlns="http://www.w3.org/2000/svg" width="323.844" height="15.687" viewBox="0 0 323.844 15.687">
  <defs>
    <style>
      .cls-1 {
        fill: #ff0;
        fill-rule: evenodd;
      }
    </style>
  </defs>
  <path id="gl_examiner-member.svg" class="cls-1" d="M478.622,195.072l-0.107,9.174,1.719,0.021,0.107-9.175,2.733,0.032,0.019-1.61-7.2-.085-0.019,1.611Zm16.906,4.849-0.053,4.525,1.719,0.02,0.126-10.785-1.719-.021-0.054,4.651-5.9-.07,0.054-4.65-1.732-.02-0.127,10.785,1.733,0.02,0.053-4.524Zm7.52-6.173-0.126,10.785,6.776,0.08L509.717,203l-5.043-.059,0.034-2.914,4.381,0.052,0.019-1.611-4.381-.052,0.035-3.039,5.044,0.059,0.019-1.611Zm18.619,0.219-0.126,10.785,1.747,0.02,0.053-4.524,4.367,0.051,0.019-1.61-4.368-.052L523.4,195.6l5.03,0.059,0.019-1.611Zm13.46,0.158L535,204.91l-1.733-.021,0.127-10.785Zm13.77,10.948-2.933-4.545a3.24,3.24,0,0,0-.984-6.288l-4.156-.049L540.7,204.977l1.733,0.02,0.051-4.328,1.535,0.018,2.824,4.362Zm-6.359-9.25,2.353,0.027a1.621,1.621,0,0,1-.038,3.236l-2.353-.028Zm14.08,9.439c2.1,0.024,3.65-1.218,3.673-3.179a3.063,3.063,0,0,0-2.079-2.966c-0.715-.317-1.333-0.52-1.964-0.766a1.37,1.37,0,0,1-1.127-1.162,1.319,1.319,0,0,1,1.479-1.215,1.857,1.857,0,0,1,1.525.928l1.5-.893a3.591,3.591,0,0,0-3-1.73,2.964,2.964,0,0,0-3.246,2.9,2.852,2.852,0,0,0,2.025,2.7c0.673,0.26,1.067.377,1.656,0.608,1.15,0.434,1.51.956,1.5,1.643a1.632,1.632,0,0,1-1.863,1.435,2.3,2.3,0,0,1-2.082-1.426l-1.559.781A3.977,3.977,0,0,0,556.618,205.262Zm10.755-9.148-0.108,9.175,1.719,0.02,0.108-9.175,2.733,0.032,0.019-1.61-7.2-.085-0.019,1.611Zm18.055,0.212L585.32,205.5l1.719,0.02,0.108-9.175,2.733,0.033,0.019-1.611-7.2-.085-0.018,1.611Zm16.27,9.367,1.888,0.022-4.354-10.838-1.8-.021-4.578,10.733,1.916,0.023,0.927-2.189,5.114,0.06Zm-5.323-3.873,1.928-4.558,1.848,4.6Zm18.084,4.037,2.155,0.025-4.992-5.634,4.189-5.176-2.015-.024-3.717,4.594,0.054-4.637-1.733-.02-0.126,10.8,1.733,0.021,0.057-4.9Zm7-10.719-0.126,10.786L628.111,206l0.018-1.611-5.043-.059,0.034-2.913,4.381,0.051,0.019-1.611-4.381-.051,0.035-3.04,5.044,0.06,0.019-1.611Zm22.775,0.268-4.156-.049-0.126,10.785,1.733,0.02,0.05-4.328,2.424,0.029A3.229,3.229,0,0,0,644.235,195.406Zm-0.089,1.61a1.621,1.621,0,0,1-.038,3.235l-2.353-.027,0.038-3.236Zm16.243,9.366-2.934-4.545a3.239,3.239,0,0,0-.983-6.288l-4.156-.048-0.126,10.785,1.733,0.02,0.05-4.328L655.509,202l2.823,4.362Zm-6.359-9.25,2.353,0.027a1.621,1.621,0,0,1-.038,3.236l-2.353-.028Zm16.115-1.52a5.491,5.491,0,1,0,5.458,5.555A5.5,5.5,0,0,0,670.145,195.612Zm-0.109,9.258a3.775,3.775,0,1,1,3.848-3.723A3.77,3.77,0,0,1,670.036,204.87Zm12.616,1.872a3.034,3.034,0,0,0,3.219-2.96l0.092-7.886-1.7-.02-0.092,7.886a1.519,1.519,0,0,1-2.934.287l-1.694.275A3.182,3.182,0,0,0,682.652,206.742Zm8.855-10.781-0.126,10.785,6.776,0.08,0.019-1.611-5.043-.059,0.034-2.914,4.381,0.052,0.019-1.611-4.381-.052,0.035-3.039,5.044,0.059,0.019-1.611Zm16.749,9.358a3.775,3.775,0,1,1,.089-7.549,3.885,3.885,0,0,1,2.692,1.152l1.226-1.2a5.584,5.584,0,0,0-3.9-1.656,5.491,5.491,0,1,0-.129,10.981,5.579,5.579,0,0,0,3.936-1.565l-1.2-1.233A3.873,3.873,0,0,1,708.256,205.319Zm11.249-7.418-0.108,9.174,1.719,0.02,0.107-9.174,2.734,0.032,0.018-1.611-7.2-.084-0.019,1.61Zm15.1-1.5a10.014,10.014,0,0,1,1.6,2.568l1.574-.836a10.789,10.789,0,0,0-1.8-2.528Zm7.26,6.893,0.01-.868,1.592,0.019-0.01.868Zm-0.819,1.35,3.142,0.037-1.007.52a24.308,24.308,0,0,1,2.545,1.641l1.615-.7a26.843,26.843,0,0,0-2.421-1.457l2.564,0.03,0.016-1.358-2.254-.027,0.01-.868,1.86,0.022,0.016-1.331-1.86-.022,0.006-.5,0.634,0.007c1.24,0,1.524-.206,1.68-1.535l-1.476-.241c-0.019.434-.048,0.475-0.316,0.486l-0.888-.01c-0.295-.018-0.351-0.088-0.346-0.523v-0.084l2.607,0.031,0.034-2.955-4.283-.051-0.014,1.191,2.72,0.032-0.007.574-1.043-.012-0.845-.01-0.7-.008-0.015,1.274c-0.015,1.261.177,1.683,1.219,1.794l-0.747-.009-0.006.532-1.592-.019,0.006-.532-0.536-.006c0.9-.046,1.146-0.337,1.272-1.512L741.2,198.8c-0.019.448-.062,0.475-0.3,0.487l-0.831-.01c-0.267-.017-0.323-0.088-0.318-0.522v-0.084l2.409,0.028,0.035-2.955-4.029-.048-0.014,1.191,2.493,0.029-0.006.574-0.874-.01-0.93-.011-0.592-.007-0.014,1.275c-0.018,1.457.232,1.768,1.655,1.812l0.254,0-0.006.519-1.776-.021-0.015,1.331,1.775,0.02-0.01.869-2.015-.024-0.016,1.359,2.423,0.028a8.959,8.959,0,0,1-2.14,1.068l1.44,0.969a9.25,9.25,0,0,0,2.442-1.554Zm-3.435.954,0.054-4.622-3.17-.037-0.019,1.61,1.437,0.017-0.039,3.306a18.7,18.7,0,0,1-1.645.961l0.671,1.619c0.611-.427,1.293-0.9,2.018-1.489a3.99,3.99,0,0,0,3.071,1.3c1.774,0.076,5.593.107,7.411,0.073l0.313-1.51c-1.889.076-5.834,0.044-7.453-.017A3.316,3.316,0,0,1,737.613,205.594Zm21.12-6.014,0.013-1.064,2.212,0.026a15.414,15.414,0,0,1-1.266,1.049Zm2.5,4.428-4.114-.048c0.059-.182.117-0.363,0.176-0.544a28.876,28.876,0,0,0,6.051-.588l-0.632-1.38a20.588,20.588,0,0,1-3.7.5q0.681-.412,1.32-0.867l4.706,0.055,0.017-1.485-2.888-.034a17.009,17.009,0,0,0,2.17-2.44l-1.47-.815a14.727,14.727,0,0,1-1.272,1.54l0.01-.841-2.846-.033,0.017-1.443-1.888-.022-0.016,1.443-3.3-.039-0.018,1.485,3.3,0.038-0.012,1.065-4.974-.058-0.017,1.484,5.452,0.064a24.956,24.956,0,0,1-5.617,2.022l1.195,1.428c0.777-.215,1.541-0.472,2.277-0.743-0.292.879-.626,1.743-0.873,2.343l2.013,0.136c0.087-.209.175-0.461,0.276-0.712l4.368,0.052a2.006,2.006,0,0,1-.693,1.421,0.718,0.718,0,0,1-.325.052c-0.31.01-1.028-.012-1.451-0.045l0.277,1.684c0.478,0.02,1.31.043,1.662,0.033a3.148,3.148,0,0,0,1.172-.182c0.722-.314,1.2-1.667,1.616-4.506l-1.352-.016Zm17.044,2.274a5.2,5.2,0,0,0,1.123-1.976l3.057,0.035,0.016-1.372-7.044-.083c0.1-.167.2-0.32,0.3-0.487l1.057,0.013,0.021-1.779a14.192,14.192,0,0,0,4.836,2.172l1-1.375a14.1,14.1,0,0,1-4.534-1.5l4.354,0.051,0.015-1.345-5.649-.066,0.01-.827a43.377,43.377,0,0,0,4.473-.591l-0.633-1.311a45.044,45.044,0,0,1-10.308.72l0.407,1.363c1.239,0.043,2.691.018,4.143-.063l-0.008.686-5.523-.064-0.016,1.344,4.326,0.051a14.2,14.2,0,0,1-4.555,1.487l0.928,1.342a15.05,15.05,0,0,0,4.815-2.045l-0.016,1.415-0.971-.165a10.468,10.468,0,0,1-.589.945l-4.029-.047-0.016,1.373,3.142,0.036c-0.43.626-.874,1.223-1.217,1.653l1.8,0.526,0.114-.139c0.45,0.131.9,0.263,1.334,0.394a24.791,24.791,0,0,1-4.968.7l0.913,1.482a18.463,18.463,0,0,0,6.358-1.453c1.53,0.523,2.9,1.043,4.1,1.561l1.311-1.259C780.957,207.2,779.666,206.732,778.276,206.282Zm-4.268-1.269c0.172-.25.344-0.515,0.516-0.765l2.888,0.034a3.105,3.105,0,0,1-.975,1.418C775.665,205.466,774.851,205.233,774.008,205.013Zm14.919-8.721-0.04,3.39,8.65,0.1,0.04-3.39Zm1.8,1.282,4.945,0.058-0.01.869-4.945-.058Zm-0.864,3.983,6.537,0.076-0.007.6-6.537-.077Zm-0.019,1.652,6.537,0.077-0.007.588-6.537-.076Zm-0.019,1.639,6.537,0.077-0.007.6-6.537-.076Zm4.211,2.6a41.432,41.432,0,0,1,3.911,1.685l1.771-.848c-1.121-.517-2.285-1.007-3.617-1.5l2.155,0.025,0.075-6.415-10.3-.121-0.076,6.415,2.269,0.027a14.8,14.8,0,0,1-3.736,1.315l1.792,1a15.607,15.607,0,0,0,3.979-1.663l-1.359-.646,4.311,0.051Z" transform="translate(-475.875 -193.438)"/>
</svg>
