<svg xmlns="http://www.w3.org/2000/svg" viewBox="0 0 410.85 99.96"><g id="レイヤー_2" data-name="レイヤー 2"><g id="レイヤー_1-2" data-name="レイヤー 1"><path d="M6.55,14H0V11.34H6.55Z"/><path d="M21.26,4.34V1.66H33.13V4.34H28.62V19.56H25.79V4.34Z"/><path d="M42.46,12.06v7.51H39.61V1.67h2.85V9.39H52.2V1.67H55v17.9H52.2V12.06Z"/><path d="M73.74,1.66V4.34H65.42V9.39h7.23v2.67H65.42V16.9h8.32v2.67H62.57V1.66Z"/><path d="M101.84,1.66V4.34h-8.3V9.39h7.2v2.67h-7.2v7.51H90.66V1.66Z"/><path d="M111.46,17.09V5.81l-3.61,1.75V4.88l6.39-3.27V17.09h3.63v2.47h-10V17.09Z"/><path d="M134.38,19.58l-4.75-7.19H127.1v7.19h-2.86V1.66h6.86A5.24,5.24,0,0,1,136.33,7a5.25,5.25,0,0,1-3.49,5.05l4.93,7.49ZM127.1,9.72H131A2.59,2.59,0,0,0,133.5,7,2.6,2.6,0,0,0,131,4.34H127.1Z"/><path d="M142.39,15.92l2.55-1.33a3.81,3.81,0,0,0,3.47,2.33c1.77,0,3.05-1,3.05-2.42,0-1.14-.6-2-2.51-2.7-1-.37-1.63-.56-2.75-1a4.71,4.71,0,0,1-3.39-4.44c0-3,2.34-4.87,5.3-4.87a5.93,5.93,0,0,1,5,2.81l-2.47,1.51a3,3,0,0,0-2.54-1.51,2.18,2.18,0,0,0-2.42,2c0,1.09,1,1.6,1.89,1.91,1,.39,2.07.72,3.26,1.23a5.07,5.07,0,0,1,3.48,4.88c0,3.25-2.52,5.34-6,5.34A6.55,6.55,0,0,1,142.39,15.92Z"/><path d="M159.51,4.34V1.66h11.87V4.34h-4.51V19.56H164V4.34Z"/><path d="M186.67,4.34V1.66h11.87V4.34H194V19.56h-2.83V4.34Z"/><path d="M214.63,15.91h-8.44l-1.49,3.65h-3.16l7.35-17.89h3l7.39,17.89h-3.11Zm-1.12-2.67-3.14-7.6-3.09,7.6Z"/><path d="M228,11.45v8.14h-2.85V1.66H228v7.7l6-7.7h3.33l-6.81,8.68,8.34,9.25h-3.56Z"/><path d="M256.1,1.66V4.34h-8.32V9.39H255v2.67h-7.22V16.9h8.32v2.67H244.92V1.66Z"/><path d="M267.75,6.15A3,3,0,0,1,270,4.85a3.55,3.55,0,0,1,2.68,1.75,49.87,49.87,0,0,0,9.74,9.47l-1.75,2a68.5,68.5,0,0,1-9-8.81c-.67-.84-1.13-1.22-1.6-1.22s-.84.31-1.39.93c-1.13,1.31-3.43,4.05-5.2,6.18l-2-1.82C263.67,11.16,266.44,7.7,267.75,6.15Z"/><path d="M287.54,12a9.88,9.88,0,0,1,9.83-9.87c6.37,0,8.85,3.76,8.85,8.19,0,4.25-1.9,7.92-8.28,9.32l-1.21-2.41c5.42-.93,6.88-3.57,6.88-6.87s-1.75-5.55-5.49-5.78c-.33,8.31-2.88,14-6.38,14-2.5,0-4.2-3.16-4.2-6.51ZM290,12c0,2.12.84,3.78,1.86,3.78,1.51,0,3.54-3.89,3.76-11A7.16,7.16,0,0,0,290,12Z"/><path d="M320.52,16.89V10h-6.66V2.37h2.39v5.4h4.27V0h2.53V7.77h4.49V2.37H330V10h-7v6.93h5.31V11.31h2.48v9.23h-2.48V19.22h-12.9v1.32H313V11.31h2.44v5.58Z"/><path d="M338,6A16.4,16.4,0,0,1,342,8.68l-1.63,1.73a13.86,13.86,0,0,0-3.75-2.75Zm2.48,6.27,1.79,1.35a54.51,54.51,0,0,1-3.18,6.82L337,19.06A41.73,41.73,0,0,0,340.47,12.29ZM338.79.2a16.53,16.53,0,0,1,3.76,2.43l-1.61,1.73a15.27,15.27,0,0,0-3.5-2.5Zm13.92,16.4h-5.77l2.17.89a19,19,0,0,1-4.92,3l-2.39-1.17a17.89,17.89,0,0,0,4.85-2.75h-2.92V8.37h4.84V7.11H345.1V6.2H343V1.9h5.56V0H351V1.9h5.86V6.2h-2.14v.91H351V8.37h5.1V16.6h-3.17a49.23,49.23,0,0,1,4.58,2.9l-2.43,1a36.45,36.45,0,0,0-4.34-2.92ZM354.6,5.14V4h-9.46V5.14ZM346,11.69h2.54V10.21H346Zm0,3.05h2.54v-1.5H346Zm7.64-3.05V10.21H351v1.48Zm0,3.05v-1.5H351v1.5Z"/><path d="M6.55,54H0V51.32H6.55Z"/><path d="M20.82,44.32V41.65H32.69v2.67H28.18V59.55H25.35V44.32Z"/><path d="M42,52.05v7.51H39.17V41.66H42v7.72h9.74V41.66h2.83v17.9H51.76V52.05Z"/><path d="M73.3,41.65v2.67H65v5.06h7.23v2.67H65v4.83H73.3v2.68H62.13V41.65Z"/><path d="M101.39,41.65v2.67H93.1v5.06h7.2v2.67H93.1v7.51H90.22V41.65Z"/><path d="M111,57.07V45.8l-3.6,1.74V44.87l6.39-3.28V57.07h3.63v2.48h-10V57.07Z"/><path d="M133.94,59.56l-4.75-7.18h-2.54v7.18H123.8V41.65h6.86a5.39,5.39,0,0,1,1.74,10.43l4.93,7.48Zm-7.29-9.85h3.89a2.7,2.7,0,0,0,0-5.39h-3.89Z"/><path d="M142,55.9l2.55-1.32A3.81,3.81,0,0,0,148,56.9c1.77,0,3.05-1,3.05-2.42,0-1.14-.6-2-2.52-2.69-1-.37-1.63-.56-2.75-1a4.73,4.73,0,0,1-3.38-4.44c0-3,2.34-4.88,5.3-4.88a5.93,5.93,0,0,1,5,2.81l-2.47,1.51a3.07,3.07,0,0,0-2.54-1.51,2.19,2.19,0,0,0-2.42,2.05c0,1.09,1,1.6,1.89,1.9,1,.4,2.07.72,3.26,1.24a5.09,5.09,0,0,1,3.48,4.88c0,3.25-2.53,5.34-6,5.34A6.55,6.55,0,0,1,142,55.9Z"/><path d="M159.07,44.32V41.65h11.87v2.67h-4.51V59.55H163.6V44.32Z"/><path d="M186.23,44.32V41.65H198.1v2.67h-4.51V59.55h-2.83V44.32Z"/><path d="M214.18,55.9h-8.43l-1.49,3.65H201.1l7.34-17.9h3l7.39,17.9H215.7Zm-1.11-2.67-3.14-7.6-3.09,7.6Z"/><path d="M227.56,51.44v8.14H224.7V41.65h2.86v7.7l6-7.7h3.32l-6.81,8.67,8.35,9.26H234.9Z"/><path d="M255.65,41.65v2.67h-8.32v5.06h7.23v2.67h-7.23v4.83h8.32v2.68H244.48V41.65Z"/><path d="M282,55.51l-6.58-9.27V59.56h-2.86V41.66h3.07l6.37,9,6.36-9h3.09v17.9H288.6V46.26Z"/><path d="M301.47,51.84a4.94,4.94,0,0,0,9.88,0V41.66h2.83V51.93a7.78,7.78,0,1,1-15.56,0V41.66h2.85Z"/><path d="M320.54,55.9l2.55-1.32a3.81,3.81,0,0,0,3.47,2.32c1.77,0,3.05-1,3.05-2.42,0-1.14-.6-2-2.51-2.69-1-.37-1.63-.56-2.75-1A4.72,4.72,0,0,1,321,46.37c0-3,2.34-4.88,5.3-4.88a5.93,5.93,0,0,1,5,2.81l-2.47,1.51a3.06,3.06,0,0,0-2.54-1.51,2.19,2.19,0,0,0-2.42,2.05c0,1.09,1,1.6,1.89,1.9,1.05.4,2.07.72,3.26,1.24a5.07,5.07,0,0,1,3.48,4.88c0,3.25-2.52,5.34-6,5.34A6.56,6.56,0,0,1,320.54,55.9Z"/><path d="M342,41.66v17.9h-2.85V41.66Z"/><path d="M362.29,55l2,2a9.17,9.17,0,0,1-6.46,2.67,9.11,9.11,0,1,1,0-18.22,9.17,9.17,0,0,1,6.46,2.67l-2,2a6.38,6.38,0,0,0-4.46-1.86,6.27,6.27,0,0,0,0,12.54A6.36,6.36,0,0,0,362.29,55Z"/><path d="M388.71,44.13v2.34h-7.17c.06,2.37.15,4.72.22,6.47a26.33,26.33,0,0,1,6.88,3.85l-1.7,2a21,21,0,0,0-5.12-3.35c0,2.84-1.28,4.39-4.4,4.39-3.34,0-5.62-1.6-5.62-3.81,0-2.39,2.05-3.94,5.95-3.94a8.55,8.55,0,0,1,1.48.13c-.13-3.28-.33-8.26-.37-11.6h2.63c0,.62,0,1.24,0,1.9s0,1,0,1.58Zm-11.27,10.2c-2.19,0-3.32.69-3.32,1.71s1.15,1.59,3.19,1.59c1.53,0,2-.75,2-2.32v-.73A8,8,0,0,0,377.44,54.33Z"/><path d="M396.68,47.69a24.34,24.34,0,0,1,.86-6.42l2.55.53a18.08,18.08,0,0,0-1,5.69,9.42,9.42,0,0,0,.27,2.41c.35-.66,1.17-2,1.63-2.81l1.6,1.4a30.33,30.33,0,0,0-2.64,5l-2.17.33a15.23,15.23,0,0,1-1.08-6.09ZM410.1,41a40.66,40.66,0,0,1,.75,7.88c0,5.12-1.51,9-8.37,11.16L401,57.61c6.11-1.68,7.17-4.32,7.17-8.72a30.14,30.14,0,0,0-.84-7.49Z"/><path d="M25.86,100l-2-2c4.56-2,5.51-4.14,5.64-8.11H21.1V87.46H39.45V89.8H32.17C32,94.34,30.82,97.4,25.86,100ZM36.39,82.1l1-.84a13.61,13.61,0,0,1,2.13,2.59l-1.11.86a12.38,12.38,0,0,0-2-2.48v2.22H23.58V82.1Zm2.75-2.88a13.19,13.19,0,0,1,2.17,2.57l-1.11.86a11.83,11.83,0,0,0-2.12-2.54Z"/><path d="M53,89.12l-1.19,2.14a40.5,40.5,0,0,0-5.74-2.54l1.22-2.17A41,41,0,0,1,53,89.12Zm9.12-2.7,1.71,1.92c-3.08,4.94-9.3,9.54-15.26,11.38l-1.35-2.46A26.08,26.08,0,0,0,62.16,86.42Zm-6.79-2.15-1.24,2.1a37.89,37.89,0,0,0-5.54-2.68l1.22-2.1A43.31,43.31,0,0,1,55.37,84.27ZM59.9,81.9a14.48,14.48,0,0,1,2.6,2.59l-1.2,1.06A13.07,13.07,0,0,0,58.78,83ZM62.34,80a13.84,13.84,0,0,1,2.57,2.56l-1.18,1.07A15.56,15.56,0,0,0,61.19,81Z"/><path d="M76.93,88.1c1.44.82,3.25,2,4.63,3a16.62,16.62,0,0,0,2.34-5.69H77.55A28.43,28.43,0,0,1,71.86,92l-2-1.64a24.17,24.17,0,0,0,7.31-9.83l2.47.8c-.22.57-.5,1.15-.79,1.75H85.3l1.79,1C85.48,91.38,81.36,97.46,75,100l-1.77-2.12A16.06,16.06,0,0,0,80,93.17,37.59,37.59,0,0,0,75.34,90Z"/><path d="M100.71,82.08v7.08a11.63,11.63,0,0,1-5.47,10.47l-2-1.88c4.16-2.57,4.87-5.31,4.87-8.7v-7Zm6.31-.36v13.6a21.64,21.64,0,0,0,5.91-5.49l1.15,2.45A31.22,31.22,0,0,1,106.4,99l-2-1.24V81.72Z"/><path d="M124.7,81.54V92.13h-2.63V81.54Zm10.32-.3v8.21c0,4.82-2.3,8.26-7.44,10.4l-1.75-2.19c4.87-1.77,6.49-4.51,6.49-8.28V81.24Z"/><path d="M147.06,81.54V92.13h-2.63V81.54Zm10.32-.3v8.21c0,4.82-2.3,8.26-7.44,10.4l-1.75-2.19c4.87-1.77,6.49-4.51,6.49-8.28V81.24Z"/><path d="M183.46,88.94v2.68H165.35V88.94Z"/><path d="M208.3,98.22,206,99.85A43.52,43.52,0,0,0,200,93.54a26.92,26.92,0,0,1-8,6.29l-1.68-2.12c5.91-2.68,10.56-8.17,11.91-12.62H191.81V82.72h12l1.82,1a26.44,26.44,0,0,1-4,7.81A67.81,67.81,0,0,1,208.3,98.22Z"/></g></g></svg>