<svg xmlns="http://www.w3.org/2000/svg" viewBox="0 0 571.01 68.37"><g id="レイヤー_2" data-name="レイヤー 2"><g id="レイヤー_1-2" data-name="レイヤー 1"><path d="M23.19,9.89v2.9H0V9.89Z"/><path d="M38.38,13.67V10.79h-1.7V10a19.3,19.3,0,0,1-4.15,2.45l-1.65-1.9A17.16,17.16,0,0,0,36,7.57,21.44,21.44,0,0,0,33.08,5l1.58-1.45A21.6,21.6,0,0,1,37.58,5.9a13.19,13.19,0,0,0,1.75-2.8H33.18V.8h7.57l1.8.52a16.51,16.51,0,0,1-4.2,7.18h9.07A19.59,19.59,0,0,1,42.85.8L45.2,0a16.1,16.1,0,0,0,1.35,3.2A25.86,25.86,0,0,0,49.72.35l1.8,1.57A31.79,31.79,0,0,1,47.7,5a14.94,14.94,0,0,0,1.17,1.4A25.71,25.71,0,0,0,52.2,3.55L54,5.22a27.87,27.87,0,0,1-3.45,2.65,16.33,16.33,0,0,0,4.2,2.25L53,12.29a18.18,18.18,0,0,1-4-2.37v.87H47.1v2.88h6.15V16H47.1v2.67c0,1.35.2,1.52.95,1.55h2.42c.75,0,.83-.15.88-2.25l2.6.45c-.3,3.9-.78,4.37-3.25,4.42-.88,0-2.13,0-2.93,0-2.77-.07-3.39-.77-3.39-4.17V16H41c-.37,2.77-2.27,5.22-7,7.27l-2-1.93c4.1-1.5,5.79-3.29,6.22-5.34h-5.9v-2.3Zm6,0V10.79h-3.3v2.88Z"/><path d="M64.86,12.07V6.9H62.54V4.5h2.32V0h2.55V4.5h1.68V6.9H67.41v4.34c.48-.15.93-.32,1.33-.45L69,12.94c-.48.2-1,.43-1.58.65v7.05c0,1.45-.37,2.27-1.67,2.5a15.15,15.15,0,0,1-2.52.07l-.45-2.47c.57,0,1.32.05,1.6,0s.49-.2.49-.57v-5.6l-2.09.8-.55-2.52C62.89,12.67,63.84,12.39,64.86,12.07Zm5,6.77v-8h-1v-2H85.63v2H76.88V21.41a9.53,9.53,0,0,0,2.85-2.22,16.36,16.36,0,0,1-2.35-4.45L79.31,14a12,12,0,0,0,1.75,3.35A15,15,0,0,0,82.38,14h-5V12h6l1.7.32a17.72,17.72,0,0,1-2.5,6.82,11.68,11.68,0,0,0,3.3,2.2l-1.5,1.9a14.15,14.15,0,0,1-3.17-2.32,12.78,12.78,0,0,1-2.82,2.27l-1.53-1.57v1.6H74.53V20.14c-1.82.37-4.22.8-5.69,1.07L68.39,19ZM84.28.55V7.7h-14V.55ZM74.53,12.19v-1.4H72.16v1.4Zm0,3.08V13.89H72.16v1.38Zm0,3V17H72.16v1.59C73,18.49,73.81,18.39,74.53,18.29ZM72.76,3.4h8.92V2.25H72.76Zm0,2.6h8.92V4.77H72.76Z"/><path d="M95.05,8.72a27.54,27.54,0,0,1,1-7.25l2.88.6A20.58,20.58,0,0,0,97.75,8.5a10.77,10.77,0,0,0,.3,2.72c.4-.75,1.32-2.32,1.85-3.17l1.79,1.57a35,35,0,0,0-3,5.62l-2.45.38a17.14,17.14,0,0,1-1.22-6.87Zm15.14-7.6A45.54,45.54,0,0,1,111,10c0,5.77-1.7,10.17-9.45,12.59L100,19.91c6.9-1.89,8.1-4.87,8.1-9.84a34,34,0,0,0-.95-8.45Z"/><path d="M118.69,13.59A11.15,11.15,0,0,1,129.78,2.45c7.19,0,10,4.25,10,9.24,0,4.8-2.15,9-9.34,10.52l-1.38-2.72c6.13-1,7.78-4,7.78-7.75s-2-6.27-6.2-6.52c-.38,9.37-3.25,15.74-7.2,15.74-2.82,0-4.74-3.57-4.74-7.34Zm2.72-.05c0,2.4,1,4.27,2.1,4.27,1.7,0,4-4.39,4.24-12.39A8.08,8.08,0,0,0,121.41,13.54Z"/><path d="M155.12,4.72c-1.08,6.05-3.35,12.47-6.38,16.69L146,19.91c3.12-4,5.34-10.19,6.17-15.81Zm13.59,15.19-3.1,1a57.78,57.78,0,0,0-6.52-16.17l2.8-1.22A75.07,75.07,0,0,1,168.71,19.91ZM169.21,3A2.75,2.75,0,1,1,166.46.25,2.76,2.76,0,0,1,169.21,3Zm-4.55,0a1.81,1.81,0,0,0,3.62,0,1.81,1.81,0,0,0-3.62,0Z"/><path d="M192.64,3.62l2.3,1.23C193.09,13,189,19.06,181.23,22.41l-2-2.4c7.29-2.84,10.92-7.72,12.21-13.64H176.58V3.62Z"/><path d="M204.91,20.71l-1.7-1.92a26.39,26.39,0,0,0,7.92-7h-7.54V9.32h8.57V5.57h2.67V9.32h4.4v2.45h-4.4v7.59c0,2.08-1,3.1-3.1,3.1a21.1,21.1,0,0,1-2.82-.15v-2.4a17.87,17.87,0,0,0,2.2.13c.72,0,1-.3,1-1.05V14.27A32.88,32.88,0,0,1,204.91,20.71Z"/><path d="M247.74,10.14v3H227.3v-3Z"/><path d="M267.35,22.21a57.78,57.78,0,0,0-9.79-10.07l2.1-1.9c1.47,1.15,3.1,2.6,4.67,4.1a54.68,54.68,0,0,0,7.07-8.22H254.89V3.35h18.86L276.05,5a80.42,80.42,0,0,1-9.67,11.39c1.32,1.38,2.52,2.72,3.47,3.87Z"/><path d="M290.37,7.2l-1.95,2.42a39.68,39.68,0,0,0-6.37-4.42l1.82-2.4A55.15,55.15,0,0,1,290.37,7.2Zm9.12,0,1.92,2.22C297.94,15,290.92,20.24,284.2,22.31l-1.53-2.82A29.5,29.5,0,0,0,299.49,7.25Z"/><path d="M328,20.61l-2.65,1.85a49.83,49.83,0,0,0-6.67-7.12,30.78,30.78,0,0,1-9.07,7.1l-1.9-2.4c6.67-3,11.92-9.22,13.44-14.24H309.38V3.12H322.9L325,4.3a30.23,30.23,0,0,1-4.5,8.82A76.37,76.37,0,0,1,328,20.61Z"/><path d="M354.33,10.79c-2,.68-4.42,1.53-6.67,2.48a35.33,35.33,0,0,1,.25,4.62h-2.67c0-.45,0-.85,0-1.25,0-.85,0-1.6-.07-2.25-2.25,1.15-3.9,2.4-3.9,3.63s1.7,1.92,5.25,1.92a35.35,35.35,0,0,0,6.37-.58l.25,2.63a44,44,0,0,1-6.6.42c-5.07,0-8.07-1.42-8.07-4.27,0-2.47,2.82-4.5,6.2-6.2-.33-.8-.8-1.15-1.35-1.15A7.45,7.45,0,0,0,338.46,13a25.57,25.57,0,0,0-2.52,2.77l-2.22-1.8a27.43,27.43,0,0,0,5.42-7.64h-4.65V3.8h5.75a20.34,20.34,0,0,0,1-3.18l2.9.58a25.52,25.52,0,0,1-.85,2.6h7.57V6.3h-8.62a19.48,19.48,0,0,1-1.95,3.37,7.75,7.75,0,0,1,3.68-1.15,3.15,3.15,0,0,1,3.15,2.32c2.24-1,4.52-1.84,6.19-2.57Z"/><path d="M371.42,20.46c2.8.08,9.32.05,12.55-.1l-.48,2.45c-3.1.08-9.42.1-12.47,0a7.35,7.35,0,0,1-5.92-2.52c-1.35,1.2-2.52,2.15-3.62,3l-1.15-2.6a26.16,26.16,0,0,0,3.27-2.25V12.57h-2.9v-2.4h5.48V18A6.26,6.26,0,0,0,371.42,20.46ZM363,.42a21.61,21.61,0,0,1,3.82,4.43l-2.32,1.5A20.14,20.14,0,0,0,361,1.82Zm13.59,15v4.09H374V15.37h-3.1v4.07h-2.63V6h5a27.66,27.66,0,0,0-2.55-1.75l1.63-1.3a31,31,0,0,1,2.8,1.8c.82-.63,1.69-1.33,2.47-2h-9.15V.57h12.35l1.67,1A62.18,62.18,0,0,1,376.84,6h5.65V17.27c0,1.19-.32,1.89-1.37,2.09a17.12,17.12,0,0,1-2.85.05l-.4-2.09c.55,0,1.32,0,1.57,0s.4-.15.4-.43V15.37ZM374,9.69V8h-3.1V9.69Zm0,3.7V11.64h-3.1v1.75Zm5.89-3.7V8h-3.27V9.69Zm0,3.7V11.64h-3.27v1.75Z"/><path d="M394.81,1.05c-.35,5.35-.45,10.34-.45,12.69,0,4.28,1.37,5.82,4.6,5.82s5.37-1.6,7.07-6.87l2.7,1.3c-2.43,6.57-5.67,8.45-9.85,8.45-5.12,0-7.39-2.93-7.39-8.62,0-2.38.12-7.42.2-12.77Z"/><path d="M426.94,3.25c2.1-.18,4.7-.45,6.55-.68l.35,2.83a33.28,33.28,0,0,0-4,.5,6.72,6.72,0,0,0-1.88.82c-3,2-4.85,4.52-4.85,7.45s2.65,5,8.8,5.24l-.35,2.83c-7.17-.25-11.39-2.9-11.39-7.95,0-3.17,1.75-6.07,4.64-8.27-2.62.25-7.49.6-10.64.75L414,4C417.42,3.9,424.44,3.45,426.94,3.25Z"/><path d="M441.61,16a51.3,51.3,0,0,1,5.05,5.3l-2.35,1.92a40.37,40.37,0,0,0-4.75-5.44Z"/><path d="M5.52,67.22v1.12H2.75V48.55H9a34.83,34.83,0,0,0,1.13-3.44l3.25.55c-.35.84-.83,1.87-1.35,2.89h8.39V68.34H17.62V67.22ZM17.62,53.9V51.08H5.52V53.9Zm0,5.37V56.35H5.52v2.92Zm0,5.42v-3H5.52v3Z"/><path d="M33.26,68.37c-.65-.65-1.3-1.28-2.08-2,5.15-1.92,6.57-5.59,7.07-9.64H33.56V54.78a17,17,0,0,1-2.28,1.79l-1.82-2.09a17.49,17.49,0,0,0,7.34-9.35l2.43,1a22.11,22.11,0,0,1-5.12,8.15H48.62a20.94,20.94,0,0,1-5.24-8.12l2.44-1a16.92,16.92,0,0,0,7.4,9.07l-1.87,2.19a18.16,18.16,0,0,1-2.48-1.92c-.42,8-.92,12.49-2,13.29a3.55,3.55,0,0,1-2,.53c-.68,0-2.18,0-3.08,0l-.4-2.6c.78,0,2.1.08,2.7,0a1.07,1.07,0,0,0,.65-.17c.5-.4.88-3.3,1.18-8.87H41C40.33,61.62,38.73,66,33.26,68.37Z"/><path d="M59.47,58.72A11.15,11.15,0,0,1,70.56,47.58c7.2,0,10,4.25,10,9.24,0,4.8-2.15,8.95-9.35,10.52l-1.37-2.72c6.12-1.05,7.77-4,7.77-7.75s-2-6.27-6.2-6.52c-.37,9.37-3.25,15.74-7.2,15.74-2.82,0-4.74-3.57-4.74-7.34Zm2.72,0c0,2.4,1,4.28,2.1,4.28,1.7,0,4-4.4,4.25-12.4A8.09,8.09,0,0,0,62.19,58.67Z"/><path d="M99.82,49.83c1.35,8.19,4.9,13.37,10.69,16l-2.32,2.5c-4.47-2.4-7.65-6.3-9.64-11.8a19.3,19.3,0,0,1-9.2,11.8l-2.2-2.13c9.47-4.74,9.95-14.61,10.07-21l2.87,0C100,46.65,100,48.2,99.82,49.83Z"/><path d="M126.23,64.84V59.77h-6.52V57.22h6.52V52.75h-5a25,25,0,0,1-2.65,4.4l-2.52-1.3a22.25,22.25,0,0,0,4.42-9.69l2.78.52a28.21,28.21,0,0,1-1,3.52h4V45.13h2.85V50.2h8.32v2.55h-8.32v4.47h6.62v2.55h-6.62v5.07h9.72v2.55H116.26V64.84Z"/><path d="M164.88,55.92c-2,.68-4.42,1.53-6.67,2.48a33.65,33.65,0,0,1,.25,4.62h-2.67c0-.45,0-.85,0-1.25,0-.85,0-1.6-.07-2.25-2.25,1.15-3.9,2.4-3.9,3.63s1.7,1.92,5.25,1.92a36.19,36.19,0,0,0,6.37-.57l.25,2.62a44,44,0,0,1-6.6.42c-5.07,0-8.07-1.42-8.07-4.27,0-2.47,2.83-4.5,6.2-6.2-.32-.8-.8-1.15-1.35-1.15A7.41,7.41,0,0,0,149,58.1a24.54,24.54,0,0,0-2.53,2.77l-2.22-1.8a27.43,27.43,0,0,0,5.42-7.64H145v-2.5h5.75a19.6,19.6,0,0,0,1-3.17l2.9.57c-.25.9-.53,1.77-.85,2.6h7.57v2.5h-8.62a19.48,19.48,0,0,1-2,3.37,7.75,7.75,0,0,1,3.67-1.15A3.16,3.16,0,0,1,157.64,56c2.25-1,4.52-1.84,6.19-2.57Z"/><path d="M173.21,61.12a52.24,52.24,0,0,1,5,5.3l-2.35,1.92a40.86,40.86,0,0,0-4.74-5.44Z"/><path d="M193.92,67.22v1.12h-2.77V48.55h6.29a34.83,34.83,0,0,0,1.13-3.44l3.24.55c-.35.84-.82,1.87-1.35,2.89h8.4V68.34H206V67.22ZM206,53.9V51.08H193.92V53.9Zm0,5.37V56.35H193.92v2.92Zm0,5.42v-3H193.92v3Z"/><path d="M220.65,68.37c-.65-.65-1.3-1.28-2.07-2,5.15-1.92,6.57-5.59,7.07-9.64H221V54.78a16.35,16.35,0,0,1-2.27,1.79l-1.82-2.09a17.49,17.49,0,0,0,7.34-9.35l2.43,1a22,22,0,0,1-5.13,8.15H236a21,21,0,0,1-5.25-8.12l2.45-1a16.92,16.92,0,0,0,7.4,9.07l-1.88,2.19a18.08,18.08,0,0,1-2.47-1.92c-.42,8-.92,12.49-2,13.29a3.56,3.56,0,0,1-2,.53c-.67,0-2.17,0-3.07,0l-.4-2.6c.77,0,2.1.08,2.7,0a1.11,1.11,0,0,0,.65-.17c.5-.4.87-3.3,1.17-8.87h-4.85C227.73,61.62,226.13,66,220.65,68.37Z"/><path d="M250,58.37a14.82,14.82,0,0,1,7.84-2.67c3.9,0,6.28,2,6.28,5.25,0,4.12-3.23,6.64-11,6.64-.4,0-1,0-1.48,0l-.57-2.67c.75,0,1.75.07,2.35.07,5.62,0,7.77-1.57,7.77-3.95,0-1.85-1.23-3-3.95-3-2.45,0-5.17,1.35-7.9,3.88l-2.27-1c0-5.55.55-8.12,2.45-10.92l2.62.87A11.58,11.58,0,0,0,250,58.37Zm-1-10,.7-2.59a77.69,77.69,0,0,1,11.45,2.57L260.41,51A61.35,61.35,0,0,0,249,48.4Z"/><path d="M278.07,46.18c-.35,5.35-.45,10.34-.45,12.69,0,4.28,1.38,5.82,4.6,5.82s5.37-1.59,7.07-6.87l2.7,1.3c-2.42,6.57-5.67,8.45-9.84,8.45-5.13,0-7.4-2.92-7.4-8.62,0-2.38.13-7.42.2-12.77Z"/><path d="M313.3,47.3a84.9,84.9,0,0,1-10.14,9.22.53.53,0,0,0-.23.38.42.42,0,0,0,.2.35A73.8,73.8,0,0,1,314.28,66l-2.55,2.2C309,65,304.18,61.3,299.56,58.25a1.38,1.38,0,0,1-.67-1.2,1.94,1.94,0,0,1,.9-1.45,75.25,75.25,0,0,0,11.09-10.24Z"/><path d="M328.85,65.57V62.3a29.33,29.33,0,0,1-4.08,1.7l-1.65-2.25a22.47,22.47,0,0,0,9.2-4.7h-9V54.83h10.12V53.3h-7V51.15h7V49.7h-8.32V47.48h8.32V45.13h2.85v2.35h8.4V49.7h-8.4v1.45h7V53.3h-7v1.53h10.22v2.22h-9.74a15.22,15.22,0,0,0,1.92,3.85,41.75,41.75,0,0,0,4.75-3.33l1.8,2a48.72,48.72,0,0,1-4.95,3.17,14,14,0,0,0,6.3,3.25l-1.8,2.37a15.61,15.61,0,0,1-10.3-10,20.56,20.56,0,0,1-2.85,2.32v4.62c2.15-.22,4.38-.45,6.08-.67l.07,2.2c-3.22.47-8.25,1.15-11.12,1.5l-.62-2.5C326.82,65.74,327.8,65.67,328.85,65.57Z"/><path d="M356.93,60.92V55.43h-2.67V53h2.67V48.73h-3.15V46.25h8.92v2.48h-3.07V53h2.47v2.43h-2.47v4.92c1.15-.25,2.27-.5,3.2-.75L363,62c-2.68.75-6.72,1.85-9.07,2.43l-.6-2.78C354.28,61.47,355.56,61.22,356.93,60.92ZM368.05,60c-.63,3.87-2.13,6.74-6.92,8.37l-1.83-2c4.45-1.2,5.68-3.49,6.1-6.47Zm4.15,4.27c0,1,.07,1.17.5,1.2h1.22c.43,0,.48-.15.5-2.42l2.47.4c-.2,4.17-.67,4.64-2.77,4.69a16,16,0,0,1-1.7,0c-2.4-.07-2.87-.72-2.87-3.87V59.4h-5.92V45.83h12.24V59.4H372.2Zm-5.87-14.52h6.74v-1.7h-6.74Zm0,3.7h6.74V51.73h-6.74Zm0,3.7h6.74V55.4h-6.74Z"/><path d="M394.91,48.38c2.1-.18,4.7-.45,6.55-.68l.35,2.83a33.46,33.46,0,0,0-4,.5,6.55,6.55,0,0,0-1.87.82c-3,2-4.85,4.52-4.85,7.45s2.65,5,8.8,5.24l-.35,2.83c-7.17-.25-11.4-2.9-11.4-8,0-3.17,1.75-6.07,4.65-8.27-2.62.25-7.5.6-10.64.75l-.2-2.77C385.39,49,392.41,48.58,394.91,48.38Zm3.62,5.35a18.09,18.09,0,0,1,2.1,3.37l-1.47.82a15.52,15.52,0,0,0-2.08-3.34Zm2.9-1.35a16.65,16.65,0,0,1,2.12,3.32l-1.49.8a15.1,15.1,0,0,0-2-3.32Z"/><path d="M409,53.8c3.3,0,7-.12,10.57-.35-.27-.7-.52-1.45-.77-2.2-3,.2-6,.35-8.75.38l-.15-2.45c2.6,0,5.45-.1,8.22-.28-.25-.92-.45-1.85-.6-2.74l3-.33c.09,1,.27,1.9.44,2.85,2.28-.2,4.4-.45,6.18-.75l.35,2.47c-1.7.23-3.75.45-6,.63.22.75.45,1.5.72,2.22,2.33-.2,4.5-.45,6.33-.75l.27,2.5c-1.6.2-3.5.4-5.57.58a14.84,14.84,0,0,0,3.1,4.24L425,62a20.62,20.62,0,0,0-8.59-2c-2.48,0-3.65,1.1-3.65,2.43C412.8,64,415,65,419.5,65c1.22,0,2.89,0,4.59-.2l-.2,2.65c-1.3.12-2.75.15-3.82.15-6.9,0-10.07-2-10.07-5.25,0-2.8,2.15-4.7,6.1-4.7a18.84,18.84,0,0,1,6,.93,22.77,22.77,0,0,1-1.57-2.8c-3.85.27-8,.45-11.4.47Z"/><path d="M447.38,48.38c2.1-.18,4.7-.45,6.55-.68l.35,2.83a33.46,33.46,0,0,0-4,.5,6.67,6.67,0,0,0-1.87.82c-3,2-4.85,4.52-4.85,7.45s2.65,5,8.8,5.24L452,67.37c-7.17-.25-11.4-2.9-11.4-8,0-3.17,1.75-6.07,4.65-8.27-2.62.25-7.49.6-10.64.75l-.2-2.77C437.86,49,444.88,48.58,447.38,48.38Z"/><path d="M464.8,49.18a45.83,45.83,0,0,0-.38,5.32c0,5.47,1.65,8.8,3.15,8.8.85,0,1.67-1.6,2.15-3.95l2.42,1.07c-.95,4.08-2.45,6.1-4.45,6.1-2.84,0-6.14-4-6.14-11.94,0-1.7.07-3.63.25-5.68Zm12.31-.83c3.73,3.88,4.93,7.92,5.13,13.62l-3.13.28c-.05-5.65-1.12-9-4.42-12.32Z"/><path d="M503.9,46.8l1.4,2c-2.1,1.73-5.2,4.4-7,6.08a8.59,8.59,0,0,1,3.15-.55,6.09,6.09,0,0,1,6.35,6.34c0,4.2-3.08,6.82-8.85,6.82-3.9,0-6-1.6-6-4,0-2.15,2-3.8,4.82-3.8s4.52,1.73,5,4.65a3.67,3.67,0,0,0,2.19-3.62,4,4,0,0,0-4.27-4.08,11.67,11.67,0,0,0-3.82.73,25.84,25.84,0,0,0-6.8,4.77L488.16,60A129.26,129.26,0,0,0,500.1,49.75c-2.17.18-6.47.4-9.19.5l-.18-2.72A130.1,130.1,0,0,0,503.9,46.8ZM497.73,62c-1.4,0-2.3.62-2.3,1.52s1,1.62,3.25,1.62a16.67,16.67,0,0,0,1.67-.1C500.15,63.12,499.3,62,497.73,62Z"/><path d="M515.74,62.6c0-1.58,1-3.53,2.73-5.38l2.2,1.5a5.76,5.76,0,0,0-1.95,3.48c0,1.57,2.15,2,7.22,2a31.9,31.9,0,0,0,7.14-.8l.45,2.94a45.08,45.08,0,0,1-7.79.68c-6.65,0-10-1.1-10-4.45Zm9.15-14.22c2.3,0,4.7-.08,6.75-.25l1.07,2.47a79.3,79.3,0,0,0-6.55,4.68l-1.92-1.75c1.2-.83,2.75-1.93,3.67-2.58-1.12.08-2.6.13-3.77.13a42.77,42.77,0,0,1-7.15-.65l.48-2.68a37.86,37.86,0,0,0,7.39.63Z"/><path d="M557.57,54.13c-6.67,1.94-13.27,4.39-13.27,7.64,0,1.88,2,2.92,7.22,2.92a44.16,44.16,0,0,0,7.13-.57l.27,2.87a54.47,54.47,0,0,1-7.42.45c-6.72,0-10.17-1.77-10.17-5.52,0-2.72,2.22-4.85,5.57-6.64-1.35-2.33-1.55-5.08-1.55-9.37h3c0,3.92.1,6.37,1,8.17,2.17-.95,4.59-1.83,7.14-2.68Z"/><path d="M571,65a3.32,3.32,0,1,1-3.32-3.35A3.31,3.31,0,0,1,571,65Zm-5.39,0a2.08,2.08,0,0,0,2.07,2.07,2.09,2.09,0,1,0,0-4.17A2.08,2.08,0,0,0,565.62,65Z"/></g></g></svg>