<svg xmlns="http://www.w3.org/2000/svg" viewBox="0 0 682.11 67.72"><g id="レイヤー_2" data-name="レイヤー 2"><g id="レイヤー_1-2" data-name="レイヤー 1"><path d="M7.39,15.81H0v-3H7.39Z"/><path d="M24,4.89v-3H37.4v3H32.31V22.08h-3.2V4.89Z"/><path d="M47.92,13.62v8.47H44.7V1.89h3.22V10.6h11V1.89h3.2v20.2h-3.2V13.62Z"/><path d="M83.23,1.88v3H73.84V10.6H82v3H73.84v5.45h9.39v3H70.62V1.88Z"/><path d="M114.94,1.88v3h-9.37V10.6h8.14v3h-8.14v8.47h-3.24V1.88Z"/><path d="M125.8,19.29V6.56l-4.07,2v-3l7.21-3.7V19.29H133v2.79H121.73V19.29Z"/><path d="M151.67,22.1,146.31,14h-2.86V22.1h-3.22V1.88H148A5.91,5.91,0,0,1,153.87,8a5.93,5.93,0,0,1-3.93,5.7l5.55,8.45ZM143.45,11h4.38a2.92,2.92,0,0,0,2.84-3,2.93,2.93,0,0,0-2.84-3.06h-4.38Z"/><path d="M160.71,18l2.88-1.49a4.29,4.29,0,0,0,3.91,2.62c2,0,3.45-1.15,3.45-2.73,0-1.28-.68-2.25-2.84-3-1.11-.42-1.84-.63-3.11-1.1a5.35,5.35,0,0,1-3.82-5c0-3.39,2.64-5.51,6-5.51a6.67,6.67,0,0,1,5.62,3.17L170,6.58a3.46,3.46,0,0,0-2.86-1.71,2.47,2.47,0,0,0-2.74,2.31c0,1.23,1.16,1.81,2.13,2.15,1.18.45,2.34.81,3.68,1.39a5.73,5.73,0,0,1,3.93,5.51c0,3.67-2.85,6-6.77,6A7.39,7.39,0,0,1,160.71,18Z"/><path d="M180,4.89v-3h13.4v3h-5.09V22.08h-3.2V4.89Z"/><path d="M210.69,4.89v-3h13.4v3H219V22.08h-3.2V4.89Z"/><path d="M242.24,18h-9.52L231,22.08h-3.57l8.29-20.2h3.36l8.34,20.2h-3.52ZM241,15l-3.54-8.58L234,15Z"/><path d="M257.33,12.93v9.18h-3.22V1.88h3.22v8.68l6.82-8.68h3.75l-7.68,9.79,9.41,10.44h-4Z"/><path d="M289,1.88v3h-9.39V10.6h8.16v3h-8.16v5.45H289v3H276.43V1.88Z"/><path d="M302.19,7a3.41,3.41,0,0,1,2.52-1.48c1,0,2,.6,3,2a56.2,56.2,0,0,0,11,10.69l-2,2.3a77,77,0,0,1-10.22-9.94c-.75-1-1.28-1.38-1.8-1.38s-.95.35-1.57,1.05c-1.28,1.47-3.88,4.57-5.88,7L295,15.09C297.59,12.59,300.72,8.7,302.19,7Z"/><path d="M324.53,13.57A11.15,11.15,0,0,1,335.62,2.42c7.2,0,10,4.25,10,9.25,0,4.8-2.15,8.94-9.35,10.52l-1.37-2.73c6.12-1,7.77-4,7.77-7.74s-2-6.27-6.2-6.52c-.37,9.37-3.25,15.74-7.19,15.74-2.83,0-4.75-3.57-4.75-7.35Zm2.72-.05c0,2.4.95,4.27,2.1,4.27,1.7,0,4-4.4,4.25-12.39A8.08,8.08,0,0,0,327.25,13.52Z"/><path d="M361.76,19.07V11.24h-7.52V2.67h2.7v6.1h4.82V.05h2.85V8.77h5.07V2.67h2.8v8.57h-7.87v7.83h6v-6.3h2.8V23.19h-2.8v-1.5H356v1.5h-2.75V12.77H356v6.3Z"/><path d="M381.47,6.8a19,19,0,0,1,4.58,3l-1.85,2A15.54,15.54,0,0,0,380,8.65Zm2.8,7.07,2,1.52a60.4,60.4,0,0,1-3.6,7.7l-2.38-1.58A46.72,46.72,0,0,0,384.27,13.87ZM382.37.23A18,18,0,0,1,386.62,3L384.8,4.92a16.91,16.91,0,0,0-3.95-2.82Zm15.72,18.51h-6.52l2.45,1a21.67,21.67,0,0,1-5.55,3.42l-2.7-1.32a20.07,20.07,0,0,0,5.47-3.1h-3.3V9.45h5.48V8h-3.93V7H387.1V2.15h6.27V0h2.77V2.15h6.62V7h-2.42V8h-4.22V9.45h5.74v9.29h-3.57A55.31,55.31,0,0,1,403.46,22l-2.75,1.15a42,42,0,0,0-4.89-3.3ZM400.21,5.8V4.5H389.54V5.8Zm-9.67,7.39h2.88V11.52h-2.88Zm0,3.45h2.88v-1.7h-2.88Zm8.62-3.45V11.52h-3v1.67Zm0,3.45v-1.7h-3v1.7Z"/><path d="M7.39,60.94H0v-3H7.39Z"/><path d="M23.5,50V47H36.9v3H31.81V67.21h-3.2V50Z"/><path d="M47.42,58.75v8.47H44.2V47h3.22v8.71h11V47h3.2v20.2h-3.2V58.75Z"/><path d="M82.73,47v3H73.34v5.7H81.5v3H73.34V64.2h9.39v3H70.12V47Z"/><path d="M114.44,47v3h-9.37v5.7h8.14v3h-8.14v8.47h-3.24V47Z"/><path d="M125.3,64.42V51.69l-4.07,2v-3L128.44,47V64.42h4.1v2.79H121.23V64.42Z"/><path d="M151.17,67.23l-5.36-8.11H143v8.11h-3.22V47h7.74a6.08,6.08,0,0,1,2,11.77L155,67.23ZM143,56.1h4.38a3,3,0,0,0,0-6.07H143Z"/><path d="M160.21,63.09l2.88-1.49A4.29,4.29,0,0,0,167,64.22c2,0,3.45-1.15,3.45-2.73,0-1.28-.68-2.25-2.84-3-1.11-.42-1.84-.63-3.11-1.1a5.35,5.35,0,0,1-3.82-5c0-3.39,2.64-5.51,6-5.51A6.67,6.67,0,0,1,172.28,50l-2.78,1.71A3.46,3.46,0,0,0,166.64,50a2.47,2.47,0,0,0-2.74,2.31c0,1.23,1.16,1.81,2.13,2.15,1.18.45,2.34.82,3.68,1.39a5.73,5.73,0,0,1,3.93,5.51c0,3.67-2.85,6-6.77,6A7.37,7.37,0,0,1,160.21,63.09Z"/><path d="M179.53,50V47h13.4v3h-5.09V67.21h-3.19V50Z"/><path d="M210.19,50V47h13.4v3H218.5V67.21h-3.2V50Z"/><path d="M241.74,63.09h-9.52l-1.68,4.12H227L235.26,47h3.36L247,67.21h-3.52Zm-1.26-3-3.54-8.58-3.49,8.58Z"/><path d="M256.83,58.06v9.18h-3.22V47h3.22v8.68L263.65,47h3.75l-7.68,9.79,9.41,10.44h-4Z"/><path d="M288.54,47v3h-9.39v5.7h8.16v3h-8.16V64.2h9.39v3H275.93V47Z"/><path d="M318.29,62.66l-7.43-10.48v15h-3.22V47h3.46l7.19,10.12L325.47,47H329v20.2h-3.22v-15Z"/><path d="M340.26,58.51a5.58,5.58,0,0,0,11.15,0V47h3.19v11.6a8.78,8.78,0,0,1-17.56,0V47h3.22Z"/><path d="M361.78,63.09l2.88-1.49a4.27,4.27,0,0,0,3.91,2.62c2,0,3.45-1.15,3.45-2.73,0-1.28-.69-2.25-2.84-3-1.11-.42-1.85-.63-3.11-1.1a5.35,5.35,0,0,1-3.82-5c0-3.39,2.64-5.51,6-5.51A6.69,6.69,0,0,1,373.85,50l-2.78,1.71A3.47,3.47,0,0,0,368.2,50a2.47,2.47,0,0,0-2.73,2.31c0,1.23,1.15,1.81,2.13,2.15,1.18.45,2.34.82,3.68,1.39a5.73,5.73,0,0,1,3.93,5.51c0,3.67-2.85,6-6.77,6A7.37,7.37,0,0,1,361.78,63.09Z"/><path d="M386,47v20.2h-3.22V47Z"/><path d="M408.9,62.1l2.26,2.28a10.37,10.37,0,0,1-7.3,3,10.28,10.28,0,0,1,0-20.56,10.37,10.37,0,0,1,7.3,3l-2.26,2.29a7.18,7.18,0,0,0-5-2.1,7.07,7.07,0,0,0,0,14.14A7.2,7.2,0,0,0,408.9,62.1Z"/><path d="M438.72,49.8v2.65h-8.1c.08,2.68.17,5.32.25,7.3a29.44,29.44,0,0,1,7.77,4.35l-1.92,2.29a23.93,23.93,0,0,0-5.78-3.77c-.05,3.2-1.44,4.95-5,4.95-3.77,0-6.34-1.8-6.34-4.3,0-2.7,2.32-4.45,6.72-4.45A9.86,9.86,0,0,1,428,59c-.15-3.69-.37-9.32-.42-13.09h3c0,.7,0,1.4,0,2.15,0,.57,0,1.17,0,1.77ZM426,61.32c-2.48,0-3.75.78-3.75,1.93,0,1,1.3,1.79,3.6,1.79,1.72,0,2.27-.84,2.27-2.62V61.6A9.09,9.09,0,0,0,426,61.32Z"/><path d="M447.71,53.83a27.07,27.07,0,0,1,1-7.25l2.87.6a20.52,20.52,0,0,0-1.15,6.42,11.28,11.28,0,0,0,.3,2.73c.4-.75,1.32-2.33,1.85-3.18l1.8,1.58a33.85,33.85,0,0,0-3,5.62l-2.44.37a17.1,17.1,0,0,1-1.23-6.87Zm15.14-7.6a44.78,44.78,0,0,1,.85,8.9c0,5.77-1.7,10.16-9.44,12.59L452.63,65c6.9-1.9,8.1-4.87,8.1-9.84a33.91,33.91,0,0,0-1-8.45Z"/><path d="M476.2,67.69,474,65.37c5.15-2.25,6.22-4.67,6.37-9.14h-9.52V53.58h20.72v2.65h-8.22C483.14,61.35,481.79,64.8,476.2,67.69Zm11.89-20.16,1.17-1a15.69,15.69,0,0,1,2.4,2.92l-1.25,1a14,14,0,0,0-2.25-2.8v2.5H473.62V47.53Zm3.1-3.25a14.65,14.65,0,0,1,2.45,2.9l-1.25,1a13.86,13.86,0,0,0-2.4-2.87Z"/><path d="M506.88,55.45l-1.35,2.42A46.53,46.53,0,0,0,499.06,55l1.37-2.45A47.94,47.94,0,0,1,506.88,55.45Zm10.29-3.05,1.93,2.18c-3.48,5.57-10.5,10.76-17.22,12.84l-1.52-2.77A29.46,29.46,0,0,0,517.17,52.4ZM509.5,50l-1.4,2.37a41.92,41.92,0,0,0-6.24-3L503.23,47A47.92,47.92,0,0,1,509.5,50Zm5.12-2.68a16.25,16.25,0,0,1,2.93,2.93l-1.35,1.2a14.26,14.26,0,0,0-2.85-2.9Zm2.75-2.14a15.87,15.87,0,0,1,2.9,2.89L519,49.25a17.3,17.3,0,0,0-2.88-2.92Z"/><path d="M533.84,54.3c1.62.93,3.67,2.3,5.22,3.42a18.54,18.54,0,0,0,2.65-6.42h-7.17a32.26,32.26,0,0,1-6.42,7.45l-2.23-1.85a27.34,27.34,0,0,0,8.25-11.09l2.8.9c-.25.65-.58,1.29-.9,2h7.24l2,1.15c-1.83,8.17-6.47,15-13.69,17.86l-2-2.4A18.16,18.16,0,0,0,537.34,60a41.06,41.06,0,0,0-5.3-3.57Z"/><path d="M560.67,47.5v8a13.12,13.12,0,0,1-6.17,11.82l-2.3-2.12c4.7-2.9,5.5-6,5.5-9.82V47.5Zm7.12-.39V62.45a24.34,24.34,0,0,0,6.68-6.2l1.3,2.77a35.56,35.56,0,0,1-8.67,7.62l-2.3-1.39V47.11Z"/><path d="M587.76,46.91V58.85h-3V46.91Zm11.64-.35v9.27c0,5.44-2.6,9.32-8.39,11.74l-2-2.47c5.5-2,7.32-5.1,7.32-9.35V46.56Z"/><path d="M613,46.91V58.85h-3V46.91Zm11.64-.35v9.27c0,5.44-2.6,9.32-8.4,11.74l-2-2.47c5.5-2,7.32-5.1,7.32-9.35V46.56Z"/><path d="M654.07,55.25v3H633.63v-3Z"/><path d="M682.11,65.72l-2.65,1.85a49.27,49.27,0,0,0-6.67-7.12,30.62,30.62,0,0,1-9.07,7.09l-1.9-2.39c6.67-3,11.92-9.22,13.44-14.25H663.49V48.23H677l2,1.17a29.63,29.63,0,0,1-4.5,8.82A77.56,77.56,0,0,1,682.11,65.72Z"/></g></g></svg>