<svg xmlns="http://www.w3.org/2000/svg" viewBox="0 0 272.83 29.13"><g id="レイヤー_2" data-name="レイヤー 2"><g id="レイヤー_1-2" data-name="レイヤー 1"><path d="M4.26,24.79V11.46L0,13.52V10.36L7.56,6.49v18.3h4.28v2.94H0V24.79Z"/><path d="M27,15.86a4.27,4.27,0,0,0,1-2.58,3.49,3.49,0,0,0-3.65-3.71A3.44,3.44,0,0,0,20.78,13H17.56a6.62,6.62,0,0,1,6.85-6.57,6.72,6.72,0,0,1,6.89,6.9,6.83,6.83,0,0,1-1.43,4.17l-5.58,7.17H31.8v3.11H17.86Z"/><path d="M39.61,25.86a2,2,0,1,1,2.06,2.06A2.05,2.05,0,0,1,39.61,25.86Z"/><path d="M55.9,24.79V11.46l-4.26,2.06V10.36L59.2,6.49v18.3h4.29v2.94H51.64V24.79Z"/><path d="M69.59,21.05h3.35a3.62,3.62,0,1,0,7.23,0,3.7,3.7,0,0,0-3.63-3.76,3.58,3.58,0,0,0-2.91,1.48L70.5,17.62l1.15-11H82.92V9.68H74.43L73.9,14.9a5.38,5.38,0,0,1,2.94-.77A6.6,6.6,0,0,1,83.5,21a7,7,0,0,1-13.91,0Z"/><path d="M98.11,29.13A18.37,18.37,0,0,1,98.16,0l.41.52a17.72,17.72,0,0,0,0,28.06Z"/><path d="M103.63,9.73V6.57h14V9.73h-5.33v18H109v-18Z"/><path d="M127.62,18.61a5.83,5.83,0,0,0,11.66,0v-12h3.35V18.72a9.2,9.2,0,1,1-18.39,0V6.57h3.38Z"/><path d="M164.1,6.57V9.73h-9.84v6h8.54v3.16h-8.54v5.72h9.84v3.16H150.88V6.57Z"/><path d="M170.37,0a18.38,18.38,0,0,1-.06,29.13l-.41-.52A17.71,17.71,0,0,0,170,.55Z"/><path d="M191.12,24.79V11.46l-4.26,2.06V10.36l7.56-3.87v18.3h4.28v2.94H186.86V24.79Z"/><path d="M205.93,26.36l8-16.63h-9.07V6.51h14.48L209,28Z"/><path d="M225.89,9.93a2.05,2.05,0,0,1,2.06-2,2,2,0,0,1,2,2A2.05,2.05,0,0,1,228,12,2.08,2.08,0,0,1,225.89,9.93Zm0,8.55a2,2,0,0,1,2.06-2,2,2,0,0,1,2,2,2,2,0,0,1-2,2.06A2.07,2.07,0,0,1,225.89,18.48Z"/><path d="M238.17,21V13.19a6.93,6.93,0,0,1,13.85,0V21a6.93,6.93,0,0,1-13.85,0Zm10.5,0V13.17a3.57,3.57,0,1,0-7.14,0v7.88a3.57,3.57,0,1,0,7.14,0Z"/><path d="M259,21V13.19a6.93,6.93,0,0,1,13.85,0V21A6.93,6.93,0,0,1,259,21Zm10.5,0V13.17a3.58,3.58,0,1,0-7.15,0v7.88a3.58,3.58,0,1,0,7.15,0Z"/></g></g></svg>