<svg xmlns="http://www.w3.org/2000/svg" width="251.076" height="11.976" viewBox="0 0 251.076 11.976">
  <path id="パス_885" data-name="パス 885" d="M10.02-9.9a6.941,6.941,0,0,1,1.14,1.416l.78-.6A7.454,7.454,0,0,0,10.764-10.5ZM8.5-9.276A6.56,6.56,0,0,1,9.636-7.86l.78-.6A7.784,7.784,0,0,0,9.252-9.876ZM5.8-8.028c.228-.42.444-.84.612-1.236l-1.6-.576A13.713,13.713,0,0,1,.792-4.452L2.088-3.4A15.666,15.666,0,0,0,4.872-6.54H8.124a7.789,7.789,0,0,1-5.46,5.9L3.8.744c3.612-1.512,5.436-4,6.42-8.2L9-8.028ZM16.728-9.252V-7.7h6.9V-9.252ZM15.492-6.528v1.56h7.1c-.552,1.812-2.256,3.348-4.92,4.176l1.08,1.5A9.488,9.488,0,0,0,24.78-5.7l-1.188-.828Zm15.36-2.364L29.8-7.512a17.139,17.139,0,0,1,3.048,2.1l1.116-1.4A23.676,23.676,0,0,0,30.852-8.892ZM30.12-1.008,31.008.636A16.438,16.438,0,0,0,39.252-5.5L38.148-6.8A14,14,0,0,1,30.12-1.008ZM54.444-9.3a1.209,1.209,0,0,0-1.212-1.212A1.211,1.211,0,0,0,52.008-9.3a1.221,1.221,0,0,0,1.224,1.224,1.216,1.216,0,0,0,1.212-1.212ZM52.5-9.3a.741.741,0,0,1,.732-.72.738.738,0,0,1,.72.72.741.741,0,0,1-.72.732.741.741,0,0,1-.732-.72Zm-8.448.912v1.6h6.864c-.576,2.7-2.268,4.764-5.7,6.072L46.4.66c3.684-1.572,5.676-4.32,6.564-8.328l-1.308-.72ZM64.488-9.48v4.4c0,1.968-.816,3.4-3.468,4.332L62.16.684C64.992-.5,66.252-2.352,66.252-5.028V-9.48ZM59-9.3v5.772H60.72V-9.3ZM78.936-4.6a8.88,8.88,0,0,0,1.908,5.964L82.2,1.032A9.265,9.265,0,0,1,80.592-4.6,9.317,9.317,0,0,1,82.2-10.272l-1.356-.336a8.916,8.916,0,0,0-1.908,6ZM90.888-7.44v-.324h3.12v.324Zm0,.96V-6.8h3.12v.324Zm0,.96v-.324h3.12v.324ZM89.976-4.4v-.3h1.86l-.132.072a6.251,6.251,0,0,1,.936.936l.924-.468a4.737,4.737,0,0,0-.552-.54h1.98v.2l-.1-.072-1,.5c.12.108.228.216.336.312L93.384-3.9c-.024.288-.048.312-.312.312h-.888c-.276,0-.324-.06-.324-.384v-.5H90.7V-4.1ZM93.828-.492a4.213,4.213,0,0,0,1.44-1.548l-1.02-.336H92.376l.252-.288-.168-.012h.708c.912-.012,1.164-.132,1.284-.864a5.525,5.525,0,0,1,.816,1.02l1.164-.468a6.069,6.069,0,0,0-.7-.828h.66v-1.7h-.888V-8.472H93.2c.048-.132.108-.252.156-.384H96.5V-9.9H88.92v1.044h2.928c-.024.12-.06.252-.084.384h-2.3V-5.52h-.84v1.7h.636a4.382,4.382,0,0,1-.852.708l1.08.624a5.362,5.362,0,0,0,1.224-1.332c.012.648.144.936.612,1.056l-.312-.024a7.2,7.2,0,0,1-2.7,1.656l1.236.684c.252-.12.5-.24.756-.384a5.509,5.509,0,0,0,.612.42A14.011,14.011,0,0,1,88.4.012l.8,1.044A14.35,14.35,0,0,0,92.352.264a16.576,16.576,0,0,0,3.444.792L96.564-.12A15.5,15.5,0,0,1,93.828-.492Zm-2.484-1H93.2a3.886,3.886,0,0,1-.84.54A5.442,5.442,0,0,1,91.344-1.488ZM88.08-7.356a18.609,18.609,0,0,0,.744-2.472l-1.512-.336A16.255,16.255,0,0,1,85.188-4.68l.84,1.38c.192-.276.372-.576.552-.876V1.056h1.5Zm13.392.288v-1.4h.6v1.4Zm5.256,1.236c.084-.216.168-.432.24-.648h.372c.072.216.144.432.228.648Zm-5.268,1.56c.012-.312.012-.624.012-.936v-.576h.6v1.512Zm8.3,1.536c.072.06.156.12.228.18l.96-1.164a4.942,4.942,0,0,1-1.08-.888h.852V-5.832h-1.716c-.108-.216-.2-.432-.3-.648h1.548V-7.692h-.78a17.931,17.931,0,0,0,1.116-1.752l-1.26-.6A13.265,13.265,0,0,1,108.3-8.16l.84.468h-1.848a22.543,22.543,0,0,0,.384-2.436l-1.416-.06a17.128,17.128,0,0,1-.36,2.5h-1.236c.432-.156.84-.312,1.236-.456A6.7,6.7,0,0,0,104.964-10l-1.116.492a6.551,6.551,0,0,1,.768,1.812h-.456V-6.48h1.38c-.084.216-.18.432-.276.648H103.74v1.224h.744a5,5,0,0,1-1,.948V-9.84H100.08V-5.2A16.754,16.754,0,0,1,99.324.492c.012,0,.024.012,1.332.6a15.615,15.615,0,0,0,.744-4.068h.672V-.528c0,.132-.036.2-.18.2-.1,0-.348,0-.552-.012l.264,1.38a5.736,5.736,0,0,0,1.056-.036c.624-.12.828-.528.828-1.272V-3.216l.768.72a1.358,1.358,0,0,0,.156-.12v.48h1.332a3.577,3.577,0,0,1-2.1,2.1l.948,1.092a4.871,4.871,0,0,0,2.616-3.192h1.056a4.378,4.378,0,0,1-.3,1.86.421.421,0,0,1-.192.036c-.18.012-.588,0-.84-.012l.2,1.284c.288.012.852.024,1.08.012a1.9,1.9,0,0,0,.828-.168C109.464.624,109.644-.5,109.764-2.736Zm-1.44-.6h-.852q.072-.468.108-.972l-1.428-.06c-.024.36-.06.7-.108,1.032h-.828a7.386,7.386,0,0,0,.936-1.272h2.016a7.308,7.308,0,0,0,.948,1.272h-.792Zm11.16-3.372v-.936h2.028c-.336.324-.7.636-1.068.936Zm-1.668,4.032V-3.36h3.744v.684ZM121.56.66v.4h1.608V-4.7h-3.18c.336-.216.66-.432.972-.672H124.9V-6.708h-2.34a13.85,13.85,0,0,0,1.836-2.172l-1.272-.684a11.559,11.559,0,0,1-1.272,1.572v-.984h-2.364v-1.2H117.9v1.2h-2.82v1.332h2.82v.936h-4.236v1.332h4.7a21.47,21.47,0,0,1-4.824,1.812c.336.4.672.792,1.032,1.224.564-.168,1.128-.36,1.668-.552V1.044h1.572v-.4ZM117.816-.7v-.72h3.744V-.7ZM131.3-4.6a8.928,8.928,0,0,0-1.908-6.012l-1.356.336A9.317,9.317,0,0,1,129.648-4.6a9.265,9.265,0,0,1-1.608,5.628l1.356.336A8.869,8.869,0,0,0,131.3-4.584Zm11.868.528A14.826,14.826,0,0,0,143.82.684l1.692-.492a11.438,11.438,0,0,1-.672-4.284,19.128,19.128,0,0,1,.732-5.364l-1.7-.3a24.182,24.182,0,0,0-.7,5.676Zm7.356-4.092c-1.368,0-2.9.036-4.092.144l.1,1.524c1.068-.108,2.4-.18,3.564-.18.744,0,1.476.024,2.088.072l.024-1.536c-.48-.024-1.08-.024-1.668-.024Zm1.944,6.432a14,14,0,0,1-2.388.24c-1.464,0-2.16-.18-2.16-.744a2.72,2.72,0,0,1,.348-1.1L146.8-3.588a4.947,4.947,0,0,0-.5,1.9c0,1.284,1.656,1.716,3.828,1.716.7,0,1.572-.048,2.352-.12Zm3.672-1.74v1.4h7.44c-.156.864-.336,1.356-.528,1.464a.7.7,0,0,1-.444.12c-.372.012-1.248-.012-1.776-.048l.3,1.56c.552.012,1.464.024,1.884.012a2.287,2.287,0,0,0,1.212-.288c.408-.264.732-1.212,1-2.82h2.148v-1.4h-1.944c.1-.768.192-1.644.276-2.616H159.78c.132-.468.252-.96.372-1.464h6.288V-8.976h-5.952c.084-.384.156-.744.228-1.092l-1.692-.108c-.336,1.776-1.032,4.488-1.488,5.928l1.716.12q.072-.234.144-.5h4.536c-.036.42-.084.8-.12,1.164ZM173.1-8.508c1.416.336,3.516.7,5.34.924l.252-1.464a32.1,32.1,0,0,1-5.16-.948ZM171.456-6.7l.12,1.536c1.668-.06,3.564-.228,4.74-.336-1.1,1.176-3.876,3.84-5.46,5.148l1.26,1.212c.576-.624,1.752-1.776,2.268-2.256.2-.18.468-.408.636-.54a1.2,1.2,0,0,1,.744-.312c.18,0,.372.144.42.444.084.468.12,1.008.192,1.356.168.792.768,1.068,2.256,1.068.78,0,1.512-.024,2.316-.084V-1.044a10.651,10.651,0,0,1-1.848.18c-1.008,0-1.164-.036-1.224-.684a9.831,9.831,0,0,0-.192-1.476.765.765,0,0,0-.8-.624,1.511,1.511,0,0,0-.324.048c.684-.708,1.584-1.656,2.352-2.376l-.9-1.116A57.913,57.913,0,0,1,171.456-6.7Zm21.132-.432.42-1.512a39.625,39.625,0,0,0-5.6-1.236L187-8.364A28.912,28.912,0,0,1,192.588-7.128Zm-3.78-.18L187.284-7.8c-.912,1.356-1.176,2.592-1.176,5.3l1.32.588a5.517,5.517,0,0,1,3.624-1.86c1.188,0,1.68.516,1.68,1.26,0,1.008-.936,1.692-3.4,1.692-.336,0-.912-.024-1.332-.06L188.34.672c.264.012.6.012.816.012,3.708,0,5.256-1.2,5.256-3.228,0-1.56-1.164-2.58-3.036-2.58A6.862,6.862,0,0,0,187.8-3.96,5.164,5.164,0,0,1,188.808-7.308Zm14.208-.732c.024-.708.048-1.332.072-1.812H201.42c0,.492-.012,1.14-.024,1.872-.78.072-1.68.12-2.208.12l.12,1.524c.636-.048,1.488-.12,2.076-.18l-.012,1a7.377,7.377,0,0,1-.552,1.188,23.569,23.569,0,0,1-1.968,2.664l1.236,1.08c.36-.5.792-1.1,1.224-1.656-.024,1.164-.048,2.22-.084,2.988H202.9c0-1.116.012-2.976.048-4.884A19.208,19.208,0,0,1,205.512-6.4a1.081,1.081,0,0,1,.636-.264c.228,0,.36.156.36.624,0,.552-.1,1.368-.156,2-.072.9-.132,1.644-.132,2.292,0,1.488.576,2.016,1.68,2.016a5.386,5.386,0,0,0,2.064-.516l-.156-1.728a3,3,0,0,1-1.62.636c-.252,0-.36-.1-.36-.456,0-.54.084-1.488.18-2.424.084-.828.156-1.656.156-2.28,0-1.308-.624-1.884-1.5-1.884a2.9,2.9,0,0,0-1.572.552,17.435,17.435,0,0,0-1.932,1.656,8.649,8.649,0,0,1,.54-1.416Zm16.1,7.284a5.018,5.018,0,0,1-.612.024c-1.02,0-1.44-.252-1.44-.66,0-.36.372-.6.96-.6C218.676-1.992,219.024-1.548,219.12-.756ZM214.6-9.048l.1,1.572c1.3-.06,3.1-.156,4.056-.252a49.141,49.141,0,0,1-5.412,4.656l1.08,1.248a11.611,11.611,0,0,1,3.468-2.4,5.248,5.248,0,0,1,1.476-.24,1.838,1.838,0,0,1,1.908,1.836,1.6,1.6,0,0,1-.792,1.5,2.314,2.314,0,0,0-2.46-2.148c-1.428,0-2.4.852-2.4,1.908,0,1.212,1.068,2.028,3.048,2.028,2.844,0,4.26-1.308,4.26-3.348a3,3,0,0,0-3.1-3.12,3.746,3.746,0,0,0-1.116.168c.8-.768,2.136-1.908,3.036-2.628l-.78-1.152A62.6,62.6,0,0,1,214.6-9.048ZM227.46-5.376v1.488h2.268c-.036.492-.048.9-.048,1.212,0,2.328,1.164,3.36,3.888,3.36,2.352,0,3.744-.84,3.744-2.82a5.415,5.415,0,0,0-.348-1.752l-1.62.288a2.9,2.9,0,0,1,.36,1.356c0,1.008-.7,1.368-2.124,1.368-1.716,0-2.22-.444-2.22-1.86,0-.3.012-.7.048-1.152H234.9V-5.376h-3.348c.048-.456.108-.924.168-1.416h3.432v-1.5h-3.2c.072-.468.156-.936.24-1.392l-1.824-.168c-.072.5-.144,1.032-.2,1.56h-2.508v1.5h2.328c-.048.48-.1.96-.132,1.416Zm18.384-1.98c-.12,3.66-1.128,5.544-1.848,5.544-.492,0-.876-.768-.876-1.872A3.685,3.685,0,0,1,245.844-7.356Zm-4.308,3.72c0,1.86.948,3.648,2.424,3.648,1.992,0,3.36-3.024,3.54-7.488a2.664,2.664,0,0,1,2.652,2.952c0,1.668-.732,3.06-3.624,3.54L247.32.6c3.528-.792,4.548-2.868,4.548-5.16,0-2.376-1.3-4.524-4.884-4.524a5.462,5.462,0,0,0-5.448,5.436Z" transform="translate(-0.792 10.608)"/>
</svg>
