<svg xmlns="http://www.w3.org/2000/svg" width="62.469" height="13.09" viewBox="0 0 62.469 13.09">
  <defs>
    <style>
      .cls-1 {
        fill-rule: evenodd;
      }
    </style>
  </defs>
  <path id="gl_ttl02.svg" class="cls-1" d="M336.889,2254.46a11.859,11.859,0,0,1,2.2,2.74l1.525-1.01a13.673,13.673,0,0,0-2.323-2.59h5.458v-1.63H338.6v-1.6h-1.9v1.6h-4.954v3.44a16.777,16.777,0,0,1-1.19,6.94l1.6,1.02a20.024,20.024,0,0,0,1.4-7.98v-1.79h4.534Zm-0.84,1.42v4.71c0,2.17.378,2.61,2.057,2.66,0.378,0.01.966,0.01,1.386,0,1.5-.03,1.791-0.35,1.959-2.78l-1.693-.26c-0.028,1.2-.07,1.27-0.406,1.29-0.308.01-.77,0.01-1.064,0-0.364-.02-0.448-0.12-0.448-0.91v-4.71h-1.791Zm4.632,1.59a14.342,14.342,0,0,1,1.344,4.38l1.847-.59a15.364,15.364,0,0,0-1.567-4.33Zm-6.493-.28a15.957,15.957,0,0,1-.924,4.25l1.694,0.48a21.73,21.73,0,0,0,.909-4.5Zm18.241-4.47v-0.49h2.533v0.49h-2.533Zm-1.483,1.07h5.583v0.49h-5.583v-0.49Zm0,1.37h5.583v0.5h-5.583v-0.5Zm0.434,4.21a9.481,9.481,0,0,0,.923-0.88h2.771a6.011,6.011,0,0,0,.868.88h-1.708c0.042-.2.084-0.41,0.112-0.62l-1.609-.07a5.271,5.271,0,0,1-.126.69H351.38Zm6.381,1.1a11.062,11.062,0,0,0,1.707.59l0.994-1.43a8.568,8.568,0,0,1-3.317-1.14h3.163v-1.29h-7.025c0.1-.15.182-0.32,0.28-0.49h4.842v-3.99h-1.638v-0.49h3.541v-1.33h-3.541v-0.53h-1.805v0.53h-2.533v-0.53h-1.777v0.53h-3.443v1.33h3.443v0.49H349.14v3.99h2.715a3.7,3.7,0,0,1-.363.49h-4.283v1.29h2.869a8.868,8.868,0,0,1-2.981,1.28l0.98,1.33a9.8,9.8,0,0,0,1.581-.64v0.18h2.351c-0.6.74-1.651,1.26-3.5,1.6l1.021,1.24c2.421-.58,3.639-1.49,4.283-2.84h2.127a2.027,2.027,0,0,1-.448,1.35,0.8,0.8,0,0,1-.238.04c-0.252.01-.784,0-1.106-0.02l0.238,1.43c0.378,0.02,1.05.03,1.344,0.02a3.105,3.105,0,0,0,1.049-.17C357.257,2263.06,357.537,2262.22,357.761,2260.47Zm14.449-6.4a11.421,11.421,0,0,0-.476-1.28h2.141c-0.126.39-.294,0.84-0.476,1.28H372.21Zm-3.135,0v2.43h1.581v-1.06H375v1.06h1.637v-2.43h-1.6c0.224-.41.447-0.8,0.6-1.15l-0.363-.13h1.259v-1.4h-2.8v-1.02H371.9v1.02h-2.687v1.4h1.427l-0.489.18c0.154,0.35.308,0.73,0.433,1.1h-1.511Zm5.5,2.7h-0.882v-1.07h-1.777v1.07h-2.477v5.29h1.637v-3.78h0.84v5.19h1.777v-5.19h0.882v2.17a0.1,0.1,0,0,1-.126.12h-0.49l0.252,1.44a6.735,6.735,0,0,0,1.315-.04,0.989,0.989,0,0,0,.714-1.17v-4.03h-1.665Zm-7.165.96,0.532-.07c0.042,0.17.084,0.34,0.111,0.48l1.316-.53a8.8,8.8,0,0,0-1.12-2.66l-1.259.54a7.879,7.879,0,0,1,.476.87c-0.378.03-.77,0.04-1.162,0.07a46.575,46.575,0,0,0,2.757-4.16c-0.014,0-.028-0.01-1.5-0.65-0.308.63-.756,1.4-1.26,2.21-0.126-.14-0.28-0.31-0.434-0.46,0.574-.83,1.106-1.71,1.484-2.4l-1.47-.6a17.262,17.262,0,0,1-1.049,2.04c-0.1-.07-0.2-0.15-0.294-0.23l-0.854,1.16a12.988,12.988,0,0,1,1.806,1.75c-0.308.49-.644,0.96-0.98,1.44-0.336.01-.644,0.01-0.9,0.03l0.28,1.56c0.5-.05,1.176-0.12,1.875-0.19v5.54h1.638v-5.74Zm0.1,0.97a12.817,12.817,0,0,1,.462,2.84c0.447-.1.881-0.21,1.371-0.32a14.654,14.654,0,0,0-.5-2.84Zm-3.233-.21a11.4,11.4,0,0,1-.644,3.48l1.358,0.52a14.918,14.918,0,0,0,.671-3.76Zm25.252-5.68h1.582c-0.084,5.38-.238,8.32-0.546,8.66a0.51,0.51,0,0,1-.392.15,11.991,11.991,0,0,1-1.427-.04l0.294,1.86c0.5,0.03,1.315.03,1.707,0.02a1.846,1.846,0,0,0,1.329-.45c0.672-.69.812-5.01,0.966-11.94h-7.263v1.74h1.875c-0.07,4.29-.42,7.59-3.512,9.44l1.581,1.23C388.9,2261.37,389.4,2257.54,389.527,2252.81Zm-9.39,1.47,0.322,1.69,1.176-.24v2.23c0,2.35.35,2.88,1.959,2.92,0.238,0,.644.01,0.924,0,1.3-.06,1.623-0.36,1.763-3.04l-1.61-.26c-0.014,1.43-.042,1.51-0.265,1.52h-0.63c-0.252,0-.308-0.11-0.308-1.13v-2.6l2.813-.56-0.322-1.67c-0.21.06-.434,0.1-2.491,0.49v-3.25h-1.833v3.6Z" transform="translate(-330.562 -2250.38)"/>
</svg>
