<svg xmlns="http://www.w3.org/2000/svg" width="93.312" height="13.41" viewBox="0 0 93.312 13.41">
  <defs>
    <style>
      .cls-1 {
        fill-rule: evenodd;
      }
    </style>
  </defs>
  <path id="gl_ttl01.svg" class="cls-1" d="M315.967,2023.46a10,10,0,0,1,1.624,2.55l1.553-.85a10.749,10.749,0,0,0-1.819-2.51Zm7.291,6.8v-0.86h1.582v0.86h-1.582Zm-0.8,1.36h3.12l-0.993.53a24.934,24.934,0,0,1,2.547,1.61l1.6-.71a26.4,26.4,0,0,0-2.421-1.43h2.547v-1.36h-2.239v-0.86h1.847v-1.33h-1.847v-0.51h0.63c1.231-.01,1.511-0.22,1.651-1.55l-1.469-.22c-0.014.43-.042,0.47-0.308,0.49h-0.882c-0.294-.02-0.35-0.09-0.35-0.52v-0.09h2.589v-2.95h-4.254v1.19h2.7v0.57H324.35v1.28c0,1.26.2,1.68,1.231,1.77H324.84v0.54h-1.582v-0.54h-0.531c0.9-.05,1.133-0.35,1.245-1.52l-1.427-.22c-0.014.44-.056,0.47-0.294,0.49h-0.826c-0.266-.02-0.322-0.09-0.322-0.52v-0.09H323.5v-2.95h-4v1.19h2.477v0.57h-2.379v1.28c0,1.45.252,1.76,1.665,1.79h0.252v0.52h-1.763v1.33h1.763v0.86h-2v1.36h2.407a8.81,8.81,0,0,1-2.113,1.09l1.441,0.95a9.042,9.042,0,0,0,2.407-1.58Zm-3.4.99V2028h-3.149v1.61h1.428v3.3c-0.574.39-1.134,0.71-1.624,0.98l0.686,1.61c0.6-.44,1.274-0.91,1.987-1.51a4,4,0,0,0,3.065,1.26c1.763,0.05,5.556.04,7.361-.02l0.294-1.51c-1.875.1-5.794,0.11-7.4,0.07A3.282,3.282,0,0,1,319.06,2032.61Zm20.425-6.25v-1.06h2.2c-0.392.37-.812,0.72-1.246,1.06h-0.951Zm2.533,4.39h-4.087l0.168-.54a28.412,28.412,0,0,0,6-.66l-0.644-1.37a19.809,19.809,0,0,1-3.667.54c0.448-.28.882-0.57,1.3-0.88h4.674v-1.48H342.9a17.466,17.466,0,0,0,2.127-2.46l-1.469-.8a15.366,15.366,0,0,1-1.246,1.55v-0.84h-2.826v-1.44h-1.876v1.44h-3.274v1.49h3.274v1.06h-4.94v1.48h5.416a24.459,24.459,0,0,1-5.556,2.09l1.2,1.41c0.77-.22,1.525-0.49,2.253-0.77-0.28.88-.6,1.75-0.84,2.35l2,0.11c0.084-.21.167-0.46,0.265-0.71h4.339a2.014,2.014,0,0,1-.672,1.43,0.735,0.735,0,0,1-.322.05c-0.308.02-1.021,0-1.441-.02l0.294,1.68c0.475,0.01,1.3.02,1.651,0.01a2.939,2.939,0,0,0,1.161-.2c0.714-.32,1.176-1.68,1.554-4.52h-1.959Zm19.948-7.12a1.535,1.535,0,1,0,0,.01v-0.01Zm-2.491,0a0.945,0.945,0,1,1,0,.01v-0.01Zm2.379,1.9H357v-2.71h-2.015v2.71h-4.8v1.84h4.8v5.16a0.509,0.509,0,0,1-.6.63,13.719,13.719,0,0,1-1.371-.08v1.87c0.7,0.06,1.427.09,1.917,0.09,1.414,0,2.071-.62,2.071-2.27v-5.4h4.856v-1.84Zm-3.82,3.98a18.4,18.4,0,0,1,2.757,3.92l1.749-1.01a25.337,25.337,0,0,0-2.869-3.86Zm-5.822-.84a11.854,11.854,0,0,1-2.785,3.82l1.554,1.09a15.4,15.4,0,0,0,3.009-4.21Zm21.782-1.35a23.852,23.852,0,0,0,3.681-3.27l-1.582-1.25a24.641,24.641,0,0,1-9.488,6.39l1.064,1.77a26.848,26.848,0,0,0,4.226-2.21v6.29h2.1v-7.72Zm10.46-3.45-1.231,1.61a19.367,19.367,0,0,1,3.554,2.45l1.3-1.64A27.806,27.806,0,0,0,384.454,2023.87Zm-0.853,9.19,1.035,1.92a19.16,19.16,0,0,0,9.614-7.15l-1.287-1.53A16.313,16.313,0,0,1,383.6,2033.06Zm19.3-6.46v-3.8h-2.043v12.24h2.043v-6.29a30.4,30.4,0,0,1,4.814,2.91l1.316-1.68A45.233,45.233,0,0,0,402.905,2026.6Z" transform="translate(-315.719 -2022.09)"/>
</svg>
