<svg xmlns="http://www.w3.org/2000/svg" width="51.624" height="22.297" viewBox="0 0 51.624 22.297">
  <path id="gp-reina" d="M1.2-19.8v1.632H11.328V-19.8Zm11.064,0v1.632h10.56V-19.8ZM5.712-15.48v2.04H7.368v-2.04Zm10.824,0v2.04h1.656v-2.04Zm-.5,8.736V-8.136h3.144v1.392Zm-5.472,0V-8.136H13.7v1.392Zm-5.328,0c0-.384.024-.768.024-1.176v-.216h3v1.392ZM16.032-9.7v-1.176H22.7v-1.776h-9.48v-.72h1.944v-2.664h4.416v2.664H21.72V-17.4H13.08v3.336h-2.3V-17.4H2.328v4.032h2.04v-2.664h4.32v2.664H10.68v.72H2.712V-7.92A15.468,15.468,0,0,1,.576.7L2.952,1.968A17.575,17.575,0,0,0,5.112-5.16H21.72V-9.7Zm-5.472,0v-1.176H13.7V-9.7Zm-5.3,0v-1.176h3V-9.7ZM20.568-4.728A19.9,19.9,0,0,1,16.08-3.48V-5.064H13.632v3.672c0,2.472.528,3.024,3.168,3.1.84.024,2.28.024,3.216,0,2.376-.024,2.832-.384,3.072-2.976L20.76-1.68c-.048,1.224-.12,1.3-.936,1.32h-2.76c-.792-.024-.984-.168-.984-1.056V-1.7A26.268,26.268,0,0,0,21.6-3.168ZM4.392,0c.192.768.312,1.368.456,1.968,2.112-.216,5.784-.624,8.184-.936L12.984-.7c-1.2.12-2.736.24-4.248.384V-2.184h4.152V-3.936H8.736V-5.064H6.312v4.92C5.592-.072,4.92-.048,4.392,0ZM45.984-10.776A18.6,18.6,0,0,0,50.64-8.664l1.56-2.184a12.977,12.977,0,0,1-7.56-4.272h7.008v-2.136h-10.8a20.354,20.354,0,0,0,1.032-2.88l-2.664-.144a14.63,14.63,0,0,1-1.152,3.024H29.952v2.136h6.7a15.238,15.238,0,0,1-7.32,4.56l1.608,1.968a20.066,20.066,0,0,0,4.7-2.376v1.416H45.984Zm-9.456-.864A14.521,14.521,0,0,0,39.7-15.12h2.112a12.651,12.651,0,0,0,2.976,3.48Zm5.52,6.048h8.376V-7.776H31.08v2.184h8.28V-.816c0,.288-.12.432-.456.456a20.506,20.506,0,0,1-2.328-.048l.48,2.376a20.207,20.207,0,0,0,3.48-.048c1.1-.168,1.512-.912,1.512-2.208ZM44.136-3.84a50.218,50.218,0,0,1,4.68,4.848c.072-.048.12-.072,2.5-1.152A53.676,53.676,0,0,0,46.344-4.92ZM34.92-4.824A16.906,16.906,0,0,1,30.168-.072L32.544,1.1A18.184,18.184,0,0,0,37.32-3.888Z" transform="translate(-0.576 20.28)" fill="#ff0098"/>
</svg>
