<svg xmlns="http://www.w3.org/2000/svg" width="293.496" height="23.088" viewBox="0 0 293.496 23.088">
  <path id="grandprix-roadmap_ttl" d="M-135.84-19.92a16.309,16.309,0,0,1,2.3,3.072l1.32-1.008a16.364,16.364,0,0,0-2.352-3.048Zm-3,1.2a14.691,14.691,0,0,1,2.3,3.072l1.32-1.008a15.406,15.406,0,0,0-2.352-3.048Zm-6.048,2.808c.528-.936.984-1.848,1.368-2.712l-2.664-.96A28.044,28.044,0,0,1-154.248-8.76l2.16,1.752a30,30,0,0,0,5.664-6.432h7.152C-140.424-8.184-143.688-3.408-150.6-.912l1.872,2.3c7.224-3,11.04-8.16,12.936-16.32l-2.04-.984Zm22.848-2.4v2.568h13.752v-2.568Zm-2.448,5.448v2.592h14.736c-1.056,3.84-4.656,7.3-10.152,9.12l1.8,2.472A18.993,18.993,0,0,0-106.128-11.5l-1.968-1.368Zm31.008-4.728-1.752,2.3a37.94,37.94,0,0,1,6.12,4.248l1.872-2.328A52.154,52.154,0,0,0-93.48-17.592ZM-94.632-1.56l1.464,2.712c6.456-1.992,13.2-6.984,16.536-12.336L-78.48-13.32A28.269,28.269,0,0,1-94.632-1.56Zm48.96-17.016a2.428,2.428,0,0,0-2.448-2.448,2.428,2.428,0,0,0-2.448,2.448,2.443,2.443,0,0,0,2.448,2.448,2.438,2.438,0,0,0,2.448-2.424Zm-4.008,0a1.588,1.588,0,0,1,1.56-1.56,1.588,1.588,0,0,1,1.56,1.56,1.588,1.588,0,0,1-1.56,1.56,1.584,1.584,0,0,1-1.56-1.536Zm-16.728,1.968v2.64H-52.2C-53.448-8.28-56.9-3.792-63.912-1.056l1.944,2.3c7.464-3.216,11.424-8.832,13.176-16.68L-51-16.608Zm41.664-2.28v8.832c0,4.08-1.752,7.056-7.032,8.976l1.9,2.376c5.568-2.328,8.064-6.048,8.064-11.28v-8.9Zm-11.112.336V-7.08H-33V-18.552Zm24.72,15.336a39.387,39.387,0,0,1,4.56,5.232L-4.32.168A49.739,49.739,0,0,0-9.168-4.92ZM17.952-18.48a18.206,18.206,0,0,1,2.976,4.392l2.328-1.3a19.8,19.8,0,0,0-3.288-4.32ZM32.016-6.744a4.112,4.112,0,0,1-.552,2.928,1.007,1.007,0,0,1-.672.264,9.123,9.123,0,0,1-1.8-.024l.384,2.064a12.009,12.009,0,0,0,2.448.024,2.615,2.615,0,0,0,1.32-.432c.864-.648,1.32-2.088,1.32-3.792a17.7,17.7,0,0,0,4.008,2.976L40.008-4.68a14.732,14.732,0,0,1-5.88-4.608,48.763,48.763,0,0,0,5.328-3.528l-1.632-1.776a34.971,34.971,0,0,1-4.7,3.528A9.817,9.817,0,0,0,31.08-13.8a15.578,15.578,0,0,0,1.608-1.44h7.056v-2.04H35.88c.576-.84,1.1-1.68,1.488-2.376l-2.64-.624a24.073,24.073,0,0,1-1.464,3H29.88a10.178,10.178,0,0,0-1.416-3l-2.28.744a11.011,11.011,0,0,1,1.128,2.256h-3.48v2.04h5.856a21.975,21.975,0,0,1-6.264,3.048l1.344,1.776A26.819,26.819,0,0,0,29.28-12.6a8.578,8.578,0,0,1,.744.888A19.632,19.632,0,0,1,23.736-8.4l1.272,1.7a24.557,24.557,0,0,0,5.976-3.5c.192.432.384.84.528,1.248a19.323,19.323,0,0,1-7.824,4.584l1.368,1.8A23.781,23.781,0,0,0,32.016-6.744Zm-9,4.032v-7.8H17.76v2.3h2.784V-2.28A33.389,33.389,0,0,1,17.4-.264l1.032,2.328a40.495,40.495,0,0,0,3.6-2.76,7.435,7.435,0,0,0,5.736,2.352c2.9.072,8.952.048,11.928-.024L40.1-.552c-3.048.144-9.312.144-11.976.072A6.351,6.351,0,0,1,23.016-2.712ZM48.96-8.04a28.369,28.369,0,0,0,1.272,9.312L53.04.456a22.6,22.6,0,0,1-1.32-8.544,40.586,40.586,0,0,1,1.416-10.824l-2.856-.5A50.966,50.966,0,0,0,48.96-8.064Zm14.352-8.136c-2.688,0-5.688.072-7.992.288l.168,2.544c2.088-.216,4.728-.36,7.08-.36,1.464,0,2.928.048,4.128.144l.048-2.568c-.984-.024-2.232-.048-3.408-.048Zm3.96,13.128a29.351,29.351,0,0,1-4.728.432c-3.168,0-4.8-.384-4.8-1.608a6.318,6.318,0,0,1,.792-2.448L56.088-7.1A9.4,9.4,0,0,0,55.056-3.36C55.056-.888,58.3-.1,62.592-.1c1.416,0,3.144-.1,4.68-.24ZM76.08-18.24a16.1,16.1,0,0,1,3.792,2.712L81.624-17.4a17.644,17.644,0,0,0-4.08-2.64Zm-.84,6.288A15.182,15.182,0,0,1,79.3-8.976l1.776-1.872a18.056,18.056,0,0,0-4.392-2.88ZM89.76-10.08V-14.4h2.856v4.32Zm.36,2.424h7.392V-10.08H95.256V-16.8h-5.5v-3.456H87.1V-16.8H82.32v2.4H87.1v4.32H81.12v2.424h5.808c-.48,3.024-2.256,5.544-6.984,7.632L81.816,2.04c3.768-1.872,5.88-4.08,6.96-6.5a12.333,12.333,0,0,0,7.176,6.48L97.7-.336A10.3,10.3,0,0,1,90.12-7.656ZM75.576.384,77.856,1.9A58.073,58.073,0,0,0,81.312-5.52L79.368-6.96A47.446,47.446,0,0,1,75.576.384Zm29.4-18.12v5.3h2.616V-15.36h15.144v2.928h2.712v-5.3H116.5v-2.52H113.76v2.52Zm5.5,12.6a33.435,33.435,0,0,0,.672-3.648l-2.616-.12c-.336,3.288-1.224,7.368-4.584,9.456l2.232,1.464A10.057,10.057,0,0,0,109.56-2.4c1.9,2.928,4.248,3.888,7.824,3.96,1.3.024,7.008.024,8.256,0l.528-2.52c-1.32.048-7.248.072-8.376.048a11.727,11.727,0,0,1-1.3-.072V-5.52H123V-7.9h-6.5v-3.24h5.28v-2.376H108.552v2.376h5.208V-1.7A7.5,7.5,0,0,1,110.472-5.136ZM139.248-1.2a3.191,3.191,0,0,0-3.192-3.192A3.206,3.206,0,0,0,132.864-1.2a3.206,3.206,0,0,0,3.192,3.192,3.186,3.186,0,0,0,3.192-3.168Zm-5.184,0a2,2,0,0,1,1.992-1.992A2.023,2.023,0,0,1,138.072-1.2,2.028,2.028,0,0,1,136.056.816a2,2,0,0,1-1.992-1.992Z" transform="translate(154.248 21.024)" fill="#fff"/>
</svg>
