<svg xmlns="http://www.w3.org/2000/svg" width="905.401" height="146.914" viewBox="0 0 905.401 146.914">
  <g id="grandprix-roadmap_pc" transform="translate(-180.514 -996.086)">
    <g id="line">
      <path id="パス_41" data-name="パス 41" d="M1487.619,1815.871h324" transform="translate(-790.619 -757.371)" fill="none" stroke="#fff" stroke-width="2"/>
    </g>
    <g id="c_logo" transform="translate(1025.408 1023.408)">
      <g id="グループ_4" data-name="グループ 4" transform="translate(9.677 14.743)">
        <path id="パス_42" data-name="パス 42" d="M154.433,114.558v5.41h-1.186v-5.41h-1.468V113.4h4.113v1.161Z" transform="translate(-141.315 -113.397)"/>
        <path id="パス_43" data-name="パス 43" d="M239.991,119.968H238.8V117.34h-3.328v2.628h-1.195V113.4h1.195v2.782H238.8V113.4h1.186Z" transform="translate(-212.215 -113.397)"/>
        <path id="パス_44" data-name="パス 44" d="M334.51,116.17h2.535v1.169H334.51V118.8h2.927v1.169h-4.113V113.4h4.113v1.161H334.51Z" transform="translate(-297.328 -113.397)"/>
        <path id="パス_45" data-name="パス 45" d="M77.373,234.744h4.1v1.169H78.559v1.621h2.535V238.7H78.559v2.611H77.373Z" transform="translate(-77.373 -217.678)"/>
        <path id="パス_46" data-name="パス 46" d="M160.263,232.828v5.825h1.28v1.016h-3.712v-1.016H159.1v-4.075l-1.272.623v-1.126Z" transform="translate(-146.516 -216.032)"/>
        <path id="パス_47" data-name="パス 47" d="M243.468,241.315h-1.4l-1.7-2.56h-.734v2.56h-1.195v-6.571h2.569a1.99,1.99,0,0,1,1.869,2.005,2.08,2.08,0,0,1-1.2,1.86Zm-2.458-3.729a.841.841,0,0,0,0-1.673h-1.374v1.673Z" transform="translate(-215.79 -217.678)"/>
        <path id="パス_48" data-name="パス 48" d="M327.173,239.107a2.208,2.208,0,0,0,1.536.691,1,1,0,0,0,.666-.2.6.6,0,0,0,.068-.913,1.464,1.464,0,0,0-.461-.375,17.789,17.789,0,0,1-1.6-.845,1.767,1.767,0,0,1-.785-1.459,1.575,1.575,0,0,1,.64-1.28,2.1,2.1,0,0,1,1.306-.41,2.679,2.679,0,0,1,1.886.785l-.853.854a1.471,1.471,0,0,0-1.033-.435,1.022,1.022,0,0,0-.58.162.455.455,0,0,0,.009.7,2.011,2.011,0,0,0,.52.35,6.863,6.863,0,0,1,1.664.947,1.972,1.972,0,0,1,.631,1.459,1.779,1.779,0,0,1-.657,1.408,2.281,2.281,0,0,1-1.425.461,3.413,3.413,0,0,1-2.389-1.05Z" transform="translate(-291.309 -217.313)"/>
        <path id="パス_49" data-name="パス 49" d="M412.205,235.9v5.41h-1.186V235.9h-1.468v-1.161h4.113V235.9Z" transform="translate(-362.835 -217.678)"/>
        <path id="パス_50" data-name="パス 50" d="M113.355,357.251v5.41h-1.186v-5.41H110.7V356.09h4.113v1.161Z" transform="translate(-106.014 -321.959)"/>
        <path id="パス_51" data-name="パス 51" d="M192.089,362.661l-.461-1.1h-3.1l-.444,1.1h-1.3l2.7-6.571h1.169l2.714,6.571Zm-2.022-4.864L189,360.391h2.15Z" transform="translate(-171.402 -321.959)"/>
        <path id="パス_52" data-name="パス 52" d="M291.367,362.661h-1.4l-2.475-3.029v3.029h-1.186V356.09h1.186v2.859l1.98-2.859H290.8l-2.193,3.183Z" transform="translate(-256.922 -321.959)"/>
        <path id="パス_53" data-name="パス 53" d="M375.589,358.863h2.535v1.169h-2.535v1.459h2.927v1.169H374.4V356.09h4.113v1.161h-2.927Z" transform="translate(-332.63 -321.959)"/>
      </g>
    </g>
    <path id="パス_1054" data-name="パス 1054" d="M-35.073-13.86V0h2.232V-5.814h5.58v-2.07h-5.58V-11.79h6.426v-2.07Zm17.442,0V0h-2.214V-13.86Zm9.414,3.384L-.783,0H1.629V-13.86H-.585V-3.546L-7.929-13.86h-2.5V0h2.214ZM18.873,0h2.412L15.561-13.86h-2.3L7.569,0h2.448l1.152-2.826H17.7ZM12.015-4.9l2.394-5.886L16.839-4.9Zm15.21-8.964V0h8.568V-2.07H29.439V-13.86Z" transform="translate(863 1131)" fill="#fff"/>
    <circle id="楕円形_11" data-name="楕円形 11" cx="7.5" cy="7.5" r="7.5" transform="translate(855 1051)" fill="#fff"/>
    <path id="パス_1056" data-name="パス 1056" d="M-11.574-1.926V0h7.758V-1.926H-6.624V-13.914l-4.95,2.538v2.07l2.79-1.35v8.73ZM7.92,0h2.214V-2.286h1.89V-4.14h-1.89v-9.774L.864-2.286H7.92ZM4.752-4.14,7.938-8.19,7.92-4.14Z" transform="translate(697 1010)" fill="#fff"/>
    <path id="パス_1055" data-name="パス 1055" d="M1.161,0H3.375V-2.286h1.89V-4.14H3.375v-9.774L-5.895-2.286H1.161ZM-2.007-4.14,1.179-8.19,1.161-4.14Z" transform="translate(863 1010)" fill="#fff"/>
    <path id="パス_1053" data-name="パス 1053" d="M-23.4.126c2.682,0,4.644-1.62,4.644-4.14a3.935,3.935,0,0,0-2.7-3.78c-.918-.4-1.71-.648-2.52-.954-.666-.234-1.458-.63-1.458-1.476a1.69,1.69,0,0,1,1.872-1.584,2.373,2.373,0,0,1,1.962,1.17l1.908-1.17a4.583,4.583,0,0,0-3.852-2.178,3.8,3.8,0,0,0-4.1,3.78A3.662,3.662,0,0,0-25.02-6.768c.864.324,1.368.468,2.124.756,1.476.54,1.944,1.206,1.944,2.088,0,1.08-.99,1.872-2.358,1.872a2.943,2.943,0,0,1-2.682-1.8l-1.98,1.026A5.079,5.079,0,0,0-23.4.126ZM-12.186-13.86V0h8.658V-2.07H-9.972V-5.814h5.6v-2.07h-5.6V-11.79h6.444v-2.07Zm27.9,3.564V0h2.214V-13.86H15.534L10.62-6.912,5.688-13.86H3.312V0H5.526V-10.314L10.62-3.132ZM27.342-13.86V0H25.128V-13.86Zm-62.415,25V25h2.232V19.186h5.58v-2.07h-5.58V13.21h6.426V11.14Zm17.442,0V25h-2.214V11.14Zm9.414,3.384L-.783,25H1.629V11.14H-.585V21.454L-7.929,11.14h-2.5V25h2.214ZM18.873,25h2.412L15.561,11.14h-2.3L7.569,25h2.448l1.152-2.826H17.7Zm-6.858-4.9,2.394-5.886,2.43,5.886Zm15.21-8.964V25h8.568V22.93H29.439V11.14Z" transform="translate(697 1118)" fill="#fff"/>
    <path id="パス_135" data-name="パス 135" d="M7.5,0A7.5,7.5,0,1,1,0,7.5,7.5,7.5,0,0,1,7.5,0Z" transform="translate(689 1051)" fill="#fff"/>
    <path id="パス_136" data-name="パス 136" d="M1487.619,1815.871h490.5" transform="translate(-1288.119 -757.371)" fill="none" stroke="#fff" stroke-width="2"/>
    <path id="パス_1052" data-name="パス 1052" d="M-17.172.126a4.461,4.461,0,0,0,4.572-4.5A4.337,4.337,0,0,0-16.182-8.8l2.9-2.916V-13.86h-7.9v2.034h5l-4.086,4.1,1.512,1.512A2.606,2.606,0,0,1-17.1-6.822a2.276,2.276,0,0,1,2.3,2.43,2.312,2.312,0,0,1-2.376,2.43,2.336,2.336,0,0,1-2.34-2.214h-2.214A4.523,4.523,0,0,0-17.172.126ZM4.086,0,.27-5.8A4.058,4.058,0,0,0,2.97-9.7,4.058,4.058,0,0,0-1.08-13.86H-6.39V0h2.214V-5.562h1.962L1.458,0ZM-4.176-11.79H-1.17A2,2,0,0,1,.774-9.7,2,2,0,0,1-1.17-7.632H-4.176ZM10.386,0h4.23a6.96,6.96,0,0,0,6.93-6.948,6.952,6.952,0,0,0-6.93-6.912h-4.23ZM12.6-2.07v-9.72h1.962A4.753,4.753,0,0,1,19.35-6.948,4.772,4.772,0,0,1,14.562-2.07Z" transform="translate(532 1131)" fill="#fff"/>
    <circle id="楕円形_9" data-name="楕円形 9" cx="7.5" cy="7.5" r="7.5" transform="translate(524 1051)" fill="#fff"/>
    <path id="パス_1051" data-name="パス 1051" d="M-23.049,0h9.126V-2.034h-4.914l3.654-4.7a4.49,4.49,0,0,0,.936-2.736,4.4,4.4,0,0,0-4.518-4.518,4.337,4.337,0,0,0-4.482,4.3h2.106A2.254,2.254,0,0,1-18.765-11.9a2.286,2.286,0,0,1,2.394,2.43,2.789,2.789,0,0,1-.684,1.692Zm17.64-10.476L2.025,0H4.437V-13.86H2.223V-3.546L-5.121-13.86h-2.5V0h2.214ZM11.637,0h4.23A6.96,6.96,0,0,0,22.8-6.948a6.952,6.952,0,0,0-6.93-6.912h-4.23Zm2.214-2.07v-9.72h1.962A4.753,4.753,0,0,1,20.6-6.948,4.772,4.772,0,0,1,15.813-2.07Z" transform="translate(366 1131)" fill="#fff"/>
    <circle id="楕円形_8" data-name="楕円形 8" cx="7.5" cy="7.5" r="7.5" transform="translate(358 1051)" fill="#fff"/>
    <path id="パス_1050" data-name="パス 1050" d="M-18.486-1.926V0h7.758V-1.926h-2.808V-13.914l-4.95,2.538v2.07l2.79-1.35v8.73Zm18,2.052c2.682,0,4.644-1.62,4.644-4.14a3.935,3.935,0,0,0-2.7-3.78c-.918-.4-1.71-.648-2.52-.954-.666-.234-1.458-.63-1.458-1.476A1.69,1.69,0,0,1-.648-11.808a2.373,2.373,0,0,1,1.962,1.17l1.908-1.17A4.583,4.583,0,0,0-.63-13.986a3.8,3.8,0,0,0-4.1,3.78A3.662,3.662,0,0,0-2.106-6.768c.864.324,1.368.468,2.124.756,1.476.54,1.944,1.206,1.944,2.088,0,1.08-.99,1.872-2.358,1.872a2.943,2.943,0,0,1-2.682-1.8l-1.98,1.026A5.079,5.079,0,0,0-.486.126ZM13.068-11.79V0h2.2V-11.79h3.492v-2.07h-9.2v2.07Z" transform="translate(199 1130)" fill="#fff"/>
    <circle id="楕円形_7" data-name="楕円形 7" cx="7.5" cy="7.5" r="7.5" transform="translate(192 1051)" fill="#fff"/>
  </g>
</svg>
