<svg xmlns="http://www.w3.org/2000/svg" width="169.34" height="75.687" viewBox="0 0 169.34 75.687">
  <g id="グループ_366" data-name="グループ 366" transform="translate(-43.33 -115.776)">
    <g id="グループ_348" data-name="グループ 348" transform="translate(43.33 115.776)">
      <path id="パス_950" data-name="パス 950" d="M182.8,500.625a12.138,12.138,0,0,1,12.223-12.193,12.308,12.308,0,0,1,8.669,3.555l-3.087,3.118a7.864,7.864,0,1,0-5.582,13.408,7.519,7.519,0,0,0,6.3-3.18v-2.651H194.96v-4.054h11.465v8.014c-2.651,4.771-8,6.236-11.4,6.236A12.132,12.132,0,0,1,182.8,500.625Z" transform="translate(-182.799 -488.432)" fill="#fff"/>
      <path id="パス_951" data-name="パス 951" d="M366.014,513.363l-6.205-9.355H357.19v9.355h-4.366v-24.01H361.9a7.162,7.162,0,0,1,7.141,7.328,7.241,7.241,0,0,1-4.459,6.8l6.548,9.885Zm-8.824-13.408h4.521a3.291,3.291,0,0,0,0-6.548H357.19Z" transform="translate(-312.522 -489.135)" fill="#fff"/>
      <path id="パス_952" data-name="パス 952" d="M503.992,508.624H493.265l-1.933,4.74h-4.74l9.854-24.01h4.272l9.916,24.01h-4.678Zm-1.684-4.054-3.742-8.981-3.648,8.981Z" transform="translate(-414.582 -489.135)" fill="#fff"/>
      <path id="パス_953" data-name="パス 953" d="M655.5,513.363h-4.366v-24.01h4.646l11.943,16.558V489.353h4.366v24.01H667.6l-12.1-16.838Z" transform="translate(-540.124 -489.135)" fill="#fff"/>
      <path id="パス_954" data-name="パス 954" d="M814.981,489.353h7.484a12.005,12.005,0,1,1,0,24.01h-7.484Zm7.266,19.957a7.952,7.952,0,0,0,0-15.9h-2.9v15.9Z" transform="translate(-665.13 -489.135)" fill="#fff"/>
    </g>
    <g id="グループ_349" data-name="グループ 349" transform="translate(71.973 166.621)">
      <path id="パス_955" data-name="パス 955" d="M319.849,713.768a7.162,7.162,0,0,1-7.141,7.328H308v9.355h-4.366V706.44h9.074A7.162,7.162,0,0,1,319.849,713.768ZM308,710.494v6.548h4.522a3.291,3.291,0,0,0,0-6.548Z" transform="translate(-303.634 -705.608)" fill="#fff"/>
      <path id="パス_956" data-name="パス 956" d="M452.3,730.45,446.1,721.1h-2.619v9.355H439.11V706.44h9.074a7.162,7.162,0,0,1,7.141,7.328,7.241,7.241,0,0,1-4.459,6.8l6.548,9.885Zm-8.824-13.409H448a3.291,3.291,0,0,0,0-6.548h-4.521Z" transform="translate(-406.997 -705.608)" fill="#fff"/>
      <path id="パス_957" data-name="パス 957" d="M587.179,724.063V709.325l-4.646,2.276v-4.116l8.887-4.553v21.131H596.1v3.711H582.533v-3.711Z" transform="translate(-516.424 -702.932)" fill="#fff"/>
      <path id="パス_958" data-name="パス 958" d="M705.66,730.45h-4.927l6.923-12.036L700.7,706.44h5.02l4.4,7.951,4.428-7.951H719.5l-6.891,11.974L719.5,730.45h-4.9l-4.49-8.045Z" transform="translate(-606.582 -705.608)" fill="#fff"/>
    </g>
  </g>
</svg>
