<svg id="tftlogo" xmlns="http://www.w3.org/2000/svg" width="280.076" height="280.338" viewBox="0 0 280.076 280.338">
  <path id="パス_794" data-name="パス 794" d="M42.534,175.043l5.831-2.985a6.91,6.91,0,0,0,6.543,4.692c3.177,0,5.736-1.754,5.736-4.124s-1.659-3.65-4.266-4.836c-2.417-1.089-3.792-1.373-6.732-2.654a9.568,9.568,0,0,1-6.117-8.913c0-6.259,4.836-10.1,10.859-10.1,5.973,0,8.723,3.319,10.667,6.209l-5.691,3.508a6.109,6.109,0,0,0-5.071-3.177c-2.325,0-4.126,1.423-4.126,3.416,0,1.468.855,2.37,2.751,3.174,2.606,1.091,4.6,1.8,7.727,3.177a10.523,10.523,0,0,1,6.638,9.673c0,6.874-5.357,11.188-12.516,11.188C49.266,183.293,44.951,180.306,42.534,175.043Z" transform="translate(-42.534 97.045)" fill="#fff"/>
  <path id="パス_795" data-name="パス 795" d="M42.991,78.058H65.65v6.451H49.539v8.946H63.532v6.451H49.539v14.409H42.991Z" transform="translate(-41.909 3.981)" fill="#fff"/>
  <path id="パス_796" data-name="パス 796" d="M67.811,152.429v-6.164H92.558v6.164H83.5V182.77H76.866V152.429Z" transform="translate(-7.974 97.237)" fill="#fff"/>
  <path id="パス_797" data-name="パス 797" d="M119.051,175.564H102.743L99.8,182.77H92.6l14.98-36.505h6.5l15.075,36.505h-7.111Zm-2.559-6.164L110.8,155.748,105.257,169.4Z" transform="translate(25.917 97.237)" fill="#fff"/>
  <path id="パス_798" data-name="パス 798" d="M120.948,164.661a18.451,18.451,0,0,1,18.583-18.536,18.715,18.715,0,0,1,13.181,5.4l-4.694,4.742a11.955,11.955,0,1,0-8.487,20.384,11.434,11.434,0,0,0,9.578-4.834V167.79h-9.673v-6.162h16.31v12.184a18.592,18.592,0,0,1-34.8-9.152Z" transform="translate(64.677 97.045)" fill="#fff"/>
  <path id="パス_799" data-name="パス 799" d="M174.045,146.265v6.164H157.832v9.007h14.033V167.6H157.832v9.007h16.213v6.164H151.194V146.265Z" transform="translate(106.031 97.237)" fill="#fff"/>
  <path id="パス_800" data-name="パス 800" d="M82.893,49.805V79.659H76.345V49.805h-8.1V43.4H90.949v6.4Z" transform="translate(-7.385 -43.402)" fill="#fff"/>
  <path id="パス_801" data-name="パス 801" d="M125.179,79.659h-6.548v-14.5H100.257v14.5h-6.6V43.4h6.6V58.751h18.375V43.4h6.548Z" transform="translate(27.37 -43.402)" fill="#fff"/>
  <path id="パス_802" data-name="パス 802" d="M130.235,58.7h13.993v6.451H130.235v8.053h16.159v6.451H123.687V43.4h22.707v6.4H130.235Z" transform="translate(68.422 -43.402)" fill="#fff"/>
  <path id="パス_803" data-name="パス 803" d="M82.535,77.43v32.14H89.6v5.6H69.11v-5.6h7.019V87.084L69.11,90.521V84.3Z" transform="translate(-6.198 3.123)" fill="#fff"/>
  <path id="パス_804" data-name="パス 804" d="M122.616,114.315h-7.727l-9.374-14.125h-4.05v14.125h-6.6V78.058h14.18c5.7,0,10.319,5.369,10.319,11.064a11.484,11.484,0,0,1-6.642,10.267ZM109.047,93.739c2.263,0,4.147-2.213,4.147-4.616s-1.884-4.614-4.147-4.614h-7.582v9.23Z" transform="translate(29.018 3.981)" fill="#fff"/>
  <path id="パス_805" data-name="パス 805" d="M127.441,104.335a12.193,12.193,0,0,0,8.479,3.814,5.5,5.5,0,0,0,3.674-1.084,3.315,3.315,0,0,0,.376-5.038,8.063,8.063,0,0,0-2.542-2.071c-2.355-1.413-5.748-2.5-8.811-4.661a9.758,9.758,0,0,1-4.334-8.053,8.686,8.686,0,0,1,3.534-7.061,11.61,11.61,0,0,1,7.208-2.261,14.794,14.794,0,0,1,10.411,4.332l-4.711,4.708a8.127,8.127,0,0,0-5.7-2.4,5.636,5.636,0,0,0-3.2.895,2.508,2.508,0,0,0,.045,3.861,11.154,11.154,0,0,0,2.874,1.932c2.639,1.366,6.219,2.542,9.187,5.227a10.878,10.878,0,0,1,3.487,8.051,9.813,9.813,0,0,1-3.629,7.769,12.59,12.59,0,0,1-7.866,2.542,18.833,18.833,0,0,1-13.19-5.79Z" transform="translate(67.113 3.791)" fill="#fff"/>
  <path id="パス_806" data-name="パス 806" d="M165.906,84.461v29.853h-6.548V84.461h-8.1v-6.4h22.707v6.4Z" transform="translate(106.114 3.981)" fill="#fff"/>
  <path id="パス_807" data-name="パス 807" d="M68.6,118.628v29.853H62.054V118.628h-8.1v-6.4H76.658v6.4Z" transform="translate(-26.924 50.696)" fill="#fff"/>
  <path id="パス_808" data-name="パス 808" d="M107.75,148.482l-2.542-6.074h-17.1l-2.45,6.074H78.5l14.888-36.257h6.453l14.982,36.257ZM96.586,121.644,90.7,135.957h11.872Z" transform="translate(6.635 50.696)" fill="#fff"/>
  <path id="パス_809" data-name="パス 809" d="M137.841,148.482h-7.727l-13.661-16.715v16.715H109.9V112.225h6.548V128l10.93-15.775h7.35L122.624,129.79Z" transform="translate(49.579 50.696)" fill="#fff"/>
  <path id="パス_810" data-name="パス 810" d="M145.346,127.529h13.99v6.451h-13.99v8.051H161.5v6.451H138.8V112.225H161.5v6.4H145.346Z" transform="translate(89.082 50.696)" fill="#fff"/>
</svg>
