<svg xmlns="http://www.w3.org/2000/svg" width="53.806" height="53.856" viewBox="0 0 53.806 53.856">
  <g id="グループ_350" data-name="グループ 350" transform="translate(0 0)">
    <path id="パス_959" data-name="パス 959" d="M426.5,336.245l1.12-.574a1.328,1.328,0,0,0,1.257.9c.61,0,1.1-.337,1.1-.793s-.319-.7-.82-.929c-.465-.209-.729-.264-1.294-.51a1.838,1.838,0,0,1-1.175-1.712,1.934,1.934,0,0,1,2.086-1.94,2.29,2.29,0,0,1,2.049,1.193l-1.093.674a1.174,1.174,0,0,0-.974-.61.715.715,0,0,0-.792.656c0,.282.164.455.528.61.5.21.883.346,1.485.61a2.022,2.022,0,0,1,1.275,1.858,2.179,2.179,0,0,1-2.4,2.149A2.509,2.509,0,0,1,426.5,336.245Z" transform="translate(-426.504 -283.973)" fill="#fff"/>
    <path id="パス_960" data-name="パス 960" d="M427.381,200.1h4.353v1.239h-3.1v1.719h2.688V204.3h-2.688v2.768h-1.258Z" transform="translate(-427.173 -184.337)" fill="#fff"/>
    <path id="パス_961" data-name="パス 961" d="M475,332.142v-1.184h4.754v1.184h-1.739v5.829H476.74v-5.829Z" transform="translate(-463.505 -284.179)" fill="#fff"/>
    <path id="パス_962" data-name="パス 962" d="M527.639,336.586h-3.133l-.565,1.385h-1.384l2.878-7.013h1.248l2.9,7.013h-1.366Zm-.492-1.184-1.093-2.623-1.065,2.623Z" transform="translate(-499.789 -284.179)" fill="#fff"/>
    <path id="パス_963" data-name="パス 963" d="M576.946,334.25a3.545,3.545,0,0,1,3.57-3.561,3.6,3.6,0,0,1,2.532,1.038l-.9.911a2.3,2.3,0,1,0-1.63,3.916,2.2,2.2,0,0,0,1.84-.929v-.774H580.5v-1.184h3.133v2.341a3.572,3.572,0,0,1-6.685-1.758Z" transform="translate(-541.286 -283.973)" fill="#fff"/>
    <path id="パス_964" data-name="パス 964" d="M639.366,330.958v1.184h-3.115v1.73h2.7v1.184h-2.7v1.731h3.115v1.184h-4.39v-7.013Z" transform="translate(-585.56 -284.179)" fill="#fff"/>
    <path id="パス_965" data-name="パス 965" d="M478.642,134.838v5.735h-1.258v-5.735h-1.557v-1.23h4.362v1.23Z" transform="translate(-464.136 -133.608)" fill="#fff"/>
    <path id="パス_966" data-name="パス 966" d="M530.652,140.573h-1.258v-2.786h-3.529v2.786H524.6v-6.965h1.267v2.949h3.529v-2.949h1.258Z" transform="translate(-501.345 -133.608)" fill="#fff"/>
    <path id="パス_967" data-name="パス 967" d="M583.46,136.548h2.688v1.239H583.46v1.547h3.1v1.239H582.2v-6.965h4.362v1.23h-3.1Z" transform="translate(-545.296 -133.608)" fill="#fff"/>
    <path id="パス_968" data-name="パス 968" d="M480.07,198.893v6.174h1.358v1.077h-3.937v-1.077h1.349v-4.32l-1.349.66v-1.194Z" transform="translate(-465.405 -183.418)" fill="#fff"/>
    <path id="パス_969" data-name="パス 969" d="M532.24,207.063h-1.484l-1.8-2.714h-.778v2.714h-1.267V200.1h2.724a2.109,2.109,0,0,1,1.982,2.126,2.205,2.205,0,0,1-1.276,1.972Zm-2.606-3.953a.892.892,0,0,0,0-1.773h-1.457v1.773Z" transform="translate(-503.109 -184.337)" fill="#fff"/>
    <path id="パス_970" data-name="パス 970" d="M581.27,204.906a2.342,2.342,0,0,0,1.629.733,1.059,1.059,0,0,0,.706-.208.637.637,0,0,0,.072-.968,1.547,1.547,0,0,0-.489-.4,18.918,18.918,0,0,1-1.692-.9,1.873,1.873,0,0,1-.833-1.547,1.67,1.67,0,0,1,.679-1.357,2.231,2.231,0,0,1,1.385-.434,2.841,2.841,0,0,1,2,.832l-.905.9a1.56,1.56,0,0,0-1.1-.461,1.084,1.084,0,0,0-.615.172.482.482,0,0,0,.009.742,2.138,2.138,0,0,0,.552.371,7.291,7.291,0,0,1,1.765,1,2.09,2.09,0,0,1,.67,1.547,1.886,1.886,0,0,1-.7,1.493,2.42,2.42,0,0,1-1.511.489,3.62,3.62,0,0,1-2.534-1.113Z" transform="translate(-543.894 -184.134)" fill="#fff"/>
    <path id="パス_971" data-name="パス 971" d="M637.908,201.328v5.735H636.65v-5.735h-1.557V200.1h4.362v1.23Z" transform="translate(-585.65 -184.337)" fill="#fff"/>
    <path id="パス_972" data-name="パス 972" d="M451.224,266.881v5.735h-1.258v-5.735h-1.557v-1.23h4.362v1.23Z" transform="translate(-443.217 -234.352)" fill="#fff"/>
    <path id="パス_973" data-name="パス 973" d="M501.12,272.616l-.489-1.167h-3.285l-.471,1.167H495.5l2.86-6.965h1.24l2.878,6.965Zm-2.145-5.156-1.131,2.75h2.281Z" transform="translate(-479.145 -234.352)" fill="#fff"/>
    <path id="パス_974" data-name="パス 974" d="M561.127,272.616h-1.484l-2.625-3.211v3.211H555.76v-6.965h1.258v3.03l2.1-3.03h1.412l-2.326,3.374Z" transform="translate(-525.122 -234.352)" fill="#fff"/>
    <path id="パス_975" data-name="パス 975" d="M612.451,268.591h2.688v1.239h-2.688v1.547h3.1v1.239h-4.362v-6.965h4.362v1.23h-3.1Z" transform="translate(-567.415 -234.352)" fill="#fff"/>
  </g>
</svg>
