<svg xmlns="http://www.w3.org/2000/svg" width="384.781" height="44.69" viewBox="0 0 384.781 44.69">
  <defs>
    <style>
      .cls-1 {
        fill-rule: evenodd;
      }
    </style>
  </defs>
  <path id="guideline.svg" class="cls-1" d="M203.985,3620.11a20.476,20.476,0,0,0,17.711-9.72l0.156-13.31-17.437-.21-0.07,5.98,11.049,0.13-0.063,5.36a13.772,13.772,0,0,1-11.271,5.38,14.016,14.016,0,1,1,.329-28.03,14.466,14.466,0,0,1,10,4.28l4.556-4.47a20.749,20.749,0,0,0-14.486-6.15A20.382,20.382,0,1,0,203.985,3620.11Zm43.228-39.9-6.441-.07-0.27,22.98a17.517,17.517,0,0,0,35.031.41l0.27-22.98-6.388-.08-0.268,22.78a11.1,11.1,0,0,1-22.2-.26Zm55.153,0.65-0.47,40.04-6.441-.08,0.47-40.03Zm20.085,40.28,12.3,0.14a20.017,20.017,0,1,0,.47-40.03l-12.306-.15Zm6.51-5.91,0.33-28.07,5.707,0.06a14.041,14.041,0,0,1-.329,28.08Zm45.012-33.53-0.47,40.03,25.187,0.3,0.07-5.98-18.746-.22,0.127-10.81,16.285,0.19,0.07-5.98-16.285-.19,0.132-11.28,18.747,0.22,0.07-5.98Zm44.135,0.52-0.47,40.03,24.925,0.29,0.071-5.97-18.485-.22,0.4-34.06Zm48.884,0.57-0.47,40.04-6.44-.08,0.469-40.03Zm26.881,10.09,21.271,30.52,7.017,0.08,0.469-40.04-6.44-.07-0.35,29.79-21.015-30.04-7.278-.09-0.47,40.04,6.441,0.07Zm49.424-9.19-0.469,40.03,25.186,0.3,0.07-5.98-18.746-.22,0.127-10.82,16.285,0.19,0.07-5.98-16.285-.19,0.133-11.28,18.746,0.22,0.07-5.98Z" transform="translate(-183.688 -3579.34)"/>
</svg>
