<svg xmlns="http://www.w3.org/2000/svg" width="259.406" height="15.69" viewBox="0 0 259.406 15.69">
  <defs>
    <style>
      .cls-1 {
        fill-rule: evenodd;
      }
    </style>
  </defs>
  <path id="info_official_twitter.svg" class="cls-1" d="M518.246,6207.26a7.84,7.84,0,1,0,7.841,7.84A7.828,7.828,0,0,0,518.246,6207.26Zm0,13.22a5.39,5.39,0,1,1,5.4-5.38A5.37,5.37,0,0,1,518.246,6220.48Zm15.038-13.08v15.4h2.48v-6.46h6.2v-2.3h-6.2v-4.34h7.142v-2.3h-9.622Zm16.92,0v15.4h2.48v-6.46h6.2v-2.3h-6.2v-4.34h7.142v-2.3H550.2Zm19.38,0v15.4h-2.46v-15.4h2.46Zm15.141,13.08a5.39,5.39,0,0,1,0-10.78,5.5,5.5,0,0,1,3.841,1.6l1.72-1.74a7.9,7.9,0,0,0-5.561-2.3,7.84,7.84,0,1,0,0,15.68,7.9,7.9,0,0,0,5.561-2.3l-1.72-1.74A5.482,5.482,0,0,1,584.725,6220.48Zm15.019-13.08v15.4h-2.461v-15.4h2.461Zm19.162,15.4h2.68l-6.361-15.4h-2.561l-6.321,15.4h2.721l1.28-3.14h7.262Zm-7.622-5.44,2.661-6.54,2.7,6.54h-5.361Zm16.9-9.96v15.4h9.522v-2.3h-7.061v-13.1h-2.461Zm29.72,2.3v13.1h2.441v-13.1h3.881v-2.3H654v2.3h3.9Zm22.621,2.1,3.221,11h2.821l4.481-15.4h-2.7l-3.2,11.76-3.26-11.76h-2.8l-3.2,11.76-3.24-11.76h-2.721l4.541,15.4h2.821Zm19.579-4.4v15.4h-2.461v-15.4H700.1Zm11,2.3v13.1h2.44v-13.1h3.881v-2.3H707.2v2.3h3.9Zm16.42,0v13.1h2.44v-13.1h3.881v-2.3H723.622v2.3h3.9Zm13.419-2.3v15.4h9.622v-2.3H743.4v-4.16h6.222v-2.3H743.4v-4.34h7.162v-2.3h-9.622Zm28.862,15.4-4.241-6.44a4.629,4.629,0,0,0-1.5-8.96h-5.9v15.4h2.46v-6.18H762.8l4.081,6.18h2.92Zm-9.182-13.1h3.341a2.315,2.315,0,0,1,0,4.62h-3.341v-4.62Z" transform="translate(-510.406 -6207.25)"/>
</svg>
