<svg xmlns="http://www.w3.org/2000/svg" width="255.5" height="20.38" viewBox="0 0 255.5 20.38">
  <defs>
    <style>
      .cls-1 {
        fill-rule: evenodd;
      }
    </style>
  </defs>
  <path id="infomation.svg" class="cls-1" d="M515.2,6060.98V6081H512v-20.02h3.2Zm13.6,4.89L539.537,6081h3.484v-20.02h-3.2v14.9l-10.608-14.9H525.6V6081h3.2v-15.13Zm24.621-4.89V6081h3.224v-8.4h8.061v-2.99h-8.061v-5.64h9.283v-2.99H553.42Zm31.148-.18a10.19,10.19,0,1,0,10.193,10.19A10.176,10.176,0,0,0,584.568,6060.8Zm0,17.18a7.005,7.005,0,1,1,7.021-6.99A6.973,6.973,0,0,1,584.568,6077.98Zm34.684,3.02-5.512-8.37a6.019,6.019,0,0,0-1.95-11.65h-7.67V6081h3.2v-8.03h2.834l5.3,8.03h3.8Zm-11.934-17.03h4.342a3.012,3.012,0,0,1,0,6.01h-4.342v-6.01Zm38.948,2.16V6081h3.2v-20.02h-3.459l-7.1,10.04-7.124-10.04h-3.432V6081h3.2v-14.9l7.358,10.38ZM674.372,6081h3.484l-8.268-20.02H666.26L658.044,6081h3.536l1.664-4.08h9.438Zm-9.906-7.07,3.458-8.5,3.51,8.5h-6.968Zm25.869-9.96V6081h3.173v-17.03h5.044v-2.99H685.265v2.99h5.07Zm20.644-2.99V6081h-3.2v-20.02h3.2Zm19.552-.18a10.19,10.19,0,1,0,10.193,10.19A10.176,10.176,0,0,0,730.531,6060.8Zm0,17.18a7.005,7.005,0,1,1,7.021-6.99A6.973,6.973,0,0,1,730.531,6077.98Zm22.75-12.11L764.019,6081H767.5v-20.02h-3.2v14.9l-10.608-14.9h-3.614V6081h3.2v-15.13Z" transform="translate(-512 -6060.81)"/>
</svg>
