<svg xmlns="http://www.w3.org/2000/svg" width="118.968" height="12.53" viewBox="0 0 118.968 12.53">
  <defs>
    <style>
      .cls-1 {
        fill-rule: evenodd;
      }
    </style>
  </defs>
  <path id="info_facebook.svg" class="cls-1" d="M580.435,6379.48v12.32h1.985v-5.17h4.961v-1.84H582.42v-3.47h5.713v-1.84h-7.7ZM602.9,6391.8h2.145l-5.089-12.32h-2.049l-5.057,12.32h2.177l1.024-2.51h5.809Zm-6.1-4.35,2.128-5.24,2.161,5.24H596.8Zm19.232,2.49a4.31,4.31,0,0,1,0-8.62,4.375,4.375,0,0,1,3.073,1.28l1.376-1.39a6.3,6.3,0,0,0-4.449-1.84,6.27,6.27,0,1,0,0,12.54,6.3,6.3,0,0,0,4.449-1.84l-1.376-1.39A4.4,4.4,0,0,1,616.036,6389.94Zm10.047-10.46v12.32h7.7v-1.84h-5.73v-3.33h4.977v-1.84h-4.977v-3.47h5.73v-1.84h-7.7Zm13.776,12.32,4.929,0.02a3.8,3.8,0,0,0,3.745-3.78,3.926,3.926,0,0,0-1.841-3.19,3.6,3.6,0,0,0,.736-2.03,3.3,3.3,0,0,0-3.36-3.34h-4.209v12.32Zm1.968-7.47v-3.01h2.161a1.505,1.505,0,0,1,0,3.01h-2.161Zm0,5.63v-3.83h2.833a1.915,1.915,0,0,1,0,3.83h-2.833Zm18.417-10.59a6.27,6.27,0,1,0,6.273,6.27A6.257,6.257,0,0,0,660.244,6379.37Zm0,10.57a4.31,4.31,0,1,1,4.321-4.3A4.289,4.289,0,0,1,660.244,6389.94Zm17.664-10.57a6.27,6.27,0,1,0,6.273,6.27A6.257,6.257,0,0,0,677.908,6379.37Zm0,10.57a4.31,4.31,0,1,1,4.321-4.3A4.289,4.289,0,0,1,677.908,6389.94Zm19.056,1.88h2.448l-5.745-6.37,4.689-5.97h-2.288l-4.161,5.29v-5.29h-1.969v12.34h1.969v-5.61Z" transform="translate(-580.438 -6379.38)"/>
</svg>
