<svg xmlns="http://www.w3.org/2000/svg" width="92.625" height="12.31" viewBox="0 0 92.625 12.31">
  <defs>
    <style>
      .cls-1 {
        fill-rule: evenodd;
      }
    </style>
  </defs>
  <path id="info_twitter.svg" class="cls-1" d="M587.7,6441.98v10.49h1.953v-10.49h3.105v-1.84H584.58v1.84H587.7Zm18.1,1.68,2.577,8.81h2.257l3.585-12.33h-2.161l-2.561,9.41-2.609-9.41h-2.241l-2.561,9.41-2.593-9.41h-2.177l3.634,12.33h2.257Zm15.662-3.52v12.33h-1.969v-12.33h1.969Zm8.8,1.84v10.49h1.953v-10.49h3.1v-1.84H627.14v1.84h3.121Zm13.136,0v10.49h1.952v-10.49h3.106v-1.84h-8.18v1.84H643.4Zm10.734-1.84v12.33h7.7v-1.84H656.1v-3.33h4.978v-1.84H656.1v-3.48h5.731v-1.84h-7.7Zm23.092,12.33-3.393-5.16a3.7,3.7,0,0,0-1.2-7.17h-4.722v12.33h1.969v-4.95h1.745l3.265,4.95h2.337Zm-7.347-10.49h2.673a1.854,1.854,0,0,1,0,3.7h-2.673v-3.7Z" transform="translate(-584.594 -6440.16)"/>
</svg>
