<svg xmlns="http://www.w3.org/2000/svg" width="50.937" height="9.4" viewBox="0 0 50.937 9.4">
  <defs>
    <style>
      .cls-1 {
        fill-rule: evenodd;
      }
    </style>
  </defs>
  <path id="info_share.svg" class="cls-1" d="M617.229,6335.08a2.8,2.8,0,0,0,3.1-2.76,2.627,2.627,0,0,0-1.8-2.52c-0.612-.26-1.14-0.43-1.68-0.63a1.175,1.175,0,0,1-.972-0.99,1.125,1.125,0,0,1,1.248-1.05,1.582,1.582,0,0,1,1.308.78l1.272-.78a3.048,3.048,0,0,0-2.568-1.46,2.536,2.536,0,0,0-2.737,2.52,2.449,2.449,0,0,0,1.753,2.3c0.576,0.21.912,0.31,1.416,0.5,0.984,0.36,1.3.81,1.3,1.39a1.393,1.393,0,0,1-1.572,1.25,1.959,1.959,0,0,1-1.789-1.2l-1.32.69A3.38,3.38,0,0,0,617.229,6335.08Zm13.551-3.96V6335h1.464v-9.24H630.78v3.98h-5.029v-3.98h-1.476V6335h1.476v-3.88h5.029ZM643.4,6335h1.608l-3.817-9.24h-1.536l-3.793,9.24H637.5l0.768-1.88h4.357Zm-4.573-3.26,1.6-3.93,1.621,3.93H638.83Zm16.788,3.26-2.545-3.86a2.78,2.78,0,0,0-.9-5.38h-3.541V6335h1.476v-3.71h1.309l2.448,3.71h1.753Zm-5.51-7.86h2.005a1.388,1.388,0,0,1,0,2.77h-2.005v-2.77Zm9.244-1.38V6335h5.773v-1.38h-4.3v-2.5h3.733v-1.38h-3.733v-2.6h4.3v-1.38h-5.773Z" transform="translate(-614.188 -6325.69)"/>
</svg>
