<svg xmlns="http://www.w3.org/2000/svg" width="32.28" height="8.906" viewBox="0 0 32.28 8.906">
  <defs>
    <style>
      .cls-1 {
        fill: #fff;
        fill-rule: evenodd;
      }
    </style>
  </defs>
  <path id="load_skip.svg" class="cls-1" d="M1231.3,70.8a2.66,2.66,0,0,0,2.94-2.622,2.486,2.486,0,0,0-1.71-2.394c-0.58-.251-1.08-0.41-1.59-0.6a1.11,1.11,0,0,1-.93-0.935,1.076,1.076,0,0,1,1.19-1,1.494,1.494,0,0,1,1.24.741l1.21-.741a2.911,2.911,0,0,0-2.44-1.379,2.4,2.4,0,0,0-2.6,2.394,2.323,2.323,0,0,0,1.66,2.177c0.55,0.205.87,0.3,1.35,0.479a1.428,1.428,0,0,1,1.23,1.322,1.322,1.322,0,0,1-1.49,1.185,1.864,1.864,0,0,1-1.7-1.14l-1.25.65A3.2,3.2,0,0,0,1231.3,70.8Zm11.99-.068h1.75l-4.09-4.537,3.34-4.252h-1.63l-2.97,3.773V61.94h-1.4v8.788h1.4V66.739Zm6.91-8.788v8.777h-1.4V61.94h1.4Zm7.92,0h-3.36v8.777h1.4V67.195h1.96A2.628,2.628,0,0,0,1258.12,61.94Zm-0.05,1.311a1.32,1.32,0,0,1,0,2.633h-1.91V63.251h1.91Z" transform="translate(-1228.41 -61.875)"/>
</svg>
