<svg xmlns="http://www.w3.org/2000/svg" width="180" height="13" viewBox="0 0 180 13" fill="#ff0098">
  <path id="パス_842" data-name="パス 842" d="M4.992-5.664H.48v1.84H4.992ZM20.176.112c2.384,0,4.128-1.44,4.128-3.68a3.5,3.5,0,0,0-2.4-3.36c-.816-.352-1.52-.576-2.24-.848-.592-.208-1.3-.56-1.3-1.312A1.5,1.5,0,0,1,20.032-10.5a2.109,2.109,0,0,1,1.744,1.04l1.7-1.04a4.074,4.074,0,0,0-3.424-1.936A3.375,3.375,0,0,0,16.4-9.072a3.256,3.256,0,0,0,2.336,3.056c.768.288,1.216.416,1.888.672,1.312.48,1.728,1.072,1.728,1.856,0,.96-.88,1.664-2.1,1.664a2.616,2.616,0,0,1-2.384-1.6l-1.76.912A4.515,4.515,0,0,0,20.176.112ZM29.344-12.32V0h7.7V-1.84H31.312V-5.168h4.976v-1.84H31.312V-10.48H37.04v-1.84Zm24,3.168V0h1.968V-12.32H53.184L48.816-6.144,44.432-12.32H42.32V0h1.968V-9.168l4.528,6.384ZM62.88-12.32V0H60.912V-12.32Zm12.8,0V0h1.984V-5.168h4.96v-1.84h-4.96V-10.48h5.712v-1.84Zm14.7,0V0H88.416V-12.32Zm7.568,3.008L104.56,0H106.7V-12.32h-1.968v9.168L98.208-12.32H95.984V0h1.968ZM121.232,0h2.144l-5.088-12.32H116.24L111.184,0h2.176l1.024-2.512h5.808Zm-6.1-4.352,2.128-5.232,2.16,5.232Zm12.72-7.968V0h7.616V-1.84h-5.648V-12.32Zm14.544,0V0h-1.968V-12.32ZM151.5.112c2.384,0,4.128-1.44,4.128-3.68a3.5,3.5,0,0,0-2.4-3.36c-.816-.352-1.52-.576-2.24-.848-.592-.208-1.3-.56-1.3-1.312A1.5,1.5,0,0,1,151.36-10.5a2.109,2.109,0,0,1,1.744,1.04l1.7-1.04a4.074,4.074,0,0,0-3.424-1.936,3.375,3.375,0,0,0-3.648,3.36,3.256,3.256,0,0,0,2.336,3.056c.768.288,1.216.416,1.888.672,1.312.48,1.728,1.072,1.728,1.856,0,.96-.88,1.664-2.1,1.664a2.616,2.616,0,0,1-2.384-1.6l-1.76.912A4.515,4.515,0,0,0,151.5.112ZM162.752-10.48V0H164.7V-10.48h3.1v-1.84h-8.176v1.84ZM175.872.112c2.384,0,4.128-1.44,4.128-3.68a3.5,3.5,0,0,0-2.4-3.36c-.816-.352-1.52-.576-2.24-.848-.592-.208-1.3-.56-1.3-1.312a1.5,1.5,0,0,1,1.664-1.408,2.109,2.109,0,0,1,1.744,1.04l1.7-1.04a4.074,4.074,0,0,0-3.424-1.936,3.375,3.375,0,0,0-3.648,3.36,3.256,3.256,0,0,0,2.336,3.056c.768.288,1.216.416,1.888.672,1.312.48,1.728,1.072,1.728,1.856,0,.96-.88,1.664-2.1,1.664a2.616,2.616,0,0,1-2.384-1.6l-1.76.912A4.515,4.515,0,0,0,175.872.112Z" transform="translate(-0.48 12.432)"/>
</svg>
