<svg xmlns="http://www.w3.org/2000/svg" width="127" height="13" viewBox="0 0 127 13" fill="#ff0098">
  <defs>
    <style>
      .cls-1 {
        fill-rule: evenodd;
      }
    </style>
  </defs>
  <path id="nav_guidline.svg" class="cls-1" d="M508.605,150.525h-4.513v1.841h4.513v-1.841Zm17.312,5.778a6.251,6.251,0,0,0,5.377-3.057v-4.1h-5.329v1.841h3.377v1.648a4.2,4.2,0,0,1-3.425,1.7,4.313,4.313,0,0,1,0-8.626,4.4,4.4,0,0,1,3.073,1.281l1.376-1.393a6.321,6.321,0,0,0-4.449-1.84A6.274,6.274,0,0,0,525.917,156.3Zm12.249-12.435H536.2v7.074a5.353,5.353,0,1,0,10.706,0v-7.074h-1.952v7.009a3.393,3.393,0,0,1-6.785,0v-7.009Zm16.038,0v12.323h-1.969V143.868H554.2Zm5.465,12.323h3.761a6.162,6.162,0,0,0,0-12.323h-3.761v12.323Zm1.968-1.841v-8.642h1.745a4.321,4.321,0,0,1,0,8.642h-1.745Zm12.817-10.482v12.323h7.7V154.35h-5.729v-3.328H581.4v-1.841h-4.977v-3.473h5.729v-1.84h-7.7Zm12.671,0v12.323h7.617V154.35h-5.649V143.868h-1.968Zm14.121,0v12.323h-1.968V143.868h1.968Zm7.434,3.009,6.609,9.314h2.145V143.868h-1.968v9.17l-6.53-9.17h-2.224v12.323h1.968v-9.314Zm14.252-3.009v12.323h7.7V154.35H624.9v-3.328h4.977v-1.841H624.9v-3.473h5.729v-1.84h-7.7Z" transform="translate(-504.094 -143.75)"/>
</svg>
