<svg xmlns="http://www.w3.org/2000/svg" width="121" height="13" viewBox="0 0 121 13">
  <path id="パス_878" data-name="パス 878" d="M4.992-5.664H.48v1.84H4.992Zm11.68-6.656V0h1.984V-5.168h4.96v-1.84h-4.96V-10.48h5.712v-1.84Zm14.7,0V0H29.408V-12.32Zm7.568,3.008L45.552,0H47.7V-12.32H45.728v9.168L39.2-12.32H36.976V0h1.968ZM62.224,0h2.144L59.28-12.32H57.232L52.176,0h2.176l1.024-2.512h5.808Zm-6.1-4.352,2.128-5.232,2.16,5.232Zm12.72-7.968V0h7.616V-1.84H70.816V-12.32Zm14.544,0V0H81.424V-12.32ZM92.5.112c2.384,0,4.128-1.44,4.128-3.68a3.5,3.5,0,0,0-2.4-3.36c-.816-.352-1.52-.576-2.24-.848-.592-.208-1.3-.56-1.3-1.312A1.5,1.5,0,0,1,92.352-10.5,2.109,2.109,0,0,1,94.1-9.456l1.7-1.04a4.074,4.074,0,0,0-3.424-1.936,3.375,3.375,0,0,0-3.648,3.36,3.256,3.256,0,0,0,2.336,3.056c.768.288,1.216.416,1.888.672,1.312.48,1.728,1.072,1.728,1.856,0,.96-.88,1.664-2.1,1.664a2.616,2.616,0,0,1-2.384-1.6l-1.76.912A4.515,4.515,0,0,0,92.5.112ZM103.744-10.48V0H105.7V-10.48h3.1v-1.84h-8.176v1.84ZM116.864.112c2.384,0,4.128-1.44,4.128-3.68a3.5,3.5,0,0,0-2.4-3.36c-.816-.352-1.52-.576-2.24-.848-.592-.208-1.3-.56-1.3-1.312A1.5,1.5,0,0,1,116.72-10.5a2.109,2.109,0,0,1,1.744,1.04l1.7-1.04a4.074,4.074,0,0,0-3.424-1.936,3.375,3.375,0,0,0-3.648,3.36,3.256,3.256,0,0,0,2.336,3.056c.768.288,1.216.416,1.888.672,1.312.48,1.728,1.072,1.728,1.856,0,.96-.88,1.664-2.1,1.664a2.616,2.616,0,0,1-2.384-1.6l-1.76.912A4.515,4.515,0,0,0,116.864.112Z" transform="translate(-0.48 12.432)" fill="#ff0098"/>
</svg>
