<svg xmlns="http://www.w3.org/2000/svg" width="111" height="13" viewBox="0 0 111 13" fill="#ff0098">
  <defs>
    <style>
      .cls-1 {
        fill-rule: evenodd;
      }
    </style>
  </defs>
  <path id="nav_contact.svg" class="cls-1" d="M989.605,269.525h-4.513v1.841h4.513v-1.841ZM1007,273.334a4.313,4.313,0,0,1,0-8.626,4.4,4.4,0,0,1,3.07,1.281l1.38-1.393a6.334,6.334,0,0,0-4.45-1.84,6.274,6.274,0,1,0,0,12.547,6.335,6.335,0,0,0,4.45-1.841l-1.38-1.392A4.388,4.388,0,0,1,1007,273.334Zm14.2-10.578a6.274,6.274,0,1,0,6.28,6.273A6.261,6.261,0,0,0,1021.2,262.756Zm0,10.578a4.313,4.313,0,1,1,4.32-4.305A4.293,4.293,0,0,1,1021.2,273.334Zm13.1-7.457,6.61,9.314h2.15V262.868h-1.97v9.17l-6.53-9.17h-2.23v12.323h1.97v-9.314Zm16.38-1.169v10.483h1.95V264.708h3.11v-1.84h-8.18v1.84h3.12Zm17.45,10.483h2.15l-5.09-12.323h-2.05l-5.06,12.323h2.18l1.02-2.513h5.81Zm-6.1-4.353,2.13-5.233,2.16,5.233h-4.29Zm17.68,2.5a4.313,4.313,0,0,1,0-8.626,4.381,4.381,0,0,1,3.07,1.281l1.38-1.393a6.316,6.316,0,0,0-4.45-1.84,6.274,6.274,0,0,0,0,12.547,6.317,6.317,0,0,0,4.45-1.841l-1.38-1.392A4.37,4.37,0,0,1,1079.71,273.334Zm11.69-8.626v10.483h1.95V264.708h3.1v-1.84h-8.18v1.84h3.13Z" transform="translate(-985.094 -262.75)"/>
</svg>
