<svg xmlns="http://www.w3.org/2000/svg" width="252" height="22" viewBox="0 0 252 22">
  <path id="パス_1064" data-name="パス 1064" d="M8.736-9.912H.84v3.22h7.9ZM39.032.2A10.935,10.935,0,0,0,48.44-5.152V-12.32H39.116V-9.1h5.908v2.884a7.34,7.34,0,0,1-5.992,2.968A7.5,7.5,0,0,1,31.5-10.78a7.487,7.487,0,0,1,7.532-7.56,7.7,7.7,0,0,1,5.376,2.24l2.408-2.436a11.058,11.058,0,0,0-7.784-3.22A10.9,10.9,0,0,0,28.056-10.808,10.894,10.894,0,0,0,39.032.2ZM74.116,0,68.18-9.016a6.312,6.312,0,0,0,4.2-6.076,6.312,6.312,0,0,0-6.3-6.468H57.82V0h3.444V-8.652h3.052L70.028,0ZM61.264-18.34H65.94a3.116,3.116,0,0,1,3.024,3.248,3.109,3.109,0,0,1-3.024,3.22H61.264ZM98.14,0h3.752l-8.9-21.56H89.4L80.556,0h3.808l1.792-4.4H96.32ZM87.472-7.616,91.2-16.772l3.78,9.156Zm25.7-8.68L124.74,0h3.752V-21.56h-3.444V-5.516L113.624-21.56h-3.892V0h3.444ZM138.292,0h6.58a10.827,10.827,0,0,0,10.78-10.808,10.815,10.815,0,0,0-10.78-10.752h-6.58Zm3.444-3.22V-18.34h3.052a7.393,7.393,0,0,1,7.448,7.532,7.423,7.423,0,0,1-7.448,7.588Zm43.6-18.34h-8.26V0h3.444V-8.652h4.816a6.305,6.305,0,0,0,6.3-6.44A6.312,6.312,0,0,0,185.332-21.56Zm-.14,3.22a3.116,3.116,0,0,1,3.024,3.248,3.109,3.109,0,0,1-3.024,3.22h-4.676V-18.34ZM216.608,0l-5.936-9.016a6.312,6.312,0,0,0,4.2-6.076,6.312,6.312,0,0,0-6.3-6.468h-8.26V0h3.444V-8.652h3.052L212.52,0ZM203.756-18.34h4.676a3.116,3.116,0,0,1,3.024,3.248,3.109,3.109,0,0,1-3.024,3.22h-4.676Zm24.7-3.22V0h-3.444V-21.56ZM244.524-7.644,248.78,0h3.92l-6.188-10.808L252.7-21.56h-3.976l-4.2,7.56-4.2-7.56h-4.032l6.244,10.752L236.32,0h3.948Z" transform="translate(-0.84 21.756)" fill="#ff0098"/>
</svg>
