<svg xmlns="http://www.w3.org/2000/svg" width="212" height="17" viewBox="0 0 212 17" fill="#ff0098">
  <defs>
    <style>
      .cls-1 {
        fill-rule: evenodd;
      }
    </style>
  </defs>
  <path id="nav_tft.svg" class="cls-1" d="M784.662,579.034v13.757h2.563V579.034H791.3v-2.415H780.567v2.415h4.1Zm23.855,6.973v6.784h2.562V576.619h-2.562v6.973h-8.8v-6.973h-2.583v16.172h2.583v-6.784h8.8Zm9.717-9.388v16.172h10.1v-2.416h-7.518v-4.368h6.531v-2.415h-6.531v-4.558h7.518v-2.415h-10.1Zm26.481,0v16.172h2.6v-6.784h6.511v-2.415h-6.511v-4.558h7.5v-2.415h-10.1Zm18.621,0v16.172h-2.583V576.619h2.583Zm19.336,16.172-4.453-6.763a4.861,4.861,0,0,0-1.575-9.409h-6.2v16.172h2.584V586.3h2.289l4.284,6.49h3.067Zm-9.64-13.757h3.507a2.432,2.432,0,0,1,0,4.852h-3.507v-4.852Zm19.685,13.9c3.129,0,5.419-1.891,5.419-4.831a4.592,4.592,0,0,0-3.151-4.41c-1.071-.462-2-0.756-2.94-1.113a2.05,2.05,0,0,1-1.7-1.723,1.972,1.972,0,0,1,2.184-1.848,2.768,2.768,0,0,1,2.289,1.365l2.226-1.365a5.347,5.347,0,0,0-4.494-2.541c-2.667,0-4.788,1.7-4.788,4.41a4.273,4.273,0,0,0,3.066,4.012c1.008,0.378,1.6.546,2.478,0.882,1.722,0.63,2.268,1.407,2.268,2.436,0,1.26-1.155,2.184-2.751,2.184a3.434,3.434,0,0,1-3.129-2.1l-2.311,1.2A5.929,5.929,0,0,0,892.717,592.938Zm14.418-13.9v13.757H909.7V579.034h4.074v-2.415H903.04v2.415h4.1Zm25.641,0v13.757h2.562V579.034h4.075v-2.415H928.68v2.415h4.1Zm22.815,13.757h2.814l-6.678-16.172h-2.689L942.4,592.791h2.856l1.344-3.3h7.624Zm-8-5.713,2.793-6.868,2.836,6.868h-5.629Zm25.629,5.734h3.213l-7.54-8.359,6.154-7.834h-3l-5.461,6.952v-6.952H964v16.193h2.583v-7.351Zm8.846-16.193v16.172h10.1v-2.416h-7.519v-4.368h6.532v-2.415h-6.532v-4.558h7.519v-2.415h-10.1Z" transform="translate(-780.562 -576.469)"/>
</svg>
