<svg xmlns="http://www.w3.org/2000/svg" width="85" height="16" viewBox="0 0 85 16" fill="#ff0098">
  <path id="パス_844" data-name="パス 844" d="M4.992-5.664H.48v1.84H4.992ZM15.808-12.4a12.449,12.449,0,0,1,1.9,2.9l1.472-.816a12.53,12.53,0,0,0-2.112-2.864Zm4.016,1.36v1.52c0,1.456.288,1.776,1.744,1.808.368,0,1.056.016,1.488,0,1.28-.016,1.552-.224,1.68-1.68l-1.36-.224c-.032.624-.064.64-.432.656H21.728c-.368-.016-.448-.08-.448-.56v-.368h2.928v-3.184h-4.5v1.152h3.024v.88H19.824Zm5.44,0v1.52c0,1.44.288,1.776,1.792,1.808.416.016,1.136.016,1.6,0,1.312-.016,1.6-.224,1.744-1.68l-1.408-.224c-.032.608-.064.656-.464.672-.352.016-.976.016-1.3,0-.416-.016-.48-.1-.48-.592v-.352h3.12v-3.184H25.136v1.152h3.248v.88h-3.12ZM23.808-4.3v-1.28h2.208V-4.3Zm-.928,1.3H26.8l-1.136.624a26.192,26.192,0,0,1,3.008,1.92l1.52-.688A31.687,31.687,0,0,0,27.12-3.008h3.264V-4.3H27.712v-1.28h2.224v-1.28H27.712v-.784h-1.7v.784H23.808v-.784h-1.68v.784h-2.16v1.28h2.16V-4.3h-2.48v1.3h3.1a10,10,0,0,1-2.608,1.5l1.376.912a10.716,10.716,0,0,0,2.752-1.872ZM19.1-1.744V-6.992H15.7v1.536h1.776v4a18.76,18.76,0,0,1-1.984,1.3l.672,1.536C16.848.864,17.632.3,18.464-.416a4.843,4.843,0,0,0,3.744,1.5c1.968.064,6.128.048,8.16,0l.272-1.44c-2.1.08-6.384.1-8.208.048A4.18,4.18,0,0,1,19.1-1.744ZM41.632-8.816v-1.472H44.56a15.251,15.251,0,0,1-1.728,1.472Zm3.28,4.928h-5.2c.08-.288.176-.576.256-.848a33.455,33.455,0,0,0,6.944-.784l-.624-1.3a27.654,27.654,0,0,1-4.752.656,21.5,21.5,0,0,0,1.9-1.232H48.9V-8.816h-3.68A18.112,18.112,0,0,0,47.984-11.9l-1.392-.752a17.7,17.7,0,0,1-1.552,1.888V-11.7H41.632V-13.5H39.856V-11.7H35.92v1.408h3.936v1.472H34.048v1.424h6.56a28.142,28.142,0,0,1-6.736,2.624l1.152,1.36c1.024-.3,2.016-.656,2.96-1.04-.336,1.056-.72,2.128-1.008,2.848l1.9.1c.1-.256.208-.56.32-.9h5.472c-.256,1.328-.576,1.968-.9,2.08a.745.745,0,0,1-.4.08c-.352.016-1.2,0-1.712-.032l.288,1.6c.528.016,1.488.032,1.888.016a3.373,3.373,0,0,0,1.2-.208c.768-.336,1.3-1.84,1.744-5.024H44.912ZM62.32-1.5a5.716,5.716,0,0,0,1.472-2.544h3.5v-1.3H59.024c.144-.24.272-.464.416-.672h1.28V-8.352a15.919,15.919,0,0,0,5.808,2.64l.944-1.328A15.578,15.578,0,0,1,61.92-9.008h5.328v-1.3H60.72v-1.2a45.878,45.878,0,0,0,5.184-.752L65.28-13.5A52.853,52.853,0,0,1,53.568-12.48l.4,1.312c1.456.016,3.2-.048,4.944-.176v1.04h-6.4v1.3h5.264a15.874,15.874,0,0,1-5.5,2.08l.912,1.264A16.607,16.607,0,0,0,58.912-8.3v1.952l-1.168-.192c-.192.368-.448.768-.72,1.2H52.448v1.3h3.728c-.544.8-1.088,1.584-1.52,2.128l1.7.48.192-.24c.736.192,1.44.384,2.128.592A25.952,25.952,0,0,1,52.72-.048l.864,1.392A20.613,20.613,0,0,0,60.832-.448c1.84.592,3.488,1.184,4.912,1.776L66.976.112C65.552-.448,64-.976,62.32-1.5ZM57.392-2.9c.256-.368.528-.752.784-1.152H61.92a3.737,3.737,0,0,1-1.392,2C59.536-2.336,58.5-2.608,57.392-2.9ZM73.44-13.088v3.7h9.632v-3.7Zm1.728,1.216H81.28v1.264H75.168Zm-.944,4.56h7.968v.9H74.224Zm0,1.92h7.968v.9H74.224Zm0,1.92h7.968v.912H74.224ZM79.456-.608a43.363,43.363,0,0,1,4.576,1.936L85.7.5c-1.36-.624-2.816-1.232-4.512-1.84H84V-8.528H72.48v7.184H75.3A16.424,16.424,0,0,1,70.816.384l1.7.944a17.637,17.637,0,0,0,4.592-2l-1.456-.672h5.04Z" transform="translate(-0.48 13.504)"/>
</svg>
