<svg xmlns="http://www.w3.org/2000/svg" width="208" height="13" viewBox="0 0 208 13" fill="#ff0098">
  <defs>
    <style>
      .cls-1 {
        fill-rule: evenodd;
      }
    </style>
  </defs>
  <path id="nav_official_twitter.svg" class="cls-1" d="M651.038,335.882h-4.513v1.841h4.513v-1.841Zm17.312-6.769a6.273,6.273,0,1,0,6.274,6.273A6.262,6.262,0,0,0,668.35,329.113Zm0,10.578a4.313,4.313,0,1,1,4.321-4.3A4.3,4.3,0,0,1,668.35,339.691Zm11.132-10.466v12.322h1.984v-5.169h4.961v-1.84h-4.961v-3.473h5.713v-1.84h-7.7Zm12.272,0v12.322h1.984v-5.169H698.7v-1.84h-4.961v-3.473h5.713v-1.84h-7.7Zm14.24,0v12.322h-1.968V329.225h1.968Zm11.164,10.466a4.313,4.313,0,0,1,0-8.626,4.4,4.4,0,0,1,3.073,1.28l1.376-1.392a6.321,6.321,0,0,0-4.449-1.84,6.273,6.273,0,1,0,0,12.546,6.321,6.321,0,0,0,4.449-1.84l-1.376-1.392A4.389,4.389,0,0,1,717.158,339.691Zm10.882-10.466v12.322h-1.968V329.225h1.968Zm14.328,12.322h2.144l-5.089-12.322h-2.048l-5.057,12.322h2.176l1.025-2.512h5.809Zm-6.1-4.353,2.128-5.233,2.161,5.233h-4.289Zm12.549-7.969v12.322h7.618v-1.84h-5.649V329.225H748.82ZM771,331.065v10.482h1.953V331.065h3.105v-1.84h-8.178v1.84H771Zm17.308,1.681,2.577,8.8h2.257l3.584-12.322h-2.16L792,338.635l-2.608-9.41h-2.241l-2.56,9.41L782,329.225h-2.176l3.632,12.322h2.257Zm14.53-3.521v12.322h-1.968V329.225h1.968Zm7.594,1.84v10.482h1.953V331.065h3.1v-1.84h-8.178v1.84h3.121Zm12.323,0v10.482H824.7V331.065h3.1v-1.84H819.63v1.84h3.121Zm9.553-1.84v12.322H840v-1.84h-5.73v-3.329h4.977v-1.84h-4.977v-3.473H840v-1.84h-7.7Zm21.984,12.322-3.392-5.153a3.7,3.7,0,0,0-1.2-7.169h-4.721v12.322h1.969V336.6h1.744l3.265,4.945h2.336Zm-7.345-10.482h2.672a1.853,1.853,0,0,1,0,3.7h-2.672v-3.7Z" transform="translate(-646.531 -329.125)"/>
</svg>
