<svg xmlns="http://www.w3.org/2000/svg" width="54" height="13" viewBox="0 0 54 13" fill="#ff0098">
  <defs>
    <style>
      .cls-1 {
        fill-rule: evenodd;
      }
    </style>
  </defs>
  <path id="nav_faq.svg" class="cls-1" d="M454.605,251.525h-4.513v1.841h4.513v-1.841Zm11.679-6.657v12.323h1.984v-5.169h4.961v-1.841h-4.961v-3.473h5.713v-1.84h-7.7Zm20.342,12.323h2.145l-5.089-12.323h-2.049l-5.057,12.323h2.177l1.024-2.513h5.809Zm-6.1-4.353,2.129-5.233,2.16,5.233h-4.289Zm23.911-1.809a6.229,6.229,0,1,0-3.089,5.425l0.592,0.737h2.321l-1.5-1.873A6.272,6.272,0,0,0,504.44,251.029Zm-6.274,4.305a4.294,4.294,0,1,1,3.345-1.568l-2.352-2.9-1.425,1.137,2.337,2.88A4.225,4.225,0,0,1,498.166,255.334Z" transform="translate(-450.094 -244.75)"/>
</svg>
