<svg xmlns="http://www.w3.org/2000/svg" width="135" height="13" viewBox="0 0 135 13" fill="#ff0098">
  <path id="パス_843" data-name="パス 843" d="M4.992-5.664H.48v1.84H4.992ZM16.672,0,21.6.016A3.787,3.787,0,0,0,25.344-3.76,3.912,3.912,0,0,0,23.5-6.944a3.631,3.631,0,0,0,.736-2.032,3.306,3.306,0,0,0-3.36-3.344H16.672ZM18.64-7.472V-10.48H20.8a1.479,1.479,0,0,1,1.488,1.5,1.479,1.479,0,0,1-1.488,1.5Zm0,5.632V-5.664h2.832a1.868,1.868,0,0,1,1.9,1.9,1.862,1.862,0,0,1-1.9,1.92ZM39.232,0h2.144L36.288-12.32H34.24L29.184,0H31.36l1.024-2.512h5.808Zm-6.1-4.352,2.128-5.232,2.16,5.232Zm17.792,2.5a4.275,4.275,0,0,1-4.3-4.3,4.278,4.278,0,0,1,4.3-4.32A4.4,4.4,0,0,1,54-9.2l1.376-1.392a6.319,6.319,0,0,0-4.448-1.84,6.228,6.228,0,0,0-6.272,6.256A6.245,6.245,0,0,0,50.928.112a6.319,6.319,0,0,0,4.448-1.84L54-3.12A4.385,4.385,0,0,1,50.928-1.856ZM67.2.016h2.448L63.9-6.352l4.688-5.968H66.3l-4.16,5.3v-5.3H60.176V.016h1.968v-5.6Zm9.872.1c2.384,0,4.128-1.44,4.128-3.68a3.5,3.5,0,0,0-2.4-3.36c-.816-.352-1.52-.576-2.24-.848-.592-.208-1.3-.56-1.3-1.312A1.5,1.5,0,0,1,76.928-10.5a2.109,2.109,0,0,1,1.744,1.04l1.7-1.04a4.074,4.074,0,0,0-3.424-1.936A3.375,3.375,0,0,0,73.3-9.072a3.256,3.256,0,0,0,2.336,3.056c.768.288,1.216.416,1.888.672,1.312.48,1.728,1.072,1.728,1.856,0,.96-.88,1.664-2.1,1.664a2.616,2.616,0,0,1-2.384-1.6l-1.76.912A4.515,4.515,0,0,0,77.072.112ZM88.32-10.48V0h1.952V-10.48h3.1v-1.84H85.2v1.84ZM105.9,0h2.144L102.96-12.32h-2.048L95.856,0h2.176l1.024-2.512h5.808Zm-6.1-4.352,2.128-5.232,2.16,5.232ZM117.52.112A6.248,6.248,0,0,0,122.9-2.944v-4.1h-5.328V-5.2h3.376v1.648a4.194,4.194,0,0,1-3.424,1.7,4.285,4.285,0,0,1-4.3-4.3,4.278,4.278,0,0,1,4.3-4.32,4.4,4.4,0,0,1,3.072,1.28l1.376-1.392a6.319,6.319,0,0,0-4.448-1.84,6.228,6.228,0,0,0-6.272,6.256A6.225,6.225,0,0,0,117.52.112ZM128.256-12.32V0h7.7V-1.84h-5.728V-5.168H135.2v-1.84h-4.976V-10.48h5.728v-1.84Z" transform="translate(-0.48 12.432)"/>
</svg>
