<svg xmlns="http://www.w3.org/2000/svg" width="55.472" height="12.32" viewBox="0 0 55.472 12.32">
  <path id="パス_1072" data-name="パス 1072" d="M-22.456-12.32h-4.72V0h1.968V-4.944h2.752a3.6,3.6,0,0,0,3.6-3.68A3.607,3.607,0,0,0-22.456-12.32Zm-.08,1.84a1.781,1.781,0,0,1,1.728,1.856,1.776,1.776,0,0,1-1.728,1.84h-2.672v-3.7Zm11.04-1.84V0H-3.88V-1.84H-9.528V-12.32ZM12.408,0h2.144L9.464-12.32H7.416L2.36,0H4.536L5.56-2.512h5.808Zm-6.1-4.352L8.44-9.584,10.6-4.352ZM22.36-5.184V0h1.952V-5.184L28.3-12.32H26.152l-2.8,5.2-2.832-5.2H18.392Z" transform="translate(27.176 12.32)" fill="#ff0098"/>
</svg>
