<svg xmlns="http://www.w3.org/2000/svg" width="189.937" height="14.91" viewBox="0 0 189.937 14.91">
  <defs>
    <style>
      .cls-1 {
        fill-rule: evenodd;
      }
    </style>
  </defs>
  <path id="policy.svg" class="cls-1" d="M529.526,1413.7a1.62,1.62,0,1,0,0,.02v-0.02Zm-2.673,0a1.03,1.03,0,1,1,0,.02v-0.02Zm-11.156,1.31v1.76h9.476c-0.833,3.8-3.138,6.79-7.812,8.62l1.3,1.53c4.978-2.14,7.619-5.89,8.787-11.12l-1.472-.79H515.7Zm19.647-1.13v1.71h9.171v-1.71h-9.171Zm-1.633,3.63v1.73h9.828c-0.7,2.56-3.105,4.86-6.771,6.08l1.2,1.65a12.679,12.679,0,0,0,7.987-8.55l-1.313-.91H533.711Zm25.977,0.58a26.6,26.6,0,0,0,4.274-3.83l-1.488-1.18a28.674,28.674,0,0,1-10.917,7.44l0.993,1.68a30.646,30.646,0,0,0,5.154-2.74v7.49h1.984v-8.86Zm20.669-5.35a10.216,10.216,0,0,1,1.2,2.45l1.1-.5a10.907,10.907,0,0,0-1.232-2.45Zm-2.209.46a9.957,9.957,0,0,1,1.185,2.45l1.1-.49a11.714,11.714,0,0,0-1.216-2.47Zm-0.416,1.6-1.793.79a36.755,36.755,0,0,1,4.178,10.36l1.985-.63A48.045,48.045,0,0,0,577.732,1414.8Zm-6.258.39a22.982,22.982,0,0,1-3.954,10.13l1.793,0.96a27.8,27.8,0,0,0,4.081-10.69Zm18.424-1.44-0.881,1.52a26.871,26.871,0,0,1,4,1.94l0.9-1.52A30.508,30.508,0,0,0,589.9,1413.75Zm-1.793,3.58-0.88,1.57a29.422,29.422,0,0,1,4.145,1.84l0.865-1.55A30.544,30.544,0,0,0,588.105,1417.33Zm-0.048,7.75,0.976,1.78a21.329,21.329,0,0,0,11.029-8.23l-1.233-1.39A18.834,18.834,0,0,1,588.057,1425.08Zm17.721-6.02V1421h13.093v-1.94H605.778Zm22.977,2.44a1.481,1.481,0,1,0-.016,0h0.016Zm22.659-7.5a1.76,1.76,0,1,0,0,.02V1414Zm-2.913,0a1.153,1.153,0,0,1,2.305,0,1.153,1.153,0,0,1-2.305.02V1414Zm2.721,2.28h-5.715v-3.2h-1.9v3.2h-5.667v1.74H643.6v6.29a0.7,0.7,0,0,1-.849.85,11.134,11.134,0,0,1-1.584-.09v1.77c0.768,0.08,1.536.11,2.081,0.11,1.584,0,2.256-.67,2.256-2.41v-6.52h5.715v-1.74Zm-4.178,4.24a21.05,21.05,0,0,1,3.217,4.56l1.665-.94a29.3,29.3,0,0,0-3.329-4.53Zm-6.643-.77a14,14,0,0,1-3.249,4.45l1.473,1.06a17.952,17.952,0,0,0,3.473-4.84Zm24.84-6.26v5.89c0,2.72-1.169,4.71-4.69,5.99l1.265,1.58c3.713-1.55,5.378-4.03,5.378-7.52v-5.94h-1.953Zm-7.411.23v7.65h1.9v-7.65h-1.9Zm18.828,0.03-0.881,1.52a26.871,26.871,0,0,1,4,1.94l0.9-1.52A30.508,30.508,0,0,0,676.658,1413.75Zm-1.793,3.58-0.88,1.57a29.422,29.422,0,0,1,4.145,1.84l0.865-1.55A30.544,30.544,0,0,0,674.865,1417.33Zm-0.048,7.75,0.976,1.78a21.329,21.329,0,0,0,11.029-8.23l-1.233-1.39A18.834,18.834,0,0,1,674.817,1425.08Zm17.721-6.02V1421h13.093v-1.94H692.538Z" transform="translate(-515.688 -1412.06)"/>
</svg>
