<svg xmlns="http://www.w3.org/2000/svg" width="239.563" height="14.87" viewBox="0 0 239.563 14.87">
  <defs>
    <style>
      .cls-1 {
        fill-rule: evenodd;
      }
    </style>
  </defs>
  <path id="privacy.svg" class="cls-1" d="M514.442,1368.25v-10.3h6.632v10.3h-6.632Zm6.632,1.55v0.79h1.686v-14.21h-9.94v14.21h1.622v-0.79h6.632Zm-0.916-2.35v-4.46h-1.7v-1.64h2.232v-1.36h-2.232v-1.71h-1.477v1.71h-2.151v1.36h2.151v1.64h-1.654v4.46h4.833Zm-1.4-1.33h-2.1v-1.82h2.1v1.82Zm-6.984,4.47v-11.2a27.688,27.688,0,0,0,1.06-3.32l-1.622-.35a21.449,21.449,0,0,1-3.147,7.46l0.9,1.49c0.4-.56.787-1.17,1.14-1.78v7.7h1.67Zm24.338-14.79-1.847-.03c-0.08,4.08-.385,10.4-6.47,13.44l1.413,1.36a12.358,12.358,0,0,0,5.908-7.55,13.248,13.248,0,0,0,6.2,7.55l1.494-1.6c-3.726-1.68-6.006-4.99-6.873-10.24C536.035,1357.69,536.083,1356.7,536.115,1355.8Zm12.562-.06v14.85h1.734v-14.85h-1.734Zm1.831,2.54a11.06,11.06,0,0,1,.738,2.37l1.3-.42a10.633,10.633,0,0,0-.883-2.36Zm-3.453.43a10.425,10.425,0,0,1-.818,3.67l1.22,0.69a12.5,12.5,0,0,0,.883-4.05Zm4.512,2.23v1.29h9.683v-1.29h-3.9v-0.75h2.858v-1.24h-2.858v-0.73h3.564v-1.28h-3.564v-1.2h-1.8v1.2H552v1.28h3.548v0.73h-2.89v1.24h2.89v0.75h-3.982Zm2.794,4.06v-0.81h4.223V1365h-4.223Zm4.223,3.06v0.8a0.266,0.266,0,0,1-.273.3c-0.176,0-.77,0-1.156-0.03l0.273,1.44a11.662,11.662,0,0,0,1.943-.05,1.129,1.129,0,0,0,.931-1.37v-6.26h-7.659v7.68h1.718v-2.51h4.223Zm-4.223-1.14v-0.83h4.223v0.83h-4.223Zm22.59,0.72a7.654,7.654,0,0,1-1.509,1.51v-4.88A11.46,11.46,0,0,0,576.951,1367.64Zm1.927-.06a15.288,15.288,0,0,0,1.686-5.44l-1.2-.21h-3.917v-4.21h3.323v1.76a0.214,0.214,0,0,1-.241.24,9.85,9.85,0,0,1-1.2-.01l0.273,1.44a16.757,16.757,0,0,0,1.975-.05,1.088,1.088,0,0,0,.867-1.3v-3.68h-6.679v14.47h1.686v-0.9l0.835,0.9a9.4,9.4,0,0,0,1.7-1.65,8.936,8.936,0,0,0,2.119,1.65l1.06-1.36A7.365,7.365,0,0,1,578.878,1367.58Zm-2.072-3.86-1.364.48v-0.77h3.243a11.043,11.043,0,0,1-.867,2.72A9.495,9.495,0,0,1,576.806,1363.72Zm-7.819-.37a13.011,13.011,0,0,0-.578-2.25h2.778a21.9,21.9,0,0,1-.659,2.25h-1.541Zm-2.409,2.76v1.4h2.393v3.08h1.7v-3.08h2.264v-1.4h-2.264v-1.36h2.617v-1.4h-1.413c0.305-.72.578-1.44,0.787-2.03l-0.771-.22h1.558v-1.38h-2.778v-1.1h2.087v-1.35h-2.087v-1.55h-1.7v1.55h-2.184v1.35h2.184v1.1h-2.923v1.38h1.879l-0.851.24a11.638,11.638,0,0,1,.546,2.01h-1.429v1.4h2.778v1.36h-2.393Zm25-6.92c-0.161,5.12-1.638,7.94-2.73,7.94-0.738,0-1.348-1.2-1.348-2.74A5.179,5.179,0,0,1,591.578,1359.19Zm-5.829,5.25c0,2.42,1.237,4.71,3.051,4.71,2.537,0,4.384-4.08,4.625-10.08a3.823,3.823,0,0,1,3.982,4.17c0,2.39-1.06,4.29-4.994,4.96l0.883,1.75c4.624-1.01,6-3.67,6-6.74,0-3.2-1.8-5.92-6.422-5.92a7.157,7.157,0,0,0-7.13,7.14v0.01Zm21.227-4.85v-1.71h2.392v1.71h-2.392Zm0,3.24v-1.78h2.392v1.78h-2.392Zm0,3.39v-1.94h2.392v1.62C608.63,1366.01,607.795,1366.12,606.976,1366.22Zm-2.923.33,0.29,1.64c1.284-.18,3.371-0.52,5.025-0.79v3.17h1.686v-12.69h0.851v1.46H616.9a18.867,18.867,0,0,1-1.509,5.28,19.643,19.643,0,0,1-1.606-5.14l-1.59.5a22.241,22.241,0,0,0,2.2,6.35,10.1,10.1,0,0,1-3.131,2.91l1.236,1.35a11.846,11.846,0,0,0,2.874-2.69,12.054,12.054,0,0,0,2.634,2.69l1.284-1.33a10.425,10.425,0,0,1-2.906-2.9,22.255,22.255,0,0,0,2.521-8.45l-1.252-.19h-5.62v-1.41h-7.9v1.57h1.172v8.53C604.824,1366.47,604.407,1366.52,604.053,1366.55Zm28.38-9.79a21.693,21.693,0,0,1,.61,5.41c0,3.18-.77,5.09-5.2,6.3l1.044,1.73c4.977-1.55,6.069-4.37,6.069-8.06a28.85,28.85,0,0,0-.546-5.7Zm-7.755,4.56a10.911,10.911,0,0,0,.787,4.4l1.573-.24a22.174,22.174,0,0,1,1.911-3.6l-1.156-1.01c-0.337.55-.931,1.56-1.188,2.04a6.979,6.979,0,0,1-.193-1.75,13.139,13.139,0,0,1,.739-4.11l-1.847-.38a17.41,17.41,0,0,0-.626,4.64v0.01Zm28.75,0.43a12.289,12.289,0,0,1-1.846,4,14.5,14.5,0,0,1-2.633-5.58Q649,1359,649,1357.8h2.633c-0.369,1.49-.835,3.15-1.14,4.18l1.606,0.05,0.08-.28h1.252Zm-0.786-1.52c0.353-1.26.754-2.72,1.059-3.88l-0.979-.08h-6.664v1.53h1.285c-0.048,4.88-.3,9.25-2.521,11.71l1.509,0.92a12.444,12.444,0,0,0,2.313-6.45,14.785,14.785,0,0,0,1.878,3.05,11.572,11.572,0,0,1-3.147,2.28,14.039,14.039,0,0,1,1.188,1.28,13.213,13.213,0,0,0,3.051-2.34,12.878,12.878,0,0,0,3.211,2.32l1.253-1.38a11.684,11.684,0,0,1-3.372-2.22,15.977,15.977,0,0,0,2.778-6.43l-1.221-.31h-1.621Zm-11.8,3.62,0.369,1.7c0.5-.15,1.14-0.36,1.831-0.58v3.54a0.341,0.341,0,0,1-.37.41,11.2,11.2,0,0,1-1.284-.01l0.337,1.66a11.579,11.579,0,0,0,1.814-.03c0.932-.16,1.2-0.72,1.2-1.75v-4.4c0.594-.2,1.14-0.4,1.621-0.57l-0.144-1.47c-0.434.12-.931,0.27-1.477,0.43v-2.59h1.493v-1.59h-1.493v-2.86h-1.7v2.86h-1.991v1.59h1.991v3.07C642.189,1363.5,641.4,1363.71,640.84,1363.85Zm28.614-5.06c2.12,2.13,2.81,4.28,2.842,7.89l2.007-.17c-0.128-3.65-.9-6.24-3.291-8.72Zm-8.285-.65c-0.113,1.31-.161,2.54-0.161,3.63,0,5.1,2.12,7.65,3.95,7.65,1.285,0,2.248-1.3,2.858-3.91l-1.557-.68c-0.305,1.5-.835,2.52-1.381,2.52-0.964,0-2.023-2.12-2.023-5.63a30.114,30.114,0,0,1,.241-3.41Zm18.912,5.74a18.836,18.836,0,0,0,.851,6.21l1.879-.54a15.056,15.056,0,0,1-.883-5.7,27.059,27.059,0,0,1,.947-7.22l-1.91-.33a33.872,33.872,0,0,0-.884,7.57v0.01Zm9.6-5.42c-1.8,0-3.8.05-5.347,0.19l0.113,1.7a47.229,47.229,0,0,1,4.737-.24c0.979,0,1.959.03,2.761,0.09l0.032-1.71c-0.658-.02-1.493-0.03-2.28-0.03h-0.016Zm2.65,8.75a19.27,19.27,0,0,1-3.163.29c-2.12,0-3.212-.26-3.212-1.07a4.273,4.273,0,0,1,.53-1.64l-1.638-.28a6.21,6.21,0,0,0-.69,2.49c0,1.65,2.167,2.18,5.042,2.18,0.947,0,2.1-.07,3.131-0.16v-1.81Zm5.272-7.68,0.45,1.95a33.621,33.621,0,0,1,7.273-1.55c2.586,0,3.966,1.38,3.966,3.47,0,2.67-1.846,4.11-7.418,4.15l0.386,1.88c6.6-.2,9.007-2.36,9.007-6.16,0-3.16-2.183-5.16-5.571-5.16C703.771,1358.11,700.56,1358.92,697.605,1359.53Zm27.852-.74c2.119,2.13,2.81,4.28,2.842,7.89l2.007-.17c-0.129-3.65-.9-6.24-3.292-8.72Zm-8.286-.65c-0.112,1.31-.16,2.54-0.16,3.63,0,5.1,2.119,7.65,3.95,7.65,1.284,0,2.248-1.3,2.858-3.91l-1.558-.68c-0.3,1.5-.835,2.52-1.381,2.52-0.963,0-2.023-2.12-2.023-5.63a30.348,30.348,0,0,1,.241-3.41Zm17.715,0.14,0.129,1.78c2.023-.1,5.154-0.32,6.84-0.48a6.733,6.733,0,0,0-2.987,5.29c0,3.24,2.714,4.93,7.322,5.09l0.225-1.81c-3.95-.17-5.652-1.4-5.652-3.36,0-1.87,1.172-3.5,3.115-4.76a4.038,4.038,0,0,1,1.2-.53,22.2,22.2,0,0,1,2.553-.32l-0.225-1.81c-1.188.14-2.858,0.32-4.206,0.43C741.6,1357.93,737.086,1358.22,734.886,1358.28Z" transform="translate(-508.062 -1355.72)"/>
</svg>
