<svg xmlns="http://www.w3.org/2000/svg" width="570.736" height="21.162" viewBox="0 0 570.736 21.162">
  <g id="PRIZE_DEGITAL_RELEASE" data-name="PRIZE DEGITAL RELEASE" transform="translate(-120.417 -284.461)" style="isolation: isolate">
    <g id="prize-ttl" style="isolation: isolate">
      <path id="パス_979" data-name="パス 979" d="M134.454,290.886a6.079,6.079,0,0,1-6.074,6.208h-4.642v8.341h-3.321V284.65h7.963A6.086,6.086,0,0,1,134.454,290.886Zm-10.716-3.132v6.235h4.508a3.125,3.125,0,0,0,0-6.235Z" fill="#ff0098"/>
      <path id="パス_980" data-name="パス 980" d="M161.346,305.435l-5.507-8.341H152.9v8.341h-3.32V284.65h7.963a6.248,6.248,0,0,1,2.024,12.093l5.723,8.692ZM152.9,293.989H157.4a3.125,3.125,0,0,0,0-6.235H152.9Z" fill="#ff0098"/>
      <path id="パス_981" data-name="パス 981" d="M183.461,284.65v20.785h-3.32V284.65Z" fill="#ff0098"/>
      <path id="パス_982" data-name="パス 982" d="M199.123,287.754v-3.1h14.225l-8.611,17.68h8.826v3.105H199.338l8.584-17.681Z" fill="#ff0098"/>
      <path id="パス_983" data-name="パス 983" d="M242.21,284.65v3.1h-9.663v5.857h8.4v3.105h-8.4v5.614h9.663v3.105H229.227V284.65Z" fill="#ff0098"/>
      <path id="パス_984" data-name="パス 984" d="M276.5,284.65h.944l-20.73,20.785h-1Z" fill="#ff0098"/>
      <path id="パス_985" data-name="パス 985" d="M291.488,284.65h6.344a10.393,10.393,0,0,1,0,20.785h-6.344Zm6.262,17.68a7.289,7.289,0,0,0,0-14.576h-2.941V302.33Z" fill="#ff0098"/>
      <path id="パス_987" data-name="パス 987" d="M351.05,295.016a10.507,10.507,0,0,1,10.581-10.555,10.657,10.657,0,0,1,7.5,3.1l-2.321,2.349a7.422,7.422,0,0,0-5.183-2.16,7.275,7.275,0,0,0,0,14.55,7.078,7.078,0,0,0,5.777-2.862v-2.78h-5.7v-3.1H370.7v6.91a10.572,10.572,0,0,1-19.651-5.452Z" transform="translate(-8.952)" fill="#ff0098"/>
      <path id="パス_988" data-name="パス 988" d="M389.821,284.65v20.785H386.5V284.65Z" transform="translate(-9.475)" fill="#ff0098"/>
      <path id="パス_1068" data-name="パス 1068" d="M389.821,284.65v20.785H386.5V284.65Z" transform="translate(-63)" fill="#ff0098"/>
      <path id="パス_989" data-name="パス 989" d="M404.807,287.754v-3.1H418.6v3.1h-5.236v17.681H410.07V287.754Z" transform="translate(-9.184)" fill="#ff0098"/>
      <path id="パス_990" data-name="パス 990" d="M444.736,301.2h-9.8l-1.727,4.239h-3.671l8.529-20.785h3.455l8.584,20.785H446.49Zm-1.3-3.1-3.644-8.827-3.59,8.827Z" transform="translate(-9)" fill="#ff0098"/>
      <path id="パス_991" data-name="パス 991" d="M467.742,284.65v17.68h9.529v3.105H464.422V284.65Z" transform="translate(-9.27)" fill="#ff0098"/>
      <path id="パス_992" data-name="パス 992" d="M523.062,305.435l-5.506-8.341h-2.943v8.341h-3.32V284.65h7.963a6.248,6.248,0,0,1,2.024,12.093L527,305.435Zm-8.449-11.446h4.508a3.125,3.125,0,0,0,0-6.235h-4.508Z" transform="translate(-9)" fill="#ff0098"/>
      <path id="パス_993" data-name="パス 993" d="M554.84,284.65v3.1h-9.663v5.857h8.394v3.105h-8.394v5.614h9.663v3.105H541.856V284.65Z" transform="translate(-9)" fill="#ff0098"/>
      <path id="パス_994" data-name="パス 994" d="M573.824,284.65v17.68h9.529v3.105H570.5V284.65Z" transform="translate(-9)" fill="#ff0098"/>
      <path id="パス_995" data-name="パス 995" d="M611.459,284.65v3.1H601.8v5.857h8.394v3.105H601.8v5.614h9.663v3.105H598.476V284.65Z" transform="translate(-9)" fill="#ff0098"/>
      <path id="パス_996" data-name="パス 996" d="M640.43,301.2h-9.8l-1.728,4.239h-3.671l8.531-20.785h3.455l8.583,20.785h-3.616Zm-1.3-3.1-3.644-8.827-3.591,8.827Z" transform="translate(-9)" fill="#ff0098"/>
      <path id="パス_997" data-name="パス 997" d="M658.092,301.2l2.969-1.538a4.412,4.412,0,0,0,4.022,2.7c2.051,0,3.535-1.187,3.535-2.807,0-1.322-.7-2.321-2.915-3.131-1.134-.432-1.89-.648-3.184-1.134a5.491,5.491,0,0,1-3.942-5.155c0-3.483,2.727-5.669,6.154-5.669a6.871,6.871,0,0,1,5.777,3.267l-2.862,1.753a3.556,3.556,0,0,0-2.941-1.753A2.534,2.534,0,0,0,661.9,290.1c0,1.268,1.188,1.862,2.187,2.213,1.215.459,2.4.837,3.779,1.431a5.9,5.9,0,0,1,4.049,5.668c0,3.779-2.942,6.208-6.965,6.208A7.613,7.613,0,0,1,658.092,301.2Z" transform="translate(-9)" fill="#ff0098"/>
      <path id="パス_998" data-name="パス 998" d="M700.153,284.65v3.1H690.49v5.857h8.4v3.105h-8.4v5.614h9.663v3.105H687.17V284.65Z" transform="translate(-9)" fill="#ff0098"/>
    </g>
  </g>
</svg>
