<svg xmlns="http://www.w3.org/2000/svg" width="277.371" height="21.168" viewBox="0 0 277.371 21.168">
  <path id="reina-gp_ttl" d="M-127.7.189a10.544,10.544,0,0,0,9.072-5.157V-11.88h-8.991v3.105h5.7v2.781A7.077,7.077,0,0,1-127.7-3.132a7.231,7.231,0,0,1-7.263-7.263,7.22,7.22,0,0,1,7.263-7.29,7.424,7.424,0,0,1,5.184,2.16l2.322-2.349a10.663,10.663,0,0,0-7.506-3.1,10.51,10.51,0,0,0-10.584,10.557A10.5,10.5,0,0,0-127.7.189ZM-87.115,0l-5.724-8.694a6.087,6.087,0,0,0,4.05-5.859,6.087,6.087,0,0,0-6.075-6.237h-7.965V0h3.321V-8.343h2.943L-91.057,0ZM-99.508-17.685H-95a3,3,0,0,1,2.916,3.132A3,3,0,0,1-95-11.448h-4.509ZM-57.2,0h3.618l-8.586-20.79h-3.456L-74.156,0h3.672l1.728-4.239h9.8ZM-67.486-7.344l3.591-8.829,3.645,8.829Zm31.536-8.37L-24.8,0h3.618V-20.79H-24.5V-5.319L-35.518-20.79h-3.753V0h3.321ZM-4.982,0H1.363a10.44,10.44,0,0,0,10.4-10.422A10.429,10.429,0,0,0,1.363-20.79H-4.982Zm3.321-3.105v-14.58H1.282a7.129,7.129,0,0,1,7.182,7.263A7.158,7.158,0,0,1,1.282-3.105ZM53.879-20.79H45.914V0h3.321V-8.343h4.644a6.08,6.08,0,0,0,6.075-6.21A6.087,6.087,0,0,0,53.879-20.79Zm-.135,3.1a3,3,0,0,1,2.916,3.132,3,3,0,0,1-2.916,3.1H49.235v-6.237ZM90.788,0,85.064-8.694a6.087,6.087,0,0,0,4.05-5.859,6.087,6.087,0,0,0-6.075-6.237H75.074V0h3.321V-8.343h2.943L86.846,0ZM78.395-17.685H82.9a3,3,0,0,1,2.916,3.132,3,3,0,0,1-2.916,3.1H78.395Zm30.564-3.1V0h-3.321V-20.79ZM131.207-7.371,135.311,0h3.78l-5.967-10.422,5.967-10.368h-3.834l-4.05,7.29-4.05-7.29h-3.888l6.021,10.368L123.3,0H127.1Z" transform="translate(138.281 20.979)" fill="#ff0098"/>
</svg>
