<svg xmlns="http://www.w3.org/2000/svg" width="367" height="21" viewBox="0 0 367 21">
  <path id="パス_830" data-name="パス 830" d="M-176.688.189c4.077,0,7.128-2.457,7.128-6.372a5.994,5.994,0,0,0-3.78-5.508c-1.782-.783-2.916-1.188-4.4-1.809-1.08-.459-1.566-.972-1.566-1.809a2.12,2.12,0,0,1,2.349-1.944,3.481,3.481,0,0,1,2.889,1.809l3.24-2a6.79,6.79,0,0,0-6.075-3.537c-3.429,0-6.183,2.187-6.183,5.751a5.448,5.448,0,0,0,3.483,5.076c1.674.729,2.457.891,3.834,1.512,1.485.675,2.43,1.4,2.43,2.754s-1.458,2.349-3.267,2.349a3.934,3.934,0,0,1-3.726-2.673l-3.321,1.7A7.437,7.437,0,0,0-176.688.189Zm22.383-20.979V0h13.014V-3.51h-9.234V-8.64h7.992v-3.51h-7.992v-5.13h9.234v-3.51Zm46.818,6.426V0h3.78V-20.79h-3.888l-7.074,10.017-7.1-10.017h-3.861V0h3.78V-14.445l7.182,10.152Zm23.76-6.426V0h-3.78V-20.79Zm35.1,0V0h3.834V-8.64h7.938v-3.51h-7.938v-5.13h9.153v-3.51Zm32.022,0V0h-3.78V-20.79Zm19.98,6.21L13.851,0h3.888V-20.79h-3.78V-6.453L3.618-20.79H-.4V0h3.78ZM48.816,0h4.05L44.28-20.79h-3.7L32.049,0h4.1l1.674-4.1h9.288ZM39.258-7.614l3.159-7.776,3.24,7.776ZM67.176-20.79V0H80.217V-3.51H70.956V-20.79Zm31.941,0V0h-3.78V-20.79ZM121.338.189c4.077,0,7.128-2.457,7.128-6.372a5.994,5.994,0,0,0-3.78-5.508c-1.782-.783-2.916-1.188-4.4-1.809-1.08-.459-1.566-.972-1.566-1.809a2.12,2.12,0,0,1,2.349-1.944,3.481,3.481,0,0,1,2.889,1.809l3.24-2a6.79,6.79,0,0,0-6.075-3.537c-3.429,0-6.183,2.187-6.183,5.751a5.448,5.448,0,0,0,3.483,5.076c1.674.729,2.457.891,3.834,1.512,1.485.675,2.43,1.4,2.43,2.754s-1.458,2.349-3.267,2.349a3.934,3.934,0,0,1-3.726-2.673l-3.321,1.7A7.437,7.437,0,0,0,121.338.189ZM147.123-17.28V0h3.78V-17.28h5.157v-3.51H141.966v3.51ZM176.526.189c4.077,0,7.128-2.457,7.128-6.372a5.994,5.994,0,0,0-3.78-5.508c-1.782-.783-2.916-1.188-4.4-1.809-1.08-.459-1.566-.972-1.566-1.809a2.12,2.12,0,0,1,2.349-1.944,3.481,3.481,0,0,1,2.889,1.809l3.24-2a6.79,6.79,0,0,0-6.075-3.537c-3.429,0-6.183,2.187-6.183,5.751a5.448,5.448,0,0,0,3.483,5.076c1.674.729,2.457.891,3.834,1.512,1.485.675,2.43,1.4,2.43,2.754s-1.458,2.349-3.267,2.349a3.934,3.934,0,0,1-3.726-2.673l-3.321,1.7A7.437,7.437,0,0,0,176.526.189Z" transform="translate(183.654 20.979)"/>
</svg>
