<svg xmlns="http://www.w3.org/2000/svg" width="108.388" height="13.02" viewBox="0 0 108.388 13.02">
  <path id="パス_828" data-name="パス 828" d="M5.642-5.8A2.367,2.367,0,0,0,7.616-8.218c0-2.016-1.316-2.73-3.234-2.73a6.693,6.693,0,0,0-2.9.7L1.89-8.806A5.219,5.219,0,0,1,4.3-9.45c1.008,0,1.638.5,1.638,1.414,0,1.148-.784,1.82-2.576,1.82H2.688v1.358H3.724c1.68,0,2.45.56,2.45,1.638,0,1.484-1.078,1.932-2.408,1.932a8.048,8.048,0,0,1-2.114-.35L1.358-.084A12.376,12.376,0,0,0,3.808.21c2.926,0,4.13-1.5,4.13-3.318A2.386,2.386,0,0,0,5.642-5.8Zm7.294-4.48a14.012,14.012,0,0,1,2.758,2.254l1.134-1.134a17.075,17.075,0,0,0-2.912-2.156C13.608-10.99,13.3-10.668,12.936-10.276ZM21.63-7.014c.028-.28.056-.56.07-.84h2.17a20.34,20.34,0,0,1-.7,2.464l1.5.35A28.589,28.589,0,0,0,25.7-9.226l-.84-.042H19.53a16.986,16.986,0,0,0,.5-2.254l-1.484-.294a13.707,13.707,0,0,1-2.38,6.048l1.47.658a14.455,14.455,0,0,0,1.414-2.744h1.134c-.168,3.626-.812,6.384-4.676,7.84l1.12,1.19A7.309,7.309,0,0,0,20.958-3.43a7.366,7.366,0,0,0,3.906,4.606L25.914-.14C23.492-1.05,22.106-3.094,21.63-7.014Zm-8.9,5.6c.392.5.714.91,1.036,1.33A30.638,30.638,0,0,0,17.374-3.43c-.8-1.162-.812-1.19-.826-1.218A25.634,25.634,0,0,1,12.726-1.414ZM29.694-10.85A10.893,10.893,0,0,1,31.36-8.316l1.288-.714A10.964,10.964,0,0,0,30.8-11.536Zm3.514,1.19v1.33c0,1.274.252,1.554,1.526,1.582.322,0,.924.014,1.3,0,1.12-.014,1.358-.2,1.47-1.47l-1.19-.2c-.028.546-.056.56-.378.574H34.874c-.322-.014-.392-.07-.392-.49v-.322h2.562v-2.786H33.11v1.008h2.646v.77H33.208Zm4.76,0v1.33c0,1.26.252,1.554,1.568,1.582.364.014.994.014,1.4,0,1.148-.014,1.4-.2,1.526-1.47l-1.232-.2c-.028.532-.056.574-.406.588-.308.014-.854.014-1.134,0-.364-.014-.42-.084-.42-.518v-.308H42v-2.786H37.856v1.008H40.7v.77h-2.73ZM36.694-3.766v-1.12h1.932v1.12Zm-.812,1.134h3.43l-.994.546A22.918,22.918,0,0,1,40.95-.406l1.33-.6a27.727,27.727,0,0,0-2.688-1.624h2.856V-3.766H40.11v-1.12h1.946v-1.12H40.11v-.686H38.626v.686H36.694v-.686h-1.47v.686h-1.89v1.12h1.89v1.12h-2.17v1.134H35.77a8.75,8.75,0,0,1-2.282,1.316l1.2.8A9.376,9.376,0,0,0,37.1-2.156Zm-3.3,1.106V-6.118H29.6v1.344H31.15v3.5A16.415,16.415,0,0,1,29.414-.14L30,1.2C30.6.756,31.29.266,32.018-.364A4.238,4.238,0,0,0,35.294.952c1.722.056,5.362.042,7.14,0l.238-1.26c-1.834.07-5.586.084-7.182.042A3.658,3.658,0,0,1,32.578-1.526ZM52.99-7.714V-9h2.562A13.344,13.344,0,0,1,54.04-7.714ZM55.86-3.4H51.31c.07-.252.154-.5.224-.742A29.273,29.273,0,0,0,57.61-4.83l-.546-1.134a24.2,24.2,0,0,1-4.158.574,18.809,18.809,0,0,0,1.666-1.078h4.774V-7.714h-3.22a15.848,15.848,0,0,0,2.422-2.7l-1.218-.658a15.491,15.491,0,0,1-1.358,1.652v-.812H52.99v-1.582H51.436v1.582H47.992V-9h3.444v1.288H46.354v1.246h5.74a24.624,24.624,0,0,1-5.894,2.3l1.008,1.19c.9-.266,1.764-.574,2.59-.91-.294.924-.63,1.862-.882,2.492l1.666.084c.084-.224.182-.49.28-.784H55.65c-.224,1.162-.5,1.722-.784,1.82a.652.652,0,0,1-.35.07c-.308.014-1.05,0-1.5-.028l.252,1.4c.462.014,1.3.028,1.652.014a2.951,2.951,0,0,0,1.05-.182C56.644.7,57.106-.616,57.5-3.4H55.86Zm7.5-7.406a11.167,11.167,0,0,1,1.96,2.534l1.3-.84a12.043,12.043,0,0,0-2.142-2.478ZM72.1-6.4V-7.35h1.834V-6.4Zm-3.206,0V-7.35H70.63V-6.4Zm5.04,3.178v.854c0,.154-.056.238-.224.238-.14.014-.574.014-.882,0l.224,1.176a9.572,9.572,0,0,0,1.6-.028c.588-.112.77-.5.77-1.176V-8.5H72.254a34.211,34.211,0,0,0,3.136-2.436l-.938-.574H67.536v1.176H72.66c-.434.392-.924.784-1.386,1.134a16.981,16.981,0,0,0-1.568-1.008l-.91.728a16.925,16.925,0,0,1,1.428.98h-2.8v7.56h1.47V-3.22H70.63v2.3H72.1v-2.3ZM72.1-4.326v-.98h1.834v.98Zm-3.206,0v-.98H70.63v.98Zm-2.618,2.6v-4.41H63.21v1.344h1.624v3.276A15.516,15.516,0,0,1,63-.252L63.644,1.2C64.26.742,64.918.21,65.674-.462A4.12,4.12,0,0,0,68.992.952c1.708.056,5.25.042,6.986,0L76.244-.42c-1.806.084-5.46.1-7.028.056A3.523,3.523,0,0,1,66.276-1.722ZM80.15-10.808a10.779,10.779,0,0,1,1.96,2.534l1.3-.84a12.369,12.369,0,0,0-2.128-2.478Zm8.442,3.64V-8.512h1.4v1.344Zm-2.268,0v-3.178h3.668v.8h-2.6v2.38Zm.98,4.13V-4.312h1.652v1.274ZM83.062-1.722v-4.41H80v1.344H81.62v3.276A16.707,16.707,0,0,1,79.8-.252L80.444,1.2C81.06.742,81.718.21,82.46-.462A4.138,4.138,0,0,0,85.778.952c1.708.056,5.25.042,7,0L93.03-.42c-1.792.084-5.46.1-7.028.056a3.685,3.685,0,0,1-2.058-.56h1.344V-5.978h5.74v3.7c0,.14-.056.2-.2.21H90.16V-5.32H86.114v3.766H87.3V-2.03h2.758l.21,1.12a8.306,8.306,0,0,0,1.5-.042c.532-.112.714-.462.714-1.092V-7.168h-1.05v-4.354h-6.5v4.354H83.874V-.98A4.339,4.339,0,0,1,83.062-1.722Zm20.3-5.936v-1.33h2.73a14,14,0,0,1-1.54,1.33ZM101.3-2.982V-4.06h4.844v1.078ZM106.148.686v.49H107.7V-5.376h-4.186a16.482,16.482,0,0,0,1.512-.98h4.718v-1.3h-3.094a16.2,16.2,0,0,0,2.464-2.8l-1.246-.658a14.223,14.223,0,0,1-1.6,1.946v-1.106h-2.912v-1.54h-1.526v1.54H98.392v1.288h3.444v1.33H96.754v1.3h5.782A25.2,25.2,0,0,1,96.6-4.06c.308.378.63.742.994,1.19.756-.224,1.484-.462,2.184-.728V1.176H101.3V.686ZM101.3-.616V-1.75h4.844V-.616Z" transform="translate(-1.358 11.816)"/>
</svg>
