<svg xmlns="http://www.w3.org/2000/svg" width="31.906" height="54.22" viewBox="0 0 31.906 54.22">
  <defs>
    <style>
      .cls-1 {
        fill: #000;
        fill-rule: evenodd;
      }
    </style>
  </defs>
  <path id="step05.svg" class="cls-1" d="M312.191,4495.63a2.8,2.8,0,0,0,3.1-2.76,2.618,2.618,0,0,0-1.8-2.52c-0.612-.27-1.14-0.44-1.68-0.64a1.177,1.177,0,0,1-.973-0.98,1.127,1.127,0,0,1,1.249-1.06,1.582,1.582,0,0,1,1.308.78l1.272-.78a3.063,3.063,0,0,0-2.568-1.45,2.53,2.53,0,0,0-2.737,2.52,2.437,2.437,0,0,0,1.752,2.29c0.577,0.22.913,0.31,1.417,0.5,0.984,0.36,1.3.81,1.3,1.4a1.393,1.393,0,0,1-1.572,1.25,1.972,1.972,0,0,1-1.789-1.2l-1.32.68A3.388,3.388,0,0,0,312.191,4495.63Zm7.6-7.95v7.86h1.465v-7.86h2.328v-1.38h-6.133v1.38h2.34Zm6.372-1.38v9.24h5.773v-1.38h-4.3v-2.49h3.733v-1.38h-3.733v-2.61h4.3v-1.38h-5.773Zm12.193,0H334.81v9.24h1.476v-3.71h2.065A2.766,2.766,0,0,0,338.351,4486.3Zm-0.06,1.38a1.388,1.388,0,0,1,0,2.77h-2v-2.77h2Zm-13.224,52.75a10.633,10.633,0,0,0,10.627-10.59c0.042-5.92-4.242-10.54-10.165-10.54a8.247,8.247,0,0,0-4.494,1.18l0.8-7.98h12.979v-4.75H317.59l-1.764,16.89,4.789,1.76a5.45,5.45,0,0,1,4.452-2.27,5.671,5.671,0,0,1,5.545,5.76,5.525,5.525,0,1,1-11.047,0H314.44A10.539,10.539,0,0,0,325.067,4540.43Z" transform="translate(-309.156 -4486.22)"/>
</svg>
