<svg id="tp_notes.svg" xmlns="http://www.w3.org/2000/svg" width="200" height="54.5" viewBox="0 0 200 54.5">
  <defs>
    <style>
      .cls-1 {
        fill: #ff0;
        fill-rule: evenodd;
      }
    </style>
  </defs>
  <path id="注意事項" class="cls-1" d="M578.087,123.71a18.719,18.719,0,0,1,4.315,3.146l1.9-2.08a21.205,21.205,0,0,0-4.652-3.016Zm-1.169,6.917a17.146,17.146,0,0,1,4.47,3.354l1.923-2A19.8,19.8,0,0,0,578.5,128.7Zm0.389,13.208c0.91,0.65,1.664,1.2,2.444,1.742a70.44,70.44,0,0,0,4.288-8.424l-2.079-1.664A51.6,51.6,0,0,1,577.307,143.835Zm6.186-1.482v2.6h17.57v-2.6H593.89v-5.72h5.38v-2.6h-5.38v-5.07h6.679v-2.6h-7.3l1.248-1.014a27.588,27.588,0,0,0-4.731-3.822l-1.923,1.716a25.488,25.488,0,0,1,3.665,3.12H584.3v2.6h6.654v5.07h-5.432v2.6h5.432v5.72h-7.46ZM620.514,127.2a9.839,9.839,0,0,0-.78-2h6.238c-0.286.624-.624,1.326-0.988,2h-4.47Zm-9.721,0v2.08h24.12V127.2h-7.122c0.468-.7.884-1.4,1.222-2h3.873v-2h-8.63V121.5h-2.963v1.69H612.82v2h3.951a13.6,13.6,0,0,1,.91,2h-6.888Zm6.472,5.018h11.046v1.4H617.265v-1.4Zm0,2.86h11.046v1.4H617.265v-1.4Zm3.691,3.77a18.65,18.65,0,0,1,2.521,3.3l2.235-1.17A16.506,16.506,0,0,0,623.5,138.3H631.2v-7.878H614.458V138.3h7.407Zm7.875,1.4a22.476,22.476,0,0,1,3.379,4.472l2.573-1.118a22.14,22.14,0,0,0-3.665-4.446Zm-11.306-.91v2.626c0,2.678.65,3.3,3.717,3.354,1.117,0.026,2.937.026,4.184,0,2.807-.052,3.327-0.442,3.587-3.64l-2.625-.442c-0.052,1.612-.156,1.716-1.2,1.768-1.013.026-2.7,0.026-3.639,0-1.039-.026-1.273-0.208-1.273-1.066v-2.6h-2.755Zm-3.327.13a11.788,11.788,0,0,1-3.353,4.264l2.521,1.118a14.557,14.557,0,0,0,3.353-4.628Zm43.05-9.776v-1.638h4.913v1.638h-4.913Zm-7.771-1.638h4.834v1.638h-4.834v-1.638Zm13.048,9.8v1.456h-5.277v-1.456h5.277Zm-5.277-1.976V134.5h5.277v1.378h-5.277Zm-13.437,0v1.976h10.5v1.456h-8.5v1.95h8.5v0.988a0.735,0.735,0,0,1-.753.884,19.53,19.53,0,0,1-2.677-.052l0.545,2.522a20.963,20.963,0,0,0,3.691-.052c1.612-.26,2.131-1.222,2.131-2.964v-1.326h8.162v-3.406h2.521v-1.976H665.41V132.6h-8.162v-1.2h7.8v-5.071h-7.8v-1.17h10.683v-2H657.248v-1.638h-2.937v1.638h-10.5v2h10.5v1.17H646.7v5.071h7.615v1.2h-8.395v1.9h8.395v1.378h-10.5Zm47.03-6.994h7.043v1.742h-7.043v-1.742Zm0,3.692h7.043v1.794h-7.043v-1.794Zm0,3.718h7.043v1.794h-7.043v-1.794Zm4.5,5.174a31.163,31.163,0,0,1,4.263,4.16l2.521-1.118A34.475,34.475,0,0,0,697.6,140.4h3.171V126.6h-5.562c0.26-.676.494-1.352,0.7-1.976h5.9v-2.392H686.864v2.392H693c-0.156.624-.338,1.3-0.546,1.976h-4.393V140.4h2.782a19.629,19.629,0,0,1-5.355,3.692l2.262,1.586a20.533,20.533,0,0,0,5.588-4.368l-2.391-.91h6.5Zm-17.83-3.12,0.676,2.834c2.313-.728,6.212-2.054,8.811-3.016l-0.26-2.366c-0.884.286-1.949,0.6-3.041,0.91V126.492h2.833v-2.47h-8.733v2.47h3.171v10.973C679.638,137.829,678.417,138.141,677.507,138.349Z" transform="translate(-540.469 -91.188)"/>
  <path id="THE_FIRST_TAKE_STAGE" data-name="THE FIRST TAKE STAGE" class="cls-1" d="M544.548,100.593V92.659h2.628V91.375h-6.719v1.284h2.616v7.934h1.475Zm8.864-4.069h4.416v4.069H559.3V91.375h-1.475V95.24h-4.416V91.375h-1.487v9.218h1.487V96.524Zm13.231-3.865H570.2V91.375h-5v9.218h5.268V99.309h-3.816V96.488h3.132V95.252h-3.132V92.659Zm17.129,7.934V96.68h3.144V95.4h-3.144V92.659h3.516V91.375h-4.979v9.218h1.463Zm10.076-9.218h-1.487v9.218h1.487V91.375Zm11.073,9.218h1.572c-0.36-.924-1.032-2.424-1.356-3.169A2.183,2.183,0,0,0,604,96.212a2.22,2.22,0,0,0,1.62-2.329c0-2.124-1.644-2.508-3.672-2.508h-2.219v9.218h1.392V96.824h1.319c0.744,0,1.092.4,1.56,1.428C604.309,98.961,604.705,99.957,604.921,100.593Zm-2.112-4.957h-1.691V92.623h0.971c1.212,0,2.088.276,2.088,1.416A1.5,1.5,0,0,1,602.809,95.636Zm13.483-3.913a6.13,6.13,0,0,0-2.459-.5A2.552,2.552,0,0,0,611,93.812c0,1.476.9,1.993,2.208,2.581,1.212,0.54,1.8.984,1.8,1.728a1.27,1.27,0,0,1-1.452,1.32,6.342,6.342,0,0,1-2.472-.6l-0.372,1.332a7.877,7.877,0,0,0,2.916.576c1.512,0,2.879-.684,2.879-2.712,0-1.6-1.127-2.208-2.483-2.857-0.888-.42-1.56-0.756-1.56-1.452a1.292,1.292,0,0,1,1.524-1.224,4.674,4.674,0,0,1,1.9.492Zm8.493,8.87V92.659h2.627V91.375h-6.719v1.284h2.616v7.934h1.476Zm16.937,0V92.659h2.628V91.375h-6.719v1.284h2.615v7.934h1.476Zm6.249,0h1.5l0.876-2.448H653.9l0.9,2.448h1.62l-3.551-9.218h-1.344Zm2.747-3.6,1.428-3.985,1.416,3.985h-2.844ZM664.141,95.9l3.876-4.525h-1.836l-3.54,4.5v-4.5h-1.487v9.218h1.487V96.116l3.648,4.477h1.967Zm10.22-3.241h3.551V91.375h-5v9.218h5.267V99.309h-3.815V96.488h3.131V95.252h-3.131V92.659Zm20.561-.936a6.14,6.14,0,0,0-2.46-.5,2.552,2.552,0,0,0-2.832,2.593c0,1.476.9,1.993,2.208,2.581,1.212,0.54,1.8.984,1.8,1.728a1.27,1.27,0,0,1-1.452,1.32,6.342,6.342,0,0,1-2.472-.6l-0.372,1.332a7.877,7.877,0,0,0,2.916.576c1.512,0,2.879-.684,2.879-2.712,0-1.6-1.127-2.208-2.483-2.857-0.888-.42-1.56-0.756-1.56-1.452a1.292,1.292,0,0,1,1.524-1.224,4.674,4.674,0,0,1,1.9.492Zm8.492,8.87V92.659h2.627V91.375h-6.719v1.284h2.616v7.934h1.476Zm6.248,0h1.5l0.876-2.448h3.551l0.9,2.448h1.62l-3.551-9.218h-1.344Zm2.748-3.6,1.428-3.985,1.415,3.985H712.41Zm15.871,2.281a4.386,4.386,0,0,1-1.3.192c-2.148,0-2.964-1.308-2.964-3.349,0-2.148.828-3.625,2.928-3.625a5.32,5.32,0,0,1,1.9.348l0.252-1.332a8.208,8.208,0,0,0-2.183-.324c-3.552,0-4.475,2.389-4.475,4.921,0,2.472.983,4.645,4.5,4.645a8.459,8.459,0,0,0,2.711-.444V95.5h-3.3V96.74h1.932v2.532Zm8.359-6.613h3.552V91.375h-5v9.218h5.267V99.309H736.64V96.488h3.132V95.252H736.64V92.659Z" transform="translate(-540.469 -91.188)"/>
</svg>
