<svg id="tp_privacy.svg" xmlns="http://www.w3.org/2000/svg" width="417.656" height="54.531" viewBox="0 0 417.656 54.531">
  <defs>
    <style>
      .cls-1 {
        fill: #ff0;
        fill-rule: evenodd;
      }
    </style>
  </defs>
  <path id="個人情報の取り扱いについて" class="cls-1" d="M441.909,141.834v-17h10.9v17h-10.9Zm10.9,2.561v1.294h2.771V122.242H439.243v23.447h2.666V144.4h10.9Zm-1.5-3.881v-7.367h-2.8v-2.693h3.669V128.21h-3.669v-2.825h-2.428v2.825h-3.537v2.244h3.537v2.693H443.36v7.367h7.945Zm-2.3-2.192h-3.457v-3.01h3.457v3.01Zm-11.481,7.367V127.206a45.051,45.051,0,0,0,1.742-5.465l-2.666-.581a35.413,35.413,0,0,1-5.173,12.3l1.478,2.456c0.66-.925,1.294-1.928,1.874-2.931v12.7h2.745Zm42.014-24.4-3.035-.053c-0.132,6.733-.634,17.163-10.637,22.179l2.323,2.245a20.371,20.371,0,0,0,9.713-12.463c2.111,5.809,5.463,9.928,10.188,12.463l2.454-2.641c-6.123-2.772-9.871-8.238-11.3-16.9C479.409,124.408,479.488,122.771,479.541,121.292Zm22.628-.106v24.5h2.851v-24.5h-2.851Zm3.009,4.2a18.111,18.111,0,0,1,1.214,3.907l2.138-.686a17.582,17.582,0,0,0-1.452-3.908Zm-5.675.712a17.177,17.177,0,0,1-1.346,6.047l2.006,1.135a20.656,20.656,0,0,0,1.452-6.68Zm7.417,3.671v2.138h15.915v-2.138h-6.413v-1.241h4.7v-2.034h-4.7v-1.214h5.859v-2.112h-5.859v-1.981h-2.956v1.981h-5.833v2.112h5.833v1.214h-4.751v2.034h4.751v1.241H506.92Zm4.593,6.706v-1.346h6.941v1.346h-6.941Zm6.941,5.043v1.32a0.442,0.442,0,0,1-.449.5c-0.29,0-1.267,0-1.9-.053l0.449,2.377a19.911,19.911,0,0,0,3.193-.08c1.162-.211,1.531-0.95,1.531-2.27V132.989h-12.59v12.674h2.825v-4.146h6.941Zm-6.941-1.874V138.27h6.941v1.373h-6.941Zm39.144,1.188a12.283,12.283,0,0,1-2.481,2.482V135.26A18.926,18.926,0,0,0,550.657,140.831Zm3.168-.106a25.3,25.3,0,0,0,2.771-8.977l-1.98-.343h-6.44V124.46h5.464v2.905a0.361,0.361,0,0,1-.4.4,17.374,17.374,0,0,1-1.98-.027l0.449,2.377a24.554,24.554,0,0,0,3.247-.079c1.055-.212,1.425-0.9,1.425-2.139V121.82h-10.98v23.869h2.771V144.21l1.373,1.479a15.126,15.126,0,0,0,2.8-2.72,14.285,14.285,0,0,0,3.484,2.72l1.742-2.244A11.945,11.945,0,0,1,553.825,140.725Zm-3.405-6.363-2.244.792v-1.267h5.332a18.3,18.3,0,0,1-1.425,4.488A15.775,15.775,0,0,1,550.42,134.362Zm-12.854-.607a21.374,21.374,0,0,0-.95-3.723h4.566a36.444,36.444,0,0,1-1.082,3.723h-2.534Zm-3.959,4.541v2.324h3.933v5.069h2.8V140.62h3.722V138.3h-3.722v-2.244h4.3v-2.3h-2.323c0.5-1.189.95-2.377,1.293-3.354l-1.267-.369H544.9v-2.271h-4.567v-1.822h3.432v-2.218h-3.432V121.16h-2.8v2.561h-3.59v2.218h3.59v1.822h-4.8v2.271h3.088l-1.4.4a19.443,19.443,0,0,1,.9,3.327h-2.349v2.3h4.566V138.3h-3.933Zm43.086-11.406c-0.264,8.449-2.692,13.1-4.487,13.1-1.214,0-2.217-1.98-2.217-4.515A8.537,8.537,0,0,1,576.693,126.89Zm-9.581,8.66c0,3.987,2.032,7.763,5.015,7.763,4.17,0,7.205-6.733,7.6-16.635,4.461,0.264,6.546,2.958,6.546,6.892s-1.742,7.076-8.209,8.185l1.452,2.878c7.6-1.664,9.871-6.047,9.871-11.116,0-5.281-2.956-9.77-10.557-9.77a11.784,11.784,0,0,0-11.719,11.777v0.026Zm36.883-8v-2.826h3.933v2.826H604Zm0,5.333v-2.931h3.933v2.931H604Zm0,5.6v-3.195h3.933v2.667C606.713,138.138,605.341,138.322,604,138.481Zm-4.8.554,0.475,2.693c2.112-.29,5.543-0.844,8.262-1.293v5.228H610.7V124.724h1.4v2.4h8.208a31.1,31.1,0,0,1-2.481,8.713,32.652,32.652,0,0,1-2.639-8.475l-2.613.818a36.8,36.8,0,0,0,3.616,10.483,16.6,16.6,0,0,1-5.147,4.805l2.032,2.218a19.305,19.305,0,0,0,4.725-4.436,19.773,19.773,0,0,0,4.328,4.436l2.112-2.191a17.15,17.15,0,0,1-4.777-4.78,36.889,36.889,0,0,0,4.143-13.941l-2.058-.317h-9.238v-2.323H599.323v2.587h1.927V138.8Q600.062,138.955,599.191,139.035Zm48.629-16.159a35.888,35.888,0,0,1,1,8.925c0,5.254-1.267,8.4-8.552,10.4l1.716,2.851c8.182-2.561,9.977-7.208,9.977-13.307a47.71,47.71,0,0,0-.9-9.4ZM635.072,130.4a18.1,18.1,0,0,0,1.293,7.261l2.586-.4a36.516,36.516,0,0,1,3.141-5.941l-1.9-1.663c-0.554.9-1.531,2.561-1.953,3.353a11.566,11.566,0,0,1-.317-2.878,21.7,21.7,0,0,1,1.214-6.786l-3.035-.633a28.834,28.834,0,0,0-1.029,7.657V130.4Zm49.238,0.713a20.468,20.468,0,0,1-3.035,6.6,24.043,24.043,0,0,1-4.329-9.215c0.053-1.294.079-2.587,0.079-3.908h4.329c-0.607,2.456-1.373,5.2-1.874,6.892l2.639,0.079,0.132-.449h2.059Zm-1.294-2.508c0.581-2.086,1.241-4.489,1.742-6.416l-1.61-.132H672.2v2.534h2.112c-0.08,8.054-.5,15.262-4.144,19.328l2.481,1.505c2.164-2.588,3.246-6.311,3.8-10.641a24.483,24.483,0,0,0,3.089,5.043,19,19,0,0,1-5.174,3.75c0.053,0.026.106,0.079,1.953,2.112a21.535,21.535,0,0,0,5.015-3.855,20.964,20.964,0,0,0,5.279,3.829l2.059-2.271a19.316,19.316,0,0,1-5.543-3.67,26.415,26.415,0,0,0,4.566-10.615l-2.006-.5h-2.666Zm-19.4,5.967,0.607,2.8c0.818-.238,1.874-0.581,3.009-0.951v5.836a0.568,0.568,0,0,1-.607.686,19.948,19.948,0,0,1-2.112-.026l0.555,2.746a17.933,17.933,0,0,0,2.982-.053c1.531-.264,1.98-1.188,1.98-2.878v-7.261c0.976-.343,1.874-0.66,2.666-0.951l-0.238-2.429c-0.713.211-1.531,0.449-2.428,0.713v-4.277h2.454v-2.614h-2.454v-4.727h-2.8v4.727H663.96v2.614h3.273V133.6C665.834,133.992,664.541,134.335,663.617,134.573Zm49.027-8.344c3.484,3.512,4.619,7.05,4.672,13.018l3.3-.291c-0.211-6.02-1.478-10.3-5.411-14.39Zm-13.619-1.082c-0.185,2.165-.264,4.2-0.264,5.994,0,8.422,3.484,12.621,6.493,12.621,2.111,0,3.695-2.139,4.7-6.443l-2.56-1.135c-0.5,2.482-1.373,4.171-2.27,4.171-1.584,0-3.326-3.511-3.326-9.294a49.829,49.829,0,0,1,.4-5.624Zm33.072,9.479a31.226,31.226,0,0,0,1.4,10.245l3.088-.9a24.884,24.884,0,0,1-1.452-9.4,44.665,44.665,0,0,1,1.557-11.908l-3.141-.555A56.1,56.1,0,0,0,732.1,134.6v0.027Zm15.783-8.951c-2.956,0-6.255.079-8.789,0.317l0.185,2.8c2.3-.238,5.2-0.4,7.786-0.4,1.61,0,3.22.052,4.54,0.158l0.053-2.825c-1.083-.027-2.455-0.053-3.748-0.053H747.88Zm4.355,14.443a32.307,32.307,0,0,1-5.2.475c-3.484,0-5.279-.422-5.279-1.769a6.947,6.947,0,0,1,.871-2.693l-2.692-.475a10.332,10.332,0,0,0-1.135,4.119c0,2.719,3.563,3.59,8.287,3.59,1.558,0,3.458-.105,5.147-0.264v-2.983Zm10.656-12.674,0.739,3.221c4.381-1.294,9.317-2.561,11.956-2.561,4.25,0,6.52,2.271,6.52,5.73,0,4.409-3.036,6.786-12.194,6.838l0.633,3.116c10.848-.343,14.807-3.908,14.807-10.166,0-5.227-3.59-8.528-9.159-8.528C773.026,125.094,767.747,126.441,762.891,127.444Zm47.765-1.215c3.484,3.512,4.619,7.05,4.672,13.018l3.3-.291c-0.211-6.02-1.478-10.3-5.41-14.39Zm-13.619-1.082c-0.185,2.165-.264,4.2-0.264,5.994,0,8.422,3.484,12.621,6.493,12.621,2.112,0,3.7-2.139,4.7-6.443l-2.56-1.135c-0.5,2.482-1.372,4.171-2.27,4.171-1.583,0-3.325-3.511-3.325-9.294a49.813,49.813,0,0,1,.395-5.624Zm31.093,0.238,0.211,2.93c3.325-.158,8.472-0.528,11.244-0.792-3.062,2.324-4.91,5.387-4.91,8.74,0,5.333,4.461,8.132,12.036,8.4l0.369-2.983c-6.492-.291-9.29-2.324-9.29-5.545,0-3.089,1.927-5.783,5.12-7.868a6.873,6.873,0,0,1,1.98-.872,36.33,36.33,0,0,1,4.2-.528l-0.369-2.984c-1.953.238-4.7,0.529-6.915,0.713C839.162,124.8,831.746,125.279,828.13,125.385Z" transform="translate(-431.438 -91.188)"/>
  <path id="THE_FIRST_TAKE_STAGE" data-name="THE FIRST TAKE STAGE" class="cls-1" d="M544.548,100.593V92.659h2.628V91.375h-6.719v1.284h2.616v7.934h1.475Zm8.864-4.069h4.416v4.069H559.3V91.375h-1.475V95.24h-4.416V91.375h-1.487v9.218h1.487V96.524Zm13.231-3.865H570.2V91.375h-5v9.218h5.268V99.309h-3.816V96.488h3.132V95.252h-3.132V92.659Zm17.129,7.934V96.68h3.144V95.4h-3.144V92.659h3.516V91.375h-4.979v9.218h1.463Zm10.076-9.218h-1.487v9.218h1.487V91.375Zm11.073,9.218h1.572c-0.36-.924-1.032-2.424-1.356-3.169A2.183,2.183,0,0,0,604,96.212a2.22,2.22,0,0,0,1.62-2.329c0-2.124-1.644-2.508-3.672-2.508h-2.219v9.218h1.392V96.824h1.319c0.744,0,1.092.4,1.56,1.428C604.309,98.961,604.705,99.957,604.921,100.593Zm-2.112-4.957h-1.691V92.623h0.971c1.212,0,2.088.276,2.088,1.416A1.5,1.5,0,0,1,602.809,95.636Zm13.483-3.913a6.13,6.13,0,0,0-2.459-.5A2.552,2.552,0,0,0,611,93.812c0,1.476.9,1.993,2.208,2.581,1.212,0.54,1.8.984,1.8,1.728a1.27,1.27,0,0,1-1.452,1.32,6.342,6.342,0,0,1-2.472-.6l-0.372,1.332a7.877,7.877,0,0,0,2.916.576c1.512,0,2.879-.684,2.879-2.712,0-1.6-1.127-2.208-2.483-2.857-0.888-.42-1.56-0.756-1.56-1.452a1.292,1.292,0,0,1,1.524-1.224,4.674,4.674,0,0,1,1.9.492Zm8.493,8.87V92.659h2.627V91.375h-6.719v1.284h2.616v7.934h1.476Zm16.937,0V92.659h2.628V91.375h-6.719v1.284h2.615v7.934h1.476Zm6.249,0h1.5l0.876-2.448H653.9l0.9,2.448h1.62l-3.551-9.218h-1.344Zm2.747-3.6,1.428-3.985,1.416,3.985h-2.844ZM664.141,95.9l3.876-4.525h-1.836l-3.54,4.5v-4.5h-1.487v9.218h1.487V96.116l3.648,4.477h1.967Zm10.22-3.241h3.551V91.375h-5v9.218h5.267V99.309h-3.815V96.488h3.131V95.252h-3.131V92.659Zm20.561-.936a6.14,6.14,0,0,0-2.46-.5,2.552,2.552,0,0,0-2.832,2.593c0,1.476.9,1.993,2.208,2.581,1.212,0.54,1.8.984,1.8,1.728a1.27,1.27,0,0,1-1.452,1.32,6.342,6.342,0,0,1-2.472-.6l-0.372,1.332a7.877,7.877,0,0,0,2.916.576c1.512,0,2.879-.684,2.879-2.712,0-1.6-1.127-2.208-2.483-2.857-0.888-.42-1.56-0.756-1.56-1.452a1.292,1.292,0,0,1,1.524-1.224,4.674,4.674,0,0,1,1.9.492Zm8.492,8.87V92.659h2.627V91.375h-6.719v1.284h2.616v7.934h1.476Zm6.248,0h1.5l0.876-2.448h3.551l0.9,2.448h1.62l-3.551-9.218h-1.344Zm2.748-3.6,1.428-3.985,1.415,3.985H712.41Zm15.871,2.281a4.386,4.386,0,0,1-1.3.192c-2.148,0-2.964-1.308-2.964-3.349,0-2.148.828-3.625,2.928-3.625a5.32,5.32,0,0,1,1.9.348l0.252-1.332a8.208,8.208,0,0,0-2.183-.324c-3.552,0-4.475,2.389-4.475,4.921,0,2.472.983,4.645,4.5,4.645a8.459,8.459,0,0,0,2.711-.444V95.5h-3.3V96.74h1.932v2.532Zm8.359-6.613h3.552V91.375h-5v9.218h5.267V99.309H736.64V96.488h3.132V95.252H736.64V92.659Z" transform="translate(-431.438 -91.188)"/>
</svg>
