<svg xmlns="http://www.w3.org/2000/svg" width="7.84" height="52.094" viewBox="0 0 7.84 52.094">
  <defs>
    <style>
      .cls-1 {
        fill: #fff;
        fill-rule: evenodd;
      }
    </style>
  </defs>
  <path id="tp_scroll.svg" class="cls-1" d="M1246.95,625.795a2.335,2.335,0,0,0,2.3,2.58,2.186,2.186,0,0,0,2.1-1.5c0.22-.51.36-0.95,0.53-1.4a0.975,0.975,0,0,1,.82-0.809,0.938,0.938,0,0,1,.88,1.039,1.318,1.318,0,0,1-.65,1.09l0.65,1.06a2.546,2.546,0,0,0,1.21-2.14,2.109,2.109,0,0,0-2.1-2.279,2.035,2.035,0,0,0-1.91,1.46c-0.18.479-.26,0.759-0.42,1.179a1.249,1.249,0,0,1-1.16,1.08,1.159,1.159,0,0,1-1.04-1.31,1.634,1.634,0,0,1,1-1.489l-0.57-1.1A2.821,2.821,0,0,0,1246.95,625.795Zm1.23,9.8a2.7,2.7,0,0,1,5.39,0,2.746,2.746,0,0,1-.8,1.919l0.87,0.86a3.947,3.947,0,0,0,1.15-2.779,3.92,3.92,0,0,0-7.84,0,3.947,3.947,0,0,0,1.15,2.779l0.87-.86A2.737,2.737,0,0,1,1248.18,635.6Zm-1.16,12.1,3.22-2.119a2.315,2.315,0,0,0,4.48-.75v-2.949h-7.7v1.229h3.09v1.09l-3.09,2.04v1.459Zm6.55-4.589v1.67a1.158,1.158,0,0,1-2.31,0v-1.67h2.31Zm1.22,11.61a3.92,3.92,0,1,0-3.92,3.919A3.913,3.913,0,0,0,1254.79,654.715Zm-6.61,0a2.7,2.7,0,1,1,2.69,2.7A2.684,2.684,0,0,1,1248.18,654.715Zm6.54,7.521h-7.7v4.758h1.15v-3.529h6.55v-1.229Zm0,8.359h-7.7v4.759h1.15v-3.529h6.55V670.6Z" transform="translate(-1246.94 -623.25)"/>
</svg>
