<svg xmlns="http://www.w3.org/2000/svg" width="240.856" height="11.298" viewBox="0 0 240.856 11.298">
  <path id="voice" d="M-120.428-10.78-115.962,0h1.554l4.438-10.78h-1.9l-3.3,8.218-3.36-8.218Zm20.566-.1A5.479,5.479,0,0,0-105.35-5.39,5.479,5.479,0,0,0-99.862.1,5.461,5.461,0,0,0-94.374-5.39,5.488,5.488,0,0,0-99.862-10.878Zm0,9.254a3.758,3.758,0,0,1-3.766-3.766,3.744,3.744,0,0,1,3.766-3.78,3.773,3.773,0,0,1,3.78,3.78A3.761,3.761,0,0,1-99.862-1.624Zm13.65-9.156V0h-1.722V-10.78Zm12,9.156A3.741,3.741,0,0,1-77.98-5.39a3.744,3.744,0,0,1,3.766-3.78,3.85,3.85,0,0,1,2.688,1.12l1.2-1.218a5.529,5.529,0,0,0-3.892-1.61A5.449,5.449,0,0,0-79.7-5.4,5.464,5.464,0,0,0-74.214.1a5.529,5.529,0,0,0,3.892-1.61l-1.2-1.218A3.837,3.837,0,0,1-74.214-1.624Zm10.192-9.156V0h6.734V-1.61H-62.3V-4.522h4.354v-1.61H-62.3V-9.17h5.012v-1.61ZM-39.186.1a3.543,3.543,0,0,0,3.542-3.57,3.54,3.54,0,0,0-3.542-3.556,3.531,3.531,0,0,0-3.542,3.556A3.534,3.534,0,0,0-39.186.1Zm0-1.61a1.969,1.969,0,0,1-1.932-1.96,1.957,1.957,0,0,1,1.932-1.946,1.957,1.957,0,0,1,1.932,1.946A1.979,1.979,0,0,1-39.186-1.512ZM-28.924,0h1.61V-5.4h1.554v-1.54h-1.554V-8.33a1.3,1.3,0,0,1,1.3-1.33,1.347,1.347,0,0,1,.952.406l1.106-1.078a2.888,2.888,0,0,0-2.058-.868,2.839,2.839,0,0,0-2.912,2.87v1.386h-1.54V-5.4h1.54ZM-5.306.1A5.467,5.467,0,0,0-.6-2.576V-6.16H-5.264v1.61H-2.31v1.442a3.67,3.67,0,0,1-3,1.484A3.749,3.749,0,0,1-9.072-5.39,3.744,3.744,0,0,1-5.306-9.17,3.85,3.85,0,0,1-2.618-8.05l1.2-1.218a5.529,5.529,0,0,0-3.892-1.61A5.449,5.449,0,0,0-10.794-5.4,5.447,5.447,0,0,0-5.306.1ZM14.336,0,11.368-4.508a3.156,3.156,0,0,0,2.1-3.038,3.156,3.156,0,0,0-3.15-3.234H6.188V0H7.91V-4.326H9.436L12.292,0ZM7.91-9.17h2.338A1.558,1.558,0,0,1,11.76-7.546a1.554,1.554,0,0,1-1.512,1.61H7.91ZM28.448,0h1.876L25.872-10.78H24.08L19.656,0h1.9l.9-2.2h5.082ZM23.114-3.808l1.862-4.578,1.89,4.578Zm14.952-4.34L43.848,0h1.876V-10.78H44v8.022L38.29-10.78H36.344V0h1.722ZM52.724,0h3.29A5.413,5.413,0,0,0,61.4-5.4a5.407,5.407,0,0,0-5.39-5.376h-3.29Zm1.722-1.61V-9.17h1.526A3.7,3.7,0,0,1,59.7-5.4,3.712,3.712,0,0,1,55.972-1.61Zm26-9.17h-4.13V0h1.722V-4.326h2.408a3.153,3.153,0,0,0,3.15-3.22A3.156,3.156,0,0,0,80.444-10.78Zm-.07,1.61a1.558,1.558,0,0,1,1.512,1.624,1.554,1.554,0,0,1-1.512,1.61H78.036V-9.17ZM98.182,0,95.214-4.508a3.156,3.156,0,0,0,2.1-3.038,3.156,3.156,0,0,0-3.15-3.234h-4.13V0h1.722V-4.326h1.526L96.138,0ZM91.756-9.17h2.338a1.558,1.558,0,0,1,1.512,1.624,1.554,1.554,0,0,1-1.512,1.61H91.756ZM106.2-10.78V0h-1.722V-10.78ZM116.34-3.822,118.468,0h1.96l-3.094-5.4,3.094-5.376H118.44L116.34-7l-2.1-3.78h-2.016L115.346-5.4,112.238,0h1.974Z" transform="translate(120.428 11.2)" fill="#ff0098"/>
</svg>
