<svg xmlns="http://www.w3.org/2000/svg" viewBox="0 0 2753.43 162.44"><g id="レイヤー_2" data-name="レイヤー 2"><g id="レイヤー_1-2" data-name="レイヤー 1"><path d="M0,34V11.69H99.06V34H61.45V161.08H37.8V34Z"/><path d="M244.61,98.42v62.66H220.77V11.69h23.84V76.1h81.23V11.69h23.65V161.08H325.84V98.42Z"/><path d="M577.23,11.69V34h-69.4V76.1h60.28V98.42H507.83v40.35h69.4v22.31H484V11.69Z"/><path d="M904.31,11.69V34h-69.2V76.1H895.2V98.42H835.11v62.66h-24V11.69Z"/><path d="M1053.52,140.32V35.12l-30,14.55V27.36L1076.78,0V140.32H1107v20.76h-83.55V140.32Z"/><path d="M1312.69,161.08l-39.55-60H1252v60h-23.84V11.69h57.18c24.82,0,43.62,20,43.62,44.82,0,19.59-11.83,36.28-29.08,42.1l41.1,62.47ZM1252,78.82h32.37c12.41,0,20.94-10.67,20.94-22.31,0-11.84-8.53-22.51-20.94-22.51H1252Z"/><path d="M1452.9,130.62l21.32-11.06c4.46,9.31,13.57,18.82,28.88,18.82,13.19,0,24.24-7,25.4-18.43.58-9.51-5-17.85-20.94-23.67-8.14-3.1-13.56-4.66-22.87-8.15-16.09-5.82-28.3-18.82-28.3-37.06,0-25,19.58-40.74,44.19-40.74,20.75,0,32.57,11.45,41.49,23.48l-20.55,12.61c-4.46-6.79-12-12.23-21.13-12.23-11.44,0-20.16,6.6-20.16,16.69,0,9.12,8.53,13.39,15.7,15.91,8.73,3.3,18.42,6.21,28.31,10.47,20.54,8.54,27.91,23.48,27.91,41.33,0,26.39-21.13,43.85-50,43.85C1480.23,162.44,1463,150,1452.9,130.62Z"/><path d="M1665.27,34V11.69h99.06V34h-37.61V161.08h-23.64V34Z"/><path d="M1963.85,34V11.69h99.06V34H2025.3V161.08h-23.65V34Z"/><path d="M2267.51,130.62h-70.36l-12.41,30.46h-26.36l61.25-149.39h24.81l61.65,149.39h-26Zm-9.3-22.31L2232,44.86l-25.78,63.45Z"/><path d="M2449.42,93.37v67.91h-23.84V11.69h23.84V75.91l50.4-64.22h27.72l-56.79,72.37,69.59,77.22h-29.66Z"/><path d="M2753.43,11.69V34H2684V76.1h60.29V98.42H2684v40.35h69.4v22.31h-93.24V11.69Z"/></g></g></svg>