<svg xmlns="http://www.w3.org/2000/svg" width="264" height="19" viewBox="0 0 353 25">
  <defs>
    <style>
      .cls-1 {
        fill-rule: evenodd;
      }
    </style>
  </defs>
  <path id="txt_lineup_ryokuoushoku_shakai.svg" class="cls-1" d="M212.02,5952.54l-5.088-7.73a5.554,5.554,0,0,0-1.8-10.75h-7.081v18.48H201v-7.42h2.616l4.9,7.42h3.5ZM201,5936.82h4.008a2.776,2.776,0,0,1,0,5.54H201v-5.54Zm20.207,21.96h3l7.3-18.12H228.58l-3.432,8.95-3.673-8.95H218.5l5.16,12.12Zm23.088-6.07a6.11,6.11,0,1,0-6.072-6.12A6.079,6.079,0,0,0,244.3,5952.71Zm0-2.76a3.35,3.35,0,1,1,3.313-3.36A3.38,3.38,0,0,1,244.3,5949.95Zm17.112,2.59v-5.43l5.4,5.43h3.913l-6.529-6.53,5.449-5.35h-3.937l-4.3,4.2v-11.52h-2.76v19.2h2.76Zm22.416,0.17a5.3,5.3,0,0,0,5.544-5.48v-6.57h-2.76v6.67a2.786,2.786,0,0,1-5.569,0v-6.67h-2.76v6.57A5.3,5.3,0,0,0,283.827,5952.71Zm19.776,0a6.11,6.11,0,1,0-6.073-6.12A6.079,6.079,0,0,0,303.6,5952.71Zm0-2.76a3.35,3.35,0,1,1,3.312-3.36A3.38,3.38,0,0,1,303.6,5949.95Zm19.775,2.76a5.3,5.3,0,0,0,5.545-5.48v-6.57h-2.76v6.67a2.786,2.786,0,0,1-5.569,0v-6.67h-2.76v6.57A5.3,5.3,0,0,0,323.378,5952.71Zm17.832,0a3.856,3.856,0,0,0,4.152-3.75,3.527,3.527,0,0,0-2.136-3.24c-0.768-.41-1.68-0.67-2.256-0.96a1.085,1.085,0,0,1-.888-0.91,0.874,0.874,0,0,1,.96-0.79,1.391,1.391,0,0,1,1.344.84l2.28-1.25a3.98,3.98,0,0,0-3.624-2.16c-2.208,0-3.792,1.39-3.792,3.43a3.362,3.362,0,0,0,2.184,3.05c0.624,0.31,1.248.55,2.016,0.94a1.352,1.352,0,0,1,1.056,1.2,1.02,1.02,0,0,1-1.248.88,2.026,2.026,0,0,1-1.8-1.2l-2.376,1.25A4.429,4.429,0,0,0,341.21,5952.71Zm12.432-.17h2.76v-6.07a3.265,3.265,0,1,1,6.528.12v5.95h2.761v-5.95c0-3.51-2.353-6.12-5.737-6.12a5.123,5.123,0,0,0-3.552,1.34v-8.47h-2.76v19.2Zm26.16,0.17a6.11,6.11,0,1,0-6.073-6.12A6.079,6.079,0,0,0,379.8,5952.71Zm0-2.76a3.35,3.35,0,1,1,3.312-3.36A3.38,3.38,0,0,1,379.8,5949.95Zm17.111,2.59v-5.43l5.4,5.43h3.912l-6.528-6.53,5.448-5.35H401.21l-4.3,4.2v-11.52h-2.76v19.2h2.76Zm22.416,0.17a5.3,5.3,0,0,0,5.545-5.48v-6.57h-2.76v6.67a2.786,2.786,0,0,1-5.569,0v-6.67h-2.76v6.57A5.3,5.3,0,0,0,419.329,5952.71Zm31.92,0c3.576,0,6.192-2.16,6.192-5.52a5.245,5.245,0,0,0-3.6-5.04c-1.224-.53-2.28-0.87-3.36-1.28-0.888-.31-1.944-0.84-1.944-1.96a2.258,2.258,0,0,1,2.5-2.12,3.164,3.164,0,0,1,2.616,1.56l2.544-1.56a6.125,6.125,0,0,0-5.136-2.9c-3.048,0-5.473,1.94-5.473,5.04a4.874,4.874,0,0,0,3.5,4.58c1.152,0.44,1.824.63,2.832,1.01,1.968,0.72,2.592,1.61,2.592,2.79,0,1.44-1.32,2.49-3.144,2.49a3.927,3.927,0,0,1-3.576-2.4l-2.641,1.37A6.777,6.777,0,0,0,451.249,5952.71Zm14.591-.17H468.6v-6.07a3.265,3.265,0,1,1,6.528.12v5.95h2.76v-5.95c0-3.51-2.352-6.12-5.736-6.12a5.123,5.123,0,0,0-3.552,1.34v-8.47H465.84v19.2Zm32.281-11.88h-2.76v1.13a4.921,4.921,0,0,0-3.36-1.3,6.11,6.11,0,0,0,0,12.22,4.921,4.921,0,0,0,3.36-1.3v1.13h2.76v-11.88Zm-6.1,9.29a3.35,3.35,0,0,1,0-6.7A3.35,3.35,0,1,1,492.025,5949.95Zm17.735,2.59v-5.43l5.4,5.43h3.912l-6.529-6.53,5.449-5.35h-3.936l-4.3,4.2v-11.52H507v19.2h2.76Zm28.585-11.88h-2.761v1.13a4.921,4.921,0,0,0-3.36-1.3,6.11,6.11,0,0,0,0,12.22,4.921,4.921,0,0,0,3.36-1.3v1.13h2.761v-11.88Zm-6.1,9.29a3.35,3.35,0,0,1,0-6.7A3.35,3.35,0,1,1,532.248,5949.95Zm16.536-15.34a1.849,1.849,0,0,0-1.8,1.82,1.809,1.809,0,0,0,1.8,1.8,1.787,1.787,0,0,0,1.824-1.8A1.825,1.825,0,0,0,548.784,5934.61Zm-1.368,6.02v11.89h2.76v-11.89h-2.76Z" transform="translate(-198.062 -5933.34)"/>
</svg>
