<svg xmlns="http://www.w3.org/2000/svg" width="130" height="15" viewBox="0 0 174 19">
  <defs>
    <style>
      .cls-1 {
        fill-rule: evenodd;
      }
    </style>
  </defs>
  <path id="txt_lineup_co_shu_nie.svg" class="cls-1" d="M296.739,4907.75a6.465,6.465,0,0,1,0-12.93,6.583,6.583,0,0,1,4.609,1.92l2.064-2.09a9.5,9.5,0,0,0-6.673-2.76,9.41,9.41,0,0,0,0,18.82,9.5,9.5,0,0,0,6.673-2.76l-2.064-2.09A6.6,6.6,0,0,1,296.739,4907.75Zm17.592-11.18a1.79,1.79,0,1,0-1.8-1.8A1.817,1.817,0,0,0,314.331,4896.57Zm5.208,0a1.79,1.79,0,1,0,0-3.58A1.79,1.79,0,0,0,319.539,4896.57Zm-2.616,14.14a6.11,6.11,0,1,0-6.073-6.12A6.079,6.079,0,0,0,316.923,4910.71Zm0-2.76a3.35,3.35,0,1,1,3.312-3.36A3.38,3.38,0,0,1,316.923,4907.95Zm29.879,2.76a3.857,3.857,0,0,0,4.153-3.75,3.528,3.528,0,0,0-2.137-3.24c-0.768-.41-1.68-0.67-2.256-0.96a1.085,1.085,0,0,1-.888-0.91,0.874,0.874,0,0,1,.96-0.79,1.391,1.391,0,0,1,1.344.84l2.28-1.25a3.98,3.98,0,0,0-3.624-2.16c-2.208,0-3.792,1.39-3.792,3.43a3.362,3.362,0,0,0,2.184,3.05c0.624,0.31,1.248.55,2.016,0.94a1.352,1.352,0,0,1,1.056,1.2,1.02,1.02,0,0,1-1.248.88,2.026,2.026,0,0,1-1.8-1.2l-2.376,1.25A4.429,4.429,0,0,0,346.8,4910.71Zm12.432-.17h2.76v-6.07a3.266,3.266,0,1,1,6.529.12v5.95h2.76v-5.95c0-3.51-2.352-6.12-5.737-6.12a5.123,5.123,0,0,0-3.552,1.34v-8.47h-2.76v19.2Zm26.112,0.17a5.3,5.3,0,0,0,5.544-5.48v-6.57h-2.76v6.67a2.785,2.785,0,0,1-5.568,0v-6.67H379.8v6.57A5.3,5.3,0,0,0,385.346,4910.71Zm29.615-14.14,9.913,13.97h3.216v-18.48h-2.952v13.75l-9.793-13.75h-3.336v18.48h2.952v-13.97Zm23.928-3.96a1.849,1.849,0,0,0-1.8,1.82,1.809,1.809,0,0,0,1.8,1.8,1.787,1.787,0,0,0,1.824-1.8A1.825,1.825,0,0,0,438.889,4892.61Zm-1.368,6.02v11.89h2.76v-11.89h-2.76Zm17.28,12.08a6.374,6.374,0,0,0,4.441-1.8l-1.993-1.95a3.327,3.327,0,0,1-2.424,1.01,3.1,3.1,0,0,1-3.048-2.26h9.073c0-4.46-2.4-7.22-6.049-7.22A6.11,6.11,0,0,0,454.8,4910.71Zm-3.1-7.35a3.248,3.248,0,0,1,6.121,0h-6.121Z" transform="translate(-287.344 -4891.34)"/>
</svg>
