<svg xmlns="http://www.w3.org/2000/svg" width="179" height="15" viewBox="0 0 239 19">
  <defs>
    <style>
      .cls-1 {
        fill-rule: evenodd;
      }
    </style>
  </defs>
  <path id="txt_lineup_anna_takeuchi.svg" class="cls-1" d="M268.972,3868.54h3.216l-7.632-18.48h-3.073l-7.584,18.48h3.264l1.536-3.77h8.713Zm-9.145-6.53,3.192-7.85,3.241,7.85h-6.433Zm19.92,6.53h2.76v-6.7a2.611,2.611,0,0,1,2.712-2.73,2.644,2.644,0,0,1,2.76,2.76v6.67h2.761v-6.65c0-3.19-1.921-5.4-5.113-5.4a4.46,4.46,0,0,0-3.12,1.37v-1.2h-2.76v11.88Zm19.751,0h2.761v-6.7a2.611,2.611,0,0,1,2.712-2.73,2.644,2.644,0,0,1,2.76,2.76v6.67h2.76v-6.65c0-3.19-1.92-5.4-5.112-5.4a4.46,4.46,0,0,0-3.12,1.37v-1.2H299.5v11.88Zm31.345-11.88h-2.76v1.13a4.922,4.922,0,0,0-3.361-1.3,6.11,6.11,0,0,0,0,12.22,4.922,4.922,0,0,0,3.361-1.3v1.13h2.76v-11.88Zm-6.1,9.29a3.35,3.35,0,0,1,0-6.7A3.35,3.35,0,1,1,324.746,3865.95Zm30.936-13.13v15.72h2.928v-15.72h4.657v-2.76H351v2.76h4.68Zm27.336,3.84h-2.76v1.13a4.921,4.921,0,0,0-3.36-1.3,6.11,6.11,0,0,0,0,12.22,4.921,4.921,0,0,0,3.36-1.3v1.13h2.76v-11.88Zm-6.1,9.29a3.35,3.35,0,0,1,0-6.7A3.35,3.35,0,1,1,376.922,3865.95Zm17.736,2.59v-5.43l5.4,5.43h3.912l-6.528-6.53,5.448-5.35h-3.936l-4.3,4.2v-11.52H391.9v19.2h2.761Zm22.439,0.17a6.372,6.372,0,0,0,4.441-1.8l-1.992-1.95a3.328,3.328,0,0,1-2.425,1.01,3.1,3.1,0,0,1-3.048-2.26h9.073c0-4.46-2.4-7.22-6.049-7.22A6.11,6.11,0,0,0,417.1,3868.71Zm-3.1-7.35a3.248,3.248,0,0,1,6.121,0H414Zm22.848,7.35a5.3,5.3,0,0,0,5.545-5.48v-6.57h-2.76v6.67a2.786,2.786,0,0,1-5.569,0v-6.67h-2.76v6.57A5.3,5.3,0,0,0,436.849,3868.71Zm19.824,0a5.981,5.981,0,0,0,4.3-1.83l-1.945-1.94a3.34,3.34,0,1,1-2.376-5.69,3.3,3.3,0,0,1,2.376,1.01l1.945-1.97A6.1,6.1,0,1,0,456.673,3868.71Zm12.335-.17h2.761v-6.07a3.265,3.265,0,1,1,6.528.12v5.95h2.76v-5.95c0-3.51-2.352-6.12-5.736-6.12a5.123,5.123,0,0,0-3.552,1.34v-8.47h-2.761v19.2Zm22.248-17.93a1.849,1.849,0,0,0-1.8,1.82,1.809,1.809,0,0,0,1.8,1.8,1.787,1.787,0,0,0,1.824-1.8A1.825,1.825,0,0,0,491.256,3850.61Zm-1.368,6.02v11.89h2.76v-11.89h-2.76Z" transform="translate(-253.906 -3849.34)"/>
</svg>
