<?xml version="1.0" encoding="utf-8"?>
<!-- Generator: Adobe Illustrator 19.2.1, SVG Export Plug-In . SVG Version: 6.00 Build 0)  -->
<svg version="1.1" id="レイヤー_1" xmlns="http://www.w3.org/2000/svg" xmlns:xlink="http://www.w3.org/1999/xlink" x="0px"
	 y="0px" viewBox="0 0 221 19.6" style="enable-background:new 0 0 221 19.6;" xml:space="preserve">
<style type="text/css">
	.st0{fill:#FFFFFF;}
</style>
<g>
	<g>
		<path class="st0" d="M10,0C6.9,0,4.3,1.2,2.4,3.5C0.8,5.3,0,7.5,0,9.9c0,2.7,1,5,2.9,6.9s4.2,2.8,6.9,2.8c1.8,0,3.5-0.5,5.1-1.4
			l0.2-0.1v-4.5l-0.7,0.6c-0.4,0.4-0.8,0.7-1.2,0.9s-0.7,0.4-1.1,0.6c-0.6,0.3-1.4,0.4-2.3,0.4c-1.7,0-3.2-0.6-4.4-1.8
			s-1.8-2.7-1.8-4.5s0.6-3.3,1.8-4.6C6.6,4,8,3.4,9.8,3.4c1.6,0,3.1,0.6,4.6,1.9l0.7,0.6V1.5l-0.2-0.1C13.3,0.5,11.7,0,10,0z"/>
		<path class="st0" d="M27.9,9.6c0.8-1,1.2-2.2,1.2-3.6c0-1.8-0.6-3.2-1.9-4.3c-1.1-1-3-1.4-5.4-1.4h-3.6v18.9h3.6v-7.1l5,7.1h4.4
			l-5.7-7.9C26.4,11.1,27.2,10.5,27.9,9.6z M25.6,6.1c0,1.1-0.4,2.5-3.4,2.5h-0.4V3.8h0.5C25.2,3.8,25.6,5.1,25.6,6.1z"/>
		<rect x="32.6" y="0.4" class="st0" width="3.6" height="18.9"/>
		<path class="st0" d="M46.7,7.7L44.9,7c-1.1-0.5-1.7-1-1.7-1.7c0-0.5,0.2-0.9,0.6-1.3c0.4-0.4,0.9-0.5,1.6-0.5c0.5,0,1,0.1,1.3,0.3
			c0.2,0.1,0.6,0.4,1,1.2l0.2,0.4l3-1.8l-0.2-0.4C49.5,1,47.7,0,45.5,0c-1.6,0-3,0.5-4.2,1.5c-1.1,1-1.7,2.2-1.7,3.7
			c0,2.2,1.3,3.9,4,5l1.7,0.7c0.4,0.2,0.8,0.4,1.1,0.6c0.3,0.2,0.5,0.4,0.7,0.6c0.2,0.2,0.3,0.4,0.4,0.7c0.1,0.2,0.1,0.5,0.1,0.8
			c0,0.8-0.2,1.4-0.7,1.9s-1.1,0.7-1.8,0.7c-0.9,0-1.6-0.3-2.1-1c-0.2-0.2-0.4-0.8-0.6-2l-0.1-0.5l-3.6,0.8l0.1,0.4
			c0.3,1.8,0.9,3.2,2,4.2s2.5,1.5,4.2,1.5c1.8,0,3.3-0.6,4.5-1.8c1.2-1.2,1.8-2.7,1.8-4.4c0-1.3-0.4-2.5-1.1-3.4
			C49.4,9.1,48.2,8.3,46.7,7.7z"/>
		<path class="st0" d="M63.2,2c-0.6-0.6-1.4-1.1-2.2-1.3s-2-0.3-3.5-0.3H54v18.9h3.6V12h0.8c2,0,3.6-0.5,4.8-1.6
			c1.2-1,1.8-2.5,1.8-4.3C64.9,4.5,64.3,3.1,63.2,2z M61.4,6.1c0,1.1-0.3,2.4-3.3,2.4h-0.6V3.7H58C61,3.7,61.4,5.1,61.4,6.1z"/>
	</g>
	<path class="st0" d="M71.1,14.2c0.3,1.4,0.8,2.5,1.7,3.3c0.9,0.9,2.1,1.3,3.6,1.3s2.8-0.5,3.8-1.5s1.5-2.2,1.5-3.8
		c0-1.1-0.3-2.1-0.9-2.9c-0.6-0.8-1.6-1.5-3-2L76,7.8c-1.5-0.6-2.2-1.5-2.2-2.5c0-0.8,0.3-1.4,0.9-1.9s1.3-0.7,2.2-0.7
		c0.7,0,1.3,0.1,1.7,0.4c0.4,0.2,0.7,0.6,1.1,1.2l1.5-0.9C80.1,1.8,78.7,1,76.9,1c-1.4,0-2.6,0.4-3.6,1.3c-1,0.7-1.5,1.7-1.5,2.9
		c0,1.8,1.1,3.2,3.4,4.2l1.7,0.7c0.5,0.2,0.9,0.4,1.2,0.7c0.4,0.2,0.7,0.5,0.9,0.8c0.2,0.3,0.4,0.6,0.5,0.9c0.1,0.3,0.2,0.7,0.2,1.1
		c0,1-0.3,1.8-1,2.5c-0.6,0.7-1.5,1-2.4,1c-1.2,0-2.2-0.5-2.8-1.3c-0.3-0.4-0.5-1-0.7-1.9L71.1,14.2z"/>
	<polygon class="st0" points="100.4,18.4 107.5,18.4 107.5,16.7 102.2,16.7 102.2,1.2 100.4,1.2 	"/>
	<path class="st0" d="M117.1,0.7l-8.2,17.7h2l2-4.4h8.3l1.9,4.4h2L117.1,0.7z M113.6,12.3l3.5-7.6l3.3,7.6H113.6z"/>
	<path class="st0" d="M137.2,3.4c-0.9-0.8-1.8-1.4-2.9-1.7c-1-0.3-2.4-0.5-4.2-0.5h-3.3v17.2h3.3c1.8,0,3.2-0.2,4.1-0.5
		c1-0.3,2-0.9,2.9-1.7c1.8-1.6,2.8-3.8,2.8-6.4C139.9,7.2,139,5,137.2,3.4z M135.9,14.9c-0.7,0.6-1.5,1.1-2.4,1.4
		c-0.9,0.3-1.9,0.4-3.2,0.4h-1.7V2.9h1.7c2.4,0,4.3,0.6,5.6,1.8c1.4,1.3,2.1,3,2.1,5.1C138,11.9,137.3,13.6,135.9,14.9z"/>
	<path class="st0" d="M180.6,3.5c-1.7-1.7-3.9-2.6-6.3-2.6c-2.5,0-4.6,0.9-6.4,2.6c-1.8,1.7-2.7,3.8-2.7,6.2c0,2.7,1,5,2.9,6.7
		c1.8,1.5,3.8,2.3,6,2.3c2.5,0,4.7-0.9,6.4-2.6c1.8-1.7,2.6-3.8,2.6-6.3C183.3,7.4,182.4,5.3,180.6,3.5z M179.3,14.9
		c-1.4,1.4-3.1,2.1-5.1,2.1c-1.9,0-3.5-0.7-4.9-2c-1.4-1.4-2.1-3.1-2.1-5.2c0-2,0.7-3.7,2.1-5.1c1.4-1.4,3.1-2.1,5.1-2.1
		s3.7,0.7,5.1,2.1c1.4,1.4,2.1,3.1,2.1,5.1C181.4,11.8,180.7,13.5,179.3,14.9z"/>
	<path class="st0" d="M190.4,10.8l0.7-0.1c1.1-0.2,2-0.8,2.6-1.6c0.7-0.8,1-1.8,1-3c0-1.5-0.5-2.7-1.6-3.6c-1-0.8-2.6-1.2-4.9-1.2
		h-2.8v17.2h1.8V11h1.2l5.1,7.4h2.2L190.4,10.8z M187.3,9.5V2.9h1.4c3.5,0,4.2,1.7,4.2,3.2s-0.7,3.4-4.3,3.4H187.3z"/>
	<polygon class="st0" points="207.5,18.4 210,18.4 202.1,8.9 209.8,1.2 207.4,1.2 199.8,9.1 199.8,1.2 197.9,1.2 197.9,18.4 
		199.8,18.4 199.8,11.2 200.8,10.1 	"/>
	<path class="st0" d="M210.4,14.2c0.3,1.4,0.8,2.5,1.7,3.3c0.9,0.9,2.1,1.3,3.6,1.3s2.8-0.5,3.8-1.5s1.5-2.2,1.5-3.8
		c0-1.1-0.3-2.1-0.9-2.9c-0.6-0.8-1.6-1.5-3-2l-1.8-0.7c-1.5-0.6-2.2-1.5-2.2-2.5c0-0.8,0.3-1.4,0.9-1.9c0.6-0.5,1.3-0.7,2.2-0.7
		c0.7,0,1.3,0.1,1.7,0.4c0.4,0.2,0.7,0.6,1.1,1.2l1.5-0.9c-1.1-1.6-2.5-2.4-4.3-2.4c-1.4,0-2.6,0.4-3.6,1.3
		c-0.9,0.8-1.4,1.8-1.4,3.1c0,1.8,1.1,3.2,3.4,4.2l1.7,0.7c0.5,0.2,0.9,0.4,1.2,0.7c0.4,0.2,0.7,0.5,0.9,0.8s0.4,0.6,0.5,0.9
		c0.1,0.3,0.2,0.7,0.2,1.1c0,1-0.3,1.8-1,2.5c-0.6,0.7-1.5,1-2.4,1c-1.2,0-2.2-0.5-2.8-1.3c-0.3-0.4-0.5-1-0.7-1.9L210.4,14.2z"/>
	<path class="st0" d="M158.6,19.5l7.6-18.3h-2l-5.5,13.5l-3.1-7.2l2.5-5.5h-6.5l2.2,5.5l-3.2,7.2L145,1.2h-2l7.6,18.3l4-9.8
		L158.6,19.5z M155.5,3.7l-0.8,1.9l-0.8-1.9C153.9,3.7,155.5,3.7,155.5,3.7z"/>
	<path class="st0" d="M90.7,0.7l-8.2,17.7h2l2-4.4l0.1-0.2c1.2,0.8,2.6,1.3,4.1,1.3s2.9-0.4,4-1.3l0.1,0.2l1.9,4.4h2L90.7,0.7z
		 M87.3,12.1l3.4-7.4l3.3,7.5C92,13.7,89.2,13.7,87.3,12.1z"/>
</g>
</svg>
