<?xml version="1.0" encoding="utf-8"?>
<!-- Generator: Adobe Illustrator 19.2.1, SVG Export Plug-In . SVG Version: 6.00 Build 0)  -->
<svg version="1.1" xmlns="http://www.w3.org/2000/svg" xmlns:xlink="http://www.w3.org/1999/xlink" x="0px" y="0px"
	 viewBox="0 0 720 506.7" style="enable-background:new 0 0 720 506.7;" xml:space="preserve">
<style type="text/css">
	.st0{fill:#FFFFFF;}
</style>
<g id="レイヤー_2">
	<g>
		<path class="st0" d="M4.4,17.3c-1.7,0-2.6,0-3.6,0.2v-4.3c1,0.2,1.8,0.2,3.7,0.2h1c-0.6-2.2-1-3.3-1.8-4.7l3.5-0.9H5.3
			c-1.8,0-2.7,0-3.8,0.2V3.7c1,0.2,1.9,0.2,3.8,0.2h3V3.3c0-1.4,0-1.9-0.2-2.9H13c-0.2,1-0.2,1.5-0.2,2.9v0.6h2.7
			c1.9,0,2.7,0,3.7-0.2V8c-1.1-0.1-2-0.2-3.8-0.2h-1.6l3.4,1C17,9.3,17,9.3,16.7,10.2c-0.2,0.4-0.2,0.4-0.7,1.5
			c-0.3,0.7-0.4,1-0.9,1.8h0.8c1.8,0,2.6,0,3.7-0.2v4.3c-1.1-0.1-2-0.2-3.7-0.2h-3.2v2.8h3.1c1.7,0,2.6,0,3.6-0.2v4.2
			c-1-0.1-2-0.2-3.6-0.2h-1.5c1.2,1.4,2.2,2.2,4.1,3.5c-0.9,1.5-1.3,2.3-1.9,3.8c-2-1.8-2.6-2.5-3.9-4.3c0,0.5,0,0.5,0.1,1.6
			c0,0.1,0,1.4,0,1.6v4c0,1.4,0.1,2.4,0.2,3.3H8.3c0.1-0.9,0.2-1.9,0.2-3.2v-4c0-0.8,0-1.8,0.1-2.7C7,30.6,5.2,32.7,2,35
			c-0.6-1.6-1.1-2.8-2-4.1C3,29,5.3,26.8,7,24H4.4c-1.7,0-2.6,0-3.6,0.2V20c1,0.2,1.8,0.2,3.7,0.2h4v-2c0-0.7,0-0.7,0-0.8H4.4z
			 M7.4,7.8c0.9,1.7,1.2,2.6,1.7,4.6l-3.6,1h5.5c1.1-2.1,1.6-3.4,2.2-5.6H7.4z M34.2,12.6c1.8,0,2.8-0.1,3.6-0.2v4.4
			c-1-0.1-1.6-0.2-3.2-0.2h-1v16.1c0,2.4,0,3.5,0.2,4.7h-4.7c0.2-1.2,0.2-2.4,0.2-4.7V16.7h-4.3c0,5.1-0.5,9.3-1.5,12.9
			c-0.8,3.1-2,5.9-3.6,8c-1.6-1.3-2.3-1.8-4-2.6c3.8-4.6,4.8-9.9,4.8-25c0-3.4,0-4.6-0.2-6.2c4.5-0.1,11.4-1.9,13.5-3.4l3.3,3.9
			c-0.4,0.1-0.6,0.2-1.3,0.4c-3.2,1.2-5.7,1.8-11,2.7v5.3H34.2z"/>
		<path class="st0" d="M45.5,5.7c-1.7,0-2.7,0-3.6,0.2V1.6c1.2,0.1,2.5,0.2,4.3,0.2h10.8c2.1,0,3.2,0,4.3-0.2v4.3
			c-1-0.1-1.6-0.2-3.4-0.2v4h0.3c1.9,0,2.8,0,3.9-0.2v4.3c-1.1-0.1-2.1-0.2-3.8-0.2h-0.4v3.8c0,1.4,0,2,0.1,3.2h3.3
			C61,21.4,61,22,61,23.2v1.2h8c2.2,0,3.7-0.1,4.7-0.2v4.4c-1.2-0.1-2.6-0.2-4.6-0.2H61V32h11.3c2.2,0,3.6-0.1,4.7-0.2v4.5
			c-1.4-0.2-2.9-0.2-5-0.2H46c-2.1,0-3.6,0.1-4.9,0.2v-4.5c1.1,0.1,2.6,0.2,4.6,0.2h10.8v-3.6H49c-1.9,0-3.3,0.1-4.6,0.2v-4.3
			c1.1,0.2,2,0.2,4.1,0.2h8v-1.2c0-0.4,0-0.7,0-1.3h-3.1c0.2-1.2,0.2-2.7,0.2-4.4v-3.9h-3.9c-0.2,1.9-0.7,3.4-1.4,5
			c-0.9,1.9-2,3.2-4.3,5.1c-1-1.4-1.7-2.2-3.2-3.3c3-2.1,4-3.6,4.6-6.8h-0.6c-1.6,0-2.7,0-3.8,0.2V9.5c1.2,0.2,2.2,0.2,3.9,0.2h0.9
			c0-0.3,0-1.6,0-4H45.5z M50,5.7c0,0.3,0,0.7,0,1.2c0,1,0,1.9,0,2.8h3.6v-4H50z M63.2,16.8c0.1-0.9,0.2-1.9,0.2-3.2V5.8
			c0-1.4-0.1-2.4-0.2-3.3h4.6c-0.1,0.8-0.2,1.7-0.2,3v8.4c0,1.3,0,2.1,0.1,2.9H63.2z M75.8,18.1c0,3.4-1.1,4.2-5.8,4.2
			c-1.1,0-2.1,0-3.3-0.2c-0.2-1.9-0.5-2.9-1.2-4.4c1.6,0.2,3.2,0.4,4.2,0.4c1.5,0,1.6-0.1,1.6-0.9V4.1c0-1.6,0-2.4-0.2-3.4H76
			c-0.1,0.8-0.2,2-0.2,3.8V18.1z"/>
		<path class="st0" d="M89.6,32.2c-2.8,0-3.7,0-4.9,0.2v-5.2c1.5,0.2,2.2,0.3,5,0.3h18.2V10H90.3c-2.8,0-3.7,0-5.1,0.2V5
			c1.5,0.2,2.2,0.3,5.2,0.3h19.2c2.1,0,2.1,0,3.5-0.1C113,6.3,113,6.7,113,8.5v22c0,2,0,3.1,0.2,4.1h-5.4v-2.4H89.6z"/>
		<path class="st0" d="M129.5,31.8v2.8h-5.2c0.1-1,0.2-1.9,0.2-3.4V8.2c0-1.5,0-2.3-0.2-3.4c1,0.1,1.8,0.1,3.4,0.1h22.7
			c1.7,0,2.4,0,3.4-0.1c-0.1,1-0.1,1.8-0.1,3.3v22.9c0,1.5,0,2.6,0.2,3.5h-5.2v-2.8H129.5z M148.7,9.5h-19.2v17.7h19.2V9.5z"/>
		<path class="st0" d="M190.6,11.4c2.8,0,3.6,0,5.2-0.3v5c-1.4-0.2-2.5-0.2-5.1-0.2h-8.2c-0.4,5.6-1,8.2-2.9,11.3
			c-2.2,3.6-5,6.1-10.2,9c-1.4-2.3-2-3-3.6-4.3c4.8-2.1,7.8-4.6,9.6-7.9c1.2-2.2,1.6-4,2-8h-9.9c-2.6,0-3.7,0-5.1,0.2v-5
			c1.6,0.2,2.4,0.3,5.2,0.3h10.1c0-1.7,0-2.4,0-3.1V5.9c0-1.7,0-2.8-0.2-3.8h5.5c-0.2,1.3-0.2,1.3-0.2,3.8l0,2.4c0,2.6,0,2.6,0,3.1
			H190.6z"/>
		<path class="st0" d="M234.9,9.8c-0.4,0.8-0.4,1-0.6,2.2c-0.7,4.6-1.3,6.8-2.5,9.7c-2,4.6-5.2,8.2-9.9,11c-2.4,1.5-4.5,2.4-8,3.6
			c-0.9-2-1.4-2.8-3.2-4.8c3.8-0.9,6-1.8,8.5-3.3c5.8-3.6,8.8-8.7,9.6-16h-19.5v5.2c0,1.2,0,2.3,0.1,3.2h-5.4c0.1-1,0.2-2.2,0.2-3.4
			v-5.8c0-1.7,0-2.7-0.2-3.8c1.4,0.2,2.1,0.2,4.3,0.2h7.8V4.3c0-1.3,0-2-0.2-2.9h5.6c-0.1,0.7-0.2,1.8-0.2,2.9v3.4h7.2
			c3,0,3,0,3.9-0.3L234.9,9.8z"/>
		<path class="st0" d="M274.2,4.8c-0.7,0.6-0.9,0.8-1.5,1.4c-3,3.1-6,5.7-9.4,8.2v17.1c0,2.2,0,3.4,0.2,4.4h-5.6
			c0.2-1.2,0.2-2,0.2-4.3V17.6c-4.7,2.8-6.9,3.8-14.3,6.5c-0.8-2.1-1.3-2.8-2.7-4.6c7.9-2.2,14.6-5.5,21-10.4
			c3.6-2.8,6.3-5.5,7.4-7.5L274.2,4.8z"/>
		<path class="st0" d="M293.8,3.1c-0.2,1.1-0.2,1.1-0.4,9c-0.3,7.8-1.2,12.3-3.2,16.4c-1.4,2.8-2.9,4.8-5.5,7.4
			c-1.6-2-2.2-2.6-4-3.9c2-1.6,2.9-2.7,4.1-4.6c2.9-4.6,3.8-9.8,3.8-21c0-2.2,0-2.6-0.2-3.6L293.8,3.1z M304.4,2.6
			c-0.2,1.2-0.2,1.8-0.3,3.8l-0.2,22.8c2.8-1.3,4.4-2.5,6.1-4.6c1.8-2.2,3-4.4,3.9-7.3c1.4,1.8,1.9,2.3,3.8,3.8
			c-1.6,4-3.7,7-6.4,9.3c-2.3,2-4.4,3.2-8.5,4.8c-0.9,0.3-1.2,0.5-1.7,0.7l-2.6-2.7c0.3-1.2,0.3-2,0.4-4.2l0.2-22.6V5.2
			c0-1,0-1.9-0.2-2.6L304.4,2.6z"/>
		<path class="st0" d="M352.5,35.4c-3.3-4.1-7.9-8.6-12.3-11.9c-4.5,5-9.1,8.6-15.2,11.6c-1.1-2.1-1.6-2.7-3.2-4.4
			c3.1-1.2,5-2.3,8-4.4c6-4.2,10.8-10,13.4-16.3l0.4-1c-0.6,0-0.6,0-13.2,0.2c-1.9,0-3,0.1-4.4,0.3l-0.2-5.1
			c1.1,0.2,1.9,0.2,3.5,0.2c0.2,0,0.5,0,1,0l14.1-0.2c2.2,0,2.6-0.1,3.6-0.4l2.6,2.7c-0.5,0.6-0.8,1.2-1.3,2.2
			c-1.8,4.3-3.8,7.8-6.2,11c2.5,1.7,4.7,3.4,7.4,5.8c1,0.9,1,0.9,5.8,5.6L352.5,35.4z"/>
		<path class="st0" d="M374.4,4.5c0.1,2.4,1.2,7.6,2.4,11.3c2.3-0.9,2.3-0.9,9.3-3.2c0.6-0.2,0.8-0.3,1.4-0.5l1.5,4.5
			c-3.1,0.6-7.8,2-11.9,3.5c-5.3,1.9-7.9,4.2-7.9,6.8c0,2.6,2.4,3.7,8.2,3.7c4.5,0,8.9-0.5,11.6-1.5l0.4,4.9c-0.8,0-1,0-2.9,0.3
			c-3.9,0.4-5.9,0.5-8.4,0.5c-5,0-8.1-0.6-10.4-2c-2-1.2-3.1-3.4-3.1-6c0-2.4,1.2-4.7,3.2-6.4c1.4-1.2,2.6-1.9,4.9-3.1
			c-0.9-2.9-1.5-5.3-2.4-9.8c-0.4-1.7-0.4-1.8-0.6-2.3L374.4,4.5z"/>
		<path class="st0" d="M411.4,33.1c-3.8,0.7-3.8,0.7-8.1,1.4c-3.2,0.4-4.6,0.7-5.6,0.9l-0.9-4.1c0.3,0,0.4,0,0.6,0
			c0.6,0,1.8-0.1,3.4-0.2V18.6c-1.8,0-2.8,0-4,0.2V15c1.1,0.2,2.1,0.2,4.1,0.2h28.3c2,0,3,0,4.2-0.2v3.9c-1.3-0.2-2.2-0.2-4.2-0.2
			h-13.9v14.6c2.1-0.8,3.9-1.7,5.4-2.8c-1.4-1.6-2.2-2.7-3.6-5.1l3.4-1.5h-1c-1.3,0-2,0-3,0.2v-3.8c0.9,0.1,1.7,0.2,3.4,0.2h6.7
			c1.4,0,2.4,0,3-0.2l2.1,2.3c-0.3,0.4-0.4,0.6-0.6,1.2c-1.3,2.6-2.9,5-4.6,6.8c1.8,1.2,4,2,7.1,2.8c-0.8,1.2-1.4,2.4-2,3.9
			c-4.2-1.6-5.4-2.2-7.8-4.2c-2,1.6-3.6,2.6-6.2,3.9c-0.5-1.3-1.2-2.4-2.1-3.4c0,1.6,0,2.8,0.2,3.8h-4.4c0.2-1,0.2-2,0.2-4V33.1z
			 M429.2,10.4c0,1.6,0,2.5,0.2,3.5c-0.9-0.1-2.4-0.1-3.7-0.1h-20.3c-1.8,0-2.9,0-4.1,0.1c0.1-1,0.2-2,0.2-3.4V5
			c0-1.5,0-2.5-0.2-3.5c1.3,0.1,2.4,0.2,4.2,0.2h19.7c1.8,0,2.9,0,4.2-0.2c-0.1,1-0.2,1.9-0.2,3.5V10.4z M411.4,18.6h-6.6v1.8h6.6
			V18.6z M411.4,23.4h-6.6v1.9h6.6V23.4z M411.4,28.2h-6.6v2.5c2-0.2,2.9-0.3,6.6-0.9V28.2z M405.4,6.4H425V4.8h-19.6V6.4z
			 M405.4,10.8H425V9.2h-19.6V10.8z M420.7,23.8c1.1,2,1.6,2.9,2.8,4.2c1.2-1.3,1.9-2.3,3-4.2H420.7z"/>
		<path class="st0" d="M447.4,5.6c-1-1.7-1.6-2.5-3.2-4.4l4.3-1.2c2,2.6,2.5,3.4,3.7,5.6h5.4c1.6-1.9,2.5-3.4,3.5-5.6l4.5,1.2
			c-1,1.6-2.2,3.2-3.2,4.4h6.2c2,0,3.2-0.1,4.3-0.2v4.3c-1.2-0.2-2.2-0.2-4.3-0.2h-27.2c-1.9,0-3,0-4.3,0.2V5.4
			c1.6,0.2,2.2,0.2,4.3,0.2H447.4z M443.6,32.9c0,2,0,3.1,0.2,4.3h-4.6c0.2-1.3,0.2-2.5,0.2-4.6V15.4c0-2,0-2.6-0.1-3.6
			c1.2,0.1,2.2,0.2,3.8,0.2h7.8c2,0,2.7,0,3.6-0.2c-0.1,1-0.1,1.9-0.1,4V33c0,3.1-0.9,3.8-4.6,3.8c-0.6,0-1.1,0-2.5,0
			c-0.3-1.9-0.4-2.4-1-3.9c1.3,0.2,2.1,0.2,2.8,0.2c1,0,1.2-0.2,1.2-0.9v-3.4h-6.6V32.9z M450.1,18.5v-2.8h-6.6v2.8H450.1z
			 M450.1,25.1v-2.8h-6.6v2.8H450.1z M462.4,12.5c-0.2,1.1-0.2,1.8-0.2,3.8v8.6c0,2.6,0,3.2,0.2,4.3h-4.5c0.1-1.2,0.2-1.9,0.2-4.3
			v-8.6c0-1.8,0-2.6-0.2-3.8H462.4z M471,11.4c-0.2,1.1-0.2,2.2-0.2,4.2v16.8c0,1.8-0.3,2.8-0.9,3.4c-0.8,0.8-1.9,1.1-4.5,1.1
			c-1,0-1.8,0-4.3-0.2c-0.2-1.6-0.5-2.6-1.2-4.2c2.2,0.3,3.7,0.4,4.9,0.4c1.6,0,1.8-0.2,1.8-1.3V15.6c0-2.2,0-3-0.2-4.1H471z"/>
		<path class="st0" d="M476.9,17.4c0.7,0.1,1,0.1,1.9,0.1c0.2,0,0.3,0,1.2,0c1-1.3,1.3-1.7,2.2-3c-2.2-2.7-3.2-3.8-5.4-5.9l2.1-3.4
			l1.5,1.6c1.6-2.6,2.8-5,3.1-6.7l3.9,1.4c-0.2,0.4-0.4,0.8-0.9,1.7c-1,2-2.3,4.3-3.6,6.3c0.7,0.8,0.7,0.8,1.5,1.9
			c1.8-2.8,3.2-5.3,3.8-6.8l3.6,1.9c-0.5,0.8-0.8,1.2-1.4,2.2c-2.4,3.8-3.9,6-6,8.6c2.4-0.2,3.3-0.2,4.4-0.4
			c-0.5-1.6-0.6-1.8-1.2-3.2l3-1.2c1.3,3.2,1.7,4.4,2.5,7.4l-3.1,1.4c-0.1-0.5-0.1-0.5-0.2-1.2c-1.7,0.2-1.7,0.2-3,0.3v12.6
			c0,2.1,0,3,0.2,4.2h-4.3c0.2-1.4,0.2-2.4,0.2-4.2V21c-0.2,0-0.8,0-1.6,0.1c-3,0.2-3,0.2-3.9,0.4L476.9,17.4z M481.8,23.3
			c-0.4,7-0.7,9-1.6,12.2l-3.4-1.7c1-3,1.2-4.9,1.6-10.9L481.8,23.3z M490.4,22.6c0.8,3.6,1,4.9,1.3,8l-3.2,0.9
			c-0.2-3.4-0.4-5.1-1-8.1L490.4,22.6z M493.8,24.7c-1.1,0-1.6,0-2.3,0.2v-4c0.7,0.1,1.1,0.2,2.4,0.2h2.7c0.9,0,1.4,0,1.9-0.1
			l1.4,1.9c-0.2,0.4-0.2,0.5-0.4,1.1c-1,3.1-1.8,4.9-3.3,7.1c-1.4,2-2.2,3-4.6,5.2c-0.6-1.2-1.4-2-2.7-3.2c3.2-2.3,5.2-4.8,6.6-8.2
			H493.8z M504.4,18.3c0.4,1.9,0.9,3.1,2,5c1.7-1.4,2.8-2.6,4.3-4.5l2.8,2.6c-2,2.2-3.5,3.5-5.2,4.9c2,2.6,3.6,4.2,6.2,5.9
			c-1.1,1.2-1.7,2.1-2.6,4c-1.9-1.6-2.9-2.6-4.2-4.3c-1.7-2.2-2.6-3.8-4-7.3c0.2,2.4,0.4,4.2,0.4,5.4l0,3.5c0,2.6-1.3,3.6-4.8,3.6
			c0,0-0.2,0-0.2,0h-1c-0.7,0-0.7,0-1.4-0.1c-0.2-1.8-0.5-2.8-1.1-4c1.4,0.2,2.3,0.4,3.3,0.4c1,0,1.2-0.2,1.2-1V18.3h-3.4
			c-1.4,0-2.8,0-4,0.2c0.1-1,0.2-2.4,0.2-3.9V7.3c0-1.5,0-2.8-0.2-3.9c1,0.1,2,0.2,3.9,0.2h2.3c0.6-1.6,0.8-2.4,1.1-3.5l4.5,0.6
			c-0.5,1.3-0.8,1.9-1.2,2.9h4.4c2,0,2.9,0,3.9-0.2c-0.1,1.2-0.2,2.1-0.2,4v7.2c0,1.8,0,2.8,0.2,3.8c-1.1-0.1-2.4-0.2-3.8-0.2H504.4
			z M497,9.4h10.4V6.8H497V9.4z M497,15h10.4v-2.5H497V15z"/>
		<path class="st0" d="M517.7,9c0.8,0,1.2,0,1.4,0c0.6,0,0.6,0,5.9-0.4c2-0.1,8-0.4,18-0.9c3-0.1,3.5-0.2,4.1-0.3l0.3,4.6
			c-0.4,0-0.4,0-0.8,0c-2.2,0-4.8,0.7-7.1,1.9c-4.6,2.4-7.3,6-7.3,9.6c0,2.8,1.8,5,4.8,5.9c1.8,0.5,4.1,0.9,5.4,0.9c0,0,0.4,0,0.7,0
			l-0.6,4.9c-0.4-0.1-0.6-0.1-1.2-0.2c-4-0.5-6.2-1.2-8.4-2.4c-3.3-1.9-5.1-4.9-5.1-8.7c0-3.1,1.2-6.1,3.4-8.5
			c1.4-1.5,2.7-2.4,5-3.6c-2.9,0.4-4.3,0.6-12.1,1.2c-2.4,0.2-4.6,0.4-6,0.7L517.7,9z M542.4,14.3c1.4,1.7,2.1,2.6,3.2,4.9l-2.7,1.4
			c-1.1-2.1-1.9-3.5-3.2-4.9L542.4,14.3z M546.8,18.6c-1-2-1.9-3.3-3.1-4.8l2.6-1.3c1.4,1.5,2.2,2.7,3.2,4.6L546.8,18.6z"/>
		<path class="st0" d="M558.3,32.6c0,2.6,0,3.8,0.2,4.7h-4.6c0.2-1.2,0.2-2.5,0.2-5V6c0-1.9-0.1-3.8-0.2-4.6
			c0.6,0.1,2.1,0.2,4.1,0.2h7.5c1.6,0,3.3-0.1,4.1-0.2c-0.1,0.8-0.1,2-0.1,3.8v4.9c0,1.9,0,2.4,0.1,3.5c-1.3-0.1-2.3-0.1-3.6-0.1
			h-7.6V32.6z M558.3,6.2h7.3V4.6h-7.3V6.2z M558.3,10.6h7.3V8.9h-7.3V10.6z M559,32.1c2,0,3.4-0.2,6.5-0.7c0.7-1.5,1.2-2.8,1.6-4.4
			l3.2,1c-0.8,1.9-0.8,1.9-1.3,2.8c0.8-0.2,1.3-0.3,3.1-0.7v3.2c-4.7,1.1-6.4,1.4-9.6,2c-1.4,0.2-2.1,0.3-2.7,0.5L559,32.1z
			 M581,31.1c0,0.8,0,1.3-0.2,1.8l0.5,0c0.3,0,0.7,0,1,0c1.2,0,1.4-0.2,1.4-1V13.5h-7.9c-1.3,0-2.4,0-3.7,0.1c0.1-1,0.1-2.3,0.1-3.5
			V5.2c0-1.3,0-2.8-0.1-3.8c0.5,0.1,0.6,0.1,1.2,0.1c0.2,0,0.6,0,1,0c0.9,0,1.6,0,1.9,0h7.8c2,0,3.2,0,4.1-0.2C588,2.5,588,4,588,6
			v26.9c0,1.6-0.3,2.6-1,3.2c-0.7,0.6-1.7,0.8-3.9,0.8c-0.8,0-2.2,0-3-0.1c-0.2-1.2-0.2-1.5-0.5-2.5c-0.8,0.4-1.5,0.4-3.1,0.4
			c-0.6,0-0.6,0-2.4-0.2c-0.1-1.7-0.3-2.4-0.8-3.6c1,0.2,2,0.3,2.8,0.3c1.1,0,1.3-0.2,1.3-0.9V21h-3.8c-0.9,0-1.6,0-2.2,0.1v-3
			c-0.3,0-0.3,0-2-0.1h-7.6c-0.8,0-1.5,0-2.3,0.1v-3.3c0.5,0.1,1.2,0.2,2.6,0.2h7c1.3,0,2,0,2.6-0.2v2.9c0.5,0,1,0.1,1.6,0.1h4.2
			v-0.4c0-1.4,0-2.1-0.2-3.1h4c-0.1,0.8-0.2,1.6-0.2,3v0.4h0.4c0.8,0,1.2,0,1.8-0.1v3.4c-0.7-0.1-1.2-0.1-1.8-0.1H581V31.1z
			 M570.8,24.9c0,1.2,0,1.5,0.1,1.9c-0.4-0.1-1-0.1-2-0.1h-6c-0.8,0-1.7,0-2.6,0.1c0-0.5,0.1-1.4,0.1-2.2v-2.9c0-1,0-1.7-0.1-2.4
			c0.6,0.1,1,0.1,2.6,0.1h6.1c1,0,1.4,0,2-0.1c0,0.5,0,0.5-0.1,2.1V24.9z M562.2,31.5c-0.3-1.3-0.7-2.3-1.4-3.4l2.9-1.1
			c0.7,1.2,1,1.7,1.4,3.4L562.2,31.5z M563.4,24.2h4.2V22h-4.2V24.2z M574.1,29.2c-0.8-2.2-1.6-3.8-2.9-5.8l2.7-1.5
			c1.5,2.2,2.3,3.6,3.1,5.6L574.1,29.2z M576.3,6.2h7.5V4.6h-7.5V6.2z M576.3,10.6h7.5V8.9h-7.5V10.6z"/>
		<path class="st0" d="M595.9,16.2c0.9,0,0.9,0,4.2-0.6c5.1-0.9,8.2-1.2,11.3-1.2c2.9,0,5.1,0.5,6.8,1.5c2.2,1.3,3.5,3.7,3.5,6.6
			c0,4.1-2.5,7.8-6.8,10.3c-3,1.7-5.5,2.4-11.3,3.4c-0.4-1.9-0.8-2.8-1.9-4.5c4.2-0.2,8.1-1.2,10.8-2.7c2.8-1.6,4.4-3.9,4.4-6.3
			c0-2.7-1.9-4.1-5.7-4.1c-4.1,0-11.3,1.3-14.3,2.5L595.9,16.2z M601.5,4.7c4,1.3,9.3,2.1,15,2.1c0.2,0,0.6,0,1,0l-0.6,4.4
			c-6.6-0.3-11.5-0.9-16.8-2.3L601.5,4.7z"/>
		<path class="st0" d="M14.3,73.1c-1,1.2-1.6,1.9-3.1,3.3c-0.9-1-1.8-1.7-3.4-2.6c2.8-2.3,4.4-4.2,5.5-6.5c0.2-0.5,0.4-0.8,0.6-1.6
			H6.6v26h26.1c2,0,3.4-0.1,4.4-0.2v4.5c-1.2-0.2-2.4-0.3-4.4-0.3H6.6v1.6H2c0.2-1.4,0.2-2.7,0.2-4.6V66c0-1.7,0-3-0.2-4.3
			c1.3,0.2,2.3,0.2,4.3,0.2h25.7c2,0,3.1-0.1,4.5-0.3V66c-1.3-0.2-2.4-0.2-4.4-0.2H14.5l3.5,1c-0.2,0.3-0.2,0.4-0.3,0.7
			c-0.3,0.6-0.3,0.6-1,1.8h13.2c1.9,0,2.9,0,3.9-0.2v4.2c-1.2-0.2-2.4-0.2-3.9-0.2h-6.2c0,0.4,0,0.4,0,0.9c0,1.2-0.1,2-0.2,3.1h8.8
			c1.8,0,2.7,0,3.8-0.2v4.2c-1.1-0.2-2.2-0.2-4-0.2h-7.5c2,3.2,5.4,5,11.7,6.1c-0.9,1.3-1.3,2.2-2.1,4.2c-6.5-1.8-10-4.1-12.6-8.2
			c-2.2,3.8-5.8,6.4-11.6,8.2c-0.6-1.5-1.4-2.8-2.4-3.8c3-0.8,4.3-1.2,6-2.2c2.2-1.3,3.7-2.6,4.6-4.3h-5.6c-2.2,0-3.1,0-4.3,0.2
			v-4.2c1.2,0.2,2.1,0.2,4.4,0.2h6.5c0.2-1.4,0.2-1.8,0.2-4H14.3z"/>
		<path class="st0" d="M73,85.2c0,2,0,2.5,0.1,3.5c-0.8-0.1-1.4-0.1-2.5-0.1c2.2,2.4,3.9,3.7,6.8,5.1c-0.9,1-1.6,2.1-2.3,3.5
			c-3.5-2-5.3-3.6-8-6.7l2.6-1.8H65v5.7c0,1.2-0.4,2.1-1,2.5c-0.7,0.5-1.6,0.7-3.5,0.7c-1.4,0-2.9,0-4.5-0.2c-0.1-1.5-0.3-2.4-1-4
			c1.7,0.3,3.1,0.4,4.4,0.4c1.3,0,1.5-0.1,1.5-1v-4.2h-4.4c-0.8,0-1,0-1.8,0l2.6,1.5c-2.3,3.2-4,4.8-7.2,7c-1.2-1.5-1.6-2-2.8-2.9
			c3.2-1.9,4.8-3.3,6.2-5.5c-0.4,0-0.4,0-0.6,0c0.1-1,0.1-1.6,0.1-3.4v-3.9c-0.8,0.5-1.2,0.7-2.4,1.4c-0.3-1-0.5-1.3-0.9-2.3
			c-0.3,4.1-0.9,7.2-1.8,9.8C47,92.9,46,94.6,44,97.2c-1.2-1.5-1.8-2.1-3.2-3.2c2.7-3.2,3.8-6.1,4.5-11.6c-1.2,0.7-2.7,1.6-3.6,2.1
			c-0.2,0.1-0.5,0.2-0.8,0.4l-1.2-4.2c1.4-0.3,3.6-1.2,6-2.5c0.1-1.4,0.1-2,0.1-3.8l-2.9,1.9c-0.8-3-1.6-4.9-3-7.4l3-1.8
			c1.3,2.3,1.9,3.7,2.8,6.4c0-0.3,0-0.7,0-1.4s0-3,0-4.2c0-3.1,0-3.6-0.2-5c1.4,0.2,2.8,0.2,4.9,0.2h8v-0.3c0-1,0-1.6-0.2-2.4h4.9
			C63.1,61,63,61.6,63,62.6v0.3h9.5c2.2,0,3.6,0,4.9-0.2v4c-1.4-0.1-2.4-0.2-4.4-0.2h-8.8c-0.3,1-0.4,1.4-0.7,2h9.2
			c1.8,0,2.9,0,4.1-0.2v3.8c-1.2-0.2-2.1-0.2-4-0.2h-5.4c1,1.4,1.6,2,2.9,3.1c1.4-1.2,1.9-1.7,2.7-3l3.2,2c-1.6,1.5-1.9,1.8-3.1,2.8
			c1.8,0.9,2.8,1.3,4.8,1.9c-0.9,1.5-1.2,2-1.7,3.7c-1.6-0.6-2.2-0.9-3.4-1.6V85.2z M49.9,72.2c0,2.4,0,4.2-0.2,6.6
			c1.4-0.6,2.2-1.2,3.4-2c-1-1-1.5-1.5-2.8-2.4l2.5-2.1c1.4,1.2,2.1,1.7,2.8,2.4c1-1,1.5-1.6,2.2-2.8h-3.4c-1.8,0-2.7,0-3.7,0.2
			v-3.8c1.1,0.1,2,0.2,3.8,0.2h4.9c0.3-0.7,0.4-1.1,0.7-2H49.9V72.2z M57,80.9h12v-1.7H57V80.9z M57,85.4h12v-1.7H57V85.4z M66.5,76
			c-1.3-1.3-1.8-2-3-4H62c-0.9,1.6-1.6,2.7-2.7,4H66.5z"/>
		<path class="st0" d="M84.8,85.8c0-1.7,0-2,0.1-4.6c-1.2,1.4-1.4,1.6-3,3c-0.5-1.8-1-3-1.8-4.4c3.8-2.6,7.3-6.7,8.9-10.3l3.6,2.5
			c-0.4,0.4-0.4,0.5-1.3,1.9c-0.7,1-0.8,1.2-2.2,3v15.8c0,2.2,0,3.5,0.2,4.7h-4.6c0.2-1.3,0.2-2.8,0.2-4.6V85.8z M92.4,62.9
			c-0.3,0.3-0.4,0.4-0.7,0.8c-3,3.5-6,6-9,8c-0.8-1.7-1.1-2.1-2.3-3.7c3.8-2.2,7.1-5.1,8.5-7.7L92.4,62.9z M98.8,69.2
			c-1.4-3.2-2.3-4.8-4-6.8l3.7-1.8c1.8,2.2,3.1,4.3,4.5,7.1l-3.1,1.5h5.3c2.2-3.4,3.1-5.5,4.1-8.6l4.4,1.4c-1.4,3-2.5,5.1-3.9,7.2
			h3.1c1.8,0,2.9,0,4-0.2v4.3c-1.4-0.2-2.6-0.2-4.2-0.2h-6.2v6.2h5c1.7,0,2.8,0,4-0.2v4.3c-1.2-0.2-2.4-0.2-4-0.2h-5v8.1
			c1.8,0.4,3.7,0.6,6.3,0.6c1.4,0,2.6,0,5.2-0.2c-0.7,2-0.8,2.7-1.2,4.6c-1.9,0-3,0-3.3,0c-5.6,0-9.9-1-12.9-3c-1.5-1-2.8-2.2-4-4.1
			c-1.2,3.4-2.2,5.5-3.7,7.8c-1.2-1.5-1.8-2.1-3.4-3.2c1.9-2.8,3-5.3,3.9-8.8c0.6-2.6,1-5.6,1-7.9c0-0.4,0-0.6,0-0.9l4.5,0.6
			c-0.1,0.7-0.2,1.1-0.3,2.3c-0.2,1.8-0.4,3.7-0.7,5.3c1.1,2.3,2.4,3.9,4.3,5.1V73.1h-5c-1.8,0-3.1,0-4.3,0.2V69
			c1.1,0.2,2.2,0.2,4,0.2H98.8z"/>
		<path class="st0" d="M136.6,80.6h-9.5c-1.4,0-2.6,0-3.7,0.2v-3.5c1,0.1,2,0.2,3.8,0.2h9.4v-1.5h-8.5c-1.4,0-2.4,0-3.4,0.1
			c0.1-0.8,0.1-1.7,0.1-2.7v-2.6c0-1.1,0-1.8-0.1-2.8c1,0.1,1.9,0.1,3.4,0.1h8.4v-1.5h-11c-2,0-3.3,0.1-4.7,0.2v-4
			c1.2,0.2,2.6,0.2,4.9,0.2h10.7c0-1.4-0.1-1.8-0.2-2.7h4.8c-0.2,0.9-0.2,1.3-0.3,2.7h11.2c2.3,0,3.6-0.1,4.9-0.2v4
			c-1.4-0.2-2.8-0.2-4.7-0.2h-11.5V68h9c1.5,0,2.4,0,3.4-0.1c-0.1,0.9-0.1,1.6-0.1,2.8v2.6c0,1.2,0,1.8,0.1,2.7
			c-0.9-0.1-1.9-0.1-3.2-0.1h-9.2v1.5h9c2.4,0,3.2,0,4.3-0.1c-0.1,1-0.1,1.6-0.1,3.6v1.4c1.7,0,2.7-0.1,3.5-0.2V86
			c-1-0.1-1.7-0.2-3.5-0.2v2.3c0,2.1,0,3.2,0.2,4.3h-4.5v-1.6h-8.8v2.2c0,3.6-1,4.4-5.9,4.4c-1,0-2.6-0.1-3.8-0.2
			c-0.2-1.6-0.5-2.4-1.2-4c2.2,0.2,3.6,0.4,5.1,0.4c1.2,0,1.6-0.2,1.6-0.9v-1.9h-9.4c-1.8,0-2.8,0-4,0.2v-3.7
			c1.1,0.1,1.8,0.2,3.8,0.2h9.6v-1.7h-11.5c-2.3,0-3.4,0-4.4,0.2v-3.8c1,0.2,2,0.2,4.3,0.2h11.6V80.6z M129.1,71.2v1.6h7.5v-1.6
			H129.1z M140.9,72.8h8v-1.6h-8V72.8z M149.7,82.4v-1.8h-8.8v1.8H149.7z M140.9,87.5h8.8v-1.7h-8.8V87.5z"/>
		<path class="st0" d="M166,75.8c-2,0-3.4,0.1-4.8,0.2v-4.4c1.1,0.2,2.6,0.2,4.9,0.2h9.1v-3.5h-6c-2.1,0-3.4,0-4.6,0.2v-4.2
			c1,0.2,2.6,0.2,4.7,0.2h5.8v-0.7c0-1.6-0.1-2.4-0.2-3.5h4.9c-0.2,1-0.2,1.9-0.2,3.5v0.7h2.9c2,0,3.3-0.1,4.5-0.2v3.4
			c2.1-2.2,3.8-4.4,4.6-6.1l4,2.6c-0.3,0.3-0.9,1-1.8,2c-1.6,1.9-3.3,3.6-5.4,5.5h4.1c2.1,0,3.3-0.1,4.6-0.2V76
			c-1.3-0.2-2.9-0.2-5-0.2h-8.6c-1.5,1.1-2.5,1.8-4.3,2.9c0.9,0,2.2,0,3.2,0h5.9c1.9,0,3,0,4.2-0.1c-0.1,1.2-0.2,2.1-0.2,4.4v9.9
			c0,2.1,0.1,3.4,0.2,4.5h-4.6v-1.7h-14.5v1.7h-4.7c0.2-1.3,0.2-2.8,0.2-4.5v-6.2c0-0.6,0-1.5,0-2.2c-2.4,1.2-3.3,1.6-6.4,2.8
			c-0.7-1.6-1.2-2.5-2.4-4c6.1-1.8,11.2-4.1,16.5-7.4H166z M173.4,85.3h14.5v-3h-14.5V85.3z M173.4,91.8h14.5v-3.1h-14.5V91.8z
			 M182.4,71.9c1.5-1.2,2.6-2.1,3.8-3.4c-1.1-0.1-1.8-0.1-3.4-0.1h-3.3v3.5H182.4z"/>
		<path class="st0" d="M214.4,64.5c0.1,2.4,1.2,7.6,2.4,11.3c2.3-0.9,2.3-0.9,9.3-3.2c0.6-0.2,0.8-0.3,1.4-0.5l1.5,4.5
			c-3.1,0.6-7.8,2-11.9,3.5c-5.3,1.9-7.9,4.2-7.9,6.8c0,2.6,2.4,3.7,8.2,3.7c4.5,0,8.9-0.5,11.6-1.5l0.4,4.9c-0.8,0-1,0-2.9,0.3
			c-3.9,0.4-5.9,0.5-8.4,0.5c-5,0-8.1-0.6-10.4-2c-2-1.2-3.1-3.4-3.1-6c0-2.4,1.2-4.7,3.2-6.4c1.4-1.2,2.6-1.9,4.9-3.1
			c-0.9-2.9-1.5-5.3-2.4-9.8c-0.4-1.7-0.4-1.8-0.6-2.3L214.4,64.5z"/>
		<path class="st0" d="M239,66.9c1.9,3.2,2.6,4.5,3.4,7l-3,2.6c-1.3-3.5-2.2-5.5-3.4-7.3L239,66.9z M255.4,63.1c0-1.3,0-1.9-0.2-2.8
			h4.9c-0.2,0.8-0.2,1.4-0.2,2.8v0.4h8.8c2,0,3.5-0.1,4.8-0.2v4.3c-1.3-0.2-2.9-0.2-4.8-0.2h-21.8c0,14.3-0.4,17.8-2.6,23.4
			c-1,2.5-2.2,4.5-4.2,6.6c-1.2-1.8-2-2.6-3.3-3.6c1.6-1.4,2.4-2.4,3.4-4.6c0.8-1.8,1.4-3.9,1.8-6.8c-1.2,0.8-2.7,1.6-3.8,2.2
			c-0.2,0.1-0.6,0.3-0.8,0.4l-1.2-4.4c1.5-0.4,3.8-1.3,6.3-2.6c0.1-2.6,0.2-4.1,0.2-7.5c0-1,0-2,0-2.5c0-2.6-0.1-3.2-0.3-4.7
			c1.4,0.2,2.8,0.2,5.1,0.2h8V63.1z M267.3,88.2c-1,1-1.4,1.6-2,2.7c-2.5-1.8-3.8-3.3-5.2-5.5c-0.5,1.1-1,1.9-1.9,3
			c-1,1.2-1.7,1.8-3.3,3c-0.6-1.2-1.4-2-2.3-2.9v4.3c0,2,0,3.2,0.2,4.4h-4.6c0.1-1.2,0.2-2.6,0.2-4.4V79.5c0-1.2,0-1.8-0.1-2.9
			c1,0.1,1.8,0.1,3.6,0.1h6c0-0.9,0-1,0-2.2v-0.8h-6c-1.6,0-2.8,0-4,0.2v-4.1c1.1,0.2,2.2,0.2,4,0.2h16.3c2.2,0,3.2,0,4.2-0.2v4.1
			c-1.2-0.1-2.3-0.2-4.2-0.2H262l0,1.7c0,0.4,0,0.5,0,1.4h5.8c2.3,0,3,0,3.9-0.2c-0.1,1.2-0.2,2.2-0.2,3.9v12.6
			c0,1.7-0.4,2.6-1.4,3.1c-1,0.5-2.1,0.7-5,0.7c-0.4,0-1.1,0-2.4,0c-0.2-1.5-0.5-2.8-1.1-4c1.3,0.1,2.8,0.2,3.6,0.2
			c1.7,0,2-0.2,2-1.2V88.2z M252.6,87.8c1-0.6,1.7-1.3,2.5-2.2c1.3-1.5,2-3,2.5-5.4h-5V87.8z M261.6,80.2c-0.1,0.4-0.1,0.6-0.2,1
			c1.4,2.6,2.8,4.1,5.9,6.2v-7.2H261.6z"/>
		<path class="st0" d="M290,66.4c-1.1,3.1-1.1,3.1-3.1,7.7c1.4,2.2,2,3.3,2.5,4.6c0.6,1.6,0.9,3.5,0.9,5.1c0,2.4-1,3.9-2.8,4.4
			c-0.8,0.3-2.2,0.4-3.9,0.4c-0.1-2.2-0.4-3.2-1-4.3c0.8,0.1,1.5,0.2,2.1,0.2c1.3,0,1.6-0.3,1.6-1.7c0-1.4-0.5-3.1-1.4-4.8
			c-0.5-1-1.1-1.8-2.3-3.4c1.2-2.6,2.4-5.8,3.4-9h-4v27.3c0,2.1,0,3.2,0.2,4.5h-4.5c0.2-1.3,0.2-2.8,0.2-4.6V65.3
			c0-1.3,0-2.5-0.1-3.7c0.8,0.1,1.6,0.1,2.8,0.1h6c1.4,0,2,0,2.6-0.2l1.8,2.2c-0.1,0.2-0.2,0.3-0.3,0.7c0.8,0,1.6,0.1,2.9,0.1h5.1
			v-1.4c0-1-0.1-1.9-0.2-2.6h4.8c-0.2,0.8-0.2,1.5-0.2,2.8v1.2h6.2c1.5,0,2.5,0,3.6-0.2c-0.1,0.8-0.2,1.4-0.2,2.9v3.2
			c0,1.3,0,1.9,0.2,2.9h-3.8v1.9c-1-0.1-1.9-0.2-3.2-0.2h-9.3c-1.3,0-2.2,0-3.2,0.2v-2h-3.7c0-0.2,0-0.2,0.1-0.7
			c0-0.3,0.1-1.5,0.1-2.3v-3V66.4z M294.5,81.6c-1.9,0-2.6,0-3.8,0.2v-4.1c1.1,0.2,2.2,0.2,3.8,0.2h14.7c2,0,2.8,0,3.9-0.2v4.2
			c-1.2-0.2-2.3-0.2-3.9-0.2h-3.6v10.6c0,0.6,0.3,0.8,1.8,0.8c1.4,0,1.8-0.2,2.1-0.9c0.2-0.7,0.4-2.1,0.5-5c1.4,0.7,2,0.9,3.8,1.3
			c-0.7,7.6-1.4,8.6-6.6,8.6c-4.3,0-5.7-0.7-5.7-3V81.6H299c-0.4,4.6-1,6.8-2.6,9.4c-1.7,2.8-4.1,4.7-8.4,6.6
			c-0.9-1.6-1.5-2.3-2.8-3.5c3.6-1.3,5.7-2.7,7.4-4.8c1.4-1.8,2-3.9,2.3-7.6H294.5z M308.7,68.3h-14.6v2.9c0.6,0,1.3,0.1,2.7,0.1
			h9.3c1.4,0,1.8,0,2.6-0.1V68.3z"/>
		<path class="st0" d="M321.5,63.1c0-1,0-1.7-0.1-2.3h4.3c-0.1,0.6-0.2,1.1-0.2,2.3v0.5h3.6v-0.4c0-1.2,0-1.7-0.2-2.3h4.3
			c-0.1,0.6-0.1,1.1-0.1,2.2v0.5h1.2c1.2,0,2.1,0,3.3-0.2v3.9c-0.8-0.1-1.6-0.2-3.3-0.2h-1.2v0.3c0,0.9,0,1.4,0.1,1.9H329
			c0.1-0.5,0.1-0.9,0.1-2v-0.3h-3.6v0.3c0,1,0,1.4,0.1,2h-4.3c0.1-0.5,0.1-1.1,0.1-2v-0.3h-1.4c-1.8,0-2.5,0-3.2,0.2v-3.9
			c0.8,0.2,1.7,0.2,3.3,0.2h1.3V63.1z M345.7,72.8c-0.2,5.2-0.8,9.6-1.9,13.3c-1.2,4.3-3.1,7.7-6.4,11.4c-0.8-1.4-1.6-2.4-2.8-3.3
			c-4.2,0.8-8.7,1.4-14.7,2.1c-1,0.1-1.3,0.2-2,0.3l-0.7-4.3c0.5,0,0.7,0,1,0c1.4,0,3.4-0.2,7.3-0.5v-2.4H322c-1.5,0-2.4,0-3.4,0.2
			v-3.8c0.9,0.2,1.8,0.2,3.5,0.2h3.4v-1.8h-4.1c-1.6,0-2.5,0-3.6,0.2v-3.8c1,0.2,1.8,0.2,3.6,0.2h4v-1.8h-4.2c-1.4,0-1.8,0-3.1,0.1
			c0.1-0.8,0.1-1.5,0.1-2.4v-4.1c0-1.2,0-1.6-0.1-2.4c0.8,0.1,1.3,0.1,3.1,0.1h12.4c1.8,0,2.2,0,3.1-0.1c-0.1,0.9-0.1,1.2-0.1,2.8
			v3.6c0,1.4,0,2.3,0.1,2.6c-0.9-0.1-1.3-0.1-3-0.1h-4.3v1.8h3.7c1.9,0,2.7,0,3.7-0.2v3.8c-1.2-0.1-1.8-0.2-3.7-0.2h-3.7v1.8h3
			c1.9,0,2.6,0,3.6-0.2v3.8c-1.2-0.1-1.8-0.2-3.6-0.2h-3v2c4.3-0.5,4.3-0.5,6.9-0.8l0,1.5c3.3-4.4,4.9-10.2,5.4-19.2h-0.8
			c-1.9,0-2.5,0-3.3,0.2v-4.3c0.9,0.2,1.7,0.2,3.4,0.2h0.9c0-2.1,0-2.5,0-5c0-1.4-0.1-2.2-0.2-3.1h4.7c-0.2,1.4-0.2,1.4-0.3,8.1h3.2
			c1.9,0,2.8,0,3.9-0.2c-0.1,1-0.1,1-0.3,9.2c-0.2,6.8-0.8,13-1.4,15.4c-0.7,2.7-2,3.6-5.3,3.6c-0.4,0-0.4,0-3.2-0.1
			c-0.2-1.8-0.4-2.7-1-4.4c1.4,0.3,2.6,0.4,3.6,0.4c1.6,0,1.9-0.4,2.4-3.3c0.6-3.5,0.8-8.4,1-16.8H345.7z M321.9,73.3v2.4h3.5v-2.4
			H321.9z M329.2,75.8h3.8v-2.4h-3.8V75.8z"/>
		<path class="st0" d="M375.2,86c-1.6,0-2.3,0-3.2,0.2v-3.8c-0.4,1-0.6,1.3-1.1,2.4c-1.1-1.1-1.6-1.5-2.9-2.2c1-1.6,1.8-3.3,2.3-5.1
			h-2.5l0.1,16.2c0,1.2-0.2,2.1-0.8,2.7c-0.6,0.5-1.8,0.8-3.7,0.8c-0.9,0-2.1,0-3.3-0.1c-0.1-1.5-0.3-2.4-0.8-3.9
			c1.6,0.3,2.8,0.4,3.6,0.4c1.1,0,1.3-0.2,1.3-1l0-9.6c-1.5,3.5-3.4,6.2-5.9,8.5c-0.6-1.9-1.1-2.9-2-4.4c3.2-2.8,5-5.3,6.8-9.6H360
			c-1.5,0-2.4,0-3.4,0.2v-4.2c1,0.2,2,0.2,3.6,0.2h4c-1.9-1.9-3.5-3.2-5.3-4.5l2.5-2.4c2.2,1.7,2.4,1.8,3.4,2.7c1.3-1,2.2-2,3.2-3.5
			h-7c-1.4,0-2.4,0-3.4,0.2v-4.1c1.1,0.1,2,0.2,3.8,0.2h6.8c2,0,2.6,0,3.4-0.1l2.2,2.3c-0.2,0.2-0.5,0.6-0.9,1.2
			c-1.7,2.4-4,5-5.6,6.3c0.4,0.4,0.5,0.5,0.9,1l-0.9,1h2.4c1.4,0,2.2,0,2.9-0.1l1.7,2.1c-0.2,0.3-0.3,0.6-0.5,1.2
			c2.5-0.6,4.6-1.4,6.6-2.5c-1.4-1.4-2.4-2.6-3.3-4.1c-1,1.3-1.5,1.9-3.1,3.5c-0.9-1.1-1.8-1.9-3-2.7c3-2.6,4.6-4.7,6-7.7
			c0.6-1.2,0.8-1.8,1-3l4.2,0.8c-0.1,0.2-0.4,0.8-0.6,1.4c-0.2,0.5-0.4,0.9-0.7,1.6h8.3c1.9,0,3.2-0.1,4.2-0.2v4.1
			c-0.9-0.1-1.6-0.2-2.9-0.2c-1.2,3-2.1,4.3-4,6.3c2.4,1.1,4.2,1.6,7.7,2.2c-1,1.6-1.2,2.2-1.8,4.2c-4.4-1.2-6.7-2.2-9-3.7
			c-1.1,0.8-2,1.2-3.7,2l4.1,0c0,0.3,0,0.3,0,0.5c0,0.2-0.1,0.4-0.1,0.7c0,0.2,0,0.3-0.1,0.6c0,0.6-0.1,0.8-0.2,1.6h5.7
			c1.8,0,2.4,0,3.2-0.2c-0.1,0.9-0.1,0.9-0.2,1.8c-0.3,4.8-0.8,8.4-1.4,10c-0.8,2.4-1.8,3.1-5,3.1c-1.1,0-2.4-0.1-4.2-0.3
			c-0.1-1.6-0.3-2.5-0.9-4.2c1.8,0.4,3.4,0.6,4.6,0.6c1.3,0,1.7-0.5,2.1-2.5c0.3-1.3,0.4-2.5,0.5-4.5h-5.2
			c-1.7,5.5-4.9,8.8-11.2,11.5c-0.7-1.4-1.4-2.4-2.5-3.6c5.1-1.9,7.8-4.2,9.4-8H375.2z M379.2,82.2c0.1-1.1,0.2-2,0.2-3
			c0-0.2,0-0.2,0-0.3c-1.5,0.6-2.4,0.9-4.6,1.6c-0.5-1.1-0.7-1.4-1.3-2.4c-0.5,1.7-0.8,2.5-1.4,4c0.7,0.1,1.5,0.1,3.3,0.1H379.2z
			 M380,67.7c0.8,1.6,1.9,2.9,3.4,4.3c1.4-1.5,2.1-2.4,2.8-4.3H380z"/>
		<path class="st0" d="M402,75.8c-2,0-3.4,0.1-4.8,0.2v-4.4c1.1,0.2,2.6,0.2,4.9,0.2h9.1v-3.5h-6c-2.1,0-3.4,0-4.6,0.2v-4.2
			c1,0.2,2.6,0.2,4.7,0.2h5.8v-0.7c0-1.6-0.1-2.4-0.2-3.5h4.9c-0.2,1-0.2,1.9-0.2,3.5v0.7h2.9c2,0,3.3-0.1,4.5-0.2v3.4
			c2.1-2.2,3.8-4.4,4.6-6.1l4,2.6c-0.3,0.3-0.9,1-1.8,2c-1.6,1.9-3.3,3.6-5.4,5.5h4.1c2.1,0,3.3-0.1,4.6-0.2V76
			c-1.3-0.2-2.9-0.2-5-0.2h-8.6c-1.5,1.1-2.5,1.8-4.3,2.9c0.9,0,2.2,0,3.2,0h5.9c1.9,0,3,0,4.2-0.1c-0.1,1.2-0.2,2.1-0.2,4.4v9.9
			c0,2.1,0.1,3.4,0.2,4.5h-4.6v-1.7h-14.5v1.7h-4.7c0.2-1.3,0.2-2.8,0.2-4.5v-6.2c0-0.6,0-1.5,0-2.2c-2.4,1.2-3.3,1.6-6.4,2.8
			c-0.7-1.6-1.2-2.5-2.4-4c6.1-1.8,11.2-4.1,16.5-7.4H402z M409.4,85.3h14.5v-3h-14.5V85.3z M409.4,91.8h14.5v-3.1h-14.5V91.8z
			 M418.4,71.9c1.5-1.2,2.6-2.1,3.8-3.4c-1.1-0.1-1.8-0.1-3.4-0.1h-3.3v3.5H418.4z"/>
		<path class="st0" d="M440.2,95.2c0-0.6-0.1-0.9-0.2-1.7c-0.7-4.4-0.9-7.1-0.9-10.8c0-4.6,0.4-8.7,1.5-14.1c0.4-2,0.5-2.4,0.5-3.3
			l4.8,0.5c-0.9,2.1-1.7,6.2-2.3,10.8c-0.4,2.7-0.5,4.8-0.5,8c0,0.8,0,1.1-0.1,2c0.4-1.3,0.5-1.5,1.9-4.8l2.9,1.3
			c-2,4.2-3.2,8.4-3.2,10.9c0,0.2,0,0.5,0,1L440.2,95.2z M455.5,81c-1.8,2.1-2.6,3.6-2.6,5.2c0,2.1,2,3.1,5.7,3.1
			c3.2,0,6.3-0.5,8.6-1.4l0.4,4.6c-0.5,0-0.6,0.1-1.5,0.2c-2.9,0.5-5.1,0.7-7.5,0.7c-4.5,0-7.3-1-8.9-3.1c-0.7-0.9-1.1-2.2-1.1-3.5
			c0-2.3,1.1-4.8,3.3-7.4L455.5,81z M449.6,69.1c1.6,0.4,3.5,0.6,6.7,0.6c4,0,7.4-0.3,9.8-1l0.2,4.4c-0.3,0-0.8,0.1-2.6,0.3
			c-2.3,0.3-5,0.4-7.7,0.4c-2.6,0-2.7,0-6.5-0.4L449.6,69.1z"/>
		<path class="st0" d="M496.2,69.5l0-1.8v-1.3c0-2.6,0-3.5-0.2-4.4h5.2c-0.1,0.9-0.2,1.1-0.2,2.7c0,2.4,0,2.4,0,4.8h2.6
			c2.8,0,3.6,0,5.2-0.3v4.9c-1.4-0.2-2.5-0.2-5.1-0.2H501c-0.1,4.8-0.1,5.1-0.3,6.6c-0.6,5.1-2.3,8.5-5.8,11.5
			c-2.2,1.8-4.1,2.9-7.8,4.2c-0.8-1.7-1.3-2.5-3-4.2c3.8-1.2,5.7-2.1,7.6-3.8c2.7-2.4,3.9-5,4.2-9.6c0.1-0.9,0.1-1.9,0.2-4.6h-10.4
			v6c0,1.7,0,2.3,0.2,3.4h-5.2c0.1-0.9,0.2-2,0.2-3.4v-5.9h-2.4c-2.6,0-3.7,0-5.1,0.2v-4.9c1.6,0.2,2.4,0.3,5.2,0.3h2.4v-4
			c0-1.7,0-2.5-0.2-3.6h5.2c-0.2,1.3-0.2,1.4-0.2,3.4v4.1H496.2z"/>
		<path class="st0" d="M546.8,74.8c-0.4,0.7-0.6,1.3-1.1,2.5c-2.1,5.9-5.1,10.3-9.3,13.5c-2.8,2.2-5.4,3.6-10.5,5.4
			c-0.9-2-1.4-2.7-3.1-4.6c4.9-1.2,8-2.7,11.1-5.3c3-2.5,4.7-4.9,6.4-9.4h-19.5c-2.7,0-3.7,0-5.1,0.2v-4.9c1.5,0.2,2.4,0.3,5.2,0.3
			h19c2.5,0,3.3-0.1,4.5-0.4L546.8,74.8z M519.1,62.7c1.3,0.2,2.2,0.3,4.7,0.3h14c2.5,0,3.4,0,4.7-0.3v4.9c-1.2-0.2-2-0.2-4.6-0.2
			h-14.1c-2.6,0-3.4,0-4.6,0.2V62.7z"/>
		<path class="st0" d="M585.6,68.2c-0.5,0.7-0.6,0.8-1.2,2.6c-1.3,3.7-3.5,8.3-5.1,11c-4.1,6.7-9.7,11.4-18.2,15.3
			c-1.3-2.2-1.8-2.8-3.3-4.2c3.4-1.4,5.4-2.4,7.8-4c2.8-1.8,4.5-3.3,6.6-5.6c-2.8-2.4-5.2-4-8.2-5.7l3-3.6c3.4,1.9,5,3,8,5.4
			c1.9-2.9,3.2-5.7,4.5-9.4L567,70.2c-2.5,4.1-5.4,7.4-9.4,10.8c-1.3-1.5-1.9-2-4-3.2c4.4-3.4,7.6-6.9,10-11.4
			c1.3-2.4,2-3.9,2.4-5.6l5.2,1.2c-0.4,0.7-0.4,0.7-1.2,2.3c-0.5,1.1-0.8,1.5-1,1.9c0.6-0.1,0.6-0.1,10.4-0.2c1.2,0,2.1-0.1,2.8-0.3
			c-1-1.8-1.5-2.7-2.5-4l3.2-1.1c1.5,1.8,2.2,3,3.1,5.2l-2.1,0.8L585.6,68.2z M587.6,65.4c-0.8-1.9-1.8-3.5-3-5.1l3.1-1.2
			c1.4,1.7,2.2,3,3,5L587.6,65.4z"/>
		<path class="st0" d="M595.1,68.2c1.5,0.3,3.8,0.5,8.4,0.5c1-2.2,1.3-3.2,1.4-4.5l4.7,0.5c-0.2,0.4-0.2,0.4-1.4,3.2
			c-0.2,0.4-0.3,0.5-0.3,0.6c0.3,0,0.3,0,2.3-0.1c4.2-0.3,7.5-0.6,9.4-1.2l0.3,4.1c-1,0.1-1,0.1-2.8,0.3c-2.6,0.3-7.2,0.6-10.8,0.7
			c-1,2.1-2.1,3.5-3.3,4.8l0,0.1c0.3-0.2,0.3-0.2,0.7-0.5c1.3-1,3.2-1.6,5.1-1.6c2.8,0,4.6,1.3,5.1,3.8c2.8-1,4.6-1.7,5.5-1.9
			c1.9-0.7,2.1-0.7,2.7-1.1l1.7,4.1c-1,0.1-2.1,0.4-4,1c-0.5,0.1-2.3,0.8-5.4,1.8v0.4c0,0.9,0,0.9,0,1.4c0,0.4,0,1,0,1.4
			c0,0.6,0,0.9,0,1.2c0,0.8,0,1.3,0.1,1.9l-4.2,0.1c0.1-0.6,0.2-2.5,0.2-4.2c0-0.5,0-0.5,0-0.9c-1.8,0.8-2.7,1.3-3.5,1.9
			c-1.3,0.9-1.9,1.9-1.9,3c0,1.9,1.7,2.6,6.1,2.6c4.3,0,8-0.5,10.6-1.5l0.4,4.6c-0.6,0-0.8,0-1.7,0.1c-2.6,0.4-6,0.6-9.2,0.6
			c-3.8,0-6.2-0.4-8-1.5c-1.7-0.9-2.6-2.7-2.6-4.6c0-1.5,0.4-2.6,1.6-4c1.6-2,3.7-3.4,7.7-5.1c-0.2-1.3-0.9-1.9-2.2-1.9
			c-2.1,0-4.6,1.3-7.4,3.7c-1.5,1.3-2.3,2.2-3.1,3.3l-3.3-3.2c0.9-0.7,2-1.7,3.2-3.2c1.4-1.7,3.6-4.8,4.3-6.2
			c0.1-0.3,0.1-0.3,0.3-0.5c-0.1,0-0.6,0-0.6,0c-0.6,0-3.7-0.1-4.5-0.1c-0.7,0-0.7,0-1,0c-0.1,0-0.3,0-0.6,0L595.1,68.2z"/>
		<path class="st0" d="M6.6,129.6c-1.1,1.1-1.7,1.6-3.3,2.8c-1.2-1.5-1.8-2.1-2.9-3c3.8-2.7,6-5,7.4-7.7c0.4-0.7,0.7-1.4,0.8-2
			l4.6,0.9C13,121,13,121,12.5,122c-0.4,0.7-0.7,1.2-1.3,2h19.4c2.4,0,3.8-0.1,5-0.2v4.4c-1.3-0.1-1.9-0.2-3.9-0.2v5.3h1.6
			c1.9,0,2.8,0,3.9-0.2v4.5c-1.2-0.2-2.1-0.2-3.9-0.2h-1.6v5.4h0.8c1.9,0,2.8,0,3.8-0.2v4.4c-1-0.2-2-0.2-3.7-0.2H5.4
			c-1.6,0-2.4,0-3.6,0.2v-4.4c1.1,0.2,2.1,0.2,3.9,0.2h0.9v-5.4H4.9c-1.8,0-2.7,0-3.9,0.2V133c1.2,0.2,2,0.2,3.9,0.2h1.7V129.6z
			 M1,154.5c2.4-2.4,3.6-4.1,5-7.5l3.7,1.8c-1.6,3.9-2.7,5.5-5.2,8.4L1,154.5z M10.6,133.3h3.2V128h-3.2V133.3z M10.6,142.6h3.2
			v-5.4h-3.2V142.6z M12.5,157.1c0-0.6,0-1.2,0-1.6c0-1.5-0.3-5.1-0.6-7.1l3.9-0.4c0.7,3.6,0.9,5.4,1.1,8.8L12.5,157.1z M20.8,133.3
			V128h-3.3v5.3H20.8z M20.8,142.6v-5.4h-3.3v5.4H20.8z M21.8,157c-0.6-3.9-0.8-5-1.9-8.4l3.9-0.9c1.1,3.2,1.6,4.9,2.4,8.3L21.8,157
			z M27.8,133.3V128h-3.4v5.3H27.8z M27.8,142.6v-5.4h-3.4v5.4H27.8z M33.2,157c-1.4-3.3-2.4-5-4.8-8.4l3.4-1.7
			c2.3,2.8,3.5,4.6,5.2,7.7L33.2,157z"/>
		<path class="st0" d="M50,128.2c0-1.2,0-1.9-0.1-2.6c-0.2,0.6-0.3,0.9-0.4,1.3c0,0-0.2,0.6-0.6,1.4c-0.1,0.2-0.2,0.5-0.4,0.9v23.4
			c0,1.8,0.1,3.1,0.2,4.7H44c0.2-1.6,0.2-2.8,0.2-4.7V141c0-1.9,0-3.2,0.1-4.4c-0.8,1.5-1.4,2.4-2.8,4.1c-0.5-2-1-3.3-1.9-4.9
			c2.6-3,4.4-6.3,5.8-10.4c0.7-2.1,1.1-3.4,1.3-5.2l4.4,1.1c-0.2,0.6-0.2,0.7-0.6,2c-0.1,0.2-0.5,1.7-0.6,2.1
			c0.9,0.1,1.6,0.1,3.5,0.1h1.3c-0.6-1-1.1-1.7-2.4-3.2l3.7-1.2c1.8,2.5,1.9,2.6,2.8,4.4h2.4v-2c0-1.4,0-2.3-0.2-3h4.6
			c-0.2,0.8-0.2,1.6-0.2,3v2h2.4c1.1-1.4,1.9-2.8,2.6-4.5l3.8,1.2c-0.7,1.3-1.3,2.2-2.2,3.3h1c1.8,0,2.9,0,4-0.2
			c-0.1,0.8-0.1,1.6-0.1,2.8v1.9c0,1.2,0,2,0.2,2.8H73v-4.2H54v4.2h-4.1c0.2-0.9,0.2-1.8,0.2-2.8V128.2z M55.4,151.7
			c-1.7,0-2.3,0-3.4,0.1c0.1-1.2,0.2-2.4,0.2-3.6v-7.1c0-1.5,0-2.6-0.2-3.6c1,0.1,1.9,0.1,3.4,0.1h16.1c1.5,0,2.6,0,3.4-0.1
			c-0.1,1-0.2,1.9-0.2,3.6v7.2c0,1.7,0,2.5,0.2,3.6c-1,0-1,0-3.4-0.1h-2.1c2.5,1.4,4.7,2,8.6,2.6c-0.9,1.2-1.4,2-2,3.6
			c-5-1.2-6.8-2-10.4-4.2l2.1-2h-9l2.2,1.9c-2.8,2-5.2,3-9.8,4c-0.6-1.2-1.2-2.1-2.3-3.5c3.8-0.5,6.2-1.2,8.2-2.5H55.4z M54.8,132
			c0-0.9,0-1.5-0.1-2.2c0.8,0,1.4,0.1,3.1,0.1h11.4c1.6,0,2.4,0,3.1-0.1c-0.1,0.8-0.1,1.4-0.1,2.2v2.2c0,0.9,0,1.5,0.1,2.2
			c-1-0.1-1.9-0.1-3.2-0.1H57.8c-1.6,0-2.2,0-3.2,0.1c0.1-1,0.1-1.2,0.1-2.2V132z M56.2,141.6h14.4v-1.3H56.2V141.6z M56.2,145.2
			h14.4V144H56.2V145.2z M56.2,148.9h14.4v-1.3H56.2V148.9z M58.7,133.8h9.6v-1.4h-9.6V133.8z"/>
		<path class="st0" d="M106.9,152.5c1.4,0.2,2.5,0.2,4.3,0.2c2.5,0,4.5-0.1,6.6-0.3c-0.6,1.6-0.8,2.5-1,4.2c-1.4,0-2.9,0-4,0
			c-5.7,0-8.9-0.5-11.3-1.7c-1.6-0.8-3.1-2-4.5-3.6c-1.4,2.7-2.1,3.7-4.2,6.2c-1.2-1.4-1.4-1.5-3-2.8c-0.4,1.8-1.5,2.4-4.7,2.4
			c-0.9,0-1.9,0-3.3-0.1c-0.1-1.7-0.3-2.6-0.9-4.1c1.6,0.2,2.4,0.2,3.4,0.2c1.2,0,1.4-0.2,1.4-1.2v-9c-0.9,0.4-1.4,0.5-2.2,0.8
			c-1,0.4-1.5,0.6-2.1,0.8l-0.6-4.4c1.1-0.1,2.6-0.5,4.9-1.3v-7.1h-1.7c-0.9,0-1.8,0-2.9,0.2v-4.3c1,0.2,1.8,0.2,3,0.2h1.6v-3.2
			c0-2,0-2.9-0.2-4.1h4.8c-0.2,1.2-0.2,2.1-0.2,4v3.2h1.3c1.6,0,1.6,0,1.7,0c0,0,0.2,0,0.4,0c0.1,0,0.2,0,0.3-0.1v4.2
			c-0.8-0.1-1.4-0.1-2.4-0.1h-1.4v5.6c1.5-0.6,1.9-0.7,3.5-1.4v1.8c0.9,0.1,1.9,0.2,3.3,0.2h16.6c1.6,0,2.6,0,3.7-0.2v4.1
			c-1.1-0.2-2.2-0.2-3.7-0.2h-6.4v3.3h5c1.6,0,2.6,0,3.6-0.2v3.9c-1.1-0.2-1.9-0.2-3.6-0.2h-5V152.5z M99.7,143.8
			c-0.1,0.3-0.3,0.8-0.7,2.3c-0.2,0.5-0.3,0.9-0.5,1.6c1.1,1.7,2.3,2.8,4.2,3.8v-10h-6.5c-1.4,0-2.2,0-3.1,0.2V140
			c-1.4,0.6-1.8,0.8-3.3,1.4v11.9c0,0.4,0,0.6,0,1c1.6-1.5,2.5-2.7,3.5-4.4c1.2-2.2,2-4.6,2.3-7.1L99.7,143.8z M98.3,135.9
			c-1.6,0-2.2,0-3.4,0.1c0-0.6,0.1-2,0.1-4.1v-6.3c0-1.6,0-2.8-0.1-3.8c1.2,0.1,2.4,0.2,3.9,0.2h11.9c1.6,0,2.7,0,3.8-0.2
			c-0.2,1-0.2,2.1-0.2,3.6v6.6c0,1.5,0,1.6,0.2,4c-1-0.1-2.3-0.1-4-0.1H98.3z M99.2,127.3h11.2v-1.8H99.2V127.3z M99.2,132.5h11.2
			v-1.9H99.2V132.5z"/>
		<path class="st0" d="M132.4,121.3c-0.2,0.5-0.3,0.8-0.6,1.6c-1,3-1.6,4.7-2.8,7.2v22.7c0,1.4,0.1,3.4,0.2,4.6h-4.8
			c0.2-1.4,0.2-2.6,0.2-4.7v-11.4c0-2.2,0-2.8,0.1-4.5c-1.1,1.9-1.9,3-3.3,4.6c-0.7-2.5-0.9-3-1.8-4.8c4.1-4.2,7.4-11,8.1-16.6
			L132.4,121.3z M141.8,147.6c-2.8,4.5-4.9,6.8-9,9.9c-1.3-1.6-2-2.2-3.5-3.4c2.2-1.4,3.4-2.3,4.9-4c1.5-1.6,2.3-2.7,3.7-5
			L141.8,147.6z M146.8,128.2v-4c0-1.4,0-2.4-0.2-3.4h4.8c-0.2,1.1-0.2,2.1-0.2,3.4v4h1.8c1.7,0,2.7-0.1,3.8-0.2v4.6
			c-1.1-0.2-2.1-0.2-3.8-0.2h-1.8v8.3h2.9c1.8,0,2.7,0,3.8-0.2v4.6c-1.1-0.2-2.2-0.2-3.8-0.2h-19.6c-1.6,0-2.7,0.1-3.8,0.2v-4.6
			c1,0.2,2.1,0.2,3.8,0.2h2.3v-8.3h-1.2c-1.7,0-2.6,0-3.8,0.2V128c1.1,0.2,2.3,0.2,3.8,0.2h1.2v-4.1c0-1.2-0.1-2.2-0.2-3.3h4.8
			c-0.2,1-0.2,1.9-0.2,3.3v4.1H146.8z M146.8,140.6v-8.3h-5.8v8.3H146.8z M149.3,145c1.4,2.2,2.3,3.3,3.9,5c1.7,1.7,2.8,2.6,4.8,3.8
			c-1.1,1.1-1.6,1.7-3.2,3.8c-2-1.5-3-2.4-4.8-4.2c-1.9-2.1-2.9-3.3-4.5-5.9L149.3,145z"/>
		<path class="st0" d="M183.8,138.9c0,2.6-2.1,4.8-4.8,4.8c-2.6,0-4.8-2.1-4.8-4.8c0-2.6,2.1-4.8,4.8-4.8
			C181.7,134.2,183.8,136.3,183.8,138.9z"/>
		<path class="st0" d="M205.6,125.6c-1.7,0-3.2,0.1-4.4,0.2v-4.3c1.3,0.2,2.7,0.2,4.4,0.2h9.8c1.7,0,3.2-0.1,4.5-0.2v4.2
			c-1.1-0.1-2.6-0.2-4.1-0.2h-1.2v3.3h0.6c2.1,0,3,0,4.1-0.2c-0.1,1.2-0.1,2.7-0.1,4.4v19.2c0,1.9,0,3.2,0.2,4.4h-3.8v-1.5H206v2.2
			h-4c0.2-1.6,0.2-3.1,0.2-5.4v-18.5c0-2,0-3.4-0.2-4.8c1.1,0.1,2,0.2,4.1,0.2h0.8v-3.3H205.6z M206,144.9h9.5v-3.1
			c-0.4,0-0.7,0-1.1,0c-2.6,0-3-0.2-3-1.8v-7.8h-1.1v0.5c0,2.4-0.3,5.6-0.8,7.5c-0.4,1.6-0.7,2.4-1.8,4.3c-0.4-1.2-0.9-1.9-1.7-3
			V144.9z M206,141.1c1.1-2.3,1.5-4.3,1.6-8.9H206V141.1z M206,151.5h9.5v-3.1H206V151.5z M210.2,128.8h1.1v-3.3h-1.1V128.8z
			 M214,137.8c0,0.6,0,0.7,1.5,0.7v-6.3H214V137.8z M235.9,134.4c0,1.6,0,2.8,0.2,3.9c-1.3-0.1-2.2-0.2-4-0.2h-6.4v13.1
			c0,0.7,0.1,0.9,0.3,1.1c0.4,0.2,1.4,0.3,2.8,0.3c3,0,3.8-0.2,4.1-1.2c0.3-0.8,0.4-3,0.4-5.9c1.7,0.9,2.7,1.3,4.2,1.6
			c-0.2,4.8-0.6,6.8-1.4,7.8c-1,1.3-3,1.7-7.6,1.7c-6.2,0-7.2-0.5-7.2-4.2v-14.6c0-1.9,0-2.6-0.2-3.9c1.2,0.1,2.3,0.2,4,0.2h6.4
			l0-8.4h-6.3c-2,0-3.2,0-4.4,0.2v-4.5c1.3,0.2,2.6,0.2,4.5,0.2h6.6c1.8,0,3,0,4.1-0.2c-0.1,1.4-0.2,2.1-0.2,4V134.4z"/>
		<path class="st0" d="M240.8,135.8c1,0.2,1.6,0.2,3.2,0.2h3c1.2,0,2.1,0,3-0.2c-0.1,1.2-0.2,2.2-0.2,4.4v8.6
			c0.8,1.4,1.6,2.1,3.1,2.8c1.6,0.8,4.3,1,10,1c6.5,0,11-0.2,15.3-0.7c-0.8,2.3-0.9,2.9-1.2,4.6c-3.8,0.2-9.5,0.2-13.6,0.2
			c-5.8,0-8.7-0.2-10.6-0.8c-2-0.6-3.6-1.7-5.1-3.6c-2,1.9-2.8,2.5-4.6,3.8c-0.4,0.3-0.8,0.6-1.2,0.9l-2-4.6c1.5-0.6,3.6-2.1,5.6-4
			v-8.6h-2.2c-1.1,0-1.7,0-2.7,0.2V135.8z M244.2,120.9c3.1,2.8,4.5,4.3,6.5,7l-3.3,3.2c-2.1-3-3.3-4.4-6.4-7.2L244.2,120.9z
			 M255.8,126.8c-1.8,0-2.6,0-3.6,0.1v-3.8c1,0.2,2.1,0.2,4,0.2h5.2c0-1.3-0.1-2-0.2-2.9h4.6c-0.1,0.8-0.2,1.7-0.2,2.9h5.7
			c1.6,0,2.9-0.1,4-0.2v3.8c-1-0.1-2-0.2-3.6-0.2h-6.2v2h7.5c2.1,0,2.9,0,3.9-0.2v3.8c-1.1-0.1-2-0.2-3.9-0.2h-1.6
			c-0.5,1.3-0.8,1.9-1.2,2.7h2.2c2.1,0,2.8,0,3.9-0.2v3.8c-1-0.1-1.9-0.2-3.9-0.2h-6.8v2h5.8c1.5,0,2.7,0,3.6-0.2v3.5
			c-0.9-0.1-2.2-0.2-3.6-0.2h-5.8v2h7.2c1.9,0,2.8,0,3.9-0.2v3.7c-1-0.2-2.1-0.2-3.9-0.2h-7.2c0,1.4,0,2.2,0.2,3.2h-4.6
			c0.1-0.9,0.2-1.7,0.2-3.2h-6.4c-1.8,0-2.8,0-3.8,0.2v-3.7c1,0.2,2,0.2,3.8,0.2h6.4v-2h-5.2c-1.4,0-2.7,0-3.6,0.2v-3.5
			c0.9,0.1,2.1,0.2,3.6,0.2h5.2v-2h-6c-2,0-2.9,0-3.9,0.2v-3.8c1,0.1,1.8,0.2,3.9,0.2h1.4c-0.3-0.8-0.6-1.7-1.2-2.7h-1.2
			c-2,0-2.8,0-3.9,0.2v-3.8c1,0.1,1.8,0.2,3.9,0.2h6.8v-2H255.8z M259.9,132.2c0.4,0.9,0.7,1.6,1.1,2.7h5.2c0.5-1,0.7-1.6,1.1-2.7
			H259.9z"/>
		<path class="st0" d="M291.4,125.4c-0.2,1-0.3,2.1-0.4,4.9c-0.1,3.3-0.4,10.7-0.4,13.2c0,3.4,0.2,4.7,0.9,5.8
			c0.8,1.2,2.6,1.9,4.8,1.9c3.9,0,7-2.2,8.7-6.2c0.8-1.9,1.3-3.6,1.7-6c1.9,1.6,2.6,2,4.4,2.8c-1.4,4.9-2.5,7.2-4.3,9.2
			c-2.7,3.1-6.3,4.6-10.8,4.6c-2.5,0-4.8-0.6-6.3-1.6c-2.5-1.7-3.5-4.4-3.5-9.3c0-1.9,0.1-5.5,0.3-14.5c0-1.1,0-1.8,0-2.3
			c0-1,0-1.5-0.1-2.4L291.4,125.4z"/>
		<path class="st0" d="M345,154.5c-1.6-1.8-4.1-3.6-6.7-4.9c-0.8-0.4-1.1-0.5-1.9-0.9c0,0.2,0,0.3,0,0.4c0,2.3-0.6,3.8-2,4.9
			c-1.4,1-3.3,1.5-5.9,1.5c-5.3,0-8.3-2.1-8.3-5.6c0-3.9,3.6-6.2,9.6-6.2c0.9,0,1.5,0,2.4,0.1c0-0.4,0-0.4,0-0.9c0-0.2,0-0.4,0-0.8
			c0-0.5,0-0.5-0.1-1.9c-1.7,0-2.8,0.1-3.6,0.1c-2.2,0-3.5,0-6.5-0.3c-0.5,0-0.8,0-1.4,0l0.1-3.9c1.5,0.4,5,0.6,8.4,0.6
			c0.7,0,1.9,0,3-0.1c0-0.3,0-1.5,0-3.6c-1.2,0-1.7,0-2.3,0c-1.8,0-6.4-0.2-8.8-0.4c-0.4,0-0.7,0-0.8,0c-0.1,0-0.3,0-0.6,0l0-4
			c1.8,0.5,5.5,0.8,9.7,0.8c0.6,0,1.8,0,2.7-0.1c0-3.6,0-3.6-0.2-4.5h4.6c-0.2,1-0.2,1.4-0.3,4.4c4.9-0.3,8-0.7,10.4-1.4l0.2,4
			c-0.8,0-0.8,0-2.8,0.3c-3.2,0.4-4.6,0.5-7.7,0.7c0,0.9,0,1.3,0.1,3.6c1.8-0.1,1.8-0.1,5.1-0.5c2.3-0.3,2.8-0.4,4.5-0.8l0.1,4
			c-0.6,0-1.5,0.1-2.3,0.3c-0.5,0.1-2.2,0.3-4.9,0.5c-0.5,0-1,0.1-2.4,0.1c0.1,3.5,0.1,3.5,0.1,4.4c3.2,0.9,6,2.3,9.9,5.1
			c0.6,0.4,0.8,0.5,1.3,0.8L345,154.5z M329.2,147.2c-2.9,0-4.7,0.9-4.7,2.5c0,1.3,1.5,2.2,4.1,2.2c1.5,0,2.6-0.4,3.1-1.2
			c0.3-0.5,0.4-1.2,0.4-2.3c0-0.1,0-0.9,0-0.9C331,147.3,330.3,147.2,329.2,147.2z"/>
		<path class="st0" d="M374.2,138.1c0,0.1,0,0.4,0,0.9c0.8,1.7,1.2,3.1,1.2,5.1c0,3.9-1.9,7.3-5.4,9.7c-1.5,1-3.2,1.8-6.5,3
			c-1-2.2-1.4-2.8-2.6-4.1c3-0.6,4.4-1.1,6.1-2.1c2.4-1.4,3.9-3.2,4.2-5.3c-1,1.7-2.9,2.6-5.3,2.6c-1.7,0-3-0.4-4.2-1.3
			c-1.7-1.2-2.5-2.8-2.5-4.9c0-3.8,3-6.6,7.2-6.6c1.5,0,2.9,0.4,3.7,1.1c0-0.2,0-0.2,0-0.4c0-0.1,0-2.1,0-3.1
			c-5.1,0.1-8.5,0.3-10.1,0.4c-5.4,0.4-5.4,0.4-6.4,0.5l-0.1-4.3c0.8,0.1,1.1,0.1,1.8,0.1c0.9,0,1.5,0,6.1-0.2
			c2.3-0.1,2.7-0.1,5.7-0.1c1.2,0,1.2,0,3.1-0.1c0-3.4,0-3.4-0.2-4.4l4.5,0c-0.1,1.1-0.1,1.2-0.2,4.3c6.3,0,9.1-0.1,10.4-0.3l0,4.1
			c-1.3-0.1-3.1-0.2-6-0.2c-0.9,0-1.5,0-4.4,0.1v2.3L374.2,138.1z M366.9,138.4c-1.8,0-3.3,1.3-3.3,2.9c0,1.7,1.3,2.8,3.1,2.8
			c2.1,0,3.5-1.4,3.5-3.2C370.1,139.4,368.9,138.4,366.9,138.4z"/>
		<path class="st0" d="M400.7,150.8c0,3.4-2.7,6.1-6.1,6.1c-3.3,0-6.1-2.7-6.1-6.1c0-3.3,2.7-6.1,6.1-6.1
			C398,144.8,400.7,147.5,400.7,150.8z M391.3,150.8c0,1.8,1.5,3.3,3.3,3.3c1.8,0,3.3-1.5,3.3-3.3c0-1.8-1.5-3.3-3.3-3.3
			C392.8,147.6,391.3,149,391.3,150.8z"/>
	</g>
</g>
<g id="レイヤー_1">
	<title>logo_crisp_connect_pc</title>
	<g id="レイヤー_1-2">
		<path class="st0" d="M56.2,292.5c-1-8.3-7-13.7-16.2-13.7c-12.2-0.1-19.5,9.2-19.5,25.1c0,16.6,7.5,25.1,19.4,25.1
			c8.9,0,14.9-4.7,16.3-12.8l20.3,0.1c-1.5,14.8-14.2,30.3-37,30.3C16.9,346.8,0,331.4,0,303.9S17.3,261,39.6,261
			c20.2,0,35,11.4,37,31.4H56.2V292.5z"/>
		<path class="st0" d="M88.1,262.2h34.5c18.7,0,30.4,10.6,30.4,27.8c0,11.5-5.3,19.7-14.5,23.9l17.3,31.8h-22l-15.3-28.6h-10.3v28.6
			H88L88.1,262.2L88.1,262.2z M118.2,301.2c9,0,13.9-3.5,13.9-11.2s-4.9-11.5-13.9-11.5h-9.9v22.7H118.2z"/>
		<path class="st0" d="M184.2,345.6H164v-83.4h20.2V345.6z"/>
		<path class="st0" d="M229.2,277.7c-7.8,0-11.7,3.3-11.8,7.9c-0.2,5,4.6,7.5,12.2,9.1l7.1,1.7c16.5,3.6,25.4,11.8,25.5,25.1
			c-0.1,15.8-12.4,25.3-33.2,25.3c-21,0-34.5-9.3-34.8-28.9h19.3c0.5,8,6.3,12.2,15.3,12.2c8.1,0,12.9-3.5,13-8.6
			c-0.1-4.7-4.2-7.1-13.4-9.3l-8.7-2.1c-14.4-3.3-23.3-10.4-23.3-23.1c-0.1-15.5,13.6-25.9,32.7-25.9c19.4,0,31.8,10.6,32,26.1
			h-19.3C241.4,281.3,237.1,277.7,229.2,277.7z"/>
		<path class="st0" d="M272.6,262.2H307c18.7,0,30.4,11.7,30.4,28.9s-11.9,28.6-31,28.6h-13.7v25.9h-20.2L272.6,262.2z M302.7,303.8
			c9,0,13.9-5,13.9-12.7s-4.9-12.6-13.9-12.6h-9.9v25.4L302.7,303.8L302.7,303.8z"/>
		<path class="st0" d="M56.2,395.7c-1-8.3-7-13.7-16.2-13.7c-12.2,0-19.5,9.3-19.5,25.1c0,16.6,7.5,25.1,19.4,25.1
			c8.9,0,14.9-4.7,16.3-12.8l20.3,0.1c-1.5,14.8-14.2,30.3-37,30.3C16.9,450,0,434.6,0,407.1s17.3-42.9,39.6-42.9
			c20.2,0,35,11.4,37,31.4C76.6,395.6,56.2,395.7,56.2,395.7z"/>
		<path class="st0" d="M124.7,450c-22.5,0-39.8-15.4-39.8-42.9s17.3-42.9,39.8-42.9s39.8,15.3,39.8,42.9S147.1,450,124.7,450z
			 M124.7,382c-12,0-19.2,8.9-19.2,25.1s7.2,25.1,19.2,25.1s19.2-8.9,19.2-25.1S136.8,382,124.7,382z"/>
		<path class="st0" d="M245,448.8h-17.1l-33.2-48.1h-0.5v48.1H174v-83.4h17.4l32.8,48.1h0.7v-48.1H245V448.8z"/>
		<path class="st0" d="M328.6,448.8h-17.1l-33.2-48.1h-0.5v48.1h-20.2v-83.4H275l32.8,48.1h0.7v-48.1h20.1V448.8z"/>
		<path class="st0" d="M338.9,365.4h58.2v16.3h-38v17.1h35v16.4h-35v17.1h38v16.3h-58.2V365.4z"/>
		<path class="st0" d="M462.8,395.7c-1-8.3-7-13.7-16.2-13.7c-12.2,0-19.5,9.3-19.5,25.1c0,16.6,7.5,25.1,19.4,25.1
			c8.9,0,14.9-4.7,16.3-12.8l20.3,0.1c-1.5,14.8-14.2,30.3-37,30.3c-22.6,0-39.6-15.4-39.6-42.9s17.3-42.9,39.6-42.9
			c20.2,0,35,11.4,37,31.4L462.8,395.7L462.8,395.7z"/>
		<path class="st0" d="M489.7,365.4h70.5v16.3h-25.3v67H515v-67h-25.3V365.4z"/>
		<path class="st0" d="M4.3,480.8h4.2v7.6h0.1c0.7-1.7,2.4-2.8,4.3-2.7c3.3,0,6.1,2.6,6.1,7.8c0,5-2.7,7.8-6.1,7.8
			c-1.9,0.1-3.6-1-4.3-2.7H8.5v2.4H4.3V480.8z M11.7,497.9c2.1,0,3.2-1.8,3.2-4.5s-1.1-4.4-3.2-4.4s-3.2,1.7-3.2,4.4
			S9.7,497.9,11.7,497.9z"/>
		<path class="st0" d="M21.8,506.2l1-3.1c1.5,0.5,2.5,0.3,3.1-1l0.2-0.6L20.7,486h4.4l3.1,11.1h0.2l3.1-11.1H36l-5.9,16.7
			c-0.7,2.5-3,4.2-5.6,4C23.6,506.6,22.7,506.5,21.8,506.2z"/>
		<path class="st0" d="M64.2,475.9c-7.5-0.1-13.6,5.9-13.7,13.4c0,0,0,0,0,0.1c-0.1,3.5,1.3,7,3.9,9.4c2.5,2.5,5.9,4,9.5,3.9
			c2.5,0,4.9-0.6,7-1.9l0.3-0.2v-6.2l-1,0.9c-0.5,0.5-1.1,0.9-1.7,1.3c-0.5,0.3-1,0.6-1.5,0.8c-1,0.4-2,0.6-3.1,0.6
			c-2.3,0.1-4.4-0.9-6-2.5c-3.3-3.4-3.3-8.9,0-12.3c1.5-1.7,3.7-2.6,6-2.6c2.3,0.1,4.6,1,6.3,2.6l1,0.8v-6.1l-0.3-0.2
			C68.8,476.6,66.5,476,64.2,475.9z"/>
		<path class="st0" d="M88.8,489.1c1.1-1.4,1.7-3.1,1.7-4.9c0.1-2.3-0.9-4.4-2.6-5.9c-1.5-1.3-4.1-2-7.5-2h-5v25.9h4.9v-9.7l6.8,9.8
			h6.1l-7.8-10.8C86.8,491.1,88,490.3,88.8,489.1z M85.6,484.3c0,1.5-0.5,3.4-4.7,3.4h-0.6v-6.6H81C85.2,481.1,85.6,483,85.6,484.3
			L85.6,484.3z"/>
		<rect x="95.3" y="476.4" class="st0" width="4.9" height="25.9"/>
		<path class="st0" d="M114.6,486.4l-2.5-1c-1.5-0.6-2.3-1.4-2.3-2.3c0-0.7,0.3-1.3,0.8-1.7c0.6-0.5,1.4-0.7,2.2-0.7
			c0.6-0.1,1.3,0.1,1.8,0.5c0.6,0.5,1.1,1,1.4,1.7l0.3,0.5l4.1-2.4l-0.3-0.5c-1.7-3-4.1-4.5-7.2-4.5c-2.1-0.1-4.1,0.7-5.7,2.1
			c-1.5,1.3-2.3,3.1-2.3,5.1c0,3,1.8,5.3,5.4,6.8l2.4,1c0.5,0.2,1,0.5,1.5,0.8c0.4,0.2,0.7,0.5,1,0.8c0.2,0.3,0.4,0.6,0.5,0.9
			c0.1,0.4,0.2,0.7,0.2,1.1c0,1.9-1.4,3.5-3.3,3.5c-0.1,0-0.1,0-0.2,0c-1.1,0-2.2-0.5-2.9-1.4c-0.5-0.8-0.8-1.7-0.8-2.7l-0.1-0.7
			l-5,1.1l0.1,0.6c0.2,2.2,1.2,4.2,2.7,5.7c1.6,1.4,3.6,2.2,5.7,2.1c4.6,0.1,8.5-3.5,8.6-8.1c0-0.1,0-0.2,0-0.4
			c0-1.7-0.5-3.3-1.5-4.7C117.9,488.2,116.4,487.1,114.6,486.4z"/>
		<path class="st0" d="M137.2,478.6c-0.8-0.9-1.9-1.5-3.1-1.8c-1.6-0.4-3.3-0.5-4.9-0.5h-4.8v25.9h4.9v-10.1h1.1
			c2.4,0.1,4.7-0.6,6.5-2.1c1.7-1.4,2.6-3.6,2.5-5.8C139.5,482.1,138.7,480.1,137.2,478.6z M134.7,484.3c0,1.4-0.5,3.4-4.5,3.4h-0.8
			v-6.6h0.6C134.3,481,134.7,482.9,134.7,484.3L134.7,484.3z"/>
		<path class="st0" d="M148,495.4c0.2,1.7,1,3.3,2.3,4.5c1.3,1.2,3.1,1.9,4.9,1.8c2,0,3.9-0.7,5.3-2.1c1.4-1.4,2.2-3.2,2.1-5.2
			c0.1-1.4-0.4-2.8-1.3-3.9c-1.2-1.3-2.6-2.2-4.2-2.8l-2.5-1c-2.1-0.9-3.1-2-3.1-3.5c0-1,0.5-2,1.3-2.6c0.8-0.7,1.9-1.1,3-1
			c0.8,0,1.7,0.2,2.4,0.6c0.6,0.4,1.1,1,1.5,1.6l2-1.2c-1.2-2-3.4-3.3-5.8-3.3c-1.8-0.1-3.5,0.6-4.9,1.7c-1.3,1-2,2.6-1.9,4.2
			c0,2.5,1.5,4.4,4.7,5.7l2.4,1c0.6,0.3,1.2,0.6,1.7,0.9c0.5,0.3,0.9,0.7,1.2,1.1c0.3,0.4,0.5,0.8,0.7,1.3c0.2,0.5,0.2,1,0.2,1.5
			c0,1.3-0.4,2.5-1.3,3.4c-0.9,0.9-2.1,1.4-3.3,1.4c-1.5,0.1-2.9-0.6-3.8-1.8c-0.5-0.8-0.8-1.7-0.9-2.6L148,495.4z"/>
		<polygon class="st0" points="188.2,501.1 197.9,501.1 197.9,498.8 190.7,498.8 190.7,477.6 188.2,477.6 		"/>
		<path class="st0" d="M211.2,476.9l-11.3,24.2h2.7l2.7-6h11.4l2.6,6h2.7L211.2,476.9z M206.3,492.8l4.8-10.5l4.6,10.5H206.3z"/>
		<path class="st0" d="M238.7,480.6c-1.1-1.1-2.5-1.9-4-2.3c-1.8-0.5-3.8-0.8-5.7-0.7h-4.6v23.5h4.5c1.9,0.1,3.8-0.1,5.6-0.6
			c1.5-0.5,2.8-1.3,4-2.3c2.5-2.2,3.9-5.4,3.8-8.7C242.5,486.2,241.1,482.9,238.7,480.6z M236.9,496.3c-0.9,0.8-2,1.5-3.2,1.9
			c-1.4,0.4-2.8,0.6-4.3,0.6H227v-18.9h2.3c3.3,0,5.9,0.8,7.6,2.4c1.9,1.8,3,4.4,2.9,7C239.9,491.9,238.8,494.5,236.9,496.3
			L236.9,496.3z"/>
		<path class="st0" d="M298.2,480.7c-4.7-4.8-12.5-4.8-17.2-0.1c0,0,0,0-0.1,0.1c-2.4,2.2-3.7,5.3-3.7,8.5c-0.2,3.5,1.3,6.9,4,9.1
			c2.3,2,5.2,3.1,8.2,3.1c3.3,0,6.4-1.2,8.8-3.5c2.3-2.2,3.7-5.4,3.6-8.6C301.8,486.1,300.5,483,298.2,480.7z M296.4,496.4
			c-1.8,1.9-4.4,2.9-7,2.9c-5.5-0.2-9.8-4.7-9.6-10.2c0.1-2.5,1.1-4.9,2.9-6.7c1.8-1.9,4.3-2.9,6.9-2.9c2.6,0,5.1,1,6.9,2.9
			c1.9,1.8,2.9,4.4,2.8,7C299.3,492,298.3,494.6,296.4,496.4L296.4,496.4z"/>
		<path class="st0" d="M311.6,490.8l0.9-0.2c1.4-0.2,2.7-1,3.6-2.2c0.9-1.2,1.4-2.6,1.4-4.1c0.1-1.9-0.7-3.8-2.2-5
			c-1.3-1.1-3.6-1.7-6.7-1.7h-3.8v23.5h2.5V491h1.6l7.1,10.1h3.1L311.6,490.8z M307.4,489v-9h1.9c4.7,0,5.8,2.4,5.8,4.4
			s-1,4.6-5.9,4.6H307.4z"/>
		<polygon class="st0" points="335,501.1 338.5,501.1 327.7,488.2 338.2,477.6 334.9,477.6 324.5,488.3 324.5,477.6 322,477.6 
			322,501.1 324.5,501.1 324.5,491.2 325.9,489.8 		"/>
		<path class="st0" d="M339,495.4c0.2,1.7,1,3.3,2.3,4.5c1.3,1.2,3.1,1.9,4.9,1.8c2,0,3.9-0.7,5.3-2.1c1.4-1.4,2.2-3.2,2.1-5.2
			c0.1-1.4-0.4-2.8-1.3-3.9c-1.2-1.3-2.6-2.2-4.2-2.8l-2.5-1c-2.1-0.9-3.1-2-3.1-3.5c0-1,0.5-2,1.3-2.6c0.8-0.7,1.9-1.1,3-1
			c0.8,0,1.7,0.2,2.4,0.6c0.6,0.4,1.1,1,1.5,1.6l2-1.2c-1.2-2-3.4-3.3-5.8-3.3c-1.8-0.1-3.5,0.6-4.9,1.7c-1.3,1-2,2.6-1.9,4.2
			c0,2.5,1.5,4.4,4.7,5.7l2.4,1c0.6,0.3,1.2,0.6,1.7,0.9c0.5,0.3,0.9,0.7,1.2,1.1c0.3,0.4,0.5,0.8,0.7,1.3c0.2,0.5,0.2,1,0.2,1.5
			c0,1.3-0.4,2.5-1.3,3.4c-0.9,0.9-2.1,1.4-3.3,1.4c-1.5,0.1-2.9-0.6-3.8-1.8c-0.5-0.8-0.8-1.7-0.9-2.6L339,495.4z"/>
		<path class="st0" d="M267.9,502.6l10.5-25h-2.7l-7.6,18.6l-4.2-9.9l3.4-7.5h-9l3,7.5l-4.4,9.9l-7.6-18.6h-2.7l10.5,25l5.5-13.4
			L267.9,502.6z M263.8,481l-1.1,2.6l-1.1-2.6H263.8z"/>
		<path class="st0" d="M175,476.9l-11.3,24.2h2.7l2.7-6l0.1-0.3c1.6,1.2,3.6,1.8,5.6,1.8c2,0,3.9-0.6,5.5-1.7l0.1,0.3l2.6,6h2.7
			L175,476.9z M170.3,492.6l4.7-10.2l4.5,10.2C176.8,494.7,173,494.7,170.3,492.6z"/>
	</g>
	<path class="st0" d="M718,208H2c-1.1,0-2,0.9-2,2l0,0c0,1.1,0.9,2,2,2h716c1.1,0,2-0.9,2-2l0,0c0-1.1-0.8-2-1.9-2
		C718.1,208,718,208,718,208z"/>
</g>
</svg>
