<svg width="16" height="16" viewBox="0 0 16 16" fill="none" xmlns="http://www.w3.org/2000/svg">
<path d="M14.6663 7.33337H11.8863L14.0463 5.17337L13.1063 4.22671L9.99967 7.33337H8.66634V6.00004L11.773 2.89337L10.8263 1.95337L8.66634 4.11337V1.33337H7.33301V4.11337L5.17301 1.95337L4.22634 2.89337L7.33301 6.00004V7.33337H5.99967L2.89301 4.22671L1.95301 5.17337L4.11301 7.33337H1.33301V8.66671H4.11301L1.95301 10.8267L2.89301 11.7734L5.99967 8.66671H7.33301V10L4.22634 13.1067L5.17301 14.0467L7.33301 11.8867V14.6667H8.66634V11.8867L10.8263 14.0467L11.773 13.1067L8.66634 10V8.66671H9.99967L13.1063 11.7734L14.0463 10.8267L11.8863 8.66671H14.6663V7.33337Z" fill="#8AB4F8"/>
</svg>
