<svg width="144" height="15" viewBox="0 0 144 15" fill="none" xmlns="http://www.w3.org/2000/svg">
<path d="M7.54819 11.9119C4.83019 11.9119 2.70619 9.75192 2.70619 7.06992C2.70619 4.36992 4.83019 2.20992 7.54819 2.20992C8.88019 2.20992 10.1042 2.76792 11.0042 3.64992L12.5522 2.08392C11.2562 0.805916 9.49219 0.013916 7.54819 0.013916C3.62419 0.013916 0.492188 3.12792 0.492188 7.05192C0.492188 10.9939 3.62419 14.1259 7.54819 14.1259C9.49219 14.1259 11.2562 13.3339 12.5522 12.0559L11.0042 10.4899C10.1042 11.3719 8.88019 11.9119 7.54819 11.9119Z" fill="black"/>
<path d="M28.971 8.18592V13.9999H31.167V0.139915H28.971V6.11592H21.429V0.139915H19.215V13.9999H21.429V8.18592H28.971Z" fill="black"/>
<path d="M38.7316 0.139915V13.9999H47.3896V11.9299H40.9456V8.18592H46.5436V6.11592H40.9456V2.20992H47.3896V0.139915H38.7316Z" fill="black"/>
<path d="M66.994 3.70392V13.9999H69.208V0.139915H66.814L61.9 7.08792L56.968 0.139915H54.592V13.9999H56.806V3.68592L61.9 10.8679L66.994 3.70392Z" fill="black"/>
<path d="M78.977 0.139915V13.9999H76.763V0.139915H78.977Z" fill="black"/>
<path d="M90.4833 14.1259C93.1653 14.1259 95.1273 12.5059 95.1273 9.98592C95.1273 8.36592 94.2993 6.97992 92.4273 6.20592C91.5093 5.80992 90.7173 5.55792 89.9073 5.25192C89.2413 5.01792 88.4493 4.62192 88.4493 3.77592C88.4493 2.83992 89.2593 2.19192 90.3213 2.19192C91.2033 2.19192 91.8693 2.73192 92.2833 3.36192L94.1913 2.19192C93.3633 1.07592 92.2653 0.013916 90.3393 0.013916C88.0533 0.013916 86.2353 1.47192 86.2353 3.79392C86.2353 5.48592 87.3693 6.69192 88.8633 7.23192C89.7273 7.55592 90.2313 7.69992 90.9873 7.98792C92.4633 8.52792 92.9313 9.19392 92.9313 10.0759C92.9313 11.1559 91.9413 11.9479 90.5733 11.9479C89.1513 11.9479 88.3053 11.0119 87.8913 10.1479L85.9113 11.1739C86.8473 12.9739 88.4493 14.1259 90.4833 14.1259Z" fill="black"/>
<path d="M104.399 2.20992V13.9999H106.595V2.20992H110.087V0.139915H100.889V2.20992H104.399Z" fill="black"/>
<path d="M127.314 13.9999L123.498 8.20392C125.1 7.66392 126.198 6.11592 126.198 4.29792C126.198 1.99392 124.452 0.139915 122.148 0.139915H116.838V13.9999H119.052V8.43792H121.014L124.686 13.9999H127.314ZM119.052 2.20992H122.058C123.21 2.20992 124.002 3.19992 124.002 4.29792C124.002 5.37792 123.21 6.36792 122.058 6.36792H119.052V2.20992Z" fill="black"/>
<path d="M136.465 8.16792V13.9999H138.661V8.16792L143.143 0.139915H140.731L137.581 5.98992L134.395 0.139915H132.001L136.465 8.16792Z" fill="black"/>
</svg>
