<svg width="182" height="20" viewBox="0 0 182 20" fill="none" xmlns="http://www.w3.org/2000/svg">
<path d="M3.20619 1.1401H0.992188V9.0961C0.992188 12.5161 3.60219 15.1261 7.02219 15.1261C10.4242 15.1261 13.0342 12.5161 13.0342 9.0961V1.1401H10.8382V9.0241C10.8382 11.2201 9.21819 12.8221 7.02219 12.8221C4.80819 12.8221 3.20619 11.2201 3.20619 9.0241V1.1401Z" fill="black"/>
<path d="M20.0518 15.0001H22.1218V10.1221C22.1398 8.8981 23.0038 8.0881 24.1018 8.0881C25.1998 8.0881 26.1178 8.8981 26.1178 10.1221V15.0001H28.1878V10.1221C28.1878 8.8981 29.0698 7.9981 30.1678 7.9981C31.2658 7.9981 32.1298 8.8981 32.1298 10.1221V15.0001H34.1818V10.0681C34.1818 7.7281 32.4538 5.9641 30.2218 5.9641C28.5838 5.9641 27.4858 6.9541 27.1078 7.3501C26.7658 6.9541 25.9378 5.9641 24.3538 5.9641C23.1658 5.9641 22.4098 6.5941 22.1218 6.8821V6.0901H20.0518V15.0001Z" fill="black"/>
<path d="M45.2013 15.1261C46.4253 15.1261 47.6313 14.6581 48.5313 13.7761L47.0373 12.3181C46.5693 12.8041 45.9213 13.0741 45.2193 13.0741C44.1033 13.0561 43.2393 12.4081 42.9333 11.3821H49.7373C49.7373 8.0341 47.9373 5.9641 45.2013 5.9641C42.6633 5.9641 40.6653 7.9801 40.6653 10.5541C40.6653 13.0921 42.6813 15.1261 45.2013 15.1261ZM42.8793 9.6181C43.2033 8.6641 44.0493 8.0161 45.1473 7.9981C46.2813 7.9981 47.1993 8.6821 47.4693 9.6181H42.8793Z" fill="black"/>
<path d="M64.6502 0.600098H62.5802V6.9181C62.5802 6.9181 61.6442 5.9461 60.0422 5.9461C57.5042 5.9461 55.5062 7.9801 55.5062 10.5361C55.5062 13.0921 57.5042 15.1261 60.0422 15.1261C61.6442 15.1261 62.5802 14.1541 62.5802 14.1541V15.0001H64.6502V0.600098ZM60.0602 8.0161C61.4642 8.0161 62.5802 9.1321 62.5802 10.5361C62.5802 11.9221 61.4642 13.0561 60.0602 13.0561C58.6562 13.0561 57.5762 11.9221 57.5762 10.5361C57.5762 9.1321 58.6562 8.0161 60.0602 8.0161Z" fill="black"/>
<path d="M80.0184 6.0901H77.9484V6.9361C77.9484 6.9361 77.0124 5.9641 75.4284 5.9641C72.9084 5.9641 70.8744 7.9801 70.8744 10.5541C70.8744 13.1101 72.9084 15.1261 75.4284 15.1261C77.0124 15.1261 77.9484 14.1541 77.9484 14.1541V15.0001H80.0184V6.0901ZM75.4464 13.0561C74.0604 13.0561 72.9444 11.9761 72.9444 10.5541C72.9444 9.1321 74.0604 8.0341 75.4464 8.0341C76.8324 8.0341 77.9664 9.1321 77.9664 10.5541C77.9664 11.9761 76.8324 13.0561 75.4464 13.0561Z" fill="black"/>
<path d="M103.097 12.9121C100.379 12.9121 98.2546 10.7521 98.2546 8.0701C98.2546 5.3701 100.379 3.2101 103.097 3.2101C104.429 3.2101 105.653 3.7681 106.553 4.6501L108.101 3.0841C106.805 1.8061 105.041 1.0141 103.097 1.0141C99.1726 1.0141 96.0406 4.1281 96.0406 8.0521C96.0406 11.9941 99.1726 15.1261 103.097 15.1261C105.041 15.1261 106.805 14.3341 108.101 13.0561L106.553 11.4901C105.653 12.3721 104.429 12.9121 103.097 12.9121Z" fill="black"/>
<path d="M115.357 19.6801H117.607L123.079 6.0901H120.883L118.309 12.8041L115.555 6.0901H113.323L117.193 15.1801L115.357 19.6801Z" fill="black"/>
<path d="M128.93 19.6801H131V14.1541C131 14.1541 131.954 15.1441 133.556 15.1441C136.094 15.1441 138.074 13.0921 138.074 10.5361C138.074 7.9981 136.094 5.9641 133.556 5.9641C131.954 5.9641 131 6.9361 131 6.9361V6.0901H128.93V19.6801ZM133.52 13.0561C132.098 13.0561 131 11.9401 131 10.5361C131 9.1681 132.098 8.0341 133.52 8.0341C134.924 8.0341 136.004 9.1681 136.004 10.5361C136.004 11.9401 134.924 13.0561 133.52 13.0561Z" fill="black"/>
<path d="M144.105 15.0001H146.175V10.4461C146.175 8.9881 147.309 7.9981 148.641 7.9981C150.027 7.9981 151.071 9.0241 151.071 10.5361V15.0001H153.141V10.5361C153.141 7.9081 151.377 5.9461 148.839 5.9461C147.129 5.9461 146.175 6.9541 146.175 6.9541V0.600098H144.105V15.0001Z" fill="black"/>
<path d="M164.069 15.1261C165.293 15.1261 166.499 14.6581 167.399 13.7761L165.905 12.3181C165.437 12.8041 164.789 13.0741 164.087 13.0741C162.971 13.0561 162.107 12.4081 161.801 11.3821H168.605C168.605 8.0341 166.805 5.9641 164.069 5.9641C161.531 5.9641 159.533 7.9801 159.533 10.5541C159.533 13.0921 161.549 15.1261 164.069 15.1261ZM161.747 9.6181C162.071 8.6641 162.917 8.0161 164.015 7.9981C165.149 7.9981 166.067 8.6821 166.337 9.6181H161.747Z" fill="black"/>
<path d="M175.085 15.0001H177.155V10.0681C177.191 8.7901 178.109 7.9981 179.225 7.9981C179.639 7.9981 180.053 8.1421 180.395 8.3581L181.169 6.3961C180.629 6.1261 180.071 5.9641 179.387 5.9641C178.235 5.9641 177.407 6.6661 177.155 7.1161V6.0901H175.085V15.0001Z" fill="black"/>
</svg>
