<svg width="62" height="15" viewBox="0 0 62 15" fill="none" xmlns="http://www.w3.org/2000/svg">
<path d="M2.67658 14.6801H4.92658L10.3986 1.09011H8.20258L5.62858 7.80411L2.87458 1.09011H0.642578L4.51258 10.1801L2.67658 14.6801Z" fill="black"/>
<path d="M24.3982 1.09011H22.3282V1.93611C22.3282 1.93611 21.3922 0.964111 19.8082 0.964111C17.2882 0.964111 15.2542 2.98011 15.2542 5.55411C15.2542 8.11011 17.2882 10.1261 19.8082 10.1261C21.3922 10.1261 22.3282 9.15411 22.3282 9.15411V10.0001H24.3982V1.09011ZM19.8262 8.05611C18.4402 8.05611 17.3242 6.97611 17.3242 5.55411C17.3242 4.13211 18.4402 3.03411 19.8262 3.03411C21.2122 3.03411 22.3462 4.13211 22.3462 5.55411C22.3462 6.97611 21.2122 8.05611 19.8262 8.05611Z" fill="black"/>
<path d="M31.424 10.0001H33.494V5.12211C33.512 3.89811 34.376 3.08811 35.474 3.08811C36.572 3.08811 37.49 3.89811 37.49 5.12211V10.0001H39.56V5.12211C39.56 3.89811 40.442 2.99811 41.54 2.99811C42.638 2.99811 43.502 3.89811 43.502 5.12211V10.0001H45.554V5.06811C45.554 2.72811 43.826 0.964111 41.594 0.964111C39.956 0.964111 38.858 1.95411 38.48 2.35011C38.138 1.95411 37.31 0.964111 35.726 0.964111C34.538 0.964111 33.782 1.59411 33.494 1.88211V1.09011H31.424V10.0001Z" fill="black"/>
<path d="M61.1815 1.09011H59.1115V1.93611C59.1115 1.93611 58.1755 0.964111 56.5915 0.964111C54.0715 0.964111 52.0375 2.98011 52.0375 5.55411C52.0375 8.11011 54.0715 10.1261 56.5915 10.1261C58.1755 10.1261 59.1115 9.15411 59.1115 9.15411V10.0001H61.1815V1.09011ZM56.6095 8.05611C55.2235 8.05611 54.1075 6.97611 54.1075 5.55411C54.1075 4.13211 55.2235 3.03411 56.6095 3.03411C57.9955 3.03411 59.1295 4.13211 59.1295 5.55411C59.1295 6.97611 57.9955 8.05611 56.6095 8.05611Z" fill="black"/>
</svg>
