<svg width="290" height="15" viewBox="0 0 290 15" fill="none" xmlns="http://www.w3.org/2000/svg">
<path d="M0.967773 14L6.51177 14.018C8.83377 14 10.7238 12.092 10.7238 9.77004C10.7238 7.77204 9.24777 6.56604 8.65377 6.18804C8.86977 5.88204 9.48177 5.00004 9.48177 3.90204C9.48177 1.83204 7.87977 0.140038 5.70177 0.140038H0.967773V14ZM3.18177 5.59404V2.21004H5.61177C6.58377 2.21004 7.28577 2.98404 7.28577 3.90204C7.28577 4.82004 6.58377 5.59404 5.61177 5.59404H3.18177ZM3.18177 11.93V7.62804H6.36777C7.66377 7.62804 8.50977 8.63604 8.50977 9.77004C8.50977 10.94 7.66377 11.93 6.36777 11.93H3.18177Z" fill="black"/>
<path d="M19.862 0.140038H17.648V8.09604C17.648 11.516 20.258 14.126 23.678 14.126C27.08 14.126 29.69 11.516 29.69 8.09604V0.140038H27.494V8.02404C27.494 10.22 25.874 11.822 23.678 11.822C21.464 11.822 19.862 10.22 19.862 8.02404V0.140038Z" fill="black"/>
<path d="M47.4536 14L43.6376 8.20404C45.2396 7.66404 46.3376 6.11604 46.3376 4.29804C46.3376 1.99404 44.5916 0.140038 42.2876 0.140038H36.9776V14H39.1916V8.43804H41.1536L44.8256 14H47.4536ZM39.1916 2.21004H42.1976C43.3496 2.21004 44.1416 3.20004 44.1416 4.29804C44.1416 5.37804 43.3496 6.36804 42.1976 6.36804H39.1916V2.21004Z" fill="black"/>
<path d="M56.3352 3.52404L63.7692 14H66.1812V0.140038H63.9672V10.454L56.6232 0.140038H54.1212V14H56.3352V3.52404Z" fill="black"/>
<path d="M80.0793 0.0140381C76.2093 0.0140381 73.0233 3.12804 73.0233 7.07004C73.0233 10.976 76.1733 14.126 80.0793 14.126C84.0033 14.126 87.1353 10.994 87.1353 7.07004C87.1353 3.14604 83.9493 0.0140381 80.0793 0.0140381ZM80.0793 11.912C77.4333 11.912 75.2373 9.78804 75.2373 7.07004C75.1833 4.37004 77.4153 2.21004 80.0793 2.21004C82.7613 2.21004 84.9753 4.40604 84.9393 7.07004C84.9393 9.78804 82.7433 11.912 80.0793 11.912Z" fill="black"/>
<path d="M95.9247 0.140038H93.7107V8.09604C93.7107 11.516 96.3207 14.126 99.7407 14.126C103.143 14.126 105.753 11.516 105.753 8.09604V0.140038H103.557V8.02404C103.557 10.22 101.937 11.822 99.7407 11.822C97.5267 11.822 95.9247 10.22 95.9247 8.02404V0.140038Z" fill="black"/>
<path d="M115.74 2.21004V14H117.936V2.21004H121.428V0.140038H112.23V2.21004H115.74Z" fill="black"/>
<path d="M141.478 14.126C144.16 14.126 146.122 12.506 146.122 9.98604C146.122 8.36604 145.294 6.98004 143.422 6.20604C142.504 5.81004 141.712 5.55804 140.902 5.25204C140.236 5.01804 139.444 4.62204 139.444 3.77604C139.444 2.84004 140.254 2.19204 141.316 2.19204C142.198 2.19204 142.864 2.73204 143.278 3.36204L145.186 2.19204C144.358 1.07604 143.26 0.0140381 141.334 0.0140381C139.048 0.0140381 137.23 1.47204 137.23 3.79404C137.23 5.48604 138.364 6.69204 139.858 7.23204C140.722 7.55604 141.226 7.70004 141.982 7.98804C143.458 8.52804 143.926 9.19404 143.926 10.076C143.926 11.156 142.936 11.948 141.568 11.948C140.146 11.948 139.3 11.012 138.886 10.148L136.906 11.174C137.842 12.974 139.444 14.126 141.478 14.126Z" fill="black"/>
<path d="M155.529 8.16804V14H157.725V8.16804L162.207 0.140038H159.795L156.645 5.99004L153.459 0.140038H151.065L155.529 8.16804Z" fill="black"/>
<path d="M170.715 3.52404L178.149 14H180.561V0.140038H178.347V10.454L171.003 0.140038H168.501V14H170.715V3.52404Z" fill="black"/>
<path d="M188.123 14H192.353C196.169 13.982 199.283 10.886 199.283 7.05204C199.283 3.25404 196.169 0.158037 192.353 0.140038H188.123V14ZM190.337 11.93V2.21004H192.299C195.053 2.21004 197.087 4.38804 197.087 7.05204C197.087 9.73404 195.053 11.93 192.299 11.93H190.337Z" fill="black"/>
<path d="M216.692 14L212.876 8.20404C214.478 7.66404 215.576 6.11604 215.576 4.29804C215.576 1.99404 213.83 0.140038 211.526 0.140038H206.216V14H208.43V8.43804H210.392L214.064 14H216.692ZM208.43 2.21004H211.436C212.588 2.21004 213.38 3.20004 213.38 4.29804C213.38 5.37804 212.588 6.36804 211.436 6.36804H208.43V2.21004Z" fill="black"/>
<path d="M229.151 0.0140381C225.281 0.0140381 222.095 3.12804 222.095 7.07004C222.095 10.976 225.245 14.126 229.151 14.126C233.075 14.126 236.207 10.994 236.207 7.07004C236.207 3.14604 233.021 0.0140381 229.151 0.0140381ZM229.151 11.912C226.505 11.912 224.309 9.78804 224.309 7.07004C224.255 4.37004 226.487 2.21004 229.151 2.21004C231.833 2.21004 234.047 4.40604 234.011 7.07004C234.011 9.78804 231.815 11.912 229.151 11.912Z" fill="black"/>
<path d="M255.454 3.70404V14H257.668V0.140038H255.274L250.36 7.08804L245.428 0.140038H243.052V14H245.266V3.68604L250.36 10.868L255.454 3.70404Z" fill="black"/>
<path d="M265.223 0.140038V14H273.881V11.93H267.437V8.18604H273.035V6.11604H267.437V2.21004H273.881V0.140038H265.223Z" fill="black"/>
<path d="M285.026 14.126C287.708 14.126 289.67 12.506 289.67 9.98604C289.67 8.36604 288.842 6.98004 286.97 6.20604C286.052 5.81004 285.26 5.55804 284.45 5.25204C283.784 5.01804 282.992 4.62204 282.992 3.77604C282.992 2.84004 283.802 2.19204 284.864 2.19204C285.746 2.19204 286.412 2.73204 286.826 3.36204L288.734 2.19204C287.906 1.07604 286.808 0.0140381 284.882 0.0140381C282.596 0.0140381 280.778 1.47204 280.778 3.79404C280.778 5.48604 281.912 6.69204 283.406 7.23204C284.27 7.55604 284.774 7.70004 285.53 7.98804C287.006 8.52804 287.474 9.19404 287.474 10.076C287.474 11.156 286.484 11.948 285.116 11.948C283.694 11.948 282.848 11.012 282.434 10.148L280.454 11.174C281.39 12.974 282.992 14.126 285.026 14.126Z" fill="black"/>
</svg>
