<svg xmlns="http://www.w3.org/2000/svg" width="176" height="25" viewBox="0 0 352 50">
  <defs>
    <style>
      .cls-1 {
        fill-rule: evenodd;
      }
    </style>
  </defs>
  <path id="Afterword" class="cls-1" d="M236.921,17170.9h8.04l-19.08-46.2H218.2l-18.96,46.2h8.16l3.84-9.4h21.779Zm-22.859-16.3,7.98-19.7,8.1,19.7H214.062Zm44.85,16.3h6.9v-23.2h6.66v-6.6h-6.66v-5.9a5.547,5.547,0,0,1,5.58-5.7,5.652,5.652,0,0,1,4.08,1.7l4.74-4.6a12.277,12.277,0,0,0-8.82-3.7,12.143,12.143,0,0,0-12.479,12.3v5.9h-6.6v6.6h6.6v23.2Zm32.063,0h6.9v-23.2h5.28v-6.5h-5.28v-10.8h-6.9v10.8h-5.34v6.5h5.34v23.2Zm38.165,0.4a16.039,16.039,0,0,0,11.1-4.5l-4.98-4.9a8.1,8.1,0,0,1-6.06,2.6,7.881,7.881,0,0,1-7.619-5.7H344.26c0-11.1-6-18-15.12-18A15.251,15.251,0,0,0,329.14,17171.3Zm-7.739-18.4a8.033,8.033,0,0,1,7.559-5.4,7.859,7.859,0,0,1,7.74,5.4H321.4Zm36.257,18h6.9v-16.5a6.785,6.785,0,0,1,6.9-6.9,7.642,7.642,0,0,1,3.9,1.2l2.58-6.5a12.762,12.762,0,0,0-5.94-1.4,8.878,8.878,0,0,0-7.44,3.8v-3.4h-6.9v29.7Zm42.239,0h6.06l7.14-20.9,7.2,20.9h6l12.18-29.7h-7.32l-7.86,18.9-6-18.9h-8.4l-6,18.9-7.8-18.9h-7.38Zm62.507,0.4a15.25,15.25,0,1,0-15.179-15.3A15.2,15.2,0,0,0,462.4,17171.3Zm0-6.9a8.464,8.464,0,0,1-8.279-8.4,8.28,8.28,0,1,1,16.559,0A8.453,8.453,0,0,1,462.4,17164.4Zm28.86,6.5h6.9v-16.5a6.785,6.785,0,0,1,6.9-6.9,7.642,7.642,0,0,1,3.9,1.2l2.58-6.5a12.762,12.762,0,0,0-5.94-1.4,8.878,8.878,0,0,0-7.44,3.8v-3.4h-6.9v29.7Zm59.662-48h-6.9v21a12.455,12.455,0,0,0-8.46-3.2,15.3,15.3,0,0,0,0,30.6,12.455,12.455,0,0,0,8.46-3.2v2.8h6.9v-48Zm-15.3,24.7a8.4,8.4,0,1,1-8.28,8.4A8.235,8.235,0,0,1,535.627,17147.6Z" transform="translate(-199.25 -17122.9)"/>
</svg>
