<svg id="TTL" xmlns="http://www.w3.org/2000/svg" width="221" height="134" viewBox="0 0 442 268">
  <defs>
    <style>
      .cls-1 {
        fill-rule: evenodd;
      }
    </style>
  </defs>
  <path id="M1._Welcomte_My_Friend_M2._NO_MORE_MUSIC" data-name="M1. Welcomte My Friend M2. NO MORE MUSIC" class="cls-1" d="M176.183,11853.7v17.2h3.69v-23.1h-3.99l-8.19,11.6-8.219-11.6h-3.96v23.1h3.69v-17.2l8.489,12Zm11.485,14v3.2H200.6v-3.2h-4.68v-20l-8.249,4.2v3.5l4.649-2.3v14.6h-4.649Zm22.334,3.4a2.24,2.24,0,0,0,2.22-2.3,2.217,2.217,0,0,0-2.22-2.2A2.25,2.25,0,1,0,210,11871.1Zm37.259-16.7,4.83,16.5h4.23l6.72-23.1h-4.05l-4.8,17.6-4.89-17.6h-4.2l-4.8,17.6-4.86-17.6h-4.08l6.81,23.1H242.4Zm27.568,16.7a7.852,7.852,0,0,0,5.549-2.3l-2.49-2.4a4.242,4.242,0,0,1-3.029,1.3,3.958,3.958,0,0,1-3.81-2.8h11.339c0-5.6-3-9.1-7.559-9.1A7.651,7.651,0,0,0,274.829,11871.1Zm-3.87-9.2a3.889,3.889,0,0,1,3.78-2.7,3.99,3.99,0,0,1,3.869,2.7h-7.649Zm18.564-15v24h3.449v-24h-3.449Zm18.314,24.2a7.432,7.432,0,0,0,5.37-2.3l-2.43-2.4a4.066,4.066,0,0,1-2.97,1.2,4.15,4.15,0,1,1,0-8.3,4.448,4.448,0,0,1,2.97,1.2l2.43-2.4a7.581,7.581,0,0,0-13.02,5.3A7.623,7.623,0,0,0,307.837,11871.1Zm18.576,0a7.65,7.65,0,1,0-7.59-7.7A7.61,7.61,0,0,0,326.413,11871.1Zm0-3.5a4.15,4.15,0,1,1,4.14-4.2A4.227,4.227,0,0,1,326.413,11867.6Zm14.814,3.3h3.45v-8.1a3.33,3.33,0,1,1,6.659,0v8.1h3.45v-8.1a3.3,3.3,0,1,1,6.57,0v8.1h3.42v-8.2a6.653,6.653,0,0,0-6.6-6.9,7.588,7.588,0,0,0-5.19,2.3,5.986,5.986,0,0,0-4.59-2.3,5.163,5.163,0,0,0-3.719,1.6v-1.4h-3.45v14.9Zm32.544,0h3.449v-11.6h2.64v-3.3h-2.64v-5.3h-3.449v5.3H371.1v3.3h2.67v11.6Zm19.421,0.2a7.853,7.853,0,0,0,5.55-2.3l-2.49-2.4a4.243,4.243,0,0,1-3.03,1.3,3.958,3.958,0,0,1-3.81-2.8h11.34c0-5.6-3-9.1-7.56-9.1A7.651,7.651,0,0,0,393.192,11871.1Zm-3.87-9.2a3.889,3.889,0,0,1,3.78-2.7,3.991,3.991,0,0,1,3.87,2.7h-7.65Zm53.1-8.2v17.2h3.69v-23.1h-3.99l-8.189,11.6-8.22-11.6h-3.96v23.1h3.69v-17.2l8.49,12Zm13.5,25h3.75l9.119-22.7h-3.659l-4.29,11.2-4.59-11.2h-3.72l6.45,15.2Zm32.669-30.9v23.1h3.72v-9.7h9.3v-3.5h-9.3v-6.5h10.71v-3.4h-14.43Zm20.442,23.1h3.45v-8.2a3.374,3.374,0,0,1,3.45-3.5,4.369,4.369,0,0,1,1.95.6l1.29-3.3a7.059,7.059,0,0,0-2.97-.7,4.567,4.567,0,0,0-3.72,1.9v-1.7h-3.45v14.9Zm18.111-22.4a2.284,2.284,0,0,0-2.25,2.3,2.266,2.266,0,0,0,4.53,0A2.271,2.271,0,0,0,527.144,11848.5Zm-1.71,7.5v14.9h3.45V11856h-3.45Zm18.264,15.1a7.851,7.851,0,0,0,5.549-2.3l-2.489-2.4a4.243,4.243,0,0,1-3.03,1.3,3.958,3.958,0,0,1-3.81-2.8h11.339c0-5.6-3-9.1-7.559-9.1A7.651,7.651,0,0,0,543.7,11871.1Zm-3.87-9.2a3.889,3.889,0,0,1,3.78-2.7,3.989,3.989,0,0,1,3.869,2.7h-7.649Zm18.522,9h3.45v-8.4a3.42,3.42,0,0,1,6.839,0v8.4h3.45v-8.3c0-4-2.4-6.8-6.39-6.8a5.684,5.684,0,0,0-3.9,1.7v-1.5h-3.45v14.9Zm36.056-24h-3.45v10.5a6.227,6.227,0,0,0-4.23-1.6,7.651,7.651,0,0,0,0,15.3,6.227,6.227,0,0,0,4.23-1.6v1.4h3.45v-24Zm-7.65,12.3a4.2,4.2,0,0,1,4.2,4.2,4.137,4.137,0,0,1-4.2,4.2,4.088,4.088,0,0,1-4.14-4.2A4.149,4.149,0,0,1,586.756,11859.2Zm-385.233,54.5v17.2h3.69v-23.1h-3.99l-8.189,11.6-8.22-11.6h-3.96v23.1h3.69v-17.2l8.49,12Zm10.81,17.2h15.21v-3.4h-8.19l6.09-7.8a7.577,7.577,0,0,0,1.56-4.6,7.3,7.3,0,0,0-7.53-7.5,7.2,7.2,0,0,0-7.47,7.1h3.51a3.7,3.7,0,0,1,3.96-3.6,3.756,3.756,0,0,1,3.99,4,4.578,4.578,0,0,1-1.14,2.8Zm24.789,0.2a2.239,2.239,0,0,0,2.219-2.3,2.216,2.216,0,0,0-2.219-2.2A2.25,2.25,0,1,0,237.122,11931.1Zm27.149-17.7,12.39,17.5h4.019v-23.1h-3.689v17.2l-12.24-17.2h-4.17v23.1h3.69v-17.5Zm35.745-5.8a11.75,11.75,0,1,0,11.759,11.7A11.734,11.734,0,0,0,300.016,11907.6Zm0,19.8a8.1,8.1,0,1,1,8.1-8.1A8.034,8.034,0,0,1,300.016,11927.4Zm53.429-13.7v17.2h3.69v-23.1h-3.99l-8.19,11.6-8.219-11.6h-3.96v23.1h3.69v-17.2l8.489,12Zm23.04-6.1a11.75,11.75,0,1,0,11.76,11.7A11.733,11.733,0,0,0,376.485,11907.6Zm0,19.8a8.1,8.1,0,1,1,8.1-8.1A8.034,8.034,0,0,1,376.485,11927.4Zm36.795,3.5-6.36-9.7a6.919,6.919,0,0,0-2.25-13.4h-8.85v23.1h3.69v-9.3h3.27l6.12,9.3h4.38Zm-13.77-19.7h5.01a3.51,3.51,0,0,1,0,7h-5.01v-7Zm20.589-3.4v23.1h14.429v-3.5H423.789v-6.2h9.33v-3.5h-9.33v-6.5h10.739v-3.4H420.1Zm56.7,5.9v17.2h3.69v-23.1H476.5l-8.19,11.6-8.219-11.6h-3.96v23.1h3.69v-17.2l8.489,12Zm15.826-5.9h-3.69v13.2a10.035,10.035,0,1,0,20.069,0v-13.2h-3.66v13.1a6.36,6.36,0,1,1-12.719,0v-13.1Zm30.917,23.3c4.47,0,7.74-2.7,7.74-6.8a6.437,6.437,0,0,0-4.32-6.4c-1.53-.6-3.03-1.1-4.38-1.6-1.11-.4-2.43-1-2.43-2.5s1.35-2.5,3.12-2.5a3.877,3.877,0,0,1,3.27,1.9l3.18-2a7.526,7.526,0,0,0-6.42-3.6c-3.81,0-6.84,2.4-6.84,6.3a6.087,6.087,0,0,0,4.38,5.7c1.44,0.5,2.28.8,3.54,1.3,2.46,0.9,3.33,2.2,3.24,3.6-0.18,1.8-1.89,2.9-3.93,2.9a4.891,4.891,0,0,1-4.47-2.9l-3.3,1.7A8.446,8.446,0,0,0,523.541,11931.1Zm18.846-23.3v23.1H538.7v-23.1h3.69Zm19.389,19.6a8.1,8.1,0,0,1,0-16.2,8.564,8.564,0,0,1,5.76,2.4l2.579-2.6a11.928,11.928,0,0,0-8.339-3.4,11.75,11.75,0,1,0,8.339,20l-2.579-2.6A8.122,8.122,0,0,1,561.776,11927.4Z" transform="translate(-155.5 -11664.7)"/>
  <path id="OKAMOTO_S" data-name="OKAMOTO’S" class="cls-1" d="M179.324,11741.5a23.5,23.5,0,1,0,23.519,23.5A23.489,23.489,0,0,0,179.324,11741.5Zm0,39.7a16.2,16.2,0,1,1,16.2-16.2A16.132,16.132,0,0,1,179.324,11781.2Zm64.362,7h9.179l-21.539-23.9,17.579-22.4h-8.579l-15.6,19.9v-19.9h-7.379v46.3h7.379v-21Zm57.467-.1h8.039l-19.079-46.2h-7.68l-18.959,46.2h8.16l3.84-9.4h21.779Zm-22.859-16.3,7.979-19.6,8.1,19.6H278.294Zm84.67-18v34.3h7.38v-46.2h-7.98l-16.379,23.2-16.44-23.2h-7.919v46.2h7.379v-34.4l16.98,24Zm45.438-12.3a23.5,23.5,0,1,0,23.519,23.5A23.489,23.489,0,0,0,408.4,11741.5Zm0,39.7a16.2,16.2,0,1,1,16.2-16.2A16.132,16.132,0,0,1,408.4,11781.2Zm44.292-32.4v39.3h7.32v-39.3h11.64v-6.9H441v6.9h11.7Zm51.521-7.3a23.5,23.5,0,1,0,23.519,23.5A23.489,23.489,0,0,0,504.215,11741.5Zm0,39.7a16.2,16.2,0,1,1,16.2-16.2A16.131,16.131,0,0,1,504.215,11781.2Zm35.071-18.9h6.96l11.04-19.9h-10.26Zm42.6,26.2c8.94,0,15.48-5.4,15.48-13.5,0-5.5-2.28-10.2-8.64-12.8-3.06-1.3-6.06-2.2-8.76-3.2-2.22-.8-4.859-2.1-4.859-5,0-3.1,2.7-5.1,6.239-5.1a7.984,7.984,0,0,1,6.54,3.8l6.36-3.9c-2.76-3.8-6.42-7.3-12.84-7.3-7.619,0-13.679,4.9-13.679,12.6,0,5.6,3.78,9.7,8.76,11.5,2.879,1,4.559,1.5,7.079,2.5,4.92,1.8,6.66,4.4,6.48,7.3-0.36,3.5-3.78,5.7-7.86,5.7a9.624,9.624,0,0,1-8.939-5.8l-6.6,3.4C569.765,11784.7,575.105,11788.5,581.884,11788.5Z" transform="translate(-155.5 -11664.7)"/>
  <path id="Stage_n_o3" data-name="Stage n°o3" class="cls-1" d="M288.276,11688.2c4.469,0,7.739-2.7,7.739-6.8a6.518,6.518,0,0,0-4.32-6.4c-1.53-.6-3.029-1.1-4.379-1.6-1.11-.4-2.43-1-2.43-2.4,0-1.6,1.35-2.6,3.12-2.6a3.875,3.875,0,0,1,3.269,1.9l3.18-2c-1.38-1.8-3.21-3.6-6.419-3.6-3.81,0-6.84,2.4-6.84,6.3a6.087,6.087,0,0,0,4.38,5.7c1.44,0.6,2.28.8,3.54,1.3,2.459,0.9,3.329,2.2,3.239,3.6-0.18,1.8-1.89,2.9-3.929,2.9a4.891,4.891,0,0,1-4.47-2.9l-3.3,1.7A8.446,8.446,0,0,0,288.276,11688.2Zm16.128-.2h3.45v-11.6h2.639v-3.2h-2.639v-5.4H304.4v5.4h-2.67v3.2h2.67v11.6Zm27.1-14.8h-3.45v1.4a6.031,6.031,0,0,0-4.2-1.7,7.61,7.61,0,0,0-7.589,7.7,7.525,7.525,0,0,0,7.589,7.6,6.2,6.2,0,0,0,4.2-1.6v1.4h3.45v-14.8Zm-7.62,11.6a4.2,4.2,0,1,1,4.2-4.2A4.13,4.13,0,0,1,323.885,11684.8Zm22.56,11.2a7.463,7.463,0,0,0,7.62-7.6v-15.2h-3.42v1.4a6.031,6.031,0,0,0-4.2-1.7,7.65,7.65,0,0,0,0,15.3,6.2,6.2,0,0,0,4.2-1.6v1.8a4.255,4.255,0,0,1-4.17,4.3,4.035,4.035,0,0,1-3-1.3l-2.4,2.4A7.3,7.3,0,0,0,346.445,11696Zm0-11.2a4.253,4.253,0,0,1-4.139-4.2,4.167,4.167,0,0,1,4.139-4.2,4.245,4.245,0,0,1,4.23,4.2A4.312,4.312,0,0,1,346.445,11684.8Zm22.458,3.4a8.2,8.2,0,0,0,5.55-2.2l-2.49-2.5a4.243,4.243,0,0,1-3.03,1.3,3.84,3.84,0,0,1-3.809-2.8h11.339c0-5.6-3-9.1-7.56-9.1A7.651,7.651,0,0,0,368.9,11688.2Zm-3.869-9.2a4.059,4.059,0,0,1,7.649,0h-7.649Zm31.979,9h3.45v-8.4a3.275,3.275,0,0,1,3.39-3.4,3.332,3.332,0,0,1,3.45,3.5v8.3h3.45v-8.3c0-4-2.4-6.8-6.39-6.8a5.271,5.271,0,0,0-3.9,1.8v-1.5h-3.45v14.8Zm23.757-20.2a2.232,2.232,0,0,1,3.045,0,1.964,1.964,0,0,1,.645,1.5,2.354,2.354,0,0,1-.645,1.6,2.152,2.152,0,0,1-1.515.6,1.881,1.881,0,0,1-1.53-.7A2.1,2.1,0,0,1,420.77,11667.8Zm-2.64,3.3a5.131,5.131,0,0,0,.96,1.4,6.039,6.039,0,0,0,1.425,1,5.46,5.46,0,0,0,3.57,0,6.351,6.351,0,0,0,1.44-1,4.724,4.724,0,0,0,.96-1.4,5,5,0,0,0,.345-1.8,3.986,3.986,0,0,0-.36-1.7,5.639,5.639,0,0,0-.96-1.5,3.825,3.825,0,0,0-1.44-.9,3.646,3.646,0,0,0-1.77-.4,3.5,3.5,0,0,0-1.725.4,4.136,4.136,0,0,0-1.455.9,4.18,4.18,0,0,0-.99,1.5,3.986,3.986,0,0,0-.36,1.7A4.815,4.815,0,0,0,418.13,11671.1Zm22.169,17.1a7.65,7.65,0,1,0-7.589-7.6A7.588,7.588,0,0,0,440.3,11688.2Zm0-3.4a4.2,4.2,0,1,1,4.14-4.2A4.3,4.3,0,0,1,440.3,11684.8Zm21.5,3.4a7.405,7.405,0,0,0,7.62-7.5,7.3,7.3,0,0,0-5.97-7.4l4.83-4.8v-3.6H455.1v3.4h8.34l-6.81,6.8,2.52,2.6a4.063,4.063,0,0,1,2.76-1.1,3.852,3.852,0,0,1,3.84,4.1,3.812,3.812,0,0,1-3.96,4,3.859,3.859,0,0,1-3.9-3.7H454.2A7.508,7.508,0,0,0,461.794,11688.2Z" transform="translate(-155.5 -11664.7)"/>
</svg>
