<svg id="TTL" xmlns="http://www.w3.org/2000/svg" width="231" height="134" viewBox="0 0 462 268">
  <defs>
    <style>
      .cls-1 {
        fill-rule: evenodd;
      }
    </style>
  </defs>
  <path id="M1._YES_M2._Eclair" data-name="M1. YES M2. Eclair" class="cls-1" d="M327.635,7541.72v17.16h3.69v-23.1h-3.99l-8.19,11.58-8.22-11.58h-3.959v23.1h3.689v-17.19l8.49,11.97Zm11.484,13.95v3.21h12.93v-3.21h-4.68v-19.98l-8.25,4.23v3.45l4.65-2.25v14.55h-4.65Zm22.335,3.42a2.241,2.241,0,0,0,2.22-2.25,2.215,2.215,0,0,0-2.22-2.22,2.241,2.241,0,0,0-2.25,2.22A2.266,2.266,0,0,0,361.454,7559.09Zm28.8-9.93v9.72h3.659v-9.72l7.47-13.38h-4.02l-5.25,9.75-5.309-9.75h-3.99Zm17.009-13.38v23.1h14.43v-3.45h-10.74v-6.24h9.33v-3.45h-9.33v-6.51h10.74v-3.45h-14.43Zm28.551,23.31c4.47,0,7.74-2.7,7.74-6.78a6.394,6.394,0,0,0-4.32-6.39c-1.53-.66-3.03-1.11-4.38-1.62-1.11-.39-2.43-1.05-2.43-2.46,0-1.56,1.35-2.58,3.12-2.58a3.983,3.983,0,0,1,3.27,1.89l3.18-1.95c-1.38-1.86-3.21-3.63-6.42-3.63-3.81,0-6.84,2.43-6.84,6.3a6.1,6.1,0,0,0,4.38,5.73c1.44,0.54,2.28.78,3.54,1.26,2.46,0.9,3.33,2.19,3.24,3.66-0.18,1.77-1.89,2.85-3.93,2.85a4.836,4.836,0,0,1-4.47-2.91l-3.3,1.71A8.465,8.465,0,0,0,435.814,7559.09Zm-127.34,42.63v17.16h3.69v-23.1h-3.99l-8.189,11.58-8.22-11.58h-3.96v23.1h3.69v-17.19l8.49,11.97Zm10.81,17.16h15.209v-3.39H326.3l6.09-7.83a7.488,7.488,0,0,0,1.559-4.56,7.332,7.332,0,0,0-7.529-7.53,7.228,7.228,0,0,0-7.47,7.17h3.51a3.757,3.757,0,0,1,3.96-3.69,3.811,3.811,0,0,1,3.99,4.05,4.648,4.648,0,0,1-1.14,2.82Zm24.789,0.21a2.241,2.241,0,0,0,2.219-2.25,2.215,2.215,0,0,0-2.219-2.22,2.241,2.241,0,0,0-2.25,2.22A2.266,2.266,0,0,0,344.073,7619.09Zm23.459-23.31v23.1h14.43v-3.45h-10.74v-6.24h9.33v-3.45h-9.33v-6.51h10.74v-3.45h-14.43Zm28.545,23.31a7.5,7.5,0,0,0,5.37-2.28l-2.43-2.43a4.174,4.174,0,0,1-2.97,1.23,4.17,4.17,0,0,1,0-8.34,4.149,4.149,0,0,1,2.97,1.26l2.43-2.46a7.616,7.616,0,0,0-13.02,5.37A7.625,7.625,0,0,0,396.077,7619.09Zm12.171-24.21v23.97h3.45v-23.97h-3.45Zm25.9,9.15H430.7v1.41a6.16,6.16,0,0,0-4.2-1.62,7.635,7.635,0,0,0,0,15.27,6.16,6.16,0,0,0,4.2-1.62v1.41h3.45v-14.85Zm-7.62,11.61a4.185,4.185,0,0,1,0-8.37A4.185,4.185,0,1,1,426.532,7615.64Zm17.55-19.17a2.313,2.313,0,0,0-2.25,2.28,2.266,2.266,0,0,0,2.25,2.25,2.235,2.235,0,0,0,2.28-2.25A2.279,2.279,0,0,0,444.082,7596.47Zm-1.71,7.53v14.85h3.45V7604h-3.45Zm11.553,14.88h3.45v-8.22a3.374,3.374,0,0,1,3.45-3.45,3.728,3.728,0,0,1,1.95.6l1.29-3.27a6.39,6.39,0,0,0-2.97-.72,4.447,4.447,0,0,0-3.72,1.92v-1.71h-3.45v14.85Z" transform="translate(-145.906 -7352.62)"/>
  <path id="okazakitaiiku" class="cls-1" d="M161.094,7476.3a15.27,15.27,0,1,0-15.18-15.3A15.185,15.185,0,0,0,161.094,7476.3Zm0-6.9a8.37,8.37,0,1,1,8.279-8.4A8.439,8.439,0,0,1,161.094,7469.4Zm35.9,6.48v-13.56l13.5,13.56h9.78l-16.32-16.32,13.62-13.38h-9.84l-10.739,10.5v-28.8h-6.9v48h6.9Zm61.522-29.7h-6.9V7449a12.321,12.321,0,0,0-8.4-3.24,15.27,15.27,0,0,0,0,30.54,12.321,12.321,0,0,0,8.4-3.24v2.82h6.9v-29.7Zm-15.24,23.22a8.37,8.37,0,0,1,0-16.74A8.37,8.37,0,1,1,243.274,7469.4Zm29.557,6.48H298.15v-6.6h-12.9l12.779-23.1H271.811v6.54h14.22Zm67.078-29.7h-6.9V7449a12.317,12.317,0,0,0-8.4-3.24,15.27,15.27,0,0,0,0,30.54,12.317,12.317,0,0,0,8.4-3.24v2.82h6.9v-29.7ZM324.67,7469.4a8.37,8.37,0,0,1,0-16.74A8.37,8.37,0,1,1,324.67,7469.4Zm37.692,6.48v-13.56l13.5,13.56h9.779l-16.319-16.32,13.619-13.38H373.1l-10.74,10.5v-28.8h-6.9v48h6.9Zm39.071-44.82a4.625,4.625,0,0,0-4.5,4.56,4.532,4.532,0,0,0,4.5,4.5,4.47,4.47,0,0,0,4.56-4.5A4.558,4.558,0,0,0,401.433,7431.06Zm-3.419,15.06v29.7h6.9v-29.7h-6.9Zm25.169,29.82h6.9v-23.22h5.28v-6.54h-5.28v-10.74h-6.9v10.74h-5.34v6.54h5.34v23.22Zm53.525-29.76h-6.9V7449a12.32,12.32,0,0,0-8.4-3.24,15.27,15.27,0,0,0,0,30.54,12.32,12.32,0,0,0,8.4-3.24v2.82h6.9v-29.7Zm-15.239,23.22a8.37,8.37,0,0,1,0-16.74A8.37,8.37,0,1,1,461.469,7469.4Zm34.47-38.34a4.626,4.626,0,0,0-4.5,4.56,4.533,4.533,0,0,0,4.5,4.5,4.47,4.47,0,0,0,4.56-4.5A4.558,4.558,0,0,0,495.939,7431.06Zm-3.42,15.06v29.7h6.9v-29.7h-6.9Zm26.22-15.06a4.626,4.626,0,0,0-4.5,4.56,4.533,4.533,0,0,0,4.5,4.5,4.469,4.469,0,0,0,4.559-4.5A4.557,4.557,0,0,0,518.739,7431.06Zm-3.42,15.06v29.7h6.9v-29.7h-6.9Zm29.513,29.76v-13.56l13.5,13.56h9.779l-16.319-16.32,13.619-13.38h-9.839l-10.74,10.5v-28.8h-6.9v48h6.9Zm47.663,0.42c8.04,0,13.86-5.64,13.86-13.68v-16.44h-6.9v16.68c0,4.08-2.88,6.78-6.96,6.78-4.02,0-6.96-2.7-6.96-6.78v-16.68h-6.9v16.44C578.636,7470.66,584.455,7476.3,592.5,7476.3Z" transform="translate(-145.906 -7352.62)"/>
  <path id="Stage_n_o2" data-name="Stage n°o2" class="cls-1" d="M289.055,7376.16c4.47,0,7.74-2.7,7.74-6.78a6.394,6.394,0,0,0-4.32-6.39c-1.53-.66-3.03-1.11-4.38-1.62-1.11-.39-2.43-1.05-2.43-2.46,0-1.56,1.35-2.58,3.12-2.58a3.983,3.983,0,0,1,3.27,1.89l3.18-1.95c-1.38-1.86-3.21-3.63-6.42-3.63-3.809,0-6.839,2.43-6.839,6.3a6.1,6.1,0,0,0,4.379,5.73c1.44,0.54,2.28.78,3.54,1.26,2.46,0.9,3.33,2.19,3.24,3.66-0.18,1.77-1.89,2.85-3.93,2.85a4.833,4.833,0,0,1-4.469-2.91l-3.3,1.71A8.463,8.463,0,0,0,289.055,7376.16Zm16.129-.18h3.449v-11.61h2.64v-3.27h-2.64v-5.37h-3.449v5.37h-2.67v3.27h2.67v11.61Zm27.1-14.88h-3.45v1.41a6.16,6.16,0,0,0-4.2-1.62,7.635,7.635,0,0,0,0,15.27,6.16,6.16,0,0,0,4.2-1.62v1.41h3.45V7361.1Zm-7.62,11.61a4.185,4.185,0,0,1,0-8.37A4.185,4.185,0,1,1,324.665,7372.71Zm22.56,11.25a7.5,7.5,0,0,0,7.62-7.62V7361.1h-3.42v1.41a6.16,6.16,0,0,0-4.2-1.62,7.635,7.635,0,0,0,0,15.27,6.16,6.16,0,0,0,4.2-1.62v1.8a4.227,4.227,0,0,1-4.17,4.29,4.141,4.141,0,0,1-3-1.29l-2.4,2.4A7.436,7.436,0,0,0,347.225,7383.96Zm0-11.25a4.2,4.2,0,0,1,0-8.4A4.2,4.2,0,1,1,347.225,7372.71Zm22.458,3.45a7.931,7.931,0,0,0,5.55-2.25l-2.49-2.43a4.167,4.167,0,0,1-3.03,1.26,3.881,3.881,0,0,1-3.81-2.82h11.34c0-5.58-3-9.03-7.56-9.03A7.635,7.635,0,0,0,369.683,7376.16Zm-3.87-9.18a4.059,4.059,0,0,1,7.65,0h-7.65Zm31.98,8.97h3.45v-8.37a3.269,3.269,0,0,1,3.39-3.42,3.308,3.308,0,0,1,3.45,3.45v8.34h3.45v-8.31c0-3.99-2.4-6.75-6.39-6.75a5.6,5.6,0,0,0-3.9,1.71v-1.5h-3.45v14.85Zm21.8-21.77a4.288,4.288,0,0,0-1.333,3.21,4.527,4.527,0,0,0,9.053-.02,4.539,4.539,0,0,0-4.468-4.51,4.448,4.448,0,0,0-3.252,1.32h0Zm4.878,1.61a2.151,2.151,0,0,1,.689,1.61,2.409,2.409,0,0,1-.7,1.75,2.2,2.2,0,0,1-1.67.72,2.255,2.255,0,0,1-1.67-.72,2.4,2.4,0,0,1-.7-1.75,2.156,2.156,0,0,1,.688-1.62,2.412,2.412,0,0,1,1.714-.66,2.243,2.243,0,0,1,1.655.67h0Zm16.172,20.37a7.635,7.635,0,1,0-7.59-7.65A7.593,7.593,0,0,0,440.645,7376.16Zm0-3.45a4.185,4.185,0,1,1,4.14-4.2A4.219,4.219,0,0,1,440.645,7372.71Zm12.63,3.24h15.209v-3.39H460.3l6.089-7.83a7.483,7.483,0,0,0,1.56-4.56,7.333,7.333,0,0,0-7.529-7.53,7.228,7.228,0,0,0-7.47,7.17h3.51a3.757,3.757,0,0,1,3.96-3.69,3.81,3.81,0,0,1,3.989,4.05,4.648,4.648,0,0,1-1.14,2.82Z" transform="translate(-145.906 -7352.62)"/>
</svg>
