<svg id="title" xmlns="http://www.w3.org/2000/svg" width="145" height="52" viewBox="0 0 290 104">
  <defs>
    <style>
      .cls-1 {
        fill-rule: evenodd;
      }
    </style>
  </defs>
  <path id="_2020.09.05_SAT_" data-name="2020.09.05(SAT)" class="cls-1" d="M0.162,97.883H15.371v-3.39H7.182l6.09-7.83a7.483,7.483,0,0,0,1.56-4.56,7.332,7.332,0,0,0-7.53-7.53,7.228,7.228,0,0,0-7.47,7.17h3.51a3.757,3.757,0,0,1,3.96-3.69,3.81,3.81,0,0,1,3.99,4.05,4.648,4.648,0,0,1-1.14,2.82Zm29.456,0.21a7.465,7.465,0,0,0,7.56-7.53v-8.55a7.56,7.56,0,0,0-15.119,0v8.55A7.5,7.5,0,0,0,29.618,98.093Zm0-3.51a3.84,3.84,0,0,1-3.9-3.99v-8.61a3.9,3.9,0,1,1,7.8,0v8.61A3.84,3.84,0,0,1,29.618,94.583Zm14.127,3.3H58.955v-3.39h-8.19l6.09-7.83a7.483,7.483,0,0,0,1.56-4.56,7.332,7.332,0,0,0-7.53-7.53,7.228,7.228,0,0,0-7.47,7.17h3.51a3.756,3.756,0,0,1,3.96-3.69,3.81,3.81,0,0,1,3.99,4.05,4.648,4.648,0,0,1-1.14,2.82ZM73.2,98.093a7.465,7.465,0,0,0,7.56-7.53v-8.55a7.56,7.56,0,0,0-15.119,0v8.55A7.5,7.5,0,0,0,73.2,98.093Zm0-3.51a3.84,3.84,0,0,1-3.9-3.99v-8.61a3.9,3.9,0,1,1,7.8,0v8.61A3.84,3.84,0,0,1,73.2,94.583Zm16.455,3.51a2.241,2.241,0,0,0,2.22-2.25,2.215,2.215,0,0,0-2.22-2.22,2.241,2.241,0,0,0-2.25,2.22A2.266,2.266,0,0,0,89.657,98.093Zm16.376,0a7.466,7.466,0,0,0,7.56-7.53v-8.55a7.56,7.56,0,0,0-15.12,0v8.55A7.5,7.5,0,0,0,106.033,98.093Zm0-3.51a3.84,3.84,0,0,1-3.9-3.99v-8.61a3.9,3.9,0,1,1,7.8,0v8.61A3.84,3.84,0,0,1,106.033,94.583Zm21.573-20.009a7.624,7.624,0,0,0-7.619,7.68,7.294,7.294,0,0,0,7.589,7.38l-4.86,7.26,2.79,1.89,8.34-12.239a7.718,7.718,0,0,0,1.38-4.35A7.611,7.611,0,0,0,127.606,74.574Zm0,3.66a3.96,3.96,0,1,1-3.93,3.96A3.937,3.937,0,0,1,127.606,78.234Zm13.545,19.859a2.241,2.241,0,0,0,2.22-2.25,2.215,2.215,0,0,0-2.22-2.22,2.241,2.241,0,0,0-2.25,2.22A2.266,2.266,0,0,0,141.151,98.093Zm16.377,0a7.465,7.465,0,0,0,7.559-7.53v-8.55a7.56,7.56,0,0,0-15.119,0v8.55A7.5,7.5,0,0,0,157.528,98.093Zm0-3.51a3.84,3.84,0,0,1-3.9-3.99v-8.61a3.9,3.9,0,1,1,7.8,0v8.61A3.84,3.84,0,0,1,157.528,94.583Zm21.923,3.54a7.592,7.592,0,0,0,7.59-7.56,7.2,7.2,0,0,0-7.26-7.53,5.924,5.924,0,0,0-3.209.84l0.57-5.7h9.269v-3.39h-12.3l-1.26,12.06,3.42,1.26a3.9,3.9,0,0,1,3.179-1.62,4.047,4.047,0,0,1,3.96,4.11,3.945,3.945,0,1,1-7.889,0h-3.66A7.528,7.528,0,0,0,179.451,98.123Zm28.83-25.489-2.34-3a22.022,22.022,0,0,0-.06,34.559l2.34-3A18.226,18.226,0,0,1,208.281,72.634Zm12.312,25.459c4.47,0,7.739-2.7,7.739-6.78a6.392,6.392,0,0,0-4.319-6.39c-1.53-.66-3.03-1.11-4.38-1.62-1.11-.39-2.43-1.05-2.43-2.46,0-1.56,1.35-2.58,3.12-2.58a3.983,3.983,0,0,1,3.27,1.89l3.18-1.95c-1.38-1.86-3.21-3.63-6.42-3.63-3.81,0-6.84,2.43-6.84,6.3a6.1,6.1,0,0,0,4.38,5.73c1.44,0.54,2.28.78,3.54,1.26,2.46,0.9,3.33,2.19,3.24,3.66-0.18,1.77-1.89,2.85-3.93,2.85a4.835,4.835,0,0,1-4.47-2.91l-3.3,1.71A8.465,8.465,0,0,0,220.593,98.093Zm31.607-.21h4.02l-9.539-23.1h-3.84l-9.48,23.1h4.08l1.92-4.71H250.25Zm-11.429-8.16,3.99-9.81,4.049,9.81h-8.039Zm24.162-11.49V97.883h3.659V78.234h5.82v-3.45H259.083v3.45h5.85Zm14.765-5.6a18.226,18.226,0,0,1,.06,28.559l2.34,3a22.022,22.022,0,0,0-.06-34.559Z" transform="translate(0 -0.875)"/>
  <path id="vol.1" class="cls-1" d="M90.767,40.883h4.9l10.151-24.752h-6.1l-6.5,15.951-6.6-15.951h-6.1Zm35.125,0.35a12.726,12.726,0,1,0-12.651-12.751A12.655,12.655,0,0,0,125.892,41.233Zm0-5.75a6.976,6.976,0,1,1,6.9-7A7.033,7.033,0,0,1,125.892,35.483Zm24.4-34.6V40.833h5.75V0.88H150.3Zm21.8,40.352a3.735,3.735,0,0,0,3.7-3.75,3.692,3.692,0,0,0-3.7-3.7,3.735,3.735,0,0,0-3.75,3.7A3.777,3.777,0,0,0,172.1,41.233Zm15.809-5.7v5.35h21.552v-5.35h-7.8V2.231L187.9,9.281v5.75l7.751-3.75V35.533H187.9Z" transform="translate(0 -0.875)"/>
</svg>
