<svg xmlns="http://www.w3.org/2000/svg" width="173" height="21" viewBox="0 0 346 42">
  <defs>
    <style>
      .cls-1 {
        fill-rule: evenodd;
      }
    </style>
  </defs>
  <path id="Introduction" class="cls-1" d="M200.886,2074.38v38.5h-6.151v-38.5h6.151Zm13.6,38.5h5.751v-13.95a5.448,5.448,0,0,1,5.65-5.7,5.513,5.513,0,0,1,5.75,5.75v13.9h5.751v-13.85c0-6.65-4-11.25-10.651-11.25a9.328,9.328,0,0,0-6.5,2.85v-2.5H214.49v24.75Zm37.58,0.05h5.75v-19.35h4.4v-5.45h-4.4v-8.95h-5.75v8.95h-4.451v5.45h4.451v19.35Zm21.009-.05h5.751v-13.7a5.623,5.623,0,0,1,5.75-5.75,6.214,6.214,0,0,1,3.25,1l2.15-5.45a10.65,10.65,0,0,0-4.95-1.2,7.412,7.412,0,0,0-6.2,3.2v-2.85h-5.751v24.75Zm37.16,0.35a12.725,12.725,0,1,0-12.65-12.75A12.655,12.655,0,0,0,310.239,2113.23Zm0-5.75a6.975,6.975,0,1,1,6.9-7A7.032,7.032,0,0,1,310.239,2107.48Zm48.351-34.6h-5.751v17.55a10.319,10.319,0,0,0-7.05-2.7,12.751,12.751,0,0,0,0,25.5,10.319,10.319,0,0,0,7.05-2.7v2.35h5.751v-40Zm-12.751,20.6a7,7,0,1,1-6.9,7A6.873,6.873,0,0,1,345.839,2093.48Zm37.185,19.75c6.7,0,11.551-4.7,11.551-11.4v-13.7h-5.751v13.9a5.8,5.8,0,0,1-11.6,0v-13.9h-5.751v13.7C371.473,2108.53,376.324,2113.23,383.024,2113.23Zm35.645,0a12.491,12.491,0,0,0,8.95-3.8l-4.05-4.05a6.956,6.956,0,0,1-4.95,2.05,6.95,6.95,0,1,1,0-13.9,6.915,6.915,0,0,1,4.95,2.1l4.05-4.1a12.693,12.693,0,0,0-21.7,8.95A12.708,12.708,0,0,0,418.669,2113.23Zm23.2-.3h5.75v-19.35h4.4v-5.45h-4.4v-8.95h-5.75v8.95h-4.45v5.45h4.45v19.35Zm23.985-37.4a3.856,3.856,0,0,0-3.751,3.8,3.778,3.778,0,0,0,3.751,3.75,3.725,3.725,0,0,0,3.8-3.75A3.8,3.8,0,0,0,465.858,2075.53Zm-2.85,12.55v24.75h5.75v-24.75h-5.75Zm30.13,25.15a12.725,12.725,0,1,0-12.651-12.75A12.655,12.655,0,0,0,493.138,2113.23Zm0-5.75a6.975,6.975,0,1,1,6.9-7A7.032,7.032,0,0,1,493.138,2107.48Zm24.339,5.4h5.75v-13.95a5.448,5.448,0,0,1,5.651-5.7,5.513,5.513,0,0,1,5.75,5.75v13.9h5.75v-13.85c0-6.65-4-11.25-10.65-11.25a9.328,9.328,0,0,0-6.5,2.85v-2.5h-5.75v24.75Z" transform="translate(-194.75 -2072.88)"/>
</svg>
