<?xml version="1.0" encoding="utf-8"?>
<!-- Generator: Adobe Illustrator 26.0.3, SVG Export Plug-In . SVG Version: 6.00 Build 0)  -->
<svg version="1.1" id="レイヤー_1" xmlns="http://www.w3.org/2000/svg" xmlns:xlink="http://www.w3.org/1999/xlink" x="0px"
	 y="0px" viewBox="0 0 55.1 26.8" style="enable-background:new 0 0 55.1 26.8;" xml:space="preserve">
<style type="text/css">
	.st0{fill:#FFFFFF;}
</style>
<g id="レイヤー_2_00000013906512978537721860000010090458155739237764_">
	<g id="レイヤー_1-2">
		<path class="st0" d="M6.7,19.9h1.6v-3.8c0-1.9-1.4-3.5-3.3-3.8H5H4.9c-0.8-0.1-1.7-0.3-2.4-0.8c-0.3-0.2-0.6-0.4-0.8-0.7
			c-0.3,0.2-0.4,0.5-0.5,0.9c-0.1,0.6,0.2,1.2,0.8,1.6c-1.6,1.4-1.7,3.8-0.2,5.4c0.7,0.8,1.7,1.2,2.8,1.2c0.8,0,1.6-0.3,2.2-0.7
			V19.9z M4.6,18.4c-1.3,0-2.3-1-2.3-2.3c0-1.3,1-2.3,2.3-2.3c1.3,0,2.3,1,2.3,2.3c0,0,0,0,0,0C6.9,17.3,5.8,18.4,4.6,18.4
			 M28.3,19.9h1.6v-3.8c0-1.9-1.4-3.5-3.3-3.8h-0.1h-0.1c-0.8-0.1-1.7-0.3-2.4-0.8c-0.3-0.2-0.6-0.4-0.8-0.7
			c-0.3,0.2-0.5,0.5-0.5,0.9c-0.1,0.6,0.2,1.2,0.8,1.6c-1.6,1.4-1.7,3.8-0.2,5.4c0.7,0.8,1.7,1.2,2.8,1.2c0.8,0,1.6-0.2,2.2-0.7
			L28.3,19.9z M26.1,18.4c-1.3,0-2.3-1-2.3-2.3c0-1.3,1-2.3,2.3-2.3c1.3,0,2.3,1,2.3,2.3c0,0,0,0,0,0C28.4,17.3,27.4,18.4,26.1,18.4
			 M23.5,22.2c-1.3,2.3-4.3,3.9-7.7,3.9S9.3,24.5,8,22.2h1.8c1.5,1.6,3.7,2.5,5.9,2.4c2.2,0.1,4.4-0.8,5.9-2.4L23.5,22.2z
			 M50.4,12.2c-2.1,0-3.8,1.7-3.8,3.8s1.7,3.8,3.8,3.8c2.1,0,3.8-1.7,3.8-3.8S52.5,12.2,50.4,12.2L50.4,12.2 M50.4,18.3
			c-1.3,0-2.3-1.1-2.3-2.3s1.1-2.3,2.3-2.3c1.3,0,2.3,1.1,2.3,2.3C52.7,17.3,51.7,18.4,50.4,18.3 M43.2,15v4.9h-1.7V15
			c0.1-0.6-0.4-1.2-1-1.2c-0.6-0.1-1.2,0.4-1.2,1c0,0.1,0,0.1,0,0.2v4.8h-1.7V15c0.1-0.6-0.4-1.2-1-1.2c-0.6-0.1-1.2,0.4-1.2,1
			c0,0.1,0,0.1,0,0.2v4.8h-1.7V15c0-0.4,0.1-0.8,0.3-1.1c-0.4-0.4-0.7-0.9-0.6-1.5c0-0.4,0.2-0.7,0.5-0.9c0.3,0.3,0.6,0.5,0.9,0.7
			c0.2,0.1,0.4,0.2,0.6,0.3c0.4-0.2,0.8-0.3,1.2-0.3c0.7,0,1.4,0.3,1.9,0.8c1.1-1.1,2.8-1.1,3.9,0C42.9,13.6,43.2,14.3,43.2,15
			 M13.8,19.9h-1.6v-10h1.6v2.9c0.5-0.3,1.1-0.5,1.7-0.5c1.8,0,3.3,1.5,3.3,3.3c0,0,0,0,0,0v4.3h-1.6v-4.3c0-0.9-0.8-1.7-1.7-1.7
			c-0.9,0-1.7,0.8-1.7,1.7c0,0,0,0,0,0V19.9z"/>
		<path class="st0" d="M6.6,4.4l0.5-0.3c0.1,0.2,0.2,0.3,0.4,0.3c0.2,0,0.3-0.1,0.3-0.2c0-0.1,0-0.2-0.2-0.3L7.1,3.7
			C6.8,3.6,6.6,3.4,6.6,3.1c0-0.4,0.3-0.8,0.8-0.8c0,0,0,0,0.1,0c0.3,0,0.6,0.1,0.8,0.4L7.7,3.1c0-0.1-0.2-0.2-0.3-0.2
			C7.4,2.9,7.3,2.9,7.2,3c0,0,0,0,0,0c0,0.1,0.1,0.2,0.2,0.2s0.3,0.1,0.5,0.2c0.3,0.1,0.5,0.4,0.5,0.7C8.4,4.6,8,5,7.5,5
			c0,0,0,0,0,0C7.1,5,6.7,4.8,6.6,4.4z"/>
		<path class="st0" d="M9.7,3.7V2.3h0.6v1.5c0,0.3,0.3,0.6,0.6,0.6c0.3,0,0.6-0.3,0.6-0.6V2.3h0.6v1.4c0,0.6-0.5,1.2-1.1,1.2
			c0,0-0.1,0-0.1,0C10.3,5,9.8,4.5,9.7,3.7C9.7,3.8,9.7,3.8,9.7,3.7z"/>
		<path class="st0" d="M13.7,2.3h0.6v0.2c0.2-0.2,0.5-0.3,0.7-0.3c0.7,0,1.3,0.6,1.3,1.3c0,0,0,0,0,0c0,0.7-0.6,1.3-1.3,1.3
			c0,0,0,0,0,0c-0.3,0-0.5-0.1-0.7-0.2v1.6h-0.6V2.3z M15.8,3.6c0-0.4-0.3-0.7-0.7-0.7c-0.4,0-0.7,0.3-0.7,0.7
			c0,0.4,0.3,0.7,0.7,0.7C15.5,4.4,15.8,4,15.8,3.6L15.8,3.6z"/>
		<path class="st0" d="M17.8,2.3h0.6v0.2c0.2-0.2,0.5-0.3,0.8-0.3c0.7,0,1.3,0.6,1.3,1.3c0,0,0,0,0,0c0,0.7-0.6,1.3-1.3,1.3
			c0,0,0,0,0,0c-0.3,0-0.5-0.1-0.8-0.2v1.6h-0.6V2.3z M19.9,3.6c0-0.4-0.3-0.7-0.7-0.7c0,0,0,0,0,0c-0.4,0-0.8,0.2-0.8,0.6
			c0,0.4,0.2,0.8,0.6,0.8c0.1,0,0.1,0,0.2,0C19.6,4.4,19.9,4.1,19.9,3.6C19.9,3.7,19.9,3.7,19.9,3.6z"/>
		<path class="st0" d="M21.8,3.6c0-0.7,0.6-1.3,1.3-1.3c0.7,0,1.3,0.6,1.3,1.3c0,0.7-0.6,1.3-1.3,1.3C22.4,5,21.8,4.4,21.8,3.6
			C21.8,3.7,21.8,3.7,21.8,3.6z M23.9,3.6c0-0.4-0.3-0.7-0.7-0.7c-0.4,0-0.7,0.3-0.7,0.7c0,0.4,0.3,0.7,0.7,0.7
			C23.5,4.4,23.9,4,23.9,3.6z"/>
		<path class="st0" d="M25.9,2.3h0.6v0.3c0.1-0.2,0.4-0.3,0.6-0.3c0.2,0,0.4,0,0.5,0.1L27.4,3c-0.1-0.1-0.2-0.1-0.4-0.1
			c-0.3,0-0.6,0.3-0.6,0.6c0,0,0,0,0,0V5h-0.6V2.3z"/>
		<path class="st0" d="M29.3,2.9h-0.5V2.3h0.5V1.4h0.6v0.9h0.5v0.6h-0.5v2h-0.6V2.9z"/>
		<path class="st0" d="M31.5,3.7c0-0.7,0.6-1.3,1.3-1.3c0,0,0,0,0,0c0.8,0,1.3,0.6,1.3,1.6h-2c0.1,0.3,0.4,0.5,0.7,0.5
			c0.2,0,0.4-0.1,0.5-0.2l0.4,0.4c-0.3,0.3-0.6,0.4-1,0.4C32.1,5,31.5,4.4,31.5,3.7z M33.5,3.4C33.4,3,33,2.8,32.6,2.9
			c-0.2,0.1-0.4,0.2-0.4,0.4H33.5z"/>
		<path class="st0" d="M38.1,5h-0.6V4.7C37.3,4.9,37.1,5,36.8,5c-0.7,0-1.3-0.6-1.3-1.3s0.6-1.3,1.3-1.3l0,0c0.3,0,0.5,0.1,0.7,0.3
			V0.7h0.6V5z M36.1,3.6c0,0.4,0.3,0.7,0.7,0.7c0,0,0,0,0,0c0.4,0,0.7-0.3,0.7-0.7c0,0,0,0,0,0c0-0.4-0.3-0.7-0.7-0.7c0,0,0,0,0,0
			C36.4,2.9,36.1,3.2,36.1,3.6C36.1,3.6,36.1,3.6,36.1,3.6z"/>
		<path class="st0" d="M42.5,4.7V5h-0.6V0.7h0.6v1.9c0.2-0.2,0.5-0.3,0.8-0.3c0.7,0,1.3,0.6,1.3,1.3c0,0,0,0,0,0
			C44.6,4.4,44,5,43.3,5c0,0,0,0,0,0C43,5,42.7,4.9,42.5,4.7z M44,3.6c0-0.4-0.3-0.7-0.7-0.7c0,0,0,0,0,0c-0.4,0-0.7,0.3-0.7,0.7
			c0,0,0,0,0,0c0,0.4,0.3,0.7,0.7,0.7l0,0C43.6,4.4,44,4.1,44,3.6C44,3.7,44,3.7,44,3.6z"/>
		<path class="st0" d="M46.7,5l-1.1-2.7h0.7l0.8,2l0.8-2h0.6l-1.6,4h-0.7L46.7,5z"/>
	</g>
</g>
</svg>
