<svg xmlns="http://www.w3.org/2000/svg" width="121.344" height="13.72" viewBox="0 0 121.344 13.72">
  <defs>
    <style>
      .cls-1 {
        fill: #000;
        fill-rule: evenodd;
      }
    </style>
  </defs>
  <path id="ALL_NEWS" data-name="ALL NEWS" class="cls-1" d="M138.229,3457.35h2.345l-5.565-13.47h-2.24l-5.531,13.47h2.38l1.12-2.75h6.354Zm-6.668-4.76,2.328-5.72,2.362,5.72h-4.69Zm14.549-8.71v13.47h8.331v-2.01h-6.178v-11.46H146.11Zm14.11,0v13.47h8.331v-2.01h-6.178v-11.46H160.22Zm26.232,3.29,7.229,10.18h2.345v-13.47h-2.153v10.02l-7.141-10.02H184.3v13.47h2.152v-10.18Zm16.412-3.29v13.47h8.418v-2.01h-6.266v-3.64h5.443v-2.01h-5.443v-3.8h6.266v-2.01h-8.418Zm22.854,3.85,2.817,9.62H231l3.921-13.47h-2.363l-2.8,10.29-2.853-10.29h-2.45l-2.8,10.29-2.835-10.29h-2.38l3.973,13.47h2.467Zm18.346,9.74c2.608,0,4.516-1.57,4.516-3.95a3.732,3.732,0,0,0-2.521-3.73c-0.892-.38-1.767-0.65-2.555-0.94a1.72,1.72,0,0,1-1.418-1.44,1.615,1.615,0,0,1,1.821-1.5,2.326,2.326,0,0,1,1.907,1.1l1.856-1.14a4.471,4.471,0,0,0-3.746-2.12,3.693,3.693,0,0,0-3.99,3.68,3.557,3.557,0,0,0,2.555,3.34c0.84,0.32,1.33.46,2.065,0.74,1.435,0.52,1.943,1.27,1.89,2.13a2.084,2.084,0,0,1-2.292,1.66,2.815,2.815,0,0,1-2.608-1.69l-1.925.99A4.937,4.937,0,0,0,244.064,3457.47Z" transform="translate(-127.25 -3443.75)"/>
</svg>
