<svg xmlns="http://www.w3.org/2000/svg" width="130.125" height="13.719" viewBox="0 0 130.125 13.719">
  <defs>
    <style>
      .cls-1 {
        fill-rule: evenodd;
      }
    </style>
  </defs>
  <path id="FACEBOOK" class="cls-1" d="M122.507,715.024V728.5h2.17v-5.653H130.1v-2.013h-5.425v-3.8h6.248v-2.012h-8.418Zm24.57,13.476h2.346l-5.566-13.476h-2.24L136.086,728.5h2.381l1.12-2.748h6.353Zm-6.668-4.76,2.328-5.724,2.363,5.724h-4.691Zm21.035,2.73a4.717,4.717,0,0,1,0-9.434,4.815,4.815,0,0,1,3.361,1.4l1.5-1.522a6.91,6.91,0,0,0-4.866-2.013,6.861,6.861,0,0,0,0,13.722,6.914,6.914,0,0,0,4.866-2.013l-1.5-1.523A4.8,4.8,0,0,1,161.444,726.47Zm10.99-11.446V728.5h8.418v-2.013h-6.266v-3.64h5.443v-2.013h-5.443v-3.8h6.266v-2.012h-8.418ZM187.5,728.5l5.391,0.018a4.143,4.143,0,0,0,4.095-4.131,4.279,4.279,0,0,0-2.013-3.483,3.971,3.971,0,0,0,.805-2.223,3.615,3.615,0,0,0-3.675-3.657h-4.6V728.5Zm2.153-8.173v-3.291h2.362a1.646,1.646,0,0,1,0,3.291h-2.362Zm0,6.16V722.3h3.1a2.092,2.092,0,0,1,0,4.183h-3.1ZM209.8,714.9a6.861,6.861,0,1,0,6.861,6.861A6.85,6.85,0,0,0,209.8,714.9Zm0,11.569a4.717,4.717,0,1,1,4.726-4.708A4.7,4.7,0,0,1,209.8,726.47Zm19.32-11.569a6.861,6.861,0,1,0,6.861,6.861A6.849,6.849,0,0,0,229.116,714.9Zm0,11.569a4.717,4.717,0,1,1,4.726-4.708A4.7,4.7,0,0,1,229.116,726.47Zm20.843,2.048h2.678l-6.284-6.966,5.128-6.528h-2.5l-4.551,5.793v-5.793h-2.153v13.494h2.153v-6.126Z" transform="translate(-122.5 -714.906)"/>
</svg>
