<svg xmlns="http://www.w3.org/2000/svg" width="101.344" height="13.469" viewBox="0 0 101.344 13.469">
  <defs>
    <style>
      .cls-1 {
        fill-rule: evenodd;
      }
    </style>
  </defs>
  <path id="TWITTER" class="cls-1" d="M244.8,745.036V756.5h2.135V745.036h3.4v-2.012h-8.943v2.012H244.8Zm19.793,1.838,2.817,9.626h2.468l3.921-13.476h-2.363l-2.8,10.291-2.852-10.291h-2.451l-2.8,10.291-2.835-10.291h-2.38l3.973,13.476h2.467Zm17.131-3.85V756.5h-2.152V743.024h2.152Zm9.625,2.012V756.5h2.136V745.036h3.395v-2.012h-8.943v2.012h3.412Zm14.368,0V756.5h2.135V745.036h3.4v-2.012H302.3v2.012h3.413Zm11.742-2.012V756.5h8.418v-2.013h-6.266v-3.64h5.443v-2.013h-5.443v-3.8h6.266v-2.012h-8.418ZM342.709,756.5L339,750.864a4.05,4.05,0,0,0-1.313-7.84h-5.163V756.5h2.153v-5.408h1.908l3.57,5.408h2.555Zm-8.033-11.464H337.6a2.026,2.026,0,0,1,0,4.043h-2.923v-4.043Z" transform="translate(-241.375 -743.031)"/>
</svg>
