<svg xmlns="http://www.w3.org/2000/svg" width="100.562" height="21.16" viewBox="0 0 100.562 21.16">
  <defs>
    <style>
      .cls-1 {
        fill-rule: evenodd;
      }
    </style>
  </defs>
  <path id="NEWS" class="cls-1" d="M140.523,2904.29L151.674,2920h3.618v-20.79h-3.321v15.47l-11.016-15.47H137.2V2920h3.321v-15.71Zm25.569-5.08V2920h12.987v-3.11h-9.666v-5.61h8.4v-3.11h-8.4v-5.86h9.666v-3.1H166.092Zm35.667,5.94,4.347,14.85h3.807l6.048-20.79h-3.645L208,2915.09l-4.4-15.88h-3.78l-4.32,15.88-4.374-15.88h-3.672l6.129,20.79h3.807Zm29.025,15.04c4.023,0,6.966-2.43,6.966-6.1a5.742,5.742,0,0,0-3.888-5.75c-1.377-.6-2.727-1-3.942-1.46-1-.35-2.187-0.95-2.187-2.22,0-1.4,1.215-2.32,2.808-2.32a3.6,3.6,0,0,1,2.943,1.7l2.862-1.75a6.863,6.863,0,0,0-5.778-3.27c-3.429,0-6.156,2.19-6.156,5.67a5.5,5.5,0,0,0,3.942,5.16c1.3,0.48,2.052.7,3.186,1.13,2.214,0.81,3,1.97,2.916,3.3-0.162,1.59-1.7,2.56-3.537,2.56a4.347,4.347,0,0,1-4.023-2.62l-2.97,1.54A7.62,7.62,0,0,0,230.784,2920.19Z" transform="translate(-137.188 -2899.03)"/>
</svg>
