<svg xmlns="http://www.w3.org/2000/svg" width="59.313" height="10.969" viewBox="0 0 59.313 10.969">
  <defs>
    <style>
      .cls-1 {
        fill-rule: evenodd;
      }
    </style>
  </defs>
  <path id="SHARE" class="cls-1" d="M161.466,677.1c2.086,0,3.612-1.26,3.612-3.164a2.984,2.984,0,0,0-2.016-2.982c-0.714-.308-1.414-0.518-2.044-0.756a1.366,1.366,0,0,1-1.134-1.148,1.3,1.3,0,0,1,1.456-1.2,1.859,1.859,0,0,1,1.526.882l1.484-.91a3.564,3.564,0,0,0-3-1.694,2.953,2.953,0,0,0-3.192,2.94,2.849,2.849,0,0,0,2.044,2.674c0.672,0.252,1.064.364,1.652,0.588,1.148,0.42,1.554,1.022,1.512,1.708a1.667,1.667,0,0,1-1.834,1.33A2.257,2.257,0,0,1,159.45,674l-1.54.8A3.95,3.95,0,0,0,161.466,677.1Zm15.8-4.62V677h1.708V666.22h-1.708v4.648H171.4V666.22h-1.722V677H171.4v-4.522h5.866ZM191.95,677h1.876l-4.452-10.78h-1.792L183.158,677h1.9l0.9-2.2h5.082Zm-5.334-3.808,1.862-4.578,1.89,4.578h-3.752ZM206.158,677l-2.968-4.508a3.24,3.24,0,0,0-1.05-6.272h-4.13V677h1.722v-4.326h1.526L204.114,677h2.044Zm-6.426-9.17h2.338a1.621,1.621,0,0,1,0,3.234h-2.338V667.83Zm10.739-1.61V677h6.734v-1.61h-5.012v-2.912h4.354v-1.61h-4.354V667.83h5.012v-1.61h-6.734Z" transform="translate(-157.906 -666.125)"/>
</svg>
