<svg xmlns="http://www.w3.org/2000/svg" width="129.266" height="13.7" viewBox="0 0 258.531 27.4">
  <defs>
    <style>
      .cls-1 {
        fill-rule: evenodd;
      }
    </style>
  </defs>
  <path id="FES_DETAIL" data-name="FES DETAIL" class="cls-1" d="M246.5,19924v27h4.341v-11.3h10.851v-4H250.841v-7.6h12.5v-4.1H246.5Zm27.78,0v27h16.836v-4H278.585v-7.3h10.886v-4H278.585v-7.6h12.531v-4.1H274.28Zm36.043,27.2c5.216,0,9.031-3.1,9.031-7.9a7.378,7.378,0,0,0-5.04-7.4c-1.785-.8-3.536-1.3-5.111-1.9-1.295-.5-2.835-1.2-2.835-2.9,0-1.8,1.575-3,3.64-3a4.7,4.7,0,0,1,3.816,2.2l3.71-2.3c-1.61-2.1-3.745-4.2-7.491-4.2-4.445,0-7.98,2.8-7.98,7.4a7.057,7.057,0,0,0,5.11,6.6c1.68,0.7,2.66.9,4.13,1.5,2.871,1.1,3.886,2.6,3.781,4.3-0.21,2-2.2,3.3-4.586,3.3a5.615,5.615,0,0,1-5.215-3.4l-3.851,2A9.84,9.84,0,0,0,310.323,19951.2Zm39.3-.2h8.226a13.5,13.5,0,0,0,0-27h-8.226v27Zm4.306-4v-18.9h3.815a9.451,9.451,0,0,1,0,18.9h-3.815Zm28.979-23v27h16.837v-4H387.217v-7.3H398.1v-4H387.217v-7.6h12.532v-4.1H382.912Zm34.1,4.1v22.9h4.27v-22.9h6.791v-4.1H410.187v4.1h6.826Zm39.075,22.9h4.69l-11.131-27h-4.48l-11.061,27h4.76l2.24-5.5h12.707Zm-13.336-9.5,4.655-11.5,4.725,11.5h-9.38Zm32.7-17.5v27H471.15v-27h4.305Zm12.9,0v27h16.662v-4H492.664v-23h-4.305Z" transform="translate(-246.5 -19923.8)"/>
</svg>
