<svg xmlns="http://www.w3.org/2000/svg" viewBox="0 0 518 38.07"><defs><style>.a{fill:#ffffff;}</style></defs><title>report_title2</title><path class="a" d="M6,.34V32.15H23.11v5.58H0V.34Z"/><path class="a" d="M55.79.34V37.73h-6V.34Z"/><path class="a" d="M87.8.34,99.45,28.85,110.91.34h6.61l-15.4,37.39H96.73L81.24.34Z"/><path class="a" d="M166.41.34V5.92H149V16.46h15.1v5.59H149v10.1h17.38v5.58H143.06V.34Z"/><path class="a" d="M242,37.73l-9.9-15h-5.3v15h-6V.34h14.33a11,11,0,0,1,10.92,11.22,11,11,0,0,1-7.28,10.54l10.29,15.63Zm-15.2-20.59h8.11a5.39,5.39,0,0,0,5.25-5.58,5.41,5.41,0,0,0-5.25-5.64h-8.11Z"/><path class="a" d="M299.76.34V5.92H282.37V16.46h15.11v5.59H282.37v10.1h17.39v5.58H276.4V.34Z"/><path class="a" d="M354.16,11.56a10.94,10.94,0,0,1-10.93,11.17h-8.35v15h-6V.34h14.32A11,11,0,0,1,354.16,11.56ZM334.88,5.92V17.14H343a5.39,5.39,0,0,0,5.25-5.58A5.41,5.41,0,0,0,343,5.92Z"/><path class="a" d="M414.71,19a19,19,0,1,1-19-19A18.94,18.94,0,0,1,414.71,19Zm-5.92,0A13.09,13.09,0,1,0,395.68,32.1,13.09,13.09,0,0,0,408.79,19Z"/><path class="a" d="M462.74,37.73l-9.91-15h-5.29v15h-6V.34h14.32a11,11,0,0,1,10.93,11.22,11,11,0,0,1-7.29,10.54l10.3,15.63Zm-15.2-20.59h8.11a5.38,5.38,0,0,0,5.24-5.58,5.41,5.41,0,0,0-5.24-5.64h-8.11Z"/><path class="a" d="M493.19,5.92V.34H518V5.92h-9.42V37.73h-5.93V5.92Z"/></svg>