<svg xmlns="http://www.w3.org/2000/svg" width="147.344" height="40.34" viewBox="0 0 147.344 40.34">
  <defs>
    <style>
      .cls-1 {
        fill-rule: evenodd;
      }
    </style>
  </defs>
  <path id="vol.1" class="cls-1" d="M306.582,2734.24h4.9l10.151-24.75h-6.1l-6.5,15.95-6.6-15.95h-6.1Zm40.7,0.35a12.725,12.725,0,1,0-12.651-12.75A12.655,12.655,0,0,0,347.282,2734.59Zm0-5.75a6.975,6.975,0,1,1,6.9-7A7.032,7.032,0,0,1,347.282,2728.84Zm28.9-34.59v39.94h5.75v-39.94h-5.75Zm26.25,40.34a3.735,3.735,0,0,0,3.7-3.75,3.692,3.692,0,0,0-3.7-3.7,3.735,3.735,0,0,0-3.75,3.7A3.777,3.777,0,0,0,402.432,2734.59Zm19.7-5.7v5.35h21.552v-5.35h-7.8V2695.6l-13.751,7.05v5.74l7.751-3.74v24.24h-7.751Z" transform="translate(-296.344 -2694.25)"/>
</svg>
