<svg xmlns="http://www.w3.org/2000/svg" width="150.188" height="40.34" viewBox="0 0 150.188 40.34">
  <defs>
    <style>
      .cls-1 {
        fill-rule: evenodd;
      }
    </style>
  </defs>
  <path id="vol.2" class="cls-1" d="M305.159,1677.93h4.9l10.15-24.75h-6.1l-6.5,15.95-6.6-15.95h-6.1Zm40.7,0.35a12.725,12.725,0,1,0-12.65-12.75A12.655,12.655,0,0,0,345.858,1678.28Zm0-5.75a6.975,6.975,0,1,1,6.9-7A7.032,7.032,0,0,1,345.858,1672.53Zm28.9-34.59v39.94h5.751v-39.94h-5.751Zm26.25,40.34a3.735,3.735,0,0,0,3.7-3.75,3.692,3.692,0,0,0-3.7-3.7,3.735,3.735,0,0,0-3.75,3.7A3.777,3.777,0,0,0,401.007,1678.28Zm18.749-.35h25.351v-5.65h-13.65l10.15-13.05a12.471,12.471,0,0,0,2.6-7.6,12.221,12.221,0,0,0-12.55-12.55c-6.7,0-12.051,4.55-12.451,11.95h5.85a6.261,6.261,0,0,1,6.6-6.15,6.351,6.351,0,0,1,6.65,6.75,7.747,7.747,0,0,1-1.9,4.7Z" transform="translate(-294.906 -1637.94)"/>
</svg>
