<svg xmlns="http://www.w3.org/2000/svg" viewBox="0 0 273.78 16.15"><defs><style>.a{fill:#ff007b;}</style></defs><title>report_title3</title><path class="a" d="M0,3.38V1.16H9.85V3.38H6.11V16H3.76V3.38Z"/><path class="a" d="M24.32,9.79V16H22V1.16h2.37V7.57H32.4V1.16h2.35V16H32.4V9.79Z"/><path class="a" d="M57.4,1.16V3.38H50.5V7.57h6V9.79h-6v4h6.9V16H48.12V1.16Z"/><path class="a" d="M89.92,1.16V3.38H83V7.57h6V9.79H83V16H80.65V1.16Z"/><path class="a" d="M104.76,14V3.49l-3,1.45V2.72L107.07,0V14h3V16h-8.31V14Z"/><path class="a" d="M130.53,16l-3.94-6h-2.1v6h-2.37V1.16h5.69a4.35,4.35,0,0,1,4.33,4.46,4.32,4.32,0,0,1-2.89,4.18L133.34,16Zm-6-8.18h3.22a2.14,2.14,0,0,0,2.08-2.22,2.15,2.15,0,0,0-2.08-2.24h-3.22Z"/><path class="a" d="M144.47,13l2.12-1.1a3.11,3.11,0,0,0,2.87,1.87A2.28,2.28,0,0,0,152,11.93c.06-.95-.5-1.78-2.08-2.36-.81-.3-1.35-.46-2.27-.81a3.93,3.93,0,0,1-2.82-3.68c0-2.49,1.95-4,4.4-4a4.9,4.9,0,0,1,4.12,2.33l-2,1.26a2.54,2.54,0,0,0-2.1-1.22,1.79,1.79,0,0,0-2,1.66c0,.91.85,1.33,1.57,1.58s1.83.62,2.81,1a4.13,4.13,0,0,1,2.78,4.11c0,2.63-2.1,4.36-5,4.36A5.42,5.42,0,0,1,144.47,13Z"/><path class="a" d="M165.58,3.38V1.16h9.85V3.38h-3.74V16h-2.35V3.38Z"/><path class="a" d="M195.27,3.38V1.16h9.85V3.38h-3.74V16H199V3.38Z"/><path class="a" d="M225.47,13h-7l-1.23,3h-2.62l6.09-14.86h2.46L229.3,16h-2.58Zm-.93-2.22-2.6-6.31-2.56,6.31Z"/><path class="a" d="M243.56,9.28V16h-2.38V1.16h2.38V7.55l5-6.39h2.75l-5.64,7.2L252.6,16h-2.95Z"/><path class="a" d="M273.78,1.16V3.38h-6.9V7.57h6V9.79h-6v4h6.9V16h-9.27V1.16Z"/></svg>