<svg xmlns="http://www.w3.org/2000/svg" width="122" height="132" viewBox="0 0 244 264">
  <defs>
    <style>
      .cls-1 {
        fill-rule: evenodd;
      }
    </style>
  </defs>
  <path id="Stage_n_o4_YUI_M1._TOKYO_M2._CHE.R.RY" data-name="Stage n°o4 YUI M1. TOKYO M2. CHE.R.RY" class="cls-1" d="M289,11726.6c4.47,0,7.74-2.7,7.74-6.9,0-2.7-1.38-5-4.5-6.3-1.53-.6-2.85-1.1-4.2-1.6-1.11-.4-2.43-1-2.43-2.4a2.836,2.836,0,0,1,3.12-2.7,3.892,3.892,0,0,1,3.27,2l3.18-2c-1.38-1.8-3.21-3.6-6.42-3.6-3.81,0-6.839,2.4-6.839,6.3a6.086,6.086,0,0,0,4.379,5.7c1.44,0.6,2.28.8,3.54,1.3,2.46,0.9,3.24,2,3.24,3.5,0,1.8-1.65,3.1-3.93,3.1a4.968,4.968,0,0,1-4.47-3l-3.3,1.7A8.443,8.443,0,0,0,289,11726.6Zm16.128-.2h3.45v-11.6h2.64v-3.2h-2.64v-5.4h-3.45v5.4h-2.669v3.2h2.669v11.6Zm27.1-14.8h-3.45v1.4a6.031,6.031,0,0,0-4.2-1.7,7.61,7.61,0,0,0-7.59,7.7,7.525,7.525,0,0,0,7.59,7.6,6.2,6.2,0,0,0,4.2-1.6v1.4h3.45v-14.8Zm-7.62,11.6a4.2,4.2,0,1,1,4.2-4.2A4.13,4.13,0,0,1,324.614,11723.2Zm22.56,11.2a7.463,7.463,0,0,0,7.62-7.6v-15.2h-3.42v1.4a6.031,6.031,0,0,0-4.2-1.7,7.65,7.65,0,0,0,0,15.3,6.2,6.2,0,0,0,4.2-1.6v1.8a4.255,4.255,0,0,1-4.17,4.3,4.037,4.037,0,0,1-3-1.3l-2.4,2.4A7.3,7.3,0,0,0,347.174,11734.4Zm0-11.2a4.253,4.253,0,0,1-4.14-4.2,4.168,4.168,0,0,1,4.14-4.2,4.245,4.245,0,0,1,4.23,4.2A4.312,4.312,0,0,1,347.174,11723.2Zm22.458,3.4a8.2,8.2,0,0,0,5.55-2.2l-2.49-2.5a4.243,4.243,0,0,1-3.03,1.3,3.842,3.842,0,0,1-3.81-2.8h11.34c0-5.6-3-9.1-7.56-9.1A7.651,7.651,0,0,0,369.632,11726.6Zm-3.87-9.2a4.059,4.059,0,0,1,7.65,0h-7.65Zm30.78,9h3.45v-8.4a3.275,3.275,0,0,1,3.389-3.4,3.332,3.332,0,0,1,3.45,3.5v8.3h3.45v-8.3c0-4-2.4-6.8-6.39-6.8a5.27,5.27,0,0,0-3.9,1.8v-1.5h-3.45v14.8Zm27.761-18.5a4.56,4.56,0,1,0-9.12,0A4.56,4.56,0,0,0,424.3,11707.9Zm-6.69-.1a2.18,2.18,0,0,1,2.13-2.1,2.132,2.132,0,0,1,2.1,2.1A2.117,2.117,0,1,1,417.613,11707.8Zm18.609,18.8a7.65,7.65,0,1,0-7.59-7.6A7.588,7.588,0,0,0,436.222,11726.6Zm0-3.4a4.2,4.2,0,1,1,4.14-4.2A4.3,4.3,0,0,1,436.222,11723.2Zm24.687,3.2H464.6v-3.8h3.15v-3.1H464.6v-16.3l-15.449,19.4h11.76v3.8Zm-5.28-6.9,5.31-6.7-0.03,6.7h-5.28Zm-124.376,94v19.5h7.32v-19.5l14.939-26.7h-8.04l-10.5,19.5-10.62-19.5h-7.98Zm40.265-26.7h-7.38v26.5a20.07,20.07,0,1,0,40.139,0v-26.5h-7.32v26.2a12.72,12.72,0,0,1-25.439,0v-26.2Zm56.441,0v46.2H420.58v-46.2h7.379Zm-129.092,102.4v17.2h3.689v-23.1h-3.989l-8.19,11.6-8.22-11.6H278.2v23.1h3.69v-17.2l8.49,12Zm11.484,14v3.2h12.93v-3.2H318.6v-20l-8.25,4.2v3.5l4.65-2.3v14.6h-4.65Zm22.362,3.4a2.217,2.217,0,0,0,2.22-2.2,2.24,2.24,0,0,0-2.22-2.3A2.25,2.25,0,1,0,332.713,11906.6Zm26.819-19.8v19.6h3.66v-19.6h5.82v-3.5h-15.33v3.5h5.85Zm26.141-3.7a11.75,11.75,0,1,0,11.76,11.8A11.755,11.755,0,0,0,385.673,11883.1Zm0,19.8a8.05,8.05,0,1,1,8.1-8A8.013,8.013,0,0,1,385.673,11902.9Zm32.5,3.5h4.59L412,11894.5l8.79-11.2H416.5l-7.8,9.9v-9.9h-3.69v23.1h3.69v-10.5Zm15.033-9.7v9.7h3.66v-9.7l7.47-13.4h-4.02l-5.25,9.8-5.31-9.8h-3.99Zm26.565-13.6a11.75,11.75,0,1,0,11.759,11.8A11.756,11.756,0,0,0,459.776,11883.1Zm0,19.8a8.05,8.05,0,1,1,8.1-8A8.013,8.013,0,0,1,459.776,11902.9Zm-185.935,46.3v17.2h3.69v-23.1h-3.99l-8.19,11.6-8.219-11.6h-3.96v23.1h3.69v-17.2l8.489,12Zm10.81,17.2H299.86v-3.4h-8.19l6.09-7.8a7.577,7.577,0,0,0,1.56-4.6,7.3,7.3,0,0,0-7.53-7.5,7.215,7.215,0,0,0-7.469,7.2h3.51a3.72,3.72,0,0,1,3.959-3.7,3.808,3.808,0,0,1,3.99,4,4.37,4.37,0,0,1-1.14,2.8Zm24.815,0.2a2.217,2.217,0,0,0,2.22-2.2,2.24,2.24,0,0,0-2.22-2.3A2.25,2.25,0,1,0,309.466,11966.6Zm33.029-3.7a8.05,8.05,0,1,1,0-16.1,8.122,8.122,0,0,1,5.76,2.4l2.58-2.7a11.932,11.932,0,0,0-8.34-3.4,11.75,11.75,0,1,0,0,23.5,11.932,11.932,0,0,0,8.34-3.4l-2.58-2.6A8.473,8.473,0,0,1,342.5,11962.9Zm31.433-6.2v9.7h3.66v-23.1h-3.66v10H361.359v-10h-3.69v23.1h3.69v-9.7h12.569Zm12.436-13.4v23.1h14.429v-3.4H390.054v-6.3h9.329v-3.4h-9.329v-6.5h10.739v-3.5H386.364Zm24.489,23.3a2.217,2.217,0,0,0,2.22-2.2,2.24,2.24,0,0,0-2.22-2.3A2.25,2.25,0,1,0,410.853,11966.6Zm27.764-.2-6.36-9.7a6.686,6.686,0,0,0,4.5-6.5,6.762,6.762,0,0,0-6.75-6.9h-8.85v23.1h3.69v-9.3h3.27l6.12,9.3h4.38Zm-13.77-19.6h5.01a3.287,3.287,0,0,1,3.24,3.4,3.375,3.375,0,0,1-3.24,3.5h-5.01v-6.9Zm22.722,19.8a2.217,2.217,0,0,0,2.22-2.2,2.24,2.24,0,0,0-2.22-2.3A2.25,2.25,0,1,0,447.569,11966.6Zm27.764-.2-6.36-9.7a6.686,6.686,0,0,0,4.5-6.5,6.762,6.762,0,0,0-6.749-6.9h-8.85v23.1h3.69v-9.3h3.27l6.119,9.3h4.38Zm-13.769-19.6h5.01a3.287,3.287,0,0,1,3.239,3.4,3.374,3.374,0,0,1-3.239,3.5h-5.01v-6.9Zm24.768,9.9v9.7h3.659v-9.7l7.47-13.4h-4.02l-5.25,9.8-5.309-9.8h-3.99Z" transform="translate(-253.156 -11703.1)"/>
</svg>
