<svg xmlns="http://www.w3.org/2000/svg" width="314" height="132" viewBox="0 0 628 264">
  <defs>
    <style>
      .cls-1 {
        fill-rule: evenodd;
      }
    </style>
  </defs>
  <path id="Stage_n_o3_Ryokuoushoku_Shakai_M1._Mela_M2._LADYBUG" data-name="Stage n°o3 Ryokuoushoku Shakai M1. Mela! M2. LADYBUG" class="cls-1" d="M278.21,11673.6c4.47,0,7.74-2.7,7.74-6.9,0-2.7-1.38-5-4.5-6.3-1.53-.6-2.85-1.1-4.2-1.6-1.11-.4-2.43-1-2.43-2.4a2.836,2.836,0,0,1,3.12-2.7,3.892,3.892,0,0,1,3.27,2l3.18-2c-1.38-1.8-3.21-3.6-6.42-3.6-3.81,0-6.839,2.4-6.839,6.3a6.087,6.087,0,0,0,4.379,5.7c1.44,0.6,2.28.8,3.54,1.3,2.46,0.9,3.24,2,3.24,3.5,0,1.8-1.65,3.1-3.93,3.1a4.968,4.968,0,0,1-4.47-3l-3.3,1.7A8.444,8.444,0,0,0,278.21,11673.6Zm16.128-.2h3.45v-11.6h2.64v-3.2h-2.64v-5.4h-3.45v5.4h-2.669v3.2h2.669v11.6Zm27.1-14.8h-3.45v1.4a6.031,6.031,0,0,0-4.2-1.7,7.61,7.61,0,0,0-7.589,7.7,7.524,7.524,0,0,0,7.589,7.6,6.2,6.2,0,0,0,4.2-1.6v1.4h3.45v-14.8Zm-7.62,11.6a4.2,4.2,0,1,1,4.2-4.2A4.13,4.13,0,0,1,313.82,11670.2Zm22.56,11.2a7.463,7.463,0,0,0,7.62-7.6v-15.2h-3.42v1.4a6.031,6.031,0,0,0-4.2-1.7,7.65,7.65,0,0,0,0,15.3,6.2,6.2,0,0,0,4.2-1.6v1.8a4.255,4.255,0,0,1-4.17,4.3,4.037,4.037,0,0,1-3-1.3l-2.4,2.4A7.3,7.3,0,0,0,336.38,11681.4Zm0-11.2a4.253,4.253,0,0,1-4.14-4.2,4.168,4.168,0,0,1,4.14-4.2,4.245,4.245,0,0,1,4.23,4.2A4.312,4.312,0,0,1,336.38,11670.2Zm22.458,3.4a8.2,8.2,0,0,0,5.55-2.2l-2.49-2.5a4.243,4.243,0,0,1-3.03,1.3,3.842,3.842,0,0,1-3.81-2.8H366.4c0-5.6-3-9.1-7.56-9.1A7.651,7.651,0,0,0,358.838,11673.6Zm-3.87-9.2a4.059,4.059,0,0,1,7.65,0h-7.65Zm30.78,9h3.45v-8.4a3.275,3.275,0,0,1,3.39-3.4,3.331,3.331,0,0,1,3.449,3.5v8.3h3.45v-8.3c0-4-2.4-6.8-6.389-6.8a5.271,5.271,0,0,0-3.9,1.8v-1.5h-3.45v14.8Zm27.761-18.5a4.56,4.56,0,1,0-9.12,0A4.56,4.56,0,0,0,413.509,11654.9Zm-6.69-.1a2.18,2.18,0,0,1,2.13-2.1,2.132,2.132,0,0,1,2.1,2.1A2.117,2.117,0,1,1,406.819,11654.8Zm18.609,18.8a7.65,7.65,0,1,0-7.59-7.6A7.588,7.588,0,0,0,425.428,11673.6Zm0-3.4a4.2,4.2,0,1,1,4.14-4.2A4.3,4.3,0,0,1,425.428,11670.2Zm21.5,3.4a7.4,7.4,0,0,0,7.619-7.5,7.3,7.3,0,0,0-5.969-7.4l4.829-4.8v-3.6H440.233v3.4h8.34l-6.81,6.8,2.52,2.6a4.063,4.063,0,0,1,2.76-1.1,3.852,3.852,0,0,1,3.84,4.1,3.812,3.812,0,0,1-3.96,4,3.859,3.859,0,0,1-3.9-3.7h-3.69A7.508,7.508,0,0,0,446.923,11673.6Zm-369.31,97.5-10.6-16.1a11.572,11.572,0,0,0-3.75-22.4H48.511v38.5h6.15v-15.4h5.45l10.2,15.4h7.3Zm-22.951-32.7h8.35a5.761,5.761,0,0,1,0,11.5h-8.35v-11.5Zm35.964,45.7h6.25l15.2-37.7h-6.1l-7.151,18.6-7.65-18.6h-6.2l10.751,25.2Zm41.655-12.6a12.75,12.75,0,1,0-12.651-12.8A12.7,12.7,0,0,0,132.281,11771.5Zm0-5.8a7.033,7.033,0,0,1-6.9-7,6.9,6.9,0,0,1,13.8,0A7.067,7.067,0,0,1,132.281,11765.7Zm30.089,5.4v-11.3l11.25,11.3h8.151l-13.6-13.6,11.351-11.1h-8.2l-8.95,8.7v-24h-5.751v40h5.751Zm39.909,0.4c6.7,0,11.551-4.7,11.551-11.4v-13.7h-5.75v13.9c0,3.4-2.4,5.6-5.8,5.6a5.434,5.434,0,0,1-5.8-5.6v-13.9h-5.75v13.7C190.729,11766.8,195.579,11771.5,202.279,11771.5Zm35.545,0a12.75,12.75,0,1,0-12.651-12.8A12.7,12.7,0,0,0,237.824,11771.5Zm0-5.8a7.032,7.032,0,0,1-6.9-7,6.9,6.9,0,0,1,13.8,0A7.068,7.068,0,0,1,237.824,11765.7Zm35.57,5.8c6.7,0,11.55-4.7,11.55-11.4v-13.7h-5.75v13.9c0,3.4-2.4,5.6-5.8,5.6a5.435,5.435,0,0,1-5.8-5.6v-13.9h-5.75v13.7C261.843,11766.8,266.693,11771.5,273.394,11771.5Zm31.384,0c4.9,0,8.651-3.3,8.651-7.8,0-3.4-2-5.5-4.451-6.8-1.6-.8-3.5-1.4-4.7-2-1-.4-1.85-0.8-1.85-1.9a1.788,1.788,0,0,1,2-1.6,2.884,2.884,0,0,1,2.8,1.7l4.751-2.6a8.381,8.381,0,0,0-7.551-4.5c-4.6,0-7.9,2.9-7.9,7.2,0,3.1,2,5.1,4.55,6.3,1.3,0.7,2.6,1.2,4.2,2,1.7,0.8,2.2,1.5,2.2,2.5,0,1.2-1.1,1.8-2.6,1.8a4.138,4.138,0,0,1-3.75-2.5l-4.95,2.6A9.191,9.191,0,0,0,304.778,11771.5Zm20.285-.4h5.75v-12.6a6.8,6.8,0,1,1,13.6.2v12.4h5.75v-12.4c0-7.3-4.9-12.7-11.951-12.7a10.658,10.658,0,0,0-7.4,2.8v-17.7h-5.75v40Zm48.9,0.4a12.75,12.75,0,1,0-12.651-12.8A12.7,12.7,0,0,0,373.958,11771.5Zm0-5.8a7.033,7.033,0,0,1-6.9-7,6.9,6.9,0,0,1,13.8,0A7.067,7.067,0,0,1,373.958,11765.7Zm30.089,5.4v-11.3l11.25,11.3h8.151l-13.6-13.6,11.351-11.1H413l-8.95,8.7v-24H398.3v40h5.751Zm39.909,0.4c6.7,0,11.551-4.7,11.551-11.4v-13.7h-5.75v13.9c0,3.4-2.4,5.6-5.8,5.6a5.434,5.434,0,0,1-5.8-5.6v-13.9h-5.75v13.7C432.406,11766.8,437.256,11771.5,443.956,11771.5Zm56.5,0c7.45,0,12.9-4.5,12.9-11.5,0-4.5-2.3-8.4-7.5-10.5-2.55-1.1-4.75-1.8-7-2.7-1.85-.6-4.05-1.7-4.05-4.1,0-2.6,2.25-4.4,5.2-4.4a6.527,6.527,0,0,1,5.45,3.3l5.3-3.3c-2.3-3.1-5.35-6-10.7-6-6.351,0-11.4,4-11.4,10.5,0,4.7,3.15,8,7.3,9.5,2.4,0.9,3.8,1.3,5.9,2.1,4.1,1.5,5.4,3.4,5.4,5.8,0,3-2.75,5.2-6.55,5.2a8.176,8.176,0,0,1-7.451-5l-5.5,2.9C490.355,11768.3,494.805,11771.5,500.456,11771.5Zm24.8-.4h5.75v-12.6a6.8,6.8,0,1,1,13.6.2v12.4h5.75v-12.4c0-7.3-4.9-12.7-11.95-12.7a10.659,10.659,0,0,0-7.4,2.8v-17.7h-5.75v40Zm61.646-24.7h-5.751v2.3a10.267,10.267,0,0,0-7-2.7,12.75,12.75,0,0,0,0,25.5,10.267,10.267,0,0,0,7-2.7v2.3h5.751v-24.7Zm-12.7,19.3a6.95,6.95,0,1,1,7-6.9A6.862,6.862,0,0,1,574.205,11765.7Zm31.584,5.4v-11.3l11.251,11.3h8.151l-13.6-13.6,11.351-11.1h-8.2l-8.951,8.7v-24h-5.75v40h5.75Zm51.486-24.7h-5.75v2.3a10.271,10.271,0,0,0-7-2.7,12.75,12.75,0,0,0,0,25.5,10.271,10.271,0,0,0,7-2.7v2.3h5.75v-24.7Zm-12.7,19.3a6.95,6.95,0,1,1,7-6.9A6.861,6.861,0,0,1,644.574,11765.7Zm28.9-31.9a3.822,3.822,0,0,0-3.751,3.8,3.768,3.768,0,0,0,3.751,3.7,3.684,3.684,0,0,0,3.8-3.7A3.8,3.8,0,0,0,673.474,11733.8Zm-2.851,12.5v24.8h5.751v-24.8h-5.751Zm-371.851,89.9v17.2h3.69v-23.1h-3.99l-8.19,11.6-8.219-11.6H278.1v23.1h3.69v-17.2l8.489,12Zm11.485,14v3.2h12.929v-3.2h-4.68v-20l-8.249,4.2v3.5l4.649-2.3v14.6h-4.649Zm22.361,3.4a2.217,2.217,0,0,0,2.22-2.2,2.24,2.24,0,0,0-2.22-2.3A2.25,2.25,0,1,0,332.618,11853.6Zm42.989-17.4v17.2h3.69v-23.1h-3.99l-8.19,11.6-8.22-11.6h-3.959v23.1h3.689v-17.2l8.49,12Zm18.894,17.4a8.2,8.2,0,0,0,5.55-2.2l-2.49-2.5a4.243,4.243,0,0,1-3.03,1.3,3.842,3.842,0,0,1-3.81-2.8h11.34c0-5.6-3-9.1-7.56-9.1A7.651,7.651,0,0,0,394.5,11853.6Zm-3.87-9.2a4.059,4.059,0,0,1,7.65,0h-7.65Zm18.564-15v24h3.45v-24H409.2Zm25.9,9.2h-3.45v1.4a6.03,6.03,0,0,0-4.2-1.7,7.61,7.61,0,0,0-7.59,7.7,7.525,7.525,0,0,0,7.59,7.6,6.2,6.2,0,0,0,4.2-1.6v1.4h3.45v-14.8Zm-7.619,11.6a4.2,4.2,0,1,1,4.2-4.2A4.13,4.13,0,0,1,427.48,11850.2Zm15.831-20.3v16.4h3.45v-16.4h-3.45Zm1.8,19.2a2.24,2.24,0,0,1,2.22,2.3,2.217,2.217,0,0,1-2.22,2.2A2.25,2.25,0,1,1,445.111,11849.1Zm-185.727,47.1v17.2h3.69v-23.1h-3.99l-8.189,11.6-8.22-11.6h-3.96v23.1h3.69v-17.2l8.49,12Zm10.81,17.2H285.4v-3.4h-8.19l6.09-7.8a7.577,7.577,0,0,0,1.56-4.6,7.3,7.3,0,0,0-7.53-7.5,7.215,7.215,0,0,0-7.47,7.2h3.51a3.721,3.721,0,0,1,3.96-3.7,3.808,3.808,0,0,1,3.99,4,4.37,4.37,0,0,1-1.14,2.8Zm24.816,0.2a2.217,2.217,0,0,0,2.22-2.2,2.24,2.24,0,0,0-2.22-2.3A2.25,2.25,0,1,0,295.01,11913.6Zm22.319-23.3v23.1h14.279v-3.4H321.019v-19.7h-3.69Zm39.065,23.1h4.02l-9.54-23.1h-3.84l-9.479,23.1h4.079l1.92-4.7h10.89Zm-11.43-8.2,3.99-9.8,4.05,9.8h-8.04Zm21.993,8.2h7.05a11.55,11.55,0,0,0,0-23.1h-7.05v23.1Zm3.69-3.4v-16.2h3.27a7.887,7.887,0,0,1,7.98,8,7.994,7.994,0,0,1-7.98,8.2h-3.27Zm26.082-6.3v9.7h3.659v-9.7l7.47-13.4h-4.02l-5.249,9.8-5.31-9.8h-3.99Zm17.009,9.7h9.24a7.057,7.057,0,0,0,7.02-7,7.232,7.232,0,0,0-3.45-6,6.835,6.835,0,0,0,1.38-3.8,6.193,6.193,0,0,0-6.3-6.3h-7.89v23.1Zm3.69-14v-5.6h4.05a2.714,2.714,0,0,1,2.79,2.8,2.774,2.774,0,0,1-2.79,2.8h-4.05Zm0,10.6v-7.2h5.31a3.6,3.6,0,0,1,0,7.2h-5.31Zm23.466-19.7H437.2v13.3a10.035,10.035,0,0,0,20.069,0v-13.3h-3.66v13.1a6.36,6.36,0,1,1-12.719,0v-13.1Zm35.294,23.3a11.75,11.75,0,0,0,10.08-5.7v-7.7h-9.99v3.5h6.33v3a7.569,7.569,0,0,1-6.42,3.2,8.05,8.05,0,1,1,0-16.1,8.122,8.122,0,0,1,5.76,2.4l2.58-2.7a11.932,11.932,0,0,0-8.34-3.4A11.75,11.75,0,1,0,476.188,11913.6Z" transform="translate(-48.5 -11650.1)"/>
</svg>
