<svg xmlns="http://www.w3.org/2000/svg" width="136.313" height="54.31" viewBox="0 0 272.626 108.62">
  <defs>
    <style>
      .cls-1 {
        fill-rule: evenodd;
      }
    </style>
  </defs>
  <path id="title.svg" class="cls-1" d="M319.64,1761.88h4.9l10.151-24.75h-6.1l-6.5,15.95-6.6-15.95h-6.1Zm35.124,0.35a12.725,12.725,0,1,0-12.65-12.75A12.655,12.655,0,0,0,354.764,1762.23Zm0-5.75a6.975,6.975,0,1,1,6.9-7A7.032,7.032,0,0,1,354.764,1756.48Zm24.4-34.6v39.95h5.751v-39.95h-5.751Zm21.845,40.35a3.735,3.735,0,0,0,3.7-3.75,3.692,3.692,0,0,0-3.7-3.7,3.735,3.735,0,0,0-3.75,3.7A3.777,3.777,0,0,0,401.013,1762.23Zm14.219-.35h25.352v-5.65H426.933l10.15-13.05a12.472,12.472,0,0,0,2.6-7.6,12.222,12.222,0,0,0-12.551-12.55c-6.7,0-12.051,4.55-12.451,11.95h5.85a6.262,6.262,0,0,1,6.6-6.15,6.351,6.351,0,0,1,6.65,6.75,7.747,7.747,0,0,1-1.9,4.7Zm-176.076,62.3h15.209v-3.39h-8.189l6.089-7.83a7.483,7.483,0,0,0,1.56-4.56,7.333,7.333,0,0,0-7.529-7.53,7.228,7.228,0,0,0-7.47,7.17h3.51a3.757,3.757,0,0,1,3.96-3.69,3.81,3.81,0,0,1,3.989,4.05,4.648,4.648,0,0,1-1.14,2.82Zm29.456,0.21a7.466,7.466,0,0,0,7.56-7.53v-8.55a7.56,7.56,0,0,0-15.12,0v8.55A7.5,7.5,0,0,0,268.612,1824.39Zm0-3.51a3.84,3.84,0,0,1-3.9-3.99v-8.61a3.9,3.9,0,1,1,7.8,0v8.61A3.84,3.84,0,0,1,268.612,1820.88Zm14.127,3.3h15.21v-3.39h-8.19l6.09-7.83a7.483,7.483,0,0,0,1.56-4.56,7.333,7.333,0,0,0-7.53-7.53,7.228,7.228,0,0,0-7.47,7.17h3.51a3.757,3.757,0,0,1,3.96-3.69,3.811,3.811,0,0,1,3.99,4.05,4.648,4.648,0,0,1-1.14,2.82Zm29.457,0.21a7.466,7.466,0,0,0,7.559-7.53v-8.55a7.56,7.56,0,0,0-15.119,0v8.55A7.5,7.5,0,0,0,312.2,1824.39Zm0-3.51a3.84,3.84,0,0,1-3.9-3.99v-8.61a3.9,3.9,0,1,1,7.8,0v8.61A3.84,3.84,0,0,1,312.2,1820.88Zm16.482,3.51a2.241,2.241,0,0,0,2.22-2.25,2.215,2.215,0,0,0-2.22-2.22,2.241,2.241,0,0,0-2.25,2.22A2.266,2.266,0,0,0,328.678,1824.39Zm9.71-3.42v3.21h12.93v-3.21h-4.68v-19.98l-8.25,4.23v3.45l4.65-2.25v14.55h-4.65Zm19.3,0v3.21h12.93v-3.21h-4.68v-19.98l-8.25,4.23v3.45l4.65-2.25v14.55h-4.65Zm22.362,3.42a2.241,2.241,0,0,0,2.22-2.25,2.215,2.215,0,0,0-2.22-2.22,2.241,2.241,0,0,0-2.25,2.22A2.266,2.266,0,0,0,380.046,1824.39Zm9.711-3.42v3.21h12.929v-3.21h-4.68v-19.98l-8.249,4.23v3.45l4.649-2.25v14.55h-4.649Zm26.159,3.42a7.436,7.436,0,0,0,7.62-7.5,7.229,7.229,0,0,0-5.97-7.38l4.83-4.86v-3.57h-13.17v3.39h8.34l-6.81,6.84,2.52,2.52a4.344,4.344,0,0,1,2.76-1.02,3.793,3.793,0,0,1,3.84,4.05,3.853,3.853,0,0,1-3.96,4.05,3.893,3.893,0,0,1-3.9-3.69h-3.689A7.538,7.538,0,0,0,415.916,1824.39Zm24.969-25.46-2.34-3a22.023,22.023,0,0,0-.06,34.56l2.34-3A18.227,18.227,0,0,1,440.885,1798.93Zm5.2,2.15v23.1h3.72v-9.69h9.3v-3.45h-9.3v-6.51h10.709v-3.45H446.084Zm38.927,23.1-6.36-9.66a6.943,6.943,0,0,0-2.25-13.44h-8.849v23.1h3.69v-9.27h3.27l6.119,9.27h4.38Zm-13.769-19.65h5.009a3.473,3.473,0,0,1,0,6.93h-5.009v-6.93Zm24.278-3.45v23.1h-3.689v-23.1h3.689Zm5.185-2.15a18.228,18.228,0,0,1,.06,28.56l2.34,3a22.024,22.024,0,0,0-.06-34.56Z" transform="translate(-238.812 -1721.88)"/>
</svg>
