<svg xmlns="http://www.w3.org/2000/svg" width="254" height="102" viewBox="0 0 508 204">
  <defs>
    <style>
      .cls-1 {
        fill-rule: evenodd;
      }
    </style>
  </defs>
  <path id="Stage_n_o1_Anna_Takeuchi_M1._Free_Free_Free_" data-name="Stage n°o1 Anna Takeuchi M1. Free! Free! Free!" class="cls-1" d="M291.9,3803.09c4.47,0,7.74-2.7,7.74-6.9,0-2.7-1.38-5.01-4.5-6.3-1.53-.66-2.85-1.08-4.2-1.59-1.11-.39-2.43-1.05-2.43-2.46,0-1.56,1.35-2.64,3.12-2.64a3.955,3.955,0,0,1,3.27,1.95l3.18-1.95c-1.38-1.86-3.21-3.63-6.42-3.63-3.81,0-6.84,2.43-6.84,6.3a6.1,6.1,0,0,0,4.38,5.73c1.44,0.54,2.28.78,3.54,1.26,2.46,0.9,3.24,2.01,3.24,3.48,0,1.8-1.65,3.12-3.93,3.12a4.905,4.905,0,0,1-4.47-3l-3.3,1.71A8.465,8.465,0,0,0,291.9,3803.09Zm16.128-.18h3.45V3791.3h2.64v-3.27h-2.64v-5.37h-3.45v5.37h-2.67v3.27h2.67v11.61Zm27.1-14.88h-3.45v1.41a6.16,6.16,0,0,0-4.2-1.62,7.635,7.635,0,0,0,0,15.27,6.16,6.16,0,0,0,4.2-1.62v1.41h3.45v-14.85Zm-7.62,11.61a4.185,4.185,0,0,1,0-8.37A4.185,4.185,0,1,1,327.514,3799.64Zm22.56,11.25a7.5,7.5,0,0,0,7.62-7.62v-15.24h-3.42v1.41a6.16,6.16,0,0,0-4.2-1.62,7.635,7.635,0,0,0,0,15.27,6.16,6.16,0,0,0,4.2-1.62v1.8a4.227,4.227,0,0,1-4.17,4.29,4.141,4.141,0,0,1-3-1.29l-2.4,2.4A7.436,7.436,0,0,0,350.074,3810.89Zm0-11.25a4.2,4.2,0,0,1,0-8.4A4.2,4.2,0,1,1,350.074,3799.64Zm22.458,3.45a7.931,7.931,0,0,0,5.55-2.25l-2.49-2.43a4.167,4.167,0,0,1-3.03,1.26,3.881,3.881,0,0,1-3.81-2.82h11.339c0-5.58-3-9.03-7.559-9.03A7.635,7.635,0,0,0,372.532,3803.09Zm-3.87-9.18a4.059,4.059,0,0,1,7.65,0h-7.65Zm30.779,8.97h3.45v-8.37a3.269,3.269,0,0,1,3.39-3.42,3.308,3.308,0,0,1,3.45,3.45v8.34h3.45v-8.31c0-3.99-2.4-6.75-6.39-6.75a5.6,5.6,0,0,0-3.9,1.71v-1.5h-3.45v14.85Zm27.762-18.54a4.56,4.56,0,1,0-4.59,4.56A4.558,4.558,0,0,0,427.2,3784.34Zm-6.69-.03a2.132,2.132,0,0,1,2.13-2.1,2.087,2.087,0,0,1,2.1,2.1A2.115,2.115,0,1,1,420.513,3784.31Zm18.609,18.78a7.635,7.635,0,1,0-7.59-7.65A7.592,7.592,0,0,0,439.122,3803.09Zm0-3.45a4.185,4.185,0,1,1,4.14-4.2A4.219,4.219,0,0,1,439.122,3799.64Zm13.584,0.03v3.21h12.929v-3.21h-4.68v-19.98l-8.249,4.23v3.45l4.65-2.25v14.55h-4.65Zm-295.8,109.76h8.04l-19.08-46.2h-7.679l-18.959,46.2h8.159l3.84-9.42h21.779Zm-22.859-16.32,7.98-19.62,8.1,19.62H134.048Zm42.93,16.32h6.9v-16.74a6.536,6.536,0,0,1,6.779-6.84,6.615,6.615,0,0,1,6.9,6.9v16.68h6.9v-16.62c0-7.98-4.8-13.5-12.78-13.5a11.19,11.19,0,0,0-7.8,3.42v-3h-6.9v29.7Zm42.749,0h6.9v-16.74a6.537,6.537,0,0,1,6.779-6.84,6.615,6.615,0,0,1,6.9,6.9v16.68h6.9v-16.62c0-7.98-4.8-13.5-12.78-13.5a11.192,11.192,0,0,0-7.8,3.42v-3h-6.9v29.7Zm71.356-29.7h-6.9v2.82a12.32,12.32,0,0,0-8.4-3.24,15.27,15.27,0,0,0,0,30.54,12.32,12.32,0,0,0,8.4-3.24v2.82h6.9v-29.7Zm-15.239,23.22a8.37,8.37,0,0,1,0-16.74A8.37,8.37,0,1,1,275.844,3902.95Zm65.339-32.82v39.3h7.32v-39.3h11.639v-6.9H329.483v6.9h11.7Zm56.248,9.6h-6.9v2.82a12.321,12.321,0,0,0-8.4-3.24,15.27,15.27,0,0,0,0,30.54,12.321,12.321,0,0,0,8.4-3.24v2.82h6.9v-29.7Zm-15.239,23.22a8.37,8.37,0,0,1,0-16.74A8.37,8.37,0,1,1,382.192,3902.95Zm37.692,6.48v-13.56l13.5,13.56h9.779l-16.319-16.32,13.62-13.38h-9.84l-10.74,10.5v-28.8h-6.9v48h6.9Zm46.163,0.42a15.862,15.862,0,0,0,11.1-4.5l-4.98-4.86a8.333,8.333,0,0,1-6.06,2.52,7.76,7.76,0,0,1-7.619-5.64h22.679c0-11.16-6-18.06-15.12-18.06A15.271,15.271,0,0,0,466.047,3909.85Zm-7.739-18.36a8.118,8.118,0,0,1,15.3,0h-15.3Zm49.847,18.36c8.039,0,13.859-5.64,13.859-13.68v-16.44h-6.9v16.68c0,4.08-2.88,6.78-6.96,6.78-4.02,0-6.96-2.7-6.96-6.78v-16.68h-6.9v16.44C494.3,3904.21,500.115,3909.85,508.155,3909.85Zm42.557,0a14.989,14.989,0,0,0,10.74-4.56l-4.86-4.86a8.347,8.347,0,0,1-5.94,2.46,8.34,8.34,0,0,1,0-16.68,8.3,8.3,0,0,1,5.94,2.52l4.86-4.92a15.23,15.23,0,0,0-26.039,10.74A15.249,15.249,0,0,0,550.712,3909.85Zm23.586-.42h6.9v-15.18a8.031,8.031,0,0,1,8.22-8.16c4.62,0,8.1,3.42,8.1,8.46v14.88h6.9v-14.88c0-8.76-5.88-15.3-14.339-15.3a12.79,12.79,0,0,0-8.88,3.36v-21.18h-6.9v48Zm48.684-44.82a4.626,4.626,0,0,0-4.5,4.56,4.533,4.533,0,0,0,4.5,4.5,4.47,4.47,0,0,0,4.559-4.5A4.558,4.558,0,0,0,622.982,3864.61Zm-3.42,15.06v29.7h6.9v-29.7h-6.9Zm-406.877,86.05v17.16h3.689v-23.1h-3.989l-8.19,11.58-8.22-11.58h-3.96v23.1h3.69v-17.19l8.49,11.97Zm11.484,13.95v3.21H237.1v-3.21h-4.68v-19.98l-8.25,4.23v3.45l4.65-2.25v14.55h-4.65Zm22.362,3.42a2.241,2.241,0,0,0,2.22-2.25,2.215,2.215,0,0,0-2.22-2.22,2.241,2.241,0,0,0-2.25,2.22A2.266,2.266,0,0,0,246.531,3983.09Zm22.319-23.31v23.1h3.72v-9.69h9.3v-3.45h-9.3v-6.51h10.71v-3.45H268.85Zm20.442,23.1h3.45v-8.22a3.374,3.374,0,0,1,3.45-3.45,3.728,3.728,0,0,1,1.95.6l1.29-3.27a6.39,6.39,0,0,0-2.97-.72,4.447,4.447,0,0,0-3.72,1.92v-1.71h-3.45v14.85Zm22.491,0.21a7.931,7.931,0,0,0,5.549-2.25l-2.49-2.43a4.166,4.166,0,0,1-3.029,1.26,3.881,3.881,0,0,1-3.81-2.82h11.339c0-5.58-3-9.03-7.559-9.03A7.635,7.635,0,0,0,311.783,3983.09Zm-3.87-9.18a4.059,4.059,0,0,1,7.649,0h-7.649Zm25.367,9.18a7.931,7.931,0,0,0,5.55-2.25l-2.49-2.43a4.167,4.167,0,0,1-3.03,1.26,3.881,3.881,0,0,1-3.81-2.82h11.34c0-5.58-3-9.03-7.56-9.03A7.635,7.635,0,0,0,333.28,3983.09Zm-3.87-9.18a4.059,4.059,0,0,1,7.65,0h-7.65Zm18.522-14.49v16.32h3.45v-16.32h-3.45Zm1.8,19.2a2.215,2.215,0,0,1,2.22,2.22,2.241,2.241,0,0,1-2.22,2.25,2.266,2.266,0,0,1-2.25-2.25A2.241,2.241,0,0,1,349.732,3978.62Zm22.32-18.84v23.1h3.719v-9.69h9.3v-3.45h-9.3v-6.51h10.71v-3.45H372.052Zm20.441,23.1h3.45v-8.22a3.374,3.374,0,0,1,3.45-3.45,3.728,3.728,0,0,1,1.95.6l1.29-3.27a6.39,6.39,0,0,0-2.97-.72,4.447,4.447,0,0,0-3.72,1.92v-1.71h-3.45v14.85Zm22.491,0.21a7.931,7.931,0,0,0,5.55-2.25l-2.49-2.43a4.167,4.167,0,0,1-3.03,1.26,3.881,3.881,0,0,1-3.81-2.82h11.34c0-5.58-3-9.03-7.56-9.03A7.635,7.635,0,0,0,414.984,3983.09Zm-3.87-9.18a4.059,4.059,0,0,1,7.65,0h-7.65Zm25.368,9.18a7.929,7.929,0,0,0,5.549-2.25l-2.489-2.43a4.167,4.167,0,0,1-3.03,1.26,3.881,3.881,0,0,1-3.81-2.82h11.339c0-5.58-3-9.03-7.559-9.03A7.635,7.635,0,0,0,436.482,3983.09Zm-3.87-9.18a4.059,4.059,0,0,1,7.649,0h-7.649Zm18.522-14.49v16.32h3.45v-16.32h-3.45Zm1.8,19.2a2.215,2.215,0,0,1,2.22,2.22,2.241,2.241,0,0,1-2.22,2.25,2.266,2.266,0,0,1-2.25-2.25A2.241,2.241,0,0,1,452.934,3978.62Zm22.319-18.84v23.1h3.72v-9.69h9.3v-3.45h-9.3v-6.51h10.709v-3.45H475.253Zm20.442,23.1h3.45v-8.22a3.374,3.374,0,0,1,3.45-3.45,3.725,3.725,0,0,1,1.949.6l1.29-3.27a6.389,6.389,0,0,0-2.969-.72,4.447,4.447,0,0,0-3.72,1.92v-1.71H495.7v14.85Zm22.49,0.21a7.931,7.931,0,0,0,5.55-2.25l-2.49-2.43a4.167,4.167,0,0,1-3.03,1.26,3.881,3.881,0,0,1-3.81-2.82h11.34c0-5.58-3-9.03-7.56-9.03A7.635,7.635,0,0,0,518.185,3983.09Zm-3.87-9.18a4.059,4.059,0,0,1,7.65,0h-7.65Zm25.368,9.18a7.931,7.931,0,0,0,5.55-2.25l-2.49-2.43a4.167,4.167,0,0,1-3.03,1.26,3.881,3.881,0,0,1-3.81-2.82h11.34c0-5.58-3-9.03-7.56-9.03A7.635,7.635,0,0,0,539.683,3983.09Zm-3.87-9.18a4.059,4.059,0,0,1,7.65,0h-7.65Zm18.522-14.49v16.32h3.45v-16.32h-3.45Zm1.8,19.2a2.215,2.215,0,0,1,2.22,2.22,2.241,2.241,0,0,1-2.22,2.25,2.266,2.266,0,0,1-2.25-2.25A2.241,2.241,0,0,1,556.135,3978.62Z" transform="translate(-119.219 -3779.56)"/>
</svg>
