<svg xmlns="http://www.w3.org/2000/svg" width="186.922" height="132.875" viewBox="0 0 373.844 265.75">
  <defs>
    <style>
      .cls-1 {
        fill-rule: evenodd;
      }
    </style>
  </defs>
  <path id="Stage_n_o2_Cö_shu_Nie_M1._絶体絶命_M2._黒い砂" data-name="Stage n°o2 Cö shu Nie M1. 絶体絶命 M2. 黒い砂" class="cls-1" d="M291.125,7376.62c4.47,0,7.74-2.7,7.74-6.9,0-2.7-1.38-5.01-4.5-6.3-1.53-.66-2.85-1.08-4.2-1.59-1.11-.39-2.43-1.05-2.43-2.46,0-1.56,1.35-2.64,3.12-2.64a3.955,3.955,0,0,1,3.27,1.95l3.18-1.95c-1.38-1.86-3.21-3.63-6.42-3.63-3.81,0-6.84,2.43-6.84,6.3a6.1,6.1,0,0,0,4.38,5.73c1.44,0.54,2.28.78,3.54,1.26,2.46,0.9,3.24,2.01,3.24,3.48,0,1.8-1.65,3.12-3.93,3.12a4.905,4.905,0,0,1-4.47-3l-3.3,1.71A8.465,8.465,0,0,0,291.125,7376.62Zm16.128-.18h3.45v-11.61h2.64v-3.27H310.7v-5.37h-3.45v5.37h-2.67v3.27h2.67v11.61Zm27.1-14.88h-3.449v1.41a6.16,6.16,0,0,0-4.2-1.62,7.635,7.635,0,0,0,0,15.27,6.16,6.16,0,0,0,4.2-1.62v1.41h3.449v-14.85Zm-7.619,11.61a4.185,4.185,0,0,1,0-8.37A4.185,4.185,0,1,1,326.735,7373.17Zm22.56,11.25a7.5,7.5,0,0,0,7.619-7.62v-15.24H353.5v1.41a6.16,6.16,0,0,0-4.2-1.62,7.635,7.635,0,0,0,0,15.27,6.16,6.16,0,0,0,4.2-1.62v1.8a4.227,4.227,0,0,1-4.17,4.29,4.141,4.141,0,0,1-3-1.29l-2.4,2.4A7.436,7.436,0,0,0,349.3,7384.42Zm0-11.25a4.2,4.2,0,0,1,0-8.4A4.2,4.2,0,1,1,349.3,7373.17Zm22.458,3.45a7.929,7.929,0,0,0,5.549-2.25l-2.489-2.43a4.167,4.167,0,0,1-3.03,1.26,3.881,3.881,0,0,1-3.81-2.82h11.339c0-5.58-3-9.03-7.559-9.03A7.635,7.635,0,0,0,371.753,7376.62Zm-3.87-9.18a4.059,4.059,0,0,1,7.65,0h-7.65Zm30.779,8.97h3.45v-8.37a3.269,3.269,0,0,1,3.39-3.42,3.308,3.308,0,0,1,3.45,3.45v8.34h3.45v-8.31c0-3.99-2.4-6.75-6.39-6.75a5.6,5.6,0,0,0-3.9,1.71v-1.5h-3.45v14.85Zm27.762-18.54a4.56,4.56,0,1,0-4.59,4.56A4.558,4.558,0,0,0,426.424,7357.87Zm-6.69-.03a2.132,2.132,0,0,1,2.13-2.1,2.087,2.087,0,0,1,2.1,2.1A2.115,2.115,0,1,1,419.734,7357.84Zm18.609,18.78a7.635,7.635,0,1,0-7.59-7.65A7.593,7.593,0,0,0,438.343,7376.62Zm0-3.45a4.185,4.185,0,1,1,4.139-4.2A4.219,4.219,0,0,1,438.343,7373.17Zm12.63,3.24h15.209v-3.39h-8.19l6.09-7.83a7.483,7.483,0,0,0,1.56-4.56,7.333,7.333,0,0,0-7.53-7.53,7.227,7.227,0,0,0-7.469,7.17h3.509a3.757,3.757,0,0,1,3.96-3.69,3.811,3.811,0,0,1,3.99,4.05,4.648,4.648,0,0,1-1.14,2.82ZM211.363,7476a16.17,16.17,0,0,1,0-32.34,16.5,16.5,0,0,1,11.52,4.8l5.16-5.22a23.7,23.7,0,0,0-16.68-6.9,23.52,23.52,0,0,0,0,47.04,23.7,23.7,0,0,0,16.68-6.9l-5.16-5.22A16.444,16.444,0,0,1,211.363,7476Zm36.27-27.96a4.481,4.481,0,0,0,4.44-4.5,4.43,4.43,0,0,0-4.44-4.44,4.481,4.481,0,0,0-4.5,4.44A4.533,4.533,0,0,0,247.633,7448.04Zm13.02,0a4.532,4.532,0,0,0,4.5-4.5,4.481,4.481,0,0,0-4.5-4.44,4.43,4.43,0,0,0-4.44,4.44A4.481,4.481,0,0,0,260.653,7448.04Zm-6.54,35.34a15.27,15.27,0,1,0-15.179-15.3A15.185,15.185,0,0,0,254.113,7483.38Zm0-6.9a8.37,8.37,0,1,1,8.28-8.4A8.439,8.439,0,0,1,254.113,7476.48Zm62.7,6.9c5.88,0,10.379-3.9,10.379-9.36,0-4.08-2.4-6.6-5.339-8.1-1.92-1.02-4.2-1.68-5.64-2.4-1.2-.54-2.22-1.02-2.22-2.28a2.189,2.189,0,0,1,2.4-1.98,3.5,3.5,0,0,1,3.36,2.1l5.7-3.12a9.949,9.949,0,0,0-9.06-5.4c-5.52,0-9.48,3.48-9.48,8.58,0,3.78,2.4,6.12,5.46,7.62,1.56,0.78,3.12,1.38,5.04,2.34,2.04,0.96,2.64,1.86,2.64,3,0,1.5-1.32,2.22-3.12,2.22a5.064,5.064,0,0,1-4.5-3l-5.94,3.12A11.077,11.077,0,0,0,316.812,7483.38Zm24.132-.42h6.9v-15.18a8.031,8.031,0,0,1,8.219-8.16c4.62,0,8.1,3.42,8.1,8.46v14.88h6.9v-14.88c0-8.76-5.88-15.3-14.34-15.3a12.789,12.789,0,0,0-8.879,3.36v-21.18h-6.9v48Zm58.391,0.42c8.039,0,13.859-5.64,13.859-13.68v-16.44h-6.9v16.68c0,4.08-2.879,6.78-6.959,6.78-4.02,0-6.96-2.7-6.96-6.78v-16.68h-6.9v16.44C385.475,7477.74,391.3,7483.38,399.335,7483.38Zm62.039-35.34,24.779,34.92h8.04v-46.2h-7.38v34.38l-24.479-34.38h-8.34v46.2h7.38v-34.92Zm52.74-9.9a4.626,4.626,0,0,0-4.5,4.56,4.533,4.533,0,0,0,4.5,4.5,4.47,4.47,0,0,0,4.56-4.5A4.558,4.558,0,0,0,514.114,7438.14Zm-3.42,15.06v29.7h6.9v-29.7h-6.9Zm35.879,30.18a15.862,15.862,0,0,0,11.1-4.5l-4.98-4.86a8.333,8.333,0,0,1-6.06,2.52,7.762,7.762,0,0,1-7.62-5.64h22.679c0-11.16-6-18.06-15.119-18.06A15.271,15.271,0,0,0,546.573,7483.38Zm-7.74-18.36a8.118,8.118,0,0,1,15.3,0h-15.3Zm-244.5,74.3v17.16h3.69v-23.1h-3.99l-8.189,11.58-8.22-11.58h-3.96v23.1h3.69v-17.19l8.49,11.97Zm11.485,13.95v3.21h12.93v-3.21h-4.68v-19.98l-8.25,4.23v3.45l4.65-2.25v14.55h-4.65Zm22.362,3.42a2.241,2.241,0,0,0,2.22-2.25,2.215,2.215,0,0,0-2.22-2.22,2.241,2.241,0,0,0-2.25,2.22A2.266,2.266,0,0,0,328.179,7556.69Zm42.808-17.85c0.99-1.56,1.92-3.21,2.64-4.61l-1.8-1.02h-4.38c0.18-.48.33-0.96,0.48-1.47l-2.879-.75a22.874,22.874,0,0,1-5.64,9.29l2.37,1.44v11.07c0,4.53.99,5.43,4.679,5.55,1.53,0.03,3.84.06,5.49,0,3.48-.09,4.08-0.63,4.47-5.1-2.82-.48-2.91-0.51-2.97-0.51-0.06,2.34-.21,2.52-1.71,2.55-1.47.03-3.66,0.03-4.98,0-1.439-.03-1.889-0.36-1.889-2.49v-3.36h10.709v-10.59h-4.59Zm-6.479,0a27.148,27.148,0,0,0,1.769-3h3.15a28.468,28.468,0,0,1-1.62,3h-3.3Zm2.789,7.86h-2.429v-5.13H367.3v5.13Zm2.73-5.13h2.52v5.13h-2.52v-5.13Zm-13.349,5.22c0.69-.06,1.32-0.15,1.95-0.21a7.467,7.467,0,0,1,.42,1.23l2.52-1.26a24.505,24.505,0,0,0-3.24-6.03l-2.37,1.26a22.168,22.168,0,0,1,1.53,2.43c-1.23.06-2.61,0.15-3.96,0.21a104.894,104.894,0,0,0,6.75-9.41l-2.82-1.29c-0.81,1.5-1.95,3.35-3.3,5.33-0.39-.45-0.78-0.93-1.23-1.41a58.084,58.084,0,0,0,3.51-5.48l-2.73-1.14a36.5,36.5,0,0,1-2.67,4.76,9.874,9.874,0,0,0-.84-0.74l-1.59,2.15a28.008,28.008,0,0,1,3.9,4.17c-0.78,1.08-1.62,2.19-2.46,3.24-0.66.03-1.23,0.06-1.74,0.09l0.57,2.88c1.26-.12,2.97-0.27,4.71-0.45v11.73h3.09v-12.06Zm0.72,2.16a28.05,28.05,0,0,1,1.35,5.91l2.64-.69a28.721,28.721,0,0,0-1.41-5.91C359.168,7548.47,358.388,7548.68,357.4,7548.95Zm-7.29-.42a23.548,23.548,0,0,1-1.71,7.41l2.64,0.93a26.957,26.957,0,0,0,1.77-7.92Zm38.793,10.32v-6.84l2.22,2.31a37.352,37.352,0,0,0,6.99-9.81v6.45h-3.63v2.97h3.63v4.92h3.269v-4.92h3.51v-2.97h-3.51v-6.87a46.685,46.685,0,0,0,6.75,10.11l2.52-2.61a37.946,37.946,0,0,1-8.07-10.77h7.5v-3.03h-8.7v-6.77h-3.269v6.77h-8.07v3.03H397a31.792,31.792,0,0,1-8.1,10.83v-12.96a50.31,50.31,0,0,0,2.55-6.98l-3.15-.72a38.116,38.116,0,0,1-6.57,13.85l1.77,2.85c0.78-.99,1.5-2.01,2.19-3.06v14.22h3.21Zm49.547-20.01c0.99-1.56,1.92-3.21,2.64-4.61l-1.8-1.02h-4.38c0.18-.48.33-0.96,0.48-1.47l-2.879-.75a22.874,22.874,0,0,1-5.64,9.29l2.37,1.44v11.07c0,4.53.99,5.43,4.679,5.55,1.53,0.03,3.84.06,5.49,0,3.48-.09,4.08-0.63,4.47-5.1-2.82-.48-2.91-0.51-2.97-0.51-0.06,2.34-.21,2.52-1.71,2.55-1.47.03-3.66,0.03-4.98,0-1.439-.03-1.889-0.36-1.889-2.49v-3.36h10.709v-10.59h-4.59Zm-6.479,0a27.148,27.148,0,0,0,1.769-3h3.15a28.468,28.468,0,0,1-1.62,3h-3.3Zm2.789,7.86h-2.429v-5.13h2.429v5.13Zm2.73-5.13h2.52v5.13h-2.52v-5.13Zm-13.349,5.22c0.69-.06,1.32-0.15,1.95-0.21a7.467,7.467,0,0,1,.42,1.23l2.52-1.26a24.505,24.505,0,0,0-3.24-6.03l-2.37,1.26a22.168,22.168,0,0,1,1.53,2.43c-1.23.06-2.61,0.15-3.96,0.21a104.894,104.894,0,0,0,6.75-9.41l-2.82-1.29c-0.81,1.5-1.95,3.35-3.3,5.33-0.39-.45-0.78-0.93-1.23-1.41a58.084,58.084,0,0,0,3.51-5.48l-2.73-1.14a36.5,36.5,0,0,1-2.67,4.76,9.874,9.874,0,0,0-.84-0.74l-1.59,2.15a28.008,28.008,0,0,1,3.9,4.17c-0.78,1.08-1.62,2.19-2.46,3.24-0.66.03-1.23,0.06-1.74,0.09l0.57,2.88c1.26-.12,2.97-0.27,4.71-0.45v11.73h3.09v-12.06Zm0.72,2.16a28.05,28.05,0,0,1,1.35,5.91l2.64-.69a28.721,28.721,0,0,0-1.41-5.91C426.629,7548.47,425.849,7548.68,424.859,7548.95Zm-7.29-.42a23.548,23.548,0,0,1-1.71,7.41l2.64,0.93a26.957,26.957,0,0,0,1.77-7.92Zm52.184-8.97a31.465,31.465,0,0,0,6.12,3.21l2.04-2.94a29.4,29.4,0,0,1-12.929-8.81h-3.12a26.923,26.923,0,0,1-12.6,8.81l1.95,2.88a29.757,29.757,0,0,0,6.24-3.3v1.77h12.3v-1.62Zm-11.069-1.05a35.342,35.342,0,0,0,4.71-4.52,38.226,38.226,0,0,0,4.889,4.52h-9.6Zm13.079,4.68h-7.679v15.66h3.149v-12.9h4.53v6.18a0.419,0.419,0,0,1-.45.48,19.072,19.072,0,0,1-2.22-.03l0.54,2.91a26.46,26.46,0,0,0,3.6-.09c1.29-.24,1.71-1.11,1.71-2.58v-9.63h-3.18Zm-16.769,9.21v-6.42h3.93v6.42h-3.93Zm-1.38-9.09h-1.59v13.26h2.97v-1.47h7.02v-11.79h-8.4Zm-142.561,56.01v17.16h3.69v-23.1h-3.99l-8.19,11.58-8.219-11.58h-3.96v23.1h3.69v-17.19l8.489,11.97Zm10.81,17.16h15.209v-3.39h-8.189l6.089-7.83a7.483,7.483,0,0,0,1.56-4.56,7.333,7.333,0,0,0-7.529-7.53,7.228,7.228,0,0,0-7.47,7.17h3.51a3.757,3.757,0,0,1,3.96-3.69,3.81,3.81,0,0,1,3.989,4.05,4.648,4.648,0,0,1-1.14,2.82Zm24.815,0.21a2.241,2.241,0,0,0,2.22-2.25,2.215,2.215,0,0,0-2.22-2.22,2.241,2.241,0,0,0-2.25,2.22A2.266,2.266,0,0,0,346.678,7616.69Zm35.849-20.19v-2.18h6.15v2.18h-6.15Zm-9.33-2.18h5.97v2.18H373.2v-2.18Zm9.33,6.5v-2.25h6.15v2.25h-6.15Zm-9.33-2.25h5.97v2.25H373.2v-2.25Zm-6.119,11.04v2.46h27.839v-2.46h-12.39v-2.01h10.14v-2.4h-10.14v-1.83h9.48v-11.6H369.988v11.6h9.179v1.83h-9.779v2.4h9.779v2.01H367.078Zm20.879,4.02a24.336,24.336,0,0,1,3.54,5.22l3.12-1.11a24.593,24.593,0,0,0-3.93-5.25Zm-17.07-1.05a12.877,12.877,0,0,1-3.539,5.07l3.06,1.2a17.624,17.624,0,0,0,3.539-5.49Zm10.83,0.87a22.932,22.932,0,0,1,1.77,5.16l3-.72a23.142,23.142,0,0,0-2.1-5.22Zm-6-.24a26.059,26.059,0,0,1,.87,5.4l3.18-.45a28.964,28.964,0,0,0-1.2-5.43Zm41.6-16.47c3.96,3.99,5.25,8.01,5.31,14.79l3.75-.33c-0.24-6.84-1.68-11.7-6.15-16.34Zm-15.479-1.23c-0.21,2.46-.3,4.77-0.3,6.81,0,9.57,3.959,14.34,7.379,14.34,2.4,0,4.2-2.43,5.34-7.32l-2.91-1.29c-0.57,2.82-1.56,4.74-2.58,4.74-1.8,0-3.78-3.99-3.78-10.56a56.453,56.453,0,0,1,.45-6.39Zm49.271-4.49v15.02a0.486,0.486,0,0,1-.54.57,16.646,16.646,0,0,1-2.07-.03l0.51,2.85a20.078,20.078,0,0,0,3.42-.09c1.38-.24,1.83-1.14,1.83-2.7v-15.62h-3.15Zm4.44,5.33a37.749,37.749,0,0,1,2.43,8.97l3.12-.87a42.674,42.674,0,0,0-2.79-8.85Zm-8.64-.36a22.7,22.7,0,0,1-2.85,9l2.82,1.11a26.851,26.851,0,0,0,2.91-9.63Zm-8.67,17.34v-8.88h2.82v8.88h-2.82Zm0.06-11.7a46.324,46.324,0,0,0,1.47-6.77h5.61v-2.82H433.054v2.82h3.689a32.094,32.094,0,0,1-4.259,12.98l1.56,2.82c0.45-.66.87-1.35,1.26-2.04v9.3h2.939v-1.74h5.79v-14.55H438.3Zm17.94,3.9c-1.74,5.94-5.55,9.06-11.61,10.98l2.43,2.31c6.18-2.31,10.41-6.15,12.21-12.36Z" transform="translate(-187.844 -7353.09)"/>
</svg>
