<svg xmlns="http://www.w3.org/2000/svg" width="38" height="14" viewBox="0 0 38 14" fill="#fff">
  <path id="パス_823" data-name="パス 823" d="M3.01-7.28v-4.088l-1.694.252V0H3.01V-6.006a2.693,2.693,0,0,1,2-.9C6.146-6.9,6.5-6.132,6.5-5.1V0H8.162V-5.516c0-1.456-.56-2.772-2.646-2.772A3.641,3.641,0,0,0,3.01-7.28ZM19.39-2.464V-5.628c0-1.862-.7-2.758-2.842-2.758a7.5,7.5,0,0,0-2.982.644l.364,1.4a5.267,5.267,0,0,1,2.422-.644c1.3,0,1.456.546,1.456,1.372v.546c-3.836.168-4.886.756-4.886,2.716A2.4,2.4,0,0,0,15.554.182,2.74,2.74,0,0,0,18.018-1.19,2.857,2.857,0,0,0,18.536.14L19.95-.112A3.878,3.878,0,0,1,19.39-2.464ZM17.808-3.822v1.134a1.962,1.962,0,0,1-1.932,1.5c-.56,0-1.386-.21-1.386-1.2C14.49-3.472,15.26-3.682,17.808-3.822ZM28.924-8.358a3.086,3.086,0,0,0-2.506,1.246,3.252,3.252,0,0,0-.294-1.148L24.6-8.05a6.431,6.431,0,0,1,.2,1.68V3.22h1.652V-.728A3.108,3.108,0,0,0,28.686.2c2.562,0,3.43-2.044,3.43-4.438,0-2.576-1.078-4.116-3.178-4.116ZM26.39-4.494A6.243,6.243,0,0,1,26.474-5.6,2.283,2.283,0,0,1,28.56-6.93c1.33,0,1.834,1.19,1.834,2.73,0,1.736-.49,3-2,3a2.309,2.309,0,0,1-1.918-.966,6.954,6.954,0,0,1-.084-1.26Zm12.418-6.4h-1.75v1.54h1.75ZM38.78-8.134H37.086V0H38.78Z" transform="translate(-1.316 11.368)"/>
</svg>
