<svg xmlns="http://www.w3.org/2000/svg" width="87" height="14" viewBox="0 0 87 14" fill="#fff">
  <path id="パス_815" data-name="パス 815" d="M11.662-11.634a6.483,6.483,0,0,1,1.372,1.6l.77-.616a7.564,7.564,0,0,0-1.4-1.582Zm-1.82.588a7.452,7.452,0,0,1,1.386,1.582l.756-.616a7.933,7.933,0,0,0-1.4-1.582ZM1.554-7.266c.518.014,1.106.014,1.708.014,1.386,0,2.926-.042,4.424-.154A10.328,10.328,0,0,0,9-4.872a13.082,13.082,0,0,0-3.416-.462c-2,0-3.388,1.2-3.388,2.786C2.2-.462,3.99.77,7.994.77,8.6.77,9.338.742,10.08.686L10.164-.8c-.812.084-1.582.126-2.2.126-2.926,0-4.158-.686-4.158-1.75,0-.91.7-1.54,2.058-1.54A10,10,0,0,1,10.64-2.814l.966-1.106A10.023,10.023,0,0,1,9.3-7.532a29.223,29.223,0,0,0,3.43-.49L12.4-9.464a26.834,26.834,0,0,1-3.57.546,15.463,15.463,0,0,1-.462-2.506l-1.68.168a19.174,19.174,0,0,0,.532,2.464c-1.246.084-2.492.112-3.626.112-.77,0-1.442-.014-2.044-.042Zm16.912,1.68c1.918-.014,4.228-.112,6.384-.266a13.066,13.066,0,0,0,.882,1.568A10.566,10.566,0,0,0,22.386-4.8c-2.212,0-3.416,1.064-3.416,2.632,0,1.806,1.778,2.94,5.642,2.94.6,0,1.414-.014,2.142-.084L26.866-.8c-.952.084-1.89.112-2.576.112-2.506,0-3.752-.574-3.752-1.47,0-.742.658-1.358,2.044-1.358A11.622,11.622,0,0,1,27.4-2.408L28.14-3.6A8.35,8.35,0,0,1,26.4-5.978c1.162-.1,2.226-.21,3.122-.322l-.154-1.4c-1.022.168-2.24.308-3.542.42-.154-.406-.28-.826-.406-1.246,1.232-.1,2.38-.224,3.332-.35l-.2-1.386c-.994.168-2.184.308-3.458.42-.1-.532-.2-1.064-.252-1.6l-1.694.182c.084.5.2,1.022.336,1.54-1.554.1-3.15.154-4.606.154L18.97-8.19c1.526-.014,3.234-.1,4.9-.21.14.42.28.84.434,1.232-1.988.126-4.074.2-5.922.2Zm21.28-3.206c-.14,4.48-1.428,6.944-2.38,6.944-.644,0-1.176-1.05-1.176-2.394A4.527,4.527,0,0,1,39.746-8.792ZM34.664-4.2c0,2.114,1.078,4.116,2.66,4.116,2.212,0,3.822-3.57,4.032-8.82A3.343,3.343,0,0,1,44.828-5.25c0,2.086-.924,3.752-4.354,4.34l.77,1.526C45.276-.266,46.48-2.59,46.48-5.278c0-2.8-1.568-5.18-5.6-5.18a6.249,6.249,0,0,0-6.216,6.244ZM58.03-4.942v.182A1.352,1.352,0,0,1,56.7-3.4a1.283,1.283,0,0,1-1.33-1.344,1.341,1.341,0,0,1,1.26-1.386A1.259,1.259,0,0,1,58.03-4.942ZM51.744-9.8v1.456H58c.014.392.014.8.014,1.176a3.511,3.511,0,0,0-1.428-.28,2.612,2.612,0,0,0-2.744,2.73A2.459,2.459,0,0,0,56.49-2.086a3.826,3.826,0,0,0,1.288-.224c-.406.994-1.33,1.638-3.472,2.03l.63,1.456c4.018-.938,4.788-2.912,4.788-5.642a2.936,2.936,0,0,0-.1-.784V-8.344h3.612V-9.8H59.626v-1.61h-1.68c.014.462.028,1.022.028,1.61ZM69.72-11.27A33.535,33.535,0,0,0,69.2-5.348,16.334,16.334,0,0,0,70,.14l1.6-.49A14.255,14.255,0,0,1,70.77-5.5a26.289,26.289,0,0,1,.56-5.53Zm2.856,3.08v1.484H76.79l.014.182c.238,3.094-.5,4.956-2.52,6.3L75.6.854c2.184-1.624,2.744-3.738,2.744-7.336v-.224h1.932V-8.19h-1.96c-.028-.98-.07-2.058-.154-3.22l-1.694.1c.14,1.106.224,2.156.28,3.122ZM88.228-.7a1.861,1.861,0,0,0-1.862-1.862A1.87,1.87,0,0,0,84.5-.7a1.87,1.87,0,0,0,1.862,1.862A1.858,1.858,0,0,0,88.228-.686ZM85.2-.7a1.168,1.168,0,0,1,1.162-1.162A1.18,1.18,0,0,1,87.542-.7,1.183,1.183,0,0,1,86.366.476,1.168,1.168,0,0,1,85.2-.686Z" transform="translate(-1.554 12.236)"/>
</svg>
