<svg xmlns="http://www.w3.org/2000/svg" width="86" height="13" viewBox="0 0 86 13" fill="#fff">
  <path id="パス_821" data-name="パス 821" d="M2.912-1.456V-8.694H1.344V1.064H2.912V.056h8.134V1.064h1.6V-8.694h-1.6v7.238H7.686V-11.7H6.09V-1.456Zm21.336-6.58V-9.59H30.17v-1.428H17.416V-9.59h5.236V1.176h1.6v-7.49a26.406,26.406,0,0,1,4.382,3.29c1.106-1.232,1.134-1.26,1.162-1.274A35.008,35.008,0,0,0,24.248-8.036ZM46.83-8.652v-.49h4.046v.49Zm0,1.12v-.476h4.046v.476Zm0,1.148v-.49h4.046v.49ZM45.794-5.25a1.044,1.044,0,0,1-.1.168v-.49H48.16l-.2.112a6.3,6.3,0,0,1,1.2,1.12l.924-.462a6.457,6.457,0,0,0-.84-.77h2.814v.588c-.14-.112-.294-.224-.448-.336l-.966.5c.2.154.378.322.546.476l-1.078-.2c-.028.406-.042.42-.434.434h-1.26c-.378-.014-.448-.07-.448-.434V-5.25H46.844v.434ZM50.2-.532A5.079,5.079,0,0,0,52.052-2.38l-1.008-.336h-2.59a5.23,5.23,0,0,0,.378-.434L48.3-3.192c.378.014,1.05.014,1.484,0,1.078-.014,1.3-.154,1.414-1.148A6.838,6.838,0,0,1,52.388-3l1.134-.462a6.144,6.144,0,0,0-.868-.98h.77V-6.384H52.332V-9.87H49.518c.084-.182.168-.378.252-.56h3.836v-1.036h-8.89v1.036h3.57c-.042.182-.1.364-.154.56h-2.7v3.486H44.38v1.946h.84a4.806,4.806,0,0,1-1.036.868l1.064.616a5.722,5.722,0,0,0,1.6-1.806v.224c0,.868.154,1.19.854,1.3l-.448-.028a9.153,9.153,0,0,1-3.206,2.03l1.19.686a11.167,11.167,0,0,0,1.148-.6,8.333,8.333,0,0,0,.994.686A17.374,17.374,0,0,1,44.17.154l.812,1.022a18,18,0,0,0,3.78-.994,17.7,17.7,0,0,0,4.116.994L53.634.014A17.035,17.035,0,0,1,50.2-.532ZM47.39-1.82l.042-.028h2.6a4.986,4.986,0,0,1-1.232.826A5.921,5.921,0,0,1,47.39-1.82ZM43.652-8.512a25.712,25.712,0,0,0,.924-2.968l-1.47-.336a19.191,19.191,0,0,1-2.618,6.468L41.314-4c.308-.462.6-.924.868-1.4v6.58h1.47Zm21.364,1.33h5.418V-8.638H64.568c.126-1.106.182-2.184.21-3.15l-1.61-.028c-.014.98-.042,2.058-.168,3.178H57.512v1.456h5.264A9.507,9.507,0,0,1,57.372,0L58.59,1.162A10.593,10.593,0,0,0,63.924-5.46a10.817,10.817,0,0,0,5.558,6.622L70.616-.154C67.8-1.3,65.9-3.584,65.016-7.182ZM62.2-1.736A11.921,11.921,0,0,1,64.33.812l1.316-.938a14.039,14.039,0,0,0-2.31-2.492ZM85.5-11.3H81.634V1.176h1.54V-9.842h1.9c-.364,1.12-.8,2.366-1.274,3.64,1.288,1.19,1.708,1.946,1.708,2.744,0,.728-.14,1.19-.728,1.26a5.125,5.125,0,0,1-1.12-.028l.28,1.5a7.775,7.775,0,0,0,1.75-.07C86.73-1.008,87.08-2.142,87.08-3.3c0-.994-.49-1.9-1.708-3.206.672-1.526,1.288-3.052,1.848-4.48l-.826-.308h-.9ZM79.254-7v1.008H76.426V-7ZM76.426-8.134V-9.1h2.828v.966Zm-2.3,7.056.434,1.5c1.246-.35,3.318-.98,4.844-1.47A9.826,9.826,0,0,1,79.7.14l1.5-.588a14.13,14.13,0,0,0-1.764-3.99l-1.3.532a16.517,16.517,0,0,1,.826,1.652c-.784.21-1.68.434-2.534.644V-4.76h4.312v-5.558H78.582v-1.5H77.07v1.5H74.942V-1.26C74.648-1.19,74.368-1.12,74.13-1.078Z" transform="translate(-1.344 11.816)"/>
</svg>
