<svg xmlns="http://www.w3.org/2000/svg" width="32" height="12" viewBox="0 0 32 12">
  <path id="パス_817" data-name="パス 817" d="M7.812-1.54A5.117,5.117,0,0,1,6.3-1.316c-2.506,0-3.458-1.526-3.458-3.906,0-2.506.966-4.228,3.416-4.228a6.218,6.218,0,0,1,2.212.406L8.764-10.6a9.585,9.585,0,0,0-2.548-.378C2.072-10.976.994-8.19.994-5.236.994-2.352,2.142.182,6.244.182A9.877,9.877,0,0,0,9.408-.336v-5.6H5.558v1.442H7.812Zm10.57.35a2.293,2.293,0,0,1-2.548-2.576h5.348v-.98c0-2.128-.9-3.668-3.15-3.668-2.548,0-3.878,1.946-3.878,4.452,0,2.394,1.176,4.2,4.1,4.2A7.012,7.012,0,0,0,21.07-.308l-.308-1.344A6.3,6.3,0,0,1,18.4-1.19Zm-.518-5.922c1.3,0,1.764.826,1.778,2.142H15.876A2.121,2.121,0,0,1,17.85-7.112Zm8.12-.938a6.431,6.431,0,0,1,.2,1.68V0h1.68V-6.034A2.834,2.834,0,0,1,29.876-6.9c1.134,0,1.484.77,1.484,1.806V0h1.68V-5.516c0-1.456-.56-2.772-2.66-2.772A3.722,3.722,0,0,0,27.79-7.2a4.934,4.934,0,0,0-.266-1.064Z" transform="translate(-0.994 10.976)"/>
</svg>
