<svg xmlns="http://www.w3.org/2000/svg" width="156.673" height="53.577" viewBox="0 0 156.673 53.577">
  <g id="グループ_336" data-name="グループ 336" transform="translate(-562.021 -2086.744)">
    <path id="パス_891" data-name="パス 891" d="M-77.891-1.342a7.736,7.736,0,0,1-.088,1.309c.385-.022.682-.033,1.21-.033h1.859a3.685,3.685,0,0,0,2.673-.979A4.446,4.446,0,0,0-71.06-4.3c0-2.629-1.4-4.125-3.85-4.125h-1.859c-.528,0-.825-.011-1.21-.033A7.92,7.92,0,0,1-77.891-7.2Zm.858.506v-6.82h2.145a2.711,2.711,0,0,1,2.068.748A3.554,3.554,0,0,1-71.951-4.3a3.747,3.747,0,0,1-.924,2.684,2.687,2.687,0,0,1-2.057.781Zm8.415-7.59v.979h1.067v-.979ZM-68.585-6a8.066,8.066,0,0,1,.077,1.243v3.443a9.545,9.545,0,0,1-.077,1.243h.99a8.661,8.661,0,0,1-.077-1.243V-4.752A7.879,7.879,0,0,1-67.6-6Zm7.5,0a5.051,5.051,0,0,0-.979-.1,2.193,2.193,0,0,0-1.32.385,1.929,1.929,0,0,0-.605.671,3.2,3.2,0,0,0,.011-.33V-6h-.913a7.972,7.972,0,0,1,.077,1.243v3.443a10.037,10.037,0,0,1-.077,1.243h.99A8.606,8.606,0,0,1-63.976-1.3V-3.542a1.811,1.811,0,0,1,.407-1.1,1.623,1.623,0,0,1,1.353-.671,2.609,2.609,0,0,1,.891.165ZM-53.867-2.9c-.022-.3-.066-.726-.077-.847a2.6,2.6,0,0,0-2.662-2.387c-1.65,0-2.728,1.232-2.728,3.113,0,1.9,1.089,3.113,2.816,3.113a2.747,2.747,0,0,0,1.991-.77,2.63,2.63,0,0,0,.6-.913l-.77-.308A1.8,1.8,0,0,1-56.507-.616a1.84,1.84,0,0,1-1.551-.748A2.492,2.492,0,0,1-58.5-2.9Zm-4.6-.693a2.3,2.3,0,0,1,.275-.891,1.722,1.722,0,0,1,1.562-.957,1.784,1.784,0,0,1,1.3.5A2.008,2.008,0,0,1-54.747-3.6Zm11.99-.836a2.972,2.972,0,0,0-.385-.7,2.493,2.493,0,0,0-2.123-1.012c-1.683,0-2.783,1.243-2.783,3.146A2.773,2.773,0,0,0-48.928.077a2.533,2.533,0,0,0,2.079-.924,3.016,3.016,0,0,0,.451-.847l-.825-.22a1.787,1.787,0,0,1-.242.561,1.626,1.626,0,0,1-1.43.7c-1.232,0-2.024-.924-2.024-2.376,0-1.474.77-2.42,1.98-2.42A1.661,1.661,0,0,1-47.278-4.18Zm3.135-3.2a8.346,8.346,0,0,1,.077,1.221V-6h-.44a4.987,4.987,0,0,1-.99-.066v.836a7.36,7.36,0,0,1,.99-.066h.44v3.938A1.4,1.4,0,0,0-42.955-.3a1.506,1.506,0,0,0,1.078.341,2.96,2.96,0,0,0,1.243-.253l-.242-.77a1.524,1.524,0,0,1-.869.286.745.745,0,0,1-.539-.187c-.1-.1-.143-.264-.143-.583V-5.291h.528a6.606,6.606,0,0,1,1.122.066v-.836A6.76,6.76,0,0,1-41.9-6h-.528v-.418a7.952,7.952,0,0,1,.077-1.221ZM-35.948.077a2.834,2.834,0,0,0,2.915-3.113,2.816,2.816,0,0,0-2.926-3.1A2.827,2.827,0,0,0-38.9-3.025,2.821,2.821,0,0,0-35.948.077Zm.011-5.522c1.265,0,2.057.924,2.057,2.409s-.792,2.4-2.079,2.4-2.09-.913-2.09-2.409S-37.246-5.445-35.937-5.445Zm9.1-.55a5.051,5.051,0,0,0-.979-.1,2.193,2.193,0,0,0-1.32.385,1.929,1.929,0,0,0-.6.671,3.2,3.2,0,0,0,.011-.33V-6h-.913a7.972,7.972,0,0,1,.077,1.243v3.443a10.037,10.037,0,0,1-.077,1.243h.99A8.606,8.606,0,0,1-29.733-1.3V-3.542a1.811,1.811,0,0,1,.407-1.1,1.623,1.623,0,0,1,1.353-.671,2.609,2.609,0,0,1,.891.165ZM-17.38.077a2.834,2.834,0,0,0,2.915-3.113,2.816,2.816,0,0,0-2.926-3.1,2.827,2.827,0,0,0-2.937,3.113A2.821,2.821,0,0,0-17.38.077Zm.011-5.522c1.265,0,2.057.924,2.057,2.409s-.792,2.4-2.079,2.4-2.09-.913-2.09-2.409S-18.678-5.445-17.369-5.445Zm6.083.154v3.982a8.871,8.871,0,0,1-.077,1.243h.99A8.2,8.2,0,0,1-10.45-1.3V-5.291h.55a7.014,7.014,0,0,1,1.166.066v-.836A7.751,7.751,0,0,1-9.9-6h-.55V-6.6a1.575,1.575,0,0,1,.165-.924.866.866,0,0,1,.748-.3,1.684,1.684,0,0,1,.913.253l.231-.737a3.01,3.01,0,0,0-1.166-.22,1.723,1.723,0,0,0-1.386.539,1.947,1.947,0,0,0-.341,1.342V-6h-.451a6.234,6.234,0,0,1-1-.066v.836a7.17,7.17,0,0,1,1-.066ZM-.528-.066A6.708,6.708,0,0,1-.616-1.309V-3.476H1.837A2.4,2.4,0,0,0,4.543-6.028c0-1.529-.957-2.4-2.651-2.4H-.352c-.506,0-.814-.011-1.21-.033A8.107,8.107,0,0,1-1.474-7.2V-1.3A6.81,6.81,0,0,1-1.562-.066ZM-.616-4.235V-7.667H1.837c1.188,0,1.826.583,1.826,1.683A1.621,1.621,0,0,1,1.837-4.235ZM7.733-.066a8.871,8.871,0,0,1-.077-1.243V-3.421a2.553,2.553,0,0,1,.55-1.155,1.9,1.9,0,0,1,1.551-.8c.858,0,1.331.517,1.331,1.474v2.6a7.7,7.7,0,0,1-.077,1.243H12A8.3,8.3,0,0,1,11.924-1.3V-4.059A1.883,1.883,0,0,0,9.867-6.105a2.361,2.361,0,0,0-1.65.594,2.5,2.5,0,0,0-.6.748,3.756,3.756,0,0,0,.033-.55V-7.172a6.835,6.835,0,0,1,.088-1.254H6.754a8.066,8.066,0,0,1,.077,1.243v5.874A7.972,7.972,0,0,1,6.754-.066Zm9.581.143a2.834,2.834,0,0,0,2.915-3.113,2.816,2.816,0,0,0-2.926-3.1,2.827,2.827,0,0,0-2.937,3.113A2.821,2.821,0,0,0,17.314.077Zm.011-5.522c1.265,0,2.057.924,2.057,2.409s-.792,2.4-2.079,2.4-2.09-.913-2.09-2.409S16.016-5.445,17.325-5.445Zm5.984-2.189a8.346,8.346,0,0,1,.077,1.221V-6h-.44a4.987,4.987,0,0,1-.99-.066v.836a7.36,7.36,0,0,1,.99-.066h.44v3.938A1.4,1.4,0,0,0,23.694-.3a1.506,1.506,0,0,0,1.078.341,2.96,2.96,0,0,0,1.243-.253l-.242-.77a1.524,1.524,0,0,1-.869.286.745.745,0,0,1-.539-.187c-.1-.1-.143-.264-.143-.583V-5.291h.528a6.606,6.606,0,0,1,1.122.066v-.836A6.76,6.76,0,0,1,24.75-6h-.528v-.418A7.952,7.952,0,0,1,24.3-7.634ZM30.7.077a2.834,2.834,0,0,0,2.915-3.113,2.816,2.816,0,0,0-2.926-3.1,2.827,2.827,0,0,0-2.937,3.113A2.821,2.821,0,0,0,30.7.077Zm.011-5.522c1.265,0,2.057.924,2.057,2.409s-.792,2.4-2.079,2.4S28.6-1.551,28.6-3.047,29.4-5.445,30.712-5.445ZM35.981,1.2a3.012,3.012,0,0,0,2.5,1.1,2.965,2.965,0,0,0,2.288-.836A3.327,3.327,0,0,0,41.4-.825V-4.763A8.4,8.4,0,0,1,41.481-6H40.6v.627c0,.143.011.231.022.418a2.274,2.274,0,0,0-2.112-1.155c-1.705,0-2.783,1.188-2.783,3.058A2.668,2.668,0,0,0,38.445-.055,2.554,2.554,0,0,0,40.15-.627a2,2,0,0,0,.473-.605A6.1,6.1,0,0,1,40.425.4a1.852,1.852,0,0,1-1.914,1.21,2.1,2.1,0,0,1-1.474-.517A1.546,1.546,0,0,1,36.685.7Zm.6-4.246c0-1.463.748-2.365,1.969-2.365a2.022,2.022,0,0,1,2.024,2.277,2.129,2.129,0,0,1-2.09,2.387C37.312-.748,36.586-1.617,36.586-3.047ZM47.96-6a5.051,5.051,0,0,0-.979-.1,2.193,2.193,0,0,0-1.32.385,1.929,1.929,0,0,0-.605.671,3.2,3.2,0,0,0,.011-.33V-6h-.913a7.972,7.972,0,0,1,.077,1.243v3.443a10.037,10.037,0,0,1-.077,1.243h.99A8.606,8.606,0,0,1,45.067-1.3V-3.542a1.811,1.811,0,0,1,.407-1.1,1.623,1.623,0,0,1,1.353-.671,2.609,2.609,0,0,1,.891.165ZM53.9-.066h.891a7.033,7.033,0,0,1-.088-1.21V-4.367c0-1.188-.748-1.8-2.2-1.8a2.77,2.77,0,0,0-1.936.627,2.177,2.177,0,0,0-.616.979l.858.187a1.546,1.546,0,0,1,.341-.638,1.8,1.8,0,0,1,1.364-.473c.913,0,1.386.385,1.386,1.133v.638a8.981,8.981,0,0,0-2.53.286,1.856,1.856,0,0,0-1.573,1.8c0,1.045.737,1.672,1.947,1.672a3.247,3.247,0,0,0,1.144-.22A2.867,2.867,0,0,0,53.9-.847Zm0-2.288a1.2,1.2,0,0,1-.341.946,2.487,2.487,0,0,1-1.76.781c-.715,0-1.166-.385-1.166-.99a1.168,1.168,0,0,1,.836-1.133A6.794,6.794,0,0,1,53.9-3.069Zm4.477,4.6A8.357,8.357,0,0,1,58.3,1V-.363a6.14,6.14,0,0,0-.044-.77A2.621,2.621,0,0,0,60.522.033c1.65,0,2.706-1.2,2.706-3.069,0-1.914-1.034-3.069-2.728-3.069a2.515,2.515,0,0,0-2.244,1.188,3.621,3.621,0,0,0,.033-.451V-6h-.88a8.671,8.671,0,0,1,.077,1.265V1.012a9.037,9.037,0,0,1-.077,1.232ZM60.445-.682a2.168,2.168,0,0,1-1.507-.583,2.485,2.485,0,0,1-.627-1.76A2.133,2.133,0,0,1,60.434-5.39c1.232,0,1.936.858,1.936,2.354C62.37-1.573,61.644-.682,60.445-.682Zm6.16.616a8.871,8.871,0,0,1-.077-1.243V-3.421a2.553,2.553,0,0,1,.55-1.155,1.9,1.9,0,0,1,1.551-.8c.858,0,1.331.517,1.331,1.474v2.6a7.7,7.7,0,0,1-.077,1.243h.99A8.3,8.3,0,0,1,70.8-1.3V-4.059a1.883,1.883,0,0,0-2.057-2.046,2.361,2.361,0,0,0-1.65.594,2.5,2.5,0,0,0-.605.748,3.757,3.757,0,0,0,.033-.55V-7.172a6.835,6.835,0,0,1,.088-1.254h-.979A8.066,8.066,0,0,1,65.7-7.183v5.874a7.972,7.972,0,0,1-.077,1.243ZM75.46-.242,74.954.968a.852.852,0,0,1-.814.605,1.446,1.446,0,0,1-.671-.187l-.231.814a4.237,4.237,0,0,0,.9.121A1.5,1.5,0,0,0,75.691,1.3l2.464-6.006c.286-.693.473-1.122.539-1.287H77.671a5.2,5.2,0,0,1-.363,1.166l-1.419,3.7-1.6-3.7A6.093,6.093,0,0,1,73.92-6H72.842c.11.2.11.2.6,1.287Z" transform="translate(640 2138)" fill="#ff0098"/>
    <path id="パス_890" data-name="パス 890" d="M-59.184-.552c.288.96.5,1.728.72,2.52C-55.584,1.512-50.592.6-47.376-.048l-.12-2.16c-1.728.288-4.008.624-6.216.936v-5.9H-50.5c2.136,5.088,6,7.848,11.232,9.168.528-.72,1.032-1.44,1.632-2.28a16.234,16.234,0,0,1-6-2.208,53.95,53.95,0,0,0,4.8-2.928L-40.8-7.176a37.09,37.09,0,0,1-4.728,3.168,11.173,11.173,0,0,1-2.208-3.168h9.96V-9.384h-15.84v-1.44h12.048V-12.7H-53.616v-1.416h12.048v-1.872H-53.616v-1.392h13.2v-2.208H-56.3v10.2H-59.88v2.208h3.5V-.912C-57.456-.768-58.416-.624-59.184-.552ZM-27.048-2.5V-14.9h-2.688V1.824h2.688V.1H-13.1V1.824h2.736V-14.9H-13.1V-2.5h-5.76V-20.064H-21.6V-2.5ZM8.9-10.776v2.784H31.176v-2.784Zm36.168-3.84v1.92H52.2v-1.92H49.8v-1.728h2.9v-1.944H49.8v-1.968H47.4v1.968H44.5v1.944h2.9v1.728Zm-2.328,2.232v-.72H44.52v-2.28H42.744v-4.872H40.3v4.872H37.7v2.28h2.544a29.482,29.482,0,0,1-2.976,8.088L38.544-2.4A30.584,30.584,0,0,0,40.3-6.84V2.016h2.448V-9.312c.384.936.744,1.824.96,2.544l1.1-2.256C44.352-9.864,43.512-11.208,42.744-12.384Zm2.16.84v5.376H52.32v-5.376Zm2.112,1.752h3.12V-7.92h-3.12Zm5.52-.264a35.651,35.651,0,0,1,1.32,5.472c.744-.24,1.344-.432,1.968-.624v4.2c0,.384-.12.576-.552.624A15.257,15.257,0,0,1,53.5-.408l.456,2.4a15.531,15.531,0,0,0,2.664-.048C57.936,1.7,58.344.888,58.344-.6V-12.624h1.632V-14.9H58.344v-5.352h-2.52V-14.9h-3.1v2.28h3.1v6.672a40.315,40.315,0,0,0-1.392-4.68ZM45.024-5.4a15.539,15.539,0,0,1,.744,3.792l2.016-.456a16.749,16.749,0,0,0-.792-3.792Zm-.768,4.32.576,2.3C46.992.888,50.664.192,53.088-.288l-.12-1.968c-.6.072-1.3.192-2.016.288.456-1.2.864-2.424,1.176-3.408L49.872-5.9a37.981,37.981,0,0,1-1.128,4.248C47.04-1.44,45.36-1.224,44.256-1.08Z" transform="translate(640 2107)" fill="#ff0098"/>
  </g>
</svg>
