<svg xmlns="http://www.w3.org/2000/svg" width="161.755" height="52.919" viewBox="0 0 161.755 52.919">
  <g id="グループ_332" data-name="グループ 332" transform="translate(-559.48 -1264.72)">
    <path id="パス_883" data-name="パス 883" d="M-76.978-1.221a5.681,5.681,0,0,1,.407,1.155h.781a6.231,6.231,0,0,1,.418-1.144l2.244-4.939a7.244,7.244,0,0,0,.473-1.342c-.044.451-.077,1.045-.077,1.353v4.774a7.357,7.357,0,0,1-.088,1.3h1a6.972,6.972,0,0,1-.088-1.3V-7.117a7.492,7.492,0,0,1,.088-1.309h-1.265a5.58,5.58,0,0,1-.374,1.089l-2.706,6.061-2.717-6.061a5.268,5.268,0,0,1-.363-1.089H-80.52a7.572,7.572,0,0,1,.088,1.309v5.753a7.278,7.278,0,0,1-.088,1.3h1a6.971,6.971,0,0,1-.088-1.3V-6.072c0-.264-.044-.946-.077-1.419a10.141,10.141,0,0,0,.5,1.364Zm12.21,1.155h.913a7.431,7.431,0,0,1-.088-1.243V-4.752A8.259,8.259,0,0,1-63.866-6h-.979a8.558,8.558,0,0,1,.077,1.243v2.123a2.569,2.569,0,0,1-.506,1.1,1.892,1.892,0,0,1-1.584.869c-.858,0-1.331-.55-1.331-1.529V-4.752A8.457,8.457,0,0,1-68.112-6h-.99a7.915,7.915,0,0,1,.077,1.232v2.717A2.4,2.4,0,0,0-68.717-.77a2,2,0,0,0,1.76.814,2.4,2.4,0,0,0,2.222-1.309,3.38,3.38,0,0,0-.033.484Zm3.256-1.606A2.173,2.173,0,0,0-61.16-.8a2.581,2.581,0,0,0,2.178.858c1.507,0,2.442-.682,2.442-1.782a1.452,1.452,0,0,0-.528-1.144A4.154,4.154,0,0,0-58.817-3.5a4.1,4.1,0,0,1-1.221-.374.676.676,0,0,1-.374-.605c0-.583.572-.99,1.375-.99a1.5,1.5,0,0,1,1.144.418,1,1,0,0,1,.275.583l.869-.143a1.775,1.775,0,0,0-.583-1,2.534,2.534,0,0,0-1.727-.528,2.41,2.41,0,0,0-1.716.572A1.471,1.471,0,0,0-61.248-4.5a1.352,1.352,0,0,0,.594,1.155,4.193,4.193,0,0,0,1.628.572,3.537,3.537,0,0,1,1.3.4.743.743,0,0,1,.341.682c0,.649-.6,1.056-1.562,1.056a1.862,1.862,0,0,1-1.276-.385,1.234,1.234,0,0,1-.385-.8ZM-54.2-8.426v.979h1.067v-.979ZM-54.164-6a8.066,8.066,0,0,1,.077,1.243v3.443a9.545,9.545,0,0,1-.077,1.243h.99a8.661,8.661,0,0,1-.077-1.243V-4.752A7.879,7.879,0,0,1-53.174-6Zm8.712,1.562a2.972,2.972,0,0,0-.385-.7A2.493,2.493,0,0,0-47.96-6.149c-1.683,0-2.783,1.243-2.783,3.146A2.773,2.773,0,0,0-47.9.077a2.533,2.533,0,0,0,2.079-.924,3.016,3.016,0,0,0,.451-.847l-.825-.22a1.787,1.787,0,0,1-.242.561,1.626,1.626,0,0,1-1.43.7c-1.232,0-2.024-.924-2.024-2.376,0-1.474.77-2.42,1.98-2.42A1.661,1.661,0,0,1-46.255-4.18Zm8.305,4.367a6.708,6.708,0,0,1-.088-1.243V-3.476h2.453a2.4,2.4,0,0,0,2.706-2.552c0-1.529-.957-2.4-2.651-2.4h-2.244c-.506,0-.814-.011-1.21-.033A8.107,8.107,0,0,1-38.093-7.2V-1.3a6.81,6.81,0,0,1-.088,1.232Zm-.088-4.169V-7.667h2.453c1.188,0,1.826.583,1.826,1.683a1.621,1.621,0,0,1-1.826,1.749ZM-26.059-6a5.051,5.051,0,0,0-.979-.1,2.193,2.193,0,0,0-1.32.385,1.929,1.929,0,0,0-.6.671,3.2,3.2,0,0,0,.011-.33V-6h-.913a7.972,7.972,0,0,1,.077,1.243v3.443a10.037,10.037,0,0,1-.077,1.243h.99A8.606,8.606,0,0,1-28.952-1.3V-3.542a1.811,1.811,0,0,1,.407-1.1,1.623,1.623,0,0,1,1.353-.671,2.609,2.609,0,0,1,.891.165Zm4.7,6.072a2.834,2.834,0,0,0,2.915-3.113,2.816,2.816,0,0,0-2.926-3.1A2.827,2.827,0,0,0-24.31-3.025,2.821,2.821,0,0,0-21.362.077Zm.011-5.522c1.265,0,2.057.924,2.057,2.409s-.792,2.4-2.079,2.4-2.09-.913-2.09-2.409S-22.66-5.445-21.351-5.445Zm9.944,5.379h.88A8.571,8.571,0,0,1-10.6-1.331V-7.183a8.979,8.979,0,0,1,.077-1.243h-.968a8.614,8.614,0,0,1,.077,1.254V-5.7a3.329,3.329,0,0,0,.033.583l.011.165a2.525,2.525,0,0,0-2.255-1.166c-1.65,0-2.706,1.2-2.706,3.08,0,1.914,1.034,3.08,2.728,3.08a2.453,2.453,0,0,0,2.233-1.188,4.867,4.867,0,0,0-.033.539ZM-13.541-5.4a2.122,2.122,0,0,1,1.5.583,2.433,2.433,0,0,1,.616,1.749A2.116,2.116,0,0,1-13.541-.682a1.818,1.818,0,0,1-1.474-.66,2.876,2.876,0,0,1-.451-1.716C-15.466-4.521-14.74-5.4-13.541-5.4ZM-3.531-.066h.913a7.43,7.43,0,0,1-.088-1.243V-4.752A8.259,8.259,0,0,1-2.629-6h-.979a8.558,8.558,0,0,1,.077,1.243v2.123a2.569,2.569,0,0,1-.506,1.1A1.892,1.892,0,0,1-5.621-.66c-.858,0-1.331-.55-1.331-1.529V-4.752A8.457,8.457,0,0,1-6.875-6h-.99a7.915,7.915,0,0,1,.077,1.232v2.717A2.4,2.4,0,0,0-7.48-.77,2,2,0,0,0-5.72.044,2.4,2.4,0,0,0-3.5-1.265a3.379,3.379,0,0,0-.033.484ZM5.06-4.433a2.972,2.972,0,0,0-.385-.7A2.493,2.493,0,0,0,2.552-6.149C.869-6.149-.231-4.906-.231-3A2.773,2.773,0,0,0,2.607.077,2.533,2.533,0,0,0,4.686-.847a3.016,3.016,0,0,0,.451-.847l-.825-.22a1.787,1.787,0,0,1-.242.561,1.626,1.626,0,0,1-1.43.7C1.408-.649.616-1.573.616-3.025c0-1.474.77-2.42,1.98-2.42A1.661,1.661,0,0,1,4.257-4.18ZM12.694-2.9c-.022-.3-.066-.726-.077-.847A2.6,2.6,0,0,0,9.955-6.138c-1.65,0-2.728,1.232-2.728,3.113,0,1.9,1.089,3.113,2.816,3.113a2.747,2.747,0,0,0,1.991-.77,2.63,2.63,0,0,0,.6-.913l-.77-.308A1.8,1.8,0,0,1,10.054-.616,1.84,1.84,0,0,1,8.5-1.364a2.492,2.492,0,0,1-.44-1.54ZM8.1-3.6a2.3,2.3,0,0,1,.275-.891,1.722,1.722,0,0,1,1.562-.957,1.784,1.784,0,0,1,1.3.5A2.008,2.008,0,0,1,11.814-3.6ZM18.876-6a5.051,5.051,0,0,0-.979-.1,2.193,2.193,0,0,0-1.32.385,1.929,1.929,0,0,0-.605.671,3.2,3.2,0,0,0,.011-.33V-6H15.07a7.972,7.972,0,0,1,.077,1.243v3.443A10.037,10.037,0,0,1,15.07-.066h.99A8.606,8.606,0,0,1,15.983-1.3V-3.542a1.811,1.811,0,0,1,.407-1.1,1.623,1.623,0,0,1,1.353-.671,2.609,2.609,0,0,1,.891.165ZM29.062-8.426,25.091,1.639h.825l3.96-10.065ZM40.48-.066c1.683,0,2.651-.836,2.651-2.31a2.069,2.069,0,0,0-.682-1.65,2.037,2.037,0,0,0-1.067-.462,2.2,2.2,0,0,0,.869-.44A1.859,1.859,0,0,0,42.845-6.4c0-1.3-.891-2.024-2.486-2.024H38.016c-.638,0-.858,0-1.2-.022a6.365,6.365,0,0,1,.088,1.166V-1.4a6.783,6.783,0,0,1-.1,1.364c.385-.022.726-.033,1.21-.033ZM37.752-4.84V-7.678h2.585c1.089,0,1.639.462,1.639,1.375s-.6,1.463-1.628,1.463Zm0,.748h2.629c1.221,0,1.859.561,1.859,1.65,0,1.056-.638,1.628-1.837,1.628H37.752ZM49.588-.066h.891a7.033,7.033,0,0,1-.088-1.21V-4.367c0-1.188-.748-1.8-2.2-1.8a2.77,2.77,0,0,0-1.936.627,2.177,2.177,0,0,0-.616.979l.858.187a1.546,1.546,0,0,1,.341-.638A1.8,1.8,0,0,1,48.2-5.489c.913,0,1.386.385,1.386,1.133v.638a8.981,8.981,0,0,0-2.53.286,1.856,1.856,0,0,0-1.573,1.8c0,1.045.737,1.672,1.947,1.672a3.247,3.247,0,0,0,1.144-.22,2.867,2.867,0,0,0,1.012-.671Zm0-2.288a1.2,1.2,0,0,1-.341.946,2.487,2.487,0,0,1-1.76.781c-.715,0-1.166-.385-1.166-.99a1.168,1.168,0,0,1,.836-1.133,6.794,6.794,0,0,1,2.431-.319Zm3.19.682A2.173,2.173,0,0,0,53.13-.8a2.581,2.581,0,0,0,2.178.858c1.507,0,2.442-.682,2.442-1.782a1.452,1.452,0,0,0-.528-1.144A4.154,4.154,0,0,0,55.473-3.5a4.1,4.1,0,0,1-1.221-.374.676.676,0,0,1-.374-.605c0-.583.572-.99,1.375-.99a1.5,1.5,0,0,1,1.144.418,1,1,0,0,1,.275.583l.869-.143a1.775,1.775,0,0,0-.583-1,2.534,2.534,0,0,0-1.727-.528,2.41,2.41,0,0,0-1.716.572A1.471,1.471,0,0,0,53.042-4.5a1.352,1.352,0,0,0,.594,1.155,4.193,4.193,0,0,0,1.628.572,3.537,3.537,0,0,1,1.3.4.743.743,0,0,1,.341.682c0,.649-.6,1.056-1.562,1.056a1.862,1.862,0,0,1-1.276-.385,1.234,1.234,0,0,1-.385-.8Zm7.007,0a2.173,2.173,0,0,0,.352.869,2.581,2.581,0,0,0,2.178.858c1.507,0,2.442-.682,2.442-1.782a1.452,1.452,0,0,0-.528-1.144A4.154,4.154,0,0,0,62.48-3.5a4.1,4.1,0,0,1-1.221-.374.676.676,0,0,1-.374-.605c0-.583.572-.99,1.375-.99a1.5,1.5,0,0,1,1.144.418,1,1,0,0,1,.275.583l.869-.143a1.775,1.775,0,0,0-.583-1,2.534,2.534,0,0,0-1.727-.528,2.41,2.41,0,0,0-1.716.572A1.471,1.471,0,0,0,60.049-4.5a1.352,1.352,0,0,0,.594,1.155,4.193,4.193,0,0,0,1.628.572,3.537,3.537,0,0,1,1.3.4.743.743,0,0,1,.341.682c0,.649-.6,1.056-1.562,1.056a1.862,1.862,0,0,1-1.276-.385,1.234,1.234,0,0,1-.385-.8ZM67.1-8.426v.979h1.067v-.979ZM67.133-6a8.066,8.066,0,0,1,.077,1.243v3.443a9.545,9.545,0,0,1-.077,1.243h.99a8.661,8.661,0,0,1-.077-1.243V-4.752A7.879,7.879,0,0,1,68.123-6ZM70.51-1.672a2.173,2.173,0,0,0,.352.869A2.581,2.581,0,0,0,73.04.055c1.507,0,2.442-.682,2.442-1.782a1.452,1.452,0,0,0-.528-1.144A4.154,4.154,0,0,0,73.2-3.5a4.1,4.1,0,0,1-1.221-.374.676.676,0,0,1-.374-.605c0-.583.572-.99,1.375-.99a1.5,1.5,0,0,1,1.144.418,1,1,0,0,1,.275.583l.869-.143a1.775,1.775,0,0,0-.583-1,2.534,2.534,0,0,0-1.727-.528,2.41,2.41,0,0,0-1.716.572A1.471,1.471,0,0,0,70.774-4.5a1.352,1.352,0,0,0,.594,1.155A4.193,4.193,0,0,0,73-2.772a3.537,3.537,0,0,1,1.3.4.743.743,0,0,1,.341.682c0,.649-.6,1.056-1.562,1.056A1.862,1.862,0,0,1,71.8-1.023a1.234,1.234,0,0,1-.385-.8Zm8.019-5.962a8.346,8.346,0,0,1,.077,1.221V-6h-.44a4.987,4.987,0,0,1-.99-.066v.836a7.36,7.36,0,0,1,.99-.066h.44v3.938A1.4,1.4,0,0,0,78.914-.3a1.506,1.506,0,0,0,1.078.341,2.96,2.96,0,0,0,1.243-.253l-.242-.77a1.524,1.524,0,0,1-.869.286.745.745,0,0,1-.539-.187c-.1-.1-.143-.264-.143-.583V-5.291h.528a6.606,6.606,0,0,1,1.122.066v-.836A6.761,6.761,0,0,1,79.97-6h-.528v-.418a7.953,7.953,0,0,1,.077-1.221Z" transform="translate(640 1316)" fill="#ff0098"/>
    <path id="パス_882" data-name="パス 882" d="M-54.048-16.3c.384-.384.792-.792,1.152-1.2h4.776c-.384.408-.792.84-1.176,1.2Zm6.384,2.712V-14.76h4.632v1.176Zm-7.128-1.176H-50.3v1.176h-4.488Zm7.128,3.624v-1.2h4.632v1.2Zm-7.128-1.2H-50.3v1.2h-4.488ZM-40.224-1.608C-40.3-.48-40.416-.384-41.688-.36c-1.224.024-3.144.024-4.344,0-.984-.024-1.44-.216-1.584-1.248ZM-57.168-8.592h-1.1V-.264h2.592V-1.608h5.424c.192,2.568,1.176,3.192,4.008,3.24,1.32.024,3.336.024,4.776,0,2.952-.048,3.48-.408,3.792-2.808l-2.472-.432h.792V-8.592h-8.3V-9.6h7.224v-6.7h-5.784a20.79,20.79,0,0,0,1.9-2.04l-1.464-.864h-5.784c.192-.288.384-.576.552-.84l-2.616-.24a18.28,18.28,0,0,1-6.576,5.928l1.728,1.464c.408-.264.816-.5,1.2-.792V-9.6H-50.3v1.008h-6.864Zm6.864,4.1v1.3H-55.68v-1.3Zm8.328,0v1.3h-5.688v-1.3Zm-5.688-1.3V-7.032h5.688v1.248Zm-8.016,0V-7.032H-50.3v1.248Zm36.768-4.752v-5.28H-13.2v5.28Zm-8.064,0v-5.28h5.424v5.28ZM-13.2-.048V1.344h2.688V-18.264H-29.568V1.344h2.592V-.048ZM-18.912-2.52V-8.112H-13.2V-2.52Zm-8.064,0V-8.112h5.424V-2.52ZM27.216-19.152a10.338,10.338,0,0,1,1.9,2.808l1.872-.936A11.845,11.845,0,0,0,28.8-20.112ZM10.1-19.536v1.968h5.952v-1.968ZM8.9-16.272v2.088h8.208v-2.088ZM9.84-12.84V-10.9h6.432V-12.84Zm0,3.264v1.944h6.432V-9.576Zm2.04,8.448V-4.152h2.328v3.024ZM10.8-6.312H9.624v8.3H11.88v-.96h4.608l1.488.984C19.752-1.1,20.232-4.752,20.232-8.5v-.48h1.824c0,3.552-.048,5.28-.24,5.5a.553.553,0,0,1-.264.1,10.863,10.863,0,0,1-1.2-.048l.216,1.944c.48.024,1.3,0,1.68,0A1.937,1.937,0,0,0,23.4-1.8c.624-.48.672-3.456.72-9.264H20.232v-2.5h4.656a74.158,74.158,0,0,0,.936,9.96A19.818,19.818,0,0,1,22.08.888L23.9,2.016A20.028,20.028,0,0,0,26.5-.912c.576,1.7,1.344,2.688,2.3,2.856,1.512.264,2.256-.456,2.616-3.648L29.88-2.64c-.1,1.824-.264,2.112-.6,2.088-.48-.048-.888-1.032-1.224-2.76a25.045,25.045,0,0,0,2.712-7.872l-2.064-.48a25.582,25.582,0,0,1-1.152,4.488c-.168-1.848-.288-3.984-.336-6.384h3.96v-2.256H27.168c-.024-1.416,0-2.88.024-4.416H24.744c0,1.536.024,3,.072,4.416H17.9v7.3A19.269,19.269,0,0,1,16.512-.432v-5.88H10.8ZM38.664-18.24a17.673,17.673,0,0,1,4.2,2.76l1.7-1.968a20.715,20.715,0,0,0-4.512-2.664Zm-1.056,6.384A16.945,16.945,0,0,1,41.928-8.9l1.728-1.92A18.321,18.321,0,0,0,39-13.68Zm6.1,0,.576,2.472c3.264-.24,8.9-.744,12.744-1.128.288.576.528,1.128.744,1.68l2.4-1.224a28.865,28.865,0,0,0-4.92-7.368l-2.064,1.152a34.524,34.524,0,0,1,2.688,3.648c-2.256.168-4.968.36-7.416.5,1.368-2.592,2.616-5.3,3.48-7.44l-2.712-.7a68.077,68.077,0,0,1-3.48,8.3C44.976-11.928,44.28-11.88,43.7-11.856ZM37.968.336l2.208,1.632a63.443,63.443,0,0,0,4.176-7.9l-1.9-1.56A50.214,50.214,0,0,1,37.968.336ZM55.752,1.2v.816h2.664v-10.2H45.528v10.2H48.12V1.2ZM48.12-1.224V-5.76h7.632v4.536Z" transform="translate(640 1285)" fill="#ff0098"/>
  </g>
</svg>
