<svg xmlns="http://www.w3.org/2000/svg" width="148.872" height="51.344" viewBox="0 0 148.872 51.344">
  <g id="グループ_337" data-name="グループ 337" transform="translate(-565.408 -2086.744)">
    <path id="パス_893" data-name="パス 893" d="M-45.936-1.221a5.681,5.681,0,0,1,.407,1.155h.781A6.231,6.231,0,0,1-44.33-1.21l2.244-4.939a7.244,7.244,0,0,0,.473-1.342c-.044.451-.077,1.045-.077,1.353v4.774a7.358,7.358,0,0,1-.088,1.3h1a6.971,6.971,0,0,1-.088-1.3V-7.117a7.491,7.491,0,0,1,.088-1.309h-1.265a5.581,5.581,0,0,1-.374,1.089l-2.706,6.061-2.717-6.061A5.268,5.268,0,0,1-48.2-8.426h-1.276a7.572,7.572,0,0,1,.088,1.309v5.753a7.279,7.279,0,0,1-.088,1.3h1a6.971,6.971,0,0,1-.088-1.3V-6.072c0-.264-.044-.946-.077-1.419a10.141,10.141,0,0,0,.5,1.364Zm10.56,1.3a2.834,2.834,0,0,0,2.915-3.113,2.816,2.816,0,0,0-2.926-3.1,2.827,2.827,0,0,0-2.937,3.113A2.821,2.821,0,0,0-35.376.077Zm.011-5.522c1.265,0,2.057.924,2.057,2.409s-.792,2.4-2.079,2.4-2.09-.913-2.09-2.409S-36.674-5.445-35.365-5.445ZM-30.734-6c.231.484.341.726.55,1.21l1.529,3.707a6.611,6.611,0,0,1,.363,1.012h.869a5.3,5.3,0,0,1,.352-1.012l1.54-3.707A12.527,12.527,0,0,1-24.992-6h-1.034a5.071,5.071,0,0,1-.33,1.078L-27.61-1.672c-.1.242-.165.429-.253.7-.066-.22-.187-.572-.242-.715l-1.254-3.234A5.835,5.835,0,0,1-29.7-6ZM-23-8.426v.979h1.067v-.979ZM-22.968-6a8.066,8.066,0,0,1,.077,1.243v3.443a9.545,9.545,0,0,1-.077,1.243h.99a8.661,8.661,0,0,1-.077-1.243V-4.752A7.88,7.88,0,0,1-21.978-6ZM-14.08-2.9c-.022-.3-.066-.726-.077-.847a2.6,2.6,0,0,0-2.662-2.387c-1.65,0-2.728,1.232-2.728,3.113,0,1.9,1.089,3.113,2.816,3.113a2.747,2.747,0,0,0,1.991-.77,2.63,2.63,0,0,0,.6-.913l-.77-.308A1.8,1.8,0,0,1-16.72-.616a1.84,1.84,0,0,1-1.551-.748,2.492,2.492,0,0,1-.44-1.54Zm-4.6-.693a2.3,2.3,0,0,1,.275-.891,1.722,1.722,0,0,1,1.562-.957,1.784,1.784,0,0,1,1.3.5A2.008,2.008,0,0,1-14.96-3.6ZM-5.841-.066a6.708,6.708,0,0,1-.088-1.243V-3.476h2.453A2.4,2.4,0,0,0-.77-6.028c0-1.529-.957-2.4-2.651-2.4H-5.665c-.506,0-.814-.011-1.21-.033A8.107,8.107,0,0,1-6.787-7.2V-1.3A6.81,6.81,0,0,1-6.875-.066Zm-.088-4.169V-7.667h2.453c1.188,0,1.826.583,1.826,1.683A1.621,1.621,0,0,1-3.476-4.235ZM5.247-6a5.051,5.051,0,0,0-.979-.1,2.193,2.193,0,0,0-1.32.385,1.929,1.929,0,0,0-.605.671,3.2,3.2,0,0,0,.011-.33V-6H1.441a7.972,7.972,0,0,1,.077,1.243v3.443A10.037,10.037,0,0,1,1.441-.066h.99A8.606,8.606,0,0,1,2.354-1.3V-3.542a1.811,1.811,0,0,1,.407-1.1,1.623,1.623,0,0,1,1.353-.671,2.609,2.609,0,0,1,.891.165ZM9.944.077a2.834,2.834,0,0,0,2.915-3.113,2.816,2.816,0,0,0-2.926-3.1A2.827,2.827,0,0,0,7-3.025,2.821,2.821,0,0,0,9.944.077Zm.011-5.522c1.265,0,2.057.924,2.057,2.409s-.792,2.4-2.079,2.4-2.09-.913-2.09-2.409S8.646-5.445,9.955-5.445ZM19.9-.066h.88A8.571,8.571,0,0,1,20.7-1.331V-7.183a8.979,8.979,0,0,1,.077-1.243h-.968a8.614,8.614,0,0,1,.077,1.254V-5.7a3.329,3.329,0,0,0,.033.583l.011.165a2.525,2.525,0,0,0-2.255-1.166c-1.65,0-2.706,1.2-2.706,3.08,0,1.914,1.034,3.08,2.728,3.08a2.453,2.453,0,0,0,2.233-1.188,4.867,4.867,0,0,0-.033.539ZM17.765-5.4a2.122,2.122,0,0,1,1.5.583,2.433,2.433,0,0,1,.616,1.749A2.116,2.116,0,0,1,17.765-.682a1.818,1.818,0,0,1-1.474-.66,2.876,2.876,0,0,1-.451-1.716C15.84-4.521,16.566-5.4,17.765-5.4ZM27.775-.066h.913A7.43,7.43,0,0,1,28.6-1.309V-4.752A8.259,8.259,0,0,1,28.677-6H27.7a8.558,8.558,0,0,1,.077,1.243v2.123a2.569,2.569,0,0,1-.506,1.1,1.892,1.892,0,0,1-1.584.869c-.858,0-1.331-.55-1.331-1.529V-4.752A8.457,8.457,0,0,1,24.431-6h-.99a7.915,7.915,0,0,1,.077,1.232v2.717A2.4,2.4,0,0,0,23.826-.77a2,2,0,0,0,1.76.814,2.4,2.4,0,0,0,2.222-1.309,3.379,3.379,0,0,0-.033.484Zm8.591-4.367a2.972,2.972,0,0,0-.385-.7,2.493,2.493,0,0,0-2.123-1.012c-1.683,0-2.783,1.243-2.783,3.146A2.773,2.773,0,0,0,33.913.077a2.533,2.533,0,0,0,2.079-.924,3.016,3.016,0,0,0,.451-.847l-.825-.22a1.787,1.787,0,0,1-.242.561,1.626,1.626,0,0,1-1.43.7c-1.232,0-2.024-.924-2.024-2.376,0-1.474.77-2.42,1.98-2.42A1.661,1.661,0,0,1,35.563-4.18ZM44-2.9c-.022-.3-.066-.726-.077-.847a2.6,2.6,0,0,0-2.662-2.387c-1.65,0-2.728,1.232-2.728,3.113,0,1.9,1.089,3.113,2.816,3.113a2.747,2.747,0,0,0,1.991-.77,2.63,2.63,0,0,0,.6-.913l-.77-.308A1.8,1.8,0,0,1,41.36-.616a1.84,1.84,0,0,1-1.551-.748,2.492,2.492,0,0,1-.44-1.54ZM39.4-3.6a2.3,2.3,0,0,1,.275-.891,1.722,1.722,0,0,1,1.562-.957,1.784,1.784,0,0,1,1.3.5A2.008,2.008,0,0,1,43.12-3.6ZM50.182-6a5.051,5.051,0,0,0-.979-.1,2.193,2.193,0,0,0-1.32.385,1.929,1.929,0,0,0-.6.671,3.2,3.2,0,0,0,.011-.33V-6h-.913a7.972,7.972,0,0,1,.077,1.243v3.443a10.037,10.037,0,0,1-.077,1.243h.99A8.606,8.606,0,0,1,47.289-1.3V-3.542a1.811,1.811,0,0,1,.407-1.1,1.623,1.623,0,0,1,1.353-.671,2.609,2.609,0,0,1,.891.165Z" transform="translate(640 2138)" fill="#ff0098"/>
    <path id="パス_892" data-name="パス 892" d="M-60.768-12.7h8.4v-2.5h-9.576v-5.064h-2.712v5.064h-9.48v2.5h8.448a24.125,24.125,0,0,1-8.9,10.1l1.92,2.064A28.235,28.235,0,0,0-64.656-9.6V2.016h2.712V-9.936A28.777,28.777,0,0,0-53.9-.6l2.016-2.232A24.488,24.488,0,0,1-60.768-12.7Zm27.1-1.08V-16.44H-23.52v-2.448H-45.384v2.448h8.976V2.016h2.736v-12.84a45.267,45.267,0,0,1,7.512,5.64c1.9-2.112,1.944-2.16,1.992-2.184A60.014,60.014,0,0,0-33.672-13.776Zm47.064.528v1.392H11.448v-1.392Zm-1.944-1.776v-1.32h1.944v1.32ZM5.184-5.28v1.992H9.1v2.16h2.352v-2.16h5.184V-5.28H11.448V-6.7h4.344V-8.664H11.448v-1.368h4.08v-3.216h1.248v-1.776H15.528v-3.168h-4.08v-2.064H9.1v2.064H5.952v1.848H9.1v1.32H4.968v1.776H9.1v1.392H5.952v1.824H9.1v1.368H6V-6.7H9.1V-5.28ZM4.056-3.288A32.488,32.488,0,0,0,5.52-11.472l-1.488-.12H2.88c.792-2.04,1.7-4.44,2.352-6.336L3.984-18.1H.384c.168-.552.288-1.08.432-1.608l-2.424-.528A32.736,32.736,0,0,1-5.976-9.168l1.368,2.16c.5-.768,1.008-1.56,1.464-2.4V2.016H-.72V.408L.816,2.064A10.792,10.792,0,0,0,3.1-1.008C4.8.912,6.936,1.632,9.888,1.7c1.176.024,5.5,0,6.648-.024l.432-2.232c-1.152.072-5.616.072-6.7.048A7.232,7.232,0,0,1,4.056-3.288Zm-2.424-5.3L-.24-8.016a25.385,25.385,0,0,0,1.968,5.04A8.879,8.879,0,0,1-.72.408v-15.1c.36-.96.672-1.944.96-2.928v1.632H2.256C1.44-13.728.432-11.184-.24-9.6L1.9-9.144l.192-.408H3.264A30.067,30.067,0,0,1,2.64-5.784,23.457,23.457,0,0,1,1.632-8.592Zm34.584-3.72H45.5v-2.5H35.448c.216-1.9.312-3.744.36-5.4l-2.76-.048c-.024,1.68-.072,3.528-.288,5.448H23.352v2.5h9.024C31.416-7.56,29.04-2.808,23.112,0L25.2,1.992A18.159,18.159,0,0,0,34.344-9.36c1.9,5.472,5.064,9.216,9.528,11.352L45.816-.264C40.992-2.232,37.728-6.144,36.216-12.312ZM31.392-2.976A20.436,20.436,0,0,1,35.04,1.392L37.3-.216a24.068,24.068,0,0,0-3.96-4.272ZM71.328-19.368H64.7V2.016h2.64V-16.872h3.264c-.624,1.92-1.368,4.056-2.184,6.24,2.208,2.04,2.928,3.336,2.928,4.7,0,1.248-.24,2.04-1.248,2.16a8.785,8.785,0,0,1-1.92-.048l.48,2.568a13.328,13.328,0,0,0,3-.12c1.776-.36,2.376-2.3,2.376-4.3,0-1.7-.84-3.264-2.928-5.5,1.152-2.616,2.208-5.232,3.168-7.68l-1.416-.528H71.328ZM60.624-12v1.728H55.776V-12Zm-4.848-1.944V-15.6h4.848v1.656ZM51.84-1.848,52.584.72c2.136-.6,5.688-1.68,8.3-2.52a16.845,16.845,0,0,1,.5,2.04L63.96-.768a24.223,24.223,0,0,0-3.024-6.84L58.7-6.7A28.316,28.316,0,0,1,60.12-3.864c-1.344.36-2.88.744-4.344,1.1v-5.4h7.392v-9.528h-3.7v-2.568H56.88v2.568H53.232V-2.16C52.728-2.04,52.248-1.92,51.84-1.848Z" transform="translate(640 2107)" fill="#ff0098"/>
  </g>
</svg>
