<svg xmlns="http://www.w3.org/2000/svg" width="144.84" height="52.835" viewBox="0 0 144.84 52.835">
  <g id="グループ_338" data-name="グループ 338" transform="translate(-567.256 -2087.464)">
    <path id="パス_895" data-name="パス 895" d="M-29.9-8.426a6.889,6.889,0,0,1,.088,1.232v5.819A7.026,7.026,0,0,1-29.9-.066h1.023a7.026,7.026,0,0,1-.088-1.309v-4.7c0-.286-.022-.825-.066-1.342.154.3.517.924.6,1.056l3.531,5.3a7.441,7.441,0,0,1,.572.99h1.2A6.29,6.29,0,0,1-23.21-1.3V-7.161a6.887,6.887,0,0,1,.088-1.265h-1.023a6.964,6.964,0,0,1,.088,1.265V-2.5c0,.1.022.583.066,1.463-.264-.473-.594-1.012-.715-1.2l-3.476-5.2a5.737,5.737,0,0,1-.561-.99Zm13.442,8.36h.891a7.034,7.034,0,0,1-.088-1.21V-4.367c0-1.188-.748-1.8-2.2-1.8a2.77,2.77,0,0,0-1.936.627,2.177,2.177,0,0,0-.616.979l.858.187a1.546,1.546,0,0,1,.341-.638,1.8,1.8,0,0,1,1.364-.473c.913,0,1.386.385,1.386,1.133v.638a8.981,8.981,0,0,0-2.53.286,1.856,1.856,0,0,0-1.573,1.8c0,1.045.737,1.672,1.947,1.672a3.247,3.247,0,0,0,1.144-.22,2.867,2.867,0,0,0,1.012-.671Zm0-2.288a1.2,1.2,0,0,1-.341.946,2.487,2.487,0,0,1-1.76.781c-.715,0-1.166-.385-1.166-.99a1.168,1.168,0,0,1,.836-1.133,6.794,6.794,0,0,1,2.431-.319ZM-13.607-6c.231.484.341.726.55,1.21l1.529,3.707a6.61,6.61,0,0,1,.363,1.012h.869a5.3,5.3,0,0,1,.352-1.012L-8.4-4.785A12.527,12.527,0,0,1-7.865-6H-8.9a5.071,5.071,0,0,1-.33,1.078l-1.254,3.245c-.1.242-.165.429-.253.7-.066-.22-.187-.572-.242-.715l-1.254-3.234A5.835,5.835,0,0,1-12.573-6Zm7.733-2.431v.979h1.067v-.979ZM-5.841-6a8.066,8.066,0,0,1,.077,1.243v3.443A9.546,9.546,0,0,1-5.841-.066h.99a8.661,8.661,0,0,1-.077-1.243V-4.752A7.879,7.879,0,0,1-4.851-6ZM-2.167,1.2A3.012,3.012,0,0,0,.33,2.3a2.965,2.965,0,0,0,2.288-.836A3.327,3.327,0,0,0,3.256-.825V-4.763A8.4,8.4,0,0,1,3.333-6h-.88v.627c0,.143.011.231.022.418A2.274,2.274,0,0,0,.363-6.105c-1.705,0-2.783,1.188-2.783,3.058A2.668,2.668,0,0,0,.3-.055,2.554,2.554,0,0,0,2-.627a2,2,0,0,0,.473-.605A6.1,6.1,0,0,1,2.277.4,1.852,1.852,0,0,1,.363,1.606a2.1,2.1,0,0,1-1.474-.517A1.546,1.546,0,0,1-1.463.7Zm.6-4.246c0-1.463.748-2.365,1.969-2.365A2.022,2.022,0,0,1,2.431-3.135,2.129,2.129,0,0,1,.341-.748C-.836-.748-1.562-1.617-1.562-3.047ZM9.922-.066h.891a7.034,7.034,0,0,1-.088-1.21V-4.367c0-1.188-.748-1.8-2.2-1.8a2.77,2.77,0,0,0-1.936.627,2.177,2.177,0,0,0-.616.979l.858.187a1.546,1.546,0,0,1,.341-.638,1.8,1.8,0,0,1,1.364-.473c.913,0,1.386.385,1.386,1.133v.638a8.981,8.981,0,0,0-2.53.286,1.856,1.856,0,0,0-1.573,1.8c0,1.045.737,1.672,1.947,1.672A3.247,3.247,0,0,0,8.91-.176,2.867,2.867,0,0,0,9.922-.847Zm0-2.288a1.2,1.2,0,0,1-.341.946,2.487,2.487,0,0,1-1.76.781c-.715,0-1.166-.385-1.166-.99A1.168,1.168,0,0,1,7.491-2.75a6.794,6.794,0,0,1,2.431-.319Zm4.2-5.28A8.346,8.346,0,0,1,14.2-6.413V-6h-.44a4.987,4.987,0,0,1-.99-.066v.836a7.36,7.36,0,0,1,.99-.066h.44v3.938A1.4,1.4,0,0,0,14.509-.3a1.506,1.506,0,0,0,1.078.341A2.96,2.96,0,0,0,16.83-.209l-.242-.77a1.524,1.524,0,0,1-.869.286A.745.745,0,0,1,15.18-.88c-.1-.1-.143-.264-.143-.583V-5.291h.528a6.606,6.606,0,0,1,1.122.066v-.836A6.76,6.76,0,0,1,15.565-6h-.528v-.418a7.953,7.953,0,0,1,.077-1.221ZM21.516.077a2.834,2.834,0,0,0,2.915-3.113,2.816,2.816,0,0,0-2.926-3.1,2.827,2.827,0,0,0-2.937,3.113A2.821,2.821,0,0,0,21.516.077Zm.011-5.522c1.265,0,2.057.924,2.057,2.409s-.792,2.4-2.079,2.4-2.09-.913-2.09-2.409S20.218-5.445,21.527-5.445Zm9.1-.55a5.051,5.051,0,0,0-.979-.1,2.193,2.193,0,0,0-1.32.385,1.929,1.929,0,0,0-.6.671,3.2,3.2,0,0,0,.011-.33V-6h-.913A7.972,7.972,0,0,1,26.9-4.752v3.443a10.037,10.037,0,0,1-.077,1.243h.99A8.606,8.606,0,0,1,27.731-1.3V-3.542a1.811,1.811,0,0,1,.407-1.1,1.623,1.623,0,0,1,1.353-.671,2.609,2.609,0,0,1,.891.165Z" transform="translate(640 2138)" fill="#ff0098"/>
    <path id="パス_894" data-name="パス 894" d="M-62.064-13.848v-3.144h5.64v3.144Zm-8.112,0v-3.144H-64.8v3.144Zm13.752,7.824v1.152h2.64V-19.32h-18.96V-4.872h2.568V-6.024H-64.8V1.992h2.736V-6.024Zm-5.64-2.328v-3.264h5.64v3.264Zm-8.112,0v-3.264H-64.8v3.264Zm36.864-2.184v-5.28H-27.6v5.28Zm-8.064,0v-5.28h5.424v5.28ZM-27.6-.048V1.344h2.688V-18.264H-43.968V1.344h2.592V-.048ZM-33.312-2.52V-8.112H-27.6V-2.52Zm-8.064,0V-8.112h5.424V-2.52ZM4.7-4.056v.1c0,2.208-.6,2.928-2.712,2.928C.1-1.032-.864-1.7-.864-2.664c0-1.032,1.032-1.728,3-1.728A10.945,10.945,0,0,1,4.7-4.056Zm-7.248-7.608V-9.24H4.584c.024,1.008.048,1.968.072,2.784A13.257,13.257,0,0,0,2.28-6.672c-3.624,0-5.64,1.728-5.64,4.032C-3.36-.552-1.344,1.3,2.184,1.3,5.856,1.3,7.248-.1,7.44-3.072A19.81,19.81,0,0,1,12.552.336l1.8-2.136A26.493,26.493,0,0,0,7.416-5.688c-.024-.984-.048-2.208-.1-3.552h6.528v-2.424H7.272L7.2-14.472h7.1V-16.9H7.2v-2.64H4.368c0,.744.024,1.656.024,2.64H-3.024v2.424H4.464c0,.936.024,1.872.048,2.808Zm32.736-5.208a17.565,17.565,0,0,1-6.456,1.152l.288,2.736a23.177,23.177,0,0,0,5.016-.888A14.821,14.821,0,0,0,26.064-5.76c0,4.368,2.64,6.936,7.032,6.936,5.28,0,8.016-3.192,8.016-8.664a22.1,22.1,0,0,0-.6-4.9,11.144,11.144,0,0,0,4.1,3.432L45.864-11.4a11.566,11.566,0,0,1-6.528-7.32l-2.592.744a33.287,33.287,0,0,1,1.8,9.576c0,4.752-1.992,6.912-5.352,6.912-2.808,0-4.512-1.536-4.512-4.44,0-3,1.776-7.056,5.16-10.488l-1.848-1.7A6.506,6.506,0,0,1,30.192-16.872ZM64.944-1.2a16.106,16.106,0,0,1-1.608.1c-2.136,0-3.12-.624-3.12-1.56,0-.864.864-1.464,2.208-1.464C63.936-4.128,64.752-3,64.944-1.2ZM55.7-17.976l.168,2.616c2.616-.1,6.744-.312,8.832-.48A124.911,124.911,0,0,1,53.232-6l1.8,2.088A24.87,24.87,0,0,1,61.56-8.5a11.337,11.337,0,0,1,3.672-.7,3.887,3.887,0,0,1,4.1,3.912A3.535,3.535,0,0,1,67.224-1.8c-.456-2.808-2.04-4.464-4.8-4.464-2.736,0-4.632,1.584-4.632,3.648,0,2.28,2.064,3.816,5.808,3.816,5.544,0,8.5-2.52,8.5-6.552a5.855,5.855,0,0,0-6.1-6.1,8.347,8.347,0,0,0-3.024.528c1.728-1.608,4.7-4.176,6.72-5.832l-1.344-1.92A126.429,126.429,0,0,1,55.7-17.976Z" transform="translate(640 2107)" fill="#ff0098"/>
  </g>
</svg>
