<svg xmlns="http://www.w3.org/2000/svg" width="151.063" height="52.151" viewBox="0 0 151.063 52.151">
  <g id="グループ_334" data-name="グループ 334" transform="translate(-564.656 -2086.696)">
    <path id="パス_887" data-name="パス 887" d="M-71.671-.066c1.683,0,2.651-.836,2.651-2.31a2.069,2.069,0,0,0-.682-1.65,2.037,2.037,0,0,0-1.067-.462,2.2,2.2,0,0,0,.869-.44A1.859,1.859,0,0,0-69.305-6.4c0-1.3-.891-2.024-2.486-2.024h-2.343c-.638,0-.858,0-1.2-.022a6.365,6.365,0,0,1,.088,1.166V-1.4a6.782,6.782,0,0,1-.1,1.364c.385-.022.726-.033,1.21-.033ZM-74.4-4.84V-7.678h2.585c1.089,0,1.639.462,1.639,1.375s-.6,1.463-1.628,1.463Zm0,.748h2.629c1.221,0,1.859.561,1.859,1.65,0,1.056-.638,1.628-1.837,1.628H-74.4Zm7.909-4.334v.979h1.067v-.979ZM-66.456-6a8.066,8.066,0,0,1,.077,1.243v3.443a9.545,9.545,0,0,1-.077,1.243h.99a8.661,8.661,0,0,1-.077-1.243V-4.752A7.879,7.879,0,0,1-65.466-6Zm3.7-2.431a7.915,7.915,0,0,1,.077,1.232v5.9A8.3,8.3,0,0,1-62.76-.066h.99A8.711,8.711,0,0,1-61.847-1.3V-7.183a7.972,7.972,0,0,1,.077-1.243Zm3.652,0a7.915,7.915,0,0,1,.077,1.232v5.9a8.3,8.3,0,0,1-.077,1.232h.99A8.711,8.711,0,0,1-58.2-1.3V-7.183a7.972,7.972,0,0,1,.077-1.243Zm4.532,8.36V-.682a3.769,3.769,0,0,0-.033-.44,1.988,1.988,0,0,0,.517.572,2.467,2.467,0,0,0,1.7.594c1.716,0,2.75-1.166,2.75-3.1,0-1.914-1.012-3.058-2.706-3.058a2.5,2.5,0,0,0-2.266,1.21,6.082,6.082,0,0,0,.044-.781V-7.172a8.414,8.414,0,0,1,.077-1.254h-.968a9.088,9.088,0,0,1,.077,1.243v5.852a8.671,8.671,0,0,1-.077,1.265Zm4.092-3c0,1.507-.726,2.4-1.958,2.4a2.152,2.152,0,0,1-2.123-2.387,2.136,2.136,0,0,1,2.156-2.354C-51.188-5.412-50.484-4.554-50.484-3.069ZM-44.577.077a2.834,2.834,0,0,0,2.915-3.113,2.816,2.816,0,0,0-2.926-3.1,2.827,2.827,0,0,0-2.937,3.113A2.821,2.821,0,0,0-44.577.077Zm.011-5.522c1.265,0,2.057.924,2.057,2.409s-.792,2.4-2.079,2.4-2.09-.913-2.09-2.409S-45.875-5.445-44.566-5.445ZM-35.36-.066h.891a7.033,7.033,0,0,1-.088-1.21V-4.367c0-1.188-.748-1.8-2.2-1.8a2.77,2.77,0,0,0-1.936.627,2.177,2.177,0,0,0-.616.979l.858.187a1.546,1.546,0,0,1,.341-.638,1.8,1.8,0,0,1,1.364-.473c.913,0,1.386.385,1.386,1.133v.638a8.981,8.981,0,0,0-2.53.286,1.856,1.856,0,0,0-1.573,1.8c0,1.045.737,1.672,1.947,1.672a3.247,3.247,0,0,0,1.144-.22A2.867,2.867,0,0,0-35.36-.847Zm0-2.288a1.2,1.2,0,0,1-.341.946,2.487,2.487,0,0,1-1.76.781c-.715,0-1.166-.385-1.166-.99a1.168,1.168,0,0,1,.836-1.133,6.794,6.794,0,0,1,2.431-.319ZM-28.044-6a5.051,5.051,0,0,0-.979-.1,2.193,2.193,0,0,0-1.32.385,1.929,1.929,0,0,0-.6.671,3.2,3.2,0,0,0,.011-.33V-6h-.913a7.972,7.972,0,0,1,.077,1.243v3.443A10.037,10.037,0,0,1-31.85-.066h.99A8.606,8.606,0,0,1-30.937-1.3V-3.542a1.811,1.811,0,0,1,.407-1.1,1.623,1.623,0,0,1,1.353-.671,2.609,2.609,0,0,1,.891.165Zm6.677,5.929h.88a8.571,8.571,0,0,1-.077-1.265V-7.183a8.979,8.979,0,0,1,.077-1.243h-.968a8.614,8.614,0,0,1,.077,1.254V-5.7a3.329,3.329,0,0,0,.033.583l.011.165a2.525,2.525,0,0,0-2.255-1.166c-1.65,0-2.706,1.2-2.706,3.08,0,1.914,1.034,3.08,2.728,3.08a2.453,2.453,0,0,0,2.233-1.188,4.867,4.867,0,0,0-.033.539ZM-23.5-5.4a2.122,2.122,0,0,1,1.5.583,2.433,2.433,0,0,1,.616,1.749A2.116,2.116,0,0,1-23.5-.682a1.818,1.818,0,0,1-1.474-.66,2.876,2.876,0,0,1-.451-1.716C-25.426-4.521-24.7-5.4-23.5-5.4Zm13.376-3.025a6.657,6.657,0,0,1,.088,1.232v4.906c0,1.1-.418,1.584-1.353,1.584a1.467,1.467,0,0,1-1.122-.429,1.96,1.96,0,0,1-.385-.66l-.869.363a2.794,2.794,0,0,0,.55.836A2.462,2.462,0,0,0-11.4.066,2.136,2.136,0,0,0-9.63-.627a2.578,2.578,0,0,0,.451-1.661V-7.194a6.657,6.657,0,0,1,.088-1.232ZM.951-.066A10.937,10.937,0,0,1,.368-1.331L-2.1-7.4A5.948,5.948,0,0,1-2.47-8.426H-3.581A6.263,6.263,0,0,1-3.933-7.4L-6.4-1.331A7.022,7.022,0,0,1-6.991-.066h1.144a6.15,6.15,0,0,1,.341-1.122l.572-1.419h3.839l.572,1.419A7.9,7.9,0,0,1-.182-.066Zm-2.31-3.3H-4.67L-3.262-7c.022-.044.055-.165.121-.341.022-.077.066-.2.121-.363.209.605.209.616.242.7Zm5.445,3.3A6.708,6.708,0,0,1,4-1.309V-3.476H6.452A2.4,2.4,0,0,0,9.158-6.028c0-1.529-.957-2.4-2.651-2.4H4.263c-.506,0-.814-.011-1.21-.033A8.107,8.107,0,0,1,3.141-7.2V-1.3A6.81,6.81,0,0,1,3.053-.066ZM4-4.235V-7.667H6.452c1.188,0,1.826.583,1.826,1.683A1.621,1.621,0,0,1,6.452-4.235ZM18.024-.066a10.937,10.937,0,0,1-.583-1.265L14.977-7.4A5.948,5.948,0,0,1,14.6-8.426H13.492A6.263,6.263,0,0,1,13.14-7.4L10.676-1.331a7.022,7.022,0,0,1-.594,1.265h1.144a6.15,6.15,0,0,1,.341-1.122l.572-1.419h3.839l.572,1.419a7.9,7.9,0,0,1,.341,1.122Zm-2.31-3.3H12.4L13.811-7c.022-.044.055-.165.121-.341.022-.077.066-.2.121-.363.209.605.209.616.242.7Zm4.433-5.06a6.889,6.889,0,0,1,.088,1.232v5.819a7.026,7.026,0,0,1-.088,1.309H21.17a7.026,7.026,0,0,1-.088-1.309v-4.7c0-.286-.022-.825-.066-1.342.154.3.517.924.6,1.056l3.531,5.3a7.441,7.441,0,0,1,.572.99h1.2A6.29,6.29,0,0,1,26.835-1.3V-7.161a6.887,6.887,0,0,1,.088-1.265H25.9a6.964,6.964,0,0,1,.088,1.265V-2.5c0,.1.022.583.066,1.463-.264-.473-.594-1.012-.715-1.2l-3.476-5.2a5.737,5.737,0,0,1-.561-.99ZM41.531-3.674a4.377,4.377,0,0,1,.748-.1c.077,0,.286-.022.583-.055.088-.011.088-.011.242-.022V-.418A7.079,7.079,0,0,1,43.038.847H43.8A6.93,6.93,0,0,1,43.73-.418V-3.9c.374-.044.374-.044.88-.121.055.209.077.319.154.649l.528-.2a12.481,12.481,0,0,0-.77-2.123l-.484.176a9.069,9.069,0,0,1,.407.99c-.429.055-1,.11-1.54.132.517-.693,1.3-1.881,1.727-2.618.187-.33.242-.418.33-.55l-.649-.341a9.939,9.939,0,0,1-1.067,2c-.2-.264-.33-.44-.6-.77a17.525,17.525,0,0,0,.99-1.716,2.575,2.575,0,0,1,.264-.451l-.682-.319a7.835,7.835,0,0,1-.968,2.035c-.121-.154-.187-.209-.374-.429l-.363.495a16.027,16.027,0,0,1,1.4,1.683c-.352.517-.352.517-.693,1.012-.231.011-.264.011-.341.011a3.184,3.184,0,0,1-.429-.022Zm6.2,1.947V-.5A9.5,9.5,0,0,1,47.691.594h.627A8.674,8.674,0,0,1,48.274-.5V-1.727h.869V-.5A9.5,9.5,0,0,1,49.1.594h.627A9.018,9.018,0,0,1,49.682-.5V-1.727h.935V-.176c0,.2-.055.242-.3.242A2,2,0,0,1,49.9.022a1.4,1.4,0,0,1,.121.616c.088.011.264.011.374.011.605,0,.8-.187.8-.77V-3.157a9.506,9.506,0,0,1,.044-1.133,8.222,8.222,0,0,1-1.078.055H47.481c-.638,0-.99-.011-1.21-.033a9.045,9.045,0,0,1,.044,1.078V-.275A10.129,10.129,0,0,1,46.271.814h.66a9.255,9.255,0,0,1-.044-1.089V-1.727Zm0-.55h-.847v-1.4h.847Zm.539,0v-1.4h.869v1.4Zm1.408,0v-1.4h.935v1.4Zm-7.7-.858a9.878,9.878,0,0,1-.55,3L42,.132a12.628,12.628,0,0,0,.572-3.157Zm2.145.077a12.068,12.068,0,0,1,.352,1.848l.528-.176a16.126,16.126,0,0,0-.363-1.793Zm1-4.939a5.473,5.473,0,0,1,.979-.055h4.235A6.264,6.264,0,0,1,51.387-8v-.726a7.02,7.02,0,0,1-1.078.066h-4.1a6.921,6.921,0,0,1-1.078-.066Zm4.917,2.9c.407,0,.77.011.957.033a8.111,8.111,0,0,1-.033-.847v-.572A7.5,7.5,0,0,1,51-7.3c-.242.022-.539.033-.99.033H46.547c-.473,0-.737-.011-1-.033a6.425,6.425,0,0,1,.033.924c0,3.41-.308,5.137-1.155,6.479a1.583,1.583,0,0,1,.528.473,8.867,8.867,0,0,0,1.067-3.487c.066-.539.154-1.661.165-2.178ZM46.206-6.7h4.125v1.045H46.194c.011-.165.011-.352.011-.605ZM59.065-4.8h2.343a5.691,5.691,0,0,1,.99.055V-5.4a5.186,5.186,0,0,1-.99.066H59.065V-6.16h2.343a5.848,5.848,0,0,1,.99.055v-.66a5.186,5.186,0,0,1-.99.066H59.065v-.825h2.893a5.654,5.654,0,0,1,.957.055v-.682A6.224,6.224,0,0,1,61.9-8.1H59.12a7.223,7.223,0,0,0,.671-1.056l-.715-.165a4.076,4.076,0,0,1-.66,1.221H56.04a11.875,11.875,0,0,0,.726-1.056l-.759-.187a3.542,3.542,0,0,1-.4.792,7.449,7.449,0,0,1-2.134,2.178,2.059,2.059,0,0,1,.44.539,7.185,7.185,0,0,0,1.221-1.133c-.033.341-.044.682-.044,1.078v1.848a6.4,6.4,0,0,1-.033.737,6.887,6.887,0,0,1,.759-.022h2.42v.8H54.951a7.5,7.5,0,0,1-1.21-.066v.726a9.646,9.646,0,0,1,1.21-.066h2.717a6.106,6.106,0,0,1-1.408.979,8.59,8.59,0,0,1-2.673.891,2.308,2.308,0,0,1,.44.66,11.161,11.161,0,0,0,2.1-.759,6.828,6.828,0,0,0,2.145-1.551,2.594,2.594,0,0,0-.011.319,1.02,1.02,0,0,0-.011.22c-.011.121-.011.22-.011.3V0a3.308,3.308,0,0,1-.066.814h.814a2.906,2.906,0,0,1-.066-.825V-.869a7.863,7.863,0,0,0-.033-.836A9.253,9.253,0,0,0,63.179.66,2.778,2.778,0,0,1,63.6-.022a9.136,9.136,0,0,1-4.136-1.9h2.772a10.023,10.023,0,0,1,1.232.066v-.726a6.658,6.658,0,0,1-1.232.066H58.922v-.8h3.025a6.157,6.157,0,0,1,1,.055v-.66a6.142,6.142,0,0,1-1.012.055H59.065Zm-.649,0v.924H55.765V-4.8Zm0-.539H55.765V-6.16h2.651Zm0-1.364H55.765v-.825h2.651Zm16.1,3.113a6.79,6.79,0,0,1,1.034.066v-.737a6.961,6.961,0,0,1-1.067.066H68.425V-5.1h4.741a7.267,7.267,0,0,1,1.067.066v-.726a5.872,5.872,0,0,1-1.067.066H68.425v-.869h4.741a7.59,7.59,0,0,1,1.067.066v-.715a7.789,7.789,0,0,1-1.067.055H68.425v-.847h5.082a8.6,8.6,0,0,1,1.166.055V-8.69a5.986,5.986,0,0,1-1.177.066H68.811a7.777,7.777,0,0,1-1.144-.055A8.673,8.673,0,0,1,67.71-7.59v3.4h-.858a6.981,6.981,0,0,1-1.089-.066v.737a7.7,7.7,0,0,1,1.089-.066h.858V-.363a9.363,9.363,0,0,1-1.738.319l.231.77c.209-.055.319-.088.473-.132a34.4,34.4,0,0,0,4.18-1.21l-.022-.671a19.237,19.237,0,0,1-2.409.748V-3.586h1.331a6.341,6.341,0,0,0,1.672,2.178,9.62,9.62,0,0,0,3.9,2,3.322,3.322,0,0,1,.385-.737,9.751,9.751,0,0,1-3.344-1.4,9.29,9.29,0,0,0,1.562-1.232,1.219,1.219,0,0,0,.121-.121,2.316,2.316,0,0,0,.2-.176l-.649-.4A7.12,7.12,0,0,1,71.89-1.9a4.8,4.8,0,0,1-1.419-1.683Z" transform="translate(640 2138)" fill="#ff0098"/>
    <path id="パス_886" data-name="パス 886" d="M-59.976-18.6v2.064H-37.7V-18.6H-47.5v-1.68h-2.736v1.68Zm4.512,3.144v5.04h13.2v-5.04Zm2.544,1.728h7.992v1.584H-52.92Zm11.136,4.392H-58.56V2.016h2.592V-7.32h14.184V-.672c0,.264-.12.408-.432.456-.264,0-1.224,0-1.872-.048l.432,2.256a17.617,17.617,0,0,0,3.048-.048c1.08-.192,1.44-.912,1.44-2.16v-9.12h-2.616ZM-51.6-2.592V-4.416h5.3v1.824Zm-.912-3.648h-1.416V.36H-51.6V-.768h7.7V-6.24h-8.616Zm39.624-7.68v1.2H-18.48v-1.2Zm-5.592-1.512v-1.152h5.592v1.152Zm4.392,11.4a9.849,9.849,0,0,1,1.1,2.544l1.056-.336c-.12,1.1-.264,1.68-.432,1.8a.545.545,0,0,1-.312.072,12.433,12.433,0,0,1-1.32-.024l.24,1.968c.48.024,1.392.024,1.752.024A2.814,2.814,0,0,0-10.584,1.7c.768-.48,1.056-3.144,1.272-8.544H-18.48V-7.992H-8.9V-9.816H-18.48v-1.128h8.016V-18.36h-4.68c.288-.528.552-1.08.768-1.56l-2.736-.384c-.144.528-.36,1.248-.624,1.944H-20.88V-4.9h9.144c-.048.888-.072,1.656-.144,2.3a10.62,10.62,0,0,0-1.008-1.92Zm-2.232.168A13.209,13.209,0,0,1-15.5-.12l1.56-.216a14.837,14.837,0,0,0-.984-3.84ZM-21-3.912A11.693,11.693,0,0,1-22.608.432l1.824.7A15.574,15.574,0,0,0-19.2-3.48Zm2.3.216a18.619,18.619,0,0,1,.288,4.32l1.68-.12a22.021,22.021,0,0,0-.48-4.392Zm-10.08-1.032V-16.9h-1.992V-.144h1.992V-2.592h4.656V-1.32H-22.1v-15.6H-24.12V-4.728h-1.344V-20.256H-27.48V-4.728Zm43.728-9.816V-2.88H28.416V-14.544h-7.68c.168-.528.312-1.08.456-1.608h9.984v-2.256H21.768c.12-.552.24-1.1.336-1.608l-2.9-.264q-.108.828-.288,1.872H8.9v2.256h9.552c-.1.528-.24,1.08-.36,1.608Zm2.616,1.9H25.7v1.56H17.568Zm0,3.144H25.7V-7.92H17.568Zm0,3.144H25.7v1.584H17.568ZM13.056-1.32v-12.7H10.392V1.992h2.664V.984H31.128v-2.3ZM37.7-10.368v2.424h9.84v6.6c0,.48-.168.72-.7.768A29.146,29.146,0,0,1,43.7-.624c.192.816.384,1.656.576,2.64a26.067,26.067,0,0,0,3.96-.048C49.776,1.752,50.28.84,50.28-.816V-7.944h9.7v-2.424h-9.7V-11.5a63.2,63.2,0,0,0,6.864-6.72l-1.776-1.056h-13.8V-16.9H52.344A42.4,42.4,0,0,1,48.6-13.152H47.544v2.784Z" transform="translate(640 2107)" fill="#ff0098"/>
  </g>
</svg>
