<svg xmlns="http://www.w3.org/2000/svg" width="355.188" height="50.591" viewBox="0 0 355.188 50.591">
  <g id="comment-member_02" transform="translate(-462.013 -1676.464)">
    <path id="パス_884" data-name="パス 884" d="M-18.183-.066c1.683,0,2.651-.836,2.651-2.31a2.069,2.069,0,0,0-.682-1.65,2.037,2.037,0,0,0-1.067-.462,2.2,2.2,0,0,0,.869-.44A1.859,1.859,0,0,0-15.818-6.4c0-1.3-.891-2.024-2.486-2.024h-2.343c-.638,0-.858,0-1.2-.022a6.365,6.365,0,0,1,.088,1.166V-1.4a6.783,6.783,0,0,1-.1,1.364c.385-.022.726-.033,1.21-.033ZM-20.911-4.84V-7.678h2.585c1.089,0,1.639.462,1.639,1.375s-.6,1.463-1.628,1.463Zm0,.748h2.629c1.221,0,1.859.561,1.859,1.65,0,1.056-.638,1.628-1.837,1.628h-2.651ZM-9.075-.066h.891a7.034,7.034,0,0,1-.088-1.21V-4.367c0-1.188-.748-1.8-2.2-1.8a2.77,2.77,0,0,0-1.936.627,2.177,2.177,0,0,0-.616.979l.858.187a1.546,1.546,0,0,1,.341-.638,1.8,1.8,0,0,1,1.364-.473c.913,0,1.386.385,1.386,1.133v.638a8.981,8.981,0,0,0-2.53.286,1.856,1.856,0,0,0-1.573,1.8c0,1.045.737,1.672,1.947,1.672a3.247,3.247,0,0,0,1.144-.22A2.867,2.867,0,0,0-9.075-.847Zm0-2.288a1.2,1.2,0,0,1-.341.946,2.487,2.487,0,0,1-1.76.781c-.715,0-1.166-.385-1.166-.99a1.168,1.168,0,0,1,.836-1.133,6.794,6.794,0,0,1,2.431-.319Zm3.19.682A2.173,2.173,0,0,0-5.533-.8,2.581,2.581,0,0,0-3.355.055c1.507,0,2.442-.682,2.442-1.782a1.452,1.452,0,0,0-.528-1.144A4.154,4.154,0,0,0-3.19-3.5a4.1,4.1,0,0,1-1.221-.374.676.676,0,0,1-.374-.605c0-.583.572-.99,1.375-.99a1.5,1.5,0,0,1,1.144.418,1,1,0,0,1,.275.583l.869-.143a1.775,1.775,0,0,0-.583-1,2.534,2.534,0,0,0-1.727-.528,2.41,2.41,0,0,0-1.716.572A1.471,1.471,0,0,0-5.621-4.5a1.352,1.352,0,0,0,.594,1.155A4.193,4.193,0,0,0-3.4-2.772a3.537,3.537,0,0,1,1.3.4.743.743,0,0,1,.341.682c0,.649-.605,1.056-1.562,1.056A1.862,1.862,0,0,1-4.6-1.023a1.234,1.234,0,0,1-.385-.8Zm7.007,0A2.173,2.173,0,0,0,1.474-.8,2.581,2.581,0,0,0,3.652.055c1.507,0,2.442-.682,2.442-1.782a1.452,1.452,0,0,0-.528-1.144A4.154,4.154,0,0,0,3.817-3.5,4.1,4.1,0,0,1,2.6-3.872a.676.676,0,0,1-.374-.605c0-.583.572-.99,1.375-.99a1.5,1.5,0,0,1,1.144.418,1,1,0,0,1,.275.583l.869-.143a1.775,1.775,0,0,0-.583-1,2.534,2.534,0,0,0-1.727-.528,2.41,2.41,0,0,0-1.716.572A1.471,1.471,0,0,0,1.386-4.5,1.352,1.352,0,0,0,1.98-3.344a4.193,4.193,0,0,0,1.628.572,3.537,3.537,0,0,1,1.3.4.743.743,0,0,1,.341.682c0,.649-.605,1.056-1.562,1.056a1.862,1.862,0,0,1-1.276-.385,1.234,1.234,0,0,1-.385-.8ZM8.437-8.426v.979H9.5v-.979ZM8.47-6a8.066,8.066,0,0,1,.077,1.243v3.443A9.545,9.545,0,0,1,8.47-.066h.99a8.661,8.661,0,0,1-.077-1.243V-4.752A7.879,7.879,0,0,1,9.46-6Zm3.377,4.323A2.173,2.173,0,0,0,12.2-.8a2.581,2.581,0,0,0,2.178.858c1.507,0,2.442-.682,2.442-1.782a1.452,1.452,0,0,0-.528-1.144A4.154,4.154,0,0,0,14.542-3.5a4.1,4.1,0,0,1-1.221-.374.676.676,0,0,1-.374-.605c0-.583.572-.99,1.375-.99a1.5,1.5,0,0,1,1.144.418,1,1,0,0,1,.275.583l.869-.143a1.776,1.776,0,0,0-.583-1A2.534,2.534,0,0,0,14.3-6.138a2.41,2.41,0,0,0-1.716.572A1.471,1.471,0,0,0,12.111-4.5,1.352,1.352,0,0,0,12.7-3.344a4.193,4.193,0,0,0,1.628.572,3.537,3.537,0,0,1,1.3.4.743.743,0,0,1,.341.682c0,.649-.6,1.056-1.562,1.056a1.862,1.862,0,0,1-1.276-.385,1.234,1.234,0,0,1-.385-.8Zm8.019-5.962a8.347,8.347,0,0,1,.077,1.221V-6H19.5a4.987,4.987,0,0,1-.99-.066v.836a7.36,7.36,0,0,1,.99-.066h.44v3.938A1.4,1.4,0,0,0,20.251-.3a1.506,1.506,0,0,0,1.078.341,2.96,2.96,0,0,0,1.243-.253l-.242-.77a1.524,1.524,0,0,1-.869.286.745.745,0,0,1-.539-.187c-.1-.1-.143-.264-.143-.583V-5.291h.528a6.606,6.606,0,0,1,1.122.066v-.836A6.76,6.76,0,0,1,21.307-6h-.528v-.418a7.952,7.952,0,0,1,.077-1.221Z" transform="translate(640 1727)" fill="#ff0098"/>
    <path id="パス_883" data-name="パス 883" d="M-162.771-17.136l-2.688,1.176A56.336,56.336,0,0,1-159.1-.24l2.976-.936A73.235,73.235,0,0,0-162.771-17.136Zm-9.216.624c-.816,5.448-2.952,11.4-6,15.36L-175.3.288c2.976-4.152,5.136-10.392,6.192-16.248Zm38.568,15.7c-.912-1.1-2.064-2.4-3.336-3.72a76.739,76.739,0,0,0,9.288-10.944l-2.208-1.584h-18.12V-14.4h15.864a53.045,53.045,0,0,1-6.792,7.9c-1.512-1.44-3.072-2.832-4.488-3.936l-2.016,1.824a55.563,55.563,0,0,1,9.408,9.672Zm17.76-11.136a3.314,3.314,0,0,0-3.288,3.312,3.314,3.314,0,0,0,3.288,3.312,3.3,3.3,0,0,0,3.312-3.312,3.3,3.3,0,0,0-3.288-3.312Zm23.736,3v6.12c0,.936-.384,1.344-1.3,1.344a18.678,18.678,0,0,1-2.712-.192V1.08a23.526,23.526,0,0,0,3.384.216c2.544,0,3.528-1.272,3.528-3.84V-12.12H-83.4v-2.616h-5.616v-4.8h-2.9v4.8h-10.728v2.616h9.792a32.5,32.5,0,0,1-10.128,9.192l1.944,2.112A40.269,40.269,0,0,0-91.923-8.952Zm18.456-5.808v2.592h6.84c-.864,5.088-2.88,8.736-7.224,11.352l1.992,2.088c4.872-3.168,7.1-7.584,8.016-13.44h5.208c0,3.84-.456,8.712-.984,9.792a1.471,1.471,0,0,1-1.56.936A27.814,27.814,0,0,1-64.2-1.584V1.128a28.775,28.775,0,0,0,3.5.168c2.208,0,3.216-.768,3.864-2.592.552-1.56,1.1-7.56,1.176-13.464h-7.872c.144-1.488.216-3.072.24-4.728h-2.832c0,1.68-.072,3.264-.192,4.728ZM-45.2-10.68v2.592h6.984V-4.08c0,3.408,1.344,4.656,4.968,4.776C-32.667.72-31.731.72-30.7.72c1.512,0,3.144-.024,4.248-.072V-2.064c-1.056.1-2.616.144-4.08.144-1.008,0-1.968-.024-2.448-.048-1.872-.12-2.376-.6-2.376-2.3V-8.088h9.672V-10.68h-9.672v-4.536h8.328v-2.568H-43.971v2.568h5.76v4.536Zm36.96-2.28v-6.576h-2.9V1.3h2.9V-9.888A58.228,58.228,0,0,1,.6-4.68L2.445-7.032A79.433,79.433,0,0,0-8.235-12.96ZM11.8-5.508c0,3.8,1.044,6.93,2.934,8.946l1.674-.432c-1.818-2.07-2.538-5.418-2.538-8.514,0-3.168.72-6.516,2.538-8.586l-1.674-.432c-1.89,2.016-2.934,5.148-2.934,9Zm17.172-8.478A7.044,7.044,0,0,0,21.915-6.93,7.044,7.044,0,0,0,28.971.126,7.022,7.022,0,0,0,36.027-6.93,7.056,7.056,0,0,0,28.971-13.986Zm0,11.9A4.832,4.832,0,0,1,24.129-6.93a4.813,4.813,0,0,1,4.842-4.86,4.851,4.851,0,0,1,4.86,4.86A4.836,4.836,0,0,1,28.971-2.088ZM50.049.018H52.8L46.341-7.146l5.274-6.714H49.041L44.361-7.9V-13.86H42.147V.018h2.214v-6.3ZM68.517,0h2.412L65.205-13.86H62.9L57.213,0h2.448l1.152-2.826h6.534ZM61.659-4.9l2.394-5.886L66.483-4.9Zm27.252-5.4V0h2.214V-13.86H88.731L83.817-6.912,78.885-13.86H76.509V0h2.214V-10.314l5.094,7.182Zm15.39-3.69A7.044,7.044,0,0,0,97.245-6.93,7.044,7.044,0,0,0,104.3.126a7.022,7.022,0,0,0,7.056-7.056A7.056,7.056,0,0,0,104.3-13.986Zm0,11.9A4.832,4.832,0,0,1,99.459-6.93a4.813,4.813,0,0,1,4.842-4.86,4.851,4.851,0,0,1,4.86,4.86A4.836,4.836,0,0,1,104.3-2.088Zm15.156-9.7V0h2.2V-11.79h3.492v-2.07h-9.2v2.07Zm17.334-2.2a7.044,7.044,0,0,0-7.056,7.056A7.044,7.044,0,0,0,136.791.126a7.022,7.022,0,0,0,7.056-7.056A7.056,7.056,0,0,0,136.791-13.986Zm0,11.9a4.832,4.832,0,0,1-4.842-4.842,4.813,4.813,0,0,1,4.842-4.86,4.851,4.851,0,0,1,4.86,4.86A4.836,4.836,0,0,1,136.791-2.088Zm15.318-10.44a1.341,1.341,0,0,0-1.332-1.332,1.344,1.344,0,0,0-1.35,1.332,1.356,1.356,0,0,0,1.35,1.332,1.026,1.026,0,0,0,.234-.018,1.381,1.381,0,0,1-1.206.936v.684A2.668,2.668,0,0,0,152.109-12.528ZM162.351.126c2.682,0,4.644-1.62,4.644-4.14a3.935,3.935,0,0,0-2.7-3.78c-.918-.4-1.71-.648-2.52-.954-.666-.234-1.458-.63-1.458-1.476a1.69,1.69,0,0,1,1.872-1.584,2.373,2.373,0,0,1,1.962,1.17l1.908-1.17a4.583,4.583,0,0,0-3.852-2.178,3.8,3.8,0,0,0-4.1,3.78,3.662,3.662,0,0,0,2.628,3.438c.864.324,1.368.468,2.124.756,1.476.54,1.944,1.206,1.944,2.088,0,1.08-.99,1.872-2.358,1.872a2.943,2.943,0,0,1-2.682-1.8l-1.98,1.026A5.079,5.079,0,0,0,162.351.126ZM177.2-5.508c0-3.87-1.044-7-2.934-9.018l-1.674.432c1.818,2.07,2.538,5.418,2.538,8.586,0,3.1-.72,6.444-2.538,8.514l1.674.432c1.89-2.016,2.934-5.148,2.934-8.928Z" transform="translate(640 1696)" fill="#ff0098"/>
  </g>
</svg>
