<svg xmlns="http://www.w3.org/2000/svg" width="197.562" height="12.16" viewBox="0 0 197.562 12.16">
  <defs>
    <style>
      .cls-1 {
        fill: #ff0;
        fill-rule: evenodd;
      }
    </style>
  </defs>
  <path id="hama-okamoto" class="cls-1" d="M548.109,3237.2l-1.562.69a32.927,32.927,0,0,1,3.7,9.17l1.73-.55A42.945,42.945,0,0,0,548.109,3237.2Zm-5.357.37a20.476,20.476,0,0,1-3.487,8.96l1.562,0.84a24.783,24.783,0,0,0,3.6-9.48Zm22.144,9.15c-0.53-.64-1.2-1.4-1.939-2.17a44.791,44.791,0,0,0,5.4-6.38l-1.283-.92H556.54v1.55h9.221a30.877,30.877,0,0,1-3.948,4.6c-0.879-.84-1.786-1.65-2.609-2.29l-1.171,1.06a32.789,32.789,0,0,1,5.468,5.64Zm9.114-3.48a1.36,1.36,0,1,0-1.353-1.36A1.354,1.354,0,0,0,574.01,3243.24Zm12.488-1.26v3.57a0.66,0.66,0,0,1-.754.78,11.386,11.386,0,0,1-1.576-.11v1.61a13.324,13.324,0,0,0,1.967.12c1.479,0,2.051-.74,2.051-2.24v-5.58h3.264v-1.53h-3.264v-2.79H586.5v2.79h-6.236v1.53h5.692a18.9,18.9,0,0,1-5.887,5.36l1.13,1.23A23.469,23.469,0,0,0,586.5,3241.98Zm10.453-3.39v1.51h3.976a8.708,8.708,0,0,1-4.2,6.62l1.158,1.22c2.832-1.85,4.129-4.42,4.659-7.84h3.027a22.66,22.66,0,0,1-.572,5.71,0.858,0.858,0,0,1-.907.55,16.22,16.22,0,0,1-1.757-.09v1.59a17.472,17.472,0,0,0,2.036.09,2.01,2.01,0,0,0,2.246-1.51,39.353,39.353,0,0,0,.684-7.85h-4.576c0.084-.87.126-1.79,0.14-2.76H601.22c0,0.98-.042,1.91-0.112,2.76h-4.157Zm16.159,2.38v1.51h4.06v2.34c0,1.99.781,2.71,2.887,2.78,0.335,0.02.879,0.02,1.479,0.02,0.879,0,1.827-.02,2.469-0.04v-1.59c-0.614.06-1.521,0.09-2.371,0.09-0.586,0-1.144-.02-1.423-0.03-1.088-.07-1.381-0.35-1.381-1.34v-2.23h5.621v-1.51H618.83v-2.65h4.84v-1.49h-9.848v1.49h3.348v2.65h-4.06Zm21.209-1.33v-3.83h-1.688v12.14h1.688v-6.52a33.819,33.819,0,0,1,5.134,3.04l1.074-1.37A45.5,45.5,0,0,0,634.319,3239.64Zm11.4,2.98a6.562,6.562,0,0,0,1.775,4.97l0.13-.08a7.922,7.922,0,0,1,0-9.82l-0.13-.08a6.6,6.6,0,0,0-1.775,5v0.01Zm9-4.67a3.925,3.925,0,1,0,3.908,3.93A3.917,3.917,0,0,0,654.716,3237.95Zm0,6.62a2.7,2.7,0,1,1,2.692-2.69A2.68,2.68,0,0,1,654.716,3244.57Zm11.672,1.17h1.525l-3.579-3.98,2.921-3.74h-1.426l-2.592,3.32v-3.32H662.01v7.72h1.227v-3.5Zm10.226-.01h1.336l-3.17-7.71H673.5l-3.15,7.71h1.356l0.638-1.57h3.619Zm-3.8-2.72,1.327-3.27,1.346,3.27h-2.673Zm15.093-3v5.72h1.226v-7.71h-1.326l-2.722,3.87-2.732-3.87h-1.316v7.71h1.226V3240l2.822,3.99Zm8.52-2.06a3.925,3.925,0,1,0,3.909,3.93A3.916,3.916,0,0,0,696.428,3237.95Zm0,6.62a2.7,2.7,0,1,1,2.693-2.69A2.681,2.681,0,0,1,696.428,3244.57Zm8.791-5.4v6.56h1.216v-6.56h1.935v-1.15h-5.1v1.15h1.945Zm10-1.22a3.925,3.925,0,1,0,3.908,3.93A3.917,3.917,0,0,0,715.217,3237.95Zm0,6.62a2.7,2.7,0,1,1,2.692-2.69A2.681,2.681,0,0,1,715.217,3244.57Zm8.212-6.55h-1.217l0.15,2.75h0.917Zm5.671,7.78a2.331,2.331,0,0,0,2.573-2.3,2.186,2.186,0,0,0-1.5-2.1c-0.508-.22-0.947-0.36-1.4-0.53a0.974,0.974,0,0,1-.807-0.82,0.944,0.944,0,0,1,1.037-.89,1.322,1.322,0,0,1,1.086.66l1.057-.66a2.536,2.536,0,0,0-2.133-1.21,2.108,2.108,0,0,0-2.274,2.11,2.033,2.033,0,0,0,1.456,1.91c0.479,0.18.758,0.26,1.176,0.42a1.248,1.248,0,0,1,1.077,1.16,1.157,1.157,0,0,1-1.306,1.04,1.631,1.631,0,0,1-1.486-1l-1.1.57A2.812,2.812,0,0,0,729.1,3245.8Zm7.715-3.18a6.613,6.613,0,0,0-1.775-5.01l-0.13.08a7.922,7.922,0,0,1,0,9.82l0.13,0.08a6.553,6.553,0,0,0,1.775-4.96v-0.01Z" transform="translate(-539.25 -3235.81)"/>
</svg>
