<svg xmlns="http://www.w3.org/2000/svg" width="68.875" height="13" viewBox="0 0 68.875 13">
  <defs>
    <style>
      .cls-1 {
        fill: #ff0;
        fill-rule: evenodd;
      }
    </style>
  </defs>
  <path id="kameda_seizi" class="cls-1" d="M302.812,3237.73c0.223-.22.46-0.46,0.669-0.7h2.776c-0.223.24-.46,0.49-0.683,0.7h-2.762Zm3.71,1.58v-0.68h2.693v0.68h-2.693Zm-4.143-.68h2.609v0.68h-2.609v-0.68Zm4.143,2.11v-0.7h2.693v0.7h-2.693Zm-4.143-.7h2.609v0.7h-2.609v-0.7Zm8.468,6.25c-0.042.66-.112,0.72-0.851,0.73-0.712.02-1.827,0.02-2.525,0a0.74,0.74,0,0,1-.921-0.73h4.3ZM301,3242.22h-0.641v4.86h1.506v-0.79h3.153c0.112,1.5.683,1.87,2.329,1.89,0.768,0.02,1.939.02,2.776,0,1.716-.02,2.023-0.23,2.2-1.63l-1.436-.26h0.46v-4.07h-4.827v-0.59h4.2v-3.9h-3.362a11.517,11.517,0,0,0,1.1-1.19l-0.85-.5h-3.362l0.321-.49-1.521-.14a10.639,10.639,0,0,1-3.822,3.45l1,0.86c0.237-.16.475-0.3,0.7-0.47v2.38h4.059v0.59H301Zm3.99,2.4v0.75h-3.125v-0.75h3.125Zm4.841,0v0.75h-3.307v-0.75h3.307Zm-3.307-.76v-0.73h3.307v0.73h-3.307Zm-4.659,0v-0.73h3.125v0.73h-3.125Zm21.1-2.77v-3.08h3.32v3.08h-3.32Zm-4.688,0v-3.08h3.153v3.08h-3.153Zm8.008,6.11v0.82h1.562v-11.44H316.767v11.44h1.506v-0.82h8.008Zm-3.32-1.44v-3.26h3.32v3.26h-3.32Zm-4.688,0v-3.26h3.153v3.26h-3.153Zm30.948-9.7a6.069,6.069,0,0,1,1.1,1.64l1.088-.54a6.811,6.811,0,0,0-1.269-1.66Zm-9.946-.22v1.15h3.459v-1.15h-3.459Zm-0.7,1.9v1.22h4.771v-1.22h-4.771Zm0.545,2v1.14h3.738v-1.14h-3.738Zm0,1.91v1.13h3.738v-1.13h-3.738Zm1.185,4.92v-1.76h1.353v1.76h-1.353Zm-0.628-3.02H339v4.84h1.311v-0.56h2.679l0.864,0.58a12.268,12.268,0,0,0,1.312-6.13V3242h1.06a13.813,13.813,0,0,1-.14,3.2,0.361,0.361,0,0,1-.153.06,5.885,5.885,0,0,1-.7-0.03l0.126,1.13c0.279,0.02.753,0,.976,0a1.07,1.07,0,0,0,.67-0.18c0.363-.28.391-2.01,0.418-5.4h-2.259v-1.46h2.706a43.3,43.3,0,0,0,.544,5.81,11.651,11.651,0,0,1-2.176,2.62l1.06,0.66a11.555,11.555,0,0,0,1.506-1.71,2.159,2.159,0,0,0,1.34,1.67c0.878,0.15,1.311-.27,1.52-2.13l-0.893-.55c-0.055,1.07-.153,1.23-0.348,1.22-0.279-.03-0.516-0.6-0.712-1.61a14.66,14.66,0,0,0,1.577-4.59l-1.2-.28a15.08,15.08,0,0,1-.67,2.62c-0.1-1.08-.167-2.33-0.195-3.73h2.3v-1.31h-2.33c-0.014-.83,0-1.68.014-2.58h-1.423c0,0.9.014,1.75,0.042,2.58h-4.017v4.25a11.247,11.247,0,0,1-.81,4.72v-3.43h-3.32Zm15.922-6.95a10.145,10.145,0,0,1,2.442,1.61l0.99-1.15a12.1,12.1,0,0,0-2.623-1.56Zm-0.613,3.72a9.7,9.7,0,0,1,2.511,1.72l1-1.12a10.646,10.646,0,0,0-2.706-1.67Zm3.543,0,0.335,1.44c1.9-.14,5.175-0.43,7.407-0.66,0.167,0.34.307,0.66,0.432,0.98l1.4-.71a16.782,16.782,0,0,0-2.859-4.3l-1.2.67a20.7,20.7,0,0,1,1.562,2.13c-1.311.1-2.887,0.21-4.31,0.29,0.8-1.51,1.52-3.09,2.023-4.33l-1.577-.41a39.929,39.929,0,0,1-2.022,4.84C359.27,3240.28,358.866,3240.3,358.531,3240.32Zm-3.334,7.11,1.283,0.95a37.066,37.066,0,0,0,2.427-4.6l-1.1-.91A29.806,29.806,0,0,1,355.2,3247.43Zm10.336,0.5v0.48h1.549v-5.95h-7.491v5.95H361.1v-0.48h4.435Zm-4.435-1.41v-2.65h4.435v2.65H361.1Z" transform="translate(-299.219 -3235.41)"/>
</svg>
