<svg xmlns="http://www.w3.org/2000/svg" width="96" height="12" viewBox="0 0 96 12">
  <path id="パス_827" data-name="パス 827" d="M4.956-5.474l4.522-5.278H7.336L3.206-5.5v-5.25H1.47V0H3.206V-5.222L7.462,0h2.3ZM19.74-2.464V-5.628c0-1.862-.7-2.758-2.842-2.758a7.5,7.5,0,0,0-2.982.644l.364,1.4A5.267,5.267,0,0,1,16.7-6.986c1.3,0,1.456.546,1.456,1.372v.546c-3.836.168-4.886.756-4.886,2.716A2.4,2.4,0,0,0,15.9.182,2.74,2.74,0,0,0,18.368-1.19,2.857,2.857,0,0,0,18.886.14L20.3-.112A3.878,3.878,0,0,1,19.74-2.464ZM18.158-3.822v1.134a1.962,1.962,0,0,1-1.932,1.5c-.56,0-1.386-.21-1.386-1.2C14.84-3.472,15.61-3.682,18.158-3.822Zm9.814,2.576c-.714,0-.924-.294-.924-1.246V-6.72h1.694V-8.036H27.048V-10.3l-1.652.42v1.848H24.108V-6.72H25.4v4.858c0,1.5.9,2,2.282,1.932l.77-.042V-1.246Zm7.042-9.646h-1.75v1.54h1.75Zm-.028,2.758H33.292V0h1.694Zm9.2,6.944a2.293,2.293,0,0,1-2.548-2.576h5.348v-.98c0-2.128-.9-3.668-3.15-3.668-2.548,0-3.878,1.946-3.878,4.452,0,2.394,1.176,4.2,4.1,4.2a7.012,7.012,0,0,0,2.814-.546l-.308-1.344A6.3,6.3,0,0,1,44.2-1.19Zm-.518-5.922c1.3,0,1.764.826,1.778,2.142H41.678a2.121,2.121,0,0,1,1.974-2.142ZM60.4,0V-4.564h3.668v-1.5H60.4V-9.254h4.1v-1.5h-5.81V0ZM76.538-4.116c0-2.03-.9-4.312-3.934-4.312s-3.92,2.282-3.92,4.312c0,2.1.9,4.41,3.92,4.41s3.934-2.31,3.934-4.4ZM72.6-1.134c-1.414,0-2.2-.966-2.2-3.01,0-1.988.784-2.9,2.2-2.9s2.212.91,2.212,2.9c0,2.044-.8,3.01-2.2,3.01Zm10.57-5.894a5.656,5.656,0,0,0-.28-1.232l-1.54.21a8,8,0,0,1,.2,1.988V0h1.68V-5.558a2.579,2.579,0,0,1,2.436-1.19l.084-1.5A3.059,3.059,0,0,0,83.174-7.028ZM92.792.2a3.155,3.155,0,0,0,2.632-1.288A3.017,3.017,0,0,0,95.788.1l1.456-.28a6.965,6.965,0,0,1-.336-2.6v-8.582l-1.638.252v3.654a3.277,3.277,0,0,0-2.254-.9c-2.548,0-3.43,2.058-3.43,4.452,0,2.562,1.078,4.1,3.192,4.1Zm2.534-3.85a6.243,6.243,0,0,1-.084,1.106,2.306,2.306,0,0,1-2.1,1.33c-1.33,0-1.834-1.19-1.834-2.716,0-1.736.5-3.01,2.016-3.01a2.389,2.389,0,0,1,1.918.966,7.045,7.045,0,0,1,.084,1.26Z" transform="translate(-1.47 11.368)"/>
</svg>
