<svg xmlns="http://www.w3.org/2000/svg" width="85.25" height="13.156" viewBox="0 0 85.25 13.156">
  <defs>
    <style>
      .cls-1 {
        fill: #ff0;
        fill-rule: evenodd;
      }
    </style>
  </defs>
  <path id="kinoshita_kentaro.svg" class="cls-1" d="M668.891,472.6h4.672v-1.737H668.11v-2.844h-1.9v2.844h-5.4V472.6h4.713a13.7,13.7,0,0,1-4.964,5.576l1.338,1.457a16.761,16.761,0,0,0,4.309-4.847v6.318h1.9V474.58a17.5,17.5,0,0,0,4.309,5.015l1.422-1.569A14.092,14.092,0,0,1,668.891,472.6Zm15.415-.756V470.5h5.731v-1.709H677.264V470.5h5.117v10.619h1.925v-7.187a26.861,26.861,0,0,1,4.044,3.1c1.353-1.527,1.367-1.541,1.381-1.541A34.8,34.8,0,0,0,684.306,471.848Zm26.5,0.322v0.589h-0.822V472.17h0.822Zm-0.822-1.205v-0.574h0.822v0.574h-0.822Zm-3.7,5.688v1.373h2.064v1.093h1.632v-1.093h2.858v-1.373h-2.858v-0.644h2.426V474.65h-2.426v-0.6h2.3V472.17h0.641v-1.205h-0.641v-1.849h-2.3v-1.107h-1.632v1.107h-1.632v1.275h1.632v0.574h-2.189v1.219h2.189v0.575h-1.632v1.288h1.632v0.6h-1.6v1.359h1.6v0.644h-2.064Zm-0.558,1.317a19.69,19.69,0,0,0,.823-4.945l-1.032-.084h-0.432c0.432-1.191.906-2.564,1.255-3.657l-0.879-.112H703.5c0.07-.266.139-0.518,0.2-0.784l-1.687-.365a19.484,19.484,0,0,1-2.385,6.4l0.921,1.527c0.223-.337.432-0.687,0.641-1.037v6.206h1.687v-1.051l0.991,1.079a6.51,6.51,0,0,0,1.213-1.6,4.928,4.928,0,0,0,3.723,1.4c0.711,0.014,3.249,0,3.947-.014l0.307-1.555c-0.7.042-3.347,0.042-3.975,0.028A3.973,3.973,0,0,1,705.733,477.97Zm-1.45-3.166-1.311.392a15.136,15.136,0,0,0,1.144,3,4.8,4.8,0,0,1-1.242,1.737V471.19c0.168-.463.321-0.939,0.461-1.415v0.868h0.99c-0.446,1.3-.976,2.732-1.325,3.629l1.478,0.308,0.084-.224h0.432c-0.056.658-.153,1.246-0.251,1.807A12.829,12.829,0,0,1,704.283,474.8Zm19.794-1.975h5.257v-1.766H723.6c0.125-1.064.167-2.073,0.2-3.011l-1.911-.043c-0.014.953-.041,1.99-0.153,3.054h-5.355v1.766h5.076a9.311,9.311,0,0,1-5.229,6.878l1.464,1.387a10.525,10.525,0,0,0,5.1-6.22,10.923,10.923,0,0,0,5.383,6.22l1.352-1.583A9.126,9.126,0,0,1,724.077,472.829Zm-3.04,5.561a11.361,11.361,0,0,1,2.05,2.508l1.576-1.135a13.166,13.166,0,0,0-2.274-2.423Zm22.736-9.862h-3.709v12.594h1.84V470.279h1.423c-0.307,1.079-.67,2.269-1.06,3.474,1.157,1.149,1.506,1.835,1.506,2.592,0,0.672-.112,1.093-0.6,1.149a4.118,4.118,0,0,1-1-.028l0.349,1.793a7.058,7.058,0,0,0,1.757-.07c1.032-.238,1.381-1.457,1.381-2.662a4.862,4.862,0,0,0-1.534-3.138c0.627-1.555,1.185-3.054,1.7-4.511l-0.99-.35h-1.06Zm-6.178,4.455v0.742h-2.426v-0.742H737.6Zm-2.426-1.359v-0.687H737.6v0.687h-2.426Zm-2.51,6.99,0.5,1.794c1.2-.337,3.151-0.925,4.643-1.387,0.084,0.364.168,0.714,0.224,1.064l1.785-.7a13.7,13.7,0,0,0-1.632-4.007l-1.576.631a13.563,13.563,0,0,1,.711,1.541c-0.669.168-1.422,0.35-2.147,0.518V475.2h4.2v-5.73h-2.078v-1.457h-1.812v1.457H733.4v8.994C733.119,478.516,732.882,478.572,732.659,478.614Z" transform="translate(-660.562 -468)"/>
</svg>
