<svg xmlns="http://www.w3.org/2000/svg" width="83" height="12.656" viewBox="0 0 83 12.656">
  <defs>
    <style>
      .cls-1 {
        fill: #ff0;
        fill-rule: evenodd;
      }
    </style>
  </defs>
  <path id="kouda_mahiru.svg" class="cls-1" d="M907.04,471.708v-1.541h2.915v1.541H907.04Zm-4.658,0v-1.541h2.748v1.541h-2.748Zm7.573,4.763v0.644h1.855v-8.587H900.584v8.587h1.8v-0.644h2.748v4.637h1.91v-4.637h2.915Zm-2.915-1.625v-1.6h2.915v1.6H907.04Zm-4.658,0v-1.6h2.748v1.6h-2.748Zm21.077-1.247v-2.732h2.929V473.6h-2.929Zm-4.6,0v-2.732h2.762V473.6h-2.762Zm7.531,6.332v0.8h1.882V469.158H917.058V480.73h1.8v-0.8h7.531Zm-2.929-1.737v-2.886h2.929v2.886h-2.929Zm-4.6,0v-2.886h2.762v2.886h-2.762Zm25.82-.63v0.014c0,1.149-.278,1.471-1.38,1.471-0.99,0-1.464-.322-1.464-0.785,0-.5.516-0.854,1.562-0.854A6.033,6.033,0,0,1,944.677,477.564Zm-4.072-4.623v1.7h4l0.028,1.261a7.864,7.864,0,0,0-1.144-.084c-2.217,0-3.389,1.078-3.389,2.465,0,1.261,1.172,2.41,3.347,2.41,2.148,0,2.985-.785,3.138-2.424a11.714,11.714,0,0,1,2.733,1.9l1.255-1.485a15.354,15.354,0,0,0-3.988-2.269c-0.014-.5-0.042-1.121-0.056-1.779h3.7v-1.7H946.49c-0.014-.449-0.028-0.9-0.028-1.331h4.017v-1.695h-4.03c0.013-.547,0-1.037.013-1.471h-1.98c0,0.42,0,.924.014,1.471h-4.169v1.695h4.211l0.028,1.331h-3.961Zm18.623-2.956a10.325,10.325,0,0,1-3.64.616l0.2,1.919a13.412,13.412,0,0,0,2.65-.448,8.075,8.075,0,0,0-1.548,4.441c0,2.578,1.534,4.133,4.226,4.133,3.109,0,4.713-1.807,4.713-4.889a11.865,11.865,0,0,0-.307-2.578,6.654,6.654,0,0,0,2.176,1.667l0.864-1.723a6.609,6.609,0,0,1-3.821-4.231l-1.827.518a19.283,19.283,0,0,1,1.13,5.7c0,2.508-1.06,3.657-2.873,3.657a2.184,2.184,0,0,1-2.44-2.382,9.156,9.156,0,0,1,2.928-5.982l-1.269-1.191A4.281,4.281,0,0,1,959.228,469.985Zm19.933,9.022a5.8,5.8,0,0,1-.711.028c-1.185,0-1.673-.294-1.673-0.771a0.915,0.915,0,0,1,1.115-.7A1.322,1.322,0,0,1,979.161,479.007Zm-5.257-9.681,0.111,1.836c1.506-.07,3.6-0.183,4.714-0.295a57.239,57.239,0,0,1-6.289,5.436l1.255,1.457a13.484,13.484,0,0,1,4.03-2.8,6.077,6.077,0,0,1,1.715-.28,2.14,2.14,0,0,1,2.217,2.143,1.869,1.869,0,0,1-.92,1.751,2.693,2.693,0,0,0-2.859-2.507c-1.659,0-2.789.994-2.789,2.227,0,1.415,1.241,2.368,3.542,2.368,3.305,0,4.951-1.527,4.951-3.909a3.5,3.5,0,0,0-3.6-3.642,4.337,4.337,0,0,0-1.3.2c0.934-.9,2.482-2.228,3.528-3.068l-0.906-1.345A72.466,72.466,0,0,1,973.9,469.326Z" transform="translate(-900.594 -468.438)"/>
</svg>
