<svg xmlns="http://www.w3.org/2000/svg" width="68.657" height="13.094" viewBox="0 0 68.657 13.094">
  <defs>
    <style>
      .cls-1 {
        fill: #ff0;
        fill-rule: evenodd;
      }
    </style>
  </defs>
  <path id="nagayama_kazuki.svg" class="cls-1" d="M428.285,477.41a6.416,6.416,0,0,1-1.143-1.583h3.5A20.9,20.9,0,0,1,428.285,477.41Zm-4.643,1.513v-3.1H425.2a9.006,9.006,0,0,0,1.7,2.633C425.984,478.6,424.8,478.769,423.642,478.923Zm-3.459.406c0.181,0.616.349,1.191,0.5,1.765,1.66-.252,4.5-0.756,6.345-1.121l-0.083-1.471a9.583,9.583,0,0,0,4.755,2.606c0.362-.532.725-1.037,1.116-1.6a9.388,9.388,0,0,1-3.152-1.065c0.976-.532,1.869-1.078,2.524-1.527l-1.2-1.092h1.771V474.3H423.7v-0.617h6.875v-1.289H423.7v-0.6h6.875V470.5H423.7v-0.588h7.559v-1.541h-9.427V474.3h-2.022v1.527h1.952v3.334C421.159,479.231,420.615,479.287,420.183,479.329Zm18.706-1.121v-7.06h-1.882V481h1.882v-0.967h7.656V481h1.9v-9.848h-1.9v7.06h-2.956V468.136h-1.911v10.072h-2.789Zm20.061-4.777v1.961H472v-1.961H458.95Zm20.77-2.227v1.33h4.2V471.2h-1.283v-0.827H484.2v-1.345h-1.562v-1.009h-1.659v1.009h-1.59v1.345h1.59V471.2H479.72Zm-0.1,1.849v1.373c-0.279-.463-0.7-1.121-1.1-1.723v-0.351h0.892v-1.6h-0.892v-2.732h-1.716v2.732h-1.394v1.6h1.38a16.494,16.494,0,0,1-1.631,4.469l0.892,1.849a20.274,20.274,0,0,0,.753-1.975v4.413h1.716V474.9c0.167,0.448.306,0.869,0.418,1.219l0.683-1.457v1.653H484v-3.264h-4.379Zm1.465,1.2h1.394v0.854h-1.394v-0.854Zm2.928-.225a20.673,20.673,0,0,1,.683,3.167c0.405-.127.781-0.253,1.158-0.379v2.3a0.251,0.251,0,0,1-.265.308,7.673,7.673,0,0,1-.962-0.014l0.334,1.695a8.891,8.891,0,0,0,1.548-.042c0.851-.154,1.116-0.686,1.116-1.653v-6.738h0.837v-1.612h-0.837v-3.04h-1.771v3.04h-1.618v1.612h1.618v2.717c-0.14-.532-0.321-1.12-0.53-1.751Zm-4.407,2.732a9.68,9.68,0,0,1,.4,2.13l1.38-.309a9.693,9.693,0,0,0-.432-2.143Zm-0.376,2.354,0.4,1.625c1.255-.21,3.375-0.6,4.783-0.883l-0.1-1.387c-0.307.056-.656,0.1-1.018,0.154,0.251-.658.474-1.316,0.641-1.849l-1.548-.364a23.568,23.568,0,0,1-.613,2.41C480.808,478.951,479.873,479.063,479.232,479.119Z" transform="translate(-419.812 -468.031)"/>
</svg>
