<svg xmlns="http://www.w3.org/2000/svg" width="67" height="12" viewBox="0 0 67 12">
  <path id="パス_825" data-name="パス 825" d="M1.148-8.05a6.431,6.431,0,0,1,.2,1.68V0h1.68V-6.034A2.834,2.834,0,0,1,5.04-6.9c1.134,0,1.484.77,1.484,1.806V0H8.2V-5.516c0-1.456-.56-2.772-2.66-2.772A3.722,3.722,0,0,0,2.954-7.2,4.934,4.934,0,0,0,2.688-8.26ZM21-4.116c0-2.03-.9-4.312-3.934-4.312s-3.92,2.282-3.92,4.312c0,2.1.9,4.41,3.92,4.41S21-2.016,21-4.1ZM17.066-1.134c-1.414,0-2.2-.966-2.2-3.01,0-1.988.784-2.9,2.2-2.9s2.212.91,2.212,2.9c0,2.044-.8,3.01-2.2,3.01ZM28.742.2a3.155,3.155,0,0,0,2.632-1.288A3.017,3.017,0,0,0,31.738.1l1.456-.28a6.965,6.965,0,0,1-.336-2.6v-8.582l-1.638.252v3.654a3.277,3.277,0,0,0-2.254-.9c-2.548,0-3.43,2.058-3.43,4.452,0,2.562,1.078,4.1,3.192,4.1Zm2.534-3.85a6.243,6.243,0,0,1-.084,1.106,2.306,2.306,0,0,1-2.1,1.33c-1.33,0-1.834-1.19-1.834-2.716,0-1.736.5-3.01,2.016-3.01a2.389,2.389,0,0,1,1.918.966,7.045,7.045,0,0,1,.084,1.26ZM45.7-4.116c0-2.03-.9-4.312-3.934-4.312s-3.92,2.282-3.92,4.312c0,2.1.9,4.41,3.92,4.41S45.7-2.016,45.7-4.1ZM41.762-1.134c-1.414,0-2.2-.966-2.2-3.01,0-1.988.784-2.9,2.2-2.9s2.212.91,2.212,2.9c0,2.044-.8,3.01-2.2,3.01ZM54.054-4.2l3.29-3.934H55.4L52.332-4.158v-7.21l-1.694.252V0h1.694V-3.99L55.468,0H57.5ZM67.606-2.464V-5.628c0-1.862-.7-2.758-2.842-2.758a7.5,7.5,0,0,0-2.982.644l.364,1.4a5.267,5.267,0,0,1,2.422-.644c1.3,0,1.456.546,1.456,1.372v.546c-3.836.168-4.886.756-4.886,2.716A2.4,2.4,0,0,0,63.77.182,2.74,2.74,0,0,0,66.234-1.19,2.857,2.857,0,0,0,66.752.14l1.414-.252A3.878,3.878,0,0,1,67.606-2.464ZM66.024-3.822v1.134a1.962,1.962,0,0,1-1.932,1.5c-.56,0-1.386-.21-1.386-1.2C62.706-3.472,63.476-3.682,66.024-3.822Z" transform="translate(-1.148 11.368)"/>
</svg>
