<svg xmlns="http://www.w3.org/2000/svg" width="20" height="12" viewBox="0 0 20 12">
  <path id="パス_816" data-name="パス 816" d="M3.206,0V-3.864H4.914c2.03,0,3.724-1.05,3.724-3.64,0-2.506-1.834-3.248-4.41-3.248H1.47V0Zm0-5.306V-9.254H4.3c1.638,0,2.576.518,2.576,1.862,0,1.68-1.022,2.086-2.408,2.086Zm17.7,1.19c0-2.03-.9-4.312-3.934-4.312s-3.92,2.282-3.92,4.312c0,2.1.9,4.41,3.92,4.41S20.9-2.016,20.9-4.1ZM16.968-1.134c-1.414,0-2.2-.966-2.2-3.01,0-1.988.784-2.9,2.2-2.9s2.212.91,2.212,2.9c0,2.044-.8,3.01-2.2,3.01Z" transform="translate(-1.47 10.752)"/>
</svg>
