<svg xmlns="http://www.w3.org/2000/svg" width="30" height="13" viewBox="0 0 30 13">
  <path id="パス_818" data-name="パス 818" d="M.7-11.55v.952H6.608v-.952Zm6.454,0v.952h6.16v-.952ZM3.332-9.03v1.19H4.3V-9.03Zm6.314,0v1.19h.966V-9.03Zm-.294,5.1v-.812h1.834v.812Zm-3.192,0v-.812H7.994v.812Zm-3.108,0c0-.224.014-.448.014-.686v-.126h1.75v.812Zm6.3-1.722v-.686h3.892V-7.378H7.714V-7.8H8.848V-9.352h2.576V-7.8H12.67V-10.15H7.63V-8.2H6.286V-10.15H1.358V-7.8h1.19V-9.352h2.52V-7.8H6.23v.42H1.582V-4.62A9.023,9.023,0,0,1,.336.406l1.386.742A10.252,10.252,0,0,0,2.982-3.01H12.67V-5.656Zm-3.192,0v-.686H7.994v.686Zm-3.094,0v-.686h1.75v.686ZM12-2.758A11.608,11.608,0,0,1,9.38-2.03v-.924H7.952V-.812C7.952.63,8.26.952,9.8.994c.49.014,1.33.014,1.876,0C13.062.98,13.328.77,13.468-.742L12.11-.98c-.028.714-.07.756-.546.77H9.954c-.462-.014-.574-.1-.574-.616V-.994a15.323,15.323,0,0,0,3.22-.854ZM2.562,0c.112.448.182.8.266,1.148C4.06,1.022,6.2.784,7.6.6L7.574-.406c-.7.07-1.6.14-2.478.224V-1.274H7.518V-2.3H5.1v-.658H3.682v2.87C3.262-.042,2.87-.028,2.562,0ZM26.824-6.286A10.849,10.849,0,0,0,29.54-5.054l.91-1.274A7.57,7.57,0,0,1,26.04-8.82h4.088v-1.246h-6.3a11.873,11.873,0,0,0,.6-1.68l-1.554-.084a8.534,8.534,0,0,1-.672,1.764H17.472V-8.82h3.906a8.889,8.889,0,0,1-4.27,2.66l.938,1.148A11.7,11.7,0,0,0,20.79-6.4v.826h6.034Zm-5.516-.5a8.471,8.471,0,0,0,1.848-2.03h1.232a7.379,7.379,0,0,0,1.736,2.03Zm3.22,3.528h4.886V-4.536H18.13v1.274h4.83V-.476c0,.168-.07.252-.266.266a11.962,11.962,0,0,1-1.358-.028l.28,1.386a11.788,11.788,0,0,0,2.03-.028c.644-.1.882-.532.882-1.288ZM25.746-2.24A29.293,29.293,0,0,1,28.476.588c.042-.028.07-.042,1.456-.672a31.311,31.311,0,0,0-2.9-2.786ZM20.37-2.814A9.862,9.862,0,0,1,17.6-.042l1.386.686A10.607,10.607,0,0,0,21.77-2.268Z" transform="translate(-0.336 11.83)"/>
</svg>
