<svg xmlns="http://www.w3.org/2000/svg" width="70" height="13" viewBox="0 0 70 13">
  <path id="パス_826" data-name="パス 826" d="M5.25-.658V.77h8.232V-.658H10.206V-4.074h2.17V-5.488H7.028c.21-.672.378-1.372.532-2.086h5.922V-8.988H7.826c.14-.882.238-1.778.308-2.7l-1.582-.126c-.056.98-.168,1.932-.308,2.828H4.186v1.414H5.978a20.112,20.112,0,0,1-2.31,5.95V-8.372a28.057,28.057,0,0,0,1.008-3.136L3.164-11.83A19.4,19.4,0,0,1,.28-5.082L1.232-3.85a16.614,16.614,0,0,0,.924-1.428V1.176H3.668v-2.1l.994.8A21.4,21.4,0,0,0,6.748-4.578v.5h1.9V-.658ZM27.5-.224V-5.7h1.176c-.224.7-.49,1.442-.756,2.058l1.3.266a23.956,23.956,0,0,0,1.134-3.514l-.728-.056H27.65L28.1-7.28a6.308,6.308,0,0,0-.588-.672,24.569,24.569,0,0,0,2.618-2.968l-.868-.518H24.416v1.246h3.43A12.743,12.743,0,0,1,26.67-8.764c-.364-.308-.77-.644-1.218-.966l-.882.756a13.9,13.9,0,0,1,2.156,2.03H24.192V-5.7h1.82V-.546c0,.182-.056.28-.28.294-.182.014-.812.014-1.246-.014l.266,1.428a12.452,12.452,0,0,0,1.82-.028C27.272,1.008,27.5.56,27.5-.224ZM21.378-7.812h1.19v1.358h-1.19Zm0-2.45h1.19v1.316h-1.19Zm-1.3,1.316h-1.12v-1.316h1.12Zm0,2.492h-1.12V-7.812h1.12ZM19.992-1.12c-1.078.126-2.1.224-2.828.294L17.458.546c1.75-.252,4.8-.7,6.762-1.05l-.042-1.134c-.77.1-1.736.224-2.73.35v-1.47h2.534V-3.99H21.448V-5.25H23.9v-6.216h-6.23V-5.25h2.324v1.26H17.584v1.232h2.408ZM41.454-11.4v1.176h3.654V-11.4ZM46-10.43V-9.1h7.658v-1.33H50.456v-1.386H48.93v1.386Zm-5.32.938v1.246h5.068V-9.492Zm7.2,2.464h3.7v1.456h-3.7ZM50.442-4.34h2.632V-8.26H46.438v3.92h2.506V-.392c0,.154-.056.224-.224.238s-.658,0-.994-.028l.266,1.358a11.712,11.712,0,0,0,1.638-.042c.6-.112.812-.518.812-1.218ZM41.3-7.49v1.148h3.948V-7.49Zm0,1.9v1.148h3.948V-5.586ZM42.518-.672V-2.394H44.03V-.672ZM47.1-3.626A8.257,8.257,0,0,1,45.416-.6v-3.08H41.174V1.162h1.344V.6h2.9V-.518L46.564.07a9.007,9.007,0,0,0,1.82-3.248Zm3.836.462A13.726,13.726,0,0,1,52.4-.042L53.76-.616a15.49,15.49,0,0,0-1.638-3.066ZM65.016-7.182h5.418V-8.638H64.568c.126-1.106.182-2.184.21-3.15l-1.61-.028c-.014.98-.042,2.058-.168,3.178H57.512v1.456h5.264A9.507,9.507,0,0,1,57.372,0L58.59,1.162A10.593,10.593,0,0,0,63.924-5.46a10.817,10.817,0,0,0,5.558,6.622L70.616-.154C67.8-1.3,65.9-3.584,65.016-7.182ZM62.2-1.736A11.921,11.921,0,0,1,64.33.812l1.316-.938a14.039,14.039,0,0,0-2.31-2.492Z" transform="translate(-0.28 11.83)"/>
</svg>
