<svg xmlns="http://www.w3.org/2000/svg" width="68.907" height="13.125" viewBox="0 0 68.907 13.125">
  <defs>
    <style>
      .cls-1 {
        fill: #ff0;
        fill-rule: evenodd;
      }
    </style>
  </defs>
  <path id="shimizu_keisuke.svg" class="cls-1" d="M180.284,469.424a8.72,8.72,0,0,1,2.134,1.555l1.241-1.316a10.416,10.416,0,0,0-2.357-1.5Zm-0.474,3.629a8.2,8.2,0,0,1,2.3,1.737l1.241-1.317a9.863,9.863,0,0,0-2.524-1.667Zm3.724-.561v1.289h9.329v-1.289h-3.709v-0.5h2.691v-1.261h-2.691v-0.476h3.277v-1.289h-3.277v-0.953h-1.9v0.953h-3.194v1.289h3.194v0.476h-2.622v1.261h2.622v0.5h-3.723Zm2.789,3.629v-0.533h3.807v0.533h-3.807Zm3.807,2.83v0.462a0.181,0.181,0,0,1-.2.21c-0.139.014-.529,0-0.808-0.014l0.279,1.5a9.159,9.159,0,0,0,1.7-.056,1.1,1.1,0,0,0,.864-1.331V474.23h-7.46v6.878h1.813v-2.157h3.807Zm-3.807-1.177v-0.532h3.807v0.532h-3.807Zm-6.359,2.213,1.589,1.065a31.075,31.075,0,0,0,1.953-4.315l-1.339-1.008A28.017,28.017,0,0,1,179.964,479.987Zm23.768-8.573v-3.4h-1.883V478.8a0.4,0.4,0,0,1-.418.476,15.757,15.757,0,0,1-1.6-.014l0.405,1.835a12.383,12.383,0,0,0,2.091-.042c1.074-.154,1.409-0.784,1.409-1.947v-3.769a12.284,12.284,0,0,0,4.323,4.469l1.38-1.569a10.438,10.438,0,0,1-4.42-3.95,39.958,39.958,0,0,0,3.974-3.124l-1.366-1.345a28.576,28.576,0,0,1-3.347,3.082A12.514,12.514,0,0,1,203.732,471.414Zm-7.28-.084v1.681h3.291a9.01,9.01,0,0,1-3.625,5.561l1.269,1.359c2.259-1.709,3.807-4.595,4.42-8.307l-1.269-.294h-4.086Zm29.934,1.737V472.38h2.176v0.687h-2.176Zm-3.918-.687h2.05v0.687h-2.05V472.38Zm3.918,2.494V474.16h2.176v0.714h-2.176Zm-3.918-.714h2.05v0.714h-2.05V474.16Zm1.854,2.479a9.653,9.653,0,0,1,1.73,1.9l1.408-.924a10.29,10.29,0,0,0-1.353-1.387h4.324v-5.226h-4.045v-0.644h5.634v-1.4h-5.634v-0.953h-1.868v0.953h-5.453v1.4h5.453v0.644h-3.849v5.226h4.211Zm4.156,0.925a13.69,13.69,0,0,1,1.827,3l1.771-.7a14.381,14.381,0,0,0-2.036-2.97Zm-5.927-.6v1.667c0,1.864.377,2.256,2.218,2.312,0.571,0.014,1.464.014,2.064,0,1.659-.028,1.966-0.294,2.147-2.34l-1.715-.266c-0.028.841-.084,0.911-0.572,0.925s-1.269.014-1.729,0c-0.516-.014-0.628-0.112-0.628-0.631v-1.667h-1.785Zm-1.826.182A7.14,7.14,0,0,1,219,479.9l1.688,0.715a9.956,9.956,0,0,0,1.715-3Zm22.694-4.328v8.307h1.9v-8.069a14.993,14.993,0,0,0,2.217,1.317l1.2-1.555a13.391,13.391,0,0,1-5.913-4.806h-1.757a12.669,12.669,0,0,1-5.745,4.806l1.1,1.527a13.87,13.87,0,0,0,2.217-1.317v2.8a4.352,4.352,0,0,1-2.51,4.076l1.52,1.233a6.049,6.049,0,0,0,2.858-5.281v-3.026h-1.6a15.148,15.148,0,0,0,3.026-3.138,15.956,15.956,0,0,0,3.082,3.124h-1.59Z" transform="translate(-179.812 -468)"/>
</svg>
