<svg xmlns="http://www.w3.org/2000/svg" width="68.625" height="13.03" viewBox="0 0 68.625 13.03">
  <defs>
    <style>
      .cls-1 {
        fill: #ff0;
        fill-rule: evenodd;
      }
    </style>
  </defs>
  <path id="takashima-naoko" class="cls-1" d="M780.366,3236.39v1.2h12.946v-1.2H787.62v-0.98h-1.59v0.98h-5.664Zm2.623,1.83v2.94h7.672v-2.94h-7.672Zm1.479,1.01h4.645v0.92h-4.645v-0.92Zm6.472,2.56h-9.751v6.62H782.7v-5.45h8.244v3.88a0.251,0.251,0,0,1-.251.27c-0.153,0-.711,0-1.088-0.03l0.251,1.31a10.114,10.114,0,0,0,1.772-.02,1.049,1.049,0,0,0,.837-1.26v-5.32H790.94Zm-5.705,3.93v-1.06h3.083v1.06h-3.083Zm-0.53-2.13h-0.823v3.85h1.353v-0.66h4.478v-3.19h-5.008Zm22.757-4.47v0.69h-3.25v-0.69h3.25Zm-3.25-.89v-0.67h3.25v0.67h-3.25Zm2.552,6.65a5.713,5.713,0,0,1,.642,1.48l0.614-.19a2.132,2.132,0,0,1-.251,1.05,0.3,0.3,0,0,1-.182.04c-0.181.01-.544,0-0.767-0.01l0.14,1.14c0.279,0.02.809,0.02,1.018,0.02a1.768,1.768,0,0,0,.823-0.18c0.446-.28.614-1.84,0.739-4.99h-5.328v-0.67h5.565v-1.06h-5.565v-0.66h4.659v-4.32h-2.72c0.167-.31.32-0.63,0.446-0.91l-1.59-.23c-0.084.31-.21,0.73-0.363,1.14h-1.827v7.85h5.314c-0.027.52-.041,0.96-0.083,1.34a6.31,6.31,0,0,0-.586-1.12Zm-1.3.1a7.672,7.672,0,0,1,.474,2.18l0.907-.12a8.547,8.547,0,0,0-.572-2.24Zm-2.72-.03a6.738,6.738,0,0,1-.935,2.53l1.06,0.41a9.036,9.036,0,0,0,.921-2.69Zm1.339,0.13a10.879,10.879,0,0,1,.167,2.52l0.977-.07a12.818,12.818,0,0,0-.279-2.56Zm-5.859-.6v-7.1h-1.158v9.77h1.158v-1.43h2.706v0.74h1.172v-9.09h-1.172v7.11h-0.781v-9.06h-1.171v9.06h-0.754Zm24.866-5.73v6.8h7.825v-6.8h-4.463c0.1-.31.181-0.63,0.265-0.94h5.8v-1.31h-5.469c0.07-.32.14-0.65,0.2-0.94l-1.688-.15c-0.042.32-.1,0.68-0.168,1.09h-5.817v1.31h5.552c-0.055.31-.139,0.63-0.209,0.94h-1.827Zm1.52,1.11h4.729v0.91h-4.729v-0.91Zm0,1.83h4.729v0.92h-4.729v-0.92Zm0,1.83h4.729v0.93h-4.729v-0.93Zm-2.622,2.94v-7.4h-1.549v9.33h1.549v-0.58h10.5v-1.35h-10.5Zm14.052-5.27v1.41h5.72v3.85a0.383,0.383,0,0,1-.405.45c-0.279.01-1.2,0.02-1.827-.03,0.111,0.47.223,0.96,0.335,1.54a15.314,15.314,0,0,0,2.3-.03,1.335,1.335,0,0,0,1.186-1.62v-4.16h5.636v-1.41h-5.636v-0.66a36.481,36.481,0,0,0,3.99-3.92l-1.033-.62h-8.021v1.39h6.264a23.437,23.437,0,0,1-2.176,2.18h-0.614v1.63h-5.72Z" transform="translate(-780.375 -3235.41)"/>
</svg>
