<svg xmlns="http://www.w3.org/2000/svg" width="64" height="13" viewBox="0 0 64 13">
  <path id="パス_819" data-name="パス 819" d="M6.174-11.8V-.882c0,.336-.1.5-.434.532-.28.014-1.064.014-1.624-.028l.322,1.526A13.787,13.787,0,0,0,6.5,1.12C7.476.966,7.77.406,7.77-.63V-11.8ZM9.38-7.924a33.265,33.265,0,0,1,2.632,6.356l1.582-.77a39.987,39.987,0,0,0-2.8-6.146ZM3-8.344a15.211,15.211,0,0,1-2.6,6.16L1.848-1.4A18.535,18.535,0,0,0,4.522-7.98ZM27.5-7.6h2.8V-8.988H27.454v-2.828h-1.6v2.828H23.7V-7.6H25.83a12.808,12.808,0,0,1-3.262,5.46l1.106,1.19a14.016,14.016,0,0,0,2.184-3.332v5.46h1.6V-4.382a17.4,17.4,0,0,0,1.876,3.36l1.162-1.2A15.346,15.346,0,0,1,27.5-7.6Zm-6.09.406V-7.6h1.848V-8.988H21.406v-2.828H19.824v2.828H17.3V-7.6H19.81a15.566,15.566,0,0,1-2.674,5.418l1.092,1.148a17.313,17.313,0,0,0,1.6-3.15V1.176h1.582v-6.5c.434.77.826,1.54,1.078,2.114l.994-1.148C23-5.082,22.162-6.216,21.406-7.2ZM44.24.588v.588h1.582V-5.418H38.6a18.907,18.907,0,0,0,1.12-2.338H47.1V-9.212H40.208a19.89,19.89,0,0,0,.574-2.31l-1.554-.308a20.46,20.46,0,0,1-.63,2.618H34.1v1.456h3.948a13.877,13.877,0,0,1-4.116,5.39c.42.448.77.84,1.106,1.232a17.573,17.573,0,0,0,1.9-1.918V1.176h1.512V.588ZM38.458-.84V-3.99H44.24V-.84ZM50.9-10.3v1.26H63.9V-10.3H58.142V-11.83h-1.6V-10.3Zm3.29,3.388h6.37v1.778h-6.37Zm3.948,3.01h3.99V-8.148H52.668v4.242H56.56V-.532c0,.182-.056.266-.266.28s-.868.014-1.344-.014l.28,1.414a11.294,11.294,0,0,0,1.988-.028c.686-.112.924-.546.924-1.33Zm-4.186.532a11.57,11.57,0,0,1-3.08,3.15l1.372.812A14.2,14.2,0,0,0,55.37-2.87Zm5.4.644A26.618,26.618,0,0,1,62.44.49l1.47-.728A29.447,29.447,0,0,0,60.662-3.4Z" transform="translate(-0.392 11.83)"/>
</svg>
