<svg xmlns="http://www.w3.org/2000/svg" width="101.393" height="118.883" viewBox="0 0 101.393 118.883">
  <g id="グループ_98" data-name="グループ 98" transform="translate(-37.289 -13.32)">
    <g id="title1" transform="translate(-67 -3418.268)">
      <path id="パス_851" data-name="パス 851" d="M.378.588c11.76,0,21.336-8.82,21.336-21C21.714-30.744,15.33-39.06,5-41.076L18.522-54.684v-10H-18.354v9.492H5L-14.07-36.036l7.056,7.056A12.163,12.163,0,0,1,.714-31.836c6.132,0,10.752,4.536,10.752,11.34,0,6.72-4.7,11.34-11.088,11.34a10.9,10.9,0,0,1-10.92-10.332H-20.874A21.108,21.108,0,0,0,.378.588Z" transform="translate(148 3497.268)" fill="#f2f2f2" stroke="#000" stroke-width="2"/>
    </g>
    <path id="パス_143" data-name="パス 143" d="M5728.017,1537.431l-99.971,101" transform="translate(-5590.046 -1506.932)" fill="none" stroke="#000" stroke-width="2"/>
  </g>
</svg>
