<svg xmlns="http://www.w3.org/2000/svg" width="30" height="13" viewBox="0 0 30 13">
  <path id="パス_822" data-name="パス 822" d="M6.65-8.652v-.49H10.7v.49Zm0,1.12v-.476H10.7v.476Zm0,1.148v-.49H10.7v.49ZM5.614-5.25a1.044,1.044,0,0,1-.1.168v-.49H7.98l-.2.112a6.3,6.3,0,0,1,1.2,1.12L9.912-4.8a6.457,6.457,0,0,0-.84-.77h2.814v.588c-.14-.112-.294-.224-.448-.336l-.966.5c.2.154.378.322.546.476l-1.078-.2c-.028.406-.042.42-.434.434H8.246c-.378-.014-.448-.07-.448-.434V-5.25H6.664v.434Zm4.41,4.718A5.079,5.079,0,0,0,11.872-2.38l-1.008-.336H8.274a5.23,5.23,0,0,0,.378-.434L8.12-3.192c.378.014,1.05.014,1.484,0,1.078-.014,1.3-.154,1.414-1.148A6.838,6.838,0,0,1,12.208-3l1.134-.462a6.144,6.144,0,0,0-.868-.98h.77V-6.384H12.152V-9.87H9.338c.084-.182.168-.378.252-.56h3.836v-1.036H4.536v1.036h3.57c-.042.182-.1.364-.154.56H5.25v3.486H4.2v1.946h.84A4.806,4.806,0,0,1,4-3.57l1.064.616a5.722,5.722,0,0,0,1.6-1.806v.224c0,.868.154,1.19.854,1.3L7.07-3.262a9.153,9.153,0,0,1-3.206,2.03l1.19.686a11.167,11.167,0,0,0,1.148-.6A8.333,8.333,0,0,0,7.2-.462,17.374,17.374,0,0,1,3.99.154L4.8,1.176A18,18,0,0,0,8.582.182a17.7,17.7,0,0,0,4.116.994L13.454.014A17.035,17.035,0,0,1,10.024-.532ZM7.21-1.82l.042-.028h2.6a4.986,4.986,0,0,1-1.232.826A5.921,5.921,0,0,1,7.21-1.82ZM3.472-8.512A25.712,25.712,0,0,0,4.4-11.48l-1.47-.336A19.191,19.191,0,0,1,.308-5.348L1.134-4c.308-.462.6-.924.868-1.4v6.58h1.47ZM19.39-9.226v6.09h8.82v-6.09H24.556V-9.87h5.67v-1.148h-5.67v-.8H22.974v.8h-5.6V-9.87h5.6v.644Zm1.526,1.064h5.712v.728H20.916Zm0,1.61h5.712v.728H20.916Zm0,1.61h5.712V-4.2H20.916ZM24.7-.868c1.5.728,2.786,1.414,3.808,2.044l1.54-.7C28.994-.14,27.832-.742,26.5-1.358H30.3v-1.19H17.3v1.19H21.14A16.392,16.392,0,0,1,17.5.336l1.4.84a17.6,17.6,0,0,0,3.934-2.1l-1.008-.434H25.62Z" transform="translate(-0.308 11.816)"/>
</svg>
