<svg xmlns="http://www.w3.org/2000/svg" width="49" height="12" viewBox="0 0 49 12">
  <path id="パス_824" data-name="パス 824" d="M4.312-2.366,2.184-8.134H.308L3.472-.56A9.556,9.556,0,0,1,1.484,2.6l1.638.728A12.6,12.6,0,0,0,5.1-.294c.826-2.072,2.1-5.81,2.772-7.84H6.02C5.6-6.5,4.9-4.06,4.312-2.366ZM17.444-.882A5.169,5.169,0,0,0,17.7.14l1.582-.224a8.76,8.76,0,0,1-.238-2.254v-5.8H17.346v6.048a2.8,2.8,0,0,1-2,.868c-1.148,0-1.484-.77-1.484-1.792V-8.134H12.18V-2.6c0,1.456.56,2.786,2.66,2.786A3.838,3.838,0,0,0,17.444-.882Zm6.9-7.168a6.431,6.431,0,0,1,.2,1.68V0h1.68V-6.034A2.834,2.834,0,0,1,28.238-6.9c1.134,0,1.484.77,1.484,1.806V0H31.4V-5.516c0-1.456-.56-2.772-2.66-2.772A3.722,3.722,0,0,0,26.152-7.2a4.934,4.934,0,0,0-.266-1.064Zm18.27,5.586V-5.628c0-1.862-.7-2.758-2.842-2.758a7.5,7.5,0,0,0-2.982.644l.364,1.4a5.267,5.267,0,0,1,2.422-.644c1.3,0,1.456.546,1.456,1.372v.546c-3.836.168-4.886.756-4.886,2.716A2.4,2.4,0,0,0,38.78.182,2.74,2.74,0,0,0,41.244-1.19,2.857,2.857,0,0,0,41.762.14l1.414-.252A3.878,3.878,0,0,1,42.616-2.464ZM41.034-3.822v1.134A1.962,1.962,0,0,1,39.1-1.19c-.56,0-1.386-.21-1.386-1.2C37.716-3.472,38.486-3.682,41.034-3.822Zm8.54,1.862H47.81V0h1.764Z" transform="translate(-0.308 8.386)"/>
</svg>
